    # Created by FreeCAD <https://www.freecad.org>
v 0.000000 11.468019 2.143744
v 0.000000 11.666667 0.000000
v 32.000000 11.666667 0.000000
v 32.000000 11.468019 2.143744
v 0.000000 10.878842 4.214486
v 32.000000 10.878842 4.214486
v 32.000000 9.919200 6.141708
v 0.000000 9.919200 6.141708
v 0.000000 8.621771 7.859783
v 32.000000 8.621771 7.859783
v 32.000000 7.030737 9.310201
v 0.000000 7.030737 9.310201
v 0.000000 5.200281 10.443572
v 32.000000 5.200281 10.443572
v 0.000000 3.192735 11.221299
v 32.000000 3.192735 11.221299
v 32.000000 1.076464 11.616899
v 0.000000 1.076464 11.616899
v 0.000000 -1.076464 11.616899
v 32.000000 -1.076464 11.616899
v 32.000000 -3.192735 11.221299
v 0.000000 -3.192735 11.221299
v 0.000000 -5.200281 10.443572
v 32.000000 -5.200281 10.443572
v 0.000000 -7.030737 9.310201
v 32.000000 -7.030737 9.310201
v 0.000000 -8.621771 7.859783
v 32.000000 -8.621771 7.859783
v 0.000000 -9.919200 6.141708
v 32.000000 -9.919200 6.141708
v 0.000000 -10.878842 4.214486
v 32.000000 -10.878842 4.214486
v 0.000000 -11.468019 2.143744
v 32.000000 -11.468019 2.143744
v 0.000000 -11.666667 0.000000
v 32.000000 -11.666667 0.000000
v 0.000000 -11.468019 -2.143744
v 32.000000 -11.468019 -2.143744
v 32.000000 -10.878842 -4.214486
v 0.000000 -10.878842 -4.214486
v 32.000000 -9.919200 -6.141708
v 0.000000 -9.919200 -6.141708
v 32.000000 -8.621771 -7.859783
v 0.000000 -8.621771 -7.859783
v 0.000000 -7.030737 -9.310201
v 32.000000 -7.030737 -9.310201
v 0.000000 -5.200281 -10.443572
v 32.000000 -5.200281 -10.443572
v 0.000000 -3.192735 -11.221299
v 32.000000 -3.192735 -11.221299
v 32.000000 -1.076464 -11.616899
v 0.000000 -1.076464 -11.616899
v 0.000000 1.076464 -11.616899
v 32.000000 1.076464 -11.616899
v 0.000000 3.192735 -11.221299
v 32.000000 3.192735 -11.221299
v 32.000000 5.200281 -10.443572
v 0.000000 5.200281 -10.443572
v 0.000000 7.030737 -9.310201
v 32.000000 7.030737 -9.310201
v 32.000000 8.621771 -7.859783
v 0.000000 8.621771 -7.859783
v 0.000000 9.919200 -6.141708
v 32.000000 9.919200 -6.141708
v 0.000000 10.878842 -4.214486
v 32.000000 10.878842 -4.214486
v 32.000000 11.468019 -2.143744
v 0.000000 11.468019 -2.143744
v 32.000000 -14.642685 -11.306714
v 32.000000 -12.840373 -13.318214
v 32.000000 -10.764390 -15.045860
v 32.000000 -16.132914 -9.054230
v 32.000000 -8.458983 -16.452829
v 32.000000 -5.973288 -17.509136
v 32.000000 -18.057404 -4.022458
v 32.000000 -17.279299 -6.608771
v 32.000000 -3.360282 -18.192265
v 32.000000 -18.450647 -1.350413
v 32.000000 -0.675657 -18.487658
v 32.000000 -18.450647 1.350413
v 32.000000 2.023367 -18.389017
v 32.000000 4.679267 -17.898449
v 32.000000 -18.057404 4.022458
v 32.000000 7.235437 -17.026405
v 32.000000 -16.132914 9.054230
v 32.000000 -17.279299 6.608771
v 32.000000 9.637396 -15.791472
v 32.000000 -14.642685 11.306714
v 32.000000 11.833951 -14.219972
v 32.000000 -12.840373 13.318214
v 32.000000 13.778285 -12.345398
v 32.000000 -10.764390 15.045860
v 32.000000 15.428960 -10.207704
v 32.000000 -8.458983 16.452829
v 32.000000 16.750792 -7.852449
v 32.000000 -5.973288 17.509136
v 32.000000 17.715611 -5.329834
v 32.000000 -3.360282 18.192265
v 32.000000 18.302853 -2.693622
v 32.000000 -0.675657 18.487658
v 32.000000 18.500000 0.000000
v 32.000000 2.023367 18.389017
v 32.000000 18.302853 2.693622
v 32.000000 4.679267 17.898449
v 32.000000 17.715611 5.329834
v 32.000000 7.235437 17.026405
v 32.000000 16.750792 7.852449
v 32.000000 9.637396 15.791472
v 32.000000 15.428960 10.207704
v 32.000000 11.833951 14.219972
v 32.000000 13.778285 12.345398
v 31.000000 18.500000 0.000000
v 31.000000 18.302853 2.693622
v 31.000000 17.715611 5.329834
v 31.000000 16.750792 7.852449
v 31.000000 15.428960 10.207704
v 31.000000 13.778285 12.345398
v 31.000000 11.833951 14.219972
v 31.000000 9.637396 15.791472
v 31.000000 7.235437 17.026405
v 31.000000 4.679267 17.898449
v 31.000000 2.023367 18.389017
v 31.000000 -0.675657 18.487658
v 31.000000 -3.360282 18.192265
v 31.000000 -5.973288 17.509136
v 31.000000 -8.458983 16.452829
v 31.000000 -10.764390 15.045860
v 31.000000 -12.840373 13.318214
v 31.000000 -14.642685 11.306714
v 31.000000 -16.132914 9.054230
v 31.000000 -17.279299 6.608771
v 31.000000 -18.057404 4.022458
v 31.000000 -18.450647 1.350413
v 31.000000 -18.450647 -1.350413
v 31.000000 -18.057404 -4.022458
v 31.000000 -17.279299 -6.608771
v 31.000000 -16.132914 -9.054230
v 31.000000 -14.642685 -11.306714
v 31.000000 -12.840373 -13.318214
v 31.000000 -10.764390 -15.045860
v 31.000000 -8.458983 -16.452829
v 31.000000 -5.973288 -17.509136
v 31.000000 -3.360282 -18.192265
v 31.000000 -0.675657 -18.487658
v 31.000000 2.023367 -18.389017
v 31.000000 4.679267 -17.898449
v 31.000000 7.235437 -17.026405
v 31.000000 9.637396 -15.791472
v 31.000000 11.833951 -14.219972
v 31.000000 13.778285 -12.345398
v 31.000000 15.428960 -10.207704
v 31.000000 16.750792 -7.852449
v 31.000000 17.715611 -5.329834
v 31.000000 18.302853 -2.693622
v 31.000000 -23.957851 -22.694082
v 31.000000 -21.363747 -25.151348
v 31.000000 -28.276287 -17.013277
v 31.000000 -26.271070 -19.970749
v 31.000000 -18.519173 -27.313738
v 31.000000 -29.949989 -13.856340
v 31.000000 -15.457479 -29.155897
v 31.000000 -12.214560 -30.656231
v 31.000000 -31.272554 -10.536950
v 31.000000 -8.828435 -31.797150
v 31.000000 -32.806553 -3.567928
v 31.000000 -32.228477 -7.094025
v 31.000000 -5.338806 -32.565277
v 31.000000 -33.000000 -0.000000
v 31.000000 -1.786584 -32.951603
v 31.000000 1.786584 -32.951603
v 31.000000 -32.806553 3.567928
v 31.000000 5.338806 -32.565277
v 31.000000 -31.272554 10.536950
v 31.000000 -32.228477 7.094025
v 31.000000 8.828435 -31.797150
v 31.000000 12.214560 -30.656231
v 31.000000 -29.949989 13.856340
v 31.000000 15.457479 -29.155897
v 31.000000 -28.276287 17.013277
v 31.000000 18.519173 -27.313738
v 31.000000 -26.271070 19.970749
v 31.000000 21.363747 -25.151348
v 31.000000 -23.957851 22.694082
v 31.000000 23.957851 -22.694082
v 31.000000 -21.363747 25.151348
v 31.000000 26.271070 -19.970749
v 31.000000 -18.519173 27.313738
v 31.000000 28.276287 -17.013277
v 31.000000 -15.457479 29.155897
v 31.000000 29.949989 -13.856340
v 31.000000 -12.214560 30.656231
v 31.000000 31.272554 -10.536950
v 31.000000 -8.828435 31.797150
v 31.000000 32.228477 -7.094025
v 31.000000 -5.338806 32.565277
v 31.000000 32.806553 -3.567928
v 31.000000 -1.786584 32.951603
v 31.000000 33.000000 0.000000
v 31.000000 1.786584 32.951603
v 31.000000 32.806553 3.567928
v 31.000000 5.338806 32.565277
v 31.000000 32.228477 7.094025
v 31.000000 8.828435 31.797150
v 31.000000 31.272554 10.536950
v 31.000000 12.214560 30.656231
v 31.000000 29.949989 13.856340
v 31.000000 15.457479 29.155897
v 31.000000 28.276287 17.013277
v 31.000000 18.519173 27.313738
v 31.000000 26.271070 19.970749
v 31.000000 21.363747 25.151348
v 31.000000 23.957851 22.694082
v 30.000000 33.000000 0.000000
v 30.000000 32.806553 3.567928
v 30.000000 32.228477 7.094025
v 30.000000 31.272554 10.536950
v 30.000000 29.949989 13.856340
v 30.000000 28.276287 17.013277
v 30.000000 26.271070 19.970749
v 30.000000 23.957851 22.694082
v 30.000000 21.363747 25.151348
v 30.000000 18.519173 27.313738
v 30.000000 15.457479 29.155897
v 30.000000 12.214560 30.656231
v 30.000000 8.828435 31.797150
v 30.000000 5.338806 32.565277
v 30.000000 1.786584 32.951603
v 30.000000 -1.786584 32.951603
v 30.000000 -5.338806 32.565277
v 30.000000 -8.828435 31.797150
v 30.000000 -12.214560 30.656231
v 30.000000 -15.457479 29.155897
v 30.000000 -18.519173 27.313738
v 30.000000 -21.363747 25.151348
v 30.000000 -23.957851 22.694082
v 30.000000 -26.271070 19.970749
v 30.000000 -28.276287 17.013277
v 30.000000 -29.949989 13.856340
v 30.000000 -31.272554 10.536950
v 30.000000 -32.228477 7.094025
v 30.000000 -32.806553 3.567928
v 30.000000 -33.000000 -0.000000
v 30.000000 -32.806553 -3.567928
v 30.000000 -32.228477 -7.094025
v 30.000000 -31.272554 -10.536950
v 30.000000 -29.949989 -13.856340
v 30.000000 -28.276287 -17.013277
v 30.000000 -26.271070 -19.970749
v 30.000000 -23.957851 -22.694082
v 30.000000 -21.363747 -25.151348
v 30.000000 -18.519173 -27.313738
v 30.000000 -15.457479 -29.155897
v 30.000000 -12.214560 -30.656231
v 30.000000 -8.828435 -31.797150
v 30.000000 -5.338806 -32.565277
v 30.000000 -1.786584 -32.951603
v 30.000000 1.786584 -32.951603
v 30.000000 5.338806 -32.565277
v 30.000000 8.828435 -31.797150
v 30.000000 12.214560 -30.656231
v 30.000000 15.457479 -29.155897
v 30.000000 18.519173 -27.313738
v 30.000000 21.363747 -25.151348
v 30.000000 23.957851 -22.694082
v 30.000000 26.271070 -19.970749
v 30.000000 28.276287 -17.013277
v 30.000000 29.949989 -13.856340
v 30.000000 31.272554 -10.536950
v 30.000000 32.228477 -7.094025
v 30.000000 32.806553 -3.567928
v 30.000000 -26.944189 -22.338547
v 30.000000 -24.417103 -25.075987
v 30.000000 -21.613361 -27.529305
v 30.000000 -29.165987 -19.348001
v 30.000000 -18.564732 -29.670706
v 30.000000 -31.057323 -16.138237
v 30.000000 -15.305757 -31.475925
v 30.000000 -32.596767 -12.745620
v 30.000000 -11.873361 -32.924511
v 30.000000 -33.766876 -9.208590
v 30.000000 -8.306435 -34.000046
v 30.000000 -34.554394 -5.567223
v 30.000000 -4.645393 -34.690350
v 30.000000 -34.950394 -1.862776
v 30.000000 -0.931718 -34.987595
v 30.000000 -34.950394 1.862776
v 30.000000 2.792514 -34.888420
v 30.000000 -34.554394 5.567223
v 30.000000 6.485106 -34.393944
v 30.000000 -33.766876 9.208590
v 30.000000 10.104218 -33.509769
v 30.000000 -32.596767 12.745620
v 30.000000 13.608846 -32.245918
v 30.000000 -31.057323 16.138237
v 30.000000 16.959280 -30.616709
v 30.000000 -29.165987 19.348001
v 30.000000 20.117559 -28.640596
v 30.000000 -26.944189 22.338547
v 30.000000 23.047897 -26.339977
v 30.000000 -24.417103 25.075987
v 30.000000 25.717094 -23.740913
v 30.000000 -21.613361 27.529305
v 30.000000 28.094908 -20.872858
v 30.000000 -18.564732 29.670706
v 30.000000 30.154392 -17.768303
v 30.000000 -15.305757 31.475925
v 30.000000 31.872217 -14.462426
v 30.000000 -11.873361 32.924511
v 30.000000 33.228916 -10.992685
v 30.000000 -8.306435 34.000046
v 30.000000 34.209118 -7.398392
v 30.000000 -4.645393 34.690350
v 30.000000 34.801720 -3.720272
v 30.000000 -0.931718 34.987595
v 30.000000 35.000000 0.000000
v 30.000000 2.792514 34.888420
v 30.000000 34.801720 3.720272
v 30.000000 6.485106 34.393944
v 30.000000 34.209118 7.398392
v 30.000000 10.104218 33.509769
v 30.000000 33.228916 10.992685
v 30.000000 13.608846 32.245918
v 30.000000 31.872217 14.462426
v 30.000000 16.959280 30.616709
v 30.000000 30.154392 17.768303
v 30.000000 20.117559 28.640596
v 30.000000 28.094908 20.872858
v 30.000000 23.047897 26.339977
v 30.000000 25.717094 23.740913
v 10.000000 35.000000 0.000000
v 10.000000 34.801720 3.720272
v 10.000000 34.209118 7.398392
v 10.000000 33.228916 10.992685
v 10.000000 31.872217 14.462426
v 10.000000 30.154392 17.768303
v 10.000000 28.094908 20.872858
v 10.000000 25.717094 23.740913
v 10.000000 23.047897 26.339977
v 10.000000 20.117559 28.640596
v 10.000000 16.959280 30.616709
v 10.000000 13.608846 32.245918
v 10.000000 10.104218 33.509769
v 10.000000 6.485106 34.393944
v 10.000000 2.792514 34.888420
v 10.000000 -0.931718 34.987595
v 10.000000 -4.645393 34.690350
v 10.000000 -8.306435 34.000046
v 10.000000 -11.873361 32.924511
v 10.000000 -15.305757 31.475925
v 10.000000 -18.564732 29.670706
v 10.000000 -21.613361 27.529305
v 10.000000 -24.417103 25.075987
v 10.000000 -26.944189 22.338547
v 10.000000 -29.165987 19.348001
v 10.000000 -31.057323 16.138237
v 10.000000 -32.596767 12.745620
v 10.000000 -33.766876 9.208590
v 10.000000 -34.554394 5.567223
v 10.000000 -34.950394 1.862776
v 10.000000 -34.950394 -1.862776
v 10.000000 -34.554394 -5.567223
v 10.000000 -33.766876 -9.208590
v 10.000000 -32.596767 -12.745620
v 10.000000 -31.057323 -16.138237
v 10.000000 -29.165987 -19.348001
v 10.000000 -26.944189 -22.338547
v 10.000000 -24.417103 -25.075987
v 10.000000 -21.613361 -27.529305
v 10.000000 -18.564732 -29.670706
v 10.000000 -15.305757 -31.475925
v 10.000000 -11.873361 -32.924511
v 10.000000 -8.306435 -34.000046
v 10.000000 -4.645393 -34.690350
v 10.000000 -0.931718 -34.987595
v 10.000000 2.792514 -34.888420
v 10.000000 6.485106 -34.393944
v 10.000000 10.104218 -33.509769
v 10.000000 13.608846 -32.245918
v 10.000000 16.959280 -30.616709
v 10.000000 20.117559 -28.640596
v 10.000000 23.047897 -26.339977
v 10.000000 25.717094 -23.740913
v 10.000000 28.094908 -20.872858
v 10.000000 30.154392 -17.768303
v 10.000000 31.872217 -14.462426
v 10.000000 33.228916 -10.992685
v 10.000000 34.209118 -7.398392
v 10.000000 34.801720 -3.720272
v 10.000000 12.828407 -11.903023
v 10.000000 10.911072 -13.682051
v 10.000000 14.459179 -9.858101
v 10.000000 8.750000 -15.155444
v 10.000000 15.766955 -7.592966
v 10.000000 6.393468 -16.290291
v 10.000000 16.722525 -5.158216
v 10.000000 3.894116 -17.061239
v 10.000000 17.304539 -2.608240
v 10.000000 1.307777 -17.451067
v 10.000000 17.500000 0.000000
v 10.000000 -1.307777 -17.451067
v 10.000000 17.304539 2.608240
v 10.000000 -3.894116 -17.061239
v 10.000000 16.722525 5.158216
v 10.000000 -6.393468 -16.290291
v 10.000000 15.766955 7.592966
v 10.000000 -8.750000 -15.155444
v 10.000000 14.459179 9.858101
v 10.000000 -10.911072 -13.682051
v 10.000000 12.828407 11.903023
v 10.000000 -12.828407 -11.903023
v 10.000000 10.911072 13.682051
v 10.000000 -14.459179 -9.858101
v 10.000000 8.750000 15.155444
v 10.000000 -15.766955 -7.592966
v 10.000000 6.393468 16.290291
v 10.000000 -16.722525 -5.158216
v 10.000000 3.894116 17.061239
v 10.000000 -17.304539 -2.608240
v 10.000000 1.307777 17.451067
v 10.000000 -17.500000 -0.000000
v 10.000000 -1.307777 17.451067
v 10.000000 -17.304539 2.608240
v 10.000000 -3.894116 17.061239
v 10.000000 -16.722525 5.158216
v 10.000000 -6.393468 16.290291
v 10.000000 -15.766955 7.592966
v 10.000000 -8.750000 15.155444
v 10.000000 -14.459179 9.858101
v 10.000000 -10.911072 13.682051
v 10.000000 -12.828407 11.903023
v 0.000000 17.500000 0.000000
v 0.000000 17.304539 2.608240
v 0.000000 16.722525 5.158216
v 0.000000 15.766955 7.592966
v 0.000000 14.459179 9.858101
v 0.000000 12.828407 11.903023
v 0.000000 10.911072 13.682051
v 0.000000 8.750000 15.155444
v 0.000000 6.393468 16.290291
v 0.000000 3.894116 17.061239
v 0.000000 1.307777 17.451067
v 0.000000 -1.307777 17.451067
v 0.000000 -3.894116 17.061239
v 0.000000 -6.393468 16.290291
v 0.000000 -8.750000 15.155444
v 0.000000 -10.911072 13.682051
v 0.000000 -12.828407 11.903023
v 0.000000 -14.459179 9.858101
v 0.000000 -15.766955 7.592966
v 0.000000 -16.722525 5.158216
v 0.000000 -17.304539 2.608240
v 0.000000 -17.500000 -0.000000
v 0.000000 -17.304539 -2.608240
v 0.000000 -16.722525 -5.158216
v 0.000000 -15.766955 -7.592966
v 0.000000 -14.459179 -9.858101
v 0.000000 -12.828407 -11.903023
v 0.000000 -10.911072 -13.682051
v 0.000000 -8.750000 -15.155444
v 0.000000 -6.393468 -16.290291
v 0.000000 -3.894116 -17.061239
v 0.000000 -1.307777 -17.451067
v 0.000000 1.307777 -17.451067
v 0.000000 3.894116 -17.061239
v 0.000000 6.393468 -16.290291
v 0.000000 8.750000 -15.155444
v 0.000000 10.911072 -13.682051
v 0.000000 12.828407 -11.903023
v 0.000000 14.459179 -9.858101
v 0.000000 15.766955 -7.592966
v 0.000000 16.722525 -5.158216
v 0.000000 17.304539 -2.608240
vn 0.000000 -0.995734 -0.092269
vn 0.000000 -0.995734 -0.092269
vn 0.000000 -0.961826 -0.273663
vn 0.000000 -0.895163 -0.445738
vn 0.000000 -0.961826 -0.273663
vn 0.000000 -0.895163 -0.445738
vn 0.000000 -0.798017 -0.602634
vn 0.000000 -0.673696 -0.739009
vn 0.000000 -0.798017 -0.602634
vn 0.000000 -0.673696 -0.739009
vn 0.000000 -0.526432 -0.850217
vn 0.000000 -0.526432 -0.850217
vn 0.000000 -0.361242 -0.932472
vn 0.000000 -0.361242 -0.932472
vn 0.000000 -0.183749 -0.982973
vn 0.000000 -0.183749 -0.982973
vn 0.000000 0.000000 -1.000000
vn 0.000000 0.000000 -1.000000
vn 0.000000 0.183749 -0.982973
vn 0.000000 0.183749 -0.982973
vn 0.000000 0.361242 -0.932472
vn 0.000000 0.361242 -0.932472
vn 0.000000 0.526432 -0.850217
vn 0.000000 0.526432 -0.850217
vn 0.000000 0.673696 -0.739009
vn 0.000000 0.673696 -0.739009
vn 0.000000 0.798017 -0.602634
vn 0.000000 0.798017 -0.602634
vn 0.000000 0.895163 -0.445738
vn 0.000000 0.895163 -0.445738
vn 0.000000 0.961826 -0.273663
vn 0.000000 0.961826 -0.273663
vn 0.000000 0.995734 -0.092269
vn 0.000000 0.995734 -0.092269
vn 0.000000 0.995734 0.092269
vn -0.000000 0.995734 0.092269
vn -0.000000 0.961826 0.273663
vn -0.000000 0.961826 0.273663
vn -0.000000 0.895163 0.445738
vn -0.000000 0.895163 0.445738
vn -0.000000 0.798017 0.602634
vn -0.000000 0.798017 0.602634
vn -0.000000 0.673696 0.739009
vn 0.000000 0.673696 0.739009
vn -0.000000 0.526432 0.850217
vn 0.000000 0.526432 0.850217
vn -0.000000 0.361242 0.932472
vn -0.000000 0.183749 0.982973
vn 0.000000 0.361242 0.932472
vn -0.000000 0.183749 0.982973
vn -0.000000 0.000000 1.000000
vn 0.000000 0.000000 1.000000
vn 0.000000 -0.183749 0.982973
vn 0.000000 -0.361242 0.932472
vn 0.000000 -0.183749 0.982973
vn 0.000000 -0.361242 0.932472
vn 0.000000 -0.526432 0.850217
vn 0.000000 -0.673696 0.739009
vn 0.000000 -0.526432 0.850217
vn 0.000000 -0.673696 0.739009
vn 0.000000 -0.798017 0.602634
vn 0.000000 -0.798017 0.602634
vn 0.000000 -0.895163 0.445738
vn 0.000000 -0.961826 0.273663
vn 0.000000 -0.895163 0.445738
vn 0.000000 -0.961826 0.273663
vn 0.000000 -0.995734 0.092269
vn 0.000000 -0.995734 0.092269
vn 1.000000 0.000000 0.000000
vn 1.000000 0.000000 0.000000
vn 1.000000 0.000000 0.000000
vn 1.000000 0.000000 0.000000
vn 1.000000 0.000000 0.000000
vn 1.000000 0.000000 0.000000
vn 1.000000 0.000000 0.000000
vn 1.000000 0.000000 0.000000
vn 1.000000 0.000000 0.000000
vn 1.000000 0.000000 0.000000
vn 1.000000 0.000000 0.000000
vn 1.000000 0.000000 0.000000
vn 1.000000 0.000000 0.000000
vn 1.000000 0.000000 0.000000
vn 1.000000 0.000000 0.000000
vn 1.000000 0.000000 0.000000
vn 1.000000 0.000000 0.000000
vn 1.000000 0.000000 0.000000
vn 1.000000 0.000000 0.000000
vn 1.000000 0.000000 0.000000
vn 1.000000 0.000000 0.000000
vn 1.000000 0.000000 0.000000
vn 1.000000 0.000000 0.000000
vn 1.000000 0.000000 0.000000
vn 1.000000 0.000000 0.000000
vn 1.000000 0.000000 0.000000
vn 1.000000 0.000000 0.000000
vn 1.000000 0.000000 0.000000
vn 1.000000 0.000000 0.000000
vn 1.000000 0.000000 0.000000
vn 1.000000 0.000000 0.000000
vn 1.000000 0.000000 0.000000
vn 1.000000 0.000000 0.000000
vn 1.000000 0.000000 0.000000
vn 1.000000 0.000000 0.000000
vn 1.000000 0.000000 0.000000
vn 1.000000 0.000000 0.000000
vn 1.000000 0.000000 0.000000
vn 1.000000 0.000000 0.000000
vn 1.000000 0.000000 0.000000
vn 1.000000 0.000000 0.000000
vn 1.000000 0.000000 0.000000
vn 1.000000 0.000000 0.000000
vn 1.000000 0.000000 0.000000
vn 1.000000 0.000000 0.000000
vn 1.000000 0.000000 0.000000
vn 1.000000 0.000000 0.000000
vn 1.000000 0.000000 0.000000
vn 1.000000 0.000000 0.000000
vn 1.000000 0.000000 0.000000
vn 1.000000 0.000000 0.000000
vn 1.000000 0.000000 0.000000
vn 1.000000 0.000000 0.000000
vn 1.000000 0.000000 0.000000
vn 1.000000 0.000000 0.000000
vn 1.000000 0.000000 0.000000
vn 1.000000 0.000000 0.000000
vn 1.000000 0.000000 0.000000
vn 1.000000 0.000000 0.000000
vn 1.000000 0.000000 0.000000
vn 1.000000 0.000000 0.000000
vn 1.000000 0.000000 0.000000
vn 1.000000 0.000000 0.000000
vn 1.000000 0.000000 0.000000
vn 1.000000 0.000000 0.000000
vn 1.000000 0.000000 0.000000
vn 1.000000 0.000000 0.000000
vn 1.000000 0.000000 0.000000
vn 1.000000 0.000000 0.000000
vn 1.000000 0.000000 0.000000
vn 1.000000 0.000000 0.000000
vn 1.000000 0.000000 0.000000
vn 1.000000 0.000000 0.000000
vn 1.000000 0.000000 0.000000
vn 1.000000 0.000000 0.000000
vn 1.000000 0.000000 0.000000
vn 1.000000 0.000000 0.000000
vn 0.000000 0.997332 0.072995
vn 0.000000 0.997332 0.072995
vn 0.000000 0.976076 0.217431
vn 0.000000 0.976076 0.217431
vn 0.000000 0.934016 0.357231
vn 0.000000 0.934016 0.357231
vn 0.000000 0.872050 0.489417
vn 0.000000 0.872050 0.489417
vn 0.000000 0.791496 0.611174
vn 0.000000 0.791496 0.611174
vn 0.000000 0.694074 0.719903
vn 0.000000 0.694074 0.719903
vn 0.000000 0.581859 0.813290
vn 0.000000 0.581859 0.813290
vn 0.000000 0.457243 0.889342
vn 0.000000 0.457243 0.889342
vn 0.000000 0.322880 0.946440
vn 0.000000 0.322880 0.946440
vn 0.000000 0.181636 0.983366
vn 0.000000 0.181636 0.983366
vn 0.000000 0.036522 0.999333
vn 0.000000 0.036522 0.999333
vn 0.000000 -0.109371 0.994001
vn 0.000000 -0.109371 0.994001
vn 0.000000 -0.252933 0.967484
vn 0.000000 -0.252933 0.967484
vn 0.000000 -0.391105 0.920346
vn 0.000000 -0.391105 0.920346
vn 0.000000 -0.520940 0.853593
vn 0.000000 -0.520940 0.853593
vn 0.000000 -0.639673 0.768647
vn 0.000000 -0.639673 0.768647
vn 0.000000 -0.744772 0.667319
vn 0.000000 -0.744772 0.667319
vn 0.000000 -0.833998 0.551768
vn 0.000000 -0.833998 0.551768
vn 0.000000 -0.905448 0.424457
vn 0.000000 -0.905448 0.424457
vn 0.000000 -0.957601 0.288099
vn 0.000000 -0.957601 0.288099
vn 0.000000 -0.989343 0.145601
vn -0.000000 -1.000000 0.000000
vn 0.000000 -0.989343 0.145601
vn 0.000000 -1.000000 0.000000
vn -0.000000 -0.989343 -0.145601
vn 0.000000 -0.989343 -0.145601
vn -0.000000 -0.957601 -0.288099
vn 0.000000 -0.957601 -0.288099
vn -0.000000 -0.905448 -0.424457
vn -0.000000 -0.833998 -0.551768
vn 0.000000 -0.905448 -0.424457
vn -0.000000 -0.833998 -0.551768
vn -0.000000 -0.744772 -0.667319
vn -0.000000 -0.639673 -0.768647
vn 0.000000 -0.744772 -0.667319
vn -0.000000 -0.639673 -0.768647
vn 0.000000 -0.520940 -0.853593
vn -0.000000 -0.520940 -0.853593
vn -0.000000 -0.391105 -0.920346
vn -0.000000 -0.391105 -0.920346
vn 0.000000 -0.252933 -0.967484
vn -0.000000 -0.252933 -0.967484
vn 0.000000 -0.109371 -0.994001
vn -0.000000 -0.109371 -0.994001
vn 0.000000 0.036522 -0.999333
vn 0.000000 0.036522 -0.999333
vn 0.000000 0.181636 -0.983366
vn 0.000000 0.181636 -0.983366
vn 0.000000 0.322880 -0.946440
vn 0.000000 0.322880 -0.946440
vn 0.000000 0.457243 -0.889342
vn 0.000000 0.457243 -0.889342
vn 0.000000 0.581859 -0.813290
vn 0.000000 0.581859 -0.813290
vn 0.000000 0.694074 -0.719903
vn 0.000000 0.694074 -0.719903
vn 0.000000 0.791496 -0.611174
vn 0.000000 0.791496 -0.611174
vn 0.000000 0.872050 -0.489417
vn 0.000000 0.872050 -0.489417
vn 0.000000 0.934016 -0.357231
vn 0.000000 0.976076 -0.217431
vn 0.000000 0.934016 -0.357231
vn 0.000000 0.976076 -0.217431
vn 0.000000 0.997332 -0.072995
vn 0.000000 0.997332 -0.072995
vn 1.000000 0.000000 0.000000
vn 1.000000 0.000000 0.000000
vn 1.000000 0.000000 0.000000
vn 1.000000 0.000000 0.000000
vn 1.000000 0.000000 0.000000
vn 1.000000 0.000000 0.000000
vn 1.000000 0.000000 0.000000
vn 1.000000 0.000000 0.000000
vn 1.000000 0.000000 0.000000
vn 1.000000 0.000000 0.000000
vn 1.000000 0.000000 0.000000
vn 1.000000 0.000000 0.000000
vn 1.000000 0.000000 0.000000
vn 1.000000 0.000000 0.000000
vn 1.000000 0.000000 0.000000
vn 1.000000 0.000000 0.000000
vn 1.000000 0.000000 0.000000
vn 1.000000 0.000000 0.000000
vn 1.000000 0.000000 0.000000
vn 1.000000 0.000000 0.000000
vn 1.000000 0.000000 0.000000
vn 1.000000 0.000000 0.000000
vn 1.000000 0.000000 0.000000
vn 1.000000 0.000000 0.000000
vn 1.000000 0.000000 0.000000
vn 1.000000 0.000000 0.000000
vn 1.000000 0.000000 0.000000
vn 1.000000 0.000000 0.000000
vn 1.000000 0.000000 0.000000
vn 1.000000 0.000000 0.000000
vn 1.000000 0.000000 0.000000
vn 1.000000 0.000000 0.000000
vn 1.000000 0.000000 0.000000
vn 1.000000 0.000000 0.000000
vn 1.000000 0.000000 0.000000
vn 1.000000 0.000000 0.000000
vn 1.000000 0.000000 0.000000
vn 1.000000 0.000000 0.000000
vn 1.000000 0.000000 0.000000
vn 1.000000 0.000000 0.000000
vn 1.000000 0.000000 0.000000
vn 1.000000 0.000000 0.000000
vn 1.000000 0.000000 0.000000
vn 1.000000 0.000000 0.000000
vn 1.000000 0.000000 0.000000
vn 1.000000 0.000000 0.000000
vn 1.000000 0.000000 0.000000
vn 1.000000 0.000000 0.000000
vn 1.000000 0.000000 0.000000
vn 1.000000 0.000000 0.000000
vn 1.000000 0.000000 0.000000
vn 1.000000 0.000000 0.000000
vn 1.000000 0.000000 0.000000
vn 1.000000 0.000000 0.000000
vn 1.000000 0.000000 0.000000
vn 1.000000 0.000000 0.000000
vn 1.000000 0.000000 0.000000
vn 1.000000 0.000000 0.000000
vn 1.000000 0.000000 0.000000
vn 1.000000 0.000000 0.000000
vn 1.000000 0.000000 0.000000
vn 1.000000 0.000000 0.000000
vn 1.000000 0.000000 0.000000
vn 1.000000 0.000000 0.000000
vn 1.000000 0.000000 0.000000
vn 1.000000 0.000000 0.000000
vn 1.000000 0.000000 0.000000
vn 1.000000 0.000000 0.000000
vn 1.000000 0.000000 0.000000
vn 1.000000 0.000000 0.000000
vn 1.000000 0.000000 0.000000
vn 1.000000 0.000000 0.000000
vn 1.000000 0.000000 0.000000
vn 1.000000 0.000000 0.000000
vn 1.000000 0.000000 0.000000
vn 1.000000 0.000000 0.000000
vn 1.000000 0.000000 0.000000
vn 1.000000 0.000000 0.000000
vn 1.000000 0.000000 0.000000
vn 1.000000 0.000000 0.000000
vn 1.000000 0.000000 0.000000
vn 1.000000 0.000000 0.000000
vn 1.000000 0.000000 0.000000
vn 1.000000 0.000000 0.000000
vn 1.000000 0.000000 0.000000
vn 1.000000 0.000000 0.000000
vn 1.000000 0.000000 0.000000
vn 1.000000 0.000000 0.000000
vn 1.000000 0.000000 0.000000
vn 1.000000 0.000000 0.000000
vn 1.000000 0.000000 0.000000
vn 1.000000 0.000000 0.000000
vn 1.000000 0.000000 0.000000
vn 1.000000 0.000000 0.000000
vn 1.000000 0.000000 0.000000
vn 1.000000 0.000000 0.000000
vn 1.000000 0.000000 0.000000
vn 1.000000 0.000000 0.000000
vn 1.000000 0.000000 0.000000
vn 1.000000 0.000000 0.000000
vn 1.000000 0.000000 0.000000
vn 0.000000 0.998533 0.054139
vn 0.000000 0.998533 0.054139
vn 0.000000 0.986826 0.161782
vn 0.000000 0.986826 0.161782
vn 0.000000 0.963550 0.267528
vn 0.000000 0.963550 0.267528
vn 0.000000 0.928977 0.370138
vn 0.000000 0.928977 0.370138
vn 0.000000 0.883512 0.468409
vn 0.000000 0.883512 0.468409
vn 0.000000 0.827689 0.561187
vn 0.000000 0.827689 0.561187
vn 0.000000 0.762162 0.647386
vn 0.000000 0.762162 0.647386
vn 0.000000 0.687699 0.725996
vn 0.000000 0.687699 0.725996
vn 0.000000 0.605174 0.796093
vn 0.000000 0.515554 0.856857
vn 0.000000 0.605174 0.796093
vn 0.000000 0.515554 0.856857
vn 0.000000 0.419889 0.907575
vn 0.000000 0.319302 0.947653
vn 0.000000 0.419889 0.907575
vn 0.000000 0.319302 0.947653
vn 0.000000 0.214971 0.976620
vn 0.000000 0.214971 0.976620
vn 0.000000 0.108119 0.994138
vn 0.000000 0.108119 0.994138
vn 0.000000 0.000000 1.000000
vn 0.000000 -0.000000 1.000000
vn 0.000000 -0.108119 0.994138
vn 0.000000 -0.108119 0.994138
vn 0.000000 -0.214971 0.976620
vn 0.000000 -0.214971 0.976620
vn 0.000000 -0.319302 0.947653
vn 0.000000 -0.319302 0.947653
vn 0.000000 -0.419889 0.907575
vn 0.000000 -0.419889 0.907575
vn 0.000000 -0.515554 0.856857
vn 0.000000 -0.515554 0.856857
vn 0.000000 -0.605174 0.796093
vn 0.000000 -0.605174 0.796093
vn 0.000000 -0.687699 0.725996
vn 0.000000 -0.687699 0.725996
vn 0.000000 -0.762162 0.647386
vn 0.000000 -0.762162 0.647386
vn 0.000000 -0.827689 0.561187
vn 0.000000 -0.827689 0.561187
vn 0.000000 -0.883512 0.468409
vn 0.000000 -0.883512 0.468409
vn 0.000000 -0.928977 0.370138
vn 0.000000 -0.928977 0.370138
vn 0.000000 -0.963550 0.267528
vn 0.000000 -0.963550 0.267528
vn 0.000000 -0.986826 0.161782
vn 0.000000 -0.986826 0.161782
vn 0.000000 -0.998533 0.054139
vn 0.000000 -0.998533 0.054139
vn -0.000000 -0.998533 -0.054139
vn 0.000000 -0.998533 -0.054139
vn -0.000000 -0.986826 -0.161782
vn 0.000000 -0.986826 -0.161782
vn -0.000000 -0.963550 -0.267528
vn 0.000000 -0.963550 -0.267528
vn -0.000000 -0.928977 -0.370138
vn 0.000000 -0.928977 -0.370138
vn -0.000000 -0.883512 -0.468409
vn 0.000000 -0.883512 -0.468409
vn -0.000000 -0.827689 -0.561187
vn 0.000000 -0.827689 -0.561187
vn -0.000000 -0.762162 -0.647386
vn 0.000000 -0.762162 -0.647386
vn -0.000000 -0.687699 -0.725996
vn 0.000000 -0.687699 -0.725996
vn -0.000000 -0.605174 -0.796093
vn 0.000000 -0.605174 -0.796093
vn -0.000000 -0.515554 -0.856857
vn 0.000000 -0.515554 -0.856857
vn -0.000000 -0.419889 -0.907575
vn 0.000000 -0.419889 -0.907575
vn -0.000000 -0.319302 -0.947653
vn 0.000000 -0.319302 -0.947653
vn -0.000000 -0.214971 -0.976620
vn 0.000000 -0.214971 -0.976620
vn -0.000000 -0.108119 -0.994138
vn 0.000000 0.000000 -1.000000
vn 0.000000 -0.108119 -0.994138
vn -0.000000 -0.000000 -1.000000
vn 0.000000 0.108119 -0.994138
vn 0.000000 0.108119 -0.994138
vn 0.000000 0.214971 -0.976620
vn 0.000000 0.214971 -0.976620
vn 0.000000 0.319302 -0.947653
vn 0.000000 0.319302 -0.947653
vn 0.000000 0.419889 -0.907575
vn 0.000000 0.419889 -0.907575
vn 0.000000 0.515554 -0.856857
vn 0.000000 0.515554 -0.856857
vn 0.000000 0.605174 -0.796093
vn 0.000000 0.605174 -0.796093
vn 0.000000 0.687699 -0.725996
vn 0.000000 0.687699 -0.725996
vn 0.000000 0.762162 -0.647386
vn 0.000000 0.762162 -0.647386
vn 0.000000 0.827689 -0.561187
vn 0.000000 0.827689 -0.561187
vn 0.000000 0.883512 -0.468409
vn 0.000000 0.883512 -0.468409
vn 0.000000 0.928977 -0.370138
vn 0.000000 0.928977 -0.370138
vn 0.000000 0.963550 -0.267528
vn 0.000000 0.963550 -0.267528
vn 0.000000 0.986826 -0.161782
vn 0.000000 0.986826 -0.161782
vn 0.000000 0.998533 -0.054139
vn 0.000000 0.998533 -0.054139
vn 1.000000 0.000000 0.000000
vn 1.000000 0.000000 0.000000
vn 1.000000 0.000000 0.000000
vn 1.000000 0.000000 0.000000
vn 1.000000 0.000000 0.000000
vn 1.000000 0.000000 0.000000
vn 1.000000 0.000000 0.000000
vn 1.000000 0.000000 0.000000
vn 1.000000 0.000000 0.000000
vn 1.000000 0.000000 0.000000
vn 1.000000 0.000000 0.000000
vn 1.000000 0.000000 0.000000
vn 1.000000 0.000000 0.000000
vn 1.000000 0.000000 0.000000
vn 1.000000 0.000000 0.000000
vn 1.000000 0.000000 0.000000
vn 1.000000 0.000000 0.000000
vn 1.000000 0.000000 0.000000
vn 1.000000 0.000000 0.000000
vn 1.000000 0.000000 0.000000
vn 1.000000 0.000000 0.000000
vn 1.000000 0.000000 0.000000
vn 1.000000 0.000000 0.000000
vn 1.000000 0.000000 0.000000
vn 1.000000 0.000000 0.000000
vn 1.000000 0.000000 0.000000
vn 1.000000 0.000000 0.000000
vn 1.000000 0.000000 0.000000
vn 1.000000 0.000000 0.000000
vn 1.000000 0.000000 0.000000
vn 1.000000 0.000000 0.000000
vn 1.000000 0.000000 0.000000
vn 1.000000 0.000000 0.000000
vn 1.000000 0.000000 0.000000
vn 1.000000 0.000000 0.000000
vn 1.000000 0.000000 0.000000
vn 1.000000 0.000000 0.000000
vn 1.000000 0.000000 0.000000
vn 1.000000 0.000000 0.000000
vn 1.000000 0.000000 0.000000
vn 1.000000 0.000000 0.000000
vn 1.000000 0.000000 0.000000
vn 1.000000 0.000000 0.000000
vn 1.000000 0.000000 0.000000
vn 1.000000 0.000000 0.000000
vn 1.000000 0.000000 0.000000
vn 1.000000 0.000000 0.000000
vn 1.000000 0.000000 0.000000
vn 1.000000 0.000000 0.000000
vn 1.000000 0.000000 0.000000
vn 1.000000 0.000000 0.000000
vn 1.000000 0.000000 0.000000
vn 1.000000 0.000000 0.000000
vn 1.000000 0.000000 0.000000
vn 1.000000 0.000000 0.000000
vn 1.000000 0.000000 0.000000
vn 1.000000 0.000000 0.000000
vn 1.000000 0.000000 0.000000
vn 1.000000 0.000000 0.000000
vn 1.000000 0.000000 0.000000
vn 1.000000 0.000000 0.000000
vn 1.000000 0.000000 0.000000
vn 1.000000 0.000000 0.000000
vn 1.000000 0.000000 0.000000
vn 1.000000 0.000000 0.000000
vn 1.000000 0.000000 0.000000
vn 1.000000 0.000000 0.000000
vn 1.000000 0.000000 0.000000
vn 1.000000 0.000000 0.000000
vn 1.000000 0.000000 0.000000
vn 1.000000 0.000000 0.000000
vn 1.000000 0.000000 0.000000
vn 1.000000 0.000000 0.000000
vn 1.000000 0.000000 0.000000
vn 1.000000 0.000000 0.000000
vn 1.000000 0.000000 0.000000
vn 1.000000 0.000000 0.000000
vn 1.000000 0.000000 0.000000
vn 1.000000 0.000000 0.000000
vn 1.000000 0.000000 0.000000
vn 1.000000 0.000000 0.000000
vn 1.000000 0.000000 0.000000
vn 1.000000 0.000000 0.000000
vn 1.000000 0.000000 0.000000
vn 1.000000 0.000000 0.000000
vn 1.000000 0.000000 0.000000
vn 1.000000 0.000000 0.000000
vn 1.000000 0.000000 0.000000
vn 1.000000 0.000000 0.000000
vn 1.000000 0.000000 0.000000
vn 1.000000 0.000000 0.000000
vn 1.000000 0.000000 0.000000
vn 1.000000 0.000000 0.000000
vn 1.000000 0.000000 0.000000
vn 1.000000 0.000000 0.000000
vn 1.000000 0.000000 0.000000
vn 1.000000 0.000000 0.000000
vn 1.000000 0.000000 0.000000
vn 1.000000 0.000000 0.000000
vn 1.000000 0.000000 0.000000
vn 1.000000 0.000000 0.000000
vn 1.000000 0.000000 0.000000
vn 1.000000 0.000000 0.000000
vn 1.000000 0.000000 0.000000
vn 1.000000 0.000000 0.000000
vn 1.000000 0.000000 0.000000
vn 1.000000 0.000000 0.000000
vn 1.000000 0.000000 0.000000
vn 1.000000 0.000000 0.000000
vn 1.000000 0.000000 0.000000
vn 1.000000 0.000000 0.000000
vn 1.000000 0.000000 0.000000
vn 1.000000 0.000000 0.000000
vn 1.000000 0.000000 0.000000
vn 1.000000 0.000000 0.000000
vn 1.000000 0.000000 0.000000
vn 1.000000 0.000000 0.000000
vn 0.000000 0.998583 0.053222
vn 0.000000 0.987268 0.159064
vn 0.000000 0.998583 0.053222
vn 0.000000 0.964768 0.263102
vn 0.000000 0.987268 0.159064
vn 0.000000 0.964768 0.263102
vn 0.000000 0.931336 0.364161
vn 0.000000 0.931336 0.364161
vn 0.000000 0.887352 0.461093
vn 0.000000 0.833314 0.552800
vn 0.000000 0.887352 0.461093
vn 0.000000 0.833314 0.552800
vn 0.000000 0.769834 0.638245
vn 0.000000 0.697632 0.716457
vn 0.000000 0.769834 0.638245
vn 0.000000 0.697632 0.716457
vn 0.000000 0.617525 0.786552
vn 0.000000 0.530421 0.847734
vn 0.000000 0.617525 0.786552
vn 0.000000 0.530421 0.847734
vn 0.000000 0.437307 0.899312
vn 0.000000 0.437307 0.899312
vn 0.000000 0.339239 0.940700
vn 0.000000 0.237327 0.971430
vn 0.000000 0.339239 0.940700
vn 0.000000 0.237327 0.971430
vn 0.000000 0.132726 0.991153
vn 0.000000 0.132726 0.991153
vn 0.000000 0.026620 0.999646
vn 0.000000 0.026620 0.999646
vn 0.000000 -0.079785 0.996812
vn 0.000000 -0.079785 0.996812
vn 0.000000 -0.185289 0.982684
vn 0.000000 -0.288691 0.957422
vn 0.000000 -0.185289 0.982684
vn 0.000000 -0.388824 0.921312
vn 0.000000 -0.288691 0.957422
vn 0.000000 -0.388824 0.921312
vn 0.000000 -0.484551 0.874763
vn 0.000000 -0.484551 0.874763
vn 0.000000 -0.574788 0.818303
vn 0.000000 -0.574788 0.818303
vn 0.000000 -0.658511 0.752571
vn 0.000000 -0.658511 0.752571
vn 0.000000 -0.734774 0.678312
vn 0.000000 -0.734774 0.678312
vn 0.000000 -0.802712 0.596367
vn 0.000000 -0.802712 0.596367
vn 0.000000 -0.861554 0.507666
vn 0.000000 -0.861554 0.507666
vn 0.000000 -0.910635 0.413212
vn 0.000000 -0.910635 0.413212
vn 0.000000 -0.949398 0.314077
vn 0.000000 -0.949398 0.314077
vn 0.000000 -0.977403 0.211383
vn 0.000000 -0.994335 0.106293
vn 0.000000 -0.977403 0.211383
vn 0.000000 -0.994335 0.106293
vn 0.000000 -1.000000 0.000000
vn -0.000000 -0.994335 -0.106293
vn 0.000000 -1.000000 0.000000
vn -0.000000 -0.994335 -0.106293
vn -0.000000 -0.977403 -0.211383
vn 0.000000 -0.977403 -0.211383
vn -0.000000 -0.949398 -0.314077
vn 0.000000 -0.949398 -0.314077
vn -0.000000 -0.910635 -0.413212
vn -0.000000 -0.861554 -0.507666
vn 0.000000 -0.910635 -0.413212
vn -0.000000 -0.861554 -0.507666
vn -0.000000 -0.802712 -0.596367
vn 0.000000 -0.802712 -0.596367
vn -0.000000 -0.734774 -0.678312
vn -0.000000 -0.658511 -0.752571
vn 0.000000 -0.734774 -0.678312
vn -0.000000 -0.658511 -0.752571
vn -0.000000 -0.574788 -0.818303
vn -0.000000 -0.484551 -0.874763
vn 0.000000 -0.574788 -0.818303
vn -0.000000 -0.484551 -0.874763
vn -0.000000 -0.388824 -0.921312
vn -0.000000 -0.288691 -0.957422
vn 0.000000 -0.388824 -0.921312
vn -0.000000 -0.288691 -0.957422
vn -0.000000 -0.185289 -0.982684
vn -0.000000 -0.079785 -0.996812
vn 0.000000 -0.185289 -0.982684
vn -0.000000 -0.079785 -0.996812
vn 0.000000 0.026620 -0.999646
vn 0.000000 0.026620 -0.999646
vn 0.000000 0.132726 -0.991153
vn 0.000000 0.132726 -0.991153
vn 0.000000 0.237327 -0.971430
vn 0.000000 0.237327 -0.971430
vn 0.000000 0.339239 -0.940700
vn 0.000000 0.339239 -0.940700
vn 0.000000 0.437307 -0.899312
vn 0.000000 0.437307 -0.899312
vn 0.000000 0.530421 -0.847734
vn 0.000000 0.530421 -0.847734
vn 0.000000 0.617525 -0.786552
vn 0.000000 0.617525 -0.786552
vn 0.000000 0.697632 -0.716457
vn 0.000000 0.697632 -0.716457
vn 0.000000 0.769834 -0.638245
vn 0.000000 0.769834 -0.638245
vn 0.000000 0.833314 -0.552800
vn 0.000000 0.833314 -0.552800
vn 0.000000 0.887352 -0.461093
vn 0.000000 0.887352 -0.461093
vn 0.000000 0.931336 -0.364161
vn 0.000000 0.931336 -0.364161
vn 0.000000 0.964768 -0.263102
vn 0.000000 0.964768 -0.263102
vn 0.000000 0.987268 -0.159064
vn 0.000000 0.987268 -0.159064
vn 0.000000 0.998583 -0.053222
vn 0.000000 0.998583 -0.053222
vn -1.000000 0.000000 0.000000
vn -1.000000 0.000000 0.000000
vn -1.000000 0.000000 0.000000
vn -1.000000 0.000000 0.000000
vn -1.000000 0.000000 -0.000000
vn -1.000000 0.000000 0.000000
vn -1.000000 0.000000 0.000000
vn -1.000000 0.000000 0.000000
vn -1.000000 0.000000 0.000000
vn -1.000000 0.000000 -0.000000
vn -1.000000 0.000000 0.000000
vn -1.000000 0.000000 0.000000
vn -1.000000 0.000000 0.000000
vn -1.000000 0.000000 -0.000000
vn -1.000000 0.000000 0.000000
vn -1.000000 0.000000 0.000000
vn -1.000000 0.000000 0.000000
vn -1.000000 0.000000 0.000000
vn -1.000000 0.000000 -0.000000
vn -1.000000 0.000000 0.000000
vn -1.000000 0.000000 -0.000000
vn -1.000000 0.000000 0.000000
vn -1.000000 0.000000 0.000000
vn -1.000000 0.000000 0.000000
vn -1.000000 0.000000 0.000000
vn -1.000000 0.000000 -0.000000
vn -1.000000 0.000000 0.000000
vn -1.000000 0.000000 -0.000000
vn -1.000000 0.000000 0.000000
vn -1.000000 0.000000 0.000000
vn -1.000000 0.000000 0.000000
vn -1.000000 0.000000 0.000000
vn -1.000000 0.000000 -0.000000
vn -1.000000 0.000000 0.000000
vn -1.000000 0.000000 0.000000
vn -1.000000 0.000000 0.000000
vn -1.000000 0.000000 0.000000
vn -1.000000 0.000000 -0.000000
vn -1.000000 0.000000 0.000000
vn -1.000000 0.000000 0.000000
vn -1.000000 0.000000 0.000000
vn -1.000000 0.000000 -0.000000
vn -1.000000 0.000000 0.000000
vn -1.000000 0.000000 0.000000
vn -1.000000 0.000000 0.000000
vn -1.000000 0.000000 -0.000000
vn -1.000000 0.000000 0.000000
vn -1.000000 0.000000 0.000000
vn -1.000000 0.000000 0.000000
vn -1.000000 0.000000 -0.000000
vn -1.000000 0.000000 0.000000
vn -1.000000 0.000000 -0.000000
vn -1.000000 0.000000 0.000000
vn -1.000000 0.000000 0.000000
vn -1.000000 0.000000 -0.000000
vn -1.000000 0.000000 0.000000
vn -1.000000 0.000000 0.000000
vn -1.000000 0.000000 -0.000000
vn -1.000000 0.000000 0.000000
vn -1.000000 0.000000 0.000000
vn -1.000000 0.000000 -0.000000
vn -1.000000 0.000000 0.000000
vn -1.000000 0.000000 0.000000
vn -1.000000 0.000000 0.000000
vn -1.000000 0.000000 -0.000000
vn -1.000000 0.000000 0.000000
vn -1.000000 0.000000 0.000000
vn -1.000000 0.000000 0.000000
vn -1.000000 0.000000 -0.000000
vn -1.000000 0.000000 0.000000
vn -1.000000 0.000000 0.000000
vn -1.000000 0.000000 -0.000000
vn -1.000000 0.000000 0.000000
vn -1.000000 0.000000 0.000000
vn -1.000000 0.000000 0.000000
vn -1.000000 0.000000 -0.000000
vn -1.000000 0.000000 0.000000
vn -1.000000 0.000000 0.000000
vn -1.000000 0.000000 0.000000
vn -1.000000 0.000000 0.000000
vn -1.000000 0.000000 -0.000000
vn -1.000000 0.000000 0.000000
vn -1.000000 0.000000 0.000000
vn -1.000000 0.000000 -0.000000
vn -1.000000 0.000000 0.000000
vn -1.000000 0.000000 0.000000
vn -1.000000 0.000000 0.000000
vn -1.000000 0.000000 -0.000000
vn -1.000000 0.000000 0.000000
vn -1.000000 0.000000 0.000000
vn -1.000000 0.000000 0.000000
vn -1.000000 0.000000 -0.000000
vn -1.000000 0.000000 0.000000
vn -1.000000 0.000000 0.000000
vn -1.000000 0.000000 -0.000000
vn -1.000000 0.000000 0.000000
vn -1.000000 0.000000 0.000000
vn -1.000000 0.000000 -0.000000
vn -1.000000 0.000000 0.000000
vn -1.000000 0.000000 -0.000000
vn -1.000000 0.000000 0.000000
vn 0.000000 0.997204 0.074730
vn 0.000000 0.997204 0.074730
vn 0.000000 0.974928 0.222520
vn 0.000000 0.930874 0.365341
vn 0.000000 0.974928 0.222520
vn 0.000000 0.930874 0.365341
vn 0.000000 0.866025 0.500000
vn 0.000000 0.866025 0.500000
vn 0.000000 0.781831 0.623490
vn 0.000000 0.781831 0.623490
vn 0.000000 0.680173 0.733052
vn 0.000000 0.680173 0.733052
vn 0.000000 0.563320 0.826239
vn 0.000000 0.563320 0.826239
vn 0.000000 0.433884 0.900969
vn 0.000000 0.433884 0.900969
vn 0.000000 0.294755 0.955573
vn 0.000000 0.294755 0.955573
vn 0.000000 0.149042 0.988831
vn 0.000000 0.149042 0.988831
vn 0.000000 0.000000 1.000000
vn 0.000000 -0.149042 0.988831
vn 0.000000 -0.000000 1.000000
vn 0.000000 -0.149042 0.988831
vn 0.000000 -0.294755 0.955573
vn 0.000000 -0.294755 0.955573
vn 0.000000 -0.433884 0.900969
vn 0.000000 -0.433884 0.900969
vn 0.000000 -0.563320 0.826239
vn 0.000000 -0.563320 0.826239
vn 0.000000 -0.680173 0.733052
vn 0.000000 -0.781831 0.623490
vn 0.000000 -0.680173 0.733052
vn 0.000000 -0.781831 0.623490
vn 0.000000 -0.866025 0.500000
vn 0.000000 -0.866025 0.500000
vn 0.000000 -0.930874 0.365341
vn 0.000000 -0.974928 0.222520
vn 0.000000 -0.930874 0.365341
vn 0.000000 -0.997204 0.074730
vn 0.000000 -0.974928 0.222520
vn 0.000000 -0.997204 0.074730
vn -0.000000 -0.997204 -0.074730
vn 0.000000 -0.997204 -0.074730
vn -0.000000 -0.974928 -0.222520
vn 0.000000 -0.974928 -0.222520
vn -0.000000 -0.930874 -0.365341
vn 0.000000 -0.930874 -0.365341
vn -0.000000 -0.866025 -0.500000
vn 0.000000 -0.866025 -0.500000
vn -0.000000 -0.781831 -0.623490
vn 0.000000 -0.781831 -0.623490
vn -0.000000 -0.680173 -0.733052
vn 0.000000 -0.680173 -0.733052
vn -0.000000 -0.563320 -0.826239
vn -0.000000 -0.433884 -0.900969
vn 0.000000 -0.563320 -0.826239
vn -0.000000 -0.433884 -0.900969
vn 0.000000 -0.294755 -0.955573
vn -0.000000 -0.294755 -0.955573
vn -0.000000 -0.149042 -0.988831
vn -0.000000 -0.149042 -0.988831
vn 0.000000 -0.000000 -1.000000
vn -0.000000 0.000000 -1.000000
vn 0.000000 0.149042 -0.988831
vn 0.000000 0.149042 -0.988831
vn 0.000000 0.294755 -0.955573
vn 0.000000 0.294755 -0.955573
vn 0.000000 0.433884 -0.900969
vn 0.000000 0.433884 -0.900969
vn 0.000000 0.563320 -0.826239
vn 0.000000 0.563320 -0.826239
vn 0.000000 0.680173 -0.733052
vn 0.000000 0.680173 -0.733052
vn 0.000000 0.781831 -0.623490
vn 0.000000 0.866025 -0.500000
vn 0.000000 0.781831 -0.623490
vn 0.000000 0.866025 -0.500000
vn 0.000000 0.930874 -0.365341
vn 0.000000 0.974928 -0.222520
vn 0.000000 0.930874 -0.365341
vn 0.000000 0.974928 -0.222520
vn 0.000000 0.997204 -0.074730
vn 0.000000 0.997204 -0.074730
vn -1.000000 0.000000 0.000000
vn -1.000000 0.000000 0.000000
vn -1.000000 0.000000 0.000000
vn -1.000000 0.000000 0.000000
vn -1.000000 0.000000 0.000000
vn -1.000000 0.000000 -0.000000
vn -1.000000 0.000000 0.000000
vn -1.000000 0.000000 0.000000
vn -1.000000 0.000000 -0.000000
vn -1.000000 0.000000 0.000000
vn -1.000000 0.000000 0.000000
vn -1.000000 0.000000 0.000000
vn -1.000000 0.000000 0.000000
vn -1.000000 0.000000 -0.000000
vn -1.000000 0.000000 0.000000
vn -1.000000 0.000000 -0.000000
vn -1.000000 0.000000 0.000000
vn -1.000000 0.000000 0.000000
vn -1.000000 0.000000 0.000000
vn -1.000000 0.000000 -0.000000
vn -1.000000 0.000000 -0.000000
vn -1.000000 0.000000 0.000000
vn -1.000000 0.000000 0.000000
vn -1.000000 0.000000 0.000000
vn -1.000000 0.000000 0.000000
vn -1.000000 0.000000 -0.000000
vn -1.000000 0.000000 0.000000
vn -1.000000 0.000000 0.000000
vn -1.000000 0.000000 0.000000
vn -1.000000 0.000000 -0.000000
vn -1.000000 0.000000 0.000000
vn -1.000000 0.000000 0.000000
vn -1.000000 0.000000 0.000000
vn -1.000000 0.000000 -0.000000
vn -1.000000 0.000000 0.000000
vn -1.000000 0.000000 0.000000
vn -1.000000 0.000000 -0.000000
vn -1.000000 0.000000 0.000000
vn -1.000000 0.000000 0.000000
vn -1.000000 0.000000 -0.000000
vn -1.000000 0.000000 0.000000
vn -1.000000 0.000000 0.000000
vn -1.000000 0.000000 0.000000
vn -1.000000 0.000000 -0.000000
vn -1.000000 0.000000 0.000000
vn -1.000000 0.000000 0.000000
vn -1.000000 0.000000 0.000000
vn -1.000000 0.000000 -0.000000
vn -1.000000 0.000000 0.000000
vn -1.000000 0.000000 0.000000
vn -1.000000 0.000000 0.000000
vn -1.000000 0.000000 -0.000000
vn -1.000000 0.000000 0.000000
vn -1.000000 0.000000 0.000000
vn -1.000000 0.000000 -0.000000
vn -1.000000 0.000000 0.000000
vn -1.000000 0.000000 0.000000
vn -1.000000 0.000000 0.000000
vn -1.000000 0.000000 -0.000000
vn -1.000000 0.000000 0.000000
vn -1.000000 0.000000 0.000000
vn -1.000000 0.000000 0.000000
vn -1.000000 0.000000 -0.000000
vn -1.000000 0.000000 0.000000
vn -1.000000 0.000000 0.000000
vn -1.000000 0.000000 0.000000
vn -1.000000 0.000000 -0.000000
vn -1.000000 0.000000 0.000000
vn -1.000000 0.000000 0.000000
vn -1.000000 0.000000 0.000000
vn -1.000000 0.000000 -0.000000
vn -1.000000 0.000000 0.000000
vn -1.000000 0.000000 0.000000
vn -1.000000 0.000000 0.000000
vn -1.000000 0.000000 -0.000000
vn -1.000000 0.000000 0.000000
f 1//1 2//1 3//1
f 1//2 3//2 4//2
f 5//3 4//3 6//3
f 5//4 6//4 7//4
f 5//5 1//5 4//5
f 8//6 5//6 7//6
f 9//7 7//7 10//7
f 9//8 10//8 11//8
f 9//9 8//9 7//9
f 12//10 9//10 11//10
f 13//11 11//11 14//11
f 13//12 12//12 11//12
f 15//13 13//13 14//13
f 15//14 14//14 16//14
f 15//15 16//15 17//15
f 18//16 15//16 17//16
f 19//17 18//17 17//17
f 19//18 17//18 20//18
f 19//19 20//19 21//19
f 22//20 19//20 21//20
f 23//21 22//21 21//21
f 23//22 21//22 24//22
f 25//23 23//23 24//23
f 25//24 24//24 26//24
f 27//25 25//25 26//25
f 27//26 26//26 28//26
f 29//27 27//27 28//27
f 29//28 28//28 30//28
f 31//29 29//29 30//29
f 31//30 30//30 32//30
f 33//31 31//31 32//31
f 33//32 32//32 34//32
f 35//33 33//33 34//33
f 35//34 34//34 36//34
f 37//35 35//35 36//35
f 37//36 36//36 38//36
f 37//37 38//37 39//37
f 40//38 37//38 39//38
f 40//39 39//39 41//39
f 42//40 40//40 41//40
f 42//41 41//41 43//41
f 44//42 42//42 43//42
f 45//43 43//43 46//43
f 45//44 44//44 43//44
f 47//45 46//45 48//45
f 47//46 45//46 46//46
f 49//47 48//47 50//47
f 49//48 50//48 51//48
f 49//49 47//49 48//49
f 52//50 49//50 51//50
f 53//51 51//51 54//51
f 53//52 52//52 51//52
f 55//53 54//53 56//53
f 55//54 56//54 57//54
f 55//55 53//55 54//55
f 58//56 55//56 57//56
f 59//57 57//57 60//57
f 59//58 60//58 61//58
f 59//59 58//59 57//59
f 62//60 59//60 61//60
f 63//61 61//61 64//61
f 63//62 62//62 61//62
f 65//63 64//63 66//63
f 65//64 66//64 67//64
f 65//65 63//65 64//65
f 68//66 65//66 67//66
f 2//67 68//67 67//67
f 2//68 67//68 3//68
f 43//69 69//69 70//69
f 46//70 70//70 71//70
f 46//71 43//71 70//71
f 41//72 72//72 69//72
f 41//73 69//73 43//73
f 48//74 46//74 71//74
f 48//75 71//75 73//75
f 48//76 73//76 74//76
f 39//77 75//77 76//77
f 39//78 76//78 72//78
f 39//79 72//79 41//79
f 50//80 74//80 77//80
f 50//81 48//81 74//81
f 38//82 78//82 75//82
f 38//83 75//83 39//83
f 51//84 77//84 79//84
f 51//85 50//85 77//85
f 36//86 80//86 78//86
f 36//87 78//87 38//87
f 54//88 51//88 79//88
f 54//89 79//89 81//89
f 54//90 81//90 82//90
f 34//91 83//91 80//91
f 34//92 80//92 36//92
f 56//93 54//93 82//93
f 56//94 82//94 84//94
f 32//95 85//95 86//95
f 32//96 86//96 83//96
f 32//97 83//97 34//97
f 57//98 84//98 87//98
f 57//99 56//99 84//99
f 30//100 85//100 32//100
f 88//101 85//101 30//101
f 60//102 87//102 89//102
f 60//103 57//103 87//103
f 28//104 88//104 30//104
f 90//105 88//105 28//105
f 61//106 60//106 89//106
f 91//107 61//107 89//107
f 26//108 90//108 28//108
f 92//109 90//109 26//109
f 93//110 61//110 91//110
f 93//111 64//111 61//111
f 24//112 92//112 26//112
f 94//113 92//113 24//113
f 95//114 64//114 93//114
f 95//115 66//115 64//115
f 96//116 24//116 21//116
f 96//117 94//117 24//117
f 97//118 67//118 66//118
f 97//119 66//119 95//119
f 98//120 21//120 20//120
f 98//121 96//121 21//121
f 99//122 3//122 67//122
f 99//123 67//123 97//123
f 100//124 20//124 17//124
f 100//125 98//125 20//125
f 101//126 3//126 99//126
f 102//127 100//127 17//127
f 103//128 4//128 3//128
f 103//129 3//129 101//129
f 104//130 102//130 17//130
f 104//131 17//131 16//131
f 105//132 4//132 103//132
f 105//133 6//133 4//133
f 106//134 104//134 16//134
f 106//135 16//135 14//135
f 107//136 6//136 105//136
f 107//137 7//137 6//137
f 108//138 106//138 14//138
f 108//139 14//139 11//139
f 109//140 7//140 107//140
f 109//141 10//141 7//141
f 110//142 108//142 11//142
f 110//143 11//143 10//143
f 111//144 10//144 109//144
f 111//145 110//145 10//145
f 103//146 112//146 113//146
f 103//147 101//147 112//147
f 105//148 113//148 114//148
f 105//149 103//149 113//149
f 107//150 114//150 115//150
f 107//151 105//151 114//151
f 109//152 115//152 116//152
f 109//153 107//153 115//153
f 111//154 116//154 117//154
f 111//155 109//155 116//155
f 110//156 117//156 118//156
f 110//157 111//157 117//157
f 108//158 118//158 119//158
f 108//159 110//159 118//159
f 106//160 119//160 120//160
f 106//161 108//161 119//161
f 104//162 120//162 121//162
f 104//163 106//163 120//163
f 102//164 121//164 122//164
f 102//165 104//165 121//165
f 100//166 122//166 123//166
f 100//167 102//167 122//167
f 98//168 123//168 124//168
f 98//169 100//169 123//169
f 96//170 124//170 125//170
f 96//171 98//171 124//171
f 94//172 125//172 126//172
f 94//173 96//173 125//173
f 92//174 126//174 127//174
f 92//175 94//175 126//175
f 90//176 127//176 128//176
f 90//177 92//177 127//177
f 88//178 128//178 129//178
f 88//179 90//179 128//179
f 85//180 129//180 130//180
f 85//181 88//181 129//181
f 86//182 130//182 131//182
f 86//183 85//183 130//183
f 83//184 131//184 132//184
f 83//185 86//185 131//185
f 80//186 132//186 133//186
f 80//187 133//187 134//187
f 80//188 83//188 132//188
f 78//189 80//189 134//189
f 75//190 134//190 135//190
f 75//191 78//191 134//191
f 76//192 135//192 136//192
f 76//193 75//193 135//193
f 72//194 136//194 137//194
f 72//195 137//195 138//195
f 72//196 76//196 136//196
f 69//197 72//197 138//197
f 70//198 138//198 139//198
f 70//199 139//199 140//199
f 70//200 69//200 138//200
f 71//201 70//201 140//201
f 73//202 71//202 140//202
f 73//203 140//203 141//203
f 73//204 141//204 142//204
f 74//205 73//205 142//205
f 77//206 74//206 142//206
f 77//207 142//207 143//207
f 79//208 77//208 143//208
f 79//209 143//209 144//209
f 79//210 144//210 145//210
f 81//211 79//211 145//211
f 82//212 81//212 145//212
f 82//213 145//213 146//213
f 84//214 82//214 146//214
f 84//215 146//215 147//215
f 87//216 147//216 148//216
f 87//217 84//217 147//217
f 87//218 148//218 149//218
f 89//219 87//219 149//219
f 91//220 149//220 150//220
f 91//221 89//221 149//221
f 93//222 150//222 151//222
f 93//223 91//223 150//223
f 95//224 151//224 152//224
f 95//225 93//225 151//225
f 97//226 152//226 153//226
f 97//227 153//227 154//227
f 97//228 95//228 152//228
f 99//229 97//229 154//229
f 101//230 154//230 112//230
f 101//231 99//231 154//231
f 139//232 155//232 156//232
f 138//233 155//233 139//233
f 138//234 157//234 158//234
f 138//235 158//235 155//235
f 140//236 139//236 156//236
f 140//237 156//237 159//237
f 137//238 160//238 157//238
f 137//239 157//239 138//239
f 141//240 140//240 159//240
f 141//241 159//241 161//241
f 141//242 161//242 162//242
f 136//243 163//243 160//243
f 136//244 160//244 137//244
f 142//245 141//245 162//245
f 142//246 162//246 164//246
f 135//247 165//247 166//247
f 135//248 166//248 163//248
f 135//249 163//249 136//249
f 143//250 164//250 167//250
f 143//251 142//251 164//251
f 134//252 168//252 165//252
f 134//253 165//253 135//253
f 144//254 167//254 169//254
f 144//255 169//255 170//255
f 144//256 143//256 167//256
f 133//257 168//257 134//257
f 133//258 171//258 168//258
f 145//259 170//259 172//259
f 145//260 144//260 170//260
f 132//261 173//261 174//261
f 132//262 174//262 171//262
f 132//263 171//263 133//263
f 146//264 172//264 175//264
f 146//265 175//265 176//265
f 146//266 145//266 172//266
f 131//267 177//267 173//267
f 131//268 173//268 132//268
f 147//269 176//269 178//269
f 147//270 146//270 176//270
f 130//271 177//271 131//271
f 130//272 179//272 177//272
f 148//273 178//273 180//273
f 148//274 147//274 178//274
f 129//275 181//275 179//275
f 129//276 179//276 130//276
f 149//277 180//277 182//277
f 149//278 148//278 180//278
f 183//279 181//279 129//279
f 128//280 183//280 129//280
f 184//281 149//281 182//281
f 150//282 149//282 184//282
f 185//283 183//283 128//283
f 127//284 185//284 128//284
f 186//285 150//285 184//285
f 186//286 151//286 150//286
f 187//287 185//287 127//287
f 187//288 127//288 126//288
f 188//289 151//289 186//289
f 188//290 152//290 151//290
f 189//291 187//291 126//291
f 190//292 152//292 188//292
f 191//293 189//293 126//293
f 191//294 126//294 125//294
f 192//295 152//295 190//295
f 192//296 153//296 152//296
f 193//297 191//297 125//297
f 193//298 125//298 124//298
f 194//299 153//299 192//299
f 194//300 154//300 153//300
f 195//301 193//301 124//301
f 195//302 124//302 123//302
f 196//303 112//303 154//303
f 196//304 154//304 194//304
f 197//305 195//305 123//305
f 198//306 112//306 196//306
f 199//307 123//307 122//307
f 199//308 197//308 123//308
f 200//309 113//309 112//309
f 200//310 112//310 198//310
f 201//311 122//311 121//311
f 201//312 199//312 122//312
f 202//313 114//313 113//313
f 202//314 113//314 200//314
f 203//315 201//315 121//315
f 204//316 115//316 114//316
f 204//317 114//317 202//317
f 205//318 121//318 120//318
f 205//319 203//319 121//319
f 206//320 115//320 204//320
f 207//321 120//321 119//321
f 207//322 205//322 120//322
f 208//323 116//323 115//323
f 208//324 115//324 206//324
f 209//325 207//325 119//325
f 209//326 119//326 118//326
f 210//327 117//327 116//327
f 210//328 116//328 208//328
f 211//329 209//329 118//329
f 212//330 211//330 118//330
f 212//331 118//331 117//331
f 212//332 117//332 210//332
f 200//333 213//333 214//333
f 200//334 198//334 213//334
f 202//335 214//335 215//335
f 202//336 200//336 214//336
f 204//337 215//337 216//337
f 204//338 202//338 215//338
f 206//339 216//339 217//339
f 206//340 204//340 216//340
f 208//341 217//341 218//341
f 208//342 206//342 217//342
f 210//343 218//343 219//343
f 210//344 208//344 218//344
f 212//345 219//345 220//345
f 212//346 210//346 219//346
f 211//347 220//347 221//347
f 211//348 212//348 220//348
f 209//349 221//349 222//349
f 209//350 222//350 223//350
f 209//351 211//351 221//351
f 207//352 209//352 223//352
f 205//353 223//353 224//353
f 205//354 224//354 225//354
f 205//355 207//355 223//355
f 203//356 205//356 225//356
f 201//357 225//357 226//357
f 201//358 203//358 225//358
f 199//359 226//359 227//359
f 199//360 201//360 226//360
f 197//361 227//361 228//361
f 197//362 199//362 227//362
f 195//363 228//363 229//363
f 195//364 197//364 228//364
f 193//365 229//365 230//365
f 193//366 195//366 229//366
f 191//367 230//367 231//367
f 191//368 193//368 230//368
f 189//369 231//369 232//369
f 189//370 191//370 231//370
f 187//371 232//371 233//371
f 187//372 189//372 232//372
f 185//373 187//373 233//373
f 185//374 233//374 234//374
f 183//375 185//375 234//375
f 183//376 234//376 235//376
f 181//377 183//377 235//377
f 181//378 235//378 236//378
f 179//379 181//379 236//379
f 179//380 236//380 237//380
f 177//381 179//381 237//381
f 177//382 237//382 238//382
f 177//383 238//383 239//383
f 173//384 177//384 239//384
f 174//385 173//385 239//385
f 174//386 239//386 240//386
f 174//387 240//387 241//387
f 171//388 174//388 241//388
f 168//389 241//389 242//389
f 168//390 171//390 241//390
f 165//391 242//391 243//391
f 165//392 168//392 242//392
f 166//393 243//393 244//393
f 166//394 165//394 243//394
f 163//395 244//395 245//395
f 163//396 166//396 244//396
f 160//397 245//397 246//397
f 160//398 163//398 245//398
f 157//399 246//399 247//399
f 157//400 160//400 246//400
f 158//401 247//401 248//401
f 158//402 157//402 247//402
f 155//403 248//403 249//403
f 155//404 158//404 248//404
f 156//405 249//405 250//405
f 156//406 155//406 249//406
f 159//407 250//407 251//407
f 159//408 156//408 250//408
f 161//409 251//409 252//409
f 161//410 159//410 251//410
f 162//411 252//411 253//411
f 162//412 161//412 252//412
f 164//413 253//413 254//413
f 164//414 162//414 253//414
f 167//415 254//415 255//415
f 167//416 164//416 254//416
f 169//417 255//417 256//417
f 169//418 256//418 257//418
f 169//419 167//419 255//419
f 170//420 169//420 257//420
f 172//421 170//421 257//421
f 172//422 257//422 258//422
f 172//423 258//423 259//423
f 175//424 172//424 259//424
f 176//425 175//425 259//425
f 176//426 259//426 260//426
f 176//427 260//427 261//427
f 178//428 176//428 261//428
f 180//429 178//429 261//429
f 180//430 261//430 262//430
f 182//431 180//431 262//431
f 182//432 262//432 263//432
f 184//433 182//433 263//433
f 184//434 263//434 264//434
f 186//435 184//435 264//435
f 186//436 264//436 265//436
f 188//437 186//437 265//437
f 188//438 265//438 266//438
f 190//439 188//439 266//439
f 190//440 266//440 267//440
f 192//441 190//441 267//441
f 192//442 267//442 268//442
f 192//443 268//443 269//443
f 194//444 192//444 269//444
f 196//445 194//445 269//445
f 196//446 269//446 270//446
f 196//447 270//447 213//447
f 198//448 196//448 213//448
f 249//449 271//449 272//449
f 250//450 249//450 272//450
f 250//451 272//451 273//451
f 248//452 271//452 249//452
f 248//453 274//453 271//453
f 251//454 250//454 273//454
f 251//455 273//455 275//455
f 247//456 276//456 274//456
f 247//457 274//457 248//457
f 252//458 275//458 277//458
f 252//459 251//459 275//459
f 246//460 276//460 247//460
f 246//461 278//461 276//461
f 253//462 277//462 279//462
f 253//463 252//463 277//463
f 245//464 280//464 278//464
f 245//465 278//465 246//465
f 254//466 253//466 279//466
f 254//467 279//467 281//467
f 244//468 282//468 280//468
f 244//469 280//469 245//469
f 255//470 281//470 283//470
f 255//471 254//471 281//471
f 243//472 284//472 282//472
f 243//473 282//473 244//473
f 256//474 283//474 285//474
f 256//475 255//475 283//475
f 242//476 286//476 284//476
f 242//477 284//477 243//477
f 257//478 285//478 287//478
f 257//479 256//479 285//479
f 241//480 286//480 242//480
f 288//481 286//481 241//481
f 258//482 287//482 289//482
f 258//483 257//483 287//483
f 240//484 288//484 241//484
f 290//485 288//485 240//485
f 259//486 289//486 291//486
f 259//487 258//487 289//487
f 239//488 290//488 240//488
f 292//489 290//489 239//489
f 260//490 291//490 293//490
f 260//491 259//491 291//491
f 238//492 292//492 239//492
f 294//493 292//493 238//493
f 261//494 260//494 293//494
f 295//495 261//495 293//495
f 237//496 294//496 238//496
f 296//497 294//497 237//497
f 262//498 261//498 295//498
f 297//499 262//499 295//499
f 236//500 296//500 237//500
f 298//501 296//501 236//501
f 263//502 262//502 297//502
f 299//503 263//503 297//503
f 235//504 298//504 236//504
f 300//505 298//505 235//505
f 264//506 263//506 299//506
f 301//507 264//507 299//507
f 234//508 300//508 235//508
f 302//509 300//509 234//509
f 265//510 264//510 301//510
f 303//511 265//511 301//511
f 233//512 302//512 234//512
f 304//513 302//513 233//513
f 266//514 265//514 303//514
f 305//515 266//515 303//515
f 232//516 304//516 233//516
f 267//517 266//517 305//517
f 306//518 304//518 232//518
f 307//519 267//519 305//519
f 231//520 306//520 232//520
f 268//521 267//521 307//521
f 308//522 306//522 231//522
f 309//523 268//523 307//523
f 230//524 308//524 231//524
f 269//525 268//525 309//525
f 310//526 308//526 230//526
f 311//527 269//527 309//527
f 229//528 310//528 230//528
f 270//529 269//529 311//529
f 312//530 310//530 229//530
f 313//531 270//531 311//531
f 228//532 312//532 229//532
f 213//533 270//533 313//533
f 314//534 312//534 228//534
f 227//535 314//535 228//535
f 315//536 213//536 313//536
f 316//537 314//537 227//537
f 226//538 316//538 227//538
f 317//539 214//539 213//539
f 317//540 213//540 315//540
f 318//541 226//541 225//541
f 318//542 316//542 226//542
f 319//543 215//543 214//543
f 319//544 214//544 317//544
f 320//545 318//545 225//545
f 320//546 225//546 224//546
f 321//547 216//547 215//547
f 321//548 215//548 319//548
f 322//549 320//549 224//549
f 322//550 224//550 223//550
f 323//551 216//551 321//551
f 323//552 217//552 216//552
f 324//553 322//553 223//553
f 324//554 223//554 222//554
f 325//555 217//555 323//555
f 325//556 218//556 217//556
f 326//557 324//557 222//557
f 326//558 222//558 221//558
f 327//559 218//559 325//559
f 327//560 219//560 218//560
f 328//561 326//561 221//561
f 328//562 221//562 220//562
f 329//563 219//563 327//563
f 329//564 328//564 220//564
f 329//565 220//565 219//565
f 315//566 330//566 331//566
f 317//567 331//567 332//567
f 317//568 315//568 331//568
f 319//569 332//569 333//569
f 319//570 317//570 332//570
f 321//571 319//571 333//571
f 323//572 333//572 334//572
f 323//573 321//573 333//573
f 325//574 334//574 335//574
f 325//575 335//575 336//575
f 325//576 323//576 334//576
f 327//577 325//577 336//577
f 329//578 336//578 337//578
f 329//579 337//579 338//579
f 329//580 327//580 336//580
f 328//581 329//581 338//581
f 326//582 338//582 339//582
f 326//583 339//583 340//583
f 326//584 328//584 338//584
f 324//585 326//585 340//585
f 322//586 340//586 341//586
f 322//587 324//587 340//587
f 320//588 341//588 342//588
f 320//589 342//589 343//589
f 320//590 322//590 341//590
f 318//591 320//591 343//591
f 316//592 343//592 344//592
f 316//593 318//593 343//593
f 314//594 344//594 345//594
f 314//595 316//595 344//595
f 312//596 345//596 346//596
f 312//597 314//597 345//597
f 310//598 346//598 347//598
f 310//599 347//599 348//599
f 310//600 312//600 346//600
f 308//601 348//601 349//601
f 308//602 310//602 348//602
f 306//603 308//603 349//603
f 304//604 306//604 349//604
f 304//605 349//605 350//605
f 302//606 304//606 350//606
f 302//607 350//607 351//607
f 302//608 351//608 352//608
f 300//609 302//609 352//609
f 300//610 352//610 353//610
f 298//611 300//611 353//611
f 296//612 298//612 353//612
f 296//613 353//613 354//613
f 294//614 296//614 354//614
f 294//615 354//615 355//615
f 294//616 355//616 356//616
f 292//617 294//617 356//617
f 292//618 356//618 357//618
f 290//619 292//619 357//619
f 288//620 357//620 358//620
f 288//621 358//621 359//621
f 288//622 290//622 357//622
f 286//623 288//623 359//623
f 284//624 359//624 360//624
f 284//625 360//625 361//625
f 284//626 286//626 359//626
f 282//627 284//627 361//627
f 280//628 361//628 362//628
f 280//629 282//629 361//629
f 278//630 362//630 363//630
f 278//631 280//631 362//631
f 276//632 363//632 364//632
f 276//633 364//633 365//633
f 276//634 278//634 363//634
f 274//635 276//635 365//635
f 271//636 365//636 366//636
f 271//637 274//637 365//637
f 272//638 366//638 367//638
f 272//639 367//639 368//639
f 272//640 271//640 366//640
f 273//641 272//641 368//641
f 275//642 368//642 369//642
f 275//643 369//643 370//643
f 275//644 273//644 368//644
f 277//645 275//645 370//645
f 279//646 370//646 371//646
f 279//647 371//647 372//647
f 279//648 277//648 370//648
f 281//649 279//649 372//649
f 283//650 372//650 373//650
f 283//651 373//651 374//651
f 283//652 281//652 372//652
f 285//653 283//653 374//653
f 287//654 285//654 374//654
f 287//655 374//655 375//655
f 289//656 287//656 375//656
f 289//657 375//657 376//657
f 289//658 376//658 377//658
f 291//659 289//659 377//659
f 293//660 291//660 377//660
f 293//661 377//661 378//661
f 295//662 293//662 378//662
f 295//663 378//663 379//663
f 295//664 379//664 380//664
f 297//665 295//665 380//665
f 297//666 380//666 381//666
f 299//667 297//667 381//667
f 301//668 299//668 381//668
f 301//669 381//669 382//669
f 303//670 301//670 382//670
f 303//671 382//671 383//671
f 303//672 383//672 384//672
f 305//673 303//673 384//673
f 307//674 305//674 384//674
f 307//675 384//675 385//675
f 309//676 307//676 385//676
f 309//677 385//677 386//677
f 309//678 386//678 387//678
f 311//679 309//679 387//679
f 311//680 387//680 388//680
f 313//681 311//681 388//681
f 315//682 313//682 388//682
f 315//683 388//683 330//683
f 389//684 382//684 381//684
f 389//685 383//685 382//685
f 390//686 389//686 381//686
f 390//687 381//687 380//687
f 391//688 383//688 389//688
f 391//689 384//689 383//689
f 392//690 390//690 380//690
f 392//691 379//691 378//691
f 392//692 380//692 379//692
f 393//693 384//693 391//693
f 393//694 385//694 384//694
f 394//695 392//695 378//695
f 394//696 378//696 377//696
f 395//697 385//697 393//697
f 395//698 386//698 385//698
f 395//699 387//699 386//699
f 396//700 377//700 376//700
f 396//701 394//701 377//701
f 397//702 387//702 395//702
f 397//703 388//703 387//703
f 398//704 375//704 374//704
f 398//705 376//705 375//705
f 398//706 396//706 376//706
f 399//707 331//707 330//707
f 399//708 330//708 388//708
f 399//709 388//709 397//709
f 400//710 398//710 374//710
f 400//711 374//711 373//711
f 401//712 332//712 331//712
f 401//713 331//713 399//713
f 402//714 372//714 371//714
f 402//715 373//715 372//715
f 402//716 400//716 373//716
f 403//717 333//717 332//717
f 403//718 334//718 333//718
f 403//719 332//719 401//719
f 404//720 371//720 370//720
f 404//721 402//721 371//721
f 405//722 335//722 334//722
f 405//723 334//723 403//723
f 406//724 370//724 369//724
f 406//725 404//725 370//725
f 407//726 336//726 335//726
f 407//727 335//727 405//727
f 408//728 369//728 368//728
f 408//729 406//729 369//729
f 409//730 337//730 336//730
f 409//731 336//731 407//731
f 367//732 408//732 368//732
f 410//733 408//733 367//733
f 338//734 409//734 411//734
f 338//735 337//735 409//735
f 366//736 410//736 367//736
f 366//737 412//737 410//737
f 339//738 338//738 411//738
f 339//739 411//739 413//739
f 365//740 412//740 366//740
f 340//741 339//741 413//741
f 364//742 412//742 365//742
f 364//743 414//743 412//743
f 341//744 340//744 413//744
f 341//745 413//745 415//745
f 363//746 414//746 364//746
f 363//747 416//747 414//747
f 342//748 341//748 415//748
f 342//749 415//749 417//749
f 362//750 416//750 363//750
f 362//751 418//751 416//751
f 343//752 342//752 417//752
f 343//753 417//753 419//753
f 361//754 418//754 362//754
f 344//755 343//755 419//755
f 360//756 418//756 361//756
f 360//757 420//757 418//757
f 345//758 344//758 419//758
f 345//759 419//759 421//759
f 359//760 420//760 360//760
f 359//761 422//761 420//761
f 346//762 345//762 421//762
f 346//763 421//763 423//763
f 358//764 422//764 359//764
f 347//765 346//765 423//765
f 357//766 424//766 422//766
f 357//767 422//767 358//767
f 348//768 347//768 423//768
f 348//769 423//769 425//769
f 356//770 426//770 424//770
f 356//771 424//771 357//771
f 349//772 348//772 425//772
f 349//773 425//773 427//773
f 355//774 428//774 426//774
f 355//775 426//775 356//775
f 350//776 427//776 429//776
f 350//777 349//777 427//777
f 354//778 428//778 355//778
f 351//779 350//779 429//779
f 353//780 430//780 428//780
f 353//781 428//781 354//781
f 352//782 429//782 430//782
f 352//783 430//783 353//783
f 352//784 351//784 429//784
f 401//785 431//785 432//785
f 401//786 399//786 431//786
f 403//787 432//787 433//787
f 403//788 433//788 434//788
f 403//789 401//789 432//789
f 405//790 403//790 434//790
f 407//791 405//791 434//791
f 407//792 434//792 435//792
f 407//793 435//793 436//793
f 409//794 407//794 436//794
f 411//795 436//795 437//795
f 411//796 409//796 436//796
f 413//797 437//797 438//797
f 413//798 411//798 437//798
f 415//799 438//799 439//799
f 415//800 413//800 438//800
f 417//801 439//801 440//801
f 417//802 415//802 439//802
f 419//803 440//803 441//803
f 419//804 417//804 440//804
f 421//805 441//805 442//805
f 421//806 442//806 443//806
f 421//807 419//807 441//807
f 423//808 421//808 443//808
f 425//809 443//809 444//809
f 425//810 423//810 443//810
f 427//811 444//811 445//811
f 427//812 425//812 444//812
f 429//813 445//813 446//813
f 429//814 427//814 445//814
f 430//815 446//815 447//815
f 430//816 447//816 448//816
f 430//817 429//817 446//817
f 428//818 430//818 448//818
f 426//819 448//819 449//819
f 426//820 428//820 448//820
f 424//821 449//821 450//821
f 424//822 450//822 451//822
f 424//823 426//823 449//823
f 422//824 451//824 452//824
f 422//825 424//825 451//825
f 420//826 422//826 452//826
f 418//827 452//827 453//827
f 418//828 420//828 452//828
f 416//829 453//829 454//829
f 416//830 418//830 453//830
f 414//831 454//831 455//831
f 414//832 416//832 454//832
f 412//833 455//833 456//833
f 412//834 414//834 455//834
f 410//835 456//835 457//835
f 410//836 412//836 456//836
f 408//837 457//837 458//837
f 408//838 410//838 457//838
f 406//839 458//839 459//839
f 406//840 459//840 460//840
f 406//841 408//841 458//841
f 404//842 406//842 460//842
f 402//843 404//843 460//843
f 402//844 460//844 461//844
f 402//845 461//845 462//845
f 400//846 402//846 462//846
f 398//847 400//847 462//847
f 398//848 462//848 463//848
f 396//849 398//849 463//849
f 396//850 463//850 464//850
f 394//851 396//851 464//851
f 394//852 464//852 465//852
f 392//853 394//853 465//853
f 392//854 465//854 466//854
f 390//855 392//855 466//855
f 390//856 466//856 467//856
f 389//857 467//857 468//857
f 389//858 390//858 467//858
f 391//859 468//859 469//859
f 391//860 469//860 470//860
f 391//861 389//861 468//861
f 393//862 391//862 470//862
f 395//863 470//863 471//863
f 395//864 471//864 472//864
f 395//865 393//865 470//865
f 397//866 395//866 472//866
f 399//867 472//867 431//867
f 399//868 397//868 472//868
f 62//869 468//869 467//869
f 62//870 469//870 468//870
f 59//871 467//871 466//871
f 59//872 62//872 467//872
f 63//873 470//873 469//873
f 63//874 469//874 62//874
f 58//875 59//875 466//875
f 58//876 466//876 465//876
f 65//877 470//877 63//877
f 65//878 471//878 470//878
f 55//879 58//879 465//879
f 55//880 465//880 464//880
f 68//881 472//881 471//881
f 68//882 471//882 65//882
f 53//883 55//883 464//883
f 53//884 463//884 462//884
f 53//885 464//885 463//885
f 2//886 432//886 431//886
f 2//887 431//887 472//887
f 2//888 472//888 68//888
f 52//889 53//889 462//889
f 52//890 462//890 461//890
f 1//891 432//891 2//891
f 1//892 433//892 432//892
f 49//893 461//893 460//893
f 49//894 52//894 461//894
f 5//895 434//895 433//895
f 5//896 433//896 1//896
f 47//897 460//897 459//897
f 47//898 49//898 460//898
f 8//899 435//899 434//899
f 8//900 434//900 5//900
f 45//901 459//901 458//901
f 45//902 47//902 459//902
f 9//903 436//903 435//903
f 9//904 435//904 8//904
f 44//905 45//905 458//905
f 457//906 44//906 458//906
f 437//907 9//907 12//907
f 437//908 436//908 9//908
f 456//909 44//909 457//909
f 456//910 42//910 44//910
f 438//911 12//911 13//911
f 438//912 437//912 12//912
f 455//913 40//913 42//913
f 455//914 42//914 456//914
f 439//915 13//915 15//915
f 439//916 438//916 13//916
f 454//917 37//917 40//917
f 454//918 40//918 455//918
f 440//919 15//919 18//919
f 440//920 439//920 15//920
f 453//921 35//921 37//921
f 453//922 37//922 454//922
f 441//923 440//923 18//923
f 452//924 35//924 453//924
f 442//925 18//925 19//925
f 442//926 441//926 18//926
f 451//927 35//927 452//927
f 451//928 33//928 35//928
f 443//929 442//929 19//929
f 443//930 19//930 22//930
f 450//931 33//931 451//931
f 450//932 31//932 33//932
f 444//933 443//933 22//933
f 444//934 22//934 23//934
f 449//935 31//935 450//935
f 449//936 29//936 31//936
f 445//937 444//937 23//937
f 445//938 23//938 25//938
f 448//939 29//939 449//939
f 448//940 27//940 29//940
f 446//941 445//941 25//941
f 446//942 25//942 27//942
f 447//943 27//943 448//943
f 447//944 446//944 27//944
