# Created by FreeCAD <https://www.freecad.org>
v 0.000000 16.471340 2.544155
v 0.000000 16.666666 0.000000
v 80.000000 16.666666 0.000000
v 80.000000 16.471340 2.544155
v 0.000000 15.889940 5.028677
v 80.000000 15.889940 5.028677
v 0.000000 14.936092 7.395330
v 80.000000 14.936092 7.395330
v 80.000000 13.632156 9.588644
v 0.000000 13.632156 9.588644
v 0.000000 12.008694 11.557208
v 80.000000 12.008694 11.557208
v 80.000000 10.103757 13.254881
v 0.000000 10.103757 13.254881
v 0.000000 7.961997 14.641870
v 80.000000 7.961997 14.641870
v 80.000000 5.633615 15.685667
v 0.000000 5.633615 15.685667
v 0.000000 3.173185 16.361805
v 80.000000 3.173185 16.361805
v 80.000000 0.638379 16.654436
v 0.000000 0.638379 16.654436
v 0.000000 -1.911390 16.556702
v 80.000000 -1.911390 16.556702
v 0.000000 -4.416358 16.070892
v 80.000000 -4.416358 16.070892
v 80.000000 -6.817811 15.208394
v 0.000000 -6.817811 15.208394
v 0.000000 -9.059459 13.989424
v 80.000000 -9.059459 13.989424
v 0.000000 -11.088761 12.442554
v 80.000000 -11.088761 12.442554
v 80.000000 -12.858153 10.604041
v 0.000000 -12.858153 10.604041
v 0.000000 -14.326160 8.516978
v 80.000000 -14.326160 8.516978
v 0.000000 -15.458374 6.230285
v 80.000000 -15.458374 6.230285
v 80.000000 -16.228256 3.797559
v 0.000000 -16.228256 3.797559
v 80.000000 -16.617764 1.275821
v 0.000000 -16.617764 1.275821
v 0.000000 -16.617764 -1.275821
v 80.000000 -16.617764 -1.275821
v 80.000000 -16.228256 -3.797559
v 0.000000 -16.228256 -3.797559
v 0.000000 -15.458374 -6.230285
v 80.000000 -15.458374 -6.230285
v 80.000000 -14.326160 -8.516978
v 0.000000 -14.326160 -8.516978
v 0.000000 -12.858153 -10.604041
v 80.000000 -12.858153 -10.604041
v 0.000000 -11.088761 -12.442554
v 80.000000 -11.088761 -12.442554
v 80.000000 -9.059459 -13.989424
v 0.000000 -9.059459 -13.989424
v 0.000000 -6.817811 -15.208394
v 80.000000 -6.817811 -15.208394
v 0.000000 -4.416358 -16.070892
v 80.000000 -4.416358 -16.070892
v 0.000000 -1.911390 -16.556702
v 80.000000 -1.911390 -16.556702
v 0.000000 0.638379 -16.654436
v 80.000000 0.638379 -16.654436
v 80.000000 3.173185 -16.361805
v 0.000000 3.173185 -16.361805
v 80.000000 5.633615 -15.685667
v 0.000000 5.633615 -15.685667
v 0.000000 7.961997 -14.641870
v 80.000000 7.961997 -14.641870
v 80.000000 10.103757 -13.254881
v 0.000000 10.103757 -13.254881
v 80.000000 12.008694 -11.557208
v 0.000000 12.008694 -11.557208
v 80.000000 13.632156 -9.588644
v 0.000000 13.632156 -9.588644
v 0.000000 14.936092 -7.395330
v 80.000000 14.936092 -7.395330
v 0.000000 15.889940 -5.028677
v 80.000000 15.889940 -5.028677
v 80.000000 16.471340 -2.544155
v 0.000000 16.471340 -2.544155
v 80.000000 -22.102234 -20.285248
v 80.000000 -19.645823 -22.672487
v 80.000000 -16.933296 -24.764156
v 80.000000 -24.270510 -17.633558
v 80.000000 -14.000020 -26.532988
v 80.000000 -26.122383 -14.751987
v 80.000000 -10.884232 -27.955921
v 80.000000 -28.784790 -8.451977
v 80.000000 -27.633709 -11.678103
v 80.000000 -7.626550 -29.014406
v 80.000000 -4.269445 -29.694643
v 80.000000 -29.560616 -5.115666
v 80.000000 -0.856682 -29.987766
v 80.000000 -29.951073 1.712664
v 80.000000 -29.951073 -1.712664
v 80.000000 2.567250 -29.889952
v 80.000000 -29.560616 5.115666
v 80.000000 5.957714 -29.402477
v 80.000000 9.270510 -28.531696
v 80.000000 -28.784790 8.451977
v 80.000000 12.462450 -27.288960
v 80.000000 -26.122383 14.751987
v 80.000000 -27.633709 11.678103
v 80.000000 15.491924 -25.690472
v 80.000000 -24.270510 17.633558
v 80.000000 18.319437 -23.757067
v 80.000000 -22.102234 20.285248
v 80.000000 20.908127 -21.513954
v 80.000000 -19.645823 22.672487
v 80.000000 23.224249 -18.990374
v 80.000000 -16.933296 24.764156
v 80.000000 25.237606 -16.219225
v 80.000000 -14.000020 26.532988
v 80.000000 26.921953 -13.236633
v 80.000000 -10.884232 27.955921
v 80.000000 28.255331 -10.081482
v 80.000000 -7.626550 29.014406
v 80.000000 29.220358 -6.794903
v 80.000000 -4.269445 29.694643
v 80.000000 29.804453 -3.419742
v 80.000000 -0.856682 29.987766
v 80.000000 30.000000 0.000000
v 80.000000 2.567250 29.889952
v 80.000000 29.804453 3.419742
v 80.000000 5.957714 29.402477
v 80.000000 29.220358 6.794903
v 80.000000 9.270510 28.531696
v 80.000000 28.255331 10.081482
v 80.000000 12.462450 27.288960
v 80.000000 26.921953 13.236633
v 80.000000 15.491924 25.690472
v 80.000000 25.237606 16.219225
v 80.000000 18.319437 23.757067
v 80.000000 23.224249 18.990374
v 80.000000 20.908127 21.513954
v 41.000000 30.000000 0.000000
v 41.000000 29.804453 3.419742
v 41.000000 29.220358 6.794903
v 41.000000 28.255331 10.081482
v 41.000000 26.921953 13.236633
v 41.000000 25.237606 16.219225
v 41.000000 23.224249 18.990374
v 41.000000 20.908127 21.513954
v 41.000000 18.319437 23.757067
v 41.000000 15.491924 25.690472
v 41.000000 12.462450 27.288960
v 41.000000 9.270510 28.531696
v 41.000000 5.957714 29.402477
v 41.000000 2.567250 29.889952
v 41.000000 -0.856682 29.987766
v 41.000000 -4.269445 29.694643
v 41.000000 -7.626550 29.014406
v 41.000000 -10.884232 27.955921
v 41.000000 -14.000020 26.532988
v 41.000000 -16.933296 24.764156
v 41.000000 -19.645823 22.672487
v 41.000000 -22.102234 20.285248
v 41.000000 -24.270510 17.633558
v 41.000000 -26.122383 14.751987
v 41.000000 -27.633709 11.678103
v 41.000000 -28.784790 8.451977
v 41.000000 -29.560616 5.115666
v 41.000000 -29.951073 1.712664
v 41.000000 -29.951073 -1.712664
v 41.000000 -29.560616 -5.115666
v 41.000000 -28.784790 -8.451977
v 41.000000 -27.633709 -11.678103
v 41.000000 -26.122383 -14.751987
v 41.000000 -24.270510 -17.633558
v 41.000000 -22.102234 -20.285248
v 41.000000 -19.645823 -22.672487
v 41.000000 -16.933296 -24.764156
v 41.000000 -14.000020 -26.532988
v 41.000000 -10.884232 -27.955921
v 41.000000 -7.626550 -29.014406
v 41.000000 -4.269445 -29.694643
v 41.000000 -0.856682 -29.987766
v 41.000000 2.567250 -29.889952
v 41.000000 5.957714 -29.402477
v 41.000000 9.270510 -28.531696
v 41.000000 12.462450 -27.288960
v 41.000000 15.491924 -25.690472
v 41.000000 18.319437 -23.757067
v 41.000000 20.908127 -21.513954
v 41.000000 23.224249 -18.990374
v 41.000000 25.237606 -16.219225
v 41.000000 26.921953 -13.236633
v 41.000000 28.255331 -10.081482
v 41.000000 29.220358 -6.794903
v 41.000000 29.804453 -3.419742
v 41.000000 -37.234142 -30.292221
v 41.000000 -34.325256 -33.552597
v 41.000000 -31.131941 -36.534946
v 41.000000 -27.680655 -39.214554
v 41.000000 -39.834496 -26.780834
v 41.000000 -24.000000 -41.569218
v 41.000000 -42.104763 -23.047533
v 41.000000 -20.120474 -43.579430
v 41.000000 -45.582706 -15.040510
v 41.000000 -44.026142 -19.123253
v 41.000000 -16.074221 -45.228523
v 41.000000 -46.761555 -10.833138
v 41.000000 -11.894773 -46.502842
v 41.000000 -7.616762 -47.391823
v 41.000000 -47.552925 -6.535999
v 41.000000 -3.275636 -47.888100
v 41.000000 -47.950256 -2.184701
v 41.000000 1.092633 -47.987564
v 41.000000 -47.552925 6.535999
v 41.000000 -47.950256 2.184701
v 41.000000 5.451849 -47.689384
v 41.000000 -46.761555 10.833138
v 41.000000 9.765888 -46.996037
v 41.000000 13.999005 -45.913265
v 41.000000 -45.582706 15.040510
v 41.000000 18.116121 -44.450043
v 41.000000 -42.104763 23.047533
v 41.000000 -44.026142 19.123253
v 41.000000 22.083122 -42.618492
v 41.000000 -39.834496 26.780834
v 41.000000 25.867134 -40.433788
v 41.000000 -37.234142 30.292221
v 41.000000 29.436804 -37.914043
v 41.000000 32.762550 -35.080128
v 41.000000 -34.325256 33.552597
v 41.000000 35.816818 -31.955526
v 41.000000 -31.131941 36.534946
v 41.000000 38.574295 -28.566132
v 41.000000 -27.680655 39.214554
v 41.000000 41.012131 -24.940029
v 41.000000 -24.000000 41.569218
v 41.000000 43.110130 -21.107267
v 41.000000 -20.120474 43.579430
v 41.000000 44.850903 -17.099602
v 41.000000 -16.074221 45.228523
v 41.000000 46.220028 -12.950245
v 41.000000 -11.894773 46.502842
v 41.000000 47.206161 -8.693578
v 41.000000 -7.616762 47.391823
v 41.000000 47.801128 -4.364873
v 41.000000 -3.275636 47.888100
v 41.000000 48.000000 0.000000
v 41.000000 1.092633 47.987564
v 41.000000 47.801128 4.364873
v 41.000000 5.451849 47.689384
v 41.000000 47.206161 8.693578
v 41.000000 9.765888 46.996037
v 41.000000 46.220028 12.950245
v 41.000000 13.999005 45.913265
v 41.000000 44.850903 17.099602
v 41.000000 18.116121 44.450043
v 41.000000 43.110130 21.107267
v 41.000000 22.083122 42.618492
v 41.000000 41.012131 24.940029
v 41.000000 25.867134 40.433788
v 41.000000 38.574295 28.566132
v 41.000000 29.436804 37.914043
v 41.000000 35.816818 31.955526
v 41.000000 32.762550 35.080128
v 40.000000 48.000000 0.000000
v 40.000000 47.801128 4.364873
v 40.000000 47.206161 8.693578
v 40.000000 46.220028 12.950245
v 40.000000 44.850903 17.099602
v 40.000000 43.110130 21.107267
v 40.000000 41.012131 24.940029
v 40.000000 38.574295 28.566132
v 40.000000 35.816818 31.955526
v 40.000000 32.762550 35.080128
v 40.000000 29.436804 37.914043
v 40.000000 25.867134 40.433788
v 40.000000 22.083122 42.618492
v 40.000000 18.116121 44.450043
v 40.000000 13.999005 45.913265
v 40.000000 9.765888 46.996037
v 40.000000 5.451849 47.689384
v 40.000000 1.092633 47.987564
v 40.000000 -3.275636 47.888100
v 40.000000 -7.616762 47.391823
v 40.000000 -11.894773 46.502842
v 40.000000 -16.074221 45.228523
v 40.000000 -20.120474 43.579430
v 40.000000 -24.000000 41.569218
v 40.000000 -27.680655 39.214554
v 40.000000 -31.131941 36.534946
v 40.000000 -34.325256 33.552597
v 40.000000 -37.234142 30.292221
v 40.000000 -39.834496 26.780834
v 40.000000 -42.104763 23.047533
v 40.000000 -44.026142 19.123253
v 40.000000 -45.582706 15.040510
v 40.000000 -46.761555 10.833138
v 40.000000 -47.552925 6.535999
v 40.000000 -47.950256 2.184701
v 40.000000 -47.950256 -2.184701
v 40.000000 -47.552925 -6.535999
v 40.000000 -46.761555 -10.833138
v 40.000000 -45.582706 -15.040510
v 40.000000 -44.026142 -19.123253
v 40.000000 -42.104763 -23.047533
v 40.000000 -39.834496 -26.780834
v 40.000000 -37.234142 -30.292221
v 40.000000 -34.325256 -33.552597
v 40.000000 -31.131941 -36.534946
v 40.000000 -27.680655 -39.214554
v 40.000000 -24.000000 -41.569218
v 40.000000 -20.120474 -43.579430
v 40.000000 -16.074221 -45.228523
v 40.000000 -11.894773 -46.502842
v 40.000000 -7.616762 -47.391823
v 40.000000 -3.275636 -47.888100
v 40.000000 1.092633 -47.987564
v 40.000000 5.451849 -47.689384
v 40.000000 9.765888 -46.996037
v 40.000000 13.999005 -45.913265
v 40.000000 18.116121 -44.450043
v 40.000000 22.083122 -42.618492
v 40.000000 25.867134 -40.433788
v 40.000000 29.436804 -37.914043
v 40.000000 32.762550 -35.080128
v 40.000000 35.816818 -31.955526
v 40.000000 38.574295 -28.566132
v 40.000000 41.012131 -24.940029
v 40.000000 43.110130 -21.107267
v 40.000000 44.850903 -17.099602
v 40.000000 46.220028 -12.950245
v 40.000000 47.206161 -8.693578
v 40.000000 47.801128 -4.364873
v 40.000000 -36.508953 -34.162792
v 40.000000 -33.346775 -37.255772
v 40.000000 -29.923616 -40.057175
v 40.000000 -39.385399 -30.802441
v 40.000000 -26.266262 -42.545074
v 40.000000 -41.953598 -27.201019
v 40.000000 -22.403339 -44.700005
v 40.000000 -44.193455 -23.386713
v 40.000000 -18.365080 -46.505096
v 40.000000 -46.087440 -19.389376
v 40.000000 -14.183089 -47.946220
v 40.000000 -47.620728 -15.240289
v 40.000000 -9.890096 -49.012100
v 40.000000 -48.781315 -10.971926
v 40.000000 -5.519700 -49.694397
v 40.000000 -49.560127 -6.617693
v 40.000000 -1.106104 -49.987762
v 40.000000 -49.951061 -2.211667
v 40.000000 3.316148 -49.889912
v 40.000000 -49.951061 2.211667
v 40.000000 -49.560127 6.617693
v 40.000000 7.712447 -49.401600
v 40.000000 -48.781315 10.971926
v 40.000000 12.048385 -48.526657
v 40.000000 -47.620728 15.240289
v 40.000000 16.290030 -47.271927
v 40.000000 -46.087440 19.389376
v 40.000000 20.404181 -45.647228
v 40.000000 -44.193455 23.386713
v 40.000000 24.358643 -43.665279
v 40.000000 -41.953598 27.201019
v 40.000000 28.122465 -41.341591
v 40.000000 -39.385399 30.802441
v 40.000000 31.666191 -38.694347
v 40.000000 -36.508953 34.162792
v 40.000000 34.962086 -35.744267
v 40.000000 -33.346775 37.255772
v 40.000000 37.984356 -32.514439
v 40.000000 -29.923616 40.057175
v 40.000000 40.709343 -29.030144
v 40.000000 -26.266262 42.545074
v 40.000000 43.115730 -25.318647
v 40.000000 -22.403339 44.700005
v 40.000000 45.184673 -21.408998
v 40.000000 -18.365080 46.505096
v 40.000000 46.899986 -17.331797
v 40.000000 -14.183089 47.946220
v 40.000000 48.248245 -13.118948
v 40.000000 -9.890096 49.012100
v 40.000000 49.218895 -8.803426
v 40.000000 -5.519700 49.694397
v 40.000000 49.804340 -4.419005
v 40.000000 -1.106104 49.987762
v 40.000000 50.000000 0.000000
v 40.000000 3.316148 49.889912
v 40.000000 49.804340 4.419005
v 40.000000 7.712447 49.401600
v 40.000000 49.218895 8.803426
v 40.000000 12.048385 48.526657
v 40.000000 48.248245 13.118948
v 40.000000 16.290030 47.271927
v 40.000000 46.899986 17.331797
v 40.000000 20.404181 45.647228
v 40.000000 45.184673 21.408998
v 40.000000 24.358643 43.665279
v 40.000000 43.115730 25.318647
v 40.000000 28.122465 41.341591
v 40.000000 40.709343 29.030144
v 40.000000 31.666191 38.694347
v 40.000000 37.984356 32.514439
v 40.000000 34.962086 35.744267
v 20.000000 50.000000 0.000000
v 20.000000 49.804340 4.419005
v 20.000000 49.218895 8.803426
v 20.000000 48.248245 13.118948
v 20.000000 46.899986 17.331797
v 20.000000 45.184673 21.408998
v 20.000000 43.115730 25.318647
v 20.000000 40.709343 29.030144
v 20.000000 37.984356 32.514439
v 20.000000 34.962086 35.744267
v 20.000000 31.666191 38.694347
v 20.000000 28.122465 41.341591
v 20.000000 24.358643 43.665279
v 20.000000 20.404181 45.647228
v 20.000000 16.290030 47.271927
v 20.000000 12.048385 48.526657
v 20.000000 7.712447 49.401600
v 20.000000 3.316148 49.889912
v 20.000000 -1.106104 49.987762
v 20.000000 -5.519700 49.694397
v 20.000000 -9.890096 49.012100
v 20.000000 -14.183089 47.946220
v 20.000000 -18.365080 46.505096
v 20.000000 -22.403339 44.700005
v 20.000000 -26.266262 42.545074
v 20.000000 -29.923616 40.057175
v 20.000000 -33.346775 37.255772
v 20.000000 -36.508953 34.162792
v 20.000000 -39.385399 30.802441
v 20.000000 -41.953598 27.201019
v 20.000000 -44.193455 23.386713
v 20.000000 -46.087440 19.389376
v 20.000000 -47.620728 15.240289
v 20.000000 -48.781315 10.971926
v 20.000000 -49.560127 6.617693
v 20.000000 -49.951061 2.211667
v 20.000000 -49.951061 -2.211667
v 20.000000 -49.560127 -6.617693
v 20.000000 -48.781315 -10.971926
v 20.000000 -47.620728 -15.240289
v 20.000000 -46.087440 -19.389376
v 20.000000 -44.193455 -23.386713
v 20.000000 -41.953598 -27.201019
v 20.000000 -39.385399 -30.802441
v 20.000000 -36.508953 -34.162792
v 20.000000 -33.346775 -37.255772
v 20.000000 -29.923616 -40.057175
v 20.000000 -26.266262 -42.545074
v 20.000000 -22.403339 -44.700005
v 20.000000 -18.365080 -46.505096
v 20.000000 -14.183089 -47.946220
v 20.000000 -9.890096 -49.012100
v 20.000000 -5.519700 -49.694397
v 20.000000 -1.106104 -49.987762
v 20.000000 3.316148 -49.889912
v 20.000000 7.712447 -49.401600
v 20.000000 12.048385 -48.526657
v 20.000000 16.290030 -47.271927
v 20.000000 20.404181 -45.647228
v 20.000000 24.358643 -43.665279
v 20.000000 28.122465 -41.341591
v 20.000000 31.666191 -38.694347
v 20.000000 34.962086 -35.744267
v 20.000000 37.984356 -32.514439
v 20.000000 40.709343 -29.030144
v 20.000000 43.115730 -25.318647
v 20.000000 45.184673 -21.408998
v 20.000000 46.899986 -17.331797
v 20.000000 48.248245 -13.118948
v 20.000000 49.218895 -8.803426
v 20.000000 49.804340 -4.419005
v 20.000000 18.224216 -17.113678
v 20.000000 15.935599 -19.262831
v 20.000000 20.225426 -14.694632
v 20.000000 13.395670 -21.108198
v 20.000000 21.907667 -12.043842
v 20.000000 10.644483 -22.620676
v 20.000000 23.244411 -9.203114
v 20.000000 7.725425 -23.776413
v 20.000000 24.214579 -6.217247
v 20.000000 4.684533 -24.557180
v 20.000000 24.802868 -3.133331
v 20.000000 1.569763 -24.950668
v 20.000000 25.000000 0.000000
v 20.000000 -1.569763 -24.950668
v 20.000000 24.802868 3.133331
v 20.000000 -4.684533 -24.557180
v 20.000000 24.214579 6.217247
v 20.000000 -7.725425 -23.776413
v 20.000000 23.244411 9.203114
v 20.000000 -10.644483 -22.620676
v 20.000000 21.907667 12.043842
v 20.000000 -13.395670 -21.108198
v 20.000000 20.225426 14.694632
v 20.000000 -15.935599 -19.262831
v 20.000000 18.224216 17.113678
v 20.000000 -18.224216 -17.113678
v 20.000000 15.935599 19.262831
v 20.000000 -20.225426 -14.694632
v 20.000000 13.395670 21.108198
v 20.000000 -21.907667 -12.043842
v 20.000000 10.644483 22.620676
v 20.000000 7.725425 23.776413
v 20.000000 -23.244411 -9.203114
v 20.000000 -24.214579 -6.217247
v 20.000000 4.684533 24.557180
v 20.000000 -24.802868 -3.133331
v 20.000000 1.569763 24.950668
v 20.000000 -25.000000 -0.000000
v 20.000000 -1.569763 24.950668
v 20.000000 -24.802868 3.133331
v 20.000000 -4.684533 24.557180
v 20.000000 -24.214579 6.217247
v 20.000000 -7.725425 23.776413
v 20.000000 -23.244411 9.203114
v 20.000000 -10.644483 22.620676
v 20.000000 -21.907667 12.043842
v 20.000000 -13.395670 21.108198
v 20.000000 -20.225426 14.694632
v 20.000000 -15.935599 19.262831
v 20.000000 -18.224216 17.113678
v 0.000000 25.000000 0.000000
v 0.000000 24.802868 3.133331
v 0.000000 24.214579 6.217247
v 0.000000 23.244411 9.203114
v 0.000000 21.907667 12.043842
v 0.000000 20.225426 14.694632
v 0.000000 18.224216 17.113678
v 0.000000 15.935599 19.262831
v 0.000000 13.395670 21.108198
v 0.000000 10.644483 22.620676
v 0.000000 7.725425 23.776413
v 0.000000 4.684533 24.557180
v 0.000000 1.569763 24.950668
v 0.000000 -1.569763 24.950668
v 0.000000 -4.684533 24.557180
v 0.000000 -7.725425 23.776413
v 0.000000 -10.644483 22.620676
v 0.000000 -13.395670 21.108198
v 0.000000 -15.935599 19.262831
v 0.000000 -18.224216 17.113678
v 0.000000 -20.225426 14.694632
v 0.000000 -21.907667 12.043842
v 0.000000 -23.244411 9.203114
v 0.000000 -24.214579 6.217247
v 0.000000 -24.802868 3.133331
v 0.000000 -25.000000 -0.000000
v 0.000000 -24.802868 -3.133331
v 0.000000 -24.214579 -6.217247
v 0.000000 -23.244411 -9.203114
v 0.000000 -21.907667 -12.043842
v 0.000000 -20.225426 -14.694632
v 0.000000 -18.224216 -17.113678
v 0.000000 -15.935599 -19.262831
v 0.000000 -13.395670 -21.108198
v 0.000000 -10.644483 -22.620676
v 0.000000 -7.725425 -23.776413
v 0.000000 -4.684533 -24.557180
v 0.000000 -1.569763 -24.950668
v 0.000000 1.569763 -24.950668
v 0.000000 4.684533 -24.557180
v 0.000000 7.725425 -23.776413
v 0.000000 10.644483 -22.620676
v 0.000000 13.395670 -21.108198
v 0.000000 15.935599 -19.262831
v 0.000000 18.224216 -17.113678
v 0.000000 20.225426 -14.694632
v 0.000000 21.907667 -12.043842
v 0.000000 23.244411 -9.203114
v 0.000000 24.214579 -6.217247
v 0.000000 24.802868 -3.133331
vn 0.000000 -0.997066 -0.076549
vn 0.000000 -0.997066 -0.076549
vn 0.000000 -0.973695 -0.227853
vn 0.000000 -0.973695 -0.227853
vn 0.000000 -0.927502 -0.373817
vn 0.000000 -0.859570 -0.511019
vn 0.000000 -0.927502 -0.373817
vn 0.000000 -0.859570 -0.511019
vn 0.000000 -0.771489 -0.636242
vn 0.000000 -0.771489 -0.636242
vn 0.000000 -0.665326 -0.746553
vn 0.000000 -0.665326 -0.746553
vn 0.000000 -0.543568 -0.839365
vn 0.000000 -0.543568 -0.839365
vn 0.000000 -0.409069 -0.912504
vn 0.000000 -0.409069 -0.912504
vn 0.000000 -0.264982 -0.964253
vn 0.000000 -0.264982 -0.964253
vn 0.000000 -0.114683 -0.993402
vn 0.000000 -0.114683 -0.993402
vn 0.000000 0.038303 -0.999266
vn 0.000000 0.038303 -0.999266
vn 0.000000 0.190391 -0.981708
vn 0.000000 0.190391 -0.981708
vn 0.000000 0.338017 -0.941140
vn 0.000000 0.338017 -0.941140
vn 0.000000 0.477720 -0.878512
vn 0.000000 0.477720 -0.878512
vn 0.000000 0.606225 -0.795293
vn 0.000000 0.606225 -0.795293
vn 0.000000 0.720521 -0.693433
vn 0.000000 0.720521 -0.693433
vn 0.000000 0.817929 -0.575319
vn 0.000000 0.817929 -0.575319
vn 0.000000 0.896166 -0.443720
vn 0.000000 0.896166 -0.443720
vn 0.000000 0.953396 -0.301720
vn 0.000000 0.988280 -0.152650
vn 0.000000 0.953396 -0.301720
vn 0.000000 0.988280 -0.152650
vn 0.000000 1.000000 0.000000
vn -0.000000 0.988280 0.152650
vn 0.000000 1.000000 0.000000
vn -0.000000 0.988280 0.152650
vn -0.000000 0.953396 0.301720
vn -0.000000 0.896166 0.443720
vn 0.000000 0.953396 0.301720
vn -0.000000 0.896166 0.443720
vn -0.000000 0.817929 0.575319
vn 0.000000 0.817929 0.575319
vn -0.000000 0.720521 0.693433
vn -0.000000 0.606225 0.795293
vn 0.000000 0.720521 0.693433
vn -0.000000 0.606225 0.795293
vn -0.000000 0.477720 0.878512
vn 0.000000 0.477720 0.878512
vn 0.000000 0.338017 0.941140
vn -0.000000 0.338017 0.941140
vn 0.000000 0.190391 0.981708
vn -0.000000 0.190391 0.981708
vn 0.000000 0.038303 0.999266
vn -0.000000 0.038303 0.999266
vn 0.000000 -0.114683 0.993402
vn 0.000000 -0.264982 0.964253
vn 0.000000 -0.114683 0.993402
vn 0.000000 -0.264982 0.964253
vn 0.000000 -0.409069 0.912504
vn 0.000000 -0.409069 0.912504
vn 0.000000 -0.543568 0.839365
vn 0.000000 -0.543568 0.839365
vn 0.000000 -0.665326 0.746553
vn 0.000000 -0.665326 0.746553
vn 0.000000 -0.771489 0.636242
vn 0.000000 -0.771489 0.636242
vn 0.000000 -0.859570 0.511019
vn 0.000000 -0.859570 0.511019
vn 0.000000 -0.927502 0.373817
vn 0.000000 -0.927502 0.373817
vn 0.000000 -0.973695 0.227853
vn 0.000000 -0.973695 0.227853
vn 0.000000 -0.997066 0.076549
vn 0.000000 -0.997066 0.076549
vn 1.000000 0.000000 0.000000
vn 1.000000 0.000000 0.000000
vn 1.000000 0.000000 0.000000
vn 1.000000 0.000000 0.000000
vn 1.000000 0.000000 0.000000
vn 1.000000 0.000000 0.000000
vn 1.000000 0.000000 0.000000
vn 1.000000 0.000000 0.000000
vn 1.000000 0.000000 0.000000
vn 1.000000 0.000000 0.000000
vn 1.000000 0.000000 0.000000
vn 1.000000 0.000000 0.000000
vn 1.000000 0.000000 0.000000
vn 1.000000 0.000000 0.000000
vn 1.000000 0.000000 0.000000
vn 1.000000 0.000000 0.000000
vn 1.000000 0.000000 0.000000
vn 1.000000 0.000000 0.000000
vn 1.000000 0.000000 0.000000
vn 1.000000 0.000000 0.000000
vn 1.000000 0.000000 0.000000
vn 1.000000 0.000000 0.000000
vn 1.000000 0.000000 0.000000
vn 1.000000 0.000000 0.000000
vn 1.000000 0.000000 0.000000
vn 1.000000 0.000000 0.000000
vn 1.000000 0.000000 0.000000
vn 1.000000 0.000000 0.000000
vn 1.000000 0.000000 0.000000
vn 1.000000 0.000000 0.000000
vn 1.000000 0.000000 0.000000
vn 1.000000 0.000000 0.000000
vn 1.000000 0.000000 0.000000
vn 1.000000 0.000000 0.000000
vn 1.000000 0.000000 0.000000
vn 1.000000 0.000000 0.000000
vn 1.000000 0.000000 0.000000
vn 1.000000 0.000000 0.000000
vn 1.000000 0.000000 0.000000
vn 1.000000 0.000000 0.000000
vn 1.000000 0.000000 0.000000
vn 1.000000 0.000000 0.000000
vn 1.000000 0.000000 0.000000
vn 1.000000 0.000000 0.000000
vn 1.000000 0.000000 0.000000
vn 1.000000 0.000000 0.000000
vn 1.000000 0.000000 0.000000
vn 1.000000 0.000000 0.000000
vn 1.000000 0.000000 0.000000
vn 1.000000 0.000000 0.000000
vn 1.000000 0.000000 0.000000
vn 1.000000 0.000000 0.000000
vn 1.000000 0.000000 0.000000
vn 1.000000 0.000000 0.000000
vn 1.000000 0.000000 0.000000
vn 1.000000 0.000000 0.000000
vn 1.000000 0.000000 0.000000
vn 1.000000 0.000000 0.000000
vn 1.000000 0.000000 0.000000
vn 1.000000 0.000000 0.000000
vn 1.000000 0.000000 0.000000
vn 1.000000 0.000000 0.000000
vn 1.000000 0.000000 0.000000
vn 1.000000 0.000000 0.000000
vn 1.000000 0.000000 0.000000
vn 1.000000 0.000000 0.000000
vn 1.000000 0.000000 0.000000
vn 1.000000 0.000000 0.000000
vn 1.000000 0.000000 0.000000
vn 1.000000 0.000000 0.000000
vn 1.000000 0.000000 0.000000
vn 1.000000 0.000000 0.000000
vn 1.000000 0.000000 0.000000
vn 1.000000 0.000000 0.000000
vn 1.000000 0.000000 0.000000
vn 1.000000 0.000000 0.000000
vn 1.000000 0.000000 0.000000
vn 1.000000 0.000000 0.000000
vn 1.000000 0.000000 0.000000
vn 1.000000 0.000000 0.000000
vn 1.000000 0.000000 0.000000
vn 1.000000 0.000000 0.000000
vn 1.000000 0.000000 0.000000
vn 1.000000 0.000000 0.000000
vn 1.000000 0.000000 0.000000
vn 1.000000 0.000000 0.000000
vn 1.000000 0.000000 0.000000
vn 1.000000 0.000000 0.000000
vn 1.000000 0.000000 0.000000
vn 1.000000 0.000000 0.000000
vn 1.000000 0.000000 0.000000
vn 1.000000 0.000000 0.000000
vn 1.000000 0.000000 0.000000
vn 1.000000 0.000000 0.000000
vn 1.000000 0.000000 0.000000
vn 1.000000 0.000000 0.000000
vn 0.000000 0.998369 0.057089
vn 0.000000 0.998369 0.057089
vn 0.000000 0.985354 0.170522
vn 0.000000 0.959493 0.281733
vn 0.000000 0.985354 0.170522
vn 0.000000 0.959493 0.281733
vn 0.000000 0.921124 0.389270
vn 0.000000 0.921124 0.389270
vn 0.000000 0.870746 0.491733
vn 0.000000 0.809017 0.587785
vn 0.000000 0.870746 0.491733
vn 0.000000 0.809017 0.587785
vn 0.000000 0.736741 0.676175
vn 0.000000 0.736741 0.676175
vn 0.000000 0.654861 0.755750
vn 0.000000 0.564443 0.825472
vn 0.000000 0.654861 0.755750
vn 0.000000 0.564443 0.825472
vn 0.000000 0.466667 0.884433
vn 0.000000 0.362808 0.931864
vn 0.000000 0.466667 0.884433
vn 0.000000 0.254218 0.967147
vn 0.000000 0.362808 0.931864
vn 0.000000 0.254218 0.967147
vn 0.000000 0.142315 0.989821
vn 0.000000 0.142315 0.989821
vn 0.000000 0.028556 0.999592
vn 0.000000 -0.085575 0.996332
vn 0.000000 0.028556 0.999592
vn 0.000000 -0.198590 0.980083
vn 0.000000 -0.085575 0.996332
vn 0.000000 -0.198590 0.980083
vn 0.000000 -0.309017 0.951057
vn 0.000000 -0.415415 0.909632
vn 0.000000 -0.309017 0.951057
vn 0.000000 -0.415415 0.909632
vn 0.000000 -0.516398 0.856349
vn 0.000000 -0.516398 0.856349
vn 0.000000 -0.610648 0.791902
vn 0.000000 -0.610648 0.791902
vn 0.000000 -0.696938 0.717132
vn 0.000000 -0.696938 0.717132
vn 0.000000 -0.774142 0.633012
vn 0.000000 -0.774142 0.633012
vn 0.000000 -0.841253 0.540641
vn 0.000000 -0.841253 0.540641
vn 0.000000 -0.897399 0.441221
vn 0.000000 -0.897399 0.441221
vn 0.000000 -0.941844 0.336050
vn 0.000000 -0.941844 0.336050
vn 0.000000 -0.974012 0.226497
vn 0.000000 -0.974012 0.226497
vn 0.000000 -0.993482 0.113991
vn 0.000000 -0.993482 0.113991
vn 0.000000 -1.000000 0.000000
vn 0.000000 -1.000000 0.000000
vn -0.000000 -0.993482 -0.113991
vn 0.000000 -0.993482 -0.113991
vn -0.000000 -0.974012 -0.226497
vn -0.000000 -0.941844 -0.336050
vn 0.000000 -0.974012 -0.226497
vn -0.000000 -0.941844 -0.336050
vn -0.000000 -0.897399 -0.441221
vn -0.000000 -0.841253 -0.540641
vn 0.000000 -0.897399 -0.441221
vn -0.000000 -0.774142 -0.633012
vn -0.000000 -0.841253 -0.540641
vn -0.000000 -0.774142 -0.633012
vn -0.000000 -0.696938 -0.717132
vn -0.000000 -0.610648 -0.791902
vn 0.000000 -0.696938 -0.717132
vn -0.000000 -0.610648 -0.791902
vn -0.000000 -0.516398 -0.856349
vn 0.000000 -0.516398 -0.856349
vn -0.000000 -0.415415 -0.909632
vn 0.000000 -0.415415 -0.909632
vn -0.000000 -0.309017 -0.951057
vn -0.000000 -0.198590 -0.980083
vn 0.000000 -0.309017 -0.951057
vn -0.000000 -0.198590 -0.980083
vn -0.000000 -0.085575 -0.996332
vn 0.000000 -0.085575 -0.996332
vn 0.000000 0.028556 -0.999592
vn 0.000000 0.142315 -0.989821
vn 0.000000 0.028556 -0.999592
vn 0.000000 0.142315 -0.989821
vn 0.000000 0.254218 -0.967147
vn 0.000000 0.254218 -0.967147
vn 0.000000 0.362808 -0.931864
vn 0.000000 0.362808 -0.931864
vn 0.000000 0.466667 -0.884433
vn 0.000000 0.466667 -0.884433
vn 0.000000 0.564443 -0.825472
vn 0.000000 0.564443 -0.825472
vn 0.000000 0.654861 -0.755750
vn 0.000000 0.654861 -0.755750
vn 0.000000 0.736741 -0.676175
vn 0.000000 0.736741 -0.676175
vn 0.000000 0.809017 -0.587785
vn 0.000000 0.809017 -0.587785
vn 0.000000 0.870746 -0.491733
vn 0.000000 0.870746 -0.491733
vn 0.000000 0.921124 -0.389270
vn 0.000000 0.921124 -0.389270
vn 0.000000 0.959493 -0.281733
vn 0.000000 0.959493 -0.281733
vn 0.000000 0.985354 -0.170522
vn 0.000000 0.985354 -0.170522
vn 0.000000 0.998369 -0.057089
vn 0.000000 0.998369 -0.057089
vn 1.000000 0.000000 0.000000
vn 1.000000 0.000000 0.000000
vn 1.000000 0.000000 0.000000
vn 1.000000 0.000000 0.000000
vn 1.000000 0.000000 0.000000
vn 1.000000 0.000000 0.000000
vn 1.000000 0.000000 0.000000
vn 1.000000 0.000000 0.000000
vn 1.000000 0.000000 0.000000
vn 1.000000 0.000000 0.000000
vn 1.000000 0.000000 0.000000
vn 1.000000 0.000000 0.000000
vn 1.000000 0.000000 0.000000
vn 1.000000 0.000000 0.000000
vn 1.000000 0.000000 0.000000
vn 1.000000 0.000000 0.000000
vn 1.000000 0.000000 0.000000
vn 1.000000 0.000000 0.000000
vn 1.000000 0.000000 0.000000
vn 1.000000 0.000000 0.000000
vn 1.000000 0.000000 0.000000
vn 1.000000 0.000000 0.000000
vn 1.000000 0.000000 0.000000
vn 1.000000 0.000000 0.000000
vn 1.000000 0.000000 0.000000
vn 1.000000 0.000000 0.000000
vn 1.000000 0.000000 0.000000
vn 1.000000 0.000000 0.000000
vn 1.000000 0.000000 0.000000
vn 1.000000 0.000000 0.000000
vn 1.000000 0.000000 0.000000
vn 1.000000 0.000000 0.000000
vn 1.000000 0.000000 0.000000
vn 1.000000 0.000000 0.000000
vn 1.000000 0.000000 0.000000
vn 1.000000 0.000000 0.000000
vn 1.000000 0.000000 0.000000
vn 1.000000 0.000000 0.000000
vn 1.000000 0.000000 0.000000
vn 1.000000 0.000000 0.000000
vn 1.000000 0.000000 0.000000
vn 1.000000 0.000000 0.000000
vn 1.000000 0.000000 0.000000
vn 1.000000 0.000000 0.000000
vn 1.000000 0.000000 0.000000
vn 1.000000 0.000000 0.000000
vn 1.000000 0.000000 0.000000
vn 1.000000 0.000000 0.000000
vn 1.000000 0.000000 0.000000
vn 1.000000 0.000000 0.000000
vn 1.000000 0.000000 0.000000
vn 1.000000 0.000000 0.000000
vn 1.000000 0.000000 0.000000
vn 1.000000 0.000000 0.000000
vn 1.000000 0.000000 0.000000
vn 1.000000 0.000000 0.000000
vn 1.000000 0.000000 0.000000
vn 1.000000 0.000000 0.000000
vn 1.000000 0.000000 0.000000
vn 1.000000 0.000000 0.000000
vn 1.000000 0.000000 0.000000
vn 1.000000 0.000000 0.000000
vn 1.000000 0.000000 0.000000
vn 1.000000 0.000000 0.000000
vn 1.000000 0.000000 0.000000
vn 1.000000 0.000000 0.000000
vn 1.000000 0.000000 0.000000
vn 1.000000 0.000000 0.000000
vn 1.000000 0.000000 0.000000
vn 1.000000 0.000000 0.000000
vn 1.000000 0.000000 0.000000
vn 1.000000 0.000000 0.000000
vn 1.000000 0.000000 0.000000
vn 1.000000 0.000000 0.000000
vn 1.000000 0.000000 0.000000
vn 1.000000 0.000000 0.000000
vn 1.000000 0.000000 0.000000
vn 1.000000 0.000000 0.000000
vn 1.000000 0.000000 0.000000
vn 1.000000 0.000000 0.000000
vn 1.000000 0.000000 0.000000
vn 1.000000 0.000000 0.000000
vn 1.000000 0.000000 0.000000
vn 1.000000 0.000000 0.000000
vn 1.000000 0.000000 0.000000
vn 1.000000 0.000000 0.000000
vn 1.000000 0.000000 0.000000
vn 1.000000 0.000000 0.000000
vn 1.000000 0.000000 0.000000
vn 1.000000 0.000000 0.000000
vn 1.000000 0.000000 0.000000
vn 1.000000 0.000000 0.000000
vn 1.000000 0.000000 0.000000
vn 1.000000 0.000000 0.000000
vn 1.000000 0.000000 0.000000
vn 1.000000 0.000000 0.000000
vn 1.000000 0.000000 0.000000
vn 1.000000 0.000000 0.000000
vn 1.000000 0.000000 0.000000
vn 1.000000 0.000000 0.000000
vn 1.000000 0.000000 0.000000
vn 1.000000 0.000000 0.000000
vn 1.000000 0.000000 0.000000
vn 1.000000 0.000000 0.000000
vn 1.000000 0.000000 0.000000
vn 1.000000 0.000000 0.000000
vn 1.000000 0.000000 0.000000
vn 1.000000 0.000000 0.000000
vn 1.000000 0.000000 0.000000
vn 1.000000 0.000000 0.000000
vn 1.000000 0.000000 0.000000
vn 1.000000 0.000000 0.000000
vn 1.000000 0.000000 0.000000
vn 1.000000 0.000000 0.000000
vn 1.000000 0.000000 0.000000
vn 1.000000 0.000000 0.000000
vn 1.000000 0.000000 0.000000
vn 1.000000 0.000000 0.000000
vn 1.000000 0.000000 0.000000
vn 1.000000 0.000000 0.000000
vn 1.000000 0.000000 0.000000
vn 1.000000 0.000000 0.000000
vn 1.000000 0.000000 0.000000
vn 1.000000 0.000000 0.000000
vn 0.000000 0.998964 0.045515
vn 0.000000 0.998964 0.045515
vn 0.000000 0.990686 0.136167
vn 0.000000 0.990686 0.136167
vn 0.000000 0.974199 0.225691
vn 0.000000 0.974199 0.225691
vn 0.000000 0.949640 0.313344
vn 0.000000 0.949640 0.313344
vn 0.000000 0.917211 0.398401
vn 0.000000 0.917211 0.398401
vn 0.000000 0.877182 0.480157
vn 0.000000 0.877182 0.480157
vn 0.000000 0.829886 0.557934
vn 0.000000 0.829886 0.557934
vn 0.000000 0.775711 0.631088
vn 0.000000 0.775711 0.631088
vn 0.000000 0.715109 0.699013
vn 0.000000 0.648582 0.761145
vn 0.000000 0.715109 0.699013
vn 0.000000 0.648582 0.761145
vn 0.000000 0.576680 0.816970
vn 0.000000 0.576680 0.816970
vn 0.000000 0.500001 0.866025
vn 0.000000 0.500001 0.866025
vn 0.000000 0.419176 0.907905
vn 0.000000 0.334879 0.942261
vn 0.000000 0.419176 0.907905
vn 0.000000 0.247808 0.968809
vn 0.000000 0.334879 0.942261
vn 0.000000 0.247808 0.968809
vn 0.000000 0.158683 0.987330
vn 0.000000 0.158683 0.987330
vn 0.000000 0.068243 0.997669
vn 0.000000 0.068243 0.997669
vn 0.000000 -0.022764 0.999741
vn 0.000000 -0.022764 0.999741
vn 0.000000 -0.113580 0.993529
vn 0.000000 -0.113580 0.993529
vn 0.000000 -0.203456 0.979084
vn 0.000000 -0.203456 0.979084
vn 0.000000 -0.291646 0.956526
vn 0.000000 -0.291646 0.956526
vn 0.000000 -0.377419 0.926043
vn 0.000000 -0.377419 0.926043
vn 0.000000 -0.460066 0.887885
vn 0.000000 -0.460066 0.887885
vn 0.000000 -0.538899 0.842371
vn 0.000000 -0.613266 0.789876
vn 0.000000 -0.538899 0.842371
vn 0.000000 -0.613266 0.789876
vn 0.000000 -0.682553 0.730836
vn 0.000000 -0.682553 0.730836
vn 0.000000 -0.746184 0.665740
vn 0.000000 -0.746184 0.665740
vn 0.000000 -0.803631 0.595128
vn 0.000000 -0.854420 0.519583
vn 0.000000 -0.803631 0.595128
vn 0.000000 -0.854420 0.519583
vn 0.000000 -0.898128 0.439735
vn 0.000000 -0.898128 0.439735
vn 0.000000 -0.934394 0.356242
vn 0.000000 -0.962917 0.269796
vn 0.000000 -0.934394 0.356242
vn 0.000000 -0.962917 0.269796
vn 0.000000 -0.983462 0.181116
vn 0.000000 -0.995857 0.090935
vn 0.000000 -0.983462 0.181116
vn -0.000000 -1.000000 0.000000
vn 0.000000 -0.995857 0.090935
vn 0.000000 -1.000000 0.000000
vn -0.000000 -0.995857 -0.090935
vn 0.000000 -0.995857 -0.090935
vn -0.000000 -0.983462 -0.181116
vn -0.000000 -0.962917 -0.269796
vn 0.000000 -0.983462 -0.181116
vn -0.000000 -0.962917 -0.269796
vn -0.000000 -0.934394 -0.356242
vn -0.000000 -0.898128 -0.439735
vn 0.000000 -0.934394 -0.356242
vn -0.000000 -0.898128 -0.439735
vn 0.000000 -0.854420 -0.519583
vn -0.000000 -0.854420 -0.519583
vn 0.000000 -0.803631 -0.595128
vn -0.000000 -0.803631 -0.595128
vn 0.000000 -0.746184 -0.665740
vn -0.000000 -0.746184 -0.665740
vn 0.000000 -0.682553 -0.730836
vn -0.000000 -0.682553 -0.730836
vn -0.000000 -0.613266 -0.789876
vn -0.000000 -0.613266 -0.789876
vn 0.000000 -0.538899 -0.842371
vn -0.000000 -0.538899 -0.842371
vn 0.000000 -0.460066 -0.887885
vn -0.000000 -0.460066 -0.887885
vn -0.000000 -0.377419 -0.926043
vn -0.000000 -0.377419 -0.926043
vn -0.000000 -0.291646 -0.956526
vn -0.000000 -0.291646 -0.956526
vn 0.000000 -0.203456 -0.979084
vn -0.000000 -0.203456 -0.979084
vn 0.000000 -0.113580 -0.993529
vn -0.000000 -0.113580 -0.993529
vn 0.000000 -0.022764 -0.999741
vn -0.000000 -0.022764 -0.999741
vn 0.000000 0.068243 -0.997669
vn 0.000000 0.068243 -0.997669
vn 0.000000 0.158683 -0.987330
vn 0.000000 0.158683 -0.987330
vn 0.000000 0.247808 -0.968809
vn 0.000000 0.247808 -0.968809
vn 0.000000 0.334879 -0.942261
vn 0.000000 0.419176 -0.907905
vn 0.000000 0.334879 -0.942261
vn 0.000000 0.419176 -0.907905
vn 0.000000 0.500001 -0.866025
vn 0.000000 0.576680 -0.816970
vn 0.000000 0.500001 -0.866025
vn 0.000000 0.576680 -0.816970
vn 0.000000 0.648582 -0.761145
vn 0.000000 0.648582 -0.761145
vn 0.000000 0.715109 -0.699013
vn 0.000000 0.715109 -0.699013
vn 0.000000 0.775711 -0.631088
vn 0.000000 0.775711 -0.631088
vn 0.000000 0.829886 -0.557934
vn 0.000000 0.829886 -0.557934
vn 0.000000 0.877182 -0.480157
vn 0.000000 0.877182 -0.480157
vn 0.000000 0.917211 -0.398401
vn 0.000000 0.917211 -0.398401
vn 0.000000 0.949640 -0.313344
vn 0.000000 0.949640 -0.313344
vn 0.000000 0.974199 -0.225691
vn 0.000000 0.974199 -0.225691
vn 0.000000 0.990686 -0.136167
vn 0.000000 0.990686 -0.136167
vn 0.000000 0.998964 -0.045515
vn 0.000000 0.998964 -0.045515
vn 1.000000 0.000000 0.000000
vn 1.000000 0.000000 0.000000
vn 1.000000 0.000000 0.000000
vn 1.000000 0.000000 0.000000
vn 1.000000 0.000000 0.000000
vn 1.000000 0.000000 0.000000
vn 1.000000 0.000000 0.000000
vn 1.000000 0.000000 0.000000
vn 1.000000 0.000000 0.000000
vn 1.000000 0.000000 0.000000
vn 1.000000 0.000000 0.000000
vn 1.000000 0.000000 0.000000
vn 1.000000 0.000000 0.000000
vn 1.000000 0.000000 0.000000
vn 1.000000 0.000000 0.000000
vn 1.000000 0.000000 0.000000
vn 1.000000 0.000000 0.000000
vn 1.000000 0.000000 0.000000
vn 1.000000 0.000000 0.000000
vn 1.000000 0.000000 0.000000
vn 1.000000 0.000000 0.000000
vn 1.000000 0.000000 0.000000
vn 1.000000 0.000000 0.000000
vn 1.000000 0.000000 0.000000
vn 1.000000 0.000000 0.000000
vn 1.000000 0.000000 0.000000
vn 1.000000 0.000000 0.000000
vn 1.000000 0.000000 0.000000
vn 1.000000 0.000000 0.000000
vn 1.000000 0.000000 0.000000
vn 1.000000 0.000000 0.000000
vn 1.000000 0.000000 0.000000
vn 1.000000 0.000000 0.000000
vn 1.000000 0.000000 0.000000
vn 1.000000 0.000000 0.000000
vn 1.000000 0.000000 0.000000
vn 1.000000 0.000000 0.000000
vn 1.000000 0.000000 0.000000
vn 1.000000 0.000000 0.000000
vn 1.000000 0.000000 0.000000
vn 1.000000 0.000000 0.000000
vn 1.000000 0.000000 0.000000
vn 1.000000 0.000000 0.000000
vn 1.000000 0.000000 0.000000
vn 1.000000 0.000000 0.000000
vn 1.000000 0.000000 0.000000
vn 1.000000 0.000000 0.000000
vn 1.000000 0.000000 0.000000
vn 1.000000 0.000000 0.000000
vn 1.000000 0.000000 0.000000
vn 1.000000 0.000000 0.000000
vn 1.000000 0.000000 0.000000
vn 1.000000 0.000000 0.000000
vn 1.000000 0.000000 0.000000
vn 1.000000 0.000000 0.000000
vn 1.000000 0.000000 0.000000
vn 1.000000 0.000000 0.000000
vn 1.000000 0.000000 0.000000
vn 1.000000 0.000000 0.000000
vn 1.000000 0.000000 0.000000
vn 1.000000 0.000000 0.000000
vn 1.000000 0.000000 0.000000
vn 1.000000 0.000000 0.000000
vn 1.000000 0.000000 0.000000
vn 1.000000 0.000000 0.000000
vn 1.000000 0.000000 0.000000
vn 1.000000 0.000000 0.000000
vn 1.000000 0.000000 0.000000
vn 1.000000 0.000000 0.000000
vn 1.000000 0.000000 0.000000
vn 1.000000 0.000000 0.000000
vn 1.000000 0.000000 0.000000
vn 1.000000 0.000000 0.000000
vn 1.000000 0.000000 0.000000
vn 1.000000 0.000000 0.000000
vn 1.000000 0.000000 0.000000
vn 1.000000 0.000000 0.000000
vn 1.000000 0.000000 0.000000
vn 1.000000 0.000000 0.000000
vn 1.000000 0.000000 0.000000
vn 1.000000 0.000000 0.000000
vn 1.000000 0.000000 0.000000
vn 1.000000 0.000000 0.000000
vn 1.000000 0.000000 0.000000
vn 1.000000 0.000000 0.000000
vn 1.000000 0.000000 0.000000
vn 1.000000 0.000000 0.000000
vn 1.000000 0.000000 0.000000
vn 1.000000 0.000000 0.000000
vn 1.000000 0.000000 0.000000
vn 1.000000 0.000000 0.000000
vn 1.000000 0.000000 0.000000
vn 1.000000 0.000000 0.000000
vn 1.000000 0.000000 0.000000
vn 1.000000 0.000000 0.000000
vn 1.000000 0.000000 0.000000
vn 1.000000 0.000000 0.000000
vn 1.000000 0.000000 0.000000
vn 1.000000 0.000000 0.000000
vn 1.000000 0.000000 0.000000
vn 1.000000 0.000000 0.000000
vn 1.000000 0.000000 0.000000
vn 1.000000 0.000000 0.000000
vn 1.000000 0.000000 0.000000
vn 1.000000 0.000000 0.000000
vn 1.000000 0.000000 0.000000
vn 1.000000 0.000000 0.000000
vn 1.000000 0.000000 0.000000
vn 1.000000 0.000000 0.000000
vn 1.000000 0.000000 0.000000
vn 1.000000 0.000000 0.000000
vn 1.000000 0.000000 0.000000
vn 1.000000 0.000000 0.000000
vn 1.000000 0.000000 0.000000
vn 1.000000 0.000000 0.000000
vn 1.000000 0.000000 0.000000
vn 1.000000 0.000000 0.000000
vn 1.000000 0.000000 0.000000
vn 1.000000 0.000000 0.000000
vn 1.000000 0.000000 0.000000
vn 1.000000 0.000000 0.000000
vn 1.000000 0.000000 0.000000
vn 1.000000 0.000000 0.000000
vn 1.000000 0.000000 0.000000
vn 1.000000 0.000000 0.000000
vn 1.000000 0.000000 0.000000
vn 1.000000 0.000000 0.000000
vn 1.000000 0.000000 0.000000
vn 1.000000 0.000000 0.000000
vn 1.000000 0.000000 0.000000
vn 1.000000 0.000000 0.000000
vn 1.000000 0.000000 0.000000
vn 1.000000 0.000000 0.000000
vn 1.000000 0.000000 0.000000
vn 1.000000 0.000000 0.000000
vn 1.000000 0.000000 0.000000
vn 1.000000 0.000000 0.000000
vn 1.000000 0.000000 0.000000
vn 1.000000 0.000000 0.000000
vn 1.000000 0.000000 0.000000
vn 0.000000 0.999021 0.044234
vn 0.000000 0.999021 0.044234
vn 0.000000 0.991203 0.132354
vn 0.000000 0.991203 0.132354
vn 0.000000 0.975626 0.219438
vn 0.000000 0.975626 0.219438
vn 0.000000 0.952415 0.304806
vn 0.000000 0.952415 0.304806
vn 0.000000 0.921749 0.387787
vn 0.000000 0.921749 0.387787
vn 0.000000 0.883869 0.467734
vn 0.000000 0.839072 0.544021
vn 0.000000 0.883869 0.467734
vn 0.000000 0.839072 0.544021
vn 0.000000 0.787708 0.616049
vn 0.000000 0.787708 0.616049
vn 0.000000 0.730179 0.683256
vn 0.000000 0.730179 0.683256
vn 0.000000 0.666936 0.745115
vn 0.000000 0.666936 0.745115
vn 0.000000 0.598472 0.801143
vn 0.000000 0.598472 0.801143
vn 0.000000 0.525325 0.850902
vn 0.000000 0.448067 0.894000
vn 0.000000 0.525325 0.850902
vn 0.000000 0.367302 0.930102
vn 0.000000 0.448067 0.894000
vn 0.000000 0.367302 0.930102
vn 0.000000 0.283662 0.958924
vn 0.000000 0.283662 0.958924
vn 0.000000 0.197802 0.980242
vn 0.000000 0.197802 0.980242
vn 0.000000 0.110394 0.993888
vn 0.000000 0.110394 0.993888
vn 0.000000 0.022122 0.999755
vn 0.000000 0.022122 0.999755
vn 0.000000 -0.066322 0.997798
vn 0.000000 -0.066322 0.997798
vn 0.000000 -0.154249 0.988032
vn 0.000000 -0.154249 0.988032
vn 0.000000 -0.240967 0.970533
vn 0.000000 -0.240967 0.970533
vn 0.000000 -0.325800 0.945439
vn 0.000000 -0.325800 0.945439
vn 0.000000 -0.408084 0.912944
vn 0.000000 -0.487173 0.873305
vn 0.000000 -0.408084 0.912944
vn 0.000000 -0.487173 0.873305
vn 0.000000 -0.562449 0.826832
vn 0.000000 -0.633324 0.773887
vn 0.000000 -0.562449 0.826832
vn 0.000000 -0.633324 0.773887
vn 0.000000 -0.699242 0.714886
vn 0.000000 -0.759687 0.650289
vn 0.000000 -0.699242 0.714886
vn 0.000000 -0.759687 0.650289
vn 0.000000 -0.814187 0.580603
vn 0.000000 -0.814187 0.580603
vn 0.000000 -0.862315 0.506373
vn 0.000000 -0.862315 0.506373
vn 0.000000 -0.903693 0.428181
vn 0.000000 -0.903693 0.428181
vn 0.000000 -0.938000 0.346636
vn 0.000000 -0.964965 0.262378
vn 0.000000 -0.938000 0.346636
vn 0.000000 -0.964965 0.262378
vn 0.000000 -0.984378 0.176069
vn 0.000000 -0.996087 0.088380
vn 0.000000 -0.984378 0.176069
vn -0.000000 -1.000000 0.000000
vn 0.000000 -0.996087 0.088380
vn 0.000000 -1.000000 0.000000
vn -0.000000 -0.996087 -0.088380
vn 0.000000 -0.996087 -0.088380
vn -0.000000 -0.984378 -0.176069
vn -0.000000 -0.964965 -0.262378
vn 0.000000 -0.984378 -0.176069
vn -0.000000 -0.964965 -0.262378
vn 0.000000 -0.938000 -0.346636
vn -0.000000 -0.938000 -0.346636
vn 0.000000 -0.903693 -0.428181
vn -0.000000 -0.903693 -0.428181
vn 0.000000 -0.862315 -0.506373
vn -0.000000 -0.862315 -0.506373
vn 0.000000 -0.814187 -0.580603
vn -0.000000 -0.814187 -0.580603
vn 0.000000 -0.759687 -0.650289
vn -0.000000 -0.759687 -0.650289
vn 0.000000 -0.699242 -0.714886
vn -0.000000 -0.699242 -0.714886
vn 0.000000 -0.633324 -0.773887
vn -0.000000 -0.633324 -0.773887
vn -0.000000 -0.562449 -0.826832
vn -0.000000 -0.562449 -0.826832
vn 0.000000 -0.487173 -0.873305
vn -0.000000 -0.487173 -0.873305
vn -0.000000 -0.408084 -0.912944
vn -0.000000 -0.408084 -0.912944
vn -0.000000 -0.325800 -0.945439
vn -0.000000 -0.325800 -0.945439
vn -0.000000 -0.240967 -0.970533
vn -0.000000 -0.240967 -0.970533
vn -0.000000 -0.154249 -0.988032
vn -0.000000 -0.154249 -0.988032
vn -0.000000 -0.066322 -0.997798
vn 0.000000 -0.066322 -0.997798
vn 0.000000 0.022122 -0.999755
vn 0.000000 0.022122 -0.999755
vn 0.000000 0.110394 -0.993888
vn 0.000000 0.110394 -0.993888
vn 0.000000 0.197802 -0.980242
vn 0.000000 0.197802 -0.980242
vn 0.000000 0.283662 -0.958924
vn 0.000000 0.283662 -0.958924
vn 0.000000 0.367302 -0.930102
vn 0.000000 0.448067 -0.894000
vn 0.000000 0.367302 -0.930102
vn 0.000000 0.448067 -0.894000
vn 0.000000 0.525325 -0.850902
vn 0.000000 0.525325 -0.850902
vn 0.000000 0.598472 -0.801143
vn 0.000000 0.666936 -0.745115
vn 0.000000 0.598472 -0.801143
vn 0.000000 0.666936 -0.745115
vn 0.000000 0.730179 -0.683256
vn 0.000000 0.730179 -0.683256
vn 0.000000 0.787708 -0.616049
vn 0.000000 0.787708 -0.616049
vn 0.000000 0.839072 -0.544021
vn 0.000000 0.839072 -0.544021
vn 0.000000 0.883869 -0.467734
vn 0.000000 0.883869 -0.467734
vn 0.000000 0.921749 -0.387787
vn 0.000000 0.921749 -0.387787
vn 0.000000 0.952415 -0.304806
vn 0.000000 0.952415 -0.304806
vn 0.000000 0.975626 -0.219438
vn 0.000000 0.975626 -0.219438
vn 0.000000 0.991203 -0.132354
vn 0.000000 0.991203 -0.132354
vn 0.000000 0.999021 -0.044234
vn 0.000000 0.999021 -0.044234
vn -1.000000 0.000000 0.000000
vn -1.000000 0.000000 0.000000
vn -1.000000 0.000000 0.000000
vn -1.000000 0.000000 0.000000
vn -1.000000 0.000000 -0.000000
vn -1.000000 0.000000 0.000000
vn -1.000000 0.000000 0.000000
vn -1.000000 0.000000 0.000000
vn -1.000000 0.000000 0.000000
vn -1.000000 0.000000 -0.000000
vn -1.000000 0.000000 0.000000
vn -1.000000 0.000000 0.000000
vn -1.000000 0.000000 0.000000
vn -1.000000 0.000000 -0.000000
vn -1.000000 0.000000 0.000000
vn -1.000000 0.000000 0.000000
vn -1.000000 0.000000 0.000000
vn -1.000000 0.000000 0.000000
vn -1.000000 0.000000 0.000000
vn -1.000000 0.000000 0.000000
vn -1.000000 0.000000 -0.000000
vn -1.000000 0.000000 0.000000
vn -1.000000 0.000000 0.000000
vn -1.000000 0.000000 0.000000
vn -1.000000 0.000000 -0.000000
vn -1.000000 0.000000 -0.000000
vn -1.000000 0.000000 0.000000
vn -1.000000 0.000000 0.000000
vn -1.000000 0.000000 0.000000
vn -1.000000 0.000000 0.000000
vn -1.000000 0.000000 -0.000000
vn -1.000000 0.000000 -0.000000
vn -1.000000 0.000000 0.000000
vn -1.000000 0.000000 0.000000
vn -1.000000 0.000000 0.000000
vn -1.000000 0.000000 -0.000000
vn -1.000000 0.000000 0.000000
vn -1.000000 0.000000 0.000000
vn -1.000000 0.000000 0.000000
vn -1.000000 0.000000 0.000000
vn -1.000000 0.000000 0.000000
vn -1.000000 0.000000 0.000000
vn -1.000000 0.000000 -0.000000
vn -1.000000 0.000000 0.000000
vn -1.000000 0.000000 0.000000
vn -1.000000 0.000000 0.000000
vn -1.000000 0.000000 -0.000000
vn -1.000000 0.000000 0.000000
vn -1.000000 0.000000 0.000000
vn -1.000000 0.000000 -0.000000
vn -1.000000 0.000000 0.000000
vn -1.000000 0.000000 0.000000
vn -1.000000 0.000000 0.000000
vn -1.000000 0.000000 0.000000
vn -1.000000 0.000000 -0.000000
vn -1.000000 0.000000 -0.000000
vn -1.000000 0.000000 0.000000
vn -1.000000 0.000000 0.000000
vn -1.000000 0.000000 -0.000000
vn -1.000000 0.000000 -0.000000
vn -1.000000 0.000000 0.000000
vn -1.000000 0.000000 0.000000
vn -1.000000 0.000000 -0.000000
vn -1.000000 0.000000 0.000000
vn -1.000000 0.000000 0.000000
vn -1.000000 0.000000 -0.000000
vn -1.000000 0.000000 0.000000
vn -1.000000 0.000000 0.000000
vn -1.000000 0.000000 0.000000
vn -1.000000 0.000000 -0.000000
vn -1.000000 0.000000 0.000000
vn -1.000000 0.000000 0.000000
vn -1.000000 0.000000 -0.000000
vn -1.000000 0.000000 0.000000
vn -1.000000 0.000000 0.000000
vn -1.000000 0.000000 0.000000
vn -1.000000 0.000000 -0.000000
vn -1.000000 0.000000 0.000000
vn -1.000000 0.000000 0.000000
vn -1.000000 0.000000 0.000000
vn -1.000000 0.000000 -0.000000
vn -1.000000 0.000000 0.000000
vn -1.000000 0.000000 0.000000
vn -1.000000 0.000000 0.000000
vn -1.000000 0.000000 -0.000000
vn -1.000000 0.000000 0.000000
vn -1.000000 0.000000 -0.000000
vn -1.000000 0.000000 0.000000
vn -1.000000 0.000000 0.000000
vn -1.000000 0.000000 0.000000
vn -1.000000 0.000000 -0.000000
vn -1.000000 0.000000 0.000000
vn -1.000000 0.000000 0.000000
vn -1.000000 0.000000 0.000000
vn -1.000000 0.000000 0.000000
vn -1.000000 0.000000 -0.000000
vn -1.000000 0.000000 0.000000
vn -1.000000 0.000000 -0.000000
vn -1.000000 0.000000 0.000000
vn -1.000000 0.000000 0.000000
vn -1.000000 0.000000 0.000000
vn -1.000000 0.000000 -0.000000
vn -1.000000 0.000000 0.000000
vn -1.000000 0.000000 0.000000
vn -1.000000 0.000000 0.000000
vn -1.000000 0.000000 -0.000000
vn -1.000000 0.000000 0.000000
vn -1.000000 0.000000 0.000000
vn -1.000000 0.000000 0.000000
vn -1.000000 0.000000 -0.000000
vn -1.000000 0.000000 0.000000
vn -1.000000 0.000000 -0.000000
vn -1.000000 0.000000 0.000000
vn -1.000000 0.000000 0.000000
vn -1.000000 0.000000 0.000000
vn -1.000000 0.000000 -0.000000
vn -1.000000 0.000000 0.000000
vn -1.000000 0.000000 0.000000
vn -1.000000 0.000000 0.000000
vn -1.000000 0.000000 -0.000000
vn -1.000000 0.000000 0.000000
vn 0.000000 0.998027 0.062790
vn 0.000000 0.998027 0.062790
vn 0.000000 0.982287 0.187382
vn 0.000000 0.982287 0.187382
vn 0.000000 0.951056 0.309017
vn 0.000000 0.951056 0.309017
vn 0.000000 0.904827 0.425779
vn 0.000000 0.844328 0.535827
vn 0.000000 0.904827 0.425779
vn 0.000000 0.844328 0.535827
vn 0.000000 0.770513 0.637424
vn 0.000000 0.770513 0.637424
vn 0.000000 0.684547 0.728969
vn 0.000000 0.684547 0.728969
vn 0.000000 0.587785 0.809017
vn 0.000000 0.481754 0.876307
vn 0.000000 0.587785 0.809017
vn 0.000000 0.368125 0.929776
vn 0.000000 0.481754 0.876307
vn 0.000000 0.248690 0.968583
vn 0.000000 0.368125 0.929776
vn 0.000000 0.248690 0.968583
vn 0.000000 0.125334 0.992115
vn 0.000000 0.000000 1.000000
vn 0.000000 0.125334 0.992115
vn 0.000000 -0.125334 0.992115
vn 0.000000 -0.000000 1.000000
vn 0.000000 -0.125334 0.992115
vn 0.000000 -0.248690 0.968583
vn 0.000000 -0.248690 0.968583
vn 0.000000 -0.368125 0.929776
vn 0.000000 -0.481754 0.876307
vn 0.000000 -0.368125 0.929776
vn 0.000000 -0.481754 0.876307
vn 0.000000 -0.587785 0.809017
vn 0.000000 -0.587785 0.809017
vn 0.000000 -0.684547 0.728969
vn 0.000000 -0.770513 0.637424
vn 0.000000 -0.684547 0.728969
vn 0.000000 -0.844328 0.535827
vn 0.000000 -0.770513 0.637424
vn 0.000000 -0.844328 0.535827
vn 0.000000 -0.904827 0.425779
vn 0.000000 -0.951056 0.309017
vn 0.000000 -0.904827 0.425779
vn 0.000000 -0.951056 0.309017
vn 0.000000 -0.982287 0.187382
vn 0.000000 -0.982287 0.187382
vn 0.000000 -0.998027 0.062790
vn 0.000000 -0.998027 0.062790
vn -0.000000 -0.998027 -0.062790
vn -0.000000 -0.998027 -0.062790
vn 0.000000 -0.982287 -0.187382
vn -0.000000 -0.982287 -0.187382
vn -0.000000 -0.951056 -0.309017
vn -0.000000 -0.951056 -0.309017
vn -0.000000 -0.904827 -0.425779
vn -0.000000 -0.904827 -0.425779
vn 0.000000 -0.844328 -0.535827
vn -0.000000 -0.844328 -0.535827
vn 0.000000 -0.770513 -0.637424
vn -0.000000 -0.770513 -0.637424
vn -0.000000 -0.684547 -0.728969
vn 0.000000 -0.684547 -0.728969
vn -0.000000 -0.587785 -0.809017
vn -0.000000 -0.481754 -0.876307
vn 0.000000 -0.587785 -0.809017
vn -0.000000 -0.481754 -0.876307
vn -0.000000 -0.368125 -0.929776
vn -0.000000 -0.248690 -0.968583
vn 0.000000 -0.368125 -0.929776
vn -0.000000 -0.125334 -0.992115
vn -0.000000 -0.248690 -0.968583
vn -0.000000 -0.125334 -0.992115
vn -0.000000 0.000000 -1.000000
vn 0.000000 0.125334 -0.992115
vn 0.000000 -0.000000 -1.000000
vn 0.000000 0.125334 -0.992115
vn 0.000000 0.248690 -0.968583
vn 0.000000 0.368125 -0.929776
vn 0.000000 0.248690 -0.968583
vn 0.000000 0.368125 -0.929776
vn 0.000000 0.481754 -0.876307
vn 0.000000 0.587785 -0.809017
vn 0.000000 0.481754 -0.876307
vn 0.000000 0.587785 -0.809017
vn 0.000000 0.684547 -0.728969
vn 0.000000 0.770513 -0.637424
vn 0.000000 0.684547 -0.728969
vn 0.000000 0.770513 -0.637424
vn 0.000000 0.844328 -0.535827
vn 0.000000 0.904827 -0.425779
vn 0.000000 0.844328 -0.535827
vn 0.000000 0.904827 -0.425779
vn 0.000000 0.951056 -0.309017
vn 0.000000 0.982287 -0.187382
vn 0.000000 0.951056 -0.309017
vn 0.000000 0.982287 -0.187382
vn 0.000000 0.998027 -0.062790
vn 0.000000 0.998027 -0.062790
vn -1.000000 0.000000 0.000000
vn -1.000000 0.000000 0.000000
vn -1.000000 0.000000 0.000000
vn -1.000000 0.000000 0.000000
vn -1.000000 0.000000 -0.000000
vn -1.000000 0.000000 0.000000
vn -1.000000 0.000000 0.000000
vn -1.000000 0.000000 0.000000
vn -1.000000 0.000000 -0.000000
vn -1.000000 0.000000 0.000000
vn -1.000000 0.000000 0.000000
vn -1.000000 0.000000 0.000000
vn -1.000000 0.000000 -0.000000
vn -1.000000 0.000000 0.000000
vn -1.000000 0.000000 0.000000
vn -1.000000 0.000000 -0.000000
vn -1.000000 0.000000 0.000000
vn -1.000000 0.000000 -0.000000
vn -1.000000 0.000000 0.000000
vn -1.000000 0.000000 0.000000
vn -1.000000 0.000000 -0.000000
vn -1.000000 0.000000 0.000000
vn -1.000000 0.000000 -0.000000
vn -1.000000 0.000000 0.000000
vn -1.000000 0.000000 0.000000
vn -1.000000 0.000000 -0.000000
vn -1.000000 0.000000 0.000000
vn -1.000000 0.000000 0.000000
vn -1.000000 0.000000 -0.000000
vn -1.000000 0.000000 0.000000
vn -1.000000 0.000000 0.000000
vn -1.000000 0.000000 0.000000
vn -1.000000 0.000000 0.000000
vn -1.000000 0.000000 -0.000000
vn -1.000000 0.000000 0.000000
vn -1.000000 0.000000 0.000000
vn -1.000000 0.000000 0.000000
vn -1.000000 0.000000 -0.000000
vn -1.000000 0.000000 0.000000
vn -1.000000 0.000000 0.000000
vn -1.000000 0.000000 0.000000
vn -1.000000 0.000000 -0.000000
vn -1.000000 0.000000 0.000000
vn -1.000000 0.000000 0.000000
vn -1.000000 0.000000 0.000000
vn -1.000000 0.000000 -0.000000
vn -1.000000 0.000000 0.000000
vn -1.000000 0.000000 -0.000000
vn -1.000000 0.000000 0.000000
vn -1.000000 0.000000 -0.000000
vn -1.000000 0.000000 0.000000
vn -1.000000 0.000000 -0.000000
vn -1.000000 0.000000 0.000000
vn -1.000000 0.000000 0.000000
vn -1.000000 0.000000 0.000000
vn -1.000000 0.000000 -0.000000
vn -1.000000 0.000000 0.000000
vn -1.000000 0.000000 -0.000000
vn -1.000000 0.000000 0.000000
vn -1.000000 0.000000 0.000000
vn -1.000000 0.000000 0.000000
vn -1.000000 0.000000 -0.000000
vn -1.000000 0.000000 0.000000
vn -1.000000 0.000000 0.000000
vn -1.000000 0.000000 0.000000
vn -1.000000 0.000000 -0.000000
vn -1.000000 0.000000 0.000000
vn -1.000000 0.000000 0.000000
vn -1.000000 0.000000 0.000000
vn -1.000000 0.000000 -0.000000
vn -1.000000 0.000000 -0.000000
vn -1.000000 0.000000 0.000000
vn -1.000000 0.000000 0.000000
vn -1.000000 0.000000 0.000000
vn -1.000000 0.000000 -0.000000
vn -1.000000 0.000000 0.000000
vn -1.000000 0.000000 0.000000
vn -1.000000 0.000000 0.000000
vn -1.000000 0.000000 -0.000000
vn -1.000000 0.000000 0.000000
vn -1.000000 0.000000 0.000000
vn -1.000000 0.000000 -0.000000
vn -1.000000 0.000000 0.000000
vn -1.000000 0.000000 0.000000
vn -1.000000 0.000000 -0.000000
vn -1.000000 0.000000 0.000000
vn -1.000000 0.000000 0.000000
vn -1.000000 0.000000 0.000000
vn -1.000000 0.000000 0.000000
vn -1.000000 0.000000 -0.000000
vn -1.000000 0.000000 0.000000
f 1//1 2//1 3//1
f 1//2 3//2 4//2
f 5//3 4//3 6//3
f 5//4 1//4 4//4
f 7//5 6//5 8//5
f 7//6 8//6 9//6
f 7//7 5//7 6//7
f 10//8 7//8 9//8
f 11//9 10//9 9//9
f 11//10 9//10 12//10
f 11//11 12//11 13//11
f 14//12 11//12 13//12
f 15//13 14//13 13//13
f 15//14 13//14 16//14
f 15//15 16//15 17//15
f 18//16 15//16 17//16
f 19//17 18//17 17//17
f 19//18 17//18 20//18
f 19//19 20//19 21//19
f 22//20 19//20 21//20
f 23//21 22//21 21//21
f 23//22 21//22 24//22
f 25//23 23//23 24//23
f 25//24 24//24 26//24
f 25//25 26//25 27//25
f 28//26 25//26 27//26
f 29//27 28//27 27//27
f 29//28 27//28 30//28
f 31//29 29//29 30//29
f 31//30 30//30 32//30
f 31//31 32//31 33//31
f 34//32 31//32 33//32
f 35//33 34//33 33//33
f 35//34 33//34 36//34
f 37//35 36//35 38//35
f 37//36 35//36 36//36
f 37//37 38//37 39//37
f 40//38 39//38 41//38
f 40//39 37//39 39//39
f 42//40 40//40 41//40
f 43//41 41//41 44//41
f 43//42 44//42 45//42
f 43//43 42//43 41//43
f 46//44 43//44 45//44
f 47//45 45//45 48//45
f 47//46 48//46 49//46
f 47//47 46//47 45//47
f 50//48 47//48 49//48
f 51//49 49//49 52//49
f 51//50 50//50 49//50
f 53//51 52//51 54//51
f 53//52 54//52 55//52
f 53//53 51//53 52//53
f 56//54 53//54 55//54
f 57//55 55//55 58//55
f 57//56 56//56 55//56
f 59//57 57//57 58//57
f 59//58 58//58 60//58
f 61//59 59//59 60//59
f 61//60 60//60 62//60
f 63//61 61//61 62//61
f 63//62 62//62 64//62
f 63//63 64//63 65//63
f 66//64 65//64 67//64
f 66//65 63//65 65//65
f 68//66 66//66 67//66
f 69//67 68//67 67//67
f 69//68 67//68 70//68
f 69//69 70//69 71//69
f 72//70 69//70 71//70
f 72//71 71//71 73//71
f 74//72 72//72 73//72
f 74//73 73//73 75//73
f 76//74 74//74 75//74
f 77//75 76//75 75//75
f 77//76 75//76 78//76
f 79//77 77//77 78//77
f 79//78 78//78 80//78
f 79//79 80//79 81//79
f 82//80 79//80 81//80
f 2//81 82//81 81//81
f 2//82 81//82 3//82
f 54//83 83//83 84//83
f 54//84 84//84 85//84
f 52//85 83//85 54//85
f 52//86 86//86 83//86
f 55//87 54//87 85//87
f 55//88 85//88 87//88
f 49//89 88//89 86//89
f 49//90 86//90 52//90
f 58//91 55//91 87//91
f 58//92 87//92 89//92
f 48//93 90//93 91//93
f 48//94 91//94 88//94
f 48//95 88//95 49//95
f 60//96 58//96 89//96
f 60//97 89//97 92//97
f 60//98 92//98 93//98
f 45//99 90//99 48//99
f 45//100 94//100 90//100
f 62//101 60//101 93//101
f 62//102 93//102 95//102
f 44//103 94//103 45//103
f 44//104 96//104 97//104
f 44//105 97//105 94//105
f 64//106 95//106 98//106
f 64//107 62//107 95//107
f 41//108 99//108 96//108
f 41//109 96//109 44//109
f 65//110 98//110 100//110
f 65//111 100//111 101//111
f 65//112 64//112 98//112
f 39//113 102//113 99//113
f 39//114 99//114 41//114
f 67//115 65//115 101//115
f 67//116 101//116 103//116
f 38//117 104//117 105//117
f 38//118 105//118 102//118
f 38//119 102//119 39//119
f 70//120 103//120 106//120
f 70//121 67//121 103//121
f 36//122 107//122 104//122
f 36//123 104//123 38//123
f 71//124 106//124 108//124
f 71//125 70//125 106//125
f 33//126 107//126 36//126
f 109//127 107//127 33//127
f 110//128 71//128 108//128
f 73//129 71//129 110//129
f 32//130 109//130 33//130
f 111//131 109//131 32//131
f 112//132 73//132 110//132
f 112//133 75//133 73//133
f 113//134 111//134 32//134
f 113//135 32//135 30//135
f 114//136 75//136 112//136
f 114//137 78//137 75//137
f 115//138 113//138 30//138
f 115//139 30//139 27//139
f 116//140 78//140 114//140
f 117//141 115//141 27//141
f 117//142 27//142 26//142
f 118//143 78//143 116//143
f 118//144 80//144 78//144
f 119//145 117//145 26//145
f 120//146 80//146 118//146
f 120//147 81//147 80//147
f 121//148 119//148 26//148
f 121//149 26//149 24//149
f 122//150 81//150 120//150
f 122//151 3//151 81//151
f 123//152 121//152 24//152
f 123//153 24//153 21//153
f 124//154 3//154 122//154
f 125//155 123//155 21//155
f 125//156 21//156 20//156
f 126//157 3//157 124//157
f 126//158 4//158 3//158
f 127//159 125//159 20//159
f 128//160 6//160 4//160
f 128//161 4//161 126//161
f 129//162 20//162 17//162
f 129//163 127//163 20//163
f 130//164 8//164 6//164
f 130//165 6//165 128//165
f 131//166 129//166 17//166
f 131//167 17//167 16//167
f 132//168 8//168 130//168
f 133//169 131//169 16//169
f 133//170 16//170 13//170
f 134//171 9//171 8//171
f 134//172 8//172 132//172
f 135//173 133//173 13//173
f 136//174 9//174 134//174
f 136//175 12//175 9//175
f 137//176 13//176 12//176
f 137//177 135//177 13//177
f 137//178 12//178 136//178
f 126//179 138//179 139//179
f 126//180 124//180 138//180
f 128//181 139//181 140//181
f 128//182 140//182 141//182
f 128//183 126//183 139//183
f 130//184 128//184 141//184
f 132//185 141//185 142//185
f 132//186 130//186 141//186
f 134//187 142//187 143//187
f 134//188 143//188 144//188
f 134//189 132//189 142//189
f 136//190 134//190 144//190
f 137//191 144//191 145//191
f 137//192 136//192 144//192
f 135//193 145//193 146//193
f 135//194 146//194 147//194
f 135//195 137//195 145//195
f 133//196 135//196 147//196
f 131//197 147//197 148//197
f 131//198 148//198 149//198
f 131//199 133//199 147//199
f 129//200 149//200 150//200
f 129//201 131//201 149//201
f 127//202 129//202 150//202
f 125//203 150//203 151//203
f 125//204 127//204 150//204
f 123//205 151//205 152//205
f 123//206 152//206 153//206
f 123//207 125//207 151//207
f 121//208 153//208 154//208
f 121//209 123//209 153//209
f 119//210 121//210 154//210
f 117//211 154//211 155//211
f 117//212 155//212 156//212
f 117//213 119//213 154//213
f 115//214 117//214 156//214
f 113//215 156//215 157//215
f 113//216 115//216 156//216
f 111//217 157//217 158//217
f 111//218 113//218 157//218
f 109//219 158//219 159//219
f 109//220 111//220 158//220
f 107//221 109//221 159//221
f 107//222 159//222 160//222
f 104//223 107//223 160//223
f 104//224 160//224 161//224
f 105//225 104//225 161//225
f 105//226 161//226 162//226
f 105//227 162//227 163//227
f 102//228 105//228 163//228
f 99//229 102//229 163//229
f 99//230 163//230 164//230
f 99//231 164//231 165//231
f 96//232 99//232 165//232
f 97//233 96//233 165//233
f 97//234 165//234 166//234
f 94//235 166//235 167//235
f 94//236 97//236 166//236
f 90//237 167//237 168//237
f 90//238 168//238 169//238
f 90//239 94//239 167//239
f 91//240 90//240 169//240
f 88//241 169//241 170//241
f 88//242 170//242 171//242
f 88//243 91//243 169//243
f 86//244 171//244 172//244
f 86//245 88//245 171//245
f 83//246 86//246 172//246
f 84//247 172//247 173//247
f 84//248 173//248 174//248
f 84//249 83//249 172//249
f 85//250 84//250 174//250
f 87//251 174//251 175//251
f 87//252 85//252 174//252
f 89//253 175//253 176//253
f 89//254 87//254 175//254
f 92//255 176//255 177//255
f 92//256 177//256 178//256
f 92//257 89//257 176//257
f 93//258 92//258 178//258
f 95//259 178//259 179//259
f 95//260 93//260 178//260
f 98//261 179//261 180//261
f 98//262 180//262 181//262
f 98//263 95//263 179//263
f 100//264 98//264 181//264
f 101//265 181//265 182//265
f 101//266 100//266 181//266
f 103//267 182//267 183//267
f 103//268 101//268 182//268
f 106//269 183//269 184//269
f 106//270 103//270 183//270
f 108//271 106//271 184//271
f 108//272 184//272 185//272
f 108//273 185//273 186//273
f 110//274 108//274 186//274
f 112//275 110//275 186//275
f 112//276 186//276 187//276
f 114//277 112//277 187//277
f 114//278 187//278 188//278
f 116//279 114//279 188//279
f 116//280 188//280 189//280
f 118//281 116//281 189//281
f 118//282 189//282 190//282
f 120//283 118//283 190//283
f 120//284 190//284 191//284
f 120//285 191//285 192//285
f 122//286 120//286 192//286
f 124//287 122//287 192//287
f 124//288 192//288 138//288
f 172//289 193//289 194//289
f 173//290 194//290 195//290
f 173//291 195//291 196//291
f 173//292 172//292 194//292
f 171//293 197//293 193//293
f 171//294 193//294 172//294
f 174//295 196//295 198//295
f 174//296 173//296 196//296
f 170//297 199//297 197//297
f 170//298 197//298 171//298
f 175//299 198//299 200//299
f 175//300 174//300 198//300
f 169//301 201//301 202//301
f 169//302 202//302 199//302
f 169//303 199//303 170//303
f 176//304 175//304 200//304
f 176//305 200//305 203//305
f 168//306 204//306 201//306
f 168//307 201//307 169//307
f 177//308 203//308 205//308
f 177//309 205//309 206//309
f 177//310 176//310 203//310
f 167//311 207//311 204//311
f 167//312 204//312 168//312
f 178//313 177//313 206//313
f 178//314 206//314 208//314
f 166//315 209//315 207//315
f 166//316 207//316 167//316
f 179//317 208//317 210//317
f 179//318 178//318 208//318
f 165//319 211//319 212//319
f 165//320 212//320 209//320
f 165//321 209//321 166//321
f 180//322 210//322 213//322
f 180//323 179//323 210//323
f 164//324 214//324 211//324
f 164//325 211//325 165//325
f 181//326 180//326 213//326
f 181//327 213//327 215//327
f 181//328 215//328 216//328
f 163//329 214//329 164//329
f 163//330 217//330 214//330
f 182//331 216//331 218//331
f 182//332 181//332 216//332
f 162//333 217//333 163//333
f 162//334 219//334 220//334
f 162//335 220//335 217//335
f 183//336 182//336 218//336
f 183//337 218//337 221//337
f 161//338 219//338 162//338
f 161//339 222//339 219//339
f 184//340 183//340 221//340
f 184//341 221//341 223//341
f 160//342 224//342 222//342
f 160//343 222//343 161//343
f 185//344 184//344 223//344
f 185//345 223//345 225//345
f 226//346 185//346 225//346
f 159//347 224//347 160//347
f 227//348 224//348 159//348
f 186//349 185//349 226//349
f 158//350 227//350 159//350
f 228//351 186//351 226//351
f 187//352 186//352 228//352
f 229//353 227//353 158//353
f 230//354 188//354 187//354
f 230//355 187//355 228//355
f 231//356 229//356 158//356
f 231//357 158//357 157//357
f 232//358 189//358 188//358
f 232//359 188//359 230//359
f 233//360 231//360 157//360
f 233//361 157//361 156//361
f 234//362 189//362 232//362
f 235//363 233//363 156//363
f 235//364 156//364 155//364
f 236//365 190//365 189//365
f 236//366 189//366 234//366
f 237//367 155//367 154//367
f 237//368 235//368 155//368
f 238//369 191//369 190//369
f 238//370 190//370 236//370
f 239//371 237//371 154//371
f 240//372 192//372 191//372
f 240//373 191//373 238//373
f 241//374 239//374 154//374
f 241//375 154//375 153//375
f 242//376 192//376 240//376
f 242//377 138//377 192//377
f 243//378 241//378 153//378
f 243//379 153//379 152//379
f 244//380 138//380 242//380
f 245//381 243//381 152//381
f 245//382 152//382 151//382
f 246//383 138//383 244//383
f 246//384 139//384 138//384
f 247//385 245//385 151//385
f 247//386 151//386 150//386
f 248//387 139//387 246//387
f 248//388 140//388 139//388
f 249//389 247//389 150//389
f 250//390 140//390 248//390
f 250//391 141//391 140//391
f 251//392 249//392 150//392
f 251//393 150//393 149//393
f 252//394 141//394 250//394
f 252//395 142//395 141//395
f 253//396 251//396 149//396
f 253//397 149//397 148//397
f 254//398 142//398 252//398
f 255//399 253//399 148//399
f 255//400 148//400 147//400
f 256//401 142//401 254//401
f 256//402 143//402 142//402
f 257//403 255//403 147//403
f 257//404 147//404 146//404
f 258//405 143//405 256//405
f 258//406 144//406 143//406
f 259//407 257//407 146//407
f 260//408 144//408 258//408
f 260//409 145//409 144//409
f 261//410 259//410 146//410
f 261//411 145//411 260//411
f 261//412 146//412 145//412
f 246//413 262//413 263//413
f 246//414 244//414 262//414
f 248//415 263//415 264//415
f 248//416 246//416 263//416
f 250//417 264//417 265//417
f 250//418 248//418 264//418
f 252//419 265//419 266//419
f 252//420 250//420 265//420
f 254//421 266//421 267//421
f 254//422 252//422 266//422
f 256//423 267//423 268//423
f 256//424 254//424 267//424
f 258//425 268//425 269//425
f 258//426 256//426 268//426
f 260//427 269//427 270//427
f 260//428 258//428 269//428
f 261//429 270//429 271//429
f 261//430 271//430 272//430
f 261//431 260//431 270//431
f 259//432 261//432 272//432
f 257//433 272//433 273//433
f 257//434 259//434 272//434
f 255//435 273//435 274//435
f 255//436 257//436 273//436
f 253//437 274//437 275//437
f 253//438 275//438 276//438
f 253//439 255//439 274//439
f 251//440 276//440 277//440
f 251//441 253//441 276//441
f 249//442 251//442 277//442
f 247//443 249//443 277//443
f 247//444 277//444 278//444
f 247//445 278//445 279//445
f 245//446 247//446 279//446
f 245//447 279//447 280//447
f 243//448 245//448 280//448
f 241//449 280//449 281//449
f 241//450 243//450 280//450
f 241//451 281//451 282//451
f 239//452 241//452 282//452
f 237//453 282//453 283//453
f 237//454 239//454 282//454
f 235//455 283//455 284//455
f 235//456 237//456 283//456
f 233//457 284//457 285//457
f 233//458 235//458 284//458
f 231//459 285//459 286//459
f 231//460 286//460 287//460
f 231//461 233//461 285//461
f 229//462 231//462 287//462
f 227//463 287//463 288//463
f 227//464 229//464 287//464
f 224//465 288//465 289//465
f 224//466 227//466 288//466
f 222//467 289//467 290//467
f 222//468 290//468 291//468
f 222//469 224//469 289//469
f 219//470 222//470 291//470
f 220//471 291//471 292//471
f 220//472 219//472 291//472
f 217//473 292//473 293//473
f 217//474 293//474 294//474
f 217//475 220//475 292//475
f 214//476 217//476 294//476
f 211//477 294//477 295//477
f 211//478 295//478 296//478
f 211//479 214//479 294//479
f 212//480 296//480 297//480
f 212//481 211//481 296//481
f 209//482 212//482 297//482
f 207//483 297//483 298//483
f 207//484 209//484 297//484
f 204//485 298//485 299//485
f 204//486 299//486 300//486
f 204//487 207//487 298//487
f 201//488 204//488 300//488
f 202//489 300//489 301//489
f 202//490 301//490 302//490
f 202//491 201//491 300//491
f 199//492 202//492 302//492
f 197//493 199//493 302//493
f 197//494 302//494 303//494
f 193//495 197//495 303//495
f 193//496 303//496 304//496
f 194//497 193//497 304//497
f 194//498 304//498 305//498
f 195//499 194//499 305//499
f 195//500 305//500 306//500
f 195//501 306//501 307//501
f 196//502 195//502 307//502
f 198//503 196//503 307//503
f 198//504 307//504 308//504
f 200//505 198//505 308//505
f 200//506 308//506 309//506
f 200//507 309//507 310//507
f 203//508 200//508 310//508
f 203//509 310//509 311//509
f 205//510 203//510 311//510
f 206//511 205//511 311//511
f 206//512 311//512 312//512
f 208//513 206//513 312//513
f 208//514 312//514 313//514
f 210//515 208//515 313//515
f 210//516 313//516 314//516
f 210//517 314//517 315//517
f 213//518 210//518 315//518
f 215//519 315//519 316//519
f 215//520 213//520 315//520
f 216//521 316//521 317//521
f 216//522 215//522 316//522
f 218//523 317//523 318//523
f 218//524 318//524 319//524
f 218//525 216//525 317//525
f 221//526 218//526 319//526
f 223//527 319//527 320//527
f 223//528 320//528 321//528
f 223//529 221//529 319//529
f 225//530 223//530 321//530
f 226//531 321//531 322//531
f 226//532 225//532 321//532
f 228//533 322//533 323//533
f 228//534 226//534 322//534
f 230//535 323//535 324//535
f 230//536 228//536 323//536
f 232//537 324//537 325//537
f 232//538 230//538 324//538
f 234//539 325//539 326//539
f 234//540 232//540 325//540
f 236//541 234//541 326//541
f 236//542 326//542 327//542
f 236//543 327//543 328//543
f 238//544 236//544 328//544
f 238//545 328//545 329//545
f 240//546 238//546 329//546
f 242//547 240//547 329//547
f 242//548 329//548 330//548
f 244//549 242//549 330//549
f 244//550 330//550 262//550
f 305//551 331//551 332//551
f 306//552 332//552 333//552
f 306//553 305//553 332//553
f 304//554 334//554 331//554
f 304//555 331//555 305//555
f 307//556 333//556 335//556
f 307//557 306//557 333//557
f 303//558 336//558 334//558
f 303//559 334//559 304//559
f 308//560 335//560 337//560
f 308//561 307//561 335//561
f 302//562 338//562 336//562
f 302//563 336//563 303//563
f 309//564 337//564 339//564
f 309//565 308//565 337//565
f 301//566 340//566 338//566
f 301//567 338//567 302//567
f 310//568 339//568 341//568
f 310//569 309//569 339//569
f 300//570 342//570 340//570
f 300//571 340//571 301//571
f 311//572 341//572 343//572
f 311//573 310//573 341//573
f 299//574 344//574 342//574
f 299//575 342//575 300//575
f 312//576 343//576 345//576
f 312//577 311//577 343//577
f 298//578 346//578 344//578
f 298//579 344//579 299//579
f 313//580 312//580 345//580
f 347//581 313//581 345//581
f 297//582 348//582 346//582
f 297//583 346//583 298//583
f 314//584 313//584 347//584
f 349//585 314//585 347//585
f 296//586 350//586 348//586
f 296//587 348//587 297//587
f 351//588 350//588 296//588
f 315//589 314//589 349//589
f 352//590 315//590 349//590
f 295//591 351//591 296//591
f 353//592 351//592 295//592
f 316//593 315//593 352//593
f 354//594 316//594 352//594
f 294//595 353//595 295//595
f 355//596 353//596 294//596
f 317//597 316//597 354//597
f 356//598 317//598 354//598
f 293//599 355//599 294//599
f 357//600 355//600 293//600
f 318//601 317//601 356//601
f 358//602 318//602 356//602
f 292//603 357//603 293//603
f 359//604 357//604 292//604
f 319//605 318//605 358//605
f 360//606 319//606 358//606
f 291//607 359//607 292//607
f 361//608 359//608 291//608
f 320//609 319//609 360//609
f 362//610 320//610 360//610
f 290//611 361//611 291//611
f 363//612 361//612 290//612
f 321//613 320//613 362//613
f 364//614 321//614 362//614
f 289//615 363//615 290//615
f 365//616 363//616 289//616
f 322//617 321//617 364//617
f 366//618 322//618 364//618
f 288//619 365//619 289//619
f 323//620 322//620 366//620
f 367//621 365//621 288//621
f 287//622 367//622 288//622
f 368//623 323//623 366//623
f 324//624 323//624 368//624
f 369//625 367//625 287//625
f 286//626 369//626 287//626
f 370//627 324//627 368//627
f 325//628 324//628 370//628
f 371//629 369//629 286//629
f 285//630 371//630 286//630
f 372//631 325//631 370//631
f 326//632 325//632 372//632
f 373//633 371//633 285//633
f 284//634 373//634 285//634
f 374//635 326//635 372//635
f 327//636 326//636 374//636
f 375//637 373//637 284//637
f 283//638 375//638 284//638
f 376//639 327//639 374//639
f 328//640 327//640 376//640
f 377//641 375//641 283//641
f 282//642 377//642 283//642
f 378//643 328//643 376//643
f 329//644 328//644 378//644
f 379//645 377//645 282//645
f 281//646 379//646 282//646
f 380//647 329//647 378//647
f 330//648 329//648 380//648
f 381//649 379//649 281//649
f 280//650 381//650 281//650
f 382//651 330//651 380//651
f 262//652 330//652 382//652
f 383//653 381//653 280//653
f 279//654 383//654 280//654
f 384//655 262//655 382//655
f 385//656 383//656 279//656
f 385//657 279//657 278//657
f 386//658 262//658 384//658
f 386//659 263//659 262//659
f 387//660 385//660 278//660
f 387//661 278//661 277//661
f 388//662 263//662 386//662
f 388//663 264//663 263//663
f 389//664 387//664 277//664
f 389//665 277//665 276//665
f 390//666 264//666 388//666
f 390//667 265//667 264//667
f 391//668 389//668 276//668
f 391//669 276//669 275//669
f 392//670 266//670 265//670
f 392//671 265//671 390//671
f 393//672 275//672 274//672
f 393//673 391//673 275//673
f 394//674 266//674 392//674
f 394//675 267//675 266//675
f 395//676 274//676 273//676
f 395//677 393//677 274//677
f 396//678 268//678 267//678
f 396//679 267//679 394//679
f 397//680 273//680 272//680
f 397//681 395//681 273//681
f 398//682 268//682 396//682
f 398//683 269//683 268//683
f 399//684 397//684 272//684
f 399//685 272//685 271//685
f 400//686 270//686 269//686
f 400//687 269//687 398//687
f 401//688 399//688 271//688
f 401//689 270//689 400//689
f 401//690 271//690 270//690
f 386//691 402//691 403//691
f 386//692 384//692 402//692
f 388//693 403//693 404//693
f 388//694 386//694 403//694
f 390//695 404//695 405//695
f 390//696 388//696 404//696
f 392//697 405//697 406//697
f 392//698 390//698 405//698
f 394//699 406//699 407//699
f 394//700 392//700 406//700
f 396//701 407//701 408//701
f 396//702 408//702 409//702
f 396//703 394//703 407//703
f 398//704 396//704 409//704
f 400//705 409//705 410//705
f 400//706 398//706 409//706
f 401//707 410//707 411//707
f 401//708 400//708 410//708
f 399//709 411//709 412//709
f 399//710 401//710 411//710
f 397//711 412//711 413//711
f 397//712 399//712 412//712
f 395//713 413//713 414//713
f 395//714 414//714 415//714
f 395//715 397//715 413//715
f 393//716 415//716 416//716
f 393//717 395//717 415//717
f 391//718 393//718 416//718
f 389//719 391//719 416//719
f 389//720 416//720 417//720
f 387//721 389//721 417//721
f 387//722 417//722 418//722
f 385//723 387//723 418//723
f 385//724 418//724 419//724
f 385//725 419//725 420//725
f 383//726 385//726 420//726
f 381//727 420//727 421//727
f 381//728 383//728 420//728
f 379//729 381//729 421//729
f 379//730 421//730 422//730
f 377//731 422//731 423//731
f 377//732 379//732 422//732
f 375//733 423//733 424//733
f 375//734 377//734 423//734
f 373//735 424//735 425//735
f 373//736 425//736 426//736
f 373//737 375//737 424//737
f 371//738 373//738 426//738
f 369//739 426//739 427//739
f 369//740 427//740 428//740
f 369//741 371//741 426//741
f 367//742 369//742 428//742
f 365//743 428//743 429//743
f 365//744 429//744 430//744
f 365//745 367//745 428//745
f 363//746 365//746 430//746
f 361//747 430//747 431//747
f 361//748 363//748 430//748
f 359//749 431//749 432//749
f 359//750 361//750 431//750
f 357//751 432//751 433//751
f 357//752 359//752 432//752
f 355//753 433//753 434//753
f 355//754 434//754 435//754
f 355//755 357//755 433//755
f 353//756 355//756 435//756
f 351//757 435//757 436//757
f 351//758 436//758 437//758
f 351//759 353//759 435//759
f 350//760 437//760 438//760
f 350//761 351//761 437//761
f 348//762 350//762 438//762
f 346//763 438//763 439//763
f 346//764 348//764 438//764
f 344//765 439//765 440//765
f 344//766 440//766 441//766
f 344//767 346//767 439//767
f 342//768 344//768 441//768
f 340//769 342//769 441//769
f 340//770 441//770 442//770
f 338//771 340//771 442//771
f 338//772 442//772 443//772
f 336//773 338//773 443//773
f 336//774 443//774 444//774
f 334//775 336//775 444//775
f 334//776 444//776 445//776
f 331//777 334//777 445//777
f 331//778 445//778 446//778
f 332//779 331//779 446//779
f 332//780 446//780 447//780
f 333//781 332//781 447//781
f 333//782 447//782 448//782
f 333//783 448//783 449//783
f 335//784 333//784 449//784
f 337//785 335//785 449//785
f 337//786 449//786 450//786
f 337//787 450//787 451//787
f 339//788 337//788 451//788
f 339//789 451//789 452//789
f 341//790 339//790 452//790
f 341//791 452//791 453//791
f 343//792 341//792 453//792
f 343//793 453//793 454//793
f 345//794 343//794 454//794
f 347//795 454//795 455//795
f 347//796 345//796 454//796
f 349//797 455//797 456//797
f 349//798 347//798 455//798
f 352//799 456//799 457//799
f 352//800 349//800 456//800
f 354//801 457//801 458//801
f 354//802 352//802 457//802
f 356//803 458//803 459//803
f 356//804 354//804 458//804
f 358//805 459//805 460//805
f 358//806 460//806 461//806
f 358//807 356//807 459//807
f 360//808 358//808 461//808
f 362//809 461//809 462//809
f 362//810 360//810 461//810
f 364//811 462//811 463//811
f 364//812 463//812 464//812
f 364//813 362//813 462//813
f 366//814 364//814 464//814
f 368//815 464//815 465//815
f 368//816 366//816 464//816
f 370//817 368//817 465//817
f 370//818 465//818 466//818
f 372//819 370//819 466//819
f 372//820 466//820 467//820
f 372//821 467//821 468//821
f 374//822 372//822 468//822
f 376//823 374//823 468//823
f 376//824 468//824 469//824
f 378//825 376//825 469//825
f 378//826 469//826 470//826
f 380//827 378//827 470//827
f 380//828 470//828 471//828
f 382//829 380//829 471//829
f 382//830 471//830 472//830
f 384//831 382//831 472//831
f 384//832 472//832 402//832
f 473//833 465//833 464//833
f 474//834 473//834 464//834
f 474//835 463//835 462//835
f 474//836 464//836 463//836
f 475//837 465//837 473//837
f 475//838 466//838 465//838
f 475//839 467//839 466//839
f 476//840 462//840 461//840
f 476//841 474//841 462//841
f 477//842 467//842 475//842
f 477//843 468//843 467//843
f 478//844 476//844 461//844
f 478//845 461//845 460//845
f 479//846 468//846 477//846
f 479//847 469//847 468//847
f 480//848 478//848 460//848
f 480//849 459//849 458//849
f 480//850 460//850 459//850
f 481//851 470//851 469//851
f 481//852 471//852 470//852
f 481//853 469//853 479//853
f 482//854 480//854 458//854
f 482//855 458//855 457//855
f 483//856 472//856 471//856
f 483//857 471//857 481//857
f 484//858 456//858 455//858
f 484//859 457//859 456//859
f 484//860 482//860 457//860
f 485//861 403//861 402//861
f 485//862 402//862 472//862
f 485//863 472//863 483//863
f 486//864 455//864 454//864
f 486//865 484//865 455//865
f 487//866 404//866 403//866
f 487//867 403//867 485//867
f 488//868 486//868 454//868
f 488//869 453//869 452//869
f 488//870 454//870 453//870
f 489//871 405//871 404//871
f 489//872 406//872 405//872
f 489//873 404//873 487//873
f 490//874 452//874 451//874
f 490//875 488//875 452//875
f 491//876 407//876 406//876
f 491//877 406//877 489//877
f 492//878 451//878 450//878
f 492//879 490//879 451//879
f 493//880 408//880 407//880
f 493//881 407//881 491//881
f 494//882 492//882 450//882
f 494//883 449//883 448//883
f 494//884 450//884 449//884
f 495//885 409//885 408//885
f 495//886 408//886 493//886
f 410//887 409//887 495//887
f 496//888 494//888 448//888
f 496//889 448//889 447//889
f 497//890 410//890 495//890
f 411//891 410//891 497//891
f 498//892 496//892 447//892
f 446//893 498//893 447//893
f 499//894 411//894 497//894
f 412//895 411//895 499//895
f 445//896 500//896 498//896
f 445//897 498//897 446//897
f 413//898 412//898 499//898
f 413//899 499//899 501//899
f 444//900 502//900 500//900
f 444//901 500//901 445//901
f 414//902 413//902 501//902
f 414//903 501//903 503//903
f 443//904 502//904 444//904
f 415//905 414//905 503//905
f 415//906 503//906 504//906
f 442//907 502//907 443//907
f 442//908 505//908 502//908
f 416//909 415//909 504//909
f 441//910 505//910 442//910
f 441//911 506//911 505//911
f 417//912 504//912 507//912
f 417//913 416//913 504//913
f 440//914 506//914 441//914
f 440//915 508//915 506//915
f 418//916 507//916 509//916
f 418//917 417//917 507//917
f 439//918 508//918 440//918
f 419//919 418//919 509//919
f 438//920 508//920 439//920
f 438//921 510//921 508//921
f 420//922 419//922 509//922
f 420//923 509//923 511//923
f 437//924 510//924 438//924
f 437//925 512//925 510//925
f 421//926 420//926 511//926
f 421//927 511//927 513//927
f 436//928 512//928 437//928
f 422//929 421//929 513//929
f 435//930 512//930 436//930
f 435//931 514//931 512//931
f 423//932 422//932 513//932
f 423//933 513//933 515//933
f 434//934 514//934 435//934
f 434//935 516//935 514//935
f 424//936 515//936 517//936
f 424//937 423//937 515//937
f 433//938 516//938 434//938
f 433//939 518//939 516//939
f 425//940 424//940 517//940
f 425//941 517//941 519//941
f 432//942 518//942 433//942
f 426//943 425//943 519//943
f 431//944 518//944 432//944
f 431//945 520//945 518//945
f 427//946 426//946 519//946
f 427//947 519//947 521//947
f 430//948 520//948 431//948
f 430//949 522//949 520//949
f 428//950 427//950 521//950
f 428//951 521//951 522//951
f 429//952 522//952 430//952
f 429//953 428//953 522//953
f 487//954 523//954 524//954
f 487//955 485//955 523//955
f 489//956 524//956 525//956
f 489//957 487//957 524//957
f 491//958 525//958 526//958
f 491//959 489//959 525//959
f 493//960 526//960 527//960
f 493//961 527//961 528//961
f 493//962 491//962 526//962
f 495//963 493//963 528//963
f 497//964 528//964 529//964
f 497//965 495//965 528//965
f 499//966 529//966 530//966
f 499//967 497//967 529//967
f 501//968 530//968 531//968
f 501//969 531//969 532//969
f 501//970 499//970 530//970
f 503//971 532//971 533//971
f 503//972 501//972 532//972
f 504//973 533//973 534//973
f 504//974 503//974 533//974
f 507//975 504//975 534//975
f 509//976 534//976 535//976
f 509//977 535//977 536//977
f 509//978 507//978 534//978
f 511//979 536//979 537//979
f 511//980 509//980 536//980
f 513//981 511//981 537//981
f 515//982 537//982 538//982
f 515//983 513//983 537//983
f 517//984 538//984 539//984
f 517//985 539//985 540//985
f 517//986 515//986 538//986
f 519//987 517//987 540//987
f 521//988 540//988 541//988
f 521//989 519//989 540//989
f 522//990 541//990 542//990
f 522//991 542//991 543//991
f 522//992 521//992 541//992
f 520//993 543//993 544//993
f 520//994 522//994 543//994
f 518//995 520//995 544//995
f 516//996 544//996 545//996
f 516//997 545//997 546//997
f 516//998 518//998 544//998
f 514//999 516//999 546//999
f 512//1000 514//1000 546//1000
f 512//1001 546//1001 547//1001
f 510//1002 512//1002 547//1002
f 510//1003 547//1003 548//1003
f 510//1004 548//1004 549//1004
f 508//1005 510//1005 549//1005
f 506//1006 508//1006 549//1006
f 506//1007 549//1007 550//1007
f 506//1008 550//1008 551//1008
f 505//1009 506//1009 551//1009
f 505//1010 551//1010 552//1010
f 502//1011 505//1011 552//1011
f 500//1012 502//1012 552//1012
f 500//1013 552//1013 553//1013
f 498//1014 500//1014 553//1014
f 498//1015 553//1015 554//1015
f 496//1016 554//1016 555//1016
f 496//1017 498//1017 554//1017
f 494//1018 555//1018 556//1018
f 494//1019 556//1019 557//1019
f 494//1020 496//1020 555//1020
f 492//1021 494//1021 557//1021
f 490//1022 557//1022 558//1022
f 490//1023 558//1023 559//1023
f 490//1024 492//1024 557//1024
f 488//1025 559//1025 560//1025
f 488//1026 490//1026 559//1026
f 486//1027 488//1027 560//1027
f 484//1028 560//1028 561//1028
f 484//1029 561//1029 562//1029
f 484//1030 486//1030 560//1030
f 482//1031 484//1031 562//1031
f 480//1032 562//1032 563//1032
f 480//1033 563//1033 564//1033
f 480//1034 482//1034 562//1034
f 478//1035 480//1035 564//1035
f 476//1036 564//1036 565//1036
f 476//1037 565//1037 566//1037
f 476//1038 478//1038 564//1038
f 474//1039 476//1039 566//1039
f 473//1040 566//1040 567//1040
f 473//1041 567//1041 568//1041
f 473//1042 474//1042 566//1042
f 475//1043 473//1043 568//1043
f 477//1044 568//1044 569//1044
f 477//1045 569//1045 570//1045
f 477//1046 475//1046 568//1046
f 479//1047 477//1047 570//1047
f 481//1048 570//1048 571//1048
f 481//1049 571//1049 572//1049
f 481//1050 479//1050 570//1050
f 483//1051 481//1051 572//1051
f 485//1052 572//1052 523//1052
f 485//1053 483//1053 572//1053
f 74//1054 567//1054 566//1054
f 74//1055 568//1055 567//1055
f 72//1056 74//1056 566//1056
f 72//1057 566//1057 565//1057
f 76//1058 568//1058 74//1058
f 76//1059 569//1059 568//1059
f 69//1060 72//1060 565//1060
f 69//1061 565//1061 564//1061
f 77//1062 569//1062 76//1062
f 77//1063 570//1063 569//1063
f 68//1064 69//1064 564//1064
f 68//1065 564//1065 563//1065
f 79//1066 570//1066 77//1066
f 79//1067 571//1067 570//1067
f 66//1068 68//1068 563//1068
f 66//1069 562//1069 561//1069
f 66//1070 563//1070 562//1070
f 82//1071 571//1071 79//1071
f 82//1072 572//1072 571//1072
f 63//1073 66//1073 561//1073
f 63//1074 561//1074 560//1074
f 2//1075 524//1075 523//1075
f 2//1076 572//1076 82//1076
f 2//1077 523//1077 572//1077
f 61//1078 63//1078 560//1078
f 61//1079 560//1079 559//1079
f 1//1080 525//1080 524//1080
f 1//1081 524//1081 2//1081
f 59//1082 61//1082 559//1082
f 59//1083 559//1083 558//1083
f 5//1084 526//1084 525//1084
f 5//1085 525//1085 1//1085
f 57//1086 558//1086 557//1086
f 57//1087 59//1087 558//1087
f 7//1088 527//1088 526//1088
f 7//1089 526//1089 5//1089
f 56//1090 557//1090 556//1090
f 56//1091 57//1091 557//1091
f 10//1092 528//1092 527//1092
f 10//1093 527//1093 7//1093
f 555//1094 56//1094 556//1094
f 53//1095 56//1095 555//1095
f 11//1096 529//1096 528//1096
f 11//1097 528//1097 10//1097
f 554//1098 53//1098 555//1098
f 51//1099 53//1099 554//1099
f 530//1100 11//1100 14//1100
f 530//1101 529//1101 11//1101
f 553//1102 51//1102 554//1102
f 50//1103 51//1103 553//1103
f 531//1104 14//1104 15//1104
f 531//1105 530//1105 14//1105
f 552//1106 47//1106 50//1106
f 552//1107 50//1107 553//1107
f 532//1108 15//1108 18//1108
f 532//1109 531//1109 15//1109
f 551//1110 47//1110 552//1110
f 533//1111 532//1111 18//1111
f 533//1112 18//1112 19//1112
f 550//1113 47//1113 551//1113
f 550//1114 46//1114 47//1114
f 534//1115 533//1115 19//1115
f 549//1116 46//1116 550//1116
f 549//1117 43//1117 46//1117
f 535//1118 534//1118 19//1118
f 535//1119 19//1119 22//1119
f 548//1120 43//1120 549//1120
f 548//1121 42//1121 43//1121
f 536//1122 535//1122 22//1122
f 536//1123 22//1123 23//1123
f 547//1124 42//1124 548//1124
f 547//1125 40//1125 42//1125
f 537//1126 536//1126 23//1126
f 537//1127 23//1127 25//1127
f 546//1128 40//1128 547//1128
f 546//1129 37//1129 40//1129
f 538//1130 537//1130 25//1130
f 538//1131 25//1131 28//1131
f 545//1132 37//1132 546//1132
f 539//1133 538//1133 28//1133
f 539//1134 28//1134 29//1134
f 544//1135 37//1135 545//1135
f 544//1136 35//1136 37//1136
f 540//1137 539//1137 29//1137
f 543//1138 35//1138 544//1138
f 543//1139 34//1139 35//1139
f 541//1140 29//1140 31//1140
f 541//1141 540//1141 29//1141
f 542//1142 31//1142 34//1142
f 542//1143 34//1143 543//1143
f 542//1144 541//1144 31//1144
