# Created by FreeCAD <https://www.freecad.org>
v 0.000000 6.472945 1.595438
v 0.000000 6.666667 0.000000
v 65.000000 6.666667 0.000000
v 65.000000 6.472945 1.595438
v 0.000000 5.903040 3.098155
v 65.000000 5.903040 3.098155
v 0.000000 4.990072 4.420818
v 65.000000 4.990072 4.420818
v 0.000000 3.787098 5.486559
v 65.000000 3.787098 5.486559
v 65.000000 2.364033 6.233442
v 0.000000 2.364033 6.233442
v 0.000000 0.803578 6.618059
v 65.000000 0.803578 6.618059
v 0.000000 -0.803578 6.618059
v 65.000000 -0.803578 6.618059
v 0.000000 -2.364033 6.233442
v 65.000000 -2.364033 6.233442
v 0.000000 -3.787098 5.486559
v 65.000000 -3.787098 5.486559
v 65.000000 -4.990072 4.420818
v 0.000000 -4.990072 4.420818
v 0.000000 -5.903040 3.098155
v 65.000000 -5.903040 3.098155
v 65.000000 -6.472945 1.595438
v 0.000000 -6.472945 1.595438
v 65.000000 -6.666667 0.000000
v 0.000000 -6.666667 0.000000
v 65.000000 -6.472945 -1.595438
v 0.000000 -6.472945 -1.595438
v 65.000000 -5.903040 -3.098155
v 0.000000 -5.903040 -3.098155
v 0.000000 -4.990072 -4.420818
v 65.000000 -4.990072 -4.420818
v 0.000000 -3.787098 -5.486559
v 65.000000 -3.787098 -5.486559
v 65.000000 -2.364033 -6.233442
v 0.000000 -2.364033 -6.233442
v 65.000000 -0.803578 -6.618059
v 0.000000 -0.803578 -6.618059
v 0.000000 0.803578 -6.618059
v 65.000000 0.803578 -6.618059
v 0.000000 2.364033 -6.233442
v 65.000000 2.364033 -6.233442
v 0.000000 3.787098 -5.486559
v 65.000000 3.787098 -5.486559
v 65.000000 4.990072 -4.420818
v 0.000000 4.990072 -4.420818
v 0.000000 5.903040 -3.098155
v 65.000000 5.903040 -3.098155
v 0.000000 6.472945 -1.595438
v 65.000000 6.472945 -1.595438
v 65.000000 -12.677852 -8.016988
v 65.000000 -11.227661 -9.946840
v 65.000000 -9.486681 -11.619075
v 65.000000 -7.500000 -12.990381
v 65.000000 -13.799691 -5.879499
v 65.000000 -5.319073 -14.025244
v 65.000000 -3.000386 -14.696859
v 65.000000 -14.951360 -1.206999
v 65.000000 -14.564127 -3.589735
v 65.000000 -0.603989 -14.987835
v 65.000000 -14.951360 1.206999
v 65.000000 1.808050 -14.890634
v 65.000000 4.173262 -14.407772
v 65.000000 -13.799691 5.879499
v 65.000000 -14.564127 3.589735
v 65.000000 6.430388 -13.551757
v 65.000000 -12.677852 8.016988
v 65.000000 8.520971 -12.344758
v 65.000000 -11.227661 9.946840
v 65.000000 10.390865 -10.818037
v 65.000000 -9.486681 11.619075
v 65.000000 11.991641 -9.011134
v 65.000000 -7.500000 12.990381
v 65.000000 13.281840 -6.970848
v 65.000000 -5.319073 14.025244
v 65.000000 14.228046 -4.750020
v 65.000000 -3.000386 14.696859
v 65.000000 14.805754 -2.406169
v 65.000000 -0.603989 14.987835
v 65.000000 15.000000 0.000000
v 65.000000 1.808050 14.890634
v 65.000000 14.805754 2.406169
v 65.000000 4.173262 14.407772
v 65.000000 14.228046 4.750020
v 65.000000 6.430388 13.551757
v 65.000000 13.281840 6.970848
v 65.000000 8.520971 12.344758
v 65.000000 11.991641 9.011134
v 65.000000 10.390865 10.818037
v 60.000000 15.000000 0.000000
v 60.000000 14.805754 2.406169
v 60.000000 14.228046 4.750020
v 60.000000 13.281840 6.970848
v 60.000000 11.991641 9.011134
v 60.000000 10.390865 10.818037
v 60.000000 8.520971 12.344758
v 60.000000 6.430388 13.551757
v 60.000000 4.173262 14.407772
v 60.000000 1.808050 14.890634
v 60.000000 -0.603989 14.987835
v 60.000000 -3.000386 14.696859
v 60.000000 -5.319073 14.025244
v 60.000000 -7.500000 12.990381
v 60.000000 -9.486681 11.619075
v 60.000000 -11.227661 9.946840
v 60.000000 -12.677852 8.016988
v 60.000000 -13.799691 5.879499
v 60.000000 -14.564127 3.589735
v 60.000000 -14.951360 1.206999
v 60.000000 -14.951360 -1.206999
v 60.000000 -14.564127 -3.589735
v 60.000000 -13.799691 -5.879499
v 60.000000 -12.677852 -8.016988
v 60.000000 -11.227661 -9.946840
v 60.000000 -9.486681 -11.619075
v 60.000000 -7.500000 -12.990381
v 60.000000 -5.319073 -14.025244
v 60.000000 -3.000386 -14.696859
v 60.000000 -0.603989 -14.987835
v 60.000000 1.808050 -14.890634
v 60.000000 4.173262 -14.407772
v 60.000000 6.430388 -13.551757
v 60.000000 8.520971 -12.344758
v 60.000000 10.390865 -10.818037
v 60.000000 11.991641 -9.011134
v 60.000000 13.281840 -6.970848
v 60.000000 14.228046 -4.750020
v 60.000000 14.805754 -2.406169
v 60.000000 -14.246937 -11.001127
v 60.000000 -12.493336 -12.958262
v 60.000000 -10.473460 -14.639215
v 60.000000 -15.696889 -8.809522
v 60.000000 -8.230362 -16.008158
v 60.000000 -16.812290 -6.430156
v 60.000000 -5.811847 -17.035915
v 60.000000 -17.569366 -3.913743
v 60.000000 -3.269463 -17.700583
v 60.000000 -17.951981 -1.313916
v 60.000000 -0.657396 -17.987991
v 60.000000 1.968682 -17.892017
v 60.000000 -17.951981 1.313916
v 60.000000 -17.569366 3.913743
v 60.000000 4.552801 -17.414707
v 60.000000 -16.812290 6.430156
v 60.000000 7.039885 -16.566231
v 60.000000 -15.696889 8.809522
v 60.000000 9.376926 -15.364676
v 60.000000 -14.246937 11.001127
v 60.000000 11.514114 -13.835649
v 60.000000 -12.493336 12.958262
v 60.000000 13.405899 -12.011739
v 60.000000 -10.473460 14.639215
v 60.000000 15.011961 -9.931819
v 60.000000 -8.230362 16.008158
v 60.000000 16.298069 -7.640221
v 60.000000 -5.811847 17.035915
v 60.000000 17.236811 -5.185784
v 60.000000 -3.269463 17.700583
v 60.000000 17.808180 -2.620821
v 60.000000 -0.657396 17.987991
v 60.000000 18.000000 0.000000
v 60.000000 1.968682 17.892017
v 60.000000 17.808180 2.620821
v 60.000000 4.552801 17.414707
v 60.000000 17.236811 5.185784
v 60.000000 7.039885 16.566231
v 60.000000 16.298069 7.640221
v 60.000000 9.376926 15.364676
v 60.000000 15.011961 9.931819
v 60.000000 11.514114 13.835649
v 60.000000 13.405899 12.011739
v 45.000000 18.000000 0.000000
v 45.000000 17.808180 2.620821
v 45.000000 17.236811 5.185784
v 45.000000 16.298069 7.640221
v 45.000000 15.011961 9.931819
v 45.000000 13.405899 12.011739
v 45.000000 11.514114 13.835649
v 45.000000 9.376926 15.364676
v 45.000000 7.039885 16.566231
v 45.000000 4.552801 17.414707
v 45.000000 1.968682 17.892017
v 45.000000 -0.657396 17.987991
v 45.000000 -3.269463 17.700583
v 45.000000 -5.811847 17.035915
v 45.000000 -8.230362 16.008158
v 45.000000 -10.473460 14.639215
v 45.000000 -12.493336 12.958262
v 45.000000 -14.246937 11.001127
v 45.000000 -15.696889 8.809522
v 45.000000 -16.812290 6.430156
v 45.000000 -17.569366 3.913743
v 45.000000 -17.951981 1.313916
v 45.000000 -17.951981 -1.313916
v 45.000000 -17.569366 -3.913743
v 45.000000 -16.812290 -6.430156
v 45.000000 -15.696889 -8.809522
v 45.000000 -14.246937 -11.001127
v 45.000000 -12.493336 -12.958262
v 45.000000 -10.473460 -14.639215
v 45.000000 -8.230362 -16.008158
v 45.000000 -5.811847 -17.035915
v 45.000000 -3.269463 -17.700583
v 45.000000 -0.657396 -17.987991
v 45.000000 1.968682 -17.892017
v 45.000000 4.552801 -17.414707
v 45.000000 7.039885 -16.566231
v 45.000000 9.376926 -15.364676
v 45.000000 11.514114 -13.835649
v 45.000000 13.405899 -12.011739
v 45.000000 15.011961 -9.931819
v 45.000000 16.298069 -7.640221
v 45.000000 17.236811 -5.185784
v 45.000000 17.808180 -2.620821
v 45.000000 -14.386796 -13.893167
v 45.000000 -12.313230 -15.760215
v 45.000000 -16.180340 -11.755705
v 45.000000 -10.000000 -17.320509
v 45.000000 -17.658953 -9.389431
v 45.000000 -7.492132 -18.543676
v 45.000000 -18.793852 -6.840403
v 45.000000 -4.838438 -19.405914
v 45.000000 -19.562952 -4.158234
v 45.000000 -2.090569 -19.890438
v 45.000000 -19.951281 -1.395129
v 45.000000 0.697990 -19.987816
v 45.000000 -19.951281 1.395129
v 45.000000 3.472964 -19.696156
v 45.000000 -19.562952 4.158234
v 45.000000 6.180340 -19.021130
v 45.000000 -18.793852 6.840403
v 45.000000 8.767423 -17.975882
v 45.000000 -17.658953 9.389431
v 45.000000 11.183858 -16.580751
v 45.000000 -16.180340 11.755705
v 45.000000 13.382612 -14.862897
v 45.000000 -14.386796 13.893167
v 45.000000 15.320889 -12.855752
v 45.000000 -12.313230 15.760215
v 45.000000 16.960962 -10.598385
v 45.000000 -10.000000 17.320509
v 45.000000 18.270908 -8.134733
v 45.000000 -7.492132 18.543676
v 45.000000 19.225233 -5.512747
v 45.000000 -4.838438 19.405914
v 45.000000 19.805361 -2.783462
v 45.000000 -2.090569 19.890438
v 45.000000 20.000000 0.000000
v 45.000000 0.697990 19.987816
v 45.000000 19.805361 2.783462
v 45.000000 3.472964 19.696156
v 45.000000 19.225233 5.512747
v 45.000000 6.180340 19.021130
v 45.000000 18.270908 8.134733
v 45.000000 8.767423 17.975882
v 45.000000 16.960962 10.598385
v 45.000000 11.183858 16.580751
v 45.000000 15.320889 12.855752
v 45.000000 13.382612 14.862897
v 25.000000 20.000000 0.000000
v 25.000000 19.805361 2.783462
v 25.000000 19.225233 5.512747
v 25.000000 18.270908 8.134733
v 25.000000 16.960962 10.598385
v 25.000000 15.320889 12.855752
v 25.000000 13.382612 14.862897
v 25.000000 11.183858 16.580751
v 25.000000 8.767423 17.975882
v 25.000000 6.180340 19.021130
v 25.000000 3.472964 19.696156
v 25.000000 0.697990 19.987816
v 25.000000 -2.090569 19.890438
v 25.000000 -4.838438 19.405914
v 25.000000 -7.492132 18.543676
v 25.000000 -10.000000 17.320509
v 25.000000 -12.313230 15.760215
v 25.000000 -14.386796 13.893167
v 25.000000 -16.180340 11.755705
v 25.000000 -17.658953 9.389431
v 25.000000 -18.793852 6.840403
v 25.000000 -19.562952 4.158234
v 25.000000 -19.951281 1.395129
v 25.000000 -19.951281 -1.395129
v 25.000000 -19.562952 -4.158234
v 25.000000 -18.793852 -6.840403
v 25.000000 -17.658953 -9.389431
v 25.000000 -16.180340 -11.755705
v 25.000000 -14.386796 -13.893167
v 25.000000 -12.313230 -15.760215
v 25.000000 -10.000000 -17.320509
v 25.000000 -7.492132 -18.543676
v 25.000000 -4.838438 -19.405914
v 25.000000 -2.090569 -19.890438
v 25.000000 0.697990 -19.987816
v 25.000000 3.472964 -19.696156
v 25.000000 6.180340 -19.021130
v 25.000000 8.767423 -17.975882
v 25.000000 11.183858 -16.580751
v 25.000000 13.382612 -14.862897
v 25.000000 15.320889 -12.855752
v 25.000000 16.960962 -10.598385
v 25.000000 18.270908 -8.134733
v 25.000000 19.225233 -5.512747
v 25.000000 19.805361 -2.783462
v 25.000000 7.071068 -7.071068
v 25.000000 5.555702 -8.314696
v 25.000000 8.314696 -5.555702
v 25.000000 3.826834 -9.238795
v 25.000000 9.238795 -3.826834
v 25.000000 1.950903 -9.807853
v 25.000000 9.807853 -1.950903
v 25.000000 0.000000 -10.000000
v 25.000000 10.000000 0.000000
v 25.000000 -1.950903 -9.807853
v 25.000000 9.807853 1.950903
v 25.000000 -3.826834 -9.238795
v 25.000000 9.238795 3.826834
v 25.000000 -5.555702 -8.314696
v 25.000000 8.314696 5.555702
v 25.000000 -7.071068 -7.071068
v 25.000000 7.071068 7.071068
v 25.000000 5.555702 8.314696
v 25.000000 -8.314696 -5.555702
v 25.000000 -9.238795 -3.826834
v 25.000000 3.826834 9.238795
v 25.000000 -9.807853 -1.950903
v 25.000000 1.950903 9.807853
v 25.000000 -10.000000 -0.000000
v 25.000000 0.000000 10.000000
v 25.000000 -9.807853 1.950903
v 25.000000 -1.950903 9.807853
v 25.000000 -3.826834 9.238795
v 25.000000 -9.238795 3.826834
v 25.000000 -8.314696 5.555702
v 25.000000 -5.555702 8.314696
v 25.000000 -7.071068 7.071068
v 0.000000 10.000000 0.000000
v 0.000000 9.807853 1.950903
v 0.000000 9.238795 3.826834
v 0.000000 8.314696 5.555702
v 0.000000 7.071068 7.071068
v 0.000000 5.555702 8.314696
v 0.000000 3.826834 9.238795
v 0.000000 1.950903 9.807853
v 0.000000 0.000000 10.000000
v 0.000000 -1.950903 9.807853
v 0.000000 -3.826834 9.238795
v 0.000000 -5.555702 8.314696
v 0.000000 -7.071068 7.071068
v 0.000000 -8.314696 5.555702
v 0.000000 -9.238795 3.826834
v 0.000000 -9.807853 1.950903
v 0.000000 -10.000000 -0.000000
v 0.000000 -9.807853 -1.950903
v 0.000000 -9.238795 -3.826834
v 0.000000 -8.314696 -5.555702
v 0.000000 -7.071068 -7.071068
v 0.000000 -5.555702 -8.314696
v 0.000000 -3.826834 -9.238795
v 0.000000 -1.950903 -9.807853
v 0.000000 0.000000 -10.000000
v 0.000000 1.950903 -9.807853
v 0.000000 3.826834 -9.238795
v 0.000000 5.555702 -8.314696
v 0.000000 7.071068 -7.071068
v 0.000000 8.314696 -5.555702
v 0.000000 9.238795 -3.826834
v 0.000000 9.807853 -1.950903
vn 0.000000 -0.992709 -0.120537
vn 0.000000 -0.992709 -0.120537
vn 0.000000 -0.935016 -0.354605
vn 0.000000 -0.935016 -0.354605
vn 0.000000 -0.822984 -0.568065
vn 0.000000 -0.822984 -0.568065
vn 0.000000 -0.663123 -0.748511
vn 0.000000 -0.464723 -0.885456
vn 0.000000 -0.663123 -0.748511
vn 0.000000 -0.464723 -0.885456
vn 0.000000 -0.239316 -0.970942
vn 0.000000 -0.239316 -0.970942
vn 0.000000 0.000000 -1.000000
vn 0.000000 0.000000 -1.000000
vn 0.000000 0.239316 -0.970942
vn 0.000000 0.239316 -0.970942
vn 0.000000 0.464723 -0.885456
vn 0.000000 0.663123 -0.748511
vn 0.000000 0.464723 -0.885456
vn 0.000000 0.663123 -0.748511
vn 0.000000 0.822984 -0.568065
vn 0.000000 0.822984 -0.568065
vn 0.000000 0.935016 -0.354605
vn 0.000000 0.935016 -0.354605
vn 0.000000 0.992709 -0.120537
vn 0.000000 0.992709 -0.120537
vn -0.000000 0.992709 0.120537
vn -0.000000 0.992709 0.120537
vn -0.000000 0.935016 0.354605
vn -0.000000 0.935016 0.354605
vn 0.000000 0.822984 0.568065
vn -0.000000 0.822984 0.568065
vn 0.000000 0.663123 0.748511
vn -0.000000 0.663123 0.748511
vn -0.000000 0.464723 0.885456
vn -0.000000 0.464723 0.885456
vn -0.000000 0.239316 0.970942
vn -0.000000 0.239316 0.970942
vn 0.000000 0.000000 1.000000
vn -0.000000 0.000000 1.000000
vn 0.000000 -0.239316 0.970942
vn 0.000000 -0.239316 0.970942
vn 0.000000 -0.464723 0.885456
vn 0.000000 -0.464723 0.885456
vn 0.000000 -0.663123 0.748511
vn 0.000000 -0.663123 0.748511
vn 0.000000 -0.822984 0.568065
vn 0.000000 -0.822984 0.568065
vn 0.000000 -0.935016 0.354605
vn 0.000000 -0.992709 0.120537
vn 0.000000 -0.935016 0.354605
vn 0.000000 -0.992709 0.120537
vn 1.000000 0.000000 0.000000
vn 1.000000 0.000000 0.000000
vn 1.000000 0.000000 0.000000
vn 1.000000 0.000000 0.000000
vn 1.000000 0.000000 0.000000
vn 1.000000 0.000000 0.000000
vn 1.000000 0.000000 0.000000
vn 1.000000 0.000000 0.000000
vn 1.000000 0.000000 0.000000
vn 1.000000 0.000000 0.000000
vn 1.000000 0.000000 0.000000
vn 1.000000 0.000000 0.000000
vn 1.000000 0.000000 0.000000
vn 1.000000 0.000000 0.000000
vn 1.000000 0.000000 0.000000
vn 1.000000 0.000000 0.000000
vn 1.000000 0.000000 0.000000
vn 1.000000 0.000000 0.000000
vn 1.000000 0.000000 0.000000
vn 1.000000 0.000000 0.000000
vn 1.000000 0.000000 0.000000
vn 1.000000 0.000000 0.000000
vn 1.000000 0.000000 0.000000
vn 1.000000 0.000000 0.000000
vn 1.000000 0.000000 0.000000
vn 1.000000 0.000000 0.000000
vn 1.000000 0.000000 0.000000
vn 1.000000 0.000000 0.000000
vn 1.000000 0.000000 0.000000
vn 1.000000 0.000000 0.000000
vn 1.000000 0.000000 0.000000
vn 1.000000 0.000000 0.000000
vn 1.000000 0.000000 0.000000
vn 1.000000 0.000000 0.000000
vn 1.000000 0.000000 0.000000
vn 1.000000 0.000000 0.000000
vn 1.000000 0.000000 0.000000
vn 1.000000 0.000000 0.000000
vn 1.000000 0.000000 0.000000
vn 1.000000 0.000000 0.000000
vn 1.000000 0.000000 0.000000
vn 1.000000 0.000000 0.000000
vn 1.000000 0.000000 0.000000
vn 1.000000 0.000000 0.000000
vn 1.000000 0.000000 0.000000
vn 1.000000 0.000000 0.000000
vn 1.000000 0.000000 0.000000
vn 1.000000 0.000000 0.000000
vn 1.000000 0.000000 0.000000
vn 1.000000 0.000000 0.000000
vn 1.000000 0.000000 0.000000
vn 1.000000 0.000000 0.000000
vn 1.000000 0.000000 0.000000
vn 1.000000 0.000000 0.000000
vn 1.000000 0.000000 0.000000
vn 1.000000 0.000000 0.000000
vn 1.000000 0.000000 0.000000
vn 1.000000 0.000000 0.000000
vn 1.000000 0.000000 0.000000
vn 1.000000 0.000000 0.000000
vn 1.000000 0.000000 0.000000
vn 1.000000 0.000000 0.000000
vn 1.000000 0.000000 0.000000
vn 1.000000 0.000000 0.000000
vn 1.000000 0.000000 0.000000
vn 0.000000 0.996757 0.080467
vn 0.000000 0.970942 0.239316
vn 0.000000 0.996757 0.080467
vn 0.000000 0.970942 0.239316
vn 0.000000 0.919980 0.391967
vn 0.000000 0.845190 0.534466
vn 0.000000 0.919980 0.391967
vn 0.000000 0.845190 0.534466
vn 0.000000 0.748511 0.663123
vn 0.000000 0.748511 0.663123
vn 0.000000 0.632445 0.774605
vn 0.000000 0.632445 0.774605
vn 0.000000 0.500000 0.866025
vn 0.000000 0.354605 0.935016
vn 0.000000 0.500000 0.866025
vn 0.000000 0.200026 0.979791
vn 0.000000 0.354605 0.935016
vn 0.000000 0.200026 0.979791
vn 0.000000 0.040266 0.999189
vn 0.000000 0.040266 0.999189
vn 0.000000 -0.120537 0.992709
vn 0.000000 -0.120537 0.992709
vn 0.000000 -0.278217 0.960518
vn 0.000000 -0.278217 0.960518
vn 0.000000 -0.428692 0.903450
vn 0.000000 -0.428692 0.903450
vn 0.000000 -0.568065 0.822984
vn 0.000000 -0.568065 0.822984
vn 0.000000 -0.692724 0.721202
vn 0.000000 -0.692724 0.721202
vn 0.000000 -0.799443 0.600742
vn 0.000000 -0.799443 0.600742
vn 0.000000 -0.885456 0.464723
vn 0.000000 -0.948536 0.316668
vn 0.000000 -0.885456 0.464723
vn 0.000000 -0.948536 0.316668
vn 0.000000 -0.987050 0.160411
vn 0.000000 -0.987050 0.160411
vn 0.000000 -1.000000 0.000000
vn 0.000000 -1.000000 0.000000
vn -0.000000 -0.987050 -0.160411
vn -0.000000 -0.948536 -0.316668
vn 0.000000 -0.987050 -0.160411
vn -0.000000 -0.885456 -0.464723
vn -0.000000 -0.948536 -0.316668
vn -0.000000 -0.885456 -0.464723
vn -0.000000 -0.799443 -0.600742
vn 0.000000 -0.799443 -0.600742
vn -0.000000 -0.692724 -0.721202
vn -0.000000 -0.568065 -0.822984
vn 0.000000 -0.692724 -0.721202
vn -0.000000 -0.428692 -0.903450
vn -0.000000 -0.568065 -0.822984
vn -0.000000 -0.428692 -0.903450
vn -0.000000 -0.278217 -0.960518
vn -0.000000 -0.120537 -0.992709
vn 0.000000 -0.278217 -0.960518
vn -0.000000 -0.120537 -0.992709
vn 0.000000 0.040266 -0.999189
vn 0.000000 0.040266 -0.999189
vn 0.000000 0.200026 -0.979791
vn 0.000000 0.200026 -0.979791
vn 0.000000 0.354605 -0.935016
vn 0.000000 0.354605 -0.935016
vn 0.000000 0.500000 -0.866025
vn 0.000000 0.500000 -0.866025
vn 0.000000 0.632445 -0.774605
vn 0.000000 0.632445 -0.774605
vn 0.000000 0.748511 -0.663123
vn 0.000000 0.748511 -0.663123
vn 0.000000 0.845190 -0.534466
vn 0.000000 0.845190 -0.534466
vn 0.000000 0.919980 -0.391967
vn 0.000000 0.919980 -0.391967
vn 0.000000 0.970942 -0.239316
vn 0.000000 0.970942 -0.239316
vn 0.000000 0.996757 -0.080467
vn 0.000000 0.996757 -0.080467
vn 1.000000 0.000000 0.000000
vn 1.000000 0.000000 0.000000
vn 1.000000 0.000000 0.000000
vn 1.000000 0.000000 0.000000
vn 1.000000 0.000000 0.000000
vn 1.000000 0.000000 0.000000
vn 1.000000 0.000000 0.000000
vn 1.000000 0.000000 0.000000
vn 1.000000 0.000000 0.000000
vn 1.000000 0.000000 0.000000
vn 1.000000 0.000000 0.000000
vn 1.000000 0.000000 0.000000
vn 1.000000 0.000000 0.000000
vn 1.000000 0.000000 0.000000
vn 1.000000 0.000000 0.000000
vn 1.000000 0.000000 0.000000
vn 1.000000 0.000000 0.000000
vn 1.000000 0.000000 0.000000
vn 1.000000 0.000000 0.000000
vn 1.000000 0.000000 0.000000
vn 1.000000 0.000000 0.000000
vn 1.000000 0.000000 0.000000
vn 1.000000 0.000000 0.000000
vn 1.000000 0.000000 0.000000
vn 1.000000 0.000000 0.000000
vn 1.000000 0.000000 0.000000
vn 1.000000 0.000000 0.000000
vn 1.000000 0.000000 0.000000
vn 1.000000 0.000000 0.000000
vn 1.000000 0.000000 0.000000
vn 1.000000 0.000000 0.000000
vn 1.000000 0.000000 0.000000
vn 1.000000 0.000000 0.000000
vn 1.000000 0.000000 0.000000
vn 1.000000 0.000000 0.000000
vn 1.000000 0.000000 0.000000
vn 1.000000 0.000000 0.000000
vn 1.000000 0.000000 0.000000
vn 1.000000 0.000000 0.000000
vn 1.000000 0.000000 0.000000
vn 1.000000 0.000000 0.000000
vn 1.000000 0.000000 0.000000
vn 1.000000 0.000000 0.000000
vn 1.000000 0.000000 0.000000
vn 1.000000 0.000000 0.000000
vn 1.000000 0.000000 0.000000
vn 1.000000 0.000000 0.000000
vn 1.000000 0.000000 0.000000
vn 1.000000 0.000000 0.000000
vn 1.000000 0.000000 0.000000
vn 1.000000 0.000000 0.000000
vn 1.000000 0.000000 0.000000
vn 1.000000 0.000000 0.000000
vn 1.000000 0.000000 0.000000
vn 1.000000 0.000000 0.000000
vn 1.000000 0.000000 0.000000
vn 1.000000 0.000000 0.000000
vn 1.000000 0.000000 0.000000
vn 1.000000 0.000000 0.000000
vn 1.000000 0.000000 0.000000
vn 1.000000 0.000000 0.000000
vn 1.000000 0.000000 0.000000
vn 1.000000 0.000000 0.000000
vn 1.000000 0.000000 0.000000
vn 1.000000 0.000000 0.000000
vn 1.000000 0.000000 0.000000
vn 1.000000 0.000000 0.000000
vn 1.000000 0.000000 0.000000
vn 1.000000 0.000000 0.000000
vn 1.000000 0.000000 0.000000
vn 1.000000 0.000000 0.000000
vn 1.000000 0.000000 0.000000
vn 1.000000 0.000000 0.000000
vn 1.000000 0.000000 0.000000
vn 1.000000 0.000000 0.000000
vn 1.000000 0.000000 0.000000
vn 1.000000 0.000000 0.000000
vn 1.000000 0.000000 0.000000
vn 1.000000 0.000000 0.000000
vn 1.000000 0.000000 0.000000
vn 1.000000 0.000000 0.000000
vn 1.000000 0.000000 0.000000
vn 0.000000 0.997332 0.072996
vn 0.000000 0.997332 0.072996
vn 0.000000 0.976076 0.217430
vn 0.000000 0.934016 0.357231
vn 0.000000 0.976076 0.217430
vn 0.000000 0.934016 0.357231
vn 0.000000 0.872049 0.489418
vn 0.000000 0.872049 0.489418
vn 0.000000 0.791496 0.611174
vn 0.000000 0.694074 0.719903
vn 0.000000 0.791496 0.611174
vn 0.000000 0.694074 0.719903
vn 0.000000 0.581859 0.813290
vn 0.000000 0.581859 0.813290
vn 0.000000 0.457242 0.889342
vn 0.000000 0.322881 0.946440
vn 0.000000 0.457242 0.889342
vn 0.000000 0.322881 0.946440
vn 0.000000 0.181637 0.983366
vn 0.000000 0.181637 0.983366
vn 0.000000 0.036522 0.999333
vn 0.000000 0.036522 0.999333
vn 0.000000 -0.109371 0.994001
vn 0.000000 -0.109371 0.994001
vn 0.000000 -0.252934 0.967484
vn 0.000000 -0.252934 0.967484
vn 0.000000 -0.391105 0.920346
vn 0.000000 -0.391105 0.920346
vn 0.000000 -0.520940 0.853593
vn 0.000000 -0.639673 0.768647
vn 0.000000 -0.520940 0.853593
vn 0.000000 -0.639673 0.768647
vn 0.000000 -0.744772 0.667319
vn 0.000000 -0.744772 0.667319
vn 0.000000 -0.833998 0.551768
vn 0.000000 -0.905448 0.424457
vn 0.000000 -0.833998 0.551768
vn 0.000000 -0.905448 0.424457
vn 0.000000 -0.957601 0.288099
vn 0.000000 -0.989343 0.145601
vn 0.000000 -0.957601 0.288099
vn 0.000000 -0.989343 0.145601
vn 0.000000 -1.000000 0.000000
vn 0.000000 -1.000000 0.000000
vn -0.000000 -0.989343 -0.145601
vn 0.000000 -0.989343 -0.145601
vn -0.000000 -0.957601 -0.288099
vn 0.000000 -0.957601 -0.288099
vn -0.000000 -0.905448 -0.424457
vn 0.000000 -0.905448 -0.424457
vn -0.000000 -0.833998 -0.551768
vn 0.000000 -0.833998 -0.551768
vn -0.000000 -0.744772 -0.667319
vn -0.000000 -0.639673 -0.768647
vn 0.000000 -0.744772 -0.667319
vn -0.000000 -0.639673 -0.768647
vn -0.000000 -0.520940 -0.853593
vn -0.000000 -0.520940 -0.853593
vn 0.000000 -0.391105 -0.920346
vn -0.000000 -0.391105 -0.920346
vn 0.000000 -0.252934 -0.967484
vn -0.000000 -0.252934 -0.967484
vn 0.000000 -0.109371 -0.994001
vn -0.000000 -0.109371 -0.994001
vn 0.000000 0.036522 -0.999333
vn 0.000000 0.036522 -0.999333
vn 0.000000 0.181637 -0.983366
vn 0.000000 0.181637 -0.983366
vn 0.000000 0.322881 -0.946440
vn 0.000000 0.322881 -0.946440
vn 0.000000 0.457242 -0.889342
vn 0.000000 0.457242 -0.889342
vn 0.000000 0.581859 -0.813290
vn 0.000000 0.581859 -0.813290
vn 0.000000 0.694074 -0.719903
vn 0.000000 0.694074 -0.719903
vn 0.000000 0.791496 -0.611174
vn 0.000000 0.791496 -0.611174
vn 0.000000 0.872049 -0.489418
vn 0.000000 0.872049 -0.489418
vn 0.000000 0.934016 -0.357231
vn 0.000000 0.934016 -0.357231
vn 0.000000 0.976076 -0.217430
vn 0.000000 0.976076 -0.217430
vn 0.000000 0.997332 -0.072996
vn 0.000000 0.997332 -0.072996
vn 1.000000 0.000000 0.000000
vn 1.000000 0.000000 0.000000
vn 1.000000 0.000000 0.000000
vn 1.000000 0.000000 0.000000
vn 1.000000 0.000000 0.000000
vn 1.000000 0.000000 0.000000
vn 1.000000 0.000000 0.000000
vn 1.000000 0.000000 0.000000
vn 1.000000 0.000000 0.000000
vn 1.000000 0.000000 0.000000
vn 1.000000 0.000000 0.000000
vn 1.000000 0.000000 0.000000
vn 1.000000 0.000000 0.000000
vn 1.000000 0.000000 0.000000
vn 1.000000 0.000000 0.000000
vn 1.000000 0.000000 0.000000
vn 1.000000 0.000000 0.000000
vn 1.000000 0.000000 0.000000
vn 1.000000 0.000000 0.000000
vn 1.000000 0.000000 0.000000
vn 1.000000 0.000000 0.000000
vn 1.000000 0.000000 0.000000
vn 1.000000 0.000000 0.000000
vn 1.000000 0.000000 0.000000
vn 1.000000 0.000000 0.000000
vn 1.000000 0.000000 0.000000
vn 1.000000 0.000000 0.000000
vn 1.000000 0.000000 0.000000
vn 1.000000 0.000000 0.000000
vn 1.000000 0.000000 0.000000
vn 1.000000 0.000000 0.000000
vn 1.000000 0.000000 0.000000
vn 1.000000 0.000000 0.000000
vn 1.000000 0.000000 0.000000
vn 1.000000 0.000000 0.000000
vn 1.000000 0.000000 0.000000
vn 1.000000 0.000000 0.000000
vn 1.000000 0.000000 0.000000
vn 1.000000 0.000000 0.000000
vn 1.000000 0.000000 0.000000
vn 1.000000 0.000000 0.000000
vn 1.000000 0.000000 0.000000
vn 1.000000 0.000000 0.000000
vn 1.000000 0.000000 0.000000
vn 1.000000 0.000000 0.000000
vn 1.000000 0.000000 0.000000
vn 1.000000 0.000000 0.000000
vn 1.000000 0.000000 0.000000
vn 1.000000 0.000000 0.000000
vn 1.000000 0.000000 0.000000
vn 1.000000 0.000000 0.000000
vn 1.000000 0.000000 0.000000
vn 1.000000 0.000000 0.000000
vn 1.000000 0.000000 0.000000
vn 1.000000 0.000000 0.000000
vn 1.000000 0.000000 0.000000
vn 1.000000 0.000000 0.000000
vn 1.000000 0.000000 0.000000
vn 1.000000 0.000000 0.000000
vn 1.000000 0.000000 0.000000
vn 1.000000 0.000000 0.000000
vn 1.000000 0.000000 0.000000
vn 1.000000 0.000000 0.000000
vn 1.000000 0.000000 0.000000
vn 1.000000 0.000000 0.000000
vn 1.000000 0.000000 0.000000
vn 1.000000 0.000000 0.000000
vn 1.000000 0.000000 0.000000
vn 1.000000 0.000000 0.000000
vn 1.000000 0.000000 0.000000
vn 1.000000 0.000000 0.000000
vn 1.000000 0.000000 0.000000
vn 1.000000 0.000000 0.000000
vn 1.000000 0.000000 0.000000
vn 1.000000 0.000000 0.000000
vn 1.000000 0.000000 0.000000
vn 1.000000 0.000000 0.000000
vn 1.000000 0.000000 0.000000
vn 1.000000 0.000000 0.000000
vn 1.000000 0.000000 0.000000
vn 1.000000 0.000000 0.000000
vn 1.000000 0.000000 0.000000
vn 1.000000 0.000000 0.000000
vn 1.000000 0.000000 0.000000
vn 1.000000 0.000000 0.000000
vn 1.000000 0.000000 0.000000
vn 1.000000 0.000000 0.000000
vn 1.000000 0.000000 0.000000
vn 0.000000 0.997564 0.069757
vn 0.000000 0.978148 0.207912
vn 0.000000 0.997564 0.069757
vn 0.000000 0.978148 0.207912
vn 0.000000 0.939693 0.342020
vn 0.000000 0.939693 0.342020
vn 0.000000 0.882948 0.469471
vn 0.000000 0.882948 0.469471
vn 0.000000 0.809017 0.587785
vn 0.000000 0.809017 0.587785
vn 0.000000 0.719340 0.694658
vn 0.000000 0.719340 0.694658
vn 0.000000 0.615661 0.788011
vn 0.000000 0.500000 0.866025
vn 0.000000 0.615661 0.788011
vn 0.000000 0.500000 0.866025
vn 0.000000 0.374606 0.927184
vn 0.000000 0.374606 0.927184
vn 0.000000 0.241922 0.970296
vn 0.000000 0.241922 0.970296
vn 0.000000 0.104528 0.994522
vn 0.000000 0.104528 0.994522
vn 0.000000 -0.034899 0.999391
vn 0.000000 -0.173648 0.984808
vn 0.000000 -0.034899 0.999391
vn 0.000000 -0.173648 0.984808
vn 0.000000 -0.309017 0.951056
vn 0.000000 -0.438371 0.898794
vn 0.000000 -0.309017 0.951056
vn 0.000000 -0.559193 0.829037
vn 0.000000 -0.438371 0.898794
vn 0.000000 -0.669131 0.743145
vn 0.000000 -0.559193 0.829037
vn 0.000000 -0.669131 0.743145
vn 0.000000 -0.766044 0.642788
vn 0.000000 -0.848048 0.529920
vn 0.000000 -0.766044 0.642788
vn 0.000000 -0.848048 0.529920
vn 0.000000 -0.913546 0.406736
vn 0.000000 -0.913546 0.406736
vn 0.000000 -0.961262 0.275638
vn 0.000000 -0.961262 0.275638
vn 0.000000 -0.990268 0.139173
vn 0.000000 -0.990268 0.139173
vn 0.000000 -1.000000 0.000000
vn 0.000000 -1.000000 0.000000
vn -0.000000 -0.990268 -0.139173
vn 0.000000 -0.990268 -0.139173
vn -0.000000 -0.961262 -0.275638
vn 0.000000 -0.961262 -0.275638
vn -0.000000 -0.913546 -0.406736
vn 0.000000 -0.913546 -0.406736
vn 0.000000 -0.848048 -0.529920
vn -0.000000 -0.848048 -0.529920
vn -0.000000 -0.766044 -0.642788
vn -0.000000 -0.766044 -0.642788
vn 0.000000 -0.669131 -0.743145
vn -0.000000 -0.669131 -0.743145
vn 0.000000 -0.559193 -0.829037
vn -0.000000 -0.559193 -0.829037
vn 0.000000 -0.438371 -0.898794
vn -0.000000 -0.438371 -0.898794
vn 0.000000 -0.309017 -0.951056
vn -0.000000 -0.309017 -0.951056
vn 0.000000 -0.173648 -0.984808
vn -0.000000 -0.173648 -0.984808
vn 0.000000 -0.034899 -0.999391
vn -0.000000 -0.034899 -0.999391
vn 0.000000 0.104528 -0.994522
vn 0.000000 0.104528 -0.994522
vn 0.000000 0.241922 -0.970296
vn 0.000000 0.241922 -0.970296
vn 0.000000 0.374606 -0.927184
vn 0.000000 0.374606 -0.927184
vn 0.000000 0.500000 -0.866025
vn 0.000000 0.615661 -0.788011
vn 0.000000 0.500000 -0.866025
vn 0.000000 0.615661 -0.788011
vn 0.000000 0.719340 -0.694658
vn 0.000000 0.719340 -0.694658
vn 0.000000 0.809017 -0.587785
vn 0.000000 0.809017 -0.587785
vn 0.000000 0.882948 -0.469471
vn 0.000000 0.939693 -0.342020
vn 0.000000 0.882948 -0.469471
vn 0.000000 0.939693 -0.342020
vn 0.000000 0.978148 -0.207912
vn 0.000000 0.978148 -0.207912
vn 0.000000 0.997564 -0.069757
vn 0.000000 0.997564 -0.069757
vn -1.000000 0.000000 0.000000
vn -1.000000 0.000000 0.000000
vn -1.000000 0.000000 0.000000
vn -1.000000 0.000000 0.000000
vn -1.000000 0.000000 0.000000
vn -1.000000 0.000000 -0.000000
vn -1.000000 0.000000 0.000000
vn -1.000000 0.000000 0.000000
vn -1.000000 0.000000 -0.000000
vn -1.000000 0.000000 0.000000
vn -1.000000 0.000000 0.000000
vn -1.000000 0.000000 -0.000000
vn -1.000000 0.000000 0.000000
vn -1.000000 0.000000 0.000000
vn -1.000000 0.000000 -0.000000
vn -1.000000 0.000000 0.000000
vn -1.000000 0.000000 -0.000000
vn -1.000000 0.000000 0.000000
vn -1.000000 0.000000 0.000000
vn -1.000000 0.000000 -0.000000
vn -1.000000 0.000000 0.000000
vn -1.000000 0.000000 -0.000000
vn -1.000000 0.000000 0.000000
vn -1.000000 0.000000 0.000000
vn -1.000000 0.000000 0.000000
vn -1.000000 0.000000 0.000000
vn -1.000000 0.000000 0.000000
vn -1.000000 0.000000 -0.000000
vn -1.000000 0.000000 0.000000
vn -1.000000 0.000000 0.000000
vn -1.000000 0.000000 0.000000
vn -1.000000 0.000000 0.000000
vn -1.000000 0.000000 -0.000000
vn -1.000000 0.000000 0.000000
vn -1.000000 0.000000 -0.000000
vn -1.000000 0.000000 -0.000000
vn -1.000000 0.000000 0.000000
vn -1.000000 0.000000 0.000000
vn -1.000000 0.000000 -0.000000
vn -1.000000 0.000000 0.000000
vn -1.000000 0.000000 0.000000
vn -1.000000 0.000000 0.000000
vn -1.000000 0.000000 -0.000000
vn -1.000000 0.000000 0.000000
vn -1.000000 0.000000 0.000000
vn -1.000000 0.000000 0.000000
vn -1.000000 0.000000 -0.000000
vn -1.000000 0.000000 0.000000
vn -1.000000 0.000000 0.000000
vn -1.000000 0.000000 0.000000
vn -1.000000 0.000000 -0.000000
vn -1.000000 0.000000 0.000000
vn -1.000000 0.000000 -0.000000
vn -1.000000 0.000000 0.000000
vn -1.000000 0.000000 0.000000
vn -1.000000 0.000000 0.000000
vn -1.000000 0.000000 -0.000000
vn -1.000000 0.000000 0.000000
vn -1.000000 0.000000 0.000000
vn -1.000000 0.000000 0.000000
vn -1.000000 0.000000 0.000000
vn -1.000000 0.000000 -0.000000
vn -1.000000 0.000000 0.000000
vn -1.000000 0.000000 0.000000
vn -1.000000 0.000000 -0.000000
vn -1.000000 0.000000 0.000000
vn -1.000000 0.000000 0.000000
vn -1.000000 0.000000 -0.000000
vn -1.000000 0.000000 0.000000
vn -1.000000 0.000000 0.000000
vn -1.000000 0.000000 0.000000
vn -1.000000 0.000000 -0.000000
vn -1.000000 0.000000 0.000000
vn -1.000000 0.000000 0.000000
vn -1.000000 0.000000 0.000000
vn -1.000000 0.000000 -0.000000
vn -1.000000 0.000000 0.000000
vn 0.000000 0.995185 0.098017
vn 0.000000 0.995185 0.098017
vn 0.000000 0.956940 0.290285
vn 0.000000 0.956940 0.290285
vn 0.000000 0.881921 0.471397
vn 0.000000 0.881921 0.471397
vn 0.000000 0.773010 0.634393
vn 0.000000 0.634393 0.773010
vn 0.000000 0.773010 0.634393
vn 0.000000 0.634393 0.773010
vn 0.000000 0.471397 0.881921
vn 0.000000 0.471397 0.881921
vn 0.000000 0.290285 0.956940
vn 0.000000 0.290285 0.956940
vn 0.000000 0.098017 0.995185
vn 0.000000 0.098017 0.995185
vn 0.000000 -0.098017 0.995185
vn 0.000000 -0.098017 0.995185
vn 0.000000 -0.290285 0.956940
vn 0.000000 -0.290285 0.956940
vn 0.000000 -0.471397 0.881921
vn 0.000000 -0.471397 0.881921
vn 0.000000 -0.634393 0.773010
vn 0.000000 -0.634393 0.773010
vn 0.000000 -0.773010 0.634393
vn 0.000000 -0.773010 0.634393
vn 0.000000 -0.881921 0.471397
vn 0.000000 -0.881921 0.471397
vn 0.000000 -0.956940 0.290285
vn 0.000000 -0.956940 0.290285
vn 0.000000 -0.995185 0.098017
vn 0.000000 -0.995185 0.098017
vn -0.000000 -0.995185 -0.098017
vn 0.000000 -0.995185 -0.098017
vn -0.000000 -0.956940 -0.290285
vn 0.000000 -0.956940 -0.290285
vn -0.000000 -0.881921 -0.471397
vn -0.000000 -0.773010 -0.634393
vn 0.000000 -0.881921 -0.471397
vn -0.000000 -0.634393 -0.773010
vn -0.000000 -0.773010 -0.634393
vn -0.000000 -0.634393 -0.773010
vn -0.000000 -0.471397 -0.881921
vn -0.000000 -0.290285 -0.956940
vn 0.000000 -0.471397 -0.881921
vn -0.000000 -0.290285 -0.956940
vn -0.000000 -0.098017 -0.995185
vn 0.000000 0.098017 -0.995185
vn 0.000000 -0.098017 -0.995185
vn 0.000000 0.098017 -0.995185
vn 0.000000 0.290285 -0.956940
vn 0.000000 0.290285 -0.956940
vn 0.000000 0.471397 -0.881921
vn 0.000000 0.634393 -0.773010
vn 0.000000 0.471397 -0.881921
vn 0.000000 0.634393 -0.773010
vn 0.000000 0.773010 -0.634393
vn 0.000000 0.773010 -0.634393
vn 0.000000 0.881921 -0.471397
vn 0.000000 0.881921 -0.471397
vn 0.000000 0.956940 -0.290285
vn 0.000000 0.956940 -0.290285
vn 0.000000 0.995185 -0.098017
vn 0.000000 0.995185 -0.098017
vn -1.000000 0.000000 0.000000
vn -1.000000 0.000000 0.000000
vn -1.000000 0.000000 0.000000
vn -1.000000 0.000000 0.000000
vn -1.000000 0.000000 0.000000
vn -1.000000 0.000000 -0.000000
vn -1.000000 0.000000 -0.000000
vn -1.000000 0.000000 0.000000
vn -1.000000 0.000000 0.000000
vn -1.000000 0.000000 -0.000000
vn -1.000000 0.000000 -0.000000
vn -1.000000 0.000000 0.000000
vn -1.000000 0.000000 0.000000
vn -1.000000 0.000000 0.000000
vn -1.000000 0.000000 -0.000000
vn -1.000000 0.000000 -0.000000
vn -1.000000 0.000000 0.000000
vn -1.000000 0.000000 0.000000
vn -1.000000 0.000000 0.000000
vn -1.000000 0.000000 -0.000000
vn -1.000000 0.000000 0.000000
vn -1.000000 0.000000 0.000000
vn -1.000000 0.000000 -0.000000
vn -1.000000 0.000000 -0.000000
vn -1.000000 0.000000 0.000000
vn -1.000000 0.000000 0.000000
vn -1.000000 0.000000 0.000000
vn -1.000000 0.000000 -0.000000
vn -1.000000 0.000000 -0.000000
vn -1.000000 0.000000 0.000000
vn -1.000000 0.000000 0.000000
vn -1.000000 0.000000 -0.000000
vn -1.000000 0.000000 -0.000000
vn -1.000000 0.000000 0.000000
vn -1.000000 0.000000 0.000000
vn -1.000000 0.000000 -0.000000
vn -1.000000 0.000000 0.000000
vn -1.000000 0.000000 0.000000
vn -1.000000 0.000000 0.000000
vn -1.000000 0.000000 -0.000000
vn -1.000000 0.000000 0.000000
vn -1.000000 0.000000 0.000000
vn -1.000000 0.000000 -0.000000
vn -1.000000 0.000000 0.000000
vn -1.000000 0.000000 -0.000000
vn -1.000000 0.000000 0.000000
vn -1.000000 0.000000 -0.000000
vn -1.000000 0.000000 0.000000
vn -1.000000 0.000000 0.000000
vn -1.000000 0.000000 0.000000
vn -1.000000 0.000000 0.000000
vn -1.000000 0.000000 -0.000000
vn -1.000000 0.000000 0.000000
vn -1.000000 0.000000 0.000000
vn -1.000000 0.000000 -0.000000
vn -1.000000 0.000000 0.000000
vn -1.000000 0.000000 0.000000
vn -1.000000 0.000000 -0.000000
f 1//1 2//1 3//1
f 1//2 3//2 4//2
f 5//3 4//3 6//3
f 5//4 1//4 4//4
f 7//5 6//5 8//5
f 7//6 5//6 6//6
f 9//7 8//7 10//7
f 9//8 10//8 11//8
f 9//9 7//9 8//9
f 12//10 9//10 11//10
f 13//11 11//11 14//11
f 13//12 12//12 11//12
f 15//13 14//13 16//13
f 15//14 13//14 14//14
f 17//15 16//15 18//15
f 17//16 15//16 16//16
f 19//17 18//17 20//17
f 19//18 20//18 21//18
f 19//19 17//19 18//19
f 22//20 19//20 21//20
f 23//21 22//21 21//21
f 23//22 21//22 24//22
f 23//23 24//23 25//23
f 26//24 23//24 25//24
f 26//25 25//25 27//25
f 28//26 26//26 27//26
f 28//27 27//27 29//27
f 30//28 28//28 29//28
f 30//29 29//29 31//29
f 32//30 30//30 31//30
f 33//31 32//31 31//31
f 33//32 31//32 34//32
f 35//33 33//33 34//33
f 35//34 34//34 36//34
f 35//35 36//35 37//35
f 38//36 35//36 37//36
f 38//37 37//37 39//37
f 40//38 38//38 39//38
f 41//39 40//39 39//39
f 41//40 39//40 42//40
f 43//41 41//41 42//41
f 43//42 42//42 44//42
f 45//43 43//43 44//43
f 45//44 44//44 46//44
f 45//45 46//45 47//45
f 48//46 45//46 47//46
f 49//47 47//47 50//47
f 49//48 48//48 47//48
f 51//49 50//49 52//49
f 51//50 52//50 3//50
f 51//51 49//51 50//51
f 2//52 51//52 3//52
f 34//53 53//53 54//53
f 34//54 54//54 55//54
f 36//55 55//55 56//55
f 36//56 34//56 55//56
f 31//57 57//57 53//57
f 31//58 53//58 34//58
f 37//59 56//59 58//59
f 37//60 58//60 59//60
f 37//61 36//61 56//61
f 29//62 57//62 31//62
f 29//63 60//63 61//63
f 29//64 61//64 57//64
f 39//65 37//65 59//65
f 39//66 59//66 62//66
f 27//67 63//67 60//67
f 27//68 60//68 29//68
f 42//69 62//69 64//69
f 42//70 64//70 65//70
f 42//71 39//71 62//71
f 25//72 63//72 27//72
f 25//73 66//73 67//73
f 25//74 67//74 63//74
f 44//75 42//75 65//75
f 44//76 65//76 68//76
f 24//77 69//77 66//77
f 24//78 66//78 25//78
f 46//79 44//79 68//79
f 46//80 68//80 70//80
f 21//81 71//81 69//81
f 21//82 69//82 24//82
f 72//83 46//83 70//83
f 47//84 46//84 72//84
f 73//85 71//85 21//85
f 73//86 21//86 20//86
f 74//87 47//87 72//87
f 74//88 50//88 47//88
f 75//89 73//89 20//89
f 75//90 20//90 18//90
f 76//91 50//91 74//91
f 77//92 75//92 18//92
f 78//93 50//93 76//93
f 78//94 52//94 50//94
f 79//95 18//95 16//95
f 79//96 77//96 18//96
f 80//97 3//97 52//97
f 80//98 52//98 78//98
f 81//99 16//99 14//99
f 81//100 79//100 16//100
f 82//101 3//101 80//101
f 83//102 81//102 14//102
f 84//103 4//103 3//103
f 84//104 3//104 82//104
f 85//105 14//105 11//105
f 85//106 83//106 14//106
f 86//107 6//107 4//107
f 86//108 4//108 84//108
f 87//109 11//109 10//109
f 87//110 85//110 11//110
f 88//111 6//111 86//111
f 89//112 87//112 10//112
f 90//113 8//113 6//113
f 90//114 6//114 88//114
f 91//115 10//115 8//115
f 91//116 89//116 10//116
f 91//117 8//117 90//117
f 84//118 92//118 93//118
f 84//119 93//119 94//119
f 84//120 82//120 92//120
f 86//121 84//121 94//121
f 88//122 94//122 95//122
f 88//123 95//123 96//123
f 88//124 86//124 94//124
f 90//125 88//125 96//125
f 91//126 96//126 97//126
f 91//127 90//127 96//127
f 89//128 97//128 98//128
f 89//129 91//129 97//129
f 87//130 98//130 99//130
f 87//131 99//131 100//131
f 87//132 89//132 98//132
f 85//133 100//133 101//133
f 85//134 87//134 100//134
f 83//135 85//135 101//135
f 81//136 83//136 101//136
f 81//137 101//137 102//137
f 79//138 102//138 103//138
f 79//139 81//139 102//139
f 77//140 103//140 104//140
f 77//141 79//141 103//141
f 75//142 104//142 105//142
f 75//143 77//143 104//143
f 73//144 105//144 106//144
f 73//145 75//145 105//145
f 71//146 106//146 107//146
f 71//147 73//147 106//147
f 69//148 107//148 108//148
f 69//149 71//149 107//149
f 66//150 108//150 109//150
f 66//151 109//151 110//151
f 66//152 69//152 108//152
f 67//153 66//153 110//153
f 63//154 110//154 111//154
f 63//155 67//155 110//155
f 60//156 111//156 112//156
f 60//157 63//157 111//157
f 61//158 112//158 113//158
f 61//159 113//159 114//159
f 61//160 60//160 112//160
f 57//161 114//161 115//161
f 57//162 61//162 114//162
f 53//163 57//163 115//163
f 54//164 115//164 116//164
f 54//165 53//165 115//165
f 55//166 116//166 117//166
f 55//167 117//167 118//167
f 55//168 54//168 116//168
f 56//169 118//169 119//169
f 56//170 55//170 118//170
f 58//171 56//171 119//171
f 59//172 119//172 120//172
f 59//173 120//173 121//173
f 59//174 58//174 119//174
f 62//175 59//175 121//175
f 64//176 62//176 121//176
f 64//177 121//177 122//177
f 64//178 122//178 123//178
f 65//179 64//179 123//179
f 68//180 65//180 123//180
f 68//181 123//181 124//181
f 70//182 68//182 124//182
f 70//183 124//183 125//183
f 70//184 125//184 126//184
f 72//185 70//185 126//185
f 74//186 72//186 126//186
f 74//187 126//187 127//187
f 74//188 127//188 128//188
f 76//189 74//189 128//189
f 76//190 128//190 129//190
f 78//191 76//191 129//191
f 80//192 78//192 129//192
f 80//193 129//193 130//193
f 82//194 130//194 92//194
f 82//195 80//195 130//195
f 116//196 131//196 132//196
f 117//197 132//197 133//197
f 117//198 116//198 132//198
f 115//199 134//199 131//199
f 115//200 131//200 116//200
f 118//201 117//201 133//201
f 118//202 133//202 135//202
f 114//203 134//203 115//203
f 114//204 136//204 134//204
f 119//205 135//205 137//205
f 119//206 118//206 135//206
f 113//207 136//207 114//207
f 113//208 138//208 136//208
f 120//209 119//209 137//209
f 120//210 137//210 139//210
f 112//211 138//211 113//211
f 112//212 140//212 138//212
f 121//213 120//213 139//213
f 121//214 139//214 141//214
f 121//215 141//215 142//215
f 111//216 143//216 140//216
f 111//217 140//217 112//217
f 144//218 143//218 111//218
f 122//219 121//219 142//219
f 145//220 122//220 142//220
f 110//221 144//221 111//221
f 146//222 144//222 110//222
f 123//223 122//223 145//223
f 147//224 123//224 145//224
f 109//225 146//225 110//225
f 124//226 123//226 147//226
f 148//227 146//227 109//227
f 149//228 124//228 147//228
f 108//229 148//229 109//229
f 125//230 124//230 149//230
f 150//231 148//231 108//231
f 151//232 125//232 149//232
f 107//233 150//233 108//233
f 126//234 125//234 151//234
f 152//235 150//235 107//235
f 153//236 126//236 151//236
f 106//237 152//237 107//237
f 127//238 126//238 153//238
f 154//239 152//239 106//239
f 155//240 127//240 153//240
f 105//241 154//241 106//241
f 128//242 127//242 155//242
f 156//243 154//243 105//243
f 157//244 128//244 155//244
f 104//245 156//245 105//245
f 129//246 128//246 157//246
f 158//247 156//247 104//247
f 103//248 158//248 104//248
f 159//249 129//249 157//249
f 130//250 129//250 159//250
f 160//251 103//251 102//251
f 160//252 158//252 103//252
f 161//253 92//253 130//253
f 161//254 130//254 159//254
f 162//255 160//255 102//255
f 163//256 92//256 161//256
f 164//257 162//257 102//257
f 164//258 102//258 101//258
f 165//259 92//259 163//259
f 165//260 93//260 92//260
f 166//261 164//261 101//261
f 166//262 101//262 100//262
f 167//263 93//263 165//263
f 167//264 94//264 93//264
f 168//265 166//265 100//265
f 168//266 100//266 99//266
f 169//267 94//267 167//267
f 169//268 95//268 94//268
f 170//269 168//269 99//269
f 170//270 99//270 98//270
f 171//271 95//271 169//271
f 171//272 96//272 95//272
f 172//273 170//273 98//273
f 172//274 98//274 97//274
f 173//275 172//275 97//275
f 173//276 96//276 171//276
f 173//277 97//277 96//277
f 165//278 174//278 175//278
f 165//279 163//279 174//279
f 167//280 175//280 176//280
f 167//281 176//281 177//281
f 167//282 165//282 175//282
f 169//283 167//283 177//283
f 171//284 169//284 177//284
f 171//285 177//285 178//285
f 171//286 178//286 179//286
f 173//287 179//287 180//287
f 173//288 171//288 179//288
f 172//289 173//289 180//289
f 170//290 180//290 181//290
f 170//291 172//291 180//291
f 168//292 181//292 182//292
f 168//293 182//293 183//293
f 168//294 170//294 181//294
f 166//295 168//295 183//295
f 164//296 183//296 184//296
f 164//297 166//297 183//297
f 162//298 184//298 185//298
f 162//299 164//299 184//299
f 160//300 185//300 186//300
f 160//301 162//301 185//301
f 158//302 186//302 187//302
f 158//303 160//303 186//303
f 156//304 187//304 188//304
f 156//305 158//305 187//305
f 154//306 188//306 189//306
f 154//307 189//307 190//307
f 154//308 156//308 188//308
f 152//309 154//309 190//309
f 150//310 190//310 191//310
f 150//311 152//311 190//311
f 148//312 191//312 192//312
f 148//313 192//313 193//313
f 148//314 150//314 191//314
f 146//315 148//315 193//315
f 144//316 193//316 194//316
f 144//317 194//317 195//317
f 144//318 146//318 193//318
f 143//319 144//319 195//319
f 140//320 195//320 196//320
f 140//321 143//321 195//321
f 138//322 196//322 197//322
f 138//323 140//323 196//323
f 136//324 197//324 198//324
f 136//325 138//325 197//325
f 134//326 198//326 199//326
f 134//327 136//327 198//327
f 131//328 199//328 200//328
f 131//329 134//329 199//329
f 132//330 200//330 201//330
f 132//331 201//331 202//331
f 132//332 131//332 200//332
f 133//333 132//333 202//333
f 133//334 202//334 203//334
f 135//335 133//335 203//335
f 137//336 135//336 203//336
f 137//337 203//337 204//337
f 139//338 137//338 204//338
f 139//339 204//339 205//339
f 141//340 139//340 205//340
f 141//341 205//341 206//341
f 142//342 141//342 206//342
f 142//343 206//343 207//343
f 145//344 142//344 207//344
f 145//345 207//345 208//345
f 147//346 145//346 208//346
f 147//347 208//347 209//347
f 149//348 209//348 210//348
f 149//349 147//349 209//349
f 151//350 149//350 210//350
f 151//351 210//351 211//351
f 151//352 211//352 212//352
f 153//353 151//353 212//353
f 155//354 212//354 213//354
f 155//355 153//355 212//355
f 157//356 213//356 214//356
f 157//357 155//357 213//357
f 159//358 214//358 215//358
f 159//359 157//359 214//359
f 161//360 215//360 216//360
f 161//361 159//361 215//361
f 163//362 216//362 174//362
f 163//363 161//363 216//363
f 201//364 217//364 218//364
f 200//365 217//365 201//365
f 200//366 219//366 217//366
f 202//367 201//367 218//367
f 202//368 218//368 220//368
f 199//369 219//369 200//369
f 199//370 221//370 219//370
f 203//371 202//371 220//371
f 203//372 220//372 222//372
f 198//373 221//373 199//373
f 198//374 223//374 221//374
f 204//375 222//375 224//375
f 204//376 203//376 222//376
f 197//377 223//377 198//377
f 197//378 225//378 223//378
f 205//379 204//379 224//379
f 205//380 224//380 226//380
f 196//381 225//381 197//381
f 196//382 227//382 225//382
f 206//383 205//383 226//383
f 206//384 226//384 228//384
f 229//385 227//385 196//385
f 195//386 229//386 196//386
f 207//387 206//387 228//387
f 207//388 228//388 230//388
f 231//389 229//389 195//389
f 194//390 231//390 195//390
f 208//391 207//391 230//391
f 232//392 208//392 230//392
f 233//393 231//393 194//393
f 193//394 233//394 194//394
f 209//395 208//395 232//395
f 234//396 209//396 232//396
f 235//397 233//397 193//397
f 192//398 235//398 193//398
f 210//399 209//399 234//399
f 236//400 210//400 234//400
f 237//401 235//401 192//401
f 191//402 237//402 192//402
f 211//403 210//403 236//403
f 238//404 211//404 236//404
f 239//405 237//405 191//405
f 190//406 239//406 191//406
f 212//407 211//407 238//407
f 240//408 212//408 238//408
f 241//409 239//409 190//409
f 189//410 241//410 190//410
f 213//411 212//411 240//411
f 242//412 213//412 240//412
f 243//413 241//413 189//413
f 188//414 243//414 189//414
f 214//415 213//415 242//415
f 244//416 214//416 242//416
f 245//417 243//417 188//417
f 187//418 245//418 188//418
f 215//419 214//419 244//419
f 246//420 215//420 244//420
f 247//421 187//421 186//421
f 247//422 245//422 187//422
f 216//423 215//423 246//423
f 248//424 216//424 246//424
f 249//425 247//425 186//425
f 249//426 186//426 185//426
f 174//427 216//427 248//427
f 250//428 174//428 248//428
f 251//429 185//429 184//429
f 251//430 249//430 185//430
f 252//431 174//431 250//431
f 252//432 175//432 174//432
f 253//433 251//433 184//433
f 253//434 184//434 183//434
f 254//435 175//435 252//435
f 254//436 176//436 175//436
f 255//437 253//437 183//437
f 255//438 183//438 182//438
f 256//439 176//439 254//439
f 256//440 177//440 176//440
f 257//441 255//441 182//441
f 257//442 182//442 181//442
f 258//443 177//443 256//443
f 258//444 178//444 177//444
f 259//445 181//445 180//445
f 259//446 257//446 181//446
f 260//447 179//447 178//447
f 260//448 178//448 258//448
f 261//449 180//449 179//449
f 261//450 259//450 180//450
f 261//451 179//451 260//451
f 252//452 262//452 263//452
f 252//453 263//453 264//453
f 252//454 250//454 262//454
f 254//455 252//455 264//455
f 256//456 264//456 265//456
f 256//457 254//457 264//457
f 256//458 265//458 266//458
f 258//459 256//459 266//459
f 260//460 266//460 267//460
f 260//461 258//461 266//461
f 261//462 267//462 268//462
f 261//463 260//463 267//463
f 259//464 268//464 269//464
f 259//465 269//465 270//465
f 259//466 261//466 268//466
f 257//467 259//467 270//467
f 255//468 270//468 271//468
f 255//469 257//469 270//469
f 253//470 271//470 272//470
f 253//471 255//471 271//471
f 251//472 272//472 273//472
f 251//473 253//473 272//473
f 249//474 273//474 274//474
f 249//475 274//475 275//475
f 249//476 251//476 273//476
f 247//477 249//477 275//477
f 245//478 275//478 276//478
f 245//479 276//479 277//479
f 245//480 247//480 275//480
f 243//481 277//481 278//481
f 243//482 245//482 277//482
f 241//483 278//483 279//483
f 241//484 243//484 278//484
f 239//485 241//485 279//485
f 237//486 279//486 280//486
f 237//487 280//487 281//487
f 237//488 239//488 279//488
f 235//489 237//489 281//489
f 233//490 281//490 282//490
f 233//491 235//491 281//491
f 231//492 282//492 283//492
f 231//493 233//493 282//493
f 229//494 283//494 284//494
f 229//495 231//495 283//495
f 227//496 284//496 285//496
f 227//497 229//497 284//497
f 225//498 285//498 286//498
f 225//499 227//499 285//499
f 223//500 286//500 287//500
f 223//501 225//501 286//501
f 221//502 287//502 288//502
f 221//503 223//503 287//503
f 219//504 221//504 288//504
f 219//505 288//505 289//505
f 219//506 289//506 290//506
f 217//507 219//507 290//507
f 218//508 217//508 290//508
f 218//509 290//509 291//509
f 220//510 218//510 291//510
f 220//511 291//511 292//511
f 222//512 220//512 292//512
f 222//513 292//513 293//513
f 224//514 222//514 293//514
f 224//515 293//515 294//515
f 226//516 224//516 294//516
f 226//517 294//517 295//517
f 228//518 226//518 295//518
f 228//519 295//519 296//519
f 228//520 296//520 297//520
f 230//521 228//521 297//521
f 232//522 297//522 298//522
f 232//523 230//523 297//523
f 232//524 298//524 299//524
f 234//525 232//525 299//525
f 236//526 299//526 300//526
f 236//527 300//527 301//527
f 236//528 234//528 299//528
f 238//529 236//529 301//529
f 240//530 301//530 302//530
f 240//531 238//531 301//531
f 242//532 302//532 303//532
f 242//533 240//533 302//533
f 244//534 303//534 304//534
f 244//535 304//535 305//535
f 244//536 242//536 303//536
f 246//537 244//537 305//537
f 248//538 305//538 306//538
f 248//539 246//539 305//539
f 250//540 306//540 262//540
f 250//541 248//541 306//541
f 307//542 302//542 301//542
f 308//543 300//543 299//543
f 308//544 301//544 300//544
f 308//545 307//545 301//545
f 309//546 303//546 302//546
f 309//547 302//547 307//547
f 310//548 308//548 299//548
f 310//549 299//549 298//549
f 311//550 303//550 309//550
f 311//551 304//551 303//551
f 311//552 305//552 304//552
f 312//553 297//553 296//553
f 312//554 298//554 297//554
f 312//555 310//555 298//555
f 313//556 305//556 311//556
f 313//557 306//557 305//557
f 314//558 296//558 295//558
f 314//559 312//559 296//559
f 315//560 263//560 262//560
f 315//561 306//561 313//561
f 315//562 262//562 306//562
f 316//563 314//563 295//563
f 316//564 295//564 294//564
f 317//565 264//565 263//565
f 317//566 263//566 315//566
f 318//567 293//567 292//567
f 318//568 294//568 293//568
f 318//569 316//569 294//569
f 319//570 265//570 264//570
f 319//571 266//571 265//571
f 319//572 264//572 317//572
f 320//573 292//573 291//573
f 320//574 318//574 292//574
f 321//575 266//575 319//575
f 267//576 266//576 321//576
f 322//577 320//577 291//577
f 323//578 267//578 321//578
f 290//579 322//579 291//579
f 268//580 267//580 323//580
f 324//581 268//581 323//581
f 289//582 322//582 290//582
f 289//583 325//583 322//583
f 269//584 268//584 324//584
f 288//585 325//585 289//585
f 288//586 326//586 325//586
f 270//587 324//587 327//587
f 270//588 269//588 324//588
f 287//589 326//589 288//589
f 287//590 328//590 326//590
f 271//591 327//591 329//591
f 271//592 270//592 327//592
f 286//593 328//593 287//593
f 272//594 271//594 329//594
f 285//595 330//595 328//595
f 285//596 328//596 286//596
f 273//597 272//597 329//597
f 273//598 329//598 331//598
f 284//599 330//599 285//599
f 284//600 332//600 330//600
f 274//601 331//601 333//601
f 274//602 273//602 331//602
f 283//603 332//603 284//603
f 275//604 333//604 334//604
f 275//605 274//605 333//605
f 282//606 332//606 283//606
f 282//607 335//607 332//607
f 276//608 275//608 334//608
f 281//609 335//609 282//609
f 281//610 336//610 335//610
f 277//611 334//611 337//611
f 277//612 276//612 334//612
f 280//613 336//613 281//613
f 280//614 338//614 336//614
f 278//615 277//615 337//615
f 278//616 337//616 338//616
f 279//617 338//617 280//617
f 279//618 278//618 338//618
f 317//619 339//619 340//619
f 317//620 315//620 339//620
f 319//621 340//621 341//621
f 319//622 317//622 340//622
f 321//623 341//623 342//623
f 321//624 319//624 341//624
f 323//625 342//625 343//625
f 323//626 343//626 344//626
f 323//627 321//627 342//627
f 324//628 323//628 344//628
f 327//629 344//629 345//629
f 327//630 324//630 344//630
f 329//631 345//631 346//631
f 329//632 327//632 345//632
f 331//633 329//633 346//633
f 331//634 346//634 347//634
f 331//635 347//635 348//635
f 333//636 331//636 348//636
f 333//637 348//637 349//637
f 334//638 333//638 349//638
f 337//639 334//639 349//639
f 337//640 349//640 350//640
f 338//641 350//641 351//641
f 338//642 337//642 350//642
f 336//643 351//643 352//643
f 336//644 338//644 351//644
f 335//645 352//645 353//645
f 335//646 336//646 352//646
f 332//647 353//647 354//647
f 332//648 335//648 353//648
f 330//649 354//649 355//649
f 330//650 332//650 354//650
f 328//651 355//651 356//651
f 328//652 330//652 355//652
f 326//653 356//653 357//653
f 326//654 328//654 356//654
f 325//655 357//655 358//655
f 325//656 358//656 359//656
f 325//657 326//657 357//657
f 322//658 359//658 360//658
f 322//659 325//659 359//659
f 320//660 322//660 360//660
f 318//661 360//661 361//661
f 318//662 361//662 362//662
f 318//663 320//663 360//663
f 316//664 318//664 362//664
f 314//665 362//665 363//665
f 314//666 363//666 364//666
f 314//667 316//667 362//667
f 312//668 314//668 364//668
f 310//669 364//669 365//669
f 310//670 312//670 364//670
f 308//671 365//671 366//671
f 308//672 366//672 367//672
f 308//673 310//673 365//673
f 307//674 308//674 367//674
f 309//675 367//675 368//675
f 309//676 307//676 367//676
f 311//677 368//677 369//677
f 311//678 309//678 368//678
f 313//679 369//679 370//679
f 313//680 311//680 369//680
f 315//681 370//681 339//681
f 315//682 313//682 370//682
f 48//683 368//683 367//683
f 45//684 366//684 365//684
f 45//685 367//685 366//685
f 45//686 48//686 367//686
f 49//687 369//687 368//687
f 49//688 368//688 48//688
f 43//689 365//689 364//689
f 43//690 45//690 365//690
f 51//691 370//691 369//691
f 51//692 369//692 49//692
f 41//693 364//693 363//693
f 41//694 43//694 364//694
f 2//695 340//695 339//695
f 2//696 339//696 370//696
f 2//697 370//697 51//697
f 40//698 363//698 362//698
f 40//699 41//699 363//699
f 1//700 341//700 340//700
f 1//701 340//701 2//701
f 38//702 362//702 361//702
f 38//703 40//703 362//703
f 5//704 341//704 1//704
f 342//705 341//705 5//705
f 35//706 38//706 361//706
f 35//707 361//707 360//707
f 7//708 342//708 5//708
f 359//709 35//709 360//709
f 343//710 342//710 7//710
f 33//711 35//711 359//711
f 9//712 343//712 7//712
f 358//713 33//713 359//713
f 344//714 343//714 9//714
f 32//715 33//715 358//715
f 357//716 32//716 358//716
f 357//717 30//717 32//717
f 345//718 344//718 9//718
f 345//719 9//719 12//719
f 356//720 30//720 357//720
f 356//721 28//721 30//721
f 346//722 12//722 13//722
f 346//723 345//723 12//723
f 355//724 28//724 356//724
f 347//725 13//725 15//725
f 347//726 346//726 13//726
f 354//727 28//727 355//727
f 354//728 26//728 28//728
f 348//729 15//729 17//729
f 348//730 347//730 15//730
f 349//731 17//731 19//731
f 349//732 348//732 17//732
f 353//733 23//733 26//733
f 353//734 26//734 354//734
f 350//735 349//735 19//735
f 352//736 22//736 23//736
f 352//737 23//737 353//737
f 351//738 19//738 22//738
f 351//739 350//739 19//739
f 351//740 22//740 352//740
