# Created by FreeCAD <https://www.freecad.org>
v 150.000000 0.000000 5.000000
v 0.000000 0.000000 5.000000
v 0.000000 -1.196578 4.854709
v 150.000000 -1.196578 4.854709
v 0.000000 -2.323616 4.427280
v 150.000000 -2.323616 4.427280
v 150.000000 -3.315613 3.742554
v 0.000000 -3.315613 3.742554
v 150.000000 -4.114919 2.840324
v 0.000000 -4.114919 2.840324
v 150.000000 -4.675081 1.773024
v 0.000000 -4.675081 1.773024
v 0.000000 -4.963544 0.602683
v 150.000000 -4.963544 0.602683
v 150.000000 -4.963544 -0.602683
v 0.000000 -4.963544 -0.602683
v 0.000000 -4.675081 -1.773024
v 150.000000 -4.675081 -1.773024
v 150.000000 -4.114919 -2.840324
v 0.000000 -4.114919 -2.840324
v 150.000000 -3.315613 -3.742554
v 0.000000 -3.315613 -3.742554
v 0.000000 -2.323616 -4.427280
v 150.000000 -2.323616 -4.427280
v 150.000000 -1.196578 -4.854709
v 0.000000 -1.196578 -4.854709
v 150.000000 -0.000000 -5.000000
v 0.000000 -0.000000 -5.000000
v 150.000000 1.196578 -4.854709
v 0.000000 1.196578 -4.854709
v 150.000000 2.323616 -4.427280
v 0.000000 2.323616 -4.427280
v 150.000000 3.315613 -3.742554
v 0.000000 3.315613 -3.742554
v 150.000000 4.114919 -2.840324
v 0.000000 4.114919 -2.840324
v 150.000000 4.675081 -1.773024
v 0.000000 4.675081 -1.773024
v 150.000000 4.963544 -0.602683
v 0.000000 4.963544 -0.602683
v 150.000000 4.963544 0.602683
v 0.000000 4.963544 0.602683
v 150.000000 4.675081 1.773024
v 0.000000 4.675081 1.773024
v 150.000000 4.114919 2.840324
v 0.000000 4.114919 2.840324
v 150.000000 3.315613 3.742554
v 0.000000 3.315613 3.742554
v 150.000000 2.323616 4.427280
v 0.000000 2.323616 4.427280
v 150.000000 1.196578 4.854709
v 0.000000 1.196578 4.854709
v 150.000000 3.497681 -2.414275
v 150.000000 2.818271 -3.181171
v 150.000000 1.975073 -3.763188
v 150.000000 3.973819 -1.507071
v 150.000000 1.017092 -4.126503
v 150.000000 4.219013 -0.512281
v 150.000000 -0.000000 -4.250000
v 150.000000 4.219013 0.512281
v 150.000000 -1.017092 -4.126503
v 150.000000 3.973819 1.507071
v 150.000000 -1.975073 -3.763188
v 150.000000 3.497681 2.414275
v 150.000000 -2.818271 -3.181171
v 150.000000 2.818271 3.181171
v 150.000000 -3.497681 -2.414275
v 150.000000 1.975073 3.763188
v 150.000000 -3.973819 -1.507071
v 150.000000 1.017092 4.126503
v 150.000000 0.000000 4.250000
v 150.000000 -4.219013 -0.512281
v 150.000000 -4.219013 0.512281
v 150.000000 -1.017092 4.126503
v 150.000000 -3.973819 1.507071
v 150.000000 -1.975073 3.763188
v 150.000000 -2.818271 3.181171
v 150.000000 -3.497681 2.414275
v 0.000000 3.160000 -10.000000
v 0.000000 10.000000 -3.160000
v 0.000000 -3.160000 -10.000000
v 0.000000 10.000000 3.160000
v 0.000000 -10.000000 -3.160000
v 0.000000 3.160000 10.000000
v 0.000000 -3.160000 10.000000
v 0.000000 -10.000000 3.160000
v 150.500000 -1.017092 4.126503
v 150.500000 0.000000 4.250000
v 150.500000 -1.975073 3.763188
v 150.500000 -2.818271 3.181171
v 150.500000 -3.497681 2.414275
v 150.500000 -3.973819 1.507071
v 150.500000 -4.219013 0.512281
v 150.500000 -4.219013 -0.512281
v 150.500000 -3.973819 -1.507071
v 150.500000 -3.497681 -2.414275
v 150.500000 -2.818271 -3.181171
v 150.500000 -1.975073 -3.763188
v 150.500000 -1.017092 -4.126503
v 150.500000 -0.000000 -4.250000
v 150.500000 1.017092 -4.126503
v 150.500000 1.975073 -3.763188
v 150.500000 2.818271 -3.181171
v 150.500000 3.497681 -2.414275
v 150.500000 3.973819 -1.507071
v 150.500000 4.219013 -0.512281
v 150.500000 4.219013 0.512281
v 150.500000 3.973819 1.507071
v 150.500000 3.497681 2.414275
v 150.500000 2.818271 3.181171
v 150.500000 1.975073 3.763188
v 150.500000 1.017092 4.126503
v -20.000000 3.160000 10.000000
v -20.000000 -3.160000 10.000000
v -20.000000 10.000000 3.160000
v -20.000000 -10.000000 3.160000
v -20.000000 10.000000 -3.160000
v -20.000000 -10.000000 -3.160000
v -20.000000 3.160000 -10.000000
v -20.000000 -3.160000 -10.000000
v 150.500000 3.291935 -2.272259
v 150.500000 2.652491 -2.994043
v 150.500000 1.858893 -3.541824
v 150.500000 3.740065 -1.418420
v 150.500000 0.957263 -3.883767
v 150.500000 3.970835 -0.482147
v 150.500000 -0.000000 -4.000000
v 150.500000 3.970835 0.482147
v 150.500000 -0.957263 -3.883767
v 150.500000 3.740065 1.418420
v 150.500000 -1.858893 -3.541824
v 150.500000 3.291935 2.272259
v 150.500000 -2.652491 -2.994043
v 150.500000 2.652491 2.994043
v 150.500000 -3.291935 -2.272259
v 150.500000 1.858893 3.541824
v 150.500000 -3.740065 -1.418420
v 150.500000 0.957263 3.883767
v 150.500000 -3.970835 -0.482147
v 150.500000 0.000000 4.000000
v 150.500000 -3.970835 0.482147
v 150.500000 -0.957263 3.883767
v 150.500000 -3.740065 1.418420
v 150.500000 -1.858893 3.541824
v 150.500000 -3.291935 2.272259
v 150.500000 -2.652491 2.994043
v 250.500000 -0.957263 3.883767
v 250.500000 0.000000 4.000000
v 250.500000 -1.858893 3.541824
v 250.500000 -2.652491 2.994043
v 250.500000 -3.291935 2.272259
v 250.500000 -3.740065 1.418420
v 250.500000 -3.970835 0.482147
v 250.500000 -3.970835 -0.482147
v 250.500000 -3.740065 -1.418420
v 250.500000 -3.291935 -2.272259
v 250.500000 -2.652491 -2.994043
v 250.500000 -1.858893 -3.541824
v 250.500000 -0.957263 -3.883767
v 250.500000 -0.000000 -4.000000
v 250.500000 0.957263 -3.883767
v 250.500000 1.858893 -3.541824
v 250.500000 2.652491 -2.994043
v 250.500000 3.291935 -2.272259
v 250.500000 3.740065 -1.418420
v 250.500000 3.970835 -0.482147
v 250.500000 3.970835 0.482147
v 250.500000 3.740065 1.418420
v 250.500000 3.291935 2.272259
v 250.500000 2.652491 2.994043
v 250.500000 1.858893 3.541824
v 250.500000 0.957263 3.883767
vn 0.000000 -0.120537 0.992709
vn 0.000000 -0.354605 0.935016
vn 0.000000 -0.120537 0.992709
vn 0.000000 -0.354605 0.935016
vn 0.000000 -0.568065 0.822984
vn 0.000000 -0.568065 0.822984
vn 0.000000 -0.748511 0.663123
vn 0.000000 -0.748511 0.663123
vn 0.000000 -0.885456 0.464723
vn 0.000000 -0.970942 0.239316
vn 0.000000 -0.885456 0.464723
vn 0.000000 -0.970942 0.239316
vn 0.000000 -1.000000 0.000000
vn -0.000000 -0.970942 -0.239316
vn 0.000000 -1.000000 0.000000
vn -0.000000 -0.970942 -0.239316
vn -0.000000 -0.885456 -0.464723
vn 0.000000 -0.885456 -0.464723
vn -0.000000 -0.748511 -0.663123
vn -0.000000 -0.568065 -0.822984
vn 0.000000 -0.748511 -0.663123
vn -0.000000 -0.568065 -0.822984
vn 0.000000 -0.354605 -0.935016
vn -0.000000 -0.354605 -0.935016
vn 0.000000 -0.120537 -0.992709
vn -0.000000 -0.120537 -0.992709
vn 0.000000 0.120537 -0.992709
vn 0.000000 0.120537 -0.992709
vn 0.000000 0.354605 -0.935016
vn 0.000000 0.354605 -0.935016
vn 0.000000 0.568065 -0.822984
vn 0.000000 0.568065 -0.822984
vn 0.000000 0.748511 -0.663123
vn 0.000000 0.748511 -0.663123
vn 0.000000 0.885456 -0.464723
vn 0.000000 0.885456 -0.464723
vn 0.000000 0.970942 -0.239316
vn 0.000000 0.970942 -0.239316
vn 0.000000 1.000000 0.000000
vn 0.000000 1.000000 0.000000
vn 0.000000 0.970942 0.239316
vn 0.000000 0.970942 0.239316
vn 0.000000 0.885456 0.464723
vn 0.000000 0.885456 0.464723
vn 0.000000 0.748511 0.663123
vn 0.000000 0.748511 0.663123
vn 0.000000 0.568065 0.822984
vn 0.000000 0.568065 0.822984
vn 0.000000 0.354605 0.935016
vn 0.000000 0.354605 0.935016
vn 0.000000 0.120537 0.992709
vn 0.000000 0.120537 0.992709
vn 1.000000 0.000000 0.000000
vn 1.000000 0.000000 0.000000
vn 1.000000 -0.000000 0.000000
vn 1.000000 0.000000 0.000000
vn 1.000000 0.000000 0.000000
vn 1.000000 0.000000 0.000000
vn 1.000000 0.000000 0.000000
vn 1.000000 -0.000000 0.000000
vn 1.000000 0.000000 0.000000
vn 1.000000 0.000000 0.000000
vn 1.000000 0.000000 0.000000
vn 1.000000 -0.000000 0.000000
vn 1.000000 -0.000000 0.000000
vn 1.000000 0.000000 0.000000
vn 1.000000 -0.000000 0.000000
vn 1.000000 0.000000 0.000000
vn 1.000000 -0.000000 0.000000
vn 1.000000 0.000000 0.000000
vn 1.000000 -0.000000 0.000000
vn 1.000000 0.000000 0.000000
vn 1.000000 -0.000000 0.000000
vn 1.000000 0.000000 0.000000
vn 1.000000 0.000000 0.000000
vn 1.000000 0.000000 0.000000
vn 1.000000 0.000000 0.000000
vn 1.000000 0.000000 0.000000
vn 1.000000 -0.000000 0.000000
vn 1.000000 0.000000 0.000000
vn 1.000000 0.000000 0.000000
vn 1.000000 0.000000 0.000000
vn 1.000000 0.000000 0.000000
vn 1.000000 -0.000000 0.000000
vn 1.000000 0.000000 0.000000
vn 1.000000 0.000000 0.000000
vn 1.000000 -0.000000 0.000000
vn 1.000000 0.000000 0.000000
vn 1.000000 -0.000000 0.000000
vn 1.000000 0.000000 0.000000
vn 1.000000 0.000000 0.000000
vn 1.000000 0.000000 0.000000
vn 1.000000 0.000000 0.000000
vn 1.000000 -0.000000 0.000000
vn 1.000000 0.000000 0.000000
vn 1.000000 0.000000 0.000000
vn 1.000000 -0.000000 0.000000
vn 1.000000 0.000000 0.000000
vn 1.000000 0.000000 0.000000
vn 1.000000 0.000000 0.000000
vn 1.000000 0.000000 0.000000
vn 1.000000 0.000000 0.000000
vn 1.000000 0.000000 0.000000
vn 1.000000 -0.000000 0.000000
vn 1.000000 -0.000000 0.000000
vn 1.000000 0.000000 0.000000
vn 1.000000 -0.000000 0.000000
vn 1.000000 0.000000 0.000000
vn 1.000000 -0.000000 0.000000
vn 1.000000 0.000000 0.000000
vn 1.000000 0.000000 0.000000
vn 1.000000 -0.000000 0.000000
vn 1.000000 -0.000000 0.000000
vn 1.000000 0.000000 0.000000
vn 1.000000 0.000000 0.000000
vn 1.000000 -0.000000 0.000000
vn 1.000000 0.000000 0.000000
vn 1.000000 -0.000000 0.000000
vn 1.000000 0.000000 0.000000
vn 1.000000 0.000000 0.000000
vn 1.000000 0.000000 0.000000
vn 1.000000 0.000000 0.000000
vn 1.000000 -0.000000 0.000000
vn 1.000000 0.000000 0.000000
vn 1.000000 0.000000 0.000000
vn 1.000000 0.000000 0.000000
vn 1.000000 0.000000 0.000000
vn 1.000000 0.000000 0.000000
vn 1.000000 0.000000 0.000000
vn 1.000000 0.000000 0.000000
vn 1.000000 0.000000 0.000000
vn 1.000000 -0.000000 0.000000
vn 1.000000 0.000000 0.000000
vn 1.000000 -0.000000 0.000000
vn 1.000000 0.000000 0.000000
vn 1.000000 0.000000 0.000000
vn 1.000000 0.000000 0.000000
vn 1.000000 0.000000 0.000000
vn 0.000000 -0.120537 0.992709
vn 0.000000 -0.120537 0.992709
vn 0.000000 -0.354605 0.935016
vn 0.000000 -0.354605 0.935016
vn 0.000000 -0.568065 0.822984
vn 0.000000 -0.568065 0.822984
vn 0.000000 -0.748511 0.663123
vn 0.000000 -0.748511 0.663123
vn 0.000000 -0.885456 0.464723
vn 0.000000 -0.885456 0.464723
vn 0.000000 -0.970942 0.239316
vn 0.000000 -0.970942 0.239316
vn 0.000000 -1.000000 0.000000
vn 0.000000 -1.000000 0.000000
vn -0.000000 -0.970942 -0.239316
vn 0.000000 -0.970942 -0.239316
vn -0.000000 -0.885456 -0.464723
vn 0.000000 -0.885456 -0.464723
vn -0.000000 -0.748511 -0.663123
vn 0.000000 -0.748511 -0.663123
vn 0.000000 -0.568065 -0.822984
vn -0.000000 -0.568065 -0.822984
vn 0.000000 -0.354605 -0.935016
vn -0.000000 -0.354605 -0.935016
vn 0.000000 -0.120537 -0.992709
vn -0.000000 -0.120537 -0.992709
vn 0.000000 0.120537 -0.992709
vn 0.000000 0.120537 -0.992709
vn 0.000000 0.354605 -0.935016
vn 0.000000 0.354605 -0.935016
vn 0.000000 0.568065 -0.822984
vn 0.000000 0.568065 -0.822984
vn 0.000000 0.748511 -0.663123
vn 0.000000 0.748511 -0.663123
vn 0.000000 0.885456 -0.464723
vn 0.000000 0.970942 -0.239316
vn 0.000000 0.885456 -0.464723
vn 0.000000 0.970942 -0.239316
vn 0.000000 1.000000 0.000000
vn 0.000000 1.000000 0.000000
vn 0.000000 0.970942 0.239316
vn 0.000000 0.970942 0.239316
vn 0.000000 0.885456 0.464723
vn 0.000000 0.885456 0.464723
vn 0.000000 0.748511 0.663123
vn 0.000000 0.748511 0.663123
vn 0.000000 0.568065 0.822984
vn 0.000000 0.568065 0.822984
vn 0.000000 0.354605 0.935016
vn 0.000000 0.354605 0.935016
vn 0.000000 0.120537 0.992709
vn 0.000000 0.120537 0.992709
vn 0.000000 0.000000 1.000000
vn 0.000000 -0.000000 1.000000
vn 0.000000 0.707107 0.707107
vn 0.000000 0.707107 0.707107
vn 0.000000 -0.707107 0.707107
vn 0.000000 -0.707107 0.707107
vn 0.000000 1.000000 0.000000
vn 0.000000 1.000000 0.000000
vn -0.000000 -1.000000 0.000000
vn 0.000000 -1.000000 0.000000
vn 0.000000 0.707107 -0.707107
vn 0.000000 0.707107 -0.707107
vn 0.000000 -0.707107 -0.707107
vn -0.000000 -0.707107 -0.707107
vn 0.000000 0.000000 -1.000000
vn -0.000000 -0.000000 -1.000000
vn 1.000000 0.000000 0.000000
vn 1.000000 0.000000 0.000000
vn 1.000000 -0.000000 0.000000
vn 1.000000 0.000000 0.000000
vn 1.000000 0.000000 0.000000
vn 1.000000 0.000000 0.000000
vn 1.000000 0.000000 0.000000
vn 1.000000 -0.000000 0.000000
vn 1.000000 0.000000 0.000000
vn 1.000000 0.000000 0.000000
vn 1.000000 0.000000 0.000000
vn 1.000000 -0.000000 0.000000
vn 1.000000 -0.000000 0.000000
vn 1.000000 0.000000 0.000000
vn 1.000000 0.000000 0.000000
vn 1.000000 0.000000 0.000000
vn 1.000000 -0.000000 0.000000
vn 1.000000 0.000000 0.000000
vn 1.000000 0.000000 0.000000
vn 1.000000 0.000000 0.000000
vn 1.000000 -0.000000 0.000000
vn 1.000000 0.000000 0.000000
vn 1.000000 0.000000 0.000000
vn 1.000000 0.000000 0.000000
vn 1.000000 0.000000 0.000000
vn 1.000000 0.000000 0.000000
vn 1.000000 0.000000 0.000000
vn 1.000000 -0.000000 0.000000
vn 1.000000 0.000000 0.000000
vn 1.000000 0.000000 0.000000
vn 1.000000 0.000000 0.000000
vn 1.000000 -0.000000 0.000000
vn 1.000000 0.000000 0.000000
vn 1.000000 0.000000 0.000000
vn 1.000000 0.000000 0.000000
vn 1.000000 -0.000000 0.000000
vn 1.000000 0.000000 0.000000
vn 1.000000 0.000000 0.000000
vn 1.000000 0.000000 0.000000
vn 1.000000 0.000000 0.000000
vn 1.000000 0.000000 0.000000
vn 1.000000 -0.000000 0.000000
vn 1.000000 0.000000 0.000000
vn 1.000000 0.000000 0.000000
vn 1.000000 -0.000000 0.000000
vn 1.000000 0.000000 0.000000
vn 1.000000 0.000000 0.000000
vn 1.000000 0.000000 0.000000
vn 1.000000 -0.000000 0.000000
vn 1.000000 0.000000 0.000000
vn 1.000000 0.000000 0.000000
vn 1.000000 0.000000 0.000000
vn -1.000000 0.000000 0.000000
vn -1.000000 0.000000 0.000000
vn -1.000000 0.000000 0.000000
vn -1.000000 0.000000 0.000000
vn -1.000000 0.000000 0.000000
vn -1.000000 0.000000 0.000000
vn 0.000000 -0.120537 0.992709
vn 0.000000 -0.120537 0.992709
vn 0.000000 -0.354605 0.935016
vn 0.000000 -0.568065 0.822984
vn 0.000000 -0.354605 0.935016
vn 0.000000 -0.568065 0.822984
vn 0.000000 -0.748511 0.663123
vn 0.000000 -0.748511 0.663123
vn 0.000000 -0.885456 0.464723
vn 0.000000 -0.885456 0.464723
vn 0.000000 -0.970942 0.239316
vn 0.000000 -0.970942 0.239316
vn 0.000000 -1.000000 0.000000
vn 0.000000 -1.000000 0.000000
vn -0.000000 -0.970942 -0.239316
vn 0.000000 -0.970942 -0.239316
vn -0.000000 -0.885456 -0.464723
vn -0.000000 -0.748511 -0.663123
vn 0.000000 -0.885456 -0.464723
vn -0.000000 -0.748511 -0.663123
vn 0.000000 -0.568065 -0.822984
vn -0.000000 -0.568065 -0.822984
vn -0.000000 -0.354605 -0.935016
vn -0.000000 -0.354605 -0.935016
vn 0.000000 -0.120537 -0.992709
vn -0.000000 -0.120537 -0.992709
vn 0.000000 0.120537 -0.992709
vn 0.000000 0.120537 -0.992709
vn 0.000000 0.354605 -0.935016
vn 0.000000 0.354605 -0.935016
vn 0.000000 0.568065 -0.822984
vn 0.000000 0.568065 -0.822984
vn 0.000000 0.748511 -0.663123
vn 0.000000 0.748511 -0.663123
vn 0.000000 0.885456 -0.464723
vn 0.000000 0.970942 -0.239316
vn 0.000000 0.885456 -0.464723
vn 0.000000 0.970942 -0.239316
vn 0.000000 1.000000 0.000000
vn 0.000000 1.000000 0.000000
vn 0.000000 0.970942 0.239316
vn 0.000000 0.970942 0.239316
vn 0.000000 0.885456 0.464723
vn 0.000000 0.885456 0.464723
vn 0.000000 0.748511 0.663123
vn 0.000000 0.748511 0.663123
vn 0.000000 0.568065 0.822984
vn 0.000000 0.568065 0.822984
vn 0.000000 0.354605 0.935016
vn 0.000000 0.354605 0.935016
vn 0.000000 0.120537 0.992709
vn 0.000000 0.120537 0.992709
vn 1.000000 0.000000 0.000000
vn 1.000000 0.000000 0.000000
vn 1.000000 0.000000 0.000000
vn 1.000000 0.000000 0.000000
vn 1.000000 0.000000 0.000000
vn 1.000000 0.000000 0.000000
vn 1.000000 0.000000 0.000000
vn 1.000000 0.000000 0.000000
vn 1.000000 0.000000 0.000000
vn 1.000000 0.000000 0.000000
vn 1.000000 0.000000 0.000000
vn 1.000000 0.000000 0.000000
vn 1.000000 0.000000 0.000000
vn 1.000000 0.000000 0.000000
vn 1.000000 0.000000 0.000000
vn 1.000000 0.000000 0.000000
vn 1.000000 0.000000 0.000000
vn 1.000000 0.000000 0.000000
vn 1.000000 0.000000 0.000000
vn 1.000000 -0.000000 0.000000
vn 1.000000 0.000000 0.000000
vn 1.000000 0.000000 0.000000
vn 1.000000 -0.000000 0.000000
vn 1.000000 0.000000 0.000000
f 1//1 2//1 3//1
f 4//2 3//2 5//2
f 4//3 1//3 3//3
f 6//4 4//4 5//4
f 7//5 5//5 8//5
f 7//6 6//6 5//6
f 9//7 8//7 10//7
f 9//8 7//8 8//8
f 11//9 10//9 12//9
f 11//10 12//10 13//10
f 11//11 9//11 10//11
f 14//12 11//12 13//12
f 15//13 13//13 16//13
f 15//14 16//14 17//14
f 15//15 14//15 13//15
f 18//16 15//16 17//16
f 19//17 17//17 20//17
f 19//18 18//18 17//18
f 21//19 20//19 22//19
f 21//20 22//20 23//20
f 21//21 19//21 20//21
f 24//22 21//22 23//22
f 25//23 24//23 23//23
f 25//24 23//24 26//24
f 27//25 25//25 26//25
f 27//26 26//26 28//26
f 29//27 28//27 30//27
f 29//28 27//28 28//28
f 31//29 29//29 30//29
f 31//30 30//30 32//30
f 33//31 32//31 34//31
f 33//32 31//32 32//32
f 35//33 34//33 36//33
f 35//34 33//34 34//34
f 37//35 36//35 38//35
f 37//36 35//36 36//36
f 39//37 38//37 40//37
f 39//38 37//38 38//38
f 41//39 40//39 42//39
f 41//40 39//40 40//40
f 43//41 42//41 44//41
f 43//42 41//42 42//42
f 45//43 44//43 46//43
f 45//44 43//44 44//44
f 47//45 46//45 48//45
f 47//46 45//46 46//46
f 49//47 48//47 50//47
f 49//48 47//48 48//48
f 51//49 50//49 52//49
f 51//50 49//50 50//50
f 1//51 52//51 2//51
f 1//52 51//52 52//52
f 53//53 33//53 35//53
f 53//54 54//54 33//54
f 55//55 31//55 33//55
f 55//56 33//56 54//56
f 56//57 35//57 37//57
f 56//58 53//58 35//58
f 57//59 29//59 31//59
f 57//60 31//60 55//60
f 58//61 37//61 39//61
f 58//62 56//62 37//62
f 59//63 27//63 29//63
f 59//64 29//64 57//64
f 60//65 39//65 41//65
f 60//66 58//66 39//66
f 25//67 27//67 59//67
f 61//68 25//68 59//68
f 62//69 41//69 43//69
f 62//70 60//70 41//70
f 24//71 25//71 61//71
f 63//72 24//72 61//72
f 64//73 43//73 45//73
f 64//74 62//74 43//74
f 65//75 24//75 63//75
f 65//76 21//76 24//76
f 47//77 64//77 45//77
f 47//78 66//78 64//78
f 19//79 65//79 67//79
f 19//80 21//80 65//80
f 49//81 66//81 47//81
f 49//82 68//82 66//82
f 18//83 19//83 67//83
f 18//84 67//84 69//84
f 51//85 68//85 49//85
f 51//86 70//86 68//86
f 71//87 70//87 51//87
f 15//88 18//88 69//88
f 15//89 69//89 72//89
f 1//90 71//90 51//90
f 14//91 72//91 73//91
f 14//92 15//92 72//92
f 4//93 74//93 71//93
f 4//94 71//94 1//94
f 11//95 14//95 73//95
f 11//96 73//96 75//96
f 6//97 74//97 4//97
f 6//98 76//98 74//98
f 6//99 77//99 76//99
f 9//100 75//100 78//100
f 9//101 11//101 75//101
f 7//102 78//102 77//102
f 7//103 9//103 78//103
f 7//104 77//104 6//104
f 34//105 79//105 80//105
f 36//106 34//106 80//106
f 32//107 79//107 34//107
f 38//108 36//108 80//108
f 30//109 79//109 32//109
f 40//110 38//110 80//110
f 28//111 81//111 79//111
f 28//112 79//112 30//112
f 42//113 80//113 82//113
f 42//114 40//114 80//114
f 26//115 81//115 28//115
f 44//116 42//116 82//116
f 23//117 81//117 26//117
f 46//118 44//118 82//118
f 22//119 81//119 23//119
f 48//120 46//120 82//120
f 83//121 17//121 16//121
f 83//122 20//122 17//122
f 83//123 22//123 20//123
f 83//124 81//124 22//124
f 84//125 50//125 48//125
f 84//126 52//126 50//126
f 84//127 2//127 52//127
f 84//128 48//128 82//128
f 85//129 3//129 2//129
f 85//130 5//130 3//130
f 85//131 8//131 5//131
f 85//132 2//132 84//132
f 86//133 8//133 85//133
f 86//134 10//134 8//134
f 86//135 12//135 10//135
f 86//136 13//136 12//136
f 86//137 16//137 13//137
f 86//138 83//138 16//138
f 87//139 71//139 74//139
f 87//140 88//140 71//140
f 89//141 74//141 76//141
f 89//142 87//142 74//142
f 90//143 76//143 77//143
f 90//144 89//144 76//144
f 91//145 77//145 78//145
f 91//146 90//146 77//146
f 92//147 78//147 75//147
f 92//148 91//148 78//148
f 93//149 75//149 73//149
f 93//150 92//150 75//150
f 94//151 73//151 72//151
f 94//152 93//152 73//152
f 95//153 72//153 69//153
f 95//154 94//154 72//154
f 96//155 69//155 67//155
f 96//156 95//156 69//156
f 97//157 67//157 65//157
f 97//158 96//158 67//158
f 98//159 97//159 65//159
f 98//160 65//160 63//160
f 99//161 98//161 63//161
f 99//162 63//162 61//162
f 100//163 99//163 61//163
f 100//164 61//164 59//164
f 100//165 59//165 57//165
f 101//166 100//166 57//166
f 102//167 57//167 55//167
f 102//168 101//168 57//168
f 102//169 55//169 54//169
f 103//170 102//170 54//170
f 104//171 54//171 53//171
f 104//172 103//172 54//172
f 105//173 53//173 56//173
f 105//174 56//174 58//174
f 105//175 104//175 53//175
f 106//176 105//176 58//176
f 107//177 58//177 60//177
f 107//178 106//178 58//178
f 108//179 60//179 62//179
f 108//180 107//180 60//180
f 109//181 62//181 64//181
f 109//182 108//182 62//182
f 110//183 64//183 66//183
f 110//184 109//184 64//184
f 111//185 66//185 68//185
f 111//186 110//186 66//186
f 112//187 68//187 70//187
f 112//188 111//188 68//188
f 88//189 70//189 71//189
f 88//190 112//190 70//190
f 84//191 113//191 114//191
f 85//192 84//192 114//192
f 84//193 82//193 115//193
f 84//194 115//194 113//194
f 86//195 85//195 114//195
f 86//196 114//196 116//196
f 80//197 117//197 115//197
f 82//198 80//198 115//198
f 86//199 116//199 118//199
f 83//200 86//200 118//200
f 80//201 79//201 119//201
f 80//202 119//202 117//202
f 81//203 83//203 118//203
f 81//204 118//204 120//204
f 81//205 120//205 119//205
f 79//206 81//206 119//206
f 121//207 103//207 104//207
f 121//208 122//208 103//208
f 123//209 102//209 103//209
f 123//210 103//210 122//210
f 124//211 104//211 105//211
f 124//212 121//212 104//212
f 101//213 102//213 123//213
f 125//214 101//214 123//214
f 126//215 105//215 106//215
f 126//216 124//216 105//216
f 127//217 100//217 101//217
f 127//218 101//218 125//218
f 128//219 106//219 107//219
f 128//220 126//220 106//220
f 129//221 99//221 100//221
f 129//222 100//222 127//222
f 130//223 107//223 108//223
f 130//224 128//224 107//224
f 131//225 98//225 99//225
f 131//226 99//226 129//226
f 132//227 108//227 109//227
f 132//228 130//228 108//228
f 133//229 97//229 98//229
f 133//230 98//230 131//230
f 110//231 134//231 132//231
f 110//232 132//232 109//232
f 135//233 97//233 133//233
f 96//234 97//234 135//234
f 111//235 134//235 110//235
f 111//236 136//236 134//236
f 95//237 96//237 135//237
f 95//238 135//238 137//238
f 112//239 136//239 111//239
f 112//240 138//240 136//240
f 94//241 95//241 137//241
f 94//242 137//242 139//242
f 88//243 138//243 112//243
f 88//244 140//244 138//244
f 93//245 94//245 139//245
f 93//246 139//246 141//246
f 87//247 142//247 140//247
f 87//248 140//248 88//248
f 92//249 141//249 143//249
f 92//250 93//250 141//250
f 89//251 144//251 142//251
f 89//252 142//252 87//252
f 91//253 143//253 145//253
f 91//254 92//254 143//254
f 90//255 146//255 144//255
f 90//256 145//256 146//256
f 90//257 144//257 89//257
f 90//258 91//258 145//258
f 119//259 115//259 117//259
f 119//260 120//260 115//260
f 118//261 114//261 120//261
f 115//262 114//262 113//262
f 120//263 114//263 115//263
f 118//264 116//264 114//264
f 147//265 140//265 142//265
f 147//266 148//266 140//266
f 149//267 142//267 144//267
f 149//268 144//268 146//268
f 149//269 147//269 142//269
f 150//270 149//270 146//270
f 151//271 146//271 145//271
f 151//272 150//272 146//272
f 152//273 145//273 143//273
f 152//274 151//274 145//274
f 153//275 143//275 141//275
f 153//276 152//276 143//276
f 154//277 141//277 139//277
f 154//278 153//278 141//278
f 155//279 139//279 137//279
f 155//280 154//280 139//280
f 156//281 137//281 135//281
f 156//282 135//282 133//282
f 156//283 155//283 137//283
f 157//284 156//284 133//284
f 158//285 157//285 133//285
f 158//286 133//286 131//286
f 158//287 131//287 129//287
f 159//288 158//288 129//288
f 160//289 159//289 129//289
f 160//290 129//290 127//290
f 161//291 127//291 125//291
f 161//292 160//292 127//292
f 162//293 161//293 125//293
f 162//294 125//294 123//294
f 163//295 123//295 122//295
f 163//296 162//296 123//296
f 164//297 122//297 121//297
f 164//298 163//298 122//298
f 165//299 121//299 124//299
f 165//300 124//300 126//300
f 165//301 164//301 121//301
f 166//302 165//302 126//302
f 167//303 126//303 128//303
f 167//304 166//304 126//304
f 168//305 128//305 130//305
f 168//306 167//306 128//306
f 169//307 130//307 132//307
f 169//308 168//308 130//308
f 170//309 132//309 134//309
f 170//310 169//310 132//310
f 171//311 134//311 136//311
f 171//312 170//312 134//312
f 172//313 136//313 138//313
f 172//314 171//314 136//314
f 148//315 138//315 140//315
f 148//316 172//316 138//316
f 160//317 161//317 162//317
f 167//318 165//318 166//318
f 170//319 163//319 164//319
f 170//320 164//320 165//320
f 170//321 167//321 168//321
f 170//322 168//322 169//322
f 170//323 165//323 167//323
f 172//324 170//324 171//324
f 154//325 155//325 156//325
f 154//326 156//326 157//326
f 148//327 162//327 163//327
f 148//328 160//328 162//328
f 148//329 163//329 170//329
f 148//330 170//330 172//330
f 153//331 154//331 157//331
f 152//332 157//332 158//332
f 152//333 153//333 157//333
f 149//334 148//334 147//334
f 149//335 159//335 160//335
f 149//336 160//336 148//336
f 150//337 151//337 152//337
f 150//338 158//338 159//338
f 150//339 159//339 149//339
f 150//340 152//340 158//340
