# Created by FreeCAD <https://www.freecad.org>
v 0.000000 7.474447 1.705994
v 0.000000 7.666667 0.000000
v 80.000000 7.666667 0.000000
v 80.000000 7.474447 1.705994
v 0.000000 6.907428 3.326442
v 80.000000 6.907428 3.326442
v 0.000000 5.994041 4.780088
v 80.000000 5.994041 4.780088
v 0.000000 4.780088 5.994041
v 80.000000 4.780088 5.994041
v 0.000000 3.326442 6.907428
v 80.000000 3.326442 6.907428
v 0.000000 1.705994 7.474447
v 80.000000 1.705994 7.474447
v 80.000000 0.000000 7.666667
v 0.000000 0.000000 7.666667
v 0.000000 -1.705994 7.474447
v 80.000000 -1.705994 7.474447
v 0.000000 -3.326442 6.907428
v 80.000000 -3.326442 6.907428
v 0.000000 -4.780088 5.994041
v 80.000000 -4.780088 5.994041
v 0.000000 -5.994041 4.780088
v 80.000000 -5.994041 4.780088
v 0.000000 -6.907428 3.326442
v 80.000000 -6.907428 3.326442
v 80.000000 -7.474447 1.705994
v 0.000000 -7.474447 1.705994
v 0.000000 -7.666667 0.000000
v 80.000000 -7.666667 0.000000
v 0.000000 -7.474447 -1.705994
v 80.000000 -7.474447 -1.705994
v 0.000000 -6.907428 -3.326442
v 80.000000 -6.907428 -3.326442
v 0.000000 -5.994041 -4.780088
v 80.000000 -5.994041 -4.780088
v 80.000000 -4.780088 -5.994041
v 0.000000 -4.780088 -5.994041
v 0.000000 -3.326442 -6.907428
v 80.000000 -3.326442 -6.907428
v 0.000000 -1.705994 -7.474447
v 80.000000 -1.705994 -7.474447
v 0.000000 -0.000000 -7.666667
v 80.000000 -0.000000 -7.666667
v 0.000000 1.705994 -7.474447
v 80.000000 1.705994 -7.474447
v 0.000000 3.326442 -6.907428
v 80.000000 3.326442 -6.907428
v 0.000000 4.780088 -5.994041
v 80.000000 4.780088 -5.994041
v 0.000000 5.994041 -4.780088
v 80.000000 5.994041 -4.780088
v 0.000000 6.907428 -3.326442
v 80.000000 6.907428 -3.326442
v 0.000000 7.474447 -1.705994
v 80.000000 7.474447 -1.705994
v 80.000000 -18.137714 -12.450836
v 80.000000 -16.316347 -14.757264
v 80.000000 -14.203813 -16.800348
v 80.000000 -11.837811 -18.543631
v 80.000000 -9.260565 -19.955999
v 80.000000 -6.518063 -21.012255
v 80.000000 -20.782721 -7.216547
v 80.000000 -19.635414 -9.922223
v 80.000000 -3.659246 -21.693546
v 80.000000 -21.950871 -1.469438
v 80.000000 -21.559158 -4.382092
v 80.000000 -0.735129 -21.987715
v 80.000000 2.202105 -21.889511
v 80.000000 -21.950871 1.469438
v 80.000000 5.100043 -21.400690
v 80.000000 7.906971 -20.529974
v 80.000000 -20.782721 7.216547
v 80.000000 -21.559158 4.382092
v 80.000000 10.572799 -19.292898
v 80.000000 -18.137714 12.450836
v 80.000000 -19.635414 9.922223
v 80.000000 13.049954 -17.711540
v 80.000000 -16.316347 14.757264
v 80.000000 15.294233 -15.814121
v 80.000000 -14.203813 16.800348
v 80.000000 17.265587 -13.634498
v 80.000000 -11.837811 18.543631
v 80.000000 18.928835 -11.211566
v 80.000000 -9.260565 19.955999
v 80.000000 20.254297 -8.588564
v 80.000000 -6.518063 21.012255
v 80.000000 21.218323 -5.812299
v 80.000000 -3.659246 21.693546
v 80.000000 21.803705 -2.932313
v 80.000000 -0.735129 21.987715
v 80.000000 22.000000 0.000000
v 80.000000 2.202105 21.889511
v 80.000000 21.803705 2.932313
v 80.000000 5.100043 21.400690
v 80.000000 21.218323 5.812299
v 80.000000 7.906971 20.529974
v 80.000000 20.254297 8.588564
v 80.000000 10.572799 19.292898
v 80.000000 18.928835 11.211566
v 80.000000 13.049954 17.711540
v 80.000000 17.265587 13.634498
v 80.000000 15.294233 15.814121
v 61.000000 22.000000 0.000000
v 61.000000 21.803705 2.932313
v 61.000000 21.218323 5.812299
v 61.000000 20.254297 8.588564
v 61.000000 18.928835 11.211566
v 61.000000 17.265587 13.634498
v 61.000000 15.294233 15.814121
v 61.000000 13.049954 17.711540
v 61.000000 10.572799 19.292898
v 61.000000 7.906971 20.529974
v 61.000000 5.100043 21.400690
v 61.000000 2.202105 21.889511
v 61.000000 -0.735129 21.987715
v 61.000000 -3.659246 21.693546
v 61.000000 -6.518063 21.012255
v 61.000000 -9.260565 19.955999
v 61.000000 -11.837811 18.543631
v 61.000000 -14.203813 16.800348
v 61.000000 -16.316347 14.757264
v 61.000000 -18.137714 12.450836
v 61.000000 -19.635414 9.922223
v 61.000000 -20.782721 7.216547
v 61.000000 -21.559158 4.382092
v 61.000000 -21.950871 1.469438
v 61.000000 -21.950871 -1.469438
v 61.000000 -21.559158 -4.382092
v 61.000000 -20.782721 -7.216547
v 61.000000 -19.635414 -9.922223
v 61.000000 -18.137714 -12.450836
v 61.000000 -16.316347 -14.757264
v 61.000000 -14.203813 -16.800348
v 61.000000 -11.837811 -18.543631
v 61.000000 -9.260565 -19.955999
v 61.000000 -6.518063 -21.012255
v 61.000000 -3.659246 -21.693546
v 61.000000 -0.735129 -21.987715
v 61.000000 2.202105 -21.889511
v 61.000000 5.100043 -21.400690
v 61.000000 7.906971 -20.529974
v 61.000000 10.572799 -19.292898
v 61.000000 13.049954 -17.711540
v 61.000000 15.294233 -15.814121
v 61.000000 17.265587 -13.634498
v 61.000000 18.928835 -11.211566
v 61.000000 20.254297 -8.588564
v 61.000000 21.218323 -5.812299
v 61.000000 21.803705 -2.932313
v 61.000000 -18.247128 -14.001513
v 61.000000 -16.263456 -16.263456
v 61.000000 -14.001513 -18.247128
v 61.000000 -19.918585 -11.500000
v 61.000000 -11.500000 -19.918585
v 61.000000 -21.249229 -8.801719
v 61.000000 -8.801719 -21.249229
v 61.000000 -22.216293 -5.952838
v 61.000000 -5.952838 -22.216293
v 61.000000 -22.803232 -3.002102
v 61.000000 -3.002102 -22.803232
v 61.000000 -23.000000 0.000000
v 61.000000 -0.000000 -23.000000
v 61.000000 -22.803232 3.002102
v 61.000000 3.002102 -22.803232
v 61.000000 5.952838 -22.216293
v 61.000000 -22.216293 5.952838
v 61.000000 8.801719 -21.249229
v 61.000000 -21.249229 8.801719
v 61.000000 11.500000 -19.918585
v 61.000000 -19.918585 11.500000
v 61.000000 14.001513 -18.247128
v 61.000000 -18.247128 14.001513
v 61.000000 16.263456 -16.263456
v 61.000000 -16.263456 16.263456
v 61.000000 18.247128 -14.001513
v 61.000000 -14.001513 18.247128
v 61.000000 19.918585 -11.500000
v 61.000000 -11.500000 19.918585
v 61.000000 21.249229 -8.801719
v 61.000000 -8.801719 21.249229
v 61.000000 22.216293 -5.952838
v 61.000000 -5.952838 22.216293
v 61.000000 22.803232 -3.002102
v 61.000000 -3.002102 22.803232
v 61.000000 23.000000 0.000000
v 61.000000 -0.000000 23.000000
v 61.000000 22.803232 3.002102
v 61.000000 3.002102 22.803232
v 61.000000 5.952838 22.216293
v 61.000000 22.216293 5.952838
v 61.000000 21.249229 8.801719
v 61.000000 8.801719 21.249229
v 61.000000 11.500000 19.918585
v 61.000000 19.918585 11.500000
v 61.000000 14.001513 18.247128
v 61.000000 18.247128 14.001513
v 61.000000 16.263456 16.263456
v 36.500000 23.000000 0.000000
v 36.500000 22.803232 3.002102
v 36.500000 22.216293 5.952838
v 36.500000 21.249229 8.801719
v 36.500000 19.918585 11.500000
v 36.500000 18.247128 14.001513
v 36.500000 16.263456 16.263456
v 36.500000 14.001513 18.247128
v 36.500000 11.500000 19.918585
v 36.500000 8.801719 21.249229
v 36.500000 5.952838 22.216293
v 36.500000 3.002102 22.803232
v 36.500000 -0.000000 23.000000
v 36.500000 -3.002102 22.803232
v 36.500000 -5.952838 22.216293
v 36.500000 -8.801719 21.249229
v 36.500000 -11.500000 19.918585
v 36.500000 -14.001513 18.247128
v 36.500000 -16.263456 16.263456
v 36.500000 -18.247128 14.001513
v 36.500000 -19.918585 11.500000
v 36.500000 -21.249229 8.801719
v 36.500000 -22.216293 5.952838
v 36.500000 -22.803232 3.002102
v 36.500000 -23.000000 0.000000
v 36.500000 -22.803232 -3.002102
v 36.500000 -22.216293 -5.952838
v 36.500000 -21.249229 -8.801719
v 36.500000 -19.918585 -11.500000
v 36.500000 -18.247128 -14.001513
v 36.500000 -16.263456 -16.263456
v 36.500000 -14.001513 -18.247128
v 36.500000 -11.500000 -19.918585
v 36.500000 -8.801719 -21.249229
v 36.500000 -5.952838 -22.216293
v 36.500000 -3.002102 -22.803232
v 36.500000 -0.000000 -23.000000
v 36.500000 3.002102 -22.803232
v 36.500000 5.952838 -22.216293
v 36.500000 8.801719 -21.249229
v 36.500000 11.500000 -19.918585
v 36.500000 14.001513 -18.247128
v 36.500000 16.263456 -16.263456
v 36.500000 18.247128 -14.001513
v 36.500000 19.918585 -11.500000
v 36.500000 21.249229 -8.801719
v 36.500000 22.216293 -5.952838
v 36.500000 22.803232 -3.002102
v 36.500000 -18.274702 -15.557482
v 36.500000 -16.135221 -17.766672
v 36.500000 -13.730800 -19.684134
v 36.500000 -20.114115 -13.092837
v 36.500000 -11.100919 -21.278383
v 36.500000 -21.623253 -10.413210
v 36.500000 -8.288761 -22.523243
v 36.500000 -22.777338 -7.562597
v 36.500000 -5.340502 -23.398270
v 36.500000 -23.557419 -4.587807
v 36.500000 -2.304553 -23.889099
v 36.500000 -23.950689 -1.537685
v 36.500000 0.769238 -23.987669
v 36.500000 -23.950689 1.537685
v 36.500000 3.830397 -23.692364
v 36.500000 -23.557419 4.587807
v 36.500000 6.828662 -23.008028
v 36.500000 -22.777338 7.562597
v 36.500000 9.714800 -21.945904
v 36.500000 -21.623253 10.413210
v 36.500000 12.441422 -20.523426
v 36.500000 -20.114115 13.092837
v 36.500000 14.963756 -18.763956
v 36.500000 -18.274702 15.557482
v 36.500000 17.240385 -16.696381
v 36.500000 -16.135221 17.766672
v 36.500000 19.233927 -14.354652
v 36.500000 -13.730800 19.684134
v 36.500000 20.911650 -11.777222
v 36.500000 -11.100919 21.278383
v 36.500000 22.246002 -9.006408
v 36.500000 -8.288761 22.523243
v 36.500000 23.215076 -6.087710
v 36.500000 -5.340502 23.398270
v 36.500000 23.802959 -3.069052
v 36.500000 -2.304553 23.889099
v 36.500000 24.000000 0.000000
v 36.500000 0.769238 23.987669
v 36.500000 23.802959 3.069052
v 36.500000 3.830397 23.692364
v 36.500000 23.215076 6.087710
v 36.500000 6.828662 23.008028
v 36.500000 22.246002 9.006408
v 36.500000 9.714800 21.945904
v 36.500000 20.911650 11.777222
v 36.500000 12.441422 20.523426
v 36.500000 19.233927 14.354652
v 36.500000 14.963756 18.763956
v 36.500000 17.240385 16.696381
v 16.500000 24.000000 0.000000
v 16.500000 23.802959 3.069052
v 16.500000 23.215076 6.087710
v 16.500000 22.246002 9.006408
v 16.500000 20.911650 11.777222
v 16.500000 19.233927 14.354652
v 16.500000 17.240385 16.696381
v 16.500000 14.963756 18.763956
v 16.500000 12.441422 20.523426
v 16.500000 9.714800 21.945904
v 16.500000 6.828662 23.008028
v 16.500000 3.830397 23.692364
v 16.500000 0.769238 23.987669
v 16.500000 -2.304553 23.889099
v 16.500000 -5.340502 23.398270
v 16.500000 -8.288761 22.523243
v 16.500000 -11.100919 21.278383
v 16.500000 -13.730800 19.684134
v 16.500000 -16.135221 17.766672
v 16.500000 -18.274702 15.557482
v 16.500000 -20.114115 13.092837
v 16.500000 -21.623253 10.413210
v 16.500000 -22.777338 7.562597
v 16.500000 -23.557419 4.587807
v 16.500000 -23.950689 1.537685
v 16.500000 -23.950689 -1.537685
v 16.500000 -23.557419 -4.587807
v 16.500000 -22.777338 -7.562597
v 16.500000 -21.623253 -10.413210
v 16.500000 -20.114115 -13.092837
v 16.500000 -18.274702 -15.557482
v 16.500000 -16.135221 -17.766672
v 16.500000 -13.730800 -19.684134
v 16.500000 -11.100919 -21.278383
v 16.500000 -8.288761 -22.523243
v 16.500000 -5.340502 -23.398270
v 16.500000 -2.304553 -23.889099
v 16.500000 0.769238 -23.987669
v 16.500000 3.830397 -23.692364
v 16.500000 6.828662 -23.008028
v 16.500000 9.714800 -21.945904
v 16.500000 12.441422 -20.523426
v 16.500000 14.963756 -18.763956
v 16.500000 17.240385 -16.696381
v 16.500000 19.233927 -14.354652
v 16.500000 20.911650 -11.777222
v 16.500000 22.246002 -9.006408
v 16.500000 23.215076 -6.087710
v 16.500000 23.802959 -3.069052
v 16.500000 8.498603 -7.747500
v 16.500000 6.930298 -9.177198
v 16.500000 9.777497 -6.053970
v 16.500000 5.125991 -10.294378
v 16.500000 10.723431 -4.154279
v 16.500000 3.147124 -11.060995
v 16.500000 11.304191 -2.113119
v 16.500000 1.061086 -11.450943
v 16.500000 11.500000 0.000000
v 16.500000 -1.061086 -11.450943
v 16.500000 11.304191 2.113119
v 16.500000 -3.147124 -11.060995
v 16.500000 10.723431 4.154279
v 16.500000 -5.125991 -10.294378
v 16.500000 9.777497 6.053970
v 16.500000 -6.930298 -9.177198
v 16.500000 8.498603 7.747500
v 16.500000 -8.498603 -7.747500
v 16.500000 6.930298 9.177198
v 16.500000 -9.777497 -6.053970
v 16.500000 5.125991 10.294378
v 16.500000 -10.723431 -4.154279
v 16.500000 3.147124 11.060995
v 16.500000 -11.304191 -2.113119
v 16.500000 1.061086 11.450943
v 16.500000 -11.500000 0.000000
v 16.500000 -1.061086 11.450943
v 16.500000 -11.304191 2.113119
v 16.500000 -3.147124 11.060995
v 16.500000 -10.723431 4.154279
v 16.500000 -5.125991 10.294378
v 16.500000 -9.777497 6.053970
v 16.500000 -6.930298 9.177198
v 16.500000 -8.498603 7.747500
v 0.000000 11.500000 0.000000
v 0.000000 11.304191 2.113119
v 0.000000 10.723431 4.154279
v 0.000000 9.777497 6.053970
v 0.000000 8.498603 7.747500
v 0.000000 6.930298 9.177198
v 0.000000 5.125991 10.294378
v 0.000000 3.147124 11.060995
v 0.000000 1.061086 11.450943
v 0.000000 -1.061086 11.450943
v 0.000000 -3.147124 11.060995
v 0.000000 -5.125991 10.294378
v 0.000000 -6.930298 9.177198
v 0.000000 -8.498603 7.747500
v 0.000000 -9.777497 6.053970
v 0.000000 -10.723431 4.154279
v 0.000000 -11.304191 2.113119
v 0.000000 -11.500000 0.000000
v 0.000000 -11.304191 -2.113119
v 0.000000 -10.723431 -4.154279
v 0.000000 -9.777497 -6.053970
v 0.000000 -8.498603 -7.747500
v 0.000000 -6.930298 -9.177198
v 0.000000 -5.125991 -10.294378
v 0.000000 -3.147124 -11.060995
v 0.000000 -1.061086 -11.450943
v 0.000000 1.061086 -11.450943
v 0.000000 3.147124 -11.060995
v 0.000000 5.125991 -10.294378
v 0.000000 6.930298 -9.177198
v 0.000000 8.498603 -7.747500
v 0.000000 9.777497 -6.053970
v 0.000000 10.723431 -4.154279
v 0.000000 11.304191 -2.113119
vn 0.000000 -0.993712 -0.111964
vn 0.000000 -0.993712 -0.111964
vn 0.000000 -0.943883 -0.330279
vn 0.000000 -0.943883 -0.330279
vn 0.000000 -0.846724 -0.532032
vn 0.000000 -0.846724 -0.532032
vn 0.000000 -0.707107 -0.707107
vn 0.000000 -0.707107 -0.707107
vn 0.000000 -0.532032 -0.846724
vn 0.000000 -0.532032 -0.846724
vn 0.000000 -0.330279 -0.943883
vn 0.000000 -0.111964 -0.993712
vn 0.000000 -0.330279 -0.943883
vn 0.000000 -0.111964 -0.993712
vn 0.000000 0.111964 -0.993712
vn 0.000000 0.111964 -0.993712
vn 0.000000 0.330279 -0.943883
vn 0.000000 0.330279 -0.943883
vn 0.000000 0.532032 -0.846724
vn 0.000000 0.532032 -0.846724
vn 0.000000 0.707107 -0.707107
vn 0.000000 0.707107 -0.707107
vn 0.000000 0.846724 -0.532032
vn 0.000000 0.846724 -0.532032
vn 0.000000 0.943883 -0.330279
vn 0.000000 0.943883 -0.330279
vn 0.000000 0.993712 -0.111964
vn 0.000000 0.993712 -0.111964
vn 0.000000 0.993712 0.111964
vn -0.000000 0.993712 0.111964
vn 0.000000 0.943883 0.330279
vn -0.000000 0.943883 0.330279
vn 0.000000 0.846724 0.532032
vn -0.000000 0.846724 0.532032
vn -0.000000 0.707107 0.707107
vn -0.000000 0.707107 0.707107
vn 0.000000 0.532032 0.846724
vn -0.000000 0.532032 0.846724
vn 0.000000 0.330279 0.943883
vn -0.000000 0.330279 0.943883
vn 0.000000 0.111964 0.993712
vn -0.000000 0.111964 0.993712
vn 0.000000 -0.111964 0.993712
vn 0.000000 -0.111964 0.993712
vn 0.000000 -0.330279 0.943883
vn 0.000000 -0.330279 0.943883
vn 0.000000 -0.532032 0.846724
vn 0.000000 -0.532032 0.846724
vn 0.000000 -0.707107 0.707107
vn 0.000000 -0.707107 0.707107
vn 0.000000 -0.846724 0.532032
vn 0.000000 -0.846724 0.532032
vn 0.000000 -0.943883 0.330279
vn 0.000000 -0.943883 0.330279
vn 0.000000 -0.993712 0.111964
vn 0.000000 -0.993712 0.111964
vn 1.000000 0.000000 0.000000
vn 1.000000 0.000000 0.000000
vn 1.000000 0.000000 0.000000
vn 1.000000 0.000000 0.000000
vn 1.000000 0.000000 0.000000
vn 1.000000 0.000000 0.000000
vn 1.000000 0.000000 0.000000
vn 1.000000 0.000000 0.000000
vn 1.000000 0.000000 0.000000
vn 1.000000 0.000000 0.000000
vn 1.000000 0.000000 0.000000
vn 1.000000 0.000000 0.000000
vn 1.000000 0.000000 0.000000
vn 1.000000 0.000000 0.000000
vn 1.000000 0.000000 0.000000
vn 1.000000 0.000000 0.000000
vn 1.000000 0.000000 0.000000
vn 1.000000 0.000000 0.000000
vn 1.000000 0.000000 0.000000
vn 1.000000 0.000000 0.000000
vn 1.000000 0.000000 0.000000
vn 1.000000 0.000000 0.000000
vn 1.000000 0.000000 0.000000
vn 1.000000 0.000000 0.000000
vn 1.000000 0.000000 0.000000
vn 1.000000 0.000000 0.000000
vn 1.000000 0.000000 0.000000
vn 1.000000 0.000000 0.000000
vn 1.000000 0.000000 0.000000
vn 1.000000 0.000000 0.000000
vn 1.000000 0.000000 0.000000
vn 1.000000 0.000000 0.000000
vn 1.000000 0.000000 0.000000
vn 1.000000 0.000000 0.000000
vn 1.000000 0.000000 0.000000
vn 1.000000 0.000000 0.000000
vn 1.000000 0.000000 0.000000
vn 1.000000 0.000000 0.000000
vn 1.000000 0.000000 0.000000
vn 1.000000 0.000000 0.000000
vn 1.000000 0.000000 0.000000
vn 1.000000 0.000000 0.000000
vn 1.000000 0.000000 0.000000
vn 1.000000 0.000000 0.000000
vn 1.000000 0.000000 0.000000
vn 1.000000 0.000000 0.000000
vn 1.000000 0.000000 0.000000
vn 1.000000 0.000000 0.000000
vn 1.000000 0.000000 0.000000
vn 1.000000 0.000000 0.000000
vn 1.000000 0.000000 0.000000
vn 1.000000 0.000000 0.000000
vn 1.000000 0.000000 0.000000
vn 1.000000 0.000000 0.000000
vn 1.000000 0.000000 0.000000
vn 1.000000 0.000000 0.000000
vn 1.000000 0.000000 0.000000
vn 1.000000 0.000000 0.000000
vn 1.000000 0.000000 0.000000
vn 1.000000 0.000000 0.000000
vn 1.000000 0.000000 0.000000
vn 1.000000 0.000000 0.000000
vn 1.000000 0.000000 0.000000
vn 1.000000 0.000000 0.000000
vn 1.000000 0.000000 0.000000
vn 1.000000 0.000000 0.000000
vn 1.000000 0.000000 0.000000
vn 1.000000 0.000000 0.000000
vn 1.000000 0.000000 0.000000
vn 1.000000 0.000000 0.000000
vn 1.000000 0.000000 0.000000
vn 1.000000 0.000000 0.000000
vn 1.000000 0.000000 0.000000
vn 1.000000 0.000000 0.000000
vn 1.000000 0.000000 0.000000
vn 0.000000 0.997767 0.066792
vn 0.000000 0.997767 0.066792
vn 0.000000 0.979962 0.199186
vn 0.000000 0.979962 0.199186
vn 0.000000 0.944669 0.328025
vn 0.000000 0.892519 0.451010
vn 0.000000 0.944669 0.328025
vn 0.000000 0.824442 0.565947
vn 0.000000 0.892519 0.451010
vn 0.000000 0.824442 0.565947
vn 0.000000 0.741652 0.670785
vn 0.000000 0.741652 0.670785
vn 0.000000 0.645628 0.763652
vn 0.000000 0.645628 0.763652
vn 0.000000 0.538083 0.842892
vn 0.000000 0.420935 0.907091
vn 0.000000 0.538083 0.842892
vn 0.000000 0.420935 0.907091
vn 0.000000 0.296275 0.955103
vn 0.000000 0.296275 0.955103
vn 0.000000 0.166329 0.986070
vn 0.000000 0.166329 0.986070
vn 0.000000 0.033415 0.999442
vn 0.000000 0.033415 0.999442
vn 0.000000 -0.100096 0.994978
vn 0.000000 -0.231820 0.972759
vn 0.000000 -0.100096 0.994978
vn 0.000000 -0.231820 0.972759
vn 0.000000 -0.359408 0.933181
vn 0.000000 -0.359408 0.933181
vn 0.000000 -0.480581 0.876950
vn 0.000000 -0.480581 0.876950
vn 0.000000 -0.593180 0.805070
vn 0.000000 -0.593180 0.805070
vn 0.000000 -0.695192 0.718824
vn 0.000000 -0.695192 0.718824
vn 0.000000 -0.784800 0.619750
vn 0.000000 -0.860402 0.509617
vn 0.000000 -0.784800 0.619750
vn 0.000000 -0.920650 0.390389
vn 0.000000 -0.860402 0.509617
vn 0.000000 -0.920650 0.390389
vn 0.000000 -0.964469 0.264195
vn 0.000000 -0.964469 0.264195
vn 0.000000 -0.991078 0.133286
vn -0.000000 -1.000000 0.000000
vn 0.000000 -0.991078 0.133286
vn 0.000000 -1.000000 0.000000
vn -0.000000 -0.991078 -0.133286
vn 0.000000 -0.991078 -0.133286
vn 0.000000 -0.964469 -0.264195
vn -0.000000 -0.964469 -0.264195
vn 0.000000 -0.920650 -0.390389
vn -0.000000 -0.920650 -0.390389
vn 0.000000 -0.860402 -0.509617
vn -0.000000 -0.860402 -0.509617
vn 0.000000 -0.784800 -0.619750
vn -0.000000 -0.784800 -0.619750
vn -0.000000 -0.695192 -0.718824
vn -0.000000 -0.695192 -0.718824
vn 0.000000 -0.593180 -0.805070
vn -0.000000 -0.593180 -0.805070
vn 0.000000 -0.480581 -0.876950
vn -0.000000 -0.480581 -0.876950
vn 0.000000 -0.359408 -0.933181
vn -0.000000 -0.359408 -0.933181
vn 0.000000 -0.231820 -0.972759
vn -0.000000 -0.231820 -0.972759
vn -0.000000 -0.100096 -0.994978
vn 0.000000 -0.100096 -0.994978
vn 0.000000 0.033415 -0.999442
vn 0.000000 0.033415 -0.999442
vn 0.000000 0.166329 -0.986070
vn 0.000000 0.166329 -0.986070
vn 0.000000 0.296275 -0.955103
vn 0.000000 0.296275 -0.955103
vn 0.000000 0.420935 -0.907091
vn 0.000000 0.420935 -0.907091
vn 0.000000 0.538083 -0.842892
vn 0.000000 0.645628 -0.763652
vn 0.000000 0.538083 -0.842892
vn 0.000000 0.645628 -0.763652
vn 0.000000 0.741652 -0.670785
vn 0.000000 0.741652 -0.670785
vn 0.000000 0.824442 -0.565947
vn 0.000000 0.824442 -0.565947
vn 0.000000 0.892519 -0.451010
vn 0.000000 0.892519 -0.451010
vn 0.000000 0.944669 -0.328025
vn 0.000000 0.944669 -0.328025
vn 0.000000 0.979962 -0.199186
vn 0.000000 0.979962 -0.199186
vn 0.000000 0.997767 -0.066792
vn 0.000000 0.997767 -0.066792
vn 1.000000 0.000000 0.000000
vn 1.000000 0.000000 0.000000
vn 1.000000 0.000000 0.000000
vn 1.000000 0.000000 0.000000
vn 1.000000 0.000000 0.000000
vn 1.000000 0.000000 0.000000
vn 1.000000 0.000000 0.000000
vn 1.000000 0.000000 0.000000
vn 1.000000 0.000000 0.000000
vn 1.000000 0.000000 0.000000
vn 1.000000 0.000000 0.000000
vn 1.000000 0.000000 0.000000
vn 1.000000 0.000000 0.000000
vn 1.000000 0.000000 0.000000
vn 1.000000 0.000000 0.000000
vn 1.000000 0.000000 0.000000
vn 1.000000 0.000000 0.000000
vn 1.000000 0.000000 0.000000
vn 1.000000 0.000000 0.000000
vn 1.000000 0.000000 0.000000
vn 1.000000 0.000000 0.000000
vn 1.000000 0.000000 0.000000
vn 1.000000 0.000000 0.000000
vn 1.000000 0.000000 0.000000
vn 1.000000 0.000000 0.000000
vn 1.000000 0.000000 0.000000
vn 1.000000 0.000000 0.000000
vn 1.000000 0.000000 0.000000
vn 1.000000 0.000000 0.000000
vn 1.000000 0.000000 0.000000
vn 1.000000 0.000000 0.000000
vn 1.000000 0.000000 0.000000
vn 1.000000 0.000000 0.000000
vn 1.000000 0.000000 0.000000
vn 1.000000 0.000000 0.000000
vn 1.000000 0.000000 0.000000
vn 1.000000 0.000000 0.000000
vn 1.000000 0.000000 0.000000
vn 1.000000 0.000000 0.000000
vn 1.000000 0.000000 0.000000
vn 1.000000 0.000000 0.000000
vn 1.000000 0.000000 0.000000
vn 1.000000 0.000000 0.000000
vn 1.000000 0.000000 0.000000
vn 1.000000 0.000000 0.000000
vn 1.000000 0.000000 0.000000
vn 1.000000 0.000000 0.000000
vn 1.000000 0.000000 0.000000
vn 1.000000 0.000000 0.000000
vn 1.000000 0.000000 0.000000
vn 1.000000 0.000000 0.000000
vn 1.000000 0.000000 0.000000
vn 1.000000 0.000000 0.000000
vn 1.000000 0.000000 0.000000
vn 1.000000 0.000000 0.000000
vn 1.000000 0.000000 0.000000
vn 1.000000 0.000000 0.000000
vn 1.000000 0.000000 0.000000
vn 1.000000 0.000000 0.000000
vn 1.000000 0.000000 0.000000
vn 1.000000 0.000000 0.000000
vn 1.000000 0.000000 0.000000
vn 1.000000 0.000000 0.000000
vn 1.000000 0.000000 0.000000
vn 1.000000 0.000000 0.000000
vn 1.000000 0.000000 0.000000
vn 1.000000 0.000000 0.000000
vn 1.000000 0.000000 0.000000
vn 1.000000 0.000000 0.000000
vn 1.000000 0.000000 0.000000
vn 1.000000 0.000000 0.000000
vn 1.000000 0.000000 0.000000
vn 1.000000 0.000000 0.000000
vn 1.000000 0.000000 0.000000
vn 1.000000 0.000000 0.000000
vn 1.000000 0.000000 0.000000
vn 1.000000 0.000000 0.000000
vn 1.000000 0.000000 0.000000
vn 1.000000 0.000000 0.000000
vn 1.000000 0.000000 0.000000
vn 1.000000 0.000000 0.000000
vn 1.000000 0.000000 0.000000
vn 1.000000 0.000000 0.000000
vn 1.000000 0.000000 0.000000
vn 1.000000 0.000000 0.000000
vn 1.000000 0.000000 0.000000
vn 1.000000 0.000000 0.000000
vn 1.000000 0.000000 0.000000
vn 1.000000 0.000000 0.000000
vn 1.000000 0.000000 0.000000
vn 1.000000 0.000000 0.000000
vn 1.000000 0.000000 0.000000
vn 1.000000 0.000000 0.000000
vn 1.000000 0.000000 0.000000
vn 1.000000 0.000000 0.000000
vn 0.000000 0.997859 0.065403
vn 0.000000 0.997859 0.065403
vn 0.000000 0.980785 0.195091
vn 0.000000 0.980785 0.195091
vn 0.000000 0.946930 0.321439
vn 0.000000 0.946930 0.321439
vn 0.000000 0.896873 0.442289
vn 0.000000 0.831470 0.555570
vn 0.000000 0.896873 0.442289
vn 0.000000 0.751840 0.659346
vn 0.000000 0.831470 0.555570
vn 0.000000 0.751840 0.659346
vn 0.000000 0.659346 0.751840
vn 0.000000 0.555570 0.831470
vn 0.000000 0.659346 0.751840
vn 0.000000 0.555570 0.831470
vn 0.000000 0.442289 0.896873
vn 0.000000 0.442289 0.896873
vn 0.000000 0.321439 0.946930
vn 0.000000 0.321439 0.946930
vn 0.000000 0.195091 0.980785
vn 0.000000 0.195091 0.980785
vn 0.000000 0.065403 0.997859
vn 0.000000 0.065403 0.997859
vn 0.000000 -0.065403 0.997859
vn 0.000000 -0.065403 0.997859
vn 0.000000 -0.195091 0.980785
vn 0.000000 -0.195091 0.980785
vn 0.000000 -0.321439 0.946930
vn 0.000000 -0.321439 0.946930
vn 0.000000 -0.442289 0.896873
vn 0.000000 -0.442289 0.896873
vn 0.000000 -0.555570 0.831470
vn 0.000000 -0.555570 0.831470
vn 0.000000 -0.659346 0.751840
vn 0.000000 -0.659346 0.751840
vn 0.000000 -0.751840 0.659346
vn 0.000000 -0.831470 0.555570
vn 0.000000 -0.751840 0.659346
vn 0.000000 -0.831470 0.555570
vn 0.000000 -0.896873 0.442289
vn 0.000000 -0.896873 0.442289
vn 0.000000 -0.946930 0.321439
vn 0.000000 -0.946930 0.321439
vn 0.000000 -0.980785 0.195091
vn 0.000000 -0.997859 0.065403
vn 0.000000 -0.980785 0.195091
vn 0.000000 -0.997859 0.065403
vn 0.000000 -0.997859 -0.065403
vn -0.000000 -0.997859 -0.065403
vn -0.000000 -0.980785 -0.195091
vn -0.000000 -0.980785 -0.195091
vn 0.000000 -0.946930 -0.321439
vn -0.000000 -0.946930 -0.321439
vn 0.000000 -0.896873 -0.442289
vn -0.000000 -0.896873 -0.442289
vn 0.000000 -0.831470 -0.555570
vn -0.000000 -0.831470 -0.555570
vn -0.000000 -0.751840 -0.659346
vn -0.000000 -0.751840 -0.659346
vn 0.000000 -0.659346 -0.751840
vn -0.000000 -0.659346 -0.751840
vn 0.000000 -0.555570 -0.831470
vn -0.000000 -0.555570 -0.831470
vn -0.000000 -0.442289 -0.896873
vn 0.000000 -0.442289 -0.896873
vn -0.000000 -0.321439 -0.946930
vn 0.000000 -0.321439 -0.946930
vn -0.000000 -0.195091 -0.980785
vn 0.000000 -0.195091 -0.980785
vn -0.000000 -0.065403 -0.997859
vn 0.000000 -0.065403 -0.997859
vn 0.000000 0.065403 -0.997859
vn 0.000000 0.065403 -0.997859
vn 0.000000 0.195091 -0.980785
vn 0.000000 0.195091 -0.980785
vn 0.000000 0.321439 -0.946930
vn 0.000000 0.321439 -0.946930
vn 0.000000 0.442289 -0.896873
vn 0.000000 0.442289 -0.896873
vn 0.000000 0.555570 -0.831470
vn 0.000000 0.555570 -0.831470
vn 0.000000 0.659346 -0.751840
vn 0.000000 0.659346 -0.751840
vn 0.000000 0.751840 -0.659346
vn 0.000000 0.751840 -0.659346
vn 0.000000 0.831470 -0.555570
vn 0.000000 0.831470 -0.555570
vn 0.000000 0.896873 -0.442289
vn 0.000000 0.896873 -0.442289
vn 0.000000 0.946930 -0.321439
vn 0.000000 0.980785 -0.195091
vn 0.000000 0.946930 -0.321439
vn 0.000000 0.980785 -0.195091
vn 0.000000 0.997859 -0.065403
vn 0.000000 0.997859 -0.065403
vn 1.000000 0.000000 0.000000
vn 1.000000 0.000000 0.000000
vn 1.000000 0.000000 0.000000
vn 1.000000 0.000000 0.000000
vn 1.000000 0.000000 0.000000
vn 1.000000 0.000000 0.000000
vn 1.000000 0.000000 0.000000
vn 1.000000 0.000000 0.000000
vn 1.000000 0.000000 0.000000
vn 1.000000 0.000000 0.000000
vn 1.000000 0.000000 0.000000
vn 1.000000 0.000000 0.000000
vn 1.000000 0.000000 0.000000
vn 1.000000 0.000000 0.000000
vn 1.000000 0.000000 0.000000
vn 1.000000 0.000000 0.000000
vn 1.000000 0.000000 0.000000
vn 1.000000 0.000000 0.000000
vn 1.000000 0.000000 0.000000
vn 1.000000 0.000000 0.000000
vn 1.000000 0.000000 0.000000
vn 1.000000 0.000000 0.000000
vn 1.000000 0.000000 0.000000
vn 1.000000 0.000000 0.000000
vn 1.000000 0.000000 0.000000
vn 1.000000 0.000000 0.000000
vn 1.000000 0.000000 0.000000
vn 1.000000 0.000000 0.000000
vn 1.000000 0.000000 0.000000
vn 1.000000 0.000000 0.000000
vn 1.000000 0.000000 0.000000
vn 1.000000 0.000000 0.000000
vn 1.000000 0.000000 0.000000
vn 1.000000 0.000000 0.000000
vn 1.000000 0.000000 0.000000
vn 1.000000 0.000000 0.000000
vn 1.000000 0.000000 0.000000
vn 1.000000 0.000000 0.000000
vn 1.000000 0.000000 0.000000
vn 1.000000 0.000000 0.000000
vn 1.000000 0.000000 0.000000
vn 1.000000 0.000000 0.000000
vn 1.000000 0.000000 0.000000
vn 1.000000 0.000000 0.000000
vn 1.000000 0.000000 0.000000
vn 1.000000 0.000000 0.000000
vn 1.000000 0.000000 0.000000
vn 1.000000 0.000000 0.000000
vn 1.000000 0.000000 0.000000
vn 1.000000 0.000000 0.000000
vn 1.000000 0.000000 0.000000
vn 1.000000 0.000000 0.000000
vn 1.000000 0.000000 0.000000
vn 1.000000 0.000000 0.000000
vn 1.000000 0.000000 0.000000
vn 1.000000 0.000000 0.000000
vn 1.000000 0.000000 0.000000
vn 1.000000 0.000000 0.000000
vn 1.000000 0.000000 0.000000
vn 1.000000 0.000000 0.000000
vn 1.000000 0.000000 0.000000
vn 1.000000 0.000000 0.000000
vn 1.000000 0.000000 0.000000
vn 1.000000 0.000000 0.000000
vn 1.000000 0.000000 0.000000
vn 1.000000 0.000000 0.000000
vn 1.000000 0.000000 0.000000
vn 1.000000 0.000000 0.000000
vn 1.000000 0.000000 0.000000
vn 1.000000 0.000000 0.000000
vn 1.000000 0.000000 0.000000
vn 1.000000 0.000000 0.000000
vn 1.000000 0.000000 0.000000
vn 1.000000 0.000000 0.000000
vn 1.000000 0.000000 0.000000
vn 1.000000 0.000000 0.000000
vn 1.000000 0.000000 0.000000
vn 1.000000 0.000000 0.000000
vn 1.000000 0.000000 0.000000
vn 1.000000 0.000000 0.000000
vn 1.000000 0.000000 0.000000
vn 1.000000 0.000000 0.000000
vn 1.000000 0.000000 0.000000
vn 1.000000 0.000000 0.000000
vn 1.000000 0.000000 0.000000
vn 1.000000 0.000000 0.000000
vn 1.000000 0.000000 0.000000
vn 1.000000 0.000000 0.000000
vn 1.000000 0.000000 0.000000
vn 1.000000 0.000000 0.000000
vn 1.000000 0.000000 0.000000
vn 1.000000 0.000000 0.000000
vn 1.000000 0.000000 0.000000
vn 1.000000 0.000000 0.000000
vn 1.000000 0.000000 0.000000
vn 1.000000 0.000000 0.000000
vn 1.000000 0.000000 0.000000
vn 0.000000 0.997945 0.064071
vn 0.000000 0.997945 0.064071
vn 0.000000 0.981559 0.191158
vn 0.000000 0.981559 0.191158
vn 0.000000 0.949056 0.315108
vn 0.000000 0.949056 0.315108
vn 0.000000 0.900969 0.433883
vn 0.000000 0.900969 0.433883
vn 0.000000 0.838088 0.545535
vn 0.000000 0.761446 0.648228
vn 0.000000 0.838088 0.545535
vn 0.000000 0.761446 0.648228
vn 0.000000 0.672301 0.740278
vn 0.000000 0.672301 0.740278
vn 0.000000 0.572116 0.820172
vn 0.000000 0.572116 0.820172
vn 0.000000 0.462539 0.886599
vn 0.000000 0.462539 0.886599
vn 0.000000 0.345365 0.938469
vn 0.000000 0.345365 0.938469
vn 0.000000 0.222521 0.974928
vn 0.000000 0.222521 0.974928
vn 0.000000 0.096023 0.995379
vn 0.000000 -0.032051 0.999486
vn 0.000000 0.096023 0.995379
vn 0.000000 -0.032051 0.999486
vn 0.000000 -0.159600 0.987182
vn 0.000000 -0.159600 0.987182
vn 0.000000 -0.284527 0.958668
vn 0.000000 -0.404784 0.914412
vn 0.000000 -0.284527 0.958668
vn 0.000000 -0.404784 0.914412
vn 0.000000 -0.518393 0.855143
vn 0.000000 -0.518393 0.855143
vn 0.000000 -0.623490 0.781832
vn 0.000000 -0.623490 0.781832
vn 0.000000 -0.718350 0.695682
vn 0.000000 -0.718350 0.695682
vn 0.000000 -0.801413 0.598111
vn 0.000000 -0.801413 0.598111
vn 0.000000 -0.871319 0.490718
vn 0.000000 -0.871319 0.490718
vn 0.000000 -0.926917 0.375267
vn 0.000000 -0.926917 0.375267
vn 0.000000 -0.967295 0.253654
vn 0.000000 -0.967295 0.253654
vn 0.000000 -0.991790 0.127877
vn -0.000000 -1.000000 0.000000
vn 0.000000 -0.991790 0.127877
vn 0.000000 -1.000000 0.000000
vn 0.000000 -0.991790 -0.127877
vn -0.000000 -0.991790 -0.127877
vn 0.000000 -0.967295 -0.253654
vn -0.000000 -0.967295 -0.253654
vn -0.000000 -0.926917 -0.375267
vn -0.000000 -0.926917 -0.375267
vn 0.000000 -0.871319 -0.490718
vn -0.000000 -0.871319 -0.490718
vn 0.000000 -0.801413 -0.598111
vn -0.000000 -0.801413 -0.598111
vn 0.000000 -0.718350 -0.695682
vn -0.000000 -0.718350 -0.695682
vn -0.000000 -0.623490 -0.781832
vn 0.000000 -0.623490 -0.781832
vn -0.000000 -0.518393 -0.855143
vn 0.000000 -0.518393 -0.855143
vn -0.000000 -0.404784 -0.914412
vn 0.000000 -0.404784 -0.914412
vn -0.000000 -0.284527 -0.958668
vn 0.000000 -0.284527 -0.958668
vn -0.000000 -0.159600 -0.987182
vn 0.000000 -0.159600 -0.987182
vn -0.000000 -0.032051 -0.999486
vn 0.000000 -0.032051 -0.999486
vn 0.000000 0.096023 -0.995379
vn 0.000000 0.096023 -0.995379
vn 0.000000 0.222521 -0.974928
vn 0.000000 0.345365 -0.938469
vn 0.000000 0.222521 -0.974928
vn 0.000000 0.345365 -0.938469
vn 0.000000 0.462539 -0.886599
vn 0.000000 0.462539 -0.886599
vn 0.000000 0.572116 -0.820172
vn 0.000000 0.572116 -0.820172
vn 0.000000 0.672301 -0.740278
vn 0.000000 0.672301 -0.740278
vn 0.000000 0.761446 -0.648228
vn 0.000000 0.838088 -0.545535
vn 0.000000 0.761446 -0.648228
vn 0.000000 0.900969 -0.433883
vn 0.000000 0.838088 -0.545535
vn 0.000000 0.900969 -0.433883
vn 0.000000 0.949056 -0.315108
vn 0.000000 0.949056 -0.315108
vn 0.000000 0.981559 -0.191158
vn 0.000000 0.997945 -0.064071
vn 0.000000 0.981559 -0.191158
vn 0.000000 0.997945 -0.064071
vn -1.000000 0.000000 0.000000
vn -1.000000 0.000000 0.000000
vn -1.000000 0.000000 0.000000
vn -1.000000 0.000000 0.000000
vn -1.000000 0.000000 0.000000
vn -1.000000 0.000000 -0.000000
vn -1.000000 0.000000 0.000000
vn -1.000000 0.000000 0.000000
vn -1.000000 0.000000 -0.000000
vn -1.000000 0.000000 0.000000
vn -1.000000 0.000000 0.000000
vn -1.000000 0.000000 0.000000
vn -1.000000 0.000000 0.000000
vn -1.000000 0.000000 0.000000
vn -1.000000 0.000000 -0.000000
vn -1.000000 0.000000 0.000000
vn -1.000000 0.000000 0.000000
vn -1.000000 0.000000 -0.000000
vn -1.000000 0.000000 0.000000
vn -1.000000 0.000000 -0.000000
vn -1.000000 0.000000 0.000000
vn -1.000000 0.000000 0.000000
vn -1.000000 0.000000 0.000000
vn -1.000000 0.000000 -0.000000
vn -1.000000 0.000000 0.000000
vn -1.000000 0.000000 0.000000
vn -1.000000 0.000000 0.000000
vn -1.000000 0.000000 -0.000000
vn -1.000000 0.000000 0.000000
vn -1.000000 0.000000 0.000000
vn -1.000000 0.000000 0.000000
vn -1.000000 0.000000 -0.000000
vn -1.000000 0.000000 0.000000
vn -1.000000 0.000000 0.000000
vn -1.000000 0.000000 0.000000
vn -1.000000 0.000000 0.000000
vn -1.000000 0.000000 -0.000000
vn -1.000000 0.000000 0.000000
vn -1.000000 0.000000 0.000000
vn -1.000000 0.000000 -0.000000
vn -1.000000 0.000000 -0.000000
vn -1.000000 0.000000 0.000000
vn -1.000000 0.000000 0.000000
vn -1.000000 0.000000 -0.000000
vn -1.000000 0.000000 -0.000000
vn -1.000000 0.000000 0.000000
vn -1.000000 0.000000 0.000000
vn -1.000000 0.000000 -0.000000
vn -1.000000 0.000000 0.000000
vn -1.000000 0.000000 0.000000
vn -1.000000 0.000000 0.000000
vn -1.000000 0.000000 -0.000000
vn -1.000000 0.000000 0.000000
vn -1.000000 0.000000 0.000000
vn -1.000000 0.000000 -0.000000
vn -1.000000 0.000000 0.000000
vn -1.000000 0.000000 0.000000
vn -1.000000 0.000000 -0.000000
vn -1.000000 0.000000 0.000000
vn -1.000000 0.000000 0.000000
vn -1.000000 0.000000 -0.000000
vn -1.000000 0.000000 0.000000
vn -1.000000 0.000000 0.000000
vn -1.000000 0.000000 0.000000
vn -1.000000 0.000000 0.000000
vn -1.000000 0.000000 -0.000000
vn -1.000000 0.000000 0.000000
vn -1.000000 0.000000 0.000000
vn -1.000000 0.000000 0.000000
vn -1.000000 0.000000 -0.000000
vn -1.000000 0.000000 0.000000
vn -1.000000 0.000000 0.000000
vn -1.000000 0.000000 -0.000000
vn -1.000000 0.000000 0.000000
vn -1.000000 0.000000 0.000000
vn -1.000000 0.000000 -0.000000
vn -1.000000 0.000000 0.000000
vn -1.000000 0.000000 0.000000
vn -1.000000 0.000000 -0.000000
vn -1.000000 0.000000 0.000000
vn -1.000000 0.000000 0.000000
vn -1.000000 0.000000 -0.000000
vn -1.000000 0.000000 0.000000
vn 0.000000 0.995734 0.092268
vn 0.000000 0.961826 0.273663
vn 0.000000 0.995734 0.092268
vn 0.000000 0.961826 0.273663
vn 0.000000 0.895163 0.445738
vn 0.000000 0.895163 0.445738
vn 0.000000 0.798017 0.602635
vn 0.000000 0.673696 0.739009
vn 0.000000 0.798017 0.602635
vn 0.000000 0.673696 0.739009
vn 0.000000 0.526432 0.850217
vn 0.000000 0.526432 0.850217
vn 0.000000 0.361242 0.932472
vn 0.000000 0.361242 0.932472
vn 0.000000 0.183749 0.982973
vn 0.000000 0.183749 0.982973
vn 0.000000 0.000000 1.000000
vn 0.000000 -0.000000 1.000000
vn 0.000000 -0.183749 0.982973
vn 0.000000 -0.183749 0.982973
vn 0.000000 -0.361242 0.932472
vn 0.000000 -0.361242 0.932472
vn 0.000000 -0.526432 0.850217
vn 0.000000 -0.673696 0.739009
vn 0.000000 -0.526432 0.850217
vn 0.000000 -0.673696 0.739009
vn 0.000000 -0.798017 0.602635
vn 0.000000 -0.895163 0.445738
vn 0.000000 -0.798017 0.602635
vn 0.000000 -0.895163 0.445738
vn 0.000000 -0.961826 0.273663
vn 0.000000 -0.961826 0.273663
vn 0.000000 -0.995734 0.092268
vn -0.000000 -0.995734 -0.092268
vn 0.000000 -0.995734 0.092268
vn -0.000000 -0.995734 -0.092268
vn -0.000000 -0.961826 -0.273663
vn 0.000000 -0.961826 -0.273663
vn -0.000000 -0.895163 -0.445738
vn -0.000000 -0.798017 -0.602635
vn 0.000000 -0.895163 -0.445738
vn -0.000000 -0.798017 -0.602635
vn -0.000000 -0.673696 -0.739009
vn 0.000000 -0.673696 -0.739009
vn -0.000000 -0.526432 -0.850217
vn 0.000000 -0.526432 -0.850217
vn -0.000000 -0.361242 -0.932472
vn -0.000000 -0.183749 -0.982973
vn 0.000000 -0.361242 -0.932472
vn 0.000000 0.000000 -1.000000
vn -0.000000 -0.183749 -0.982973
vn -0.000000 -0.000000 -1.000000
vn 0.000000 0.183749 -0.982973
vn 0.000000 0.361242 -0.932472
vn 0.000000 0.183749 -0.982973
vn 0.000000 0.526432 -0.850217
vn 0.000000 0.361242 -0.932472
vn 0.000000 0.526432 -0.850217
vn 0.000000 0.673696 -0.739009
vn 0.000000 0.798017 -0.602635
vn 0.000000 0.673696 -0.739009
vn 0.000000 0.798017 -0.602635
vn 0.000000 0.895163 -0.445738
vn 0.000000 0.895163 -0.445738
vn 0.000000 0.961826 -0.273663
vn 0.000000 0.961826 -0.273663
vn 0.000000 0.995734 -0.092268
vn 0.000000 0.995734 -0.092268
vn -1.000000 0.000000 0.000000
vn -1.000000 0.000000 0.000000
vn -1.000000 0.000000 -0.000000
vn -1.000000 0.000000 -0.000000
vn -1.000000 0.000000 0.000000
vn -1.000000 0.000000 0.000000
vn -1.000000 0.000000 0.000000
vn -1.000000 0.000000 -0.000000
vn -1.000000 0.000000 0.000000
vn -1.000000 0.000000 -0.000000
vn -1.000000 0.000000 -0.000000
vn -1.000000 0.000000 0.000000
vn -1.000000 0.000000 0.000000
vn -1.000000 0.000000 0.000000
vn -1.000000 0.000000 -0.000000
vn -1.000000 0.000000 -0.000000
vn -1.000000 0.000000 0.000000
vn -1.000000 0.000000 0.000000
vn -1.000000 0.000000 0.000000
vn -1.000000 0.000000 0.000000
vn -1.000000 0.000000 -0.000000
vn -1.000000 0.000000 0.000000
vn -1.000000 0.000000 0.000000
vn -1.000000 0.000000 0.000000
vn -1.000000 0.000000 -0.000000
vn -1.000000 0.000000 0.000000
vn -1.000000 0.000000 -0.000000
vn -1.000000 0.000000 0.000000
vn -1.000000 0.000000 -0.000000
vn -1.000000 0.000000 0.000000
vn -1.000000 0.000000 0.000000
vn -1.000000 0.000000 -0.000000
vn -1.000000 0.000000 -0.000000
vn -1.000000 0.000000 0.000000
vn -1.000000 0.000000 0.000000
vn -1.000000 0.000000 0.000000
vn -1.000000 0.000000 -0.000000
vn -1.000000 0.000000 0.000000
vn -1.000000 0.000000 0.000000
vn -1.000000 0.000000 -0.000000
vn -1.000000 0.000000 0.000000
vn -1.000000 0.000000 0.000000
vn -1.000000 0.000000 0.000000
vn -1.000000 0.000000 -0.000000
vn -1.000000 0.000000 0.000000
vn -1.000000 0.000000 0.000000
vn -1.000000 0.000000 -0.000000
vn -1.000000 0.000000 0.000000
vn -1.000000 0.000000 -0.000000
vn -1.000000 0.000000 0.000000
vn -1.000000 0.000000 -0.000000
vn -1.000000 0.000000 0.000000
vn -1.000000 0.000000 0.000000
vn -1.000000 0.000000 -0.000000
vn -1.000000 0.000000 0.000000
vn -1.000000 0.000000 0.000000
vn -1.000000 0.000000 -0.000000
vn -1.000000 0.000000 0.000000
vn -1.000000 0.000000 0.000000
vn -1.000000 0.000000 0.000000
vn -1.000000 0.000000 -0.000000
vn -1.000000 0.000000 0.000000
f 1//1 2//1 3//1
f 1//2 3//2 4//2
f 5//3 4//3 6//3
f 5//4 1//4 4//4
f 7//5 6//5 8//5
f 7//6 5//6 6//6
f 9//7 8//7 10//7
f 9//8 7//8 8//8
f 11//9 10//9 12//9
f 11//10 9//10 10//10
f 13//11 12//11 14//11
f 13//12 14//12 15//12
f 13//13 11//13 12//13
f 16//14 13//14 15//14
f 17//15 15//15 18//15
f 17//16 16//16 15//16
f 19//17 18//17 20//17
f 19//18 17//18 18//18
f 21//19 19//19 20//19
f 21//20 20//20 22//20
f 23//21 21//21 22//21
f 23//22 22//22 24//22
f 25//23 23//23 24//23
f 25//24 24//24 26//24
f 25//25 26//25 27//25
f 28//26 25//26 27//26
f 29//27 28//27 27//27
f 29//28 27//28 30//28
f 31//29 29//29 30//29
f 31//30 30//30 32//30
f 33//31 31//31 32//31
f 33//32 32//32 34//32
f 35//33 33//33 34//33
f 35//34 34//34 36//34
f 35//35 36//35 37//35
f 38//36 35//36 37//36
f 39//37 38//37 37//37
f 39//38 37//38 40//38
f 41//39 39//39 40//39
f 41//40 40//40 42//40
f 43//41 41//41 42//41
f 43//42 42//42 44//42
f 45//43 44//43 46//43
f 45//44 43//44 44//44
f 47//45 45//45 46//45
f 47//46 46//46 48//46
f 49//47 48//47 50//47
f 49//48 47//48 48//48
f 51//49 50//49 52//49
f 51//50 49//50 50//50
f 53//51 52//51 54//51
f 53//52 51//52 52//52
f 55//53 54//53 56//53
f 55//54 53//54 54//54
f 2//55 56//55 3//55
f 2//56 55//56 56//56
f 36//57 57//57 58//57
f 37//58 58//58 59//58
f 37//59 59//59 60//59
f 37//60 36//60 58//60
f 40//61 60//61 61//61
f 40//62 61//62 62//62
f 40//63 37//63 60//63
f 34//64 63//64 64//64
f 34//65 64//65 57//65
f 34//66 57//66 36//66
f 42//67 62//67 65//67
f 42//68 40//68 62//68
f 32//69 63//69 34//69
f 32//70 66//70 67//70
f 32//71 67//71 63//71
f 44//72 65//72 68//72
f 44//73 68//73 69//73
f 44//74 42//74 65//74
f 30//75 66//75 32//75
f 30//76 70//76 66//76
f 46//77 44//77 69//77
f 46//78 69//78 71//78
f 46//79 71//79 72//79
f 27//80 73//80 74//80
f 27//81 74//81 70//81
f 27//82 70//82 30//82
f 48//83 46//83 72//83
f 48//84 72//84 75//84
f 26//85 76//85 77//85
f 26//86 77//86 73//86
f 26//87 73//87 27//87
f 50//88 48//88 75//88
f 50//89 75//89 78//89
f 24//90 79//90 76//90
f 24//91 76//91 26//91
f 80//92 50//92 78//92
f 52//93 50//93 80//93
f 22//94 79//94 24//94
f 81//95 79//95 22//95
f 82//96 52//96 80//96
f 83//97 22//97 20//97
f 83//98 81//98 22//98
f 84//99 52//99 82//99
f 84//100 54//100 52//100
f 85//101 83//101 20//101
f 86//102 54//102 84//102
f 86//103 56//103 54//103
f 87//104 20//104 18//104
f 87//105 85//105 20//105
f 88//106 56//106 86//106
f 89//107 18//107 15//107
f 89//108 87//108 18//108
f 90//109 3//109 56//109
f 90//110 56//110 88//110
f 91//111 89//111 15//111
f 92//112 3//112 90//112
f 93//113 91//113 15//113
f 93//114 15//114 14//114
f 94//115 3//115 92//115
f 94//116 4//116 3//116
f 95//117 93//117 14//117
f 96//118 4//118 94//118
f 97//119 95//119 14//119
f 97//120 14//120 12//120
f 98//121 4//121 96//121
f 98//122 6//122 4//122
f 99//123 97//123 12//123
f 99//124 12//124 10//124
f 100//125 6//125 98//125
f 100//126 8//126 6//126
f 101//127 99//127 10//127
f 102//128 8//128 100//128
f 103//129 101//129 10//129
f 103//130 8//130 102//130
f 103//131 10//131 8//131
f 94//132 104//132 105//132
f 94//133 92//133 104//133
f 96//134 105//134 106//134
f 96//135 94//135 105//135
f 98//136 106//136 107//136
f 98//137 107//137 108//137
f 98//138 96//138 106//138
f 100//139 108//139 109//139
f 100//140 98//140 108//140
f 102//141 100//141 109//141
f 103//142 109//142 110//142
f 103//143 102//143 109//143
f 101//144 110//144 111//144
f 101//145 103//145 110//145
f 99//146 111//146 112//146
f 99//147 112//147 113//147
f 99//148 101//148 111//148
f 97//149 99//149 113//149
f 95//150 113//150 114//150
f 95//151 97//151 113//151
f 93//152 114//152 115//152
f 93//153 95//153 114//153
f 91//154 115//154 116//154
f 91//155 93//155 115//155
f 89//156 116//156 117//156
f 89//157 117//157 118//157
f 89//158 91//158 116//158
f 87//159 89//159 118//159
f 85//160 118//160 119//160
f 85//161 87//161 118//161
f 83//162 119//162 120//162
f 83//163 85//163 119//163
f 81//164 120//164 121//164
f 81//165 83//165 120//165
f 79//166 121//166 122//166
f 79//167 81//167 121//167
f 76//168 122//168 123//168
f 76//169 123//169 124//169
f 76//170 79//170 122//170
f 77//171 124//171 125//171
f 77//172 76//172 124//172
f 73//173 77//173 125//173
f 74//174 125//174 126//174
f 74//175 73//175 125//175
f 70//176 126//176 127//176
f 70//177 127//177 128//177
f 70//178 74//178 126//178
f 66//179 70//179 128//179
f 67//180 128//180 129//180
f 67//181 66//181 128//181
f 63//182 67//182 129//182
f 63//183 129//183 130//183
f 64//184 63//184 130//184
f 64//185 130//185 131//185
f 57//186 64//186 131//186
f 57//187 131//187 132//187
f 58//188 57//188 132//188
f 58//189 132//189 133//189
f 58//190 133//190 134//190
f 59//191 58//191 134//191
f 60//192 59//192 134//192
f 60//193 134//193 135//193
f 61//194 60//194 135//194
f 61//195 135//195 136//195
f 62//196 61//196 136//196
f 62//197 136//197 137//197
f 65//198 62//198 137//198
f 65//199 137//199 138//199
f 68//200 138//200 139//200
f 68//201 65//201 138//201
f 69//202 139//202 140//202
f 69//203 68//203 139//203
f 71//204 140//204 141//204
f 71//205 69//205 140//205
f 72//206 141//206 142//206
f 72//207 71//207 141//207
f 75//208 142//208 143//208
f 75//209 72//209 142//209
f 78//210 143//210 144//210
f 78//211 144//211 145//211
f 78//212 75//212 143//212
f 80//213 78//213 145//213
f 82//214 145//214 146//214
f 82//215 80//215 145//215
f 84//216 146//216 147//216
f 84//217 82//217 146//217
f 86//218 147//218 148//218
f 86//219 84//219 147//219
f 88//220 148//220 149//220
f 88//221 86//221 148//221
f 90//222 149//222 150//222
f 90//223 88//223 149//223
f 92//224 150//224 104//224
f 92//225 90//225 150//225
f 133//226 151//226 152//226
f 134//227 133//227 152//227
f 134//228 152//228 153//228
f 132//229 151//229 133//229
f 132//230 154//230 151//230
f 135//231 134//231 153//231
f 135//232 153//232 155//232
f 131//233 154//233 132//233
f 131//234 156//234 154//234
f 136//235 135//235 155//235
f 136//236 155//236 157//236
f 130//237 156//237 131//237
f 130//238 158//238 156//238
f 137//239 136//239 157//239
f 137//240 157//240 159//240
f 129//241 158//241 130//241
f 160//242 158//242 129//242
f 138//243 137//243 159//243
f 138//244 159//244 161//244
f 128//245 160//245 129//245
f 162//246 160//246 128//246
f 139//247 138//247 161//247
f 139//248 161//248 163//248
f 127//249 162//249 128//249
f 164//250 162//250 127//250
f 140//251 163//251 165//251
f 140//252 139//252 163//252
f 126//253 164//253 127//253
f 141//254 140//254 165//254
f 166//255 141//255 165//255
f 167//256 164//256 126//256
f 125//257 167//257 126//257
f 142//258 141//258 166//258
f 168//259 142//259 166//259
f 169//260 167//260 125//260
f 124//261 169//261 125//261
f 143//262 142//262 168//262
f 170//263 143//263 168//263
f 171//264 169//264 124//264
f 123//265 171//265 124//265
f 144//266 143//266 170//266
f 172//267 144//267 170//267
f 173//268 171//268 123//268
f 122//269 173//269 123//269
f 145//270 144//270 172//270
f 174//271 145//271 172//271
f 175//272 173//272 122//272
f 121//273 175//273 122//273
f 146//274 145//274 174//274
f 176//275 146//275 174//275
f 177//276 175//276 121//276
f 120//277 177//277 121//277
f 147//278 146//278 176//278
f 178//279 147//279 176//279
f 179//280 177//280 120//280
f 119//281 179//281 120//281
f 148//282 147//282 178//282
f 180//283 148//283 178//283
f 181//284 179//284 119//284
f 118//285 181//285 119//285
f 149//286 148//286 180//286
f 182//287 149//287 180//287
f 183//288 181//288 118//288
f 117//289 183//289 118//289
f 150//290 149//290 182//290
f 184//291 150//291 182//291
f 185//292 183//292 117//292
f 116//293 185//293 117//293
f 104//294 150//294 184//294
f 186//295 104//295 184//295
f 187//296 185//296 116//296
f 115//297 187//297 116//297
f 188//298 104//298 186//298
f 188//299 105//299 104//299
f 189//300 187//300 115//300
f 114//301 189//301 115//301
f 190//302 189//302 114//302
f 191//303 105//303 188//303
f 191//304 106//304 105//304
f 113//305 190//305 114//305
f 192//306 106//306 191//306
f 192//307 107//307 106//307
f 193//308 190//308 113//308
f 193//309 113//309 112//309
f 194//310 112//310 111//310
f 194//311 193//311 112//311
f 195//312 108//312 107//312
f 195//313 107//313 192//313
f 196//314 111//314 110//314
f 196//315 194//315 111//315
f 197//316 109//316 108//316
f 197//317 108//317 195//317
f 198//318 110//318 109//318
f 198//319 196//319 110//319
f 198//320 109//320 197//320
f 188//321 199//321 200//321
f 188//322 186//322 199//322
f 191//323 200//323 201//323
f 191//324 188//324 200//324
f 192//325 201//325 202//325
f 192//326 191//326 201//326
f 195//327 202//327 203//327
f 195//328 203//328 204//328
f 195//329 192//329 202//329
f 197//330 204//330 205//330
f 197//331 195//331 204//331
f 198//332 197//332 205//332
f 196//333 205//333 206//333
f 196//334 206//334 207//334
f 196//335 198//335 205//335
f 194//336 196//336 207//336
f 193//337 207//337 208//337
f 193//338 194//338 207//338
f 190//339 208//339 209//339
f 190//340 193//340 208//340
f 189//341 209//341 210//341
f 189//342 190//342 209//342
f 187//343 210//343 211//343
f 187//344 189//344 210//344
f 185//345 211//345 212//345
f 185//346 187//346 211//346
f 183//347 212//347 213//347
f 183//348 185//348 212//348
f 181//349 213//349 214//349
f 181//350 183//350 213//350
f 179//351 214//351 215//351
f 179//352 181//352 214//352
f 177//353 215//353 216//353
f 177//354 179//354 215//354
f 175//355 216//355 217//355
f 175//356 177//356 216//356
f 173//357 217//357 218//357
f 173//358 218//358 219//358
f 173//359 175//359 217//359
f 171//360 173//360 219//360
f 169//361 219//361 220//361
f 169//362 171//362 219//362
f 167//363 220//363 221//363
f 167//364 169//364 220//364
f 164//365 221//365 222//365
f 164//366 222//366 223//366
f 164//367 167//367 221//367
f 162//368 164//368 223//368
f 160//369 162//369 223//369
f 160//370 223//370 224//370
f 160//371 224//371 225//371
f 158//372 160//372 225//372
f 156//373 158//373 225//373
f 156//374 225//374 226//374
f 154//375 156//375 226//375
f 154//376 226//376 227//376
f 151//377 154//377 227//377
f 151//378 227//378 228//378
f 151//379 228//379 229//379
f 152//380 151//380 229//380
f 153//381 152//381 229//381
f 153//382 229//382 230//382
f 155//383 153//383 230//383
f 155//384 230//384 231//384
f 157//385 231//385 232//385
f 157//386 155//386 231//386
f 159//387 232//387 233//387
f 159//388 157//388 232//388
f 161//389 233//389 234//389
f 161//390 159//390 233//390
f 163//391 234//391 235//391
f 163//392 161//392 234//392
f 165//393 235//393 236//393
f 165//394 163//394 235//394
f 166//395 236//395 237//395
f 166//396 165//396 236//396
f 168//397 237//397 238//397
f 168//398 166//398 237//398
f 170//399 238//399 239//399
f 170//400 168//400 238//400
f 172//401 239//401 240//401
f 172//402 170//402 239//402
f 174//403 240//403 241//403
f 174//404 172//404 240//404
f 176//405 241//405 242//405
f 176//406 174//406 241//406
f 178//407 242//407 243//407
f 178//408 176//408 242//408
f 180//409 243//409 244//409
f 180//410 178//410 243//410
f 182//411 244//411 245//411
f 182//412 245//412 246//412
f 182//413 180//413 244//413
f 184//414 182//414 246//414
f 186//415 246//415 199//415
f 186//416 184//416 246//416
f 229//417 247//417 248//417
f 230//418 229//418 248//418
f 230//419 248//419 249//419
f 228//420 247//420 229//420
f 228//421 250//421 247//421
f 231//422 230//422 249//422
f 231//423 249//423 251//423
f 227//424 250//424 228//424
f 227//425 252//425 250//425
f 232//426 231//426 251//426
f 232//427 251//427 253//427
f 226//428 252//428 227//428
f 226//429 254//429 252//429
f 233//430 232//430 253//430
f 233//431 253//431 255//431
f 225//432 254//432 226//432
f 256//433 254//433 225//433
f 234//434 233//434 255//434
f 234//435 255//435 257//435
f 224//436 256//436 225//436
f 258//437 256//437 224//437
f 235//438 234//438 257//438
f 235//439 257//439 259//439
f 223//440 258//440 224//440
f 260//441 258//441 223//441
f 236//442 235//442 259//442
f 236//443 259//443 261//443
f 222//444 260//444 223//444
f 262//445 260//445 222//445
f 237//446 236//446 261//446
f 221//447 262//447 222//447
f 263//448 237//448 261//448
f 264//449 262//449 221//449
f 238//450 237//450 263//450
f 220//451 264//451 221//451
f 265//452 238//452 263//452
f 266//453 264//453 220//453
f 239//454 238//454 265//454
f 219//455 266//455 220//455
f 267//456 239//456 265//456
f 268//457 266//457 219//457
f 240//458 239//458 267//458
f 218//459 268//459 219//459
f 269//460 240//460 267//460
f 270//461 268//461 218//461
f 241//462 240//462 269//462
f 217//463 270//463 218//463
f 271//464 241//464 269//464
f 272//465 270//465 217//465
f 242//466 241//466 271//466
f 216//467 272//467 217//467
f 273//468 242//468 271//468
f 274//469 272//469 216//469
f 243//470 242//470 273//470
f 215//471 274//471 216//471
f 275//472 243//472 273//472
f 276//473 274//473 215//473
f 244//474 243//474 275//474
f 214//475 276//475 215//475
f 277//476 244//476 275//476
f 278//477 276//477 214//477
f 245//478 244//478 277//478
f 213//479 278//479 214//479
f 279//480 245//480 277//480
f 280//481 278//481 213//481
f 246//482 245//482 279//482
f 212//483 280//483 213//483
f 281//484 246//484 279//484
f 282//485 280//485 212//485
f 199//486 246//486 281//486
f 211//487 282//487 212//487
f 283//488 199//488 281//488
f 284//489 282//489 211//489
f 210//490 284//490 211//490
f 285//491 199//491 283//491
f 285//492 200//492 199//492
f 286//493 284//493 210//493
f 209//494 286//494 210//494
f 287//495 201//495 200//495
f 287//496 200//496 285//496
f 288//497 286//497 209//497
f 208//498 288//498 209//498
f 289//499 201//499 287//499
f 289//500 202//500 201//500
f 290//501 208//501 207//501
f 290//502 288//502 208//502
f 291//503 203//503 202//503
f 291//504 202//504 289//504
f 292//505 207//505 206//505
f 292//506 290//506 207//506
f 293//507 204//507 203//507
f 293//508 203//508 291//508
f 294//509 206//509 205//509
f 294//510 292//510 206//510
f 295//511 205//511 204//511
f 295//512 294//512 205//512
f 295//513 204//513 293//513
f 285//514 296//514 297//514
f 285//515 283//515 296//515
f 287//516 297//516 298//516
f 287//517 285//517 297//517
f 289//518 298//518 299//518
f 289//519 287//519 298//519
f 291//520 299//520 300//520
f 291//521 289//521 299//521
f 293//522 300//522 301//522
f 293//523 301//523 302//523
f 293//524 291//524 300//524
f 295//525 293//525 302//525
f 294//526 302//526 303//526
f 294//527 295//527 302//527
f 292//528 303//528 304//528
f 292//529 294//529 303//529
f 290//530 304//530 305//530
f 290//531 292//531 304//531
f 288//532 305//532 306//532
f 288//533 290//533 305//533
f 286//534 306//534 307//534
f 286//535 288//535 306//535
f 284//536 307//536 308//536
f 284//537 308//537 309//537
f 284//538 286//538 307//538
f 282//539 284//539 309//539
f 280//540 309//540 310//540
f 280//541 282//541 309//541
f 278//542 310//542 311//542
f 278//543 311//543 312//543
f 278//544 280//544 310//544
f 276//545 278//545 312//545
f 274//546 312//546 313//546
f 274//547 276//547 312//547
f 272//548 313//548 314//548
f 272//549 274//549 313//549
f 270//550 314//550 315//550
f 270//551 272//551 314//551
f 268//552 315//552 316//552
f 268//553 270//553 315//553
f 266//554 316//554 317//554
f 266//555 268//555 316//555
f 264//556 317//556 318//556
f 264//557 266//557 317//557
f 262//558 318//558 319//558
f 262//559 264//559 318//559
f 260//560 319//560 320//560
f 260//561 320//561 321//561
f 260//562 262//562 319//562
f 258//563 260//563 321//563
f 256//564 258//564 321//564
f 256//565 321//565 322//565
f 254//566 256//566 322//566
f 254//567 322//567 323//567
f 254//568 323//568 324//568
f 252//569 254//569 324//569
f 250//570 252//570 324//570
f 250//571 324//571 325//571
f 247//572 250//572 325//572
f 247//573 325//573 326//573
f 248//574 247//574 326//574
f 248//575 326//575 327//575
f 249//576 327//576 328//576
f 249//577 248//577 327//577
f 251//578 328//578 329//578
f 251//579 249//579 328//579
f 253//580 329//580 330//580
f 253//581 251//581 329//581
f 255//582 330//582 331//582
f 255//583 253//583 330//583
f 257//584 331//584 332//584
f 257//585 255//585 331//585
f 259//586 332//586 333//586
f 259//587 257//587 332//587
f 261//588 333//588 334//588
f 261//589 259//589 333//589
f 263//590 334//590 335//590
f 263//591 335//591 336//591
f 263//592 261//592 334//592
f 265//593 263//593 336//593
f 267//594 336//594 337//594
f 267//595 265//595 336//595
f 269//596 337//596 338//596
f 269//597 267//597 337//597
f 271//598 338//598 339//598
f 271//599 269//599 338//599
f 273//600 339//600 340//600
f 273//601 340//601 341//601
f 273//602 271//602 339//602
f 275//603 341//603 342//603
f 275//604 273//604 341//604
f 277//605 275//605 342//605
f 279//606 342//606 343//606
f 279//607 277//607 342//607
f 281//608 343//608 344//608
f 281//609 344//609 296//609
f 281//610 279//610 343//610
f 283//611 281//611 296//611
f 345//612 340//612 339//612
f 346//613 345//613 339//613
f 346//614 338//614 337//614
f 346//615 339//615 338//615
f 347//616 341//616 340//616
f 347//617 340//617 345//617
f 348//618 346//618 337//618
f 348//619 337//619 336//619
f 349//620 341//620 347//620
f 349//621 342//621 341//621
f 349//622 343//622 342//622
f 350//623 348//623 336//623
f 350//624 335//624 334//624
f 350//625 336//625 335//625
f 351//626 343//626 349//626
f 351//627 344//627 343//627
f 352//628 350//628 334//628
f 352//629 334//629 333//629
f 353//630 297//630 296//630
f 353//631 344//631 351//631
f 353//632 296//632 344//632
f 354//633 352//633 333//633
f 354//634 332//634 331//634
f 354//635 333//635 332//635
f 355//636 298//636 297//636
f 355//637 297//637 353//637
f 356//638 331//638 330//638
f 356//639 354//639 331//639
f 357//640 299//640 298//640
f 357//641 300//641 299//641
f 357//642 298//642 355//642
f 358//643 356//643 330//643
f 358//644 329//644 328//644
f 358//645 330//645 329//645
f 359//646 301//646 300//646
f 359//647 300//647 357//647
f 360//648 358//648 328//648
f 327//649 360//649 328//649
f 361//650 301//650 359//650
f 302//651 301//651 361//651
f 362//652 360//652 327//652
f 363//653 302//653 361//653
f 326//654 362//654 327//654
f 364//655 362//655 326//655
f 303//656 302//656 363//656
f 325//657 364//657 326//657
f 304//658 363//658 365//658
f 304//659 303//659 363//659
f 324//660 366//660 364//660
f 324//661 364//661 325//661
f 305//662 365//662 367//662
f 305//663 304//663 365//663
f 323//664 368//664 366//664
f 323//665 366//665 324//665
f 306//666 305//666 367//666
f 322//667 368//667 323//667
f 307//668 367//668 369//668
f 307//669 306//669 367//669
f 321//670 368//670 322//670
f 321//671 370//671 368//671
f 308//672 369//672 371//672
f 308//673 307//673 369//673
f 320//674 370//674 321//674
f 320//675 372//675 370//675
f 309//676 308//676 371//676
f 319//677 372//677 320//677
f 310//678 309//678 371//678
f 310//679 371//679 373//679
f 318//680 374//680 372//680
f 318//681 372//681 319//681
f 311//682 310//682 373//682
f 311//683 373//683 375//683
f 317//684 374//684 318//684
f 317//685 376//685 374//685
f 312//686 311//686 375//686
f 316//687 376//687 317//687
f 313//688 312//688 375//688
f 313//689 375//689 377//689
f 315//690 376//690 316//690
f 315//691 378//691 376//691
f 314//692 313//692 377//692
f 314//693 378//693 315//693
f 314//694 377//694 378//694
f 353//695 379//695 380//695
f 355//696 380//696 381//696
f 355//697 353//697 380//697
f 357//698 355//698 381//698
f 359//699 381//699 382//699
f 359//700 357//700 381//700
f 361//701 382//701 383//701
f 361//702 383//702 384//702
f 361//703 359//703 382//703
f 363//704 361//704 384//704
f 365//705 384//705 385//705
f 365//706 363//706 384//706
f 367//707 365//707 385//707
f 367//708 385//708 386//708
f 369//709 367//709 386//709
f 369//710 386//710 387//710
f 371//711 387//711 388//711
f 371//712 369//712 387//712
f 373//713 388//713 389//713
f 373//714 371//714 388//714
f 375//715 389//715 390//715
f 375//716 373//716 389//716
f 377//717 390//717 391//717
f 377//718 391//718 392//718
f 377//719 375//719 390//719
f 378//720 377//720 392//720
f 376//721 392//721 393//721
f 376//722 393//722 394//722
f 376//723 378//723 392//723
f 374//724 376//724 394//724
f 372//725 394//725 395//725
f 372//726 374//726 394//726
f 370//727 395//727 396//727
f 370//728 396//728 397//728
f 370//729 372//729 395//729
f 368//730 370//730 397//730
f 366//731 397//731 398//731
f 366//732 368//732 397//732
f 364//733 398//733 399//733
f 364//734 399//734 400//734
f 364//735 366//735 398//735
f 362//736 364//736 400//736
f 360//737 400//737 401//737
f 360//738 362//738 400//738
f 358//739 401//739 402//739
f 358//740 360//740 401//740
f 356//741 402//741 403//741
f 356//742 403//742 404//742
f 356//743 358//743 402//743
f 354//744 404//744 405//744
f 354//745 356//745 404//745
f 352//746 354//746 405//746
f 350//747 405//747 406//747
f 350//748 406//748 407//748
f 350//749 352//749 405//749
f 348//750 407//750 408//750
f 348//751 350//751 407//751
f 346//752 348//752 408//752
f 345//753 408//753 409//753
f 345//754 409//754 410//754
f 345//755 346//755 408//755
f 347//756 345//756 410//756
f 349//757 347//757 410//757
f 349//758 410//758 411//758
f 351//759 349//759 411//759
f 351//760 411//760 412//760
f 353//761 351//761 412//761
f 353//762 412//762 379//762
f 49//763 409//763 408//763
f 51//764 410//764 409//764
f 51//765 409//765 49//765
f 47//766 407//766 406//766
f 47//767 408//767 407//767
f 47//768 49//768 408//768
f 53//769 411//769 410//769
f 53//770 410//770 51//770
f 55//771 412//771 411//771
f 55//772 411//772 53//772
f 45//773 406//773 405//773
f 45//774 47//774 406//774
f 2//775 380//775 379//775
f 2//776 379//776 412//776
f 2//777 412//777 55//777
f 43//778 405//778 404//778
f 43//779 45//779 405//779
f 1//780 381//780 380//780
f 1//781 380//781 2//781
f 41//782 43//782 404//782
f 41//783 404//783 403//783
f 5//784 382//784 381//784
f 5//785 381//785 1//785
f 39//786 41//786 403//786
f 39//787 403//787 402//787
f 401//788 39//788 402//788
f 38//789 39//789 401//789
f 7//790 382//790 5//790
f 383//791 382//791 7//791
f 400//792 38//792 401//792
f 9//793 383//793 7//793
f 35//794 38//794 400//794
f 384//795 383//795 9//795
f 11//796 384//796 9//796
f 399//797 35//797 400//797
f 399//798 33//798 35//798
f 385//799 384//799 11//799
f 398//800 33//800 399//800
f 398//801 31//801 33//801
f 386//802 11//802 13//802
f 386//803 385//803 11//803
f 397//804 31//804 398//804
f 397//805 29//805 31//805
f 387//806 13//806 16//806
f 387//807 386//807 13//807
f 396//808 29//808 397//808
f 388//809 16//809 17//809
f 388//810 387//810 16//810
f 395//811 29//811 396//811
f 395//812 28//812 29//812
f 389//813 17//813 19//813
f 389//814 388//814 17//814
f 394//815 25//815 28//815
f 394//816 28//816 395//816
f 390//817 389//817 19//817
f 393//818 23//818 25//818
f 393//819 25//819 394//819
f 391//820 19//820 21//820
f 391//821 390//821 19//821
f 392//822 21//822 23//822
f 392//823 23//823 393//823
f 392//824 391//824 21//824
