# Created by FreeCAD <https://www.freecad.org>
v 0.000000 7.474447 1.705994
v 0.000000 7.666667 0.000000
v 80.000000 7.666667 0.000000
v 80.000000 7.474447 1.705994
v 0.000000 6.907428 3.326442
v 80.000000 6.907428 3.326442
v 0.000000 5.994041 4.780088
v 80.000000 5.994041 4.780088
v 0.000000 4.780088 5.994041
v 80.000000 4.780088 5.994041
v 0.000000 3.326442 6.907428
v 80.000000 3.326442 6.907428
v 0.000000 1.705994 7.474447
v 80.000000 1.705994 7.474447
v 80.000000 0.000000 7.666667
v 0.000000 0.000000 7.666667
v 0.000000 -1.705994 7.474447
v 80.000000 -1.705994 7.474447
v 0.000000 -3.326442 6.907428
v 80.000000 -3.326442 6.907428
v 0.000000 -4.780088 5.994041
v 80.000000 -4.780088 5.994041
v 0.000000 -5.994041 4.780088
v 80.000000 -5.994041 4.780088
v 0.000000 -6.907428 3.326442
v 80.000000 -6.907428 3.326442
v 80.000000 -7.474447 1.705994
v 0.000000 -7.474447 1.705994
v 0.000000 -7.666667 0.000000
v 80.000000 -7.666667 0.000000
v 0.000000 -7.474447 -1.705994
v 80.000000 -7.474447 -1.705994
v 0.000000 -6.907428 -3.326442
v 80.000000 -6.907428 -3.326442
v 0.000000 -5.994041 -4.780088
v 80.000000 -5.994041 -4.780088
v 80.000000 -4.780088 -5.994041
v 0.000000 -4.780088 -5.994041
v 0.000000 -3.326442 -6.907428
v 80.000000 -3.326442 -6.907428
v 0.000000 -1.705994 -7.474447
v 80.000000 -1.705994 -7.474447
v 0.000000 -0.000000 -7.666667
v 80.000000 -0.000000 -7.666667
v 0.000000 1.705994 -7.474447
v 80.000000 1.705994 -7.474447
v 0.000000 3.326442 -6.907428
v 80.000000 3.326442 -6.907428
v 0.000000 4.780088 -5.994041
v 80.000000 4.780088 -5.994041
v 0.000000 5.994041 -4.780088
v 80.000000 5.994041 -4.780088
v 0.000000 6.907428 -3.326442
v 80.000000 6.907428 -3.326442
v 0.000000 7.474447 -1.705994
v 80.000000 7.474447 -1.705994
v 80.000000 -14.386796 -13.893167
v 80.000000 -12.313230 -15.760215
v 80.000000 -10.000000 -17.320509
v 80.000000 -16.180340 -11.755705
v 80.000000 -7.492132 -18.543676
v 80.000000 -18.793852 -6.840403
v 80.000000 -17.658953 -9.389431
v 80.000000 -4.838438 -19.405914
v 80.000000 -2.090569 -19.890438
v 80.000000 -19.951281 -1.395129
v 80.000000 -19.562952 -4.158234
v 80.000000 -19.951281 1.395129
v 80.000000 0.697990 -19.987816
v 80.000000 3.472964 -19.696156
v 80.000000 6.180340 -19.021130
v 80.000000 -18.793852 6.840403
v 80.000000 -19.562952 4.158234
v 80.000000 8.767423 -17.975882
v 80.000000 11.183858 -16.580751
v 80.000000 -16.180340 11.755705
v 80.000000 -17.658953 9.389431
v 80.000000 13.382612 -14.862897
v 80.000000 -14.386796 13.893167
v 80.000000 15.320889 -12.855752
v 80.000000 -12.313230 15.760215
v 80.000000 16.960962 -10.598385
v 80.000000 -10.000000 17.320509
v 80.000000 18.270908 -8.134733
v 80.000000 -7.492132 18.543676
v 80.000000 19.225233 -5.512747
v 80.000000 -4.838438 19.405914
v 80.000000 19.805361 -2.783462
v 80.000000 -2.090569 19.890438
v 80.000000 20.000000 0.000000
v 80.000000 0.697990 19.987816
v 80.000000 19.805361 2.783462
v 80.000000 3.472964 19.696156
v 80.000000 19.225233 5.512747
v 80.000000 6.180340 19.021130
v 80.000000 18.270908 8.134733
v 80.000000 8.767423 17.975882
v 80.000000 16.960962 10.598385
v 80.000000 11.183858 16.580751
v 80.000000 15.320889 12.855752
v 80.000000 13.382612 14.862897
v 43.000000 20.000000 0.000000
v 43.000000 19.805361 2.783462
v 43.000000 19.225233 5.512747
v 43.000000 18.270908 8.134733
v 43.000000 16.960962 10.598385
v 43.000000 15.320889 12.855752
v 43.000000 13.382612 14.862897
v 43.000000 11.183858 16.580751
v 43.000000 8.767423 17.975882
v 43.000000 6.180340 19.021130
v 43.000000 3.472964 19.696156
v 43.000000 0.697990 19.987816
v 43.000000 -2.090569 19.890438
v 43.000000 -4.838438 19.405914
v 43.000000 -7.492132 18.543676
v 43.000000 -10.000000 17.320509
v 43.000000 -12.313230 15.760215
v 43.000000 -14.386796 13.893167
v 43.000000 -16.180340 11.755705
v 43.000000 -17.658953 9.389431
v 43.000000 -18.793852 6.840403
v 43.000000 -19.562952 4.158234
v 43.000000 -19.951281 1.395129
v 43.000000 -19.951281 -1.395129
v 43.000000 -19.562952 -4.158234
v 43.000000 -18.793852 -6.840403
v 43.000000 -17.658953 -9.389431
v 43.000000 -16.180340 -11.755705
v 43.000000 -14.386796 -13.893167
v 43.000000 -12.313230 -15.760215
v 43.000000 -10.000000 -17.320509
v 43.000000 -7.492132 -18.543676
v 43.000000 -4.838438 -19.405914
v 43.000000 -2.090569 -19.890438
v 43.000000 0.697990 -19.987816
v 43.000000 3.472964 -19.696156
v 43.000000 6.180340 -19.021130
v 43.000000 8.767423 -17.975882
v 43.000000 11.183858 -16.580751
v 43.000000 13.382612 -14.862897
v 43.000000 15.320889 -12.855752
v 43.000000 16.960962 -10.598385
v 43.000000 18.270908 -8.134733
v 43.000000 19.225233 -5.512747
v 43.000000 19.805361 -2.783462
v 43.000000 -16.289938 -13.252847
v 43.000000 -14.333616 -15.347555
v 43.000000 -12.110287 -17.156368
v 43.000000 -17.942808 -10.911263
v 43.000000 -9.661366 -18.645590
v 43.000000 -19.261436 -8.366423
v 43.000000 -7.032472 -19.787479
v 43.000000 -20.221264 -5.665732
v 43.000000 -4.272576 -20.560766
v 43.000000 -20.804405 -2.859500
v 43.000000 -1.433091 -20.951044
v 43.000000 -21.000000 0.000000
v 43.000000 1.433091 -20.951044
v 43.000000 -20.804405 2.859500
v 43.000000 4.272576 -20.560766
v 43.000000 -20.221264 5.665732
v 43.000000 7.032472 -19.787479
v 43.000000 -19.261436 8.366423
v 43.000000 9.661366 -18.645590
v 43.000000 -17.942808 10.911263
v 43.000000 12.110287 -17.156368
v 43.000000 -16.289938 13.252847
v 43.000000 14.333616 -15.347555
v 43.000000 -14.333616 15.347555
v 43.000000 16.289938 -13.252847
v 43.000000 -12.110287 17.156368
v 43.000000 17.942808 -10.911263
v 43.000000 -9.661366 18.645590
v 43.000000 19.261436 -8.366423
v 43.000000 -7.032472 19.787479
v 43.000000 20.221264 -5.665732
v 43.000000 -4.272576 20.560766
v 43.000000 20.804405 -2.859500
v 43.000000 -1.433091 20.951044
v 43.000000 21.000000 0.000000
v 43.000000 1.433091 20.951044
v 43.000000 20.804405 2.859500
v 43.000000 4.272576 20.560766
v 43.000000 20.221264 5.665732
v 43.000000 7.032472 19.787479
v 43.000000 19.261436 8.366423
v 43.000000 9.661366 18.645590
v 43.000000 17.942808 10.911263
v 43.000000 12.110287 17.156368
v 43.000000 16.289938 13.252847
v 43.000000 14.333616 15.347555
v 42.000000 21.000000 0.000000
v 42.000000 20.804405 2.859500
v 42.000000 20.221264 5.665732
v 42.000000 19.261436 8.366423
v 42.000000 17.942808 10.911263
v 42.000000 16.289938 13.252847
v 42.000000 14.333616 15.347555
v 42.000000 12.110287 17.156368
v 42.000000 9.661366 18.645590
v 42.000000 7.032472 19.787479
v 42.000000 4.272576 20.560766
v 42.000000 1.433091 20.951044
v 42.000000 -1.433091 20.951044
v 42.000000 -4.272576 20.560766
v 42.000000 -7.032472 19.787479
v 42.000000 -9.661366 18.645590
v 42.000000 -12.110287 17.156368
v 42.000000 -14.333616 15.347555
v 42.000000 -16.289938 13.252847
v 42.000000 -17.942808 10.911263
v 42.000000 -19.261436 8.366423
v 42.000000 -20.221264 5.665732
v 42.000000 -20.804405 2.859500
v 42.000000 -21.000000 0.000000
v 42.000000 -20.804405 -2.859500
v 42.000000 -20.221264 -5.665732
v 42.000000 -19.261436 -8.366423
v 42.000000 -17.942808 -10.911263
v 42.000000 -16.289938 -13.252847
v 42.000000 -14.333616 -15.347555
v 42.000000 -12.110287 -17.156368
v 42.000000 -9.661366 -18.645590
v 42.000000 -7.032472 -19.787479
v 42.000000 -4.272576 -20.560766
v 42.000000 -1.433091 -20.951044
v 42.000000 1.433091 -20.951044
v 42.000000 4.272576 -20.560766
v 42.000000 7.032472 -19.787479
v 42.000000 9.661366 -18.645590
v 42.000000 12.110287 -17.156368
v 42.000000 14.333616 -15.347555
v 42.000000 16.289938 -13.252847
v 42.000000 17.942808 -10.911263
v 42.000000 19.261436 -8.366423
v 42.000000 20.221264 -5.665732
v 42.000000 20.804405 -2.859500
v 42.000000 -16.263456 -16.263456
v 42.000000 -14.001513 -18.247128
v 42.000000 -18.247128 -14.001513
v 42.000000 -11.500000 -19.918585
v 42.000000 -19.918585 -11.500000
v 42.000000 -8.801719 -21.249229
v 42.000000 -21.249229 -8.801719
v 42.000000 -5.952838 -22.216293
v 42.000000 -22.216293 -5.952838
v 42.000000 -3.002102 -22.803232
v 42.000000 -22.803232 -3.002102
v 42.000000 -0.000000 -23.000000
v 42.000000 -23.000000 0.000000
v 42.000000 -22.803232 3.002102
v 42.000000 3.002102 -22.803232
v 42.000000 5.952838 -22.216293
v 42.000000 -22.216293 5.952838
v 42.000000 8.801719 -21.249229
v 42.000000 -21.249229 8.801719
v 42.000000 11.500000 -19.918585
v 42.000000 -19.918585 11.500000
v 42.000000 14.001513 -18.247128
v 42.000000 -18.247128 14.001513
v 42.000000 16.263456 -16.263456
v 42.000000 -16.263456 16.263456
v 42.000000 18.247128 -14.001513
v 42.000000 -14.001513 18.247128
v 42.000000 19.918585 -11.500000
v 42.000000 -11.500000 19.918585
v 42.000000 21.249229 -8.801719
v 42.000000 -8.801719 21.249229
v 42.000000 22.216293 -5.952838
v 42.000000 -5.952838 22.216293
v 42.000000 22.803232 -3.002102
v 42.000000 -3.002102 22.803232
v 42.000000 23.000000 0.000000
v 42.000000 -0.000000 23.000000
v 42.000000 22.803232 3.002102
v 42.000000 3.002102 22.803232
v 42.000000 5.952838 22.216293
v 42.000000 22.216293 5.952838
v 42.000000 21.249229 8.801719
v 42.000000 8.801719 21.249229
v 42.000000 11.500000 19.918585
v 42.000000 19.918585 11.500000
v 42.000000 14.001513 18.247128
v 42.000000 18.247128 14.001513
v 42.000000 16.263456 16.263456
v 22.000000 23.000000 0.000000
v 22.000000 22.803232 3.002102
v 22.000000 22.216293 5.952838
v 22.000000 21.249229 8.801719
v 22.000000 19.918585 11.500000
v 22.000000 18.247128 14.001513
v 22.000000 16.263456 16.263456
v 22.000000 14.001513 18.247128
v 22.000000 11.500000 19.918585
v 22.000000 8.801719 21.249229
v 22.000000 5.952838 22.216293
v 22.000000 3.002102 22.803232
v 22.000000 -0.000000 23.000000
v 22.000000 -3.002102 22.803232
v 22.000000 -5.952838 22.216293
v 22.000000 -8.801719 21.249229
v 22.000000 -11.500000 19.918585
v 22.000000 -14.001513 18.247128
v 22.000000 -16.263456 16.263456
v 22.000000 -18.247128 14.001513
v 22.000000 -19.918585 11.500000
v 22.000000 -21.249229 8.801719
v 22.000000 -22.216293 5.952838
v 22.000000 -22.803232 3.002102
v 22.000000 -23.000000 0.000000
v 22.000000 -22.803232 -3.002102
v 22.000000 -22.216293 -5.952838
v 22.000000 -21.249229 -8.801719
v 22.000000 -19.918585 -11.500000
v 22.000000 -18.247128 -14.001513
v 22.000000 -16.263456 -16.263456
v 22.000000 -14.001513 -18.247128
v 22.000000 -11.500000 -19.918585
v 22.000000 -8.801719 -21.249229
v 22.000000 -5.952838 -22.216293
v 22.000000 -3.002102 -22.803232
v 22.000000 -0.000000 -23.000000
v 22.000000 3.002102 -22.803232
v 22.000000 5.952838 -22.216293
v 22.000000 8.801719 -21.249229
v 22.000000 11.500000 -19.918585
v 22.000000 14.001513 -18.247128
v 22.000000 16.263456 -16.263456
v 22.000000 18.247128 -14.001513
v 22.000000 19.918585 -11.500000
v 22.000000 21.249229 -8.801719
v 22.000000 22.216293 -5.952838
v 22.000000 22.803232 -3.002102
v 22.000000 8.498603 -7.747500
v 22.000000 6.930298 -9.177198
v 22.000000 9.777497 -6.053970
v 22.000000 5.125991 -10.294378
v 22.000000 10.723431 -4.154279
v 22.000000 3.147124 -11.060995
v 22.000000 11.304191 -2.113119
v 22.000000 1.061086 -11.450943
v 22.000000 11.500000 0.000000
v 22.000000 -1.061086 -11.450943
v 22.000000 11.304191 2.113119
v 22.000000 -3.147124 -11.060995
v 22.000000 10.723431 4.154279
v 22.000000 -5.125991 -10.294378
v 22.000000 9.777497 6.053970
v 22.000000 -6.930298 -9.177198
v 22.000000 8.498603 7.747500
v 22.000000 -8.498603 -7.747500
v 22.000000 6.930298 9.177198
v 22.000000 -9.777497 -6.053970
v 22.000000 5.125991 10.294378
v 22.000000 -10.723431 -4.154279
v 22.000000 3.147124 11.060995
v 22.000000 -11.304191 -2.113119
v 22.000000 1.061086 11.450943
v 22.000000 -11.500000 0.000000
v 22.000000 -1.061086 11.450943
v 22.000000 -3.147124 11.060995
v 22.000000 -11.304191 2.113119
v 22.000000 -10.723431 4.154279
v 22.000000 -5.125991 10.294378
v 22.000000 -9.777497 6.053970
v 22.000000 -6.930298 9.177198
v 22.000000 -8.498603 7.747500
v 0.000000 11.500000 0.000000
v 0.000000 11.304191 2.113119
v 0.000000 10.723431 4.154279
v 0.000000 9.777497 6.053970
v 0.000000 8.498603 7.747500
v 0.000000 6.930298 9.177198
v 0.000000 5.125991 10.294378
v 0.000000 3.147124 11.060995
v 0.000000 1.061086 11.450943
v 0.000000 -1.061086 11.450943
v 0.000000 -3.147124 11.060995
v 0.000000 -5.125991 10.294378
v 0.000000 -6.930298 9.177198
v 0.000000 -8.498603 7.747500
v 0.000000 -9.777497 6.053970
v 0.000000 -10.723431 4.154279
v 0.000000 -11.304191 2.113119
v 0.000000 -11.500000 0.000000
v 0.000000 -11.304191 -2.113119
v 0.000000 -10.723431 -4.154279
v 0.000000 -9.777497 -6.053970
v 0.000000 -8.498603 -7.747500
v 0.000000 -6.930298 -9.177198
v 0.000000 -5.125991 -10.294378
v 0.000000 -3.147124 -11.060995
v 0.000000 -1.061086 -11.450943
v 0.000000 1.061086 -11.450943
v 0.000000 3.147124 -11.060995
v 0.000000 5.125991 -10.294378
v 0.000000 6.930298 -9.177198
v 0.000000 8.498603 -7.747500
v 0.000000 9.777497 -6.053970
v 0.000000 10.723431 -4.154279
v 0.000000 11.304191 -2.113119
vn 0.000000 -0.993712 -0.111964
vn 0.000000 -0.993712 -0.111964
vn 0.000000 -0.943883 -0.330279
vn 0.000000 -0.943883 -0.330279
vn 0.000000 -0.846724 -0.532032
vn 0.000000 -0.846724 -0.532032
vn 0.000000 -0.707107 -0.707107
vn 0.000000 -0.707107 -0.707107
vn 0.000000 -0.532032 -0.846724
vn 0.000000 -0.532032 -0.846724
vn 0.000000 -0.330279 -0.943883
vn 0.000000 -0.111964 -0.993712
vn 0.000000 -0.330279 -0.943883
vn 0.000000 -0.111964 -0.993712
vn 0.000000 0.111964 -0.993712
vn 0.000000 0.111964 -0.993712
vn 0.000000 0.330279 -0.943883
vn 0.000000 0.330279 -0.943883
vn 0.000000 0.532032 -0.846724
vn 0.000000 0.532032 -0.846724
vn 0.000000 0.707107 -0.707107
vn 0.000000 0.707107 -0.707107
vn 0.000000 0.846724 -0.532032
vn 0.000000 0.846724 -0.532032
vn 0.000000 0.943883 -0.330279
vn 0.000000 0.943883 -0.330279
vn 0.000000 0.993712 -0.111964
vn 0.000000 0.993712 -0.111964
vn 0.000000 0.993712 0.111964
vn -0.000000 0.993712 0.111964
vn 0.000000 0.943883 0.330279
vn -0.000000 0.943883 0.330279
vn 0.000000 0.846724 0.532032
vn -0.000000 0.846724 0.532032
vn -0.000000 0.707107 0.707107
vn -0.000000 0.707107 0.707107
vn 0.000000 0.532032 0.846724
vn -0.000000 0.532032 0.846724
vn 0.000000 0.330279 0.943883
vn -0.000000 0.330279 0.943883
vn 0.000000 0.111964 0.993712
vn -0.000000 0.111964 0.993712
vn 0.000000 -0.111964 0.993712
vn 0.000000 -0.111964 0.993712
vn 0.000000 -0.330279 0.943883
vn 0.000000 -0.330279 0.943883
vn 0.000000 -0.532032 0.846724
vn 0.000000 -0.532032 0.846724
vn 0.000000 -0.707107 0.707107
vn 0.000000 -0.707107 0.707107
vn 0.000000 -0.846724 0.532032
vn 0.000000 -0.846724 0.532032
vn 0.000000 -0.943883 0.330279
vn 0.000000 -0.943883 0.330279
vn 0.000000 -0.993712 0.111964
vn 0.000000 -0.993712 0.111964
vn 1.000000 0.000000 0.000000
vn 1.000000 0.000000 0.000000
vn 1.000000 0.000000 0.000000
vn 1.000000 0.000000 0.000000
vn 1.000000 0.000000 0.000000
vn 1.000000 0.000000 0.000000
vn 1.000000 0.000000 0.000000
vn 1.000000 0.000000 0.000000
vn 1.000000 0.000000 0.000000
vn 1.000000 0.000000 0.000000
vn 1.000000 0.000000 0.000000
vn 1.000000 0.000000 0.000000
vn 1.000000 0.000000 0.000000
vn 1.000000 0.000000 0.000000
vn 1.000000 0.000000 0.000000
vn 1.000000 0.000000 0.000000
vn 1.000000 0.000000 0.000000
vn 1.000000 0.000000 0.000000
vn 1.000000 0.000000 0.000000
vn 1.000000 0.000000 0.000000
vn 1.000000 0.000000 0.000000
vn 1.000000 0.000000 0.000000
vn 1.000000 0.000000 0.000000
vn 1.000000 0.000000 0.000000
vn 1.000000 0.000000 0.000000
vn 1.000000 0.000000 0.000000
vn 1.000000 0.000000 0.000000
vn 1.000000 0.000000 0.000000
vn 1.000000 0.000000 0.000000
vn 1.000000 0.000000 0.000000
vn 1.000000 0.000000 0.000000
vn 1.000000 0.000000 0.000000
vn 1.000000 0.000000 0.000000
vn 1.000000 0.000000 0.000000
vn 1.000000 0.000000 0.000000
vn 1.000000 0.000000 0.000000
vn 1.000000 0.000000 0.000000
vn 1.000000 0.000000 0.000000
vn 1.000000 0.000000 0.000000
vn 1.000000 0.000000 0.000000
vn 1.000000 0.000000 0.000000
vn 1.000000 0.000000 0.000000
vn 1.000000 0.000000 0.000000
vn 1.000000 0.000000 0.000000
vn 1.000000 0.000000 0.000000
vn 1.000000 0.000000 0.000000
vn 1.000000 0.000000 0.000000
vn 1.000000 0.000000 0.000000
vn 1.000000 0.000000 0.000000
vn 1.000000 0.000000 0.000000
vn 1.000000 0.000000 0.000000
vn 1.000000 0.000000 0.000000
vn 1.000000 0.000000 0.000000
vn 1.000000 0.000000 0.000000
vn 1.000000 0.000000 0.000000
vn 1.000000 0.000000 0.000000
vn 1.000000 0.000000 0.000000
vn 1.000000 0.000000 0.000000
vn 1.000000 0.000000 0.000000
vn 1.000000 0.000000 0.000000
vn 1.000000 0.000000 0.000000
vn 1.000000 0.000000 0.000000
vn 1.000000 0.000000 0.000000
vn 1.000000 0.000000 0.000000
vn 1.000000 0.000000 0.000000
vn 1.000000 0.000000 0.000000
vn 1.000000 0.000000 0.000000
vn 1.000000 0.000000 0.000000
vn 1.000000 0.000000 0.000000
vn 1.000000 0.000000 0.000000
vn 1.000000 0.000000 0.000000
vn 1.000000 0.000000 0.000000
vn 1.000000 0.000000 0.000000
vn 0.000000 0.997564 0.069757
vn 0.000000 0.978148 0.207912
vn 0.000000 0.997564 0.069757
vn 0.000000 0.978148 0.207912
vn 0.000000 0.939693 0.342020
vn 0.000000 0.939693 0.342020
vn 0.000000 0.882948 0.469471
vn 0.000000 0.882948 0.469471
vn 0.000000 0.809017 0.587785
vn 0.000000 0.719340 0.694658
vn 0.000000 0.809017 0.587785
vn 0.000000 0.719340 0.694658
vn 0.000000 0.615661 0.788011
vn 0.000000 0.500000 0.866025
vn 0.000000 0.615661 0.788011
vn 0.000000 0.500000 0.866025
vn 0.000000 0.374606 0.927184
vn 0.000000 0.374606 0.927184
vn 0.000000 0.241922 0.970296
vn 0.000000 0.241922 0.970296
vn 0.000000 0.104528 0.994522
vn 0.000000 0.104528 0.994522
vn 0.000000 -0.034899 0.999391
vn 0.000000 -0.034899 0.999391
vn 0.000000 -0.173648 0.984808
vn 0.000000 -0.173648 0.984808
vn 0.000000 -0.309017 0.951056
vn 0.000000 -0.438371 0.898794
vn 0.000000 -0.309017 0.951056
vn 0.000000 -0.559193 0.829037
vn 0.000000 -0.438371 0.898794
vn 0.000000 -0.559193 0.829037
vn 0.000000 -0.669131 0.743145
vn 0.000000 -0.669131 0.743145
vn 0.000000 -0.766045 0.642788
vn 0.000000 -0.848048 0.529920
vn 0.000000 -0.766045 0.642788
vn 0.000000 -0.848048 0.529920
vn 0.000000 -0.913546 0.406736
vn 0.000000 -0.913546 0.406736
vn 0.000000 -0.961262 0.275638
vn 0.000000 -0.961262 0.275638
vn 0.000000 -0.990268 0.139173
vn -0.000000 -1.000000 0.000000
vn 0.000000 -0.990268 0.139173
vn 0.000000 -1.000000 0.000000
vn -0.000000 -0.990268 -0.139173
vn 0.000000 -0.990268 -0.139173
vn -0.000000 -0.961262 -0.275638
vn 0.000000 -0.961262 -0.275638
vn -0.000000 -0.913546 -0.406736
vn 0.000000 -0.913546 -0.406736
vn 0.000000 -0.848048 -0.529920
vn -0.000000 -0.848048 -0.529920
vn -0.000000 -0.766045 -0.642788
vn -0.000000 -0.766045 -0.642788
vn 0.000000 -0.669131 -0.743145
vn -0.000000 -0.669131 -0.743145
vn -0.000000 -0.559193 -0.829037
vn -0.000000 -0.559193 -0.829037
vn 0.000000 -0.438371 -0.898794
vn -0.000000 -0.438371 -0.898794
vn 0.000000 -0.309017 -0.951056
vn -0.000000 -0.309017 -0.951056
vn 0.000000 -0.173648 -0.984808
vn -0.000000 -0.173648 -0.984808
vn 0.000000 -0.034899 -0.999391
vn -0.000000 -0.034899 -0.999391
vn 0.000000 0.104528 -0.994522
vn 0.000000 0.104528 -0.994522
vn 0.000000 0.241922 -0.970296
vn 0.000000 0.241922 -0.970296
vn 0.000000 0.374606 -0.927184
vn 0.000000 0.374606 -0.927184
vn 0.000000 0.500000 -0.866025
vn 0.000000 0.500000 -0.866025
vn 0.000000 0.615661 -0.788011
vn 0.000000 0.719340 -0.694658
vn 0.000000 0.615661 -0.788011
vn 0.000000 0.719340 -0.694658
vn 0.000000 0.809017 -0.587785
vn 0.000000 0.809017 -0.587785
vn 0.000000 0.882948 -0.469471
vn 0.000000 0.882948 -0.469471
vn 0.000000 0.939693 -0.342020
vn 0.000000 0.939693 -0.342020
vn 0.000000 0.978148 -0.207912
vn 0.000000 0.978148 -0.207912
vn 0.000000 0.997564 -0.069757
vn 0.000000 0.997564 -0.069757
vn 1.000000 0.000000 0.000000
vn 1.000000 0.000000 0.000000
vn 1.000000 0.000000 0.000000
vn 1.000000 0.000000 0.000000
vn 1.000000 0.000000 0.000000
vn 1.000000 0.000000 0.000000
vn 1.000000 0.000000 0.000000
vn 1.000000 0.000000 0.000000
vn 1.000000 0.000000 0.000000
vn 1.000000 0.000000 0.000000
vn 1.000000 0.000000 0.000000
vn 1.000000 0.000000 0.000000
vn 1.000000 0.000000 0.000000
vn 1.000000 0.000000 0.000000
vn 1.000000 0.000000 0.000000
vn 1.000000 0.000000 0.000000
vn 1.000000 0.000000 0.000000
vn 1.000000 0.000000 0.000000
vn 1.000000 0.000000 0.000000
vn 1.000000 0.000000 0.000000
vn 1.000000 0.000000 0.000000
vn 1.000000 0.000000 0.000000
vn 1.000000 0.000000 0.000000
vn 1.000000 0.000000 0.000000
vn 1.000000 0.000000 0.000000
vn 1.000000 0.000000 0.000000
vn 1.000000 0.000000 0.000000
vn 1.000000 0.000000 0.000000
vn 1.000000 0.000000 0.000000
vn 1.000000 0.000000 0.000000
vn 1.000000 0.000000 0.000000
vn 1.000000 0.000000 0.000000
vn 1.000000 0.000000 0.000000
vn 1.000000 0.000000 0.000000
vn 1.000000 0.000000 0.000000
vn 1.000000 0.000000 0.000000
vn 1.000000 0.000000 0.000000
vn 1.000000 0.000000 0.000000
vn 1.000000 0.000000 0.000000
vn 1.000000 0.000000 0.000000
vn 1.000000 0.000000 0.000000
vn 1.000000 0.000000 0.000000
vn 1.000000 0.000000 0.000000
vn 1.000000 0.000000 0.000000
vn 1.000000 0.000000 0.000000
vn 1.000000 0.000000 0.000000
vn 1.000000 0.000000 0.000000
vn 1.000000 0.000000 0.000000
vn 1.000000 0.000000 0.000000
vn 1.000000 0.000000 0.000000
vn 1.000000 0.000000 0.000000
vn 1.000000 0.000000 0.000000
vn 1.000000 0.000000 0.000000
vn 1.000000 0.000000 0.000000
vn 1.000000 0.000000 0.000000
vn 1.000000 0.000000 0.000000
vn 1.000000 0.000000 0.000000
vn 1.000000 0.000000 0.000000
vn 1.000000 0.000000 0.000000
vn 1.000000 0.000000 0.000000
vn 1.000000 0.000000 0.000000
vn 1.000000 0.000000 0.000000
vn 1.000000 0.000000 0.000000
vn 1.000000 0.000000 0.000000
vn 1.000000 0.000000 0.000000
vn 1.000000 0.000000 0.000000
vn 1.000000 0.000000 0.000000
vn 1.000000 0.000000 0.000000
vn 1.000000 0.000000 0.000000
vn 1.000000 0.000000 0.000000
vn 1.000000 0.000000 0.000000
vn 1.000000 0.000000 0.000000
vn 1.000000 0.000000 0.000000
vn 1.000000 0.000000 0.000000
vn 1.000000 0.000000 0.000000
vn 1.000000 0.000000 0.000000
vn 1.000000 0.000000 0.000000
vn 1.000000 0.000000 0.000000
vn 1.000000 0.000000 0.000000
vn 1.000000 0.000000 0.000000
vn 1.000000 0.000000 0.000000
vn 1.000000 0.000000 0.000000
vn 1.000000 0.000000 0.000000
vn 1.000000 0.000000 0.000000
vn 1.000000 0.000000 0.000000
vn 1.000000 0.000000 0.000000
vn 1.000000 0.000000 0.000000
vn 1.000000 0.000000 0.000000
vn 1.000000 0.000000 0.000000
vn 1.000000 0.000000 0.000000
vn 1.000000 0.000000 0.000000
vn 0.000000 0.997669 0.068242
vn 0.000000 0.997669 0.068242
vn 0.000000 0.979084 0.203456
vn 0.000000 0.979084 0.203456
vn 0.000000 0.942261 0.334880
vn 0.000000 0.942261 0.334880
vn 0.000000 0.887885 0.460065
vn 0.000000 0.887885 0.460065
vn 0.000000 0.816970 0.576680
vn 0.000000 0.816970 0.576680
vn 0.000000 0.730836 0.682553
vn 0.000000 0.730836 0.682553
vn 0.000000 0.631088 0.775711
vn 0.000000 0.631088 0.775711
vn 0.000000 0.519584 0.854419
vn 0.000000 0.519584 0.854419
vn 0.000000 0.398401 0.917211
vn 0.000000 0.398401 0.917211
vn 0.000000 0.269797 0.962917
vn 0.000000 0.269797 0.962917
vn 0.000000 0.136166 0.990686
vn 0.000000 0.136166 0.990686
vn 0.000000 0.000000 1.000000
vn 0.000000 -0.000000 1.000000
vn 0.000000 -0.136166 0.990686
vn 0.000000 -0.136166 0.990686
vn 0.000000 -0.269797 0.962917
vn 0.000000 -0.269797 0.962917
vn 0.000000 -0.398401 0.917211
vn 0.000000 -0.398401 0.917211
vn 0.000000 -0.519584 0.854419
vn 0.000000 -0.519584 0.854419
vn 0.000000 -0.631088 0.775711
vn 0.000000 -0.631088 0.775711
vn 0.000000 -0.730836 0.682553
vn 0.000000 -0.730836 0.682553
vn 0.000000 -0.816970 0.576680
vn 0.000000 -0.816970 0.576680
vn 0.000000 -0.887885 0.460065
vn 0.000000 -0.887885 0.460065
vn 0.000000 -0.942261 0.334880
vn 0.000000 -0.942261 0.334880
vn 0.000000 -0.979084 0.203456
vn 0.000000 -0.979084 0.203456
vn 0.000000 -0.997669 0.068242
vn 0.000000 -0.997669 0.068242
vn -0.000000 -0.997669 -0.068242
vn 0.000000 -0.997669 -0.068242
vn -0.000000 -0.979084 -0.203456
vn -0.000000 -0.942261 -0.334880
vn 0.000000 -0.979084 -0.203456
vn -0.000000 -0.942261 -0.334880
vn 0.000000 -0.887885 -0.460065
vn -0.000000 -0.887885 -0.460065
vn -0.000000 -0.816970 -0.576680
vn -0.000000 -0.816970 -0.576680
vn 0.000000 -0.730836 -0.682553
vn -0.000000 -0.730836 -0.682553
vn -0.000000 -0.631088 -0.775711
vn -0.000000 -0.631088 -0.775711
vn -0.000000 -0.519584 -0.854419
vn -0.000000 -0.519584 -0.854419
vn 0.000000 -0.398401 -0.917211
vn -0.000000 -0.398401 -0.917211
vn 0.000000 -0.269797 -0.962917
vn -0.000000 -0.269797 -0.962917
vn -0.000000 -0.136166 -0.990686
vn 0.000000 -0.136166 -0.990686
vn 0.000000 -0.000000 -1.000000
vn -0.000000 0.000000 -1.000000
vn 0.000000 0.136166 -0.990686
vn 0.000000 0.269797 -0.962917
vn 0.000000 0.136166 -0.990686
vn 0.000000 0.269797 -0.962917
vn 0.000000 0.398401 -0.917211
vn 0.000000 0.398401 -0.917211
vn 0.000000 0.519584 -0.854419
vn 0.000000 0.519584 -0.854419
vn 0.000000 0.631088 -0.775711
vn 0.000000 0.631088 -0.775711
vn 0.000000 0.730836 -0.682553
vn 0.000000 0.730836 -0.682553
vn 0.000000 0.816970 -0.576680
vn 0.000000 0.816970 -0.576680
vn 0.000000 0.887885 -0.460065
vn 0.000000 0.887885 -0.460065
vn 0.000000 0.942261 -0.334880
vn 0.000000 0.942261 -0.334880
vn 0.000000 0.979084 -0.203456
vn 0.000000 0.979084 -0.203456
vn 0.000000 0.997669 -0.068242
vn 0.000000 0.997669 -0.068242
vn 1.000000 0.000000 0.000000
vn 1.000000 0.000000 0.000000
vn 1.000000 0.000000 0.000000
vn 1.000000 0.000000 0.000000
vn 1.000000 0.000000 0.000000
vn 1.000000 0.000000 0.000000
vn 1.000000 0.000000 0.000000
vn 1.000000 0.000000 0.000000
vn 1.000000 0.000000 0.000000
vn 1.000000 0.000000 0.000000
vn 1.000000 0.000000 0.000000
vn 1.000000 0.000000 0.000000
vn 1.000000 0.000000 0.000000
vn 1.000000 0.000000 0.000000
vn 1.000000 0.000000 0.000000
vn 1.000000 0.000000 0.000000
vn 1.000000 0.000000 0.000000
vn 1.000000 0.000000 0.000000
vn 1.000000 0.000000 0.000000
vn 1.000000 0.000000 0.000000
vn 1.000000 0.000000 0.000000
vn 1.000000 0.000000 0.000000
vn 1.000000 0.000000 0.000000
vn 1.000000 0.000000 0.000000
vn 1.000000 0.000000 0.000000
vn 1.000000 0.000000 0.000000
vn 1.000000 0.000000 0.000000
vn 1.000000 0.000000 0.000000
vn 1.000000 0.000000 0.000000
vn 1.000000 0.000000 0.000000
vn 1.000000 0.000000 0.000000
vn 1.000000 0.000000 0.000000
vn 1.000000 0.000000 0.000000
vn 1.000000 0.000000 0.000000
vn 1.000000 0.000000 0.000000
vn 1.000000 0.000000 0.000000
vn 1.000000 0.000000 0.000000
vn 1.000000 0.000000 0.000000
vn 1.000000 0.000000 0.000000
vn 1.000000 0.000000 0.000000
vn 1.000000 0.000000 0.000000
vn 1.000000 0.000000 0.000000
vn 1.000000 0.000000 0.000000
vn 1.000000 0.000000 0.000000
vn 1.000000 0.000000 0.000000
vn 1.000000 0.000000 0.000000
vn 1.000000 0.000000 0.000000
vn 1.000000 0.000000 0.000000
vn 1.000000 0.000000 0.000000
vn 1.000000 0.000000 0.000000
vn 1.000000 0.000000 0.000000
vn 1.000000 0.000000 0.000000
vn 1.000000 0.000000 0.000000
vn 1.000000 0.000000 0.000000
vn 1.000000 0.000000 0.000000
vn 1.000000 0.000000 0.000000
vn 1.000000 0.000000 0.000000
vn 1.000000 0.000000 0.000000
vn 1.000000 0.000000 0.000000
vn 1.000000 0.000000 0.000000
vn 1.000000 0.000000 0.000000
vn 1.000000 0.000000 0.000000
vn 1.000000 0.000000 0.000000
vn 1.000000 0.000000 0.000000
vn 1.000000 0.000000 0.000000
vn 1.000000 0.000000 0.000000
vn 1.000000 0.000000 0.000000
vn 1.000000 0.000000 0.000000
vn 1.000000 0.000000 0.000000
vn 1.000000 0.000000 0.000000
vn 1.000000 0.000000 0.000000
vn 1.000000 0.000000 0.000000
vn 1.000000 0.000000 0.000000
vn 1.000000 0.000000 0.000000
vn 1.000000 0.000000 0.000000
vn 1.000000 0.000000 0.000000
vn 1.000000 0.000000 0.000000
vn 1.000000 0.000000 0.000000
vn 1.000000 0.000000 0.000000
vn 1.000000 0.000000 0.000000
vn 1.000000 0.000000 0.000000
vn 1.000000 0.000000 0.000000
vn 1.000000 0.000000 0.000000
vn 1.000000 0.000000 0.000000
vn 1.000000 0.000000 0.000000
vn 1.000000 0.000000 0.000000
vn 1.000000 0.000000 0.000000
vn 1.000000 0.000000 0.000000
vn 1.000000 0.000000 0.000000
vn 1.000000 0.000000 0.000000
vn 1.000000 0.000000 0.000000
vn 1.000000 0.000000 0.000000
vn 1.000000 0.000000 0.000000
vn 1.000000 0.000000 0.000000
vn 0.000000 0.997859 0.065403
vn 0.000000 0.997859 0.065403
vn 0.000000 0.980785 0.195091
vn 0.000000 0.980785 0.195091
vn 0.000000 0.946930 0.321439
vn 0.000000 0.946930 0.321439
vn 0.000000 0.896873 0.442289
vn 0.000000 0.896873 0.442289
vn 0.000000 0.831470 0.555570
vn 0.000000 0.831470 0.555570
vn 0.000000 0.751840 0.659346
vn 0.000000 0.751840 0.659346
vn 0.000000 0.659346 0.751840
vn 0.000000 0.659346 0.751840
vn 0.000000 0.555570 0.831470
vn 0.000000 0.555570 0.831470
vn 0.000000 0.442289 0.896873
vn 0.000000 0.442289 0.896873
vn 0.000000 0.321439 0.946930
vn 0.000000 0.321439 0.946930
vn 0.000000 0.195091 0.980785
vn 0.000000 0.195091 0.980785
vn 0.000000 0.065403 0.997859
vn 0.000000 0.065403 0.997859
vn 0.000000 -0.065403 0.997859
vn 0.000000 -0.065403 0.997859
vn 0.000000 -0.195091 0.980785
vn 0.000000 -0.195091 0.980785
vn 0.000000 -0.321439 0.946930
vn 0.000000 -0.321439 0.946930
vn 0.000000 -0.442289 0.896873
vn 0.000000 -0.442289 0.896873
vn 0.000000 -0.555570 0.831470
vn 0.000000 -0.555570 0.831470
vn 0.000000 -0.659346 0.751840
vn 0.000000 -0.751840 0.659346
vn 0.000000 -0.659346 0.751840
vn 0.000000 -0.751840 0.659346
vn 0.000000 -0.831470 0.555570
vn 0.000000 -0.831470 0.555570
vn 0.000000 -0.896873 0.442289
vn 0.000000 -0.896873 0.442289
vn 0.000000 -0.946930 0.321439
vn 0.000000 -0.980785 0.195091
vn 0.000000 -0.946930 0.321439
vn 0.000000 -0.980785 0.195091
vn 0.000000 -0.997859 0.065403
vn 0.000000 -0.997859 0.065403
vn -0.000000 -0.997859 -0.065403
vn -0.000000 -0.980785 -0.195091
vn 0.000000 -0.997859 -0.065403
vn -0.000000 -0.980785 -0.195091
vn 0.000000 -0.946930 -0.321439
vn -0.000000 -0.946930 -0.321439
vn 0.000000 -0.896873 -0.442289
vn -0.000000 -0.896873 -0.442289
vn -0.000000 -0.831470 -0.555570
vn -0.000000 -0.831470 -0.555570
vn -0.000000 -0.751840 -0.659346
vn -0.000000 -0.751840 -0.659346
vn 0.000000 -0.659346 -0.751840
vn -0.000000 -0.659346 -0.751840
vn 0.000000 -0.555570 -0.831470
vn -0.000000 -0.555570 -0.831470
vn -0.000000 -0.442289 -0.896873
vn -0.000000 -0.442289 -0.896873
vn -0.000000 -0.321439 -0.946930
vn 0.000000 -0.321439 -0.946930
vn -0.000000 -0.195091 -0.980785
vn 0.000000 -0.195091 -0.980785
vn -0.000000 -0.065403 -0.997859
vn 0.000000 -0.065403 -0.997859
vn 0.000000 0.065403 -0.997859
vn 0.000000 0.195091 -0.980785
vn 0.000000 0.065403 -0.997859
vn 0.000000 0.195091 -0.980785
vn 0.000000 0.321439 -0.946930
vn 0.000000 0.442289 -0.896873
vn 0.000000 0.321439 -0.946930
vn 0.000000 0.555570 -0.831470
vn 0.000000 0.442289 -0.896873
vn 0.000000 0.555570 -0.831470
vn 0.000000 0.659346 -0.751840
vn 0.000000 0.659346 -0.751840
vn 0.000000 0.751840 -0.659346
vn 0.000000 0.751840 -0.659346
vn 0.000000 0.831470 -0.555570
vn 0.000000 0.831470 -0.555570
vn 0.000000 0.896873 -0.442289
vn 0.000000 0.946930 -0.321439
vn 0.000000 0.896873 -0.442289
vn 0.000000 0.980785 -0.195091
vn 0.000000 0.946930 -0.321439
vn 0.000000 0.980785 -0.195091
vn 0.000000 0.997859 -0.065403
vn 0.000000 0.997859 -0.065403
vn -1.000000 0.000000 0.000000
vn -1.000000 0.000000 0.000000
vn -1.000000 0.000000 0.000000
vn -1.000000 0.000000 0.000000
vn -1.000000 0.000000 0.000000
vn -1.000000 0.000000 -0.000000
vn -1.000000 0.000000 0.000000
vn -1.000000 0.000000 0.000000
vn -1.000000 0.000000 -0.000000
vn -1.000000 0.000000 0.000000
vn -1.000000 0.000000 0.000000
vn -1.000000 0.000000 0.000000
vn -1.000000 0.000000 -0.000000
vn -1.000000 0.000000 0.000000
vn -1.000000 0.000000 -0.000000
vn -1.000000 0.000000 0.000000
vn -1.000000 0.000000 -0.000000
vn -1.000000 0.000000 0.000000
vn -1.000000 0.000000 0.000000
vn -1.000000 0.000000 -0.000000
vn -1.000000 0.000000 0.000000
vn -1.000000 0.000000 0.000000
vn -1.000000 0.000000 -0.000000
vn -1.000000 0.000000 0.000000
vn -1.000000 0.000000 0.000000
vn -1.000000 0.000000 0.000000
vn -1.000000 0.000000 -0.000000
vn -1.000000 0.000000 0.000000
vn -1.000000 0.000000 0.000000
vn -1.000000 0.000000 0.000000
vn -1.000000 0.000000 0.000000
vn -1.000000 0.000000 0.000000
vn -1.000000 0.000000 -0.000000
vn -1.000000 0.000000 0.000000
vn -1.000000 0.000000 0.000000
vn -1.000000 0.000000 0.000000
vn -1.000000 0.000000 -0.000000
vn -1.000000 0.000000 0.000000
vn -1.000000 0.000000 -0.000000
vn -1.000000 0.000000 0.000000
vn -1.000000 0.000000 -0.000000
vn -1.000000 0.000000 0.000000
vn -1.000000 0.000000 -0.000000
vn -1.000000 0.000000 0.000000
vn -1.000000 0.000000 0.000000
vn -1.000000 0.000000 0.000000
vn -1.000000 0.000000 -0.000000
vn -1.000000 0.000000 0.000000
vn -1.000000 0.000000 0.000000
vn -1.000000 0.000000 0.000000
vn -1.000000 0.000000 -0.000000
vn -1.000000 0.000000 0.000000
vn -1.000000 0.000000 -0.000000
vn -1.000000 0.000000 0.000000
vn -1.000000 0.000000 0.000000
vn -1.000000 0.000000 0.000000
vn -1.000000 0.000000 -0.000000
vn -1.000000 0.000000 0.000000
vn -1.000000 0.000000 0.000000
vn -1.000000 0.000000 -0.000000
vn -1.000000 0.000000 0.000000
vn -1.000000 0.000000 0.000000
vn -1.000000 0.000000 0.000000
vn -1.000000 0.000000 -0.000000
vn -1.000000 0.000000 -0.000000
vn -1.000000 0.000000 0.000000
vn -1.000000 0.000000 -0.000000
vn -1.000000 0.000000 0.000000
vn -1.000000 0.000000 0.000000
vn -1.000000 0.000000 -0.000000
vn -1.000000 0.000000 0.000000
vn -1.000000 0.000000 0.000000
vn -1.000000 0.000000 -0.000000
vn -1.000000 0.000000 0.000000
vn -1.000000 0.000000 0.000000
vn -1.000000 0.000000 0.000000
vn -1.000000 0.000000 0.000000
vn -1.000000 0.000000 -0.000000
vn -1.000000 0.000000 0.000000
vn -1.000000 0.000000 0.000000
vn -1.000000 0.000000 -0.000000
vn -1.000000 0.000000 0.000000
vn 0.000000 0.995734 0.092268
vn 0.000000 0.995734 0.092268
vn 0.000000 0.961826 0.273663
vn 0.000000 0.895163 0.445738
vn 0.000000 0.961826 0.273663
vn 0.000000 0.895163 0.445738
vn 0.000000 0.798017 0.602635
vn 0.000000 0.673696 0.739009
vn 0.000000 0.798017 0.602635
vn 0.000000 0.673696 0.739009
vn 0.000000 0.526432 0.850217
vn 0.000000 0.526432 0.850217
vn 0.000000 0.361242 0.932472
vn 0.000000 0.361242 0.932472
vn 0.000000 0.183749 0.982973
vn 0.000000 0.183749 0.982973
vn 0.000000 0.000000 1.000000
vn 0.000000 -0.183749 0.982973
vn 0.000000 -0.000000 1.000000
vn 0.000000 -0.183749 0.982973
vn 0.000000 -0.361242 0.932472
vn 0.000000 -0.361242 0.932472
vn 0.000000 -0.526432 0.850217
vn 0.000000 -0.673696 0.739009
vn 0.000000 -0.526432 0.850217
vn 0.000000 -0.673696 0.739009
vn 0.000000 -0.798017 0.602635
vn 0.000000 -0.798017 0.602635
vn 0.000000 -0.895163 0.445738
vn 0.000000 -0.961826 0.273663
vn 0.000000 -0.895163 0.445738
vn 0.000000 -0.995734 0.092268
vn 0.000000 -0.961826 0.273663
vn 0.000000 -0.995734 0.092268
vn -0.000000 -0.995734 -0.092268
vn -0.000000 -0.961826 -0.273663
vn 0.000000 -0.995734 -0.092268
vn -0.000000 -0.895163 -0.445738
vn -0.000000 -0.961826 -0.273663
vn -0.000000 -0.895163 -0.445738
vn -0.000000 -0.798017 -0.602635
vn -0.000000 -0.673696 -0.739009
vn 0.000000 -0.798017 -0.602635
vn -0.000000 -0.673696 -0.739009
vn -0.000000 -0.526432 -0.850217
vn -0.000000 -0.361242 -0.932472
vn 0.000000 -0.526432 -0.850217
vn -0.000000 -0.361242 -0.932472
vn -0.000000 -0.183749 -0.982973
vn 0.000000 -0.183749 -0.982973
vn -0.000000 0.000000 -1.000000
vn 0.000000 -0.000000 -1.000000
vn 0.000000 0.183749 -0.982973
vn 0.000000 0.183749 -0.982973
vn 0.000000 0.361242 -0.932472
vn 0.000000 0.361242 -0.932472
vn 0.000000 0.526432 -0.850217
vn 0.000000 0.526432 -0.850217
vn 0.000000 0.673696 -0.739009
vn 0.000000 0.798017 -0.602635
vn 0.000000 0.673696 -0.739009
vn 0.000000 0.798017 -0.602635
vn 0.000000 0.895163 -0.445738
vn 0.000000 0.895163 -0.445738
vn 0.000000 0.961826 -0.273663
vn 0.000000 0.961826 -0.273663
vn 0.000000 0.995734 -0.092268
vn 0.000000 0.995734 -0.092268
vn -1.000000 0.000000 0.000000
vn -1.000000 0.000000 0.000000
vn -1.000000 0.000000 0.000000
vn -1.000000 0.000000 0.000000
vn -1.000000 0.000000 -0.000000
vn -1.000000 0.000000 -0.000000
vn -1.000000 0.000000 0.000000
vn -1.000000 0.000000 0.000000
vn -1.000000 0.000000 0.000000
vn -1.000000 0.000000 -0.000000
vn -1.000000 0.000000 -0.000000
vn -1.000000 0.000000 0.000000
vn -1.000000 0.000000 0.000000
vn -1.000000 0.000000 0.000000
vn -1.000000 0.000000 -0.000000
vn -1.000000 0.000000 -0.000000
vn -1.000000 0.000000 0.000000
vn -1.000000 0.000000 0.000000
vn -1.000000 0.000000 0.000000
vn -1.000000 0.000000 -0.000000
vn -1.000000 0.000000 0.000000
vn -1.000000 0.000000 0.000000
vn -1.000000 0.000000 0.000000
vn -1.000000 0.000000 0.000000
vn -1.000000 0.000000 -0.000000
vn -1.000000 0.000000 0.000000
vn -1.000000 0.000000 0.000000
vn -1.000000 0.000000 -0.000000
vn -1.000000 0.000000 -0.000000
vn -1.000000 0.000000 0.000000
vn -1.000000 0.000000 0.000000
vn -1.000000 0.000000 -0.000000
vn -1.000000 0.000000 -0.000000
vn -1.000000 0.000000 0.000000
vn -1.000000 0.000000 0.000000
vn -1.000000 0.000000 0.000000
vn -1.000000 0.000000 -0.000000
vn -1.000000 0.000000 0.000000
vn -1.000000 0.000000 0.000000
vn -1.000000 0.000000 -0.000000
vn -1.000000 0.000000 0.000000
vn -1.000000 0.000000 0.000000
vn -1.000000 0.000000 0.000000
vn -1.000000 0.000000 -0.000000
vn -1.000000 0.000000 0.000000
vn -1.000000 0.000000 0.000000
vn -1.000000 0.000000 -0.000000
vn -1.000000 0.000000 0.000000
vn -1.000000 0.000000 0.000000
vn -1.000000 0.000000 -0.000000
vn -1.000000 0.000000 -0.000000
vn -1.000000 0.000000 0.000000
vn -1.000000 0.000000 0.000000
vn -1.000000 0.000000 -0.000000
vn -1.000000 0.000000 0.000000
vn -1.000000 0.000000 0.000000
vn -1.000000 0.000000 -0.000000
vn -1.000000 0.000000 0.000000
vn -1.000000 0.000000 0.000000
vn -1.000000 0.000000 0.000000
vn -1.000000 0.000000 -0.000000
vn -1.000000 0.000000 0.000000
f 1//1 2//1 3//1
f 1//2 3//2 4//2
f 5//3 4//3 6//3
f 5//4 1//4 4//4
f 7//5 6//5 8//5
f 7//6 5//6 6//6
f 9//7 8//7 10//7
f 9//8 7//8 8//8
f 11//9 10//9 12//9
f 11//10 9//10 10//10
f 13//11 12//11 14//11
f 13//12 14//12 15//12
f 13//13 11//13 12//13
f 16//14 13//14 15//14
f 17//15 15//15 18//15
f 17//16 16//16 15//16
f 19//17 18//17 20//17
f 19//18 17//18 18//18
f 21//19 19//19 20//19
f 21//20 20//20 22//20
f 23//21 21//21 22//21
f 23//22 22//22 24//22
f 25//23 23//23 24//23
f 25//24 24//24 26//24
f 25//25 26//25 27//25
f 28//26 25//26 27//26
f 29//27 28//27 27//27
f 29//28 27//28 30//28
f 31//29 29//29 30//29
f 31//30 30//30 32//30
f 33//31 31//31 32//31
f 33//32 32//32 34//32
f 35//33 33//33 34//33
f 35//34 34//34 36//34
f 35//35 36//35 37//35
f 38//36 35//36 37//36
f 39//37 38//37 37//37
f 39//38 37//38 40//38
f 41//39 39//39 40//39
f 41//40 40//40 42//40
f 43//41 41//41 42//41
f 43//42 42//42 44//42
f 45//43 44//43 46//43
f 45//44 43//44 44//44
f 47//45 45//45 46//45
f 47//46 46//46 48//46
f 49//47 48//47 50//47
f 49//48 47//48 48//48
f 51//49 50//49 52//49
f 51//50 49//50 50//50
f 53//51 52//51 54//51
f 53//52 51//52 52//52
f 55//53 54//53 56//53
f 55//54 53//54 54//54
f 2//55 56//55 3//55
f 2//56 55//56 56//56
f 37//57 57//57 58//57
f 37//58 58//58 59//58
f 36//59 60//59 57//59
f 36//60 57//60 37//60
f 40//61 59//61 61//61
f 40//62 37//62 59//62
f 34//63 60//63 36//63
f 34//64 62//64 63//64
f 34//65 63//65 60//65
f 42//66 40//66 61//66
f 42//67 61//67 64//67
f 42//68 64//68 65//68
f 32//69 62//69 34//69
f 32//70 66//70 67//70
f 32//71 67//71 62//71
f 30//72 68//72 66//72
f 30//73 66//73 32//73
f 44//74 42//74 65//74
f 44//75 65//75 69//75
f 44//76 69//76 70//76
f 46//77 44//77 70//77
f 46//78 70//78 71//78
f 27//79 72//79 73//79
f 27//80 73//80 68//80
f 27//81 68//81 30//81
f 48//82 46//82 71//82
f 48//83 71//83 74//83
f 48//84 74//84 75//84
f 26//85 72//85 27//85
f 26//86 76//86 77//86
f 26//87 77//87 72//87
f 50//88 75//88 78//88
f 50//89 48//89 75//89
f 24//90 76//90 26//90
f 79//91 76//91 24//91
f 52//92 50//92 78//92
f 22//93 79//93 24//93
f 80//94 52//94 78//94
f 81//95 79//95 22//95
f 82//96 52//96 80//96
f 82//97 54//97 52//97
f 83//98 22//98 20//98
f 83//99 81//99 22//99
f 84//100 54//100 82//100
f 85//101 20//101 18//101
f 85//102 83//102 20//102
f 86//103 54//103 84//103
f 86//104 56//104 54//104
f 87//105 85//105 18//105
f 88//106 3//106 56//106
f 88//107 56//107 86//107
f 89//108 18//108 15//108
f 89//109 87//109 18//109
f 90//110 3//110 88//110
f 91//111 89//111 15//111
f 92//112 4//112 3//112
f 92//113 3//113 90//113
f 93//114 15//114 14//114
f 93//115 91//115 15//115
f 94//116 6//116 4//116
f 94//117 4//117 92//117
f 95//118 14//118 12//118
f 95//119 93//119 14//119
f 96//120 6//120 94//120
f 97//121 95//121 12//121
f 98//122 6//122 96//122
f 98//123 8//123 6//123
f 99//124 12//124 10//124
f 99//125 97//125 12//125
f 100//126 8//126 98//126
f 101//127 99//127 10//127
f 101//128 8//128 100//128
f 101//129 10//129 8//129
f 92//130 102//130 103//130
f 92//131 103//131 104//131
f 92//132 90//132 102//132
f 94//133 92//133 104//133
f 96//134 104//134 105//134
f 96//135 94//135 104//135
f 96//136 105//136 106//136
f 98//137 96//137 106//137
f 100//138 106//138 107//138
f 100//139 107//139 108//139
f 100//140 98//140 106//140
f 101//141 100//141 108//141
f 99//142 108//142 109//142
f 99//143 109//143 110//143
f 99//144 101//144 108//144
f 97//145 99//145 110//145
f 95//146 110//146 111//146
f 95//147 97//147 110//147
f 93//148 111//148 112//148
f 93//149 95//149 111//149
f 91//150 112//150 113//150
f 91//151 93//151 112//151
f 89//152 113//152 114//152
f 89//153 91//153 113//153
f 87//154 114//154 115//154
f 87//155 89//155 114//155
f 85//156 115//156 116//156
f 85//157 116//157 117//157
f 85//158 87//158 115//158
f 83//159 117//159 118//159
f 83//160 85//160 117//160
f 81//161 83//161 118//161
f 79//162 118//162 119//162
f 79//163 81//163 118//163
f 76//164 119//164 120//164
f 76//165 120//165 121//165
f 76//166 79//166 119//166
f 77//167 76//167 121//167
f 72//168 121//168 122//168
f 72//169 77//169 121//169
f 73//170 122//170 123//170
f 73//171 72//171 122//171
f 68//172 123//172 124//172
f 68//173 124//173 125//173
f 68//174 73//174 123//174
f 66//175 68//175 125//175
f 67//176 125//176 126//176
f 67//177 66//177 125//177
f 62//178 126//178 127//178
f 62//179 67//179 126//179
f 63//180 127//180 128//180
f 63//181 62//181 127//181
f 60//182 63//182 128//182
f 60//183 128//183 129//183
f 60//184 129//184 130//184
f 57//185 60//185 130//185
f 58//186 57//186 130//186
f 58//187 130//187 131//187
f 58//188 131//188 132//188
f 59//189 58//189 132//189
f 61//190 59//190 132//190
f 61//191 132//191 133//191
f 64//192 61//192 133//192
f 64//193 133//193 134//193
f 65//194 64//194 134//194
f 65//195 134//195 135//195
f 69//196 65//196 135//196
f 69//197 135//197 136//197
f 70//198 69//198 136//198
f 70//199 136//199 137//199
f 71//200 70//200 137//200
f 71//201 137//201 138//201
f 74//202 138//202 139//202
f 74//203 71//203 138//203
f 75//204 139//204 140//204
f 75//205 74//205 139//205
f 78//206 140//206 141//206
f 78//207 141//207 142//207
f 78//208 75//208 140//208
f 80//209 78//209 142//209
f 82//210 142//210 143//210
f 82//211 80//211 142//211
f 84//212 143//212 144//212
f 84//213 82//213 143//213
f 86//214 144//214 145//214
f 86//215 84//215 144//215
f 88//216 145//216 146//216
f 88//217 86//217 145//217
f 90//218 146//218 102//218
f 90//219 88//219 146//219
f 130//220 147//220 148//220
f 131//221 130//221 148//221
f 131//222 148//222 149//222
f 129//223 147//223 130//223
f 129//224 150//224 147//224
f 132//225 131//225 149//225
f 132//226 149//226 151//226
f 128//227 150//227 129//227
f 128//228 152//228 150//228
f 133//229 151//229 153//229
f 133//230 132//230 151//230
f 127//231 152//231 128//231
f 127//232 154//232 152//232
f 134//233 133//233 153//233
f 134//234 153//234 155//234
f 126//235 154//235 127//235
f 156//236 154//236 126//236
f 135//237 134//237 155//237
f 135//238 155//238 157//238
f 125//239 156//239 126//239
f 158//240 156//240 125//240
f 136//241 157//241 159//241
f 136//242 135//242 157//242
f 124//243 158//243 125//243
f 160//244 158//244 124//244
f 137//245 136//245 159//245
f 137//246 159//246 161//246
f 123//247 160//247 124//247
f 162//248 160//248 123//248
f 138//249 137//249 161//249
f 163//250 138//250 161//250
f 122//251 162//251 123//251
f 164//252 162//252 122//252
f 139//253 138//253 163//253
f 165//254 139//254 163//254
f 121//255 164//255 122//255
f 166//256 164//256 121//256
f 140//257 139//257 165//257
f 167//258 140//258 165//258
f 120//259 166//259 121//259
f 168//260 166//260 120//260
f 141//261 140//261 167//261
f 169//262 141//262 167//262
f 119//263 168//263 120//263
f 170//264 168//264 119//264
f 142//265 141//265 169//265
f 171//266 142//266 169//266
f 118//267 170//267 119//267
f 172//268 170//268 118//268
f 143//269 142//269 171//269
f 173//270 143//270 171//270
f 117//271 172//271 118//271
f 174//272 172//272 117//272
f 144//273 143//273 173//273
f 175//274 144//274 173//274
f 116//275 174//275 117//275
f 176//276 174//276 116//276
f 145//277 144//277 175//277
f 177//278 145//278 175//278
f 115//279 176//279 116//279
f 178//280 176//280 115//280
f 146//281 145//281 177//281
f 114//282 178//282 115//282
f 179//283 146//283 177//283
f 180//284 178//284 114//284
f 102//285 146//285 179//285
f 113//286 180//286 114//286
f 181//287 102//287 179//287
f 182//288 180//288 113//288
f 112//289 182//289 113//289
f 183//290 102//290 181//290
f 183//291 103//291 102//291
f 184//292 182//292 112//292
f 111//293 184//293 112//293
f 185//294 103//294 183//294
f 185//295 104//295 103//295
f 186//296 184//296 111//296
f 186//297 111//297 110//297
f 187//298 105//298 104//298
f 187//299 104//299 185//299
f 188//300 186//300 110//300
f 188//301 110//301 109//301
f 189//302 106//302 105//302
f 189//303 105//303 187//303
f 190//304 188//304 109//304
f 190//305 109//305 108//305
f 191//306 107//306 106//306
f 191//307 106//307 189//307
f 192//308 108//308 107//308
f 192//309 190//309 108//309
f 192//310 107//310 191//310
f 183//311 193//311 194//311
f 183//312 181//312 193//312
f 185//313 194//313 195//313
f 185//314 183//314 194//314
f 187//315 195//315 196//315
f 187//316 185//316 195//316
f 189//317 196//317 197//317
f 189//318 187//318 196//318
f 191//319 197//319 198//319
f 191//320 189//320 197//320
f 192//321 198//321 199//321
f 192//322 191//322 198//322
f 190//323 199//323 200//323
f 190//324 192//324 199//324
f 188//325 200//325 201//325
f 188//326 190//326 200//326
f 186//327 201//327 202//327
f 186//328 188//328 201//328
f 184//329 202//329 203//329
f 184//330 186//330 202//330
f 182//331 203//331 204//331
f 182//332 184//332 203//332
f 180//333 204//333 205//333
f 180//334 182//334 204//334
f 178//335 205//335 206//335
f 178//336 180//336 205//336
f 176//337 206//337 207//337
f 176//338 178//338 206//338
f 174//339 207//339 208//339
f 174//340 176//340 207//340
f 172//341 208//341 209//341
f 172//342 174//342 208//342
f 170//343 209//343 210//343
f 170//344 172//344 209//344
f 168//345 210//345 211//345
f 168//346 170//346 210//346
f 166//347 211//347 212//347
f 166//348 168//348 211//348
f 164//349 212//349 213//349
f 164//350 166//350 212//350
f 162//351 213//351 214//351
f 162//352 164//352 213//352
f 160//353 214//353 215//353
f 160//354 162//354 214//354
f 158//355 215//355 216//355
f 158//356 160//356 215//356
f 156//357 216//357 217//357
f 156//358 158//358 216//358
f 154//359 217//359 218//359
f 154//360 218//360 219//360
f 154//361 156//361 217//361
f 152//362 154//362 219//362
f 150//363 152//363 219//363
f 150//364 219//364 220//364
f 150//365 220//365 221//365
f 147//366 150//366 221//366
f 148//367 147//367 221//367
f 148//368 221//368 222//368
f 148//369 222//369 223//369
f 149//370 148//370 223//370
f 149//371 223//371 224//371
f 151//372 149//372 224//372
f 153//373 151//373 224//373
f 153//374 224//374 225//374
f 155//375 153//375 225//375
f 155//376 225//376 226//376
f 157//377 226//377 227//377
f 157//378 155//378 226//378
f 159//379 157//379 227//379
f 159//380 227//380 228//380
f 161//381 228//381 229//381
f 161//382 229//382 230//382
f 161//383 159//383 228//383
f 163//384 161//384 230//384
f 165//385 230//385 231//385
f 165//386 163//386 230//386
f 167//387 231//387 232//387
f 167//388 165//388 231//388
f 169//389 232//389 233//389
f 169//390 167//390 232//390
f 171//391 233//391 234//391
f 171//392 169//392 233//392
f 173//393 234//393 235//393
f 173//394 171//394 234//394
f 175//395 235//395 236//395
f 175//396 173//396 235//396
f 177//397 236//397 237//397
f 177//398 175//398 236//398
f 179//399 237//399 238//399
f 179//400 177//400 237//400
f 181//401 238//401 193//401
f 181//402 179//402 238//402
f 222//403 239//403 240//403
f 221//404 239//404 222//404
f 221//405 241//405 239//405
f 223//406 222//406 240//406
f 223//407 240//407 242//407
f 220//408 241//408 221//408
f 220//409 243//409 241//409
f 224//410 223//410 242//410
f 224//411 242//411 244//411
f 219//412 243//412 220//412
f 219//413 245//413 243//413
f 225//414 224//414 244//414
f 225//415 244//415 246//415
f 218//416 247//416 245//416
f 218//417 245//417 219//417
f 226//418 225//418 246//418
f 226//419 246//419 248//419
f 217//420 249//420 247//420
f 217//421 247//421 218//421
f 227//422 248//422 250//422
f 227//423 226//423 248//423
f 216//424 251//424 249//424
f 216//425 249//425 217//425
f 252//426 251//426 216//426
f 228//427 250//427 253//427
f 228//428 227//428 250//428
f 215//429 252//429 216//429
f 229//430 228//430 253//430
f 254//431 229//431 253//431
f 255//432 252//432 215//432
f 214//433 255//433 215//433
f 230//434 229//434 254//434
f 256//435 230//435 254//435
f 257//436 255//436 214//436
f 213//437 257//437 214//437
f 231//438 230//438 256//438
f 258//439 231//439 256//439
f 259//440 257//440 213//440
f 212//441 259//441 213//441
f 232//442 231//442 258//442
f 260//443 232//443 258//443
f 261//444 259//444 212//444
f 211//445 261//445 212//445
f 233//446 232//446 260//446
f 262//447 233//447 260//447
f 263//448 261//448 211//448
f 210//449 263//449 211//449
f 234//450 233//450 262//450
f 264//451 234//451 262//451
f 265//452 263//452 210//452
f 209//453 265//453 210//453
f 235//454 234//454 264//454
f 266//455 235//455 264//455
f 267//456 265//456 209//456
f 208//457 267//457 209//457
f 236//458 235//458 266//458
f 268//459 236//459 266//459
f 269//460 267//460 208//460
f 207//461 269//461 208//461
f 237//462 236//462 268//462
f 270//463 237//463 268//463
f 271//464 269//464 207//464
f 206//465 271//465 207//465
f 238//466 237//466 270//466
f 272//467 238//467 270//467
f 273//468 271//468 206//468
f 273//469 206//469 205//469
f 193//470 238//470 272//470
f 274//471 193//471 272//471
f 275//472 273//472 205//472
f 275//473 205//473 204//473
f 276//474 193//474 274//474
f 276//475 194//475 193//475
f 277//476 275//476 204//476
f 277//477 204//477 203//477
f 278//478 277//478 203//478
f 278//479 203//479 202//479
f 279//480 194//480 276//480
f 279//481 195//481 194//481
f 280//482 195//482 279//482
f 280//483 196//483 195//483
f 281//484 202//484 201//484
f 281//485 278//485 202//485
f 282//486 201//486 200//486
f 282//487 281//487 201//487
f 283//488 197//488 196//488
f 283//489 196//489 280//489
f 284//490 200//490 199//490
f 284//491 282//491 200//491
f 285//492 198//492 197//492
f 285//493 197//493 283//493
f 286//494 199//494 198//494
f 286//495 284//495 199//495
f 286//496 198//496 285//496
f 276//497 287//497 288//497
f 276//498 274//498 287//498
f 279//499 276//499 288//499
f 279//500 288//500 289//500
f 280//501 289//501 290//501
f 280//502 279//502 289//502
f 283//503 290//503 291//503
f 283//504 280//504 290//504
f 285//505 291//505 292//505
f 285//506 283//506 291//506
f 286//507 292//507 293//507
f 286//508 285//508 292//508
f 284//509 293//509 294//509
f 284//510 286//510 293//510
f 282//511 294//511 295//511
f 282//512 284//512 294//512
f 281//513 295//513 296//513
f 281//514 282//514 295//514
f 278//515 296//515 297//515
f 278//516 281//516 296//516
f 277//517 297//517 298//517
f 277//518 278//518 297//518
f 275//519 298//519 299//519
f 275//520 277//520 298//520
f 273//521 299//521 300//521
f 273//522 275//522 299//522
f 271//523 300//523 301//523
f 271//524 273//524 300//524
f 269//525 301//525 302//525
f 269//526 271//526 301//526
f 267//527 302//527 303//527
f 267//528 269//528 302//528
f 265//529 303//529 304//529
f 265//530 267//530 303//530
f 263//531 304//531 305//531
f 263//532 305//532 306//532
f 263//533 265//533 304//533
f 261//534 263//534 306//534
f 259//535 306//535 307//535
f 259//536 261//536 306//536
f 257//537 307//537 308//537
f 257//538 259//538 307//538
f 255//539 308//539 309//539
f 255//540 309//540 310//540
f 255//541 257//541 308//541
f 252//542 255//542 310//542
f 251//543 310//543 311//543
f 251//544 252//544 310//544
f 249//545 311//545 312//545
f 249//546 312//546 313//546
f 249//547 251//547 311//547
f 247//548 249//548 313//548
f 245//549 247//549 313//549
f 245//550 313//550 314//550
f 243//551 245//551 314//551
f 243//552 314//552 315//552
f 243//553 315//553 316//553
f 241//554 243//554 316//554
f 241//555 316//555 317//555
f 239//556 241//556 317//556
f 240//557 239//557 317//557
f 240//558 317//558 318//558
f 242//559 240//559 318//559
f 242//560 318//560 319//560
f 242//561 319//561 320//561
f 244//562 242//562 320//562
f 246//563 320//563 321//563
f 246//564 244//564 320//564
f 248//565 321//565 322//565
f 248//566 246//566 321//566
f 250//567 322//567 323//567
f 250//568 248//568 322//568
f 253//569 323//569 324//569
f 253//570 324//570 325//570
f 253//571 250//571 323//571
f 254//572 253//572 325//572
f 256//573 325//573 326//573
f 256//574 326//574 327//574
f 256//575 254//575 325//575
f 258//576 327//576 328//576
f 258//577 256//577 327//577
f 260//578 258//578 328//578
f 262//579 328//579 329//579
f 262//580 260//580 328//580
f 264//581 329//581 330//581
f 264//582 262//582 329//582
f 266//583 330//583 331//583
f 266//584 264//584 330//584
f 268//585 331//585 332//585
f 268//586 332//586 333//586
f 268//587 266//587 331//587
f 270//588 333//588 334//588
f 270//589 268//589 333//589
f 272//590 270//590 334//590
f 274//591 334//591 287//591
f 274//592 272//592 334//592
f 335//593 330//593 329//593
f 336//594 328//594 327//594
f 336//595 329//595 328//595
f 336//596 335//596 329//596
f 337//597 331//597 330//597
f 337//598 330//598 335//598
f 338//599 336//599 327//599
f 338//600 327//600 326//600
f 339//601 331//601 337//601
f 339//602 332//602 331//602
f 339//603 333//603 332//603
f 340//604 338//604 326//604
f 340//605 325//605 324//605
f 340//606 326//606 325//606
f 341//607 333//607 339//607
f 341//608 334//608 333//608
f 342//609 324//609 323//609
f 342//610 340//610 324//610
f 343//611 288//611 287//611
f 343//612 334//612 341//612
f 343//613 287//613 334//613
f 344//614 342//614 323//614
f 344//615 323//615 322//615
f 345//616 289//616 288//616
f 345//617 288//617 343//617
f 346//618 321//618 320//618
f 346//619 322//619 321//619
f 346//620 344//620 322//620
f 347//621 290//621 289//621
f 347//622 291//622 290//622
f 347//623 289//623 345//623
f 348//624 320//624 319//624
f 348//625 346//625 320//625
f 349//626 292//626 291//626
f 349//627 291//627 347//627
f 350//628 319//628 318//628
f 350//629 348//629 319//629
f 351//630 292//630 349//630
f 293//631 292//631 351//631
f 317//632 350//632 318//632
f 352//633 350//633 317//633
f 353//634 293//634 351//634
f 294//635 293//635 353//635
f 316//636 354//636 352//636
f 316//637 352//637 317//637
f 295//638 353//638 355//638
f 295//639 294//639 353//639
f 315//640 356//640 354//640
f 315//641 354//641 316//641
f 296//642 355//642 357//642
f 296//643 295//643 355//643
f 314//644 356//644 315//644
f 297//645 296//645 357//645
f 313//646 358//646 356//646
f 313//647 356//647 314//647
f 298//648 297//648 357//648
f 298//649 357//649 359//649
f 312//650 360//650 358//650
f 312//651 358//651 313//651
f 299//652 359//652 361//652
f 299//653 298//653 359//653
f 311//654 360//654 312//654
f 300//655 299//655 361//655
f 300//656 361//656 362//656
f 310//657 360//657 311//657
f 310//658 363//658 360//658
f 309//659 363//659 310//659
f 309//660 364//660 363//660
f 301//661 300//661 362//661
f 308//662 364//662 309//662
f 302//663 301//663 362//663
f 302//664 362//664 365//664
f 307//665 364//665 308//665
f 307//666 366//666 364//666
f 303//667 302//667 365//667
f 303//668 365//668 367//668
f 304//669 303//669 367//669
f 306//670 366//670 307//670
f 306//671 368//671 366//671
f 305//672 304//672 367//672
f 305//673 368//673 306//673
f 305//674 367//674 368//674
f 345//675 369//675 370//675
f 345//676 343//676 369//676
f 347//677 370//677 371//677
f 347//678 371//678 372//678
f 347//679 345//679 370//679
f 349//680 347//680 372//680
f 351//681 372//681 373//681
f 351//682 373//682 374//682
f 351//683 349//683 372//683
f 353//684 351//684 374//684
f 355//685 374//685 375//685
f 355//686 353//686 374//686
f 357//687 355//687 375//687
f 357//688 375//688 376//688
f 359//689 357//689 376//689
f 359//690 376//690 377//690
f 361//691 377//691 378//691
f 361//692 378//692 379//692
f 361//693 359//693 377//693
f 362//694 361//694 379//694
f 365//695 362//695 379//695
f 365//696 379//696 380//696
f 367//697 380//697 381//697
f 367//698 381//698 382//698
f 367//699 365//699 380//699
f 368//700 367//700 382//700
f 366//701 382//701 383//701
f 366//702 368//702 382//702
f 364//703 383//703 384//703
f 364//704 384//704 385//704
f 364//705 366//705 383//705
f 363//706 385//706 386//706
f 363//707 364//707 385//707
f 360//708 363//708 386//708
f 358//709 386//709 387//709
f 358//710 387//710 388//710
f 358//711 360//711 386//711
f 356//712 388//712 389//712
f 356//713 358//713 388//713
f 354//714 356//714 389//714
f 352//715 389//715 390//715
f 352//716 390//716 391//716
f 352//717 354//717 389//717
f 350//718 352//718 391//718
f 348//719 391//719 392//719
f 348//720 392//720 393//720
f 348//721 350//721 391//721
f 346//722 348//722 393//722
f 344//723 393//723 394//723
f 344//724 346//724 393//724
f 342//725 394//725 395//725
f 342//726 344//726 394//726
f 340//727 395//727 396//727
f 340//728 342//728 395//728
f 338//729 396//729 397//729
f 338//730 340//730 396//730
f 336//731 397//731 398//731
f 336//732 338//732 397//732
f 335//733 398//733 399//733
f 335//734 399//734 400//734
f 335//735 336//735 398//735
f 337//736 335//736 400//736
f 339//737 337//737 400//737
f 339//738 400//738 401//738
f 341//739 339//739 401//739
f 341//740 401//740 402//740
f 343//741 341//741 402//741
f 343//742 402//742 369//742
f 51//743 400//743 399//743
f 49//744 399//744 398//744
f 49//745 51//745 399//745
f 53//746 401//746 400//746
f 53//747 400//747 51//747
f 47//748 397//748 396//748
f 47//749 398//749 397//749
f 47//750 49//750 398//750
f 55//751 402//751 401//751
f 55//752 401//752 53//752
f 45//753 396//753 395//753
f 45//754 47//754 396//754
f 2//755 370//755 369//755
f 2//756 369//756 402//756
f 2//757 402//757 55//757
f 43//758 395//758 394//758
f 43//759 45//759 395//759
f 1//760 371//760 370//760
f 1//761 370//761 2//761
f 41//762 394//762 393//762
f 41//763 43//763 394//763
f 5//764 372//764 371//764
f 5//765 371//765 1//765
f 39//766 41//766 393//766
f 39//767 393//767 392//767
f 391//768 39//768 392//768
f 7//769 372//769 5//769
f 38//770 39//770 391//770
f 373//771 372//771 7//771
f 390//772 38//772 391//772
f 9//773 373//773 7//773
f 35//774 38//774 390//774
f 374//775 373//775 9//775
f 11//776 374//776 9//776
f 389//777 35//777 390//777
f 389//778 33//778 35//778
f 375//779 374//779 11//779
f 388//780 33//780 389//780
f 388//781 31//781 33//781
f 376//782 11//782 13//782
f 376//783 375//783 11//783
f 387//784 31//784 388//784
f 387//785 29//785 31//785
f 377//786 13//786 16//786
f 377//787 376//787 13//787
f 386//788 29//788 387//788
f 378//789 16//789 17//789
f 378//790 377//790 16//790
f 385//791 28//791 29//791
f 385//792 29//792 386//792
f 379//793 17//793 19//793
f 379//794 378//794 17//794
f 384//795 25//795 28//795
f 384//796 28//796 385//796
f 380//797 379//797 19//797
f 383//798 23//798 25//798
f 383//799 25//799 384//799
f 381//800 19//800 21//800
f 381//801 380//801 19//801
f 382//802 21//802 23//802
f 382//803 23//803 383//803
f 382//804 381//804 21//804
