# Created by FreeCAD <https://www.freecad.org>
v 0.000000 11.140362 2.082494
v 0.000000 11.333333 0.000000
v 80.000000 11.333333 0.000000
v 80.000000 11.140362 2.082494
v 80.000000 10.568019 4.094072
v 0.000000 10.568019 4.094072
v 0.000000 9.635795 5.966231
v 80.000000 9.635795 5.966231
v 80.000000 8.375434 7.635217
v 0.000000 8.375434 7.635217
v 0.000000 6.829859 9.044195
v 80.000000 6.829859 9.044195
v 80.000000 5.051702 10.145184
v 0.000000 5.051702 10.145184
v 80.000000 3.101514 10.900691
v 0.000000 3.101514 10.900691
v 0.000000 1.045708 11.284987
v 80.000000 1.045708 11.284987
v 0.000000 -1.045708 11.284987
v 80.000000 -1.045708 11.284987
v 80.000000 -3.101514 10.900691
v 0.000000 -3.101514 10.900691
v 0.000000 -5.051702 10.145184
v 80.000000 -5.051702 10.145184
v 80.000000 -6.829859 9.044195
v 0.000000 -6.829859 9.044195
v 0.000000 -8.375434 7.635217
v 80.000000 -8.375434 7.635217
v 80.000000 -9.635795 5.966231
v 0.000000 -9.635795 5.966231
v 0.000000 -10.568019 4.094072
v 80.000000 -10.568019 4.094072
v 80.000000 -11.140362 2.082494
v 0.000000 -11.140362 2.082494
v 0.000000 -11.333333 0.000000
v 80.000000 -11.333333 0.000000
v 0.000000 -11.140362 -2.082494
v 80.000000 -11.140362 -2.082494
v 80.000000 -10.568019 -4.094072
v 0.000000 -10.568019 -4.094072
v 0.000000 -9.635795 -5.966231
v 80.000000 -9.635795 -5.966231
v 0.000000 -8.375434 -7.635217
v 80.000000 -8.375434 -7.635217
v 0.000000 -6.829859 -9.044195
v 80.000000 -6.829859 -9.044195
v 80.000000 -5.051702 -10.145184
v 0.000000 -5.051702 -10.145184
v 80.000000 -3.101514 -10.900691
v 0.000000 -3.101514 -10.900691
v 0.000000 -1.045708 -11.284987
v 80.000000 -1.045708 -11.284987
v 80.000000 1.045708 -11.284987
v 0.000000 1.045708 -11.284987
v 0.000000 3.101514 -10.900691
v 80.000000 3.101514 -10.900691
v 0.000000 5.051702 -10.145184
v 80.000000 5.051702 -10.145184
v 0.000000 6.829859 -9.044195
v 80.000000 6.829859 -9.044195
v 0.000000 8.375434 -7.635217
v 80.000000 8.375434 -7.635217
v 80.000000 9.635795 -5.966231
v 0.000000 9.635795 -5.966231
v 0.000000 10.568019 -4.094072
v 80.000000 10.568019 -4.094072
v 0.000000 11.140362 -2.082494
v 80.000000 11.140362 -2.082494
v 80.000000 -16.180340 -11.755705
v 80.000000 -14.386796 -13.893167
v 80.000000 -12.313230 -15.760215
v 80.000000 -10.000000 -17.320509
v 80.000000 -17.658953 -9.389431
v 80.000000 -7.492132 -18.543676
v 80.000000 -19.562952 -4.158234
v 80.000000 -18.793852 -6.840403
v 80.000000 -4.838438 -19.405914
v 80.000000 -19.951281 -1.395129
v 80.000000 -2.090569 -19.890438
v 80.000000 0.697990 -19.987816
v 80.000000 -19.951281 1.395129
v 80.000000 3.472964 -19.696156
v 80.000000 -19.562952 4.158234
v 80.000000 6.180340 -19.021130
v 80.000000 -17.658953 9.389431
v 80.000000 -18.793852 6.840403
v 80.000000 8.767423 -17.975882
v 80.000000 11.183858 -16.580751
v 80.000000 -16.180340 11.755705
v 80.000000 13.382612 -14.862897
v 80.000000 -14.386796 13.893167
v 80.000000 15.320889 -12.855752
v 80.000000 -12.313230 15.760215
v 80.000000 16.960962 -10.598385
v 80.000000 -10.000000 17.320509
v 80.000000 18.270908 -8.134733
v 80.000000 -7.492132 18.543676
v 80.000000 19.225233 -5.512747
v 80.000000 -4.838438 19.405914
v 80.000000 19.805361 -2.783462
v 80.000000 -2.090569 19.890438
v 80.000000 20.000000 0.000000
v 80.000000 0.697990 19.987816
v 80.000000 19.805361 2.783462
v 80.000000 3.472964 19.696156
v 80.000000 19.225233 5.512747
v 80.000000 6.180340 19.021130
v 80.000000 18.270908 8.134733
v 80.000000 8.767423 17.975882
v 80.000000 16.960962 10.598385
v 80.000000 11.183858 16.580751
v 80.000000 15.320889 12.855752
v 80.000000 13.382612 14.862897
v 60.000000 20.000000 0.000000
v 60.000000 19.805361 2.783462
v 60.000000 19.225233 5.512747
v 60.000000 18.270908 8.134733
v 60.000000 16.960962 10.598385
v 60.000000 15.320889 12.855752
v 60.000000 13.382612 14.862897
v 60.000000 11.183858 16.580751
v 60.000000 8.767423 17.975882
v 60.000000 6.180340 19.021130
v 60.000000 3.472964 19.696156
v 60.000000 0.697990 19.987816
v 60.000000 -2.090569 19.890438
v 60.000000 -4.838438 19.405914
v 60.000000 -7.492132 18.543676
v 60.000000 -10.000000 17.320509
v 60.000000 -12.313230 15.760215
v 60.000000 -14.386796 13.893167
v 60.000000 -16.180340 11.755705
v 60.000000 -17.658953 9.389431
v 60.000000 -18.793852 6.840403
v 60.000000 -19.562952 4.158234
v 60.000000 -19.951281 1.395129
v 60.000000 -19.951281 -1.395129
v 60.000000 -19.562952 -4.158234
v 60.000000 -18.793852 -6.840403
v 60.000000 -17.658953 -9.389431
v 60.000000 -16.180340 -11.755705
v 60.000000 -14.386796 -13.893167
v 60.000000 -12.313230 -15.760215
v 60.000000 -10.000000 -17.320509
v 60.000000 -7.492132 -18.543676
v 60.000000 -4.838438 -19.405914
v 60.000000 -2.090569 -19.890438
v 60.000000 0.697990 -19.987816
v 60.000000 3.472964 -19.696156
v 60.000000 6.180340 -19.021130
v 60.000000 8.767423 -17.975882
v 60.000000 11.183858 -16.580751
v 60.000000 13.382612 -14.862897
v 60.000000 15.320889 -12.855752
v 60.000000 16.960962 -10.598385
v 60.000000 18.270908 -8.134733
v 60.000000 19.225233 -5.512747
v 60.000000 19.805361 -2.783462
v 60.000000 -24.131411 -21.016066
v 60.000000 -21.673010 -23.543165
v 60.000000 -18.951529 -25.784483
v 60.000000 -26.296890 -18.233858
v 60.000000 -16.000000 -27.712812
v 60.000000 -12.854254 -29.304747
v 60.000000 -29.647810 -12.041900
v 60.000000 -28.143160 -15.230316
v 60.000000 -9.552474 -30.540960
v 60.000000 -30.792576 -8.707311
v 60.000000 -6.134740 -31.406448
v 60.000000 -31.563562 -5.267027
v 60.000000 -2.642539 -31.890703
v 60.000000 -31.951408 -1.762808
v 60.000000 0.881739 -31.987850
v 60.000000 4.395314 -31.696707
v 60.000000 -31.563562 5.267027
v 60.000000 -31.951408 1.762808
v 60.000000 7.855536 -31.020809
v 60.000000 -30.792576 8.707311
v 60.000000 11.220402 -29.968359
v 60.000000 -29.647810 12.041900
v 60.000000 14.449067 -28.552135
v 60.000000 -28.143160 15.230316
v 60.000000 -26.296890 18.233858
v 60.000000 17.502340 -26.789328
v 60.000000 20.343161 -24.701332
v 60.000000 -24.131411 21.016066
v 60.000000 22.937040 -22.313498
v 60.000000 -21.673010 23.543165
v 60.000000 25.252497 -19.654806
v 60.000000 -18.951529 25.784483
v 60.000000 27.261421 -16.757534
v 60.000000 -16.000000 27.712812
v 60.000000 28.939428 -13.656846
v 60.000000 -12.854254 29.304747
v 60.000000 30.266151 -10.390383
v 60.000000 -9.552474 30.540960
v 60.000000 31.225485 -6.997795
v 60.000000 -6.134740 31.406448
v 60.000000 31.805782 -3.520263
v 60.000000 -2.642539 31.890703
v 60.000000 32.000000 0.000000
v 60.000000 0.881739 31.987850
v 60.000000 31.805782 3.520263
v 60.000000 4.395314 31.696707
v 60.000000 31.225485 6.997795
v 60.000000 7.855536 31.020809
v 60.000000 30.266151 10.390383
v 60.000000 11.220402 29.968359
v 60.000000 28.939428 13.656846
v 60.000000 14.449067 28.552135
v 60.000000 27.261421 16.757534
v 60.000000 17.502340 26.789328
v 60.000000 25.252497 19.654806
v 60.000000 20.343161 24.701332
v 60.000000 22.937040 22.313498
v 32.500000 32.000000 0.000000
v 32.500000 31.805782 3.520263
v 32.500000 31.225485 6.997795
v 32.500000 30.266151 10.390383
v 32.500000 28.939428 13.656846
v 32.500000 27.261421 16.757534
v 32.500000 25.252497 19.654806
v 32.500000 22.937040 22.313498
v 32.500000 20.343161 24.701332
v 32.500000 17.502340 26.789328
v 32.500000 14.449067 28.552135
v 32.500000 11.220402 29.968359
v 32.500000 7.855536 31.020809
v 32.500000 4.395314 31.696707
v 32.500000 0.881739 31.987850
v 32.500000 -2.642539 31.890703
v 32.500000 -6.134740 31.406448
v 32.500000 -9.552474 30.540960
v 32.500000 -12.854254 29.304747
v 32.500000 -16.000000 27.712812
v 32.500000 -18.951529 25.784483
v 32.500000 -21.673010 23.543165
v 32.500000 -24.131411 21.016066
v 32.500000 -26.296890 18.233858
v 32.500000 -28.143160 15.230316
v 32.500000 -29.647810 12.041900
v 32.500000 -30.792576 8.707311
v 32.500000 -31.563562 5.267027
v 32.500000 -31.951408 1.762808
v 32.500000 -31.951408 -1.762808
v 32.500000 -31.563562 -5.267027
v 32.500000 -30.792576 -8.707311
v 32.500000 -29.647810 -12.041900
v 32.500000 -28.143160 -15.230316
v 32.500000 -26.296890 -18.233858
v 32.500000 -24.131411 -21.016066
v 32.500000 -21.673010 -23.543165
v 32.500000 -18.951529 -25.784483
v 32.500000 -16.000000 -27.712812
v 32.500000 -12.854254 -29.304747
v 32.500000 -9.552474 -30.540960
v 32.500000 -6.134740 -31.406448
v 32.500000 -2.642539 -31.890703
v 32.500000 0.881739 -31.987850
v 32.500000 4.395314 -31.696707
v 32.500000 7.855536 -31.020809
v 32.500000 11.220402 -29.968359
v 32.500000 14.449067 -28.552135
v 32.500000 17.502340 -26.789328
v 32.500000 20.343161 -24.701332
v 32.500000 22.937040 -22.313498
v 32.500000 25.252497 -19.654806
v 32.500000 27.261421 -16.757534
v 32.500000 28.939428 -13.656846
v 32.500000 30.266151 -10.390383
v 32.500000 31.225485 -6.997795
v 32.500000 31.805782 -3.520263
v 32.500000 -24.683847 -23.381783
v 32.500000 -22.011133 -25.913509
v 32.500000 -27.067163 -20.575924
v 32.500000 -19.080360 -28.141426
v 32.500000 -29.133144 -17.528831
v 32.500000 -15.925887 -30.039410
v 32.500000 -30.857565 -14.276230
v 32.500000 -12.584698 -31.585209
v 32.500000 -32.220207 -10.856252
v 32.500000 -9.095963 -32.760700
v 32.500000 -33.205097 -7.308995
v 32.500000 -5.500588 -33.552101
v 32.500000 -33.800690 -3.676047
v 32.500000 -1.840723 -33.950134
v 32.500000 -34.000000 -0.000000
v 32.500000 1.840723 -33.950134
v 32.500000 -33.800690 3.676047
v 32.500000 5.500588 -33.552101
v 32.500000 -33.205097 7.308995
v 32.500000 9.095963 -32.760700
v 32.500000 -32.220207 10.856252
v 32.500000 12.584698 -31.585209
v 32.500000 -30.857565 14.276230
v 32.500000 15.925887 -30.039410
v 32.500000 -29.133144 17.528831
v 32.500000 19.080360 -28.141426
v 32.500000 -27.067163 20.575924
v 32.500000 22.011133 -25.913509
v 32.500000 -24.683847 23.381783
v 32.500000 24.683847 -23.381783
v 32.500000 -22.011133 25.913509
v 32.500000 27.067163 -20.575924
v 32.500000 -19.080360 28.141426
v 32.500000 29.133144 -17.528831
v 32.500000 -15.925887 30.039410
v 32.500000 30.857565 -14.276230
v 32.500000 -12.584698 31.585209
v 32.500000 32.220207 -10.856252
v 32.500000 -9.095963 32.760700
v 32.500000 33.205097 -7.308995
v 32.500000 -5.500588 33.552101
v 32.500000 33.800690 -3.676047
v 32.500000 -1.840723 33.950134
v 32.500000 34.000000 0.000000
v 32.500000 1.840723 33.950134
v 32.500000 33.800690 3.676047
v 32.500000 5.500588 33.552101
v 32.500000 33.205097 7.308995
v 32.500000 9.095963 32.760700
v 32.500000 32.220207 10.856252
v 32.500000 12.584698 31.585209
v 32.500000 30.857565 14.276230
v 32.500000 15.925887 30.039410
v 32.500000 29.133144 17.528831
v 32.500000 19.080360 28.141426
v 32.500000 27.067163 20.575924
v 32.500000 22.011133 25.913509
v 32.500000 24.683847 23.381783
v 12.500000 34.000000 0.000000
v 12.500000 33.800690 3.676047
v 12.500000 33.205097 7.308995
v 12.500000 32.220207 10.856252
v 12.500000 30.857565 14.276230
v 12.500000 29.133144 17.528831
v 12.500000 27.067163 20.575924
v 12.500000 24.683847 23.381783
v 12.500000 22.011133 25.913509
v 12.500000 19.080360 28.141426
v 12.500000 15.925887 30.039410
v 12.500000 12.584698 31.585209
v 12.500000 9.095963 32.760700
v 12.500000 5.500588 33.552101
v 12.500000 1.840723 33.950134
v 12.500000 -1.840723 33.950134
v 12.500000 -5.500588 33.552101
v 12.500000 -9.095963 32.760700
v 12.500000 -12.584698 31.585209
v 12.500000 -15.925887 30.039410
v 12.500000 -19.080360 28.141426
v 12.500000 -22.011133 25.913509
v 12.500000 -24.683847 23.381783
v 12.500000 -27.067163 20.575924
v 12.500000 -29.133144 17.528831
v 12.500000 -30.857565 14.276230
v 12.500000 -32.220207 10.856252
v 12.500000 -33.205097 7.308995
v 12.500000 -33.800690 3.676047
v 12.500000 -34.000000 -0.000000
v 12.500000 -33.800690 -3.676047
v 12.500000 -33.205097 -7.308995
v 12.500000 -32.220207 -10.856252
v 12.500000 -30.857565 -14.276230
v 12.500000 -29.133144 -17.528831
v 12.500000 -27.067163 -20.575924
v 12.500000 -24.683847 -23.381783
v 12.500000 -22.011133 -25.913509
v 12.500000 -19.080360 -28.141426
v 12.500000 -15.925887 -30.039410
v 12.500000 -12.584698 -31.585209
v 12.500000 -9.095963 -32.760700
v 12.500000 -5.500588 -33.552101
v 12.500000 -1.840723 -33.950134
v 12.500000 1.840723 -33.950134
v 12.500000 5.500588 -33.552101
v 12.500000 9.095963 -32.760700
v 12.500000 12.584698 -31.585209
v 12.500000 15.925887 -30.039410
v 12.500000 19.080360 -28.141426
v 12.500000 22.011133 -25.913509
v 12.500000 24.683847 -23.381783
v 12.500000 27.067163 -20.575924
v 12.500000 29.133144 -17.528831
v 12.500000 30.857565 -14.276230
v 12.500000 32.220207 -10.856252
v 12.500000 33.205097 -7.308995
v 12.500000 33.800690 -3.676047
v 12.500000 12.248867 -11.788353
v 12.500000 10.305832 -13.519979
v 12.500000 13.904799 -9.780417
v 12.500000 8.121237 -14.934709
v 12.500000 15.234815 -7.543237
v 12.500000 5.746287 -15.999381
v 12.500000 16.207739 -5.129250
v 12.500000 3.236649 -16.689041
v 12.500000 16.800768 -2.595038
v 12.500000 0.651146 -16.987526
v 12.500000 17.000000 0.000000
v 12.500000 -1.949618 -16.887836
v 12.500000 16.800768 2.595038
v 12.500000 -4.504685 -16.392309
v 12.500000 16.207739 5.129250
v 12.500000 -6.954167 -15.512562
v 12.500000 15.234815 7.543237
v 12.500000 -9.240648 -14.269212
v 12.500000 13.904799 9.780417
v 12.500000 -11.310537 -12.691404
v 12.500000 12.248867 11.788353
v 12.500000 -13.115316 -10.816121
v 12.500000 10.305832 13.519979
v 12.500000 -14.612683 -8.687318
v 12.500000 8.121237 14.934709
v 12.500000 -15.767542 -6.354890
v 12.500000 5.746287 15.999381
v 12.500000 -16.552822 -3.873510
v 12.500000 3.236649 16.689041
v 12.500000 0.651146 16.987526
v 12.500000 -16.950119 -1.301337
v 12.500000 -16.950119 1.301337
v 12.500000 -1.949618 16.887836
v 12.500000 -16.552822 3.873510
v 12.500000 -4.504685 16.392309
v 12.500000 -15.767542 6.354890
v 12.500000 -6.954167 15.512562
v 12.500000 -14.612683 8.687318
v 12.500000 -9.240648 14.269212
v 12.500000 -13.115316 10.816121
v 12.500000 -11.310537 12.691404
v 0.000000 17.000000 0.000000
v 0.000000 16.800768 2.595038
v 0.000000 16.207739 5.129250
v 0.000000 15.234815 7.543237
v 0.000000 13.904799 9.780417
v 0.000000 12.248867 11.788353
v 0.000000 10.305832 13.519979
v 0.000000 8.121237 14.934709
v 0.000000 5.746287 15.999381
v 0.000000 3.236649 16.689041
v 0.000000 0.651146 16.987526
v 0.000000 -1.949618 16.887836
v 0.000000 -4.504685 16.392309
v 0.000000 -6.954167 15.512562
v 0.000000 -9.240648 14.269212
v 0.000000 -11.310537 12.691404
v 0.000000 -13.115316 10.816121
v 0.000000 -14.612683 8.687318
v 0.000000 -15.767542 6.354890
v 0.000000 -16.552822 3.873510
v 0.000000 -16.950119 1.301337
v 0.000000 -16.950119 -1.301337
v 0.000000 -16.552822 -3.873510
v 0.000000 -15.767542 -6.354890
v 0.000000 -14.612683 -8.687318
v 0.000000 -13.115316 -10.816121
v 0.000000 -11.310537 -12.691404
v 0.000000 -9.240648 -14.269212
v 0.000000 -6.954167 -15.512562
v 0.000000 -4.504685 -16.392309
v 0.000000 -1.949618 -16.887836
v 0.000000 0.651146 -16.987526
v 0.000000 3.236649 -16.689041
v 0.000000 5.746287 -15.999381
v 0.000000 8.121237 -14.934709
v 0.000000 10.305832 -13.519979
v 0.000000 12.248867 -11.788353
v 0.000000 13.904799 -9.780417
v 0.000000 15.234815 -7.543237
v 0.000000 16.207739 -5.129250
v 0.000000 16.800768 -2.595038
vn 0.000000 -0.995734 -0.092268
vn 0.000000 -0.995734 -0.092268
vn 0.000000 -0.961826 -0.273663
vn 0.000000 -0.961826 -0.273663
vn 0.000000 -0.895163 -0.445738
vn 0.000000 -0.798017 -0.602635
vn 0.000000 -0.895163 -0.445738
vn 0.000000 -0.798017 -0.602635
vn 0.000000 -0.673696 -0.739009
vn 0.000000 -0.526432 -0.850217
vn 0.000000 -0.673696 -0.739009
vn 0.000000 -0.361242 -0.932472
vn 0.000000 -0.526432 -0.850217
vn 0.000000 -0.361242 -0.932472
vn 0.000000 -0.183749 -0.982973
vn 0.000000 -0.183749 -0.982973
vn 0.000000 0.000000 -1.000000
vn 0.000000 0.000000 -1.000000
vn 0.000000 0.183749 -0.982973
vn 0.000000 0.183749 -0.982973
vn 0.000000 0.361242 -0.932472
vn 0.000000 0.361242 -0.932472
vn 0.000000 0.526432 -0.850217
vn 0.000000 0.526432 -0.850217
vn 0.000000 0.673696 -0.739009
vn 0.000000 0.673696 -0.739009
vn 0.000000 0.798017 -0.602635
vn 0.000000 0.798017 -0.602635
vn 0.000000 0.895163 -0.445738
vn 0.000000 0.895163 -0.445738
vn 0.000000 0.961826 -0.273663
vn 0.000000 0.961826 -0.273663
vn 0.000000 0.995734 -0.092268
vn 0.000000 0.995734 -0.092268
vn 0.000000 0.995734 0.092268
vn -0.000000 0.995734 0.092268
vn -0.000000 0.961826 0.273663
vn -0.000000 0.961826 0.273663
vn -0.000000 0.895163 0.445738
vn 0.000000 0.895163 0.445738
vn -0.000000 0.798017 0.602635
vn 0.000000 0.798017 0.602635
vn -0.000000 0.673696 0.739009
vn 0.000000 0.673696 0.739009
vn -0.000000 0.526432 0.850217
vn -0.000000 0.361242 0.932472
vn -0.000000 0.526432 0.850217
vn -0.000000 0.361242 0.932472
vn -0.000000 0.183749 0.982973
vn 0.000000 0.000000 1.000000
vn 0.000000 0.183749 0.982973
vn -0.000000 0.000000 1.000000
vn 0.000000 -0.183749 0.982973
vn 0.000000 -0.183749 0.982973
vn 0.000000 -0.361242 0.932472
vn 0.000000 -0.361242 0.932472
vn 0.000000 -0.526432 0.850217
vn 0.000000 -0.526432 0.850217
vn 0.000000 -0.673696 0.739009
vn 0.000000 -0.798017 0.602635
vn 0.000000 -0.673696 0.739009
vn 0.000000 -0.798017 0.602635
vn 0.000000 -0.895163 0.445738
vn 0.000000 -0.895163 0.445738
vn 0.000000 -0.961826 0.273663
vn 0.000000 -0.961826 0.273663
vn 0.000000 -0.995734 0.092268
vn 0.000000 -0.995734 0.092268
vn 1.000000 0.000000 0.000000
vn 1.000000 0.000000 0.000000
vn 1.000000 0.000000 0.000000
vn 1.000000 0.000000 0.000000
vn 1.000000 0.000000 0.000000
vn 1.000000 0.000000 0.000000
vn 1.000000 0.000000 0.000000
vn 1.000000 0.000000 0.000000
vn 1.000000 0.000000 0.000000
vn 1.000000 0.000000 0.000000
vn 1.000000 0.000000 0.000000
vn 1.000000 0.000000 0.000000
vn 1.000000 0.000000 0.000000
vn 1.000000 0.000000 0.000000
vn 1.000000 0.000000 0.000000
vn 1.000000 0.000000 0.000000
vn 1.000000 0.000000 0.000000
vn 1.000000 0.000000 0.000000
vn 1.000000 0.000000 0.000000
vn 1.000000 0.000000 0.000000
vn 1.000000 0.000000 0.000000
vn 1.000000 0.000000 0.000000
vn 1.000000 0.000000 0.000000
vn 1.000000 0.000000 0.000000
vn 1.000000 0.000000 0.000000
vn 1.000000 0.000000 0.000000
vn 1.000000 0.000000 0.000000
vn 1.000000 0.000000 0.000000
vn 1.000000 0.000000 0.000000
vn 1.000000 0.000000 0.000000
vn 1.000000 0.000000 0.000000
vn 1.000000 0.000000 0.000000
vn 1.000000 0.000000 0.000000
vn 1.000000 0.000000 0.000000
vn 1.000000 0.000000 0.000000
vn 1.000000 0.000000 0.000000
vn 1.000000 0.000000 0.000000
vn 1.000000 0.000000 0.000000
vn 1.000000 0.000000 0.000000
vn 1.000000 0.000000 0.000000
vn 1.000000 0.000000 0.000000
vn 1.000000 0.000000 0.000000
vn 1.000000 0.000000 0.000000
vn 1.000000 0.000000 0.000000
vn 1.000000 0.000000 0.000000
vn 1.000000 0.000000 0.000000
vn 1.000000 0.000000 0.000000
vn 1.000000 0.000000 0.000000
vn 1.000000 0.000000 0.000000
vn 1.000000 0.000000 0.000000
vn 1.000000 0.000000 0.000000
vn 1.000000 0.000000 0.000000
vn 1.000000 0.000000 0.000000
vn 1.000000 0.000000 0.000000
vn 1.000000 0.000000 0.000000
vn 1.000000 0.000000 0.000000
vn 1.000000 0.000000 0.000000
vn 1.000000 0.000000 0.000000
vn 1.000000 0.000000 0.000000
vn 1.000000 0.000000 0.000000
vn 1.000000 0.000000 0.000000
vn 1.000000 0.000000 0.000000
vn 1.000000 0.000000 0.000000
vn 1.000000 0.000000 0.000000
vn 1.000000 0.000000 0.000000
vn 1.000000 0.000000 0.000000
vn 1.000000 0.000000 0.000000
vn 1.000000 0.000000 0.000000
vn 1.000000 0.000000 0.000000
vn 1.000000 0.000000 0.000000
vn 1.000000 0.000000 0.000000
vn 1.000000 0.000000 0.000000
vn 1.000000 0.000000 0.000000
vn 1.000000 0.000000 0.000000
vn 1.000000 0.000000 0.000000
vn 1.000000 0.000000 0.000000
vn 1.000000 0.000000 0.000000
vn 1.000000 0.000000 0.000000
vn 1.000000 0.000000 0.000000
vn 0.000000 0.997564 0.069757
vn 0.000000 0.978148 0.207912
vn 0.000000 0.997564 0.069757
vn 0.000000 0.978148 0.207912
vn 0.000000 0.939693 0.342020
vn 0.000000 0.939693 0.342020
vn 0.000000 0.882948 0.469471
vn 0.000000 0.882948 0.469471
vn 0.000000 0.809017 0.587785
vn 0.000000 0.809017 0.587785
vn 0.000000 0.719340 0.694658
vn 0.000000 0.719340 0.694658
vn 0.000000 0.615661 0.788011
vn 0.000000 0.500000 0.866025
vn 0.000000 0.615661 0.788011
vn 0.000000 0.500000 0.866025
vn 0.000000 0.374606 0.927184
vn 0.000000 0.374606 0.927184
vn 0.000000 0.241922 0.970296
vn 0.000000 0.241922 0.970296
vn 0.000000 0.104528 0.994522
vn 0.000000 0.104528 0.994522
vn 0.000000 -0.034899 0.999391
vn 0.000000 -0.173648 0.984808
vn 0.000000 -0.034899 0.999391
vn 0.000000 -0.173648 0.984808
vn 0.000000 -0.309017 0.951056
vn 0.000000 -0.438371 0.898794
vn 0.000000 -0.309017 0.951056
vn 0.000000 -0.559193 0.829037
vn 0.000000 -0.438371 0.898794
vn 0.000000 -0.669131 0.743145
vn 0.000000 -0.559193 0.829037
vn 0.000000 -0.669131 0.743145
vn 0.000000 -0.766044 0.642788
vn 0.000000 -0.848048 0.529920
vn 0.000000 -0.766044 0.642788
vn 0.000000 -0.848048 0.529920
vn 0.000000 -0.913546 0.406736
vn 0.000000 -0.913546 0.406736
vn 0.000000 -0.961262 0.275638
vn 0.000000 -0.961262 0.275638
vn 0.000000 -0.990268 0.139173
vn 0.000000 -0.990268 0.139173
vn 0.000000 -1.000000 0.000000
vn 0.000000 -1.000000 0.000000
vn -0.000000 -0.990268 -0.139173
vn 0.000000 -0.990268 -0.139173
vn -0.000000 -0.961262 -0.275638
vn 0.000000 -0.961262 -0.275638
vn -0.000000 -0.913546 -0.406736
vn 0.000000 -0.913546 -0.406736
vn 0.000000 -0.848048 -0.529920
vn -0.000000 -0.848048 -0.529920
vn -0.000000 -0.766044 -0.642788
vn -0.000000 -0.766044 -0.642788
vn 0.000000 -0.669131 -0.743145
vn -0.000000 -0.669131 -0.743145
vn 0.000000 -0.559193 -0.829037
vn -0.000000 -0.559193 -0.829037
vn 0.000000 -0.438371 -0.898794
vn -0.000000 -0.438371 -0.898794
vn 0.000000 -0.309017 -0.951056
vn -0.000000 -0.309017 -0.951056
vn 0.000000 -0.173648 -0.984808
vn -0.000000 -0.173648 -0.984808
vn 0.000000 -0.034899 -0.999391
vn -0.000000 -0.034899 -0.999391
vn 0.000000 0.104528 -0.994522
vn 0.000000 0.104528 -0.994522
vn 0.000000 0.241922 -0.970296
vn 0.000000 0.241922 -0.970296
vn 0.000000 0.374606 -0.927184
vn 0.000000 0.374606 -0.927184
vn 0.000000 0.500000 -0.866025
vn 0.000000 0.615661 -0.788011
vn 0.000000 0.500000 -0.866025
vn 0.000000 0.615661 -0.788011
vn 0.000000 0.719340 -0.694658
vn 0.000000 0.719340 -0.694658
vn 0.000000 0.809017 -0.587785
vn 0.000000 0.809017 -0.587785
vn 0.000000 0.882948 -0.469471
vn 0.000000 0.939693 -0.342020
vn 0.000000 0.882948 -0.469471
vn 0.000000 0.939693 -0.342020
vn 0.000000 0.978148 -0.207912
vn 0.000000 0.978148 -0.207912
vn 0.000000 0.997564 -0.069757
vn 0.000000 0.997564 -0.069757
vn 1.000000 0.000000 0.000000
vn 1.000000 0.000000 0.000000
vn 1.000000 0.000000 0.000000
vn 1.000000 0.000000 0.000000
vn 1.000000 0.000000 0.000000
vn 1.000000 0.000000 0.000000
vn 1.000000 0.000000 0.000000
vn 1.000000 0.000000 0.000000
vn 1.000000 0.000000 0.000000
vn 1.000000 0.000000 0.000000
vn 1.000000 0.000000 0.000000
vn 1.000000 0.000000 0.000000
vn 1.000000 0.000000 0.000000
vn 1.000000 0.000000 0.000000
vn 1.000000 0.000000 0.000000
vn 1.000000 0.000000 0.000000
vn 1.000000 0.000000 0.000000
vn 1.000000 0.000000 0.000000
vn 1.000000 0.000000 0.000000
vn 1.000000 0.000000 0.000000
vn 1.000000 0.000000 0.000000
vn 1.000000 0.000000 0.000000
vn 1.000000 0.000000 0.000000
vn 1.000000 0.000000 0.000000
vn 1.000000 0.000000 0.000000
vn 1.000000 0.000000 0.000000
vn 1.000000 0.000000 0.000000
vn 1.000000 0.000000 0.000000
vn 1.000000 0.000000 0.000000
vn 1.000000 0.000000 0.000000
vn 1.000000 0.000000 0.000000
vn 1.000000 0.000000 0.000000
vn 1.000000 0.000000 0.000000
vn 1.000000 0.000000 0.000000
vn 1.000000 0.000000 0.000000
vn 1.000000 0.000000 0.000000
vn 1.000000 0.000000 0.000000
vn 1.000000 0.000000 0.000000
vn 1.000000 0.000000 0.000000
vn 1.000000 0.000000 0.000000
vn 1.000000 0.000000 0.000000
vn 1.000000 0.000000 0.000000
vn 1.000000 0.000000 0.000000
vn 1.000000 0.000000 0.000000
vn 1.000000 0.000000 0.000000
vn 1.000000 0.000000 0.000000
vn 1.000000 0.000000 0.000000
vn 1.000000 0.000000 0.000000
vn 1.000000 0.000000 0.000000
vn 1.000000 0.000000 0.000000
vn 1.000000 0.000000 0.000000
vn 1.000000 0.000000 0.000000
vn 1.000000 0.000000 0.000000
vn 1.000000 0.000000 0.000000
vn 1.000000 0.000000 0.000000
vn 1.000000 0.000000 0.000000
vn 1.000000 0.000000 0.000000
vn 1.000000 0.000000 0.000000
vn 1.000000 0.000000 0.000000
vn 1.000000 0.000000 0.000000
vn 1.000000 0.000000 0.000000
vn 1.000000 0.000000 0.000000
vn 1.000000 0.000000 0.000000
vn 1.000000 0.000000 0.000000
vn 1.000000 0.000000 0.000000
vn 1.000000 0.000000 0.000000
vn 1.000000 0.000000 0.000000
vn 1.000000 0.000000 0.000000
vn 1.000000 0.000000 0.000000
vn 1.000000 0.000000 0.000000
vn 1.000000 0.000000 0.000000
vn 1.000000 0.000000 0.000000
vn 1.000000 0.000000 0.000000
vn 1.000000 0.000000 0.000000
vn 1.000000 0.000000 0.000000
vn 1.000000 0.000000 0.000000
vn 1.000000 0.000000 0.000000
vn 1.000000 0.000000 0.000000
vn 1.000000 0.000000 0.000000
vn 1.000000 0.000000 0.000000
vn 1.000000 0.000000 0.000000
vn 1.000000 0.000000 0.000000
vn 1.000000 0.000000 0.000000
vn 1.000000 0.000000 0.000000
vn 1.000000 0.000000 0.000000
vn 1.000000 0.000000 0.000000
vn 1.000000 0.000000 0.000000
vn 1.000000 0.000000 0.000000
vn 1.000000 0.000000 0.000000
vn 1.000000 0.000000 0.000000
vn 1.000000 0.000000 0.000000
vn 1.000000 0.000000 0.000000
vn 1.000000 0.000000 0.000000
vn 1.000000 0.000000 0.000000
vn 1.000000 0.000000 0.000000
vn 1.000000 0.000000 0.000000
vn 1.000000 0.000000 0.000000
vn 1.000000 0.000000 0.000000
vn 1.000000 0.000000 0.000000
vn 1.000000 0.000000 0.000000
vn 1.000000 0.000000 0.000000
vn 1.000000 0.000000 0.000000
vn 0.000000 0.998482 0.055088
vn 0.000000 0.998482 0.055088
vn 0.000000 0.986361 0.164595
vn 0.000000 0.986361 0.164595
vn 0.000000 0.962268 0.272104
vn 0.000000 0.962268 0.272104
vn 0.000000 0.926494 0.376309
vn 0.000000 0.879474 0.475947
vn 0.000000 0.926494 0.376309
vn 0.000000 0.879474 0.475947
vn 0.000000 0.821778 0.569808
vn 0.000000 0.821778 0.569808
vn 0.000000 0.754107 0.656752
vn 0.000000 0.754107 0.656752
vn 0.000000 0.677282 0.735724
vn 0.000000 0.592235 0.805765
vn 0.000000 0.677282 0.735724
vn 0.000000 0.592235 0.805765
vn 0.000000 0.500000 0.866025
vn 0.000000 0.500000 0.866025
vn 0.000000 0.401695 0.915773
vn 0.000000 0.401695 0.915773
vn 0.000000 0.298515 0.954405
vn 0.000000 0.298515 0.954405
vn 0.000000 0.191710 0.981452
vn 0.000000 0.191710 0.981452
vn 0.000000 0.082579 0.996584
vn 0.000000 0.082579 0.996584
vn 0.000000 -0.027555 0.999620
vn 0.000000 -0.027555 0.999620
vn 0.000000 -0.137353 0.990522
vn 0.000000 -0.137353 0.990522
vn 0.000000 -0.245486 0.969400
vn 0.000000 -0.245486 0.969400
vn 0.000000 -0.350638 0.936511
vn 0.000000 -0.350638 0.936511
vn 0.000000 -0.451534 0.892254
vn 0.000000 -0.546948 0.837167
vn 0.000000 -0.451534 0.892254
vn 0.000000 -0.546948 0.837167
vn 0.000000 -0.635724 0.771917
vn 0.000000 -0.635724 0.771917
vn 0.000000 -0.716783 0.697297
vn 0.000000 -0.716783 0.697297
vn 0.000000 -0.789140 0.614213
vn 0.000000 -0.789140 0.614213
vn 0.000000 -0.851920 0.523673
vn 0.000000 -0.851920 0.523673
vn 0.000000 -0.904357 0.426776
vn 0.000000 -0.904357 0.426776
vn 0.000000 -0.945817 0.324699
vn 0.000000 -0.945817 0.324699
vn 0.000000 -0.975796 0.218681
vn 0.000000 -0.975796 0.218681
vn 0.000000 -0.993931 0.110008
vn -0.000000 -1.000000 0.000000
vn 0.000000 -0.993931 0.110008
vn -0.000000 -0.993931 -0.110008
vn 0.000000 -1.000000 0.000000
vn -0.000000 -0.993931 -0.110008
vn -0.000000 -0.975796 -0.218681
vn 0.000000 -0.975796 -0.218681
vn -0.000000 -0.945817 -0.324699
vn -0.000000 -0.904357 -0.426776
vn 0.000000 -0.945817 -0.324699
vn -0.000000 -0.904357 -0.426776
vn -0.000000 -0.851920 -0.523673
vn 0.000000 -0.851920 -0.523673
vn -0.000000 -0.789140 -0.614213
vn 0.000000 -0.789140 -0.614213
vn -0.000000 -0.716783 -0.697297
vn 0.000000 -0.716783 -0.697297
vn -0.000000 -0.635724 -0.771917
vn 0.000000 -0.635724 -0.771917
vn -0.000000 -0.546948 -0.837167
vn 0.000000 -0.546948 -0.837167
vn -0.000000 -0.451534 -0.892254
vn 0.000000 -0.451534 -0.892254
vn -0.000000 -0.350638 -0.936511
vn 0.000000 -0.350638 -0.936511
vn -0.000000 -0.245486 -0.969400
vn 0.000000 -0.245486 -0.969400
vn -0.000000 -0.137353 -0.990522
vn 0.000000 -0.137353 -0.990522
vn -0.000000 -0.027555 -0.999620
vn 0.000000 -0.027555 -0.999620
vn 0.000000 0.082579 -0.996584
vn 0.000000 0.082579 -0.996584
vn 0.000000 0.191710 -0.981452
vn 0.000000 0.191710 -0.981452
vn 0.000000 0.298515 -0.954405
vn 0.000000 0.298515 -0.954405
vn 0.000000 0.401695 -0.915773
vn 0.000000 0.401695 -0.915773
vn 0.000000 0.500000 -0.866025
vn 0.000000 0.500000 -0.866025
vn 0.000000 0.592235 -0.805765
vn 0.000000 0.592235 -0.805765
vn 0.000000 0.677282 -0.735724
vn 0.000000 0.677282 -0.735724
vn 0.000000 0.754107 -0.656752
vn 0.000000 0.754107 -0.656752
vn 0.000000 0.821778 -0.569808
vn 0.000000 0.821778 -0.569808
vn 0.000000 0.879474 -0.475947
vn 0.000000 0.879474 -0.475947
vn 0.000000 0.926494 -0.376309
vn 0.000000 0.926494 -0.376309
vn 0.000000 0.962268 -0.272104
vn 0.000000 0.962268 -0.272104
vn 0.000000 0.986361 -0.164595
vn 0.000000 0.986361 -0.164595
vn 0.000000 0.998482 -0.055088
vn 0.000000 0.998482 -0.055088
vn 1.000000 0.000000 0.000000
vn 1.000000 0.000000 0.000000
vn 1.000000 0.000000 0.000000
vn 1.000000 0.000000 0.000000
vn 1.000000 0.000000 0.000000
vn 1.000000 0.000000 0.000000
vn 1.000000 0.000000 0.000000
vn 1.000000 0.000000 0.000000
vn 1.000000 0.000000 0.000000
vn 1.000000 0.000000 0.000000
vn 1.000000 0.000000 0.000000
vn 1.000000 0.000000 0.000000
vn 1.000000 0.000000 0.000000
vn 1.000000 0.000000 0.000000
vn 1.000000 0.000000 0.000000
vn 1.000000 0.000000 0.000000
vn 1.000000 0.000000 0.000000
vn 1.000000 0.000000 0.000000
vn 1.000000 0.000000 0.000000
vn 1.000000 0.000000 0.000000
vn 1.000000 0.000000 0.000000
vn 1.000000 0.000000 0.000000
vn 1.000000 0.000000 0.000000
vn 1.000000 0.000000 0.000000
vn 1.000000 0.000000 0.000000
vn 1.000000 0.000000 0.000000
vn 1.000000 0.000000 0.000000
vn 1.000000 0.000000 0.000000
vn 1.000000 0.000000 0.000000
vn 1.000000 0.000000 0.000000
vn 1.000000 0.000000 0.000000
vn 1.000000 0.000000 0.000000
vn 1.000000 0.000000 0.000000
vn 1.000000 0.000000 0.000000
vn 1.000000 0.000000 0.000000
vn 1.000000 0.000000 0.000000
vn 1.000000 0.000000 0.000000
vn 1.000000 0.000000 0.000000
vn 1.000000 0.000000 0.000000
vn 1.000000 0.000000 0.000000
vn 1.000000 0.000000 0.000000
vn 1.000000 0.000000 0.000000
vn 1.000000 0.000000 0.000000
vn 1.000000 0.000000 0.000000
vn 1.000000 0.000000 0.000000
vn 1.000000 0.000000 0.000000
vn 1.000000 0.000000 0.000000
vn 1.000000 0.000000 0.000000
vn 1.000000 0.000000 0.000000
vn 1.000000 0.000000 0.000000
vn 1.000000 0.000000 0.000000
vn 1.000000 0.000000 0.000000
vn 1.000000 0.000000 0.000000
vn 1.000000 0.000000 0.000000
vn 1.000000 0.000000 0.000000
vn 1.000000 0.000000 0.000000
vn 1.000000 0.000000 0.000000
vn 1.000000 0.000000 0.000000
vn 1.000000 0.000000 0.000000
vn 1.000000 0.000000 0.000000
vn 1.000000 0.000000 0.000000
vn 1.000000 0.000000 0.000000
vn 1.000000 0.000000 0.000000
vn 1.000000 0.000000 0.000000
vn 1.000000 0.000000 0.000000
vn 1.000000 0.000000 0.000000
vn 1.000000 0.000000 0.000000
vn 1.000000 0.000000 0.000000
vn 1.000000 0.000000 0.000000
vn 1.000000 0.000000 0.000000
vn 1.000000 0.000000 0.000000
vn 1.000000 0.000000 0.000000
vn 1.000000 0.000000 0.000000
vn 1.000000 0.000000 0.000000
vn 1.000000 0.000000 0.000000
vn 1.000000 0.000000 0.000000
vn 1.000000 0.000000 0.000000
vn 1.000000 0.000000 0.000000
vn 1.000000 0.000000 0.000000
vn 1.000000 0.000000 0.000000
vn 1.000000 0.000000 0.000000
vn 1.000000 0.000000 0.000000
vn 1.000000 0.000000 0.000000
vn 1.000000 0.000000 0.000000
vn 1.000000 0.000000 0.000000
vn 1.000000 0.000000 0.000000
vn 1.000000 0.000000 0.000000
vn 1.000000 0.000000 0.000000
vn 1.000000 0.000000 0.000000
vn 1.000000 0.000000 0.000000
vn 1.000000 0.000000 0.000000
vn 1.000000 0.000000 0.000000
vn 1.000000 0.000000 0.000000
vn 1.000000 0.000000 0.000000
vn 1.000000 0.000000 0.000000
vn 1.000000 0.000000 0.000000
vn 1.000000 0.000000 0.000000
vn 1.000000 0.000000 0.000000
vn 1.000000 0.000000 0.000000
vn 1.000000 0.000000 0.000000
vn 1.000000 0.000000 0.000000
vn 1.000000 0.000000 0.000000
vn 1.000000 0.000000 0.000000
vn 1.000000 0.000000 0.000000
vn 1.000000 0.000000 0.000000
vn 1.000000 0.000000 0.000000
vn 1.000000 0.000000 0.000000
vn 1.000000 0.000000 0.000000
vn 1.000000 0.000000 0.000000
vn 1.000000 0.000000 0.000000
vn 1.000000 0.000000 0.000000
vn 1.000000 0.000000 0.000000
vn 1.000000 0.000000 0.000000
vn 1.000000 0.000000 0.000000
vn 1.000000 0.000000 0.000000
vn 0.000000 0.998533 0.054139
vn 0.000000 0.986827 0.161782
vn 0.000000 0.998533 0.054139
vn 0.000000 0.986827 0.161782
vn 0.000000 0.963550 0.267528
vn 0.000000 0.963550 0.267528
vn 0.000000 0.928977 0.370138
vn 0.000000 0.928977 0.370138
vn 0.000000 0.883512 0.468408
vn 0.000000 0.883512 0.468408
vn 0.000000 0.827689 0.561187
vn 0.000000 0.827689 0.561187
vn 0.000000 0.762162 0.647386
vn 0.000000 0.762162 0.647386
vn 0.000000 0.687699 0.725996
vn 0.000000 0.687699 0.725996
vn 0.000000 0.605174 0.796093
vn 0.000000 0.515554 0.856857
vn 0.000000 0.605174 0.796093
vn 0.000000 0.515554 0.856857
vn 0.000000 0.419889 0.907575
vn 0.000000 0.419889 0.907575
vn 0.000000 0.319301 0.947653
vn 0.000000 0.319301 0.947653
vn 0.000000 0.214970 0.976621
vn 0.000000 0.214970 0.976621
vn 0.000000 0.108119 0.994138
vn 0.000000 0.108119 0.994138
vn 0.000000 0.000000 1.000000
vn 0.000000 -0.000000 1.000000
vn 0.000000 -0.108119 0.994138
vn 0.000000 -0.108119 0.994138
vn 0.000000 -0.214970 0.976621
vn 0.000000 -0.214970 0.976621
vn 0.000000 -0.319301 0.947653
vn 0.000000 -0.319301 0.947653
vn 0.000000 -0.419889 0.907575
vn 0.000000 -0.419889 0.907575
vn 0.000000 -0.515554 0.856857
vn 0.000000 -0.515554 0.856857
vn 0.000000 -0.605174 0.796093
vn 0.000000 -0.605174 0.796093
vn 0.000000 -0.687699 0.725996
vn 0.000000 -0.687699 0.725996
vn 0.000000 -0.762162 0.647386
vn 0.000000 -0.762162 0.647386
vn 0.000000 -0.827689 0.561187
vn 0.000000 -0.827689 0.561187
vn 0.000000 -0.883512 0.468408
vn 0.000000 -0.883512 0.468408
vn 0.000000 -0.928977 0.370138
vn 0.000000 -0.928977 0.370138
vn 0.000000 -0.963550 0.267528
vn 0.000000 -0.963550 0.267528
vn 0.000000 -0.986827 0.161782
vn 0.000000 -0.986827 0.161782
vn 0.000000 -0.998533 0.054139
vn 0.000000 -0.998533 0.054139
vn -0.000000 -0.998533 -0.054139
vn 0.000000 -0.998533 -0.054139
vn -0.000000 -0.986827 -0.161782
vn 0.000000 -0.986827 -0.161782
vn -0.000000 -0.963550 -0.267528
vn 0.000000 -0.963550 -0.267528
vn -0.000000 -0.928977 -0.370138
vn -0.000000 -0.883512 -0.468408
vn 0.000000 -0.928977 -0.370138
vn -0.000000 -0.883512 -0.468408
vn -0.000000 -0.827689 -0.561187
vn -0.000000 -0.762162 -0.647386
vn 0.000000 -0.827689 -0.561187
vn -0.000000 -0.762162 -0.647386
vn -0.000000 -0.687699 -0.725996
vn 0.000000 -0.687699 -0.725996
vn -0.000000 -0.605174 -0.796093
vn 0.000000 -0.605174 -0.796093
vn -0.000000 -0.515554 -0.856857
vn -0.000000 -0.419889 -0.907575
vn 0.000000 -0.515554 -0.856857
vn -0.000000 -0.419889 -0.907575
vn -0.000000 -0.319301 -0.947653
vn 0.000000 -0.319301 -0.947653
vn -0.000000 -0.214970 -0.976621
vn 0.000000 -0.214970 -0.976621
vn -0.000000 -0.108119 -0.994138
vn 0.000000 -0.108119 -0.994138
vn -0.000000 0.000000 -1.000000
vn 0.000000 -0.000000 -1.000000
vn 0.000000 0.108119 -0.994138
vn 0.000000 0.108119 -0.994138
vn 0.000000 0.214970 -0.976621
vn 0.000000 0.214970 -0.976621
vn 0.000000 0.319301 -0.947653
vn 0.000000 0.319301 -0.947653
vn 0.000000 0.419889 -0.907575
vn 0.000000 0.419889 -0.907575
vn 0.000000 0.515554 -0.856857
vn 0.000000 0.515554 -0.856857
vn 0.000000 0.605174 -0.796093
vn 0.000000 0.605174 -0.796093
vn 0.000000 0.687699 -0.725996
vn 0.000000 0.687699 -0.725996
vn 0.000000 0.762162 -0.647386
vn 0.000000 0.762162 -0.647386
vn 0.000000 0.827689 -0.561187
vn 0.000000 0.827689 -0.561187
vn 0.000000 0.883512 -0.468408
vn 0.000000 0.883512 -0.468408
vn 0.000000 0.928977 -0.370138
vn 0.000000 0.928977 -0.370138
vn 0.000000 0.963550 -0.267528
vn 0.000000 0.963550 -0.267528
vn 0.000000 0.986827 -0.161782
vn 0.000000 0.986827 -0.161782
vn 0.000000 0.998533 -0.054139
vn 0.000000 0.998533 -0.054139
vn -1.000000 0.000000 0.000000
vn -1.000000 0.000000 0.000000
vn -1.000000 0.000000 0.000000
vn -1.000000 0.000000 0.000000
vn -1.000000 0.000000 -0.000000
vn -1.000000 0.000000 0.000000
vn -1.000000 0.000000 0.000000
vn -1.000000 0.000000 0.000000
vn -1.000000 0.000000 0.000000
vn -1.000000 0.000000 -0.000000
vn -1.000000 0.000000 0.000000
vn -1.000000 0.000000 0.000000
vn -1.000000 0.000000 0.000000
vn -1.000000 0.000000 -0.000000
vn -1.000000 0.000000 0.000000
vn -1.000000 0.000000 0.000000
vn -1.000000 0.000000 0.000000
vn -1.000000 0.000000 0.000000
vn -1.000000 0.000000 0.000000
vn -1.000000 0.000000 -0.000000
vn -1.000000 0.000000 0.000000
vn -1.000000 0.000000 -0.000000
vn -1.000000 0.000000 0.000000
vn -1.000000 0.000000 0.000000
vn -1.000000 0.000000 0.000000
vn -1.000000 0.000000 -0.000000
vn -1.000000 0.000000 0.000000
vn -1.000000 0.000000 -0.000000
vn -1.000000 0.000000 0.000000
vn -1.000000 0.000000 0.000000
vn -1.000000 0.000000 0.000000
vn -1.000000 0.000000 0.000000
vn -1.000000 0.000000 -0.000000
vn -1.000000 0.000000 0.000000
vn -1.000000 0.000000 0.000000
vn -1.000000 0.000000 0.000000
vn -1.000000 0.000000 0.000000
vn -1.000000 0.000000 -0.000000
vn -1.000000 0.000000 0.000000
vn -1.000000 0.000000 0.000000
vn -1.000000 0.000000 0.000000
vn -1.000000 0.000000 -0.000000
vn -1.000000 0.000000 0.000000
vn -1.000000 0.000000 0.000000
vn -1.000000 0.000000 0.000000
vn -1.000000 0.000000 -0.000000
vn -1.000000 0.000000 0.000000
vn -1.000000 0.000000 0.000000
vn -1.000000 0.000000 0.000000
vn -1.000000 0.000000 -0.000000
vn -1.000000 0.000000 0.000000
vn -1.000000 0.000000 -0.000000
vn -1.000000 0.000000 0.000000
vn -1.000000 0.000000 0.000000
vn -1.000000 0.000000 -0.000000
vn -1.000000 0.000000 0.000000
vn -1.000000 0.000000 0.000000
vn -1.000000 0.000000 -0.000000
vn -1.000000 0.000000 0.000000
vn -1.000000 0.000000 0.000000
vn -1.000000 0.000000 -0.000000
vn -1.000000 0.000000 0.000000
vn -1.000000 0.000000 0.000000
vn -1.000000 0.000000 0.000000
vn -1.000000 0.000000 -0.000000
vn -1.000000 0.000000 0.000000
vn -1.000000 0.000000 0.000000
vn -1.000000 0.000000 -0.000000
vn -1.000000 0.000000 0.000000
vn -1.000000 0.000000 0.000000
vn -1.000000 0.000000 0.000000
vn -1.000000 0.000000 -0.000000
vn -1.000000 0.000000 0.000000
vn -1.000000 0.000000 0.000000
vn -1.000000 0.000000 0.000000
vn -1.000000 0.000000 -0.000000
vn -1.000000 0.000000 -0.000000
vn -1.000000 0.000000 0.000000
vn -1.000000 0.000000 0.000000
vn -1.000000 0.000000 0.000000
vn -1.000000 0.000000 -0.000000
vn -1.000000 0.000000 0.000000
vn -1.000000 0.000000 -0.000000
vn -1.000000 0.000000 0.000000
vn -1.000000 0.000000 0.000000
vn -1.000000 0.000000 0.000000
vn -1.000000 0.000000 0.000000
vn -1.000000 0.000000 -0.000000
vn -1.000000 0.000000 0.000000
vn -1.000000 0.000000 0.000000
vn -1.000000 0.000000 -0.000000
vn -1.000000 0.000000 0.000000
vn -1.000000 0.000000 0.000000
vn -1.000000 0.000000 -0.000000
vn -1.000000 0.000000 0.000000
vn -1.000000 0.000000 0.000000
vn -1.000000 0.000000 -0.000000
vn -1.000000 0.000000 0.000000
vn -1.000000 0.000000 0.000000
vn 0.000000 0.997066 0.076549
vn 0.000000 0.997066 0.076549
vn 0.000000 0.973695 0.227854
vn 0.000000 0.927503 0.373817
vn 0.000000 0.973695 0.227854
vn 0.000000 0.927503 0.373817
vn 0.000000 0.859570 0.511019
vn 0.000000 0.771489 0.636243
vn 0.000000 0.859570 0.511019
vn 0.000000 0.771489 0.636243
vn 0.000000 0.665325 0.746553
vn 0.000000 0.665325 0.746553
vn 0.000000 0.543568 0.839365
vn 0.000000 0.543568 0.839365
vn 0.000000 0.409069 0.912504
vn 0.000000 0.264981 0.964254
vn 0.000000 0.409069 0.912504
vn 0.000000 0.264981 0.964254
vn 0.000000 0.114684 0.993402
vn 0.000000 0.114684 0.993402
vn 0.000000 -0.038303 0.999266
vn 0.000000 -0.038303 0.999266
vn 0.000000 -0.190392 0.981708
vn 0.000000 -0.190392 0.981708
vn 0.000000 -0.338017 0.941140
vn 0.000000 -0.338017 0.941140
vn 0.000000 -0.477720 0.878512
vn 0.000000 -0.477720 0.878512
vn 0.000000 -0.606225 0.795293
vn 0.000000 -0.720522 0.693433
vn 0.000000 -0.606225 0.795293
vn 0.000000 -0.720522 0.693433
vn 0.000000 -0.817929 0.575319
vn 0.000000 -0.817929 0.575319
vn 0.000000 -0.896166 0.443720
vn 0.000000 -0.953396 0.301720
vn 0.000000 -0.896166 0.443720
vn 0.000000 -0.953396 0.301720
vn 0.000000 -0.988280 0.152649
vn 0.000000 -0.988280 0.152649
vn 0.000000 -1.000000 0.000000
vn 0.000000 -1.000000 0.000000
vn -0.000000 -0.988280 -0.152649
vn 0.000000 -0.988280 -0.152649
vn -0.000000 -0.953396 -0.301720
vn 0.000000 -0.953396 -0.301720
vn -0.000000 -0.896166 -0.443720
vn 0.000000 -0.896166 -0.443720
vn -0.000000 -0.817929 -0.575319
vn 0.000000 -0.817929 -0.575319
vn -0.000000 -0.720522 -0.693433
vn 0.000000 -0.720522 -0.693433
vn -0.000000 -0.606225 -0.795293
vn 0.000000 -0.606225 -0.795293
vn -0.000000 -0.477720 -0.878512
vn 0.000000 -0.477720 -0.878512
vn 0.000000 -0.338017 -0.941140
vn -0.000000 -0.338017 -0.941140
vn 0.000000 -0.190392 -0.981708
vn -0.000000 -0.190392 -0.981708
vn 0.000000 -0.038303 -0.999266
vn -0.000000 -0.038303 -0.999266
vn 0.000000 0.114684 -0.993402
vn 0.000000 0.114684 -0.993402
vn 0.000000 0.264981 -0.964254
vn 0.000000 0.264981 -0.964254
vn 0.000000 0.409069 -0.912504
vn 0.000000 0.409069 -0.912504
vn 0.000000 0.543568 -0.839365
vn 0.000000 0.543568 -0.839365
vn 0.000000 0.665325 -0.746553
vn 0.000000 0.665325 -0.746553
vn 0.000000 0.771489 -0.636243
vn 0.000000 0.771489 -0.636243
vn 0.000000 0.859570 -0.511019
vn 0.000000 0.859570 -0.511019
vn 0.000000 0.927503 -0.373817
vn 0.000000 0.927503 -0.373817
vn 0.000000 0.973695 -0.227854
vn 0.000000 0.973695 -0.227854
vn 0.000000 0.997066 -0.076549
vn 0.000000 0.997066 -0.076549
vn -1.000000 0.000000 0.000000
vn -1.000000 0.000000 0.000000
vn -1.000000 0.000000 0.000000
vn -1.000000 0.000000 0.000000
vn -1.000000 0.000000 0.000000
vn -1.000000 0.000000 -0.000000
vn -1.000000 0.000000 0.000000
vn -1.000000 0.000000 0.000000
vn -1.000000 0.000000 -0.000000
vn -1.000000 0.000000 0.000000
vn -1.000000 0.000000 0.000000
vn -1.000000 0.000000 0.000000
vn -1.000000 0.000000 0.000000
vn -1.000000 0.000000 -0.000000
vn -1.000000 0.000000 0.000000
vn -1.000000 0.000000 -0.000000
vn -1.000000 0.000000 -0.000000
vn -1.000000 0.000000 0.000000
vn -1.000000 0.000000 0.000000
vn -1.000000 0.000000 0.000000
vn -1.000000 0.000000 -0.000000
vn -1.000000 0.000000 0.000000
vn -1.000000 0.000000 0.000000
vn -1.000000 0.000000 0.000000
vn -1.000000 0.000000 0.000000
vn -1.000000 0.000000 -0.000000
vn -1.000000 0.000000 0.000000
vn -1.000000 0.000000 0.000000
vn -1.000000 0.000000 -0.000000
vn -1.000000 0.000000 0.000000
vn -1.000000 0.000000 0.000000
vn -1.000000 0.000000 0.000000
vn -1.000000 0.000000 -0.000000
vn -1.000000 0.000000 0.000000
vn -1.000000 0.000000 0.000000
vn -1.000000 0.000000 -0.000000
vn -1.000000 0.000000 -0.000000
vn -1.000000 0.000000 0.000000
vn -1.000000 0.000000 0.000000
vn -1.000000 0.000000 -0.000000
vn -1.000000 0.000000 -0.000000
vn -1.000000 0.000000 0.000000
vn -1.000000 0.000000 -0.000000
vn -1.000000 0.000000 0.000000
vn -1.000000 0.000000 -0.000000
vn -1.000000 0.000000 0.000000
vn -1.000000 0.000000 0.000000
vn -1.000000 0.000000 -0.000000
vn -1.000000 0.000000 0.000000
vn -1.000000 0.000000 0.000000
vn -1.000000 0.000000 0.000000
vn -1.000000 0.000000 -0.000000
vn -1.000000 0.000000 0.000000
vn -1.000000 0.000000 0.000000
vn -1.000000 0.000000 -0.000000
vn -1.000000 0.000000 0.000000
vn -1.000000 0.000000 0.000000
vn -1.000000 0.000000 0.000000
vn -1.000000 0.000000 -0.000000
vn -1.000000 0.000000 0.000000
vn -1.000000 0.000000 -0.000000
vn -1.000000 0.000000 0.000000
vn -1.000000 0.000000 0.000000
vn -1.000000 0.000000 -0.000000
vn -1.000000 0.000000 0.000000
vn -1.000000 0.000000 0.000000
vn -1.000000 0.000000 -0.000000
vn -1.000000 0.000000 0.000000
vn -1.000000 0.000000 0.000000
vn -1.000000 0.000000 0.000000
vn -1.000000 0.000000 -0.000000
vn -1.000000 0.000000 0.000000
vn -1.000000 0.000000 0.000000
vn -1.000000 0.000000 -0.000000
vn -1.000000 0.000000 0.000000
f 1//1 2//1 3//1
f 1//2 3//2 4//2
f 1//3 4//3 5//3
f 6//4 1//4 5//4
f 7//5 5//5 8//5
f 7//6 8//6 9//6
f 7//7 6//7 5//7
f 10//8 7//8 9//8
f 11//9 9//9 12//9
f 11//10 12//10 13//10
f 11//11 10//11 9//11
f 14//12 13//12 15//12
f 14//13 11//13 13//13
f 16//14 14//14 15//14
f 17//15 16//15 15//15
f 17//16 15//16 18//16
f 19//17 17//17 18//17
f 19//18 18//18 20//18
f 19//19 20//19 21//19
f 22//20 19//20 21//20
f 23//21 22//21 21//21
f 23//22 21//22 24//22
f 23//23 24//23 25//23
f 26//24 23//24 25//24
f 27//25 26//25 25//25
f 27//26 25//26 28//26
f 27//27 28//27 29//27
f 30//28 27//28 29//28
f 31//29 30//29 29//29
f 31//30 29//30 32//30
f 31//31 32//31 33//31
f 34//32 31//32 33//32
f 35//33 34//33 33//33
f 35//34 33//34 36//34
f 37//35 35//35 36//35
f 37//36 36//36 38//36
f 37//37 38//37 39//37
f 40//38 37//38 39//38
f 41//39 39//39 42//39
f 41//40 40//40 39//40
f 43//41 42//41 44//41
f 43//42 41//42 42//42
f 45//43 44//43 46//43
f 45//44 43//44 44//44
f 45//45 46//45 47//45
f 48//46 47//46 49//46
f 48//47 45//47 47//47
f 50//48 48//48 49//48
f 51//49 49//49 52//49
f 51//50 52//50 53//50
f 51//51 50//51 49//51
f 54//52 51//52 53//52
f 55//53 53//53 56//53
f 55//54 54//54 53//54
f 57//55 56//55 58//55
f 57//56 55//56 56//56
f 59//57 58//57 60//57
f 59//58 57//58 58//58
f 61//59 60//59 62//59
f 61//60 62//60 63//60
f 61//61 59//61 60//61
f 64//62 61//62 63//62
f 65//63 64//63 63//63
f 65//64 63//64 66//64
f 67//65 65//65 66//65
f 67//66 66//66 68//66
f 67//67 68//67 3//67
f 2//68 67//68 3//68
f 44//69 69//69 70//69
f 46//70 70//70 71//70
f 46//71 71//71 72//71
f 46//72 44//72 70//72
f 42//73 69//73 44//73
f 42//74 73//74 69//74
f 47//75 72//75 74//75
f 47//76 46//76 72//76
f 39//77 73//77 42//77
f 39//78 75//78 76//78
f 39//79 76//79 73//79
f 49//80 47//80 74//80
f 49//81 74//81 77//81
f 38//82 75//82 39//82
f 38//83 78//83 75//83
f 52//84 49//84 77//84
f 52//85 77//85 79//85
f 52//86 79//86 80//86
f 36//87 78//87 38//87
f 36//88 81//88 78//88
f 53//89 52//89 80//89
f 53//90 80//90 82//90
f 33//91 83//91 81//91
f 33//92 81//92 36//92
f 56//93 82//93 84//93
f 56//94 53//94 82//94
f 32//95 85//95 86//95
f 32//96 86//96 83//96
f 32//97 83//97 33//97
f 58//98 84//98 87//98
f 58//99 87//99 88//99
f 58//100 56//100 84//100
f 29//101 85//101 32//101
f 29//102 89//102 85//102
f 60//103 58//103 88//103
f 90//104 60//104 88//104
f 28//105 89//105 29//105
f 91//106 89//106 28//106
f 62//107 60//107 90//107
f 25//108 91//108 28//108
f 92//109 62//109 90//109
f 93//110 91//110 25//110
f 63//111 62//111 92//111
f 94//112 63//112 92//112
f 95//113 25//113 24//113
f 95//114 93//114 25//114
f 96//115 63//115 94//115
f 96//116 66//116 63//116
f 97//117 24//117 21//117
f 97//118 95//118 24//118
f 98//119 68//119 66//119
f 98//120 66//120 96//120
f 99//121 21//121 20//121
f 99//122 97//122 21//122
f 100//123 3//123 68//123
f 100//124 68//124 98//124
f 101//125 99//125 20//125
f 102//126 3//126 100//126
f 103//127 101//127 20//127
f 103//128 20//128 18//128
f 104//129 4//129 3//129
f 104//130 3//130 102//130
f 105//131 103//131 18//131
f 105//132 18//132 15//132
f 106//133 4//133 104//133
f 106//134 5//134 4//134
f 107//135 105//135 15//135
f 107//136 15//136 13//136
f 108//137 5//137 106//137
f 108//138 8//138 5//138
f 109//139 107//139 13//139
f 110//140 8//140 108//140
f 111//141 13//141 12//141
f 111//142 109//142 13//142
f 112//143 8//143 110//143
f 112//144 9//144 8//144
f 113//145 111//145 12//145
f 113//146 9//146 112//146
f 113//147 12//147 9//147
f 104//148 114//148 115//148
f 104//149 115//149 116//149
f 104//150 102//150 114//150
f 106//151 104//151 116//151
f 108//152 116//152 117//152
f 108//153 106//153 116//153
f 108//154 117//154 118//154
f 110//155 108//155 118//155
f 112//156 118//156 119//156
f 112//157 110//157 118//157
f 113//158 119//158 120//158
f 113//159 112//159 119//159
f 111//160 120//160 121//160
f 111//161 121//161 122//161
f 111//162 113//162 120//162
f 109//163 111//163 122//163
f 107//164 122//164 123//164
f 107//165 109//165 122//165
f 105//166 123//166 124//166
f 105//167 107//167 123//167
f 103//168 124//168 125//168
f 103//169 105//169 124//169
f 101//170 125//170 126//170
f 101//171 126//171 127//171
f 101//172 103//172 125//172
f 99//173 101//173 127//173
f 97//174 127//174 128//174
f 97//175 128//175 129//175
f 97//176 99//176 127//176
f 95//177 129//177 130//177
f 95//178 97//178 129//178
f 93//179 130//179 131//179
f 93//180 95//180 130//180
f 91//181 93//181 131//181
f 89//182 131//182 132//182
f 89//183 132//183 133//183
f 89//184 91//184 131//184
f 85//185 89//185 133//185
f 86//186 133//186 134//186
f 86//187 85//187 133//187
f 83//188 134//188 135//188
f 83//189 86//189 134//189
f 81//190 135//190 136//190
f 81//191 83//191 135//191
f 78//192 136//192 137//192
f 78//193 81//193 136//193
f 75//194 137//194 138//194
f 75//195 78//195 137//195
f 76//196 138//196 139//196
f 76//197 75//197 138//197
f 73//198 139//198 140//198
f 73//199 76//199 139//199
f 69//200 73//200 140//200
f 69//201 140//201 141//201
f 69//202 141//202 142//202
f 70//203 69//203 142//203
f 71//204 70//204 142//204
f 71//205 142//205 143//205
f 72//206 71//206 143//206
f 72//207 143//207 144//207
f 74//208 72//208 144//208
f 74//209 144//209 145//209
f 77//210 74//210 145//210
f 77//211 145//211 146//211
f 79//212 77//212 146//212
f 79//213 146//213 147//213
f 80//214 79//214 147//214
f 80//215 147//215 148//215
f 80//216 148//216 149//216
f 82//217 80//217 149//217
f 84//218 149//218 150//218
f 84//219 82//219 149//219
f 84//220 150//220 151//220
f 87//221 84//221 151//221
f 88//222 151//222 152//222
f 88//223 152//223 153//223
f 88//224 87//224 151//224
f 90//225 88//225 153//225
f 92//226 153//226 154//226
f 92//227 90//227 153//227
f 94//228 154//228 155//228
f 94//229 92//229 154//229
f 96//230 155//230 156//230
f 96//231 156//231 157//231
f 96//232 94//232 155//232
f 98//233 96//233 157//233
f 100//234 157//234 158//234
f 100//235 98//235 157//235
f 102//236 158//236 114//236
f 102//237 100//237 158//237
f 142//238 159//238 160//238
f 143//239 142//239 160//239
f 143//240 160//240 161//240
f 141//241 159//241 142//241
f 141//242 162//242 159//242
f 144//243 161//243 163//243
f 144//244 143//244 161//244
f 144//245 163//245 164//245
f 140//246 165//246 166//246
f 140//247 166//247 162//247
f 140//248 162//248 141//248
f 145//249 144//249 164//249
f 145//250 164//250 167//250
f 139//251 165//251 140//251
f 139//252 168//252 165//252
f 146//253 167//253 169//253
f 146//254 145//254 167//254
f 138//255 168//255 139//255
f 138//256 170//256 168//256
f 147//257 169//257 171//257
f 147//258 146//258 169//258
f 137//259 172//259 170//259
f 137//260 170//260 138//260
f 148//261 171//261 173//261
f 148//262 173//262 174//262
f 148//263 147//263 171//263
f 136//264 175//264 176//264
f 136//265 176//265 172//265
f 136//266 172//266 137//266
f 149//267 174//267 177//267
f 149//268 148//268 174//268
f 135//269 178//269 175//269
f 135//270 175//270 136//270
f 150//271 177//271 179//271
f 150//272 149//272 177//272
f 134//273 180//273 178//273
f 134//274 178//274 135//274
f 151//275 179//275 181//275
f 151//276 150//276 179//276
f 133//277 182//277 180//277
f 133//278 180//278 134//278
f 183//279 182//279 133//279
f 152//280 181//280 184//280
f 152//281 151//281 181//281
f 132//282 183//282 133//282
f 185//283 152//283 184//283
f 186//284 183//284 132//284
f 153//285 152//285 185//285
f 131//286 186//286 132//286
f 187//287 153//287 185//287
f 188//288 186//288 131//288
f 154//289 153//289 187//289
f 130//290 188//290 131//290
f 189//291 154//291 187//291
f 155//292 154//292 189//292
f 190//293 188//293 130//293
f 129//294 190//294 130//294
f 191//295 155//295 189//295
f 192//296 190//296 129//296
f 193//297 155//297 191//297
f 193//298 156//298 155//298
f 194//299 192//299 129//299
f 194//300 129//300 128//300
f 195//301 156//301 193//301
f 195//302 157//302 156//302
f 196//303 194//303 128//303
f 196//304 128//304 127//304
f 197//305 158//305 157//305
f 197//306 157//306 195//306
f 198//307 196//307 127//307
f 198//308 127//308 126//308
f 199//309 114//309 158//309
f 199//310 158//310 197//310
f 200//311 198//311 126//311
f 200//312 126//312 125//312
f 201//313 114//313 199//313
f 202//314 200//314 125//314
f 203//315 115//315 114//315
f 203//316 114//316 201//316
f 204//317 125//317 124//317
f 204//318 202//318 125//318
f 205//319 115//319 203//319
f 205//320 116//320 115//320
f 206//321 124//321 123//321
f 206//322 204//322 124//322
f 207//323 117//323 116//323
f 207//324 116//324 205//324
f 208//325 123//325 122//325
f 208//326 206//326 123//326
f 209//327 118//327 117//327
f 209//328 117//328 207//328
f 210//329 208//329 122//329
f 211//330 118//330 209//330
f 212//331 122//331 121//331
f 212//332 210//332 122//332
f 213//333 119//333 118//333
f 213//334 118//334 211//334
f 214//335 121//335 120//335
f 214//336 212//336 121//336
f 215//337 214//337 120//337
f 215//338 120//338 119//338
f 215//339 119//339 213//339
f 203//340 216//340 217//340
f 203//341 201//341 216//341
f 205//342 217//342 218//342
f 205//343 203//343 217//343
f 207//344 218//344 219//344
f 207//345 205//345 218//345
f 209//346 219//346 220//346
f 209//347 220//347 221//347
f 209//348 207//348 219//348
f 211//349 209//349 221//349
f 213//350 221//350 222//350
f 213//351 211//351 221//351
f 215//352 222//352 223//352
f 215//353 213//353 222//353
f 214//354 223//354 224//354
f 214//355 224//355 225//355
f 214//356 215//356 223//356
f 212//357 214//357 225//357
f 210//358 225//358 226//358
f 210//359 212//359 225//359
f 208//360 226//360 227//360
f 208//361 210//361 226//361
f 206//362 227//362 228//362
f 206//363 208//363 227//363
f 204//364 228//364 229//364
f 204//365 206//365 228//365
f 202//366 229//366 230//366
f 202//367 204//367 229//367
f 200//368 230//368 231//368
f 200//369 202//369 230//369
f 198//370 231//370 232//370
f 198//371 200//371 231//371
f 196//372 232//372 233//372
f 196//373 198//373 232//373
f 194//374 233//374 234//374
f 194//375 196//375 233//375
f 192//376 234//376 235//376
f 192//377 235//377 236//377
f 192//378 194//378 234//378
f 190//379 192//379 236//379
f 188//380 190//380 236//380
f 188//381 236//381 237//381
f 188//382 237//382 238//382
f 186//383 188//383 238//383
f 186//384 238//384 239//384
f 183//385 186//385 239//385
f 182//386 183//386 239//386
f 182//387 239//387 240//387
f 180//388 182//388 240//388
f 180//389 240//389 241//389
f 178//390 180//390 241//390
f 178//391 241//391 242//391
f 175//392 242//392 243//392
f 175//393 178//393 242//393
f 176//394 243//394 244//394
f 176//395 244//395 245//395
f 176//396 175//396 243//396
f 172//397 245//397 246//397
f 172//398 176//398 245//398
f 170//399 172//399 246//399
f 168//400 246//400 247//400
f 168//401 170//401 246//401
f 165//402 247//402 248//402
f 165//403 248//403 249//403
f 165//404 168//404 247//404
f 166//405 165//405 249//405
f 162//406 249//406 250//406
f 162//407 166//407 249//407
f 159//408 250//408 251//408
f 159//409 162//409 250//409
f 160//410 251//410 252//410
f 160//411 159//411 251//411
f 161//412 252//412 253//412
f 161//413 160//413 252//413
f 163//414 253//414 254//414
f 163//415 161//415 253//415
f 164//416 254//416 255//416
f 164//417 163//417 254//417
f 167//418 255//418 256//418
f 167//419 164//419 255//419
f 169//420 256//420 257//420
f 169//421 167//421 256//421
f 171//422 257//422 258//422
f 171//423 169//423 257//423
f 173//424 258//424 259//424
f 173//425 171//425 258//425
f 174//426 259//426 260//426
f 174//427 173//427 259//427
f 177//428 260//428 261//428
f 177//429 174//429 260//429
f 179//430 177//430 261//430
f 179//431 261//431 262//431
f 179//432 262//432 263//432
f 181//433 179//433 263//433
f 184//434 181//434 263//434
f 184//435 263//435 264//435
f 185//436 184//436 264//436
f 185//437 264//437 265//437
f 187//438 185//438 265//438
f 187//439 265//439 266//439
f 189//440 187//440 266//440
f 189//441 266//441 267//441
f 191//442 189//442 267//442
f 191//443 267//443 268//443
f 193//444 191//444 268//444
f 193//445 268//445 269//445
f 195//446 193//446 269//446
f 195//447 269//447 270//447
f 197//448 195//448 270//448
f 197//449 270//449 271//449
f 199//450 197//450 271//450
f 199//451 271//451 272//451
f 201//452 199//452 272//452
f 201//453 272//453 216//453
f 252//454 273//454 274//454
f 251//455 273//455 252//455
f 251//456 275//456 273//456
f 253//457 252//457 274//457
f 253//458 274//458 276//458
f 250//459 275//459 251//459
f 250//460 277//460 275//460
f 254//461 276//461 278//461
f 254//462 253//462 276//462
f 249//463 277//463 250//463
f 249//464 279//464 277//464
f 255//465 278//465 280//465
f 255//466 254//466 278//466
f 248//467 279//467 249//467
f 248//468 281//468 279//468
f 256//469 280//469 282//469
f 256//470 255//470 280//470
f 247//471 283//471 281//471
f 247//472 281//472 248//472
f 257//473 282//473 284//473
f 257//474 256//474 282//474
f 246//475 285//475 283//475
f 246//476 283//476 247//476
f 258//477 284//477 286//477
f 258//478 257//478 284//478
f 245//479 287//479 285//479
f 245//480 285//480 246//480
f 259//481 286//481 288//481
f 259//482 258//482 286//482
f 244//483 287//483 245//483
f 289//484 287//484 244//484
f 260//485 288//485 290//485
f 260//486 259//486 288//486
f 243//487 289//487 244//487
f 291//488 289//488 243//488
f 261//489 290//489 292//489
f 261//490 260//490 290//490
f 242//491 291//491 243//491
f 293//492 291//492 242//492
f 262//493 292//493 294//493
f 262//494 261//494 292//494
f 241//495 293//495 242//495
f 295//496 293//496 241//496
f 263//497 262//497 294//497
f 263//498 294//498 296//498
f 240//499 295//499 241//499
f 297//500 295//500 240//500
f 264//501 263//501 296//501
f 298//502 264//502 296//502
f 239//503 297//503 240//503
f 299//504 297//504 239//504
f 265//505 264//505 298//505
f 300//506 265//506 298//506
f 238//507 299//507 239//507
f 301//508 299//508 238//508
f 266//509 265//509 300//509
f 302//510 266//510 300//510
f 237//511 301//511 238//511
f 303//512 301//512 237//512
f 267//513 266//513 302//513
f 304//514 267//514 302//514
f 236//515 303//515 237//515
f 305//516 303//516 236//516
f 268//517 267//517 304//517
f 306//518 268//518 304//518
f 235//519 305//519 236//519
f 307//520 305//520 235//520
f 269//521 268//521 306//521
f 234//522 307//522 235//522
f 308//523 269//523 306//523
f 309//524 307//524 234//524
f 270//525 269//525 308//525
f 233//526 309//526 234//526
f 310//527 270//527 308//527
f 311//528 309//528 233//528
f 271//529 270//529 310//529
f 232//530 311//530 233//530
f 312//531 271//531 310//531
f 313//532 311//532 232//532
f 272//533 271//533 312//533
f 231//534 313//534 232//534
f 314//535 272//535 312//535
f 216//536 272//536 314//536
f 315//537 313//537 231//537
f 230//538 315//538 231//538
f 316//539 216//539 314//539
f 317//540 315//540 230//540
f 229//541 317//541 230//541
f 318//542 217//542 216//542
f 318//543 216//543 316//543
f 319//544 229//544 228//544
f 319//545 317//545 229//545
f 320//546 218//546 217//546
f 320//547 217//547 318//547
f 321//548 319//548 228//548
f 321//549 228//549 227//549
f 322//550 218//550 320//550
f 322//551 219//551 218//551
f 323//552 321//552 227//552
f 323//553 227//553 226//553
f 324//554 219//554 322//554
f 324//555 220//555 219//555
f 325//556 323//556 226//556
f 325//557 226//557 225//557
f 326//558 220//558 324//558
f 326//559 221//559 220//559
f 327//560 325//560 225//560
f 327//561 225//561 224//561
f 328//562 221//562 326//562
f 328//563 222//563 221//563
f 329//564 327//564 224//564
f 329//565 224//565 223//565
f 330//566 222//566 328//566
f 330//567 329//567 223//567
f 330//568 223//568 222//568
f 318//569 331//569 332//569
f 318//570 332//570 333//570
f 318//571 316//571 331//571
f 320//572 318//572 333//572
f 322//573 333//573 334//573
f 322//574 320//574 333//574
f 324//575 334//575 335//575
f 324//576 322//576 334//576
f 326//577 335//577 336//577
f 326//578 324//578 335//578
f 328//579 336//579 337//579
f 328//580 326//580 336//580
f 330//581 337//581 338//581
f 330//582 328//582 337//582
f 329//583 338//583 339//583
f 329//584 330//584 338//584
f 327//585 339//585 340//585
f 327//586 340//586 341//586
f 327//587 329//587 339//587
f 325//588 327//588 341//588
f 323//589 341//589 342//589
f 323//590 325//590 341//590
f 321//591 342//591 343//591
f 321//592 323//592 342//592
f 319//593 343//593 344//593
f 319//594 321//594 343//594
f 317//595 344//595 345//595
f 317//596 319//596 344//596
f 315//597 345//597 346//597
f 315//598 317//598 345//598
f 313//599 346//599 347//599
f 313//600 315//600 346//600
f 311//601 347//601 348//601
f 311//602 313//602 347//602
f 309//603 348//603 349//603
f 309//604 311//604 348//604
f 307//605 349//605 350//605
f 307//606 309//606 349//606
f 305//607 350//607 351//607
f 305//608 307//608 350//608
f 303//609 305//609 351//609
f 303//610 351//610 352//610
f 301//611 303//611 352//611
f 301//612 352//612 353//612
f 299//613 301//613 353//613
f 299//614 353//614 354//614
f 297//615 299//615 354//615
f 297//616 354//616 355//616
f 295//617 297//617 355//617
f 295//618 355//618 356//618
f 293//619 356//619 357//619
f 293//620 295//620 356//620
f 291//621 357//621 358//621
f 291//622 293//622 357//622
f 289//623 358//623 359//623
f 289//624 291//624 358//624
f 287//625 359//625 360//625
f 287//626 289//626 359//626
f 285//627 360//627 361//627
f 285//628 287//628 360//628
f 283//629 361//629 362//629
f 283//630 285//630 361//630
f 281//631 362//631 363//631
f 281//632 283//632 362//632
f 279//633 363//633 364//633
f 279//634 364//634 365//634
f 279//635 281//635 363//635
f 277//636 279//636 365//636
f 275//637 365//637 366//637
f 275//638 366//638 367//638
f 275//639 277//639 365//639
f 273//640 275//640 367//640
f 274//641 367//641 368//641
f 274//642 273//642 367//642
f 276//643 368//643 369//643
f 276//644 274//644 368//644
f 278//645 369//645 370//645
f 278//646 370//646 371//646
f 278//647 276//647 369//647
f 280//648 278//648 371//648
f 282//649 371//649 372//649
f 282//650 280//650 371//650
f 284//651 372//651 373//651
f 284//652 282//652 372//652
f 286//653 373//653 374//653
f 286//654 284//654 373//654
f 288//655 374//655 375//655
f 288//656 286//656 374//656
f 290//657 288//657 375//657
f 290//658 375//658 376//658
f 292//659 290//659 376//659
f 292//660 376//660 377//660
f 294//661 292//661 377//661
f 294//662 377//662 378//662
f 296//663 294//663 378//663
f 296//664 378//664 379//664
f 298//665 296//665 379//665
f 298//666 379//666 380//666
f 300//667 298//667 380//667
f 300//668 380//668 381//668
f 302//669 300//669 381//669
f 302//670 381//670 382//670
f 302//671 382//671 383//671
f 304//672 302//672 383//672
f 306//673 304//673 383//673
f 306//674 383//674 384//674
f 308//675 306//675 384//675
f 308//676 384//676 385//676
f 310//677 308//677 385//677
f 310//678 385//678 386//678
f 310//679 386//679 387//679
f 312//680 310//680 387//680
f 314//681 312//681 387//681
f 314//682 387//682 388//682
f 316//683 314//683 388//683
f 316//684 388//684 331//684
f 389//685 382//685 381//685
f 389//686 383//686 382//686
f 390//687 389//687 381//687
f 390//688 381//688 380//688
f 391//689 383//689 389//689
f 391//690 384//690 383//690
f 392//691 390//691 380//691
f 392//692 379//692 378//692
f 392//693 380//693 379//693
f 393//694 384//694 391//694
f 393//695 385//695 384//695
f 394//696 378//696 377//696
f 394//697 392//697 378//697
f 395//698 385//698 393//698
f 395//699 386//699 385//699
f 395//700 387//700 386//700
f 396//701 394//701 377//701
f 396//702 377//702 376//702
f 397//703 388//703 387//703
f 397//704 387//704 395//704
f 398//705 396//705 376//705
f 398//706 375//706 374//706
f 398//707 376//707 375//707
f 399//708 332//708 331//708
f 399//709 331//709 388//709
f 399//710 388//710 397//710
f 400//711 398//711 374//711
f 400//712 374//712 373//712
f 401//713 333//713 332//713
f 401//714 332//714 399//714
f 402//715 372//715 371//715
f 402//716 373//716 372//716
f 402//717 400//717 373//717
f 403//718 334//718 333//718
f 403//719 335//719 334//719
f 403//720 333//720 401//720
f 404//721 371//721 370//721
f 404//722 402//722 371//722
f 405//723 336//723 335//723
f 405//724 335//724 403//724
f 406//725 370//725 369//725
f 406//726 404//726 370//726
f 407//727 337//727 336//727
f 407//728 336//728 405//728
f 368//729 406//729 369//729
f 408//730 406//730 368//730
f 409//731 338//731 337//731
f 409//732 337//732 407//732
f 367//733 408//733 368//733
f 410//734 408//734 367//734
f 339//735 409//735 411//735
f 339//736 338//736 409//736
f 366//737 412//737 410//737
f 366//738 410//738 367//738
f 340//739 339//739 411//739
f 340//740 411//740 413//740
f 365//741 412//741 366//741
f 341//742 340//742 413//742
f 364//743 412//743 365//743
f 364//744 414//744 412//744
f 342//745 341//745 413//745
f 342//746 413//746 415//746
f 363//747 414//747 364//747
f 363//748 416//748 414//748
f 343//749 342//749 415//749
f 343//750 415//750 417//750
f 362//751 416//751 363//751
f 344//752 343//752 417//752
f 344//753 417//753 418//753
f 361//754 416//754 362//754
f 361//755 419//755 416//755
f 345//756 344//756 418//756
f 360//757 419//757 361//757
f 360//758 420//758 419//758
f 346//759 345//759 418//759
f 346//760 418//760 421//760
f 359//761 420//761 360//761
f 359//762 422//762 420//762
f 347//763 346//763 421//763
f 347//764 421//764 423//764
f 358//765 422//765 359//765
f 348//766 347//766 423//766
f 357//767 422//767 358//767
f 357//768 424//768 422//768
f 349//769 348//769 423//769
f 349//770 423//770 425//770
f 356//771 426//771 424//771
f 356//772 424//772 357//772
f 350//773 425//773 427//773
f 350//774 349//774 425//774
f 355//775 426//775 356//775
f 351//776 350//776 427//776
f 354//777 428//777 426//777
f 354//778 426//778 355//778
f 352//779 427//779 429//779
f 352//780 351//780 427//780
f 353//781 428//781 354//781
f 353//782 429//782 428//782
f 353//783 352//783 429//783
f 401//784 430//784 431//784
f 401//785 399//785 430//785
f 403//786 431//786 432//786
f 403//787 432//787 433//787
f 403//788 401//788 431//788
f 405//789 403//789 433//789
f 407//790 433//790 434//790
f 407//791 434//791 435//791
f 407//792 405//792 433//792
f 409//793 407//793 435//793
f 411//794 435//794 436//794
f 411//795 409//795 435//795
f 413//796 436//796 437//796
f 413//797 411//797 436//797
f 415//798 437//798 438//798
f 415//799 438//799 439//799
f 415//800 413//800 437//800
f 417//801 415//801 439//801
f 418//802 439//802 440//802
f 418//803 417//803 439//803
f 421//804 440//804 441//804
f 421//805 418//805 440//805
f 423//806 441//806 442//806
f 423//807 421//807 441//807
f 425//808 442//808 443//808
f 425//809 423//809 442//809
f 427//810 443//810 444//810
f 427//811 425//811 443//811
f 429//812 444//812 445//812
f 429//813 445//813 446//813
f 429//814 427//814 444//814
f 428//815 429//815 446//815
f 426//816 446//816 447//816
f 426//817 428//817 446//817
f 424//818 447//818 448//818
f 424//819 448//819 449//819
f 424//820 426//820 447//820
f 422//821 424//821 449//821
f 420//822 449//822 450//822
f 420//823 422//823 449//823
f 419//824 450//824 451//824
f 419//825 420//825 450//825
f 416//826 451//826 452//826
f 416//827 419//827 451//827
f 414//828 452//828 453//828
f 414//829 416//829 452//829
f 412//830 453//830 454//830
f 412//831 414//831 453//831
f 410//832 454//832 455//832
f 410//833 412//833 454//833
f 408//834 455//834 456//834
f 408//835 410//835 455//835
f 406//836 456//836 457//836
f 406//837 408//837 456//837
f 404//838 457//838 458//838
f 404//839 406//839 457//839
f 402//840 404//840 458//840
f 402//841 458//841 459//841
f 400//842 402//842 459//842
f 400//843 459//843 460//843
f 398//844 400//844 460//844
f 398//845 460//845 461//845
f 396//846 398//846 461//846
f 396//847 461//847 462//847
f 394//848 396//848 462//848
f 394//849 462//849 463//849
f 392//850 394//850 463//850
f 392//851 463//851 464//851
f 390//852 392//852 464//852
f 390//853 464//853 465//853
f 389//854 390//854 465//854
f 389//855 465//855 466//855
f 391//856 389//856 466//856
f 391//857 466//857 467//857
f 393//858 391//858 467//858
f 393//859 467//859 468//859
f 395//860 468//860 469//860
f 395//861 393//861 468//861
f 397//862 469//862 470//862
f 397//863 395//863 469//863
f 399//864 470//864 430//864
f 399//865 397//865 470//865
f 61//866 467//866 466//866
f 59//867 465//867 464//867
f 59//868 466//868 465//868
f 59//869 61//869 466//869
f 64//870 468//870 467//870
f 64//871 467//871 61//871
f 57//872 464//872 463//872
f 57//873 59//873 464//873
f 65//874 468//874 64//874
f 65//875 469//875 468//875
f 55//876 463//876 462//876
f 55//877 57//877 463//877
f 67//878 470//878 469//878
f 67//879 469//879 65//879
f 54//880 55//880 462//880
f 54//881 462//881 461//881
f 2//882 470//882 67//882
f 2//883 431//883 430//883
f 2//884 430//884 470//884
f 51//885 54//885 461//885
f 51//886 461//886 460//886
f 1//887 432//887 431//887
f 1//888 431//888 2//888
f 50//889 51//889 460//889
f 50//890 459//890 458//890
f 50//891 460//891 459//891
f 6//892 433//892 432//892
f 6//893 432//893 1//893
f 48//894 50//894 458//894
f 457//895 48//895 458//895
f 7//896 434//896 433//896
f 7//897 433//897 6//897
f 45//898 48//898 457//898
f 456//899 45//899 457//899
f 10//900 434//900 7//900
f 435//901 434//901 10//901
f 43//902 45//902 456//902
f 11//903 435//903 10//903
f 455//904 43//904 456//904
f 436//905 435//905 11//905
f 41//906 43//906 455//906
f 454//907 41//907 455//907
f 40//908 41//908 454//908
f 437//909 11//909 14//909
f 437//910 436//910 11//910
f 453//911 40//911 454//911
f 438//912 14//912 16//912
f 438//913 437//913 14//913
f 452//914 37//914 40//914
f 452//915 40//915 453//915
f 439//916 16//916 17//916
f 439//917 438//917 16//917
f 451//918 35//918 37//918
f 451//919 37//919 452//919
f 440//920 17//920 19//920
f 440//921 439//921 17//921
f 450//922 34//922 35//922
f 450//923 35//923 451//923
f 441//924 19//924 22//924
f 441//925 440//925 19//925
f 449//926 34//926 450//926
f 449//927 31//927 34//927
f 442//928 441//928 22//928
f 448//929 31//929 449//929
f 443//930 442//930 22//930
f 443//931 22//931 23//931
f 447//932 31//932 448//932
f 447//933 30//933 31//933
f 444//934 443//934 23//934
f 444//935 23//935 26//935
f 446//936 30//936 447//936
f 446//937 27//937 30//937
f 445//938 444//938 26//938
f 445//939 27//939 446//939
f 445//940 26//940 27//940
