# Created by FreeCAD <https://www.freecad.org>
v 0.000000 19.805361 2.783462
v 0.000000 20.000000 0.000000
v 80.000000 20.000000 0.000000
v 80.000000 19.805361 2.783462
v 80.000000 19.225233 5.512747
v 0.000000 19.225233 5.512747
v 0.000000 18.270908 8.134733
v 80.000000 18.270908 8.134733
v 80.000000 16.960962 10.598385
v 0.000000 16.960962 10.598385
v 0.000000 15.320889 12.855752
v 80.000000 15.320889 12.855752
v 0.000000 13.382612 14.862897
v 80.000000 13.382612 14.862897
v 0.000000 11.183858 16.580751
v 80.000000 11.183858 16.580751
v 80.000000 8.767423 17.975882
v 0.000000 8.767423 17.975882
v 0.000000 6.180340 19.021130
v 80.000000 6.180340 19.021130
v 0.000000 3.472964 19.696156
v 80.000000 3.472964 19.696156
v 0.000000 0.697990 19.987816
v 80.000000 0.697990 19.987816
v 0.000000 -2.090569 19.890438
v 80.000000 -2.090569 19.890438
v 80.000000 -4.838438 19.405914
v 0.000000 -4.838438 19.405914
v 0.000000 -7.492132 18.543676
v 80.000000 -7.492132 18.543676
v 80.000000 -10.000000 17.320509
v 0.000000 -10.000000 17.320509
v 80.000000 -12.313230 15.760215
v 0.000000 -12.313230 15.760215
v 80.000000 -14.386796 13.893167
v 0.000000 -14.386796 13.893167
v 0.000000 -16.180340 11.755705
v 80.000000 -16.180340 11.755705
v 80.000000 -17.658953 9.389431
v 0.000000 -17.658953 9.389431
v 0.000000 -18.793852 6.840403
v 80.000000 -18.793852 6.840403
v 0.000000 -19.562952 4.158234
v 80.000000 -19.562952 4.158234
v 0.000000 -19.951281 1.395129
v 80.000000 -19.951281 1.395129
v 0.000000 -19.951281 -1.395129
v 80.000000 -19.951281 -1.395129
v 0.000000 -19.562952 -4.158234
v 80.000000 -19.562952 -4.158234
v 0.000000 -18.793852 -6.840403
v 80.000000 -18.793852 -6.840403
v 0.000000 -17.658953 -9.389431
v 80.000000 -17.658953 -9.389431
v 0.000000 -16.180340 -11.755705
v 80.000000 -16.180340 -11.755705
v 80.000000 -14.386796 -13.893167
v 0.000000 -14.386796 -13.893167
v 0.000000 -12.313230 -15.760215
v 80.000000 -12.313230 -15.760215
v 0.000000 -10.000000 -17.320509
v 80.000000 -10.000000 -17.320509
v 0.000000 -7.492132 -18.543676
v 80.000000 -7.492132 -18.543676
v 0.000000 -4.838438 -19.405914
v 80.000000 -4.838438 -19.405914
v 0.000000 -2.090569 -19.890438
v 80.000000 -2.090569 -19.890438
v 0.000000 0.697990 -19.987816
v 80.000000 0.697990 -19.987816
v 80.000000 3.472964 -19.696156
v 0.000000 3.472964 -19.696156
v 0.000000 6.180340 -19.021130
v 80.000000 6.180340 -19.021130
v 80.000000 8.767423 -17.975882
v 0.000000 8.767423 -17.975882
v 0.000000 11.183858 -16.580751
v 80.000000 11.183858 -16.580751
v 80.000000 13.382612 -14.862897
v 0.000000 13.382612 -14.862897
v 0.000000 15.320889 -12.855752
v 80.000000 15.320889 -12.855752
v 0.000000 16.960962 -10.598385
v 80.000000 16.960962 -10.598385
v 0.000000 18.270908 -8.134733
v 80.000000 18.270908 -8.134733
v 80.000000 19.225233 -5.512747
v 0.000000 19.225233 -5.512747
v 0.000000 19.805361 -2.783462
v 80.000000 19.805361 -2.783462
v 80.000000 -29.322075 -27.206909
v 80.000000 -26.467434 -29.991247
v 80.000000 -23.349747 -32.477520
v 80.000000 -34.131634 -20.857409
v 80.000000 -31.885300 -24.152176
v 80.000000 -20.000000 -34.641018
v 80.000000 -16.451485 -36.460236
v 80.000000 -36.038754 -17.355350
v 80.000000 -12.739466 -37.917095
v 80.000000 -38.763092 -9.870296
v 80.000000 -37.587704 -13.680806
v 80.000000 -8.900837 -38.997116
v 80.000000 -4.973748 -39.689568
v 80.000000 -39.553234 -5.961690
v 80.000000 -0.997228 -39.987568
v 80.000000 -39.950275 -1.993835
v 80.000000 2.989204 -39.888153
v 80.000000 -39.553234 5.961690
v 80.000000 -39.950275 1.993835
v 80.000000 6.945927 -39.392311
v 80.000000 10.833619 -38.504971
v 80.000000 -38.763092 9.870296
v 80.000000 14.613641 -37.234951
v 80.000000 -36.038754 17.355350
v 80.000000 -37.587704 13.680806
v 80.000000 18.248426 -35.594872
v 80.000000 21.701851 -33.601036
v 80.000000 -34.131634 20.857409
v 80.000000 24.939592 -31.273260
v 80.000000 -31.885300 24.152176
v 80.000000 27.929472 -28.634674
v 80.000000 -29.322075 27.206909
v 80.000000 -26.467434 29.991247
v 80.000000 30.641777 -25.711504
v 80.000000 -23.349747 32.477520
v 80.000000 33.049549 -22.532803
v 80.000000 -20.000000 34.641018
v 80.000000 35.128864 -19.130159
v 80.000000 -16.451485 36.460236
v 80.000000 36.859047 -15.537392
v 80.000000 -12.739466 37.917095
v 80.000000 38.222912 -11.790207
v 80.000000 -8.900837 38.997116
v 80.000000 39.206898 -7.925846
v 80.000000 -4.973748 39.689568
v 80.000000 39.801231 -3.982714
v 80.000000 -0.997228 39.987568
v 80.000000 40.000000 0.000000
v 80.000000 2.989204 39.888153
v 80.000000 39.801231 3.982714
v 80.000000 6.945927 39.392311
v 80.000000 39.206898 7.925846
v 80.000000 10.833619 38.504971
v 80.000000 38.222912 11.790207
v 80.000000 14.613641 37.234951
v 80.000000 36.859047 15.537392
v 80.000000 18.248426 35.594872
v 80.000000 35.128864 19.130159
v 80.000000 21.701851 33.601036
v 80.000000 33.049549 22.532803
v 80.000000 24.939592 31.273260
v 80.000000 30.641777 25.711504
v 80.000000 27.929472 28.634674
v 60.000000 40.000000 0.000000
v 60.000000 39.801231 3.982714
v 60.000000 39.206898 7.925846
v 60.000000 38.222912 11.790207
v 60.000000 36.859047 15.537392
v 60.000000 35.128864 19.130159
v 60.000000 33.049549 22.532803
v 60.000000 30.641777 25.711504
v 60.000000 27.929472 28.634674
v 60.000000 24.939592 31.273260
v 60.000000 21.701851 33.601036
v 60.000000 18.248426 35.594872
v 60.000000 14.613641 37.234951
v 60.000000 10.833619 38.504971
v 60.000000 6.945927 39.392311
v 60.000000 2.989204 39.888153
v 60.000000 -0.997228 39.987568
v 60.000000 -4.973748 39.689568
v 60.000000 -8.900837 38.997116
v 60.000000 -12.739466 37.917095
v 60.000000 -16.451485 36.460236
v 60.000000 -20.000000 34.641018
v 60.000000 -23.349747 32.477520
v 60.000000 -26.467434 29.991247
v 60.000000 -29.322075 27.206909
v 60.000000 -31.885300 24.152176
v 60.000000 -34.131634 20.857409
v 60.000000 -36.038754 17.355350
v 60.000000 -37.587704 13.680806
v 60.000000 -38.763092 9.870296
v 60.000000 -39.553234 5.961690
v 60.000000 -39.950275 1.993835
v 60.000000 -39.950275 -1.993835
v 60.000000 -39.553234 -5.961690
v 60.000000 -38.763092 -9.870296
v 60.000000 -37.587704 -13.680806
v 60.000000 -36.038754 -17.355350
v 60.000000 -34.131634 -20.857409
v 60.000000 -31.885300 -24.152176
v 60.000000 -29.322075 -27.206909
v 60.000000 -26.467434 -29.991247
v 60.000000 -23.349747 -32.477520
v 60.000000 -20.000000 -34.641018
v 60.000000 -16.451485 -36.460236
v 60.000000 -12.739466 -37.917095
v 60.000000 -8.900837 -38.997116
v 60.000000 -4.973748 -39.689568
v 60.000000 -0.997228 -39.987568
v 60.000000 2.989204 -39.888153
v 60.000000 6.945927 -39.392311
v 60.000000 10.833619 -38.504971
v 60.000000 14.613641 -37.234951
v 60.000000 18.248426 -35.594872
v 60.000000 21.701851 -33.601036
v 60.000000 24.939592 -31.273260
v 60.000000 27.929472 -28.634674
v 60.000000 30.641777 -25.711504
v 60.000000 33.049549 -22.532803
v 60.000000 35.128864 -19.130159
v 60.000000 36.859047 -15.537392
v 60.000000 38.222912 -11.790207
v 60.000000 39.206898 -7.925846
v 60.000000 39.801231 -3.982714
v 60.000000 -45.770149 -35.624336
v 60.000000 -42.671986 -39.282330
v 60.000000 -39.282330 -42.671986
v 60.000000 -35.624336 -45.770149
v 60.000000 -48.555656 -31.722994
v 60.000000 -31.722994 -48.555656
v 60.000000 -51.009476 -27.604948
v 60.000000 -27.604948 -51.009476
v 60.000000 -53.114853 -23.298334
v 60.000000 -23.298334 -53.114853
v 60.000000 -54.857399 -18.832569
v 60.000000 -18.832569 -54.857399
v 60.000000 -14.238158 -56.225216
v 60.000000 -57.208954 -9.546486
v 60.000000 -56.225216 -14.238158
v 60.000000 -9.546486 -57.208954
v 60.000000 -57.801899 -4.789602
v 60.000000 -4.789602 -57.801899
v 60.000000 -58.000000 0.000000
v 60.000000 -0.000000 -58.000000
v 60.000000 -57.801899 4.789602
v 60.000000 4.789602 -57.801899
v 60.000000 9.546486 -57.208954
v 60.000000 -57.208954 9.546486
v 60.000000 14.238158 -56.225216
v 60.000000 -54.857399 18.832569
v 60.000000 -56.225216 14.238158
v 60.000000 18.832569 -54.857399
v 60.000000 -53.114853 23.298334
v 60.000000 23.298334 -53.114853
v 60.000000 -51.009476 27.604948
v 60.000000 27.604948 -51.009476
v 60.000000 -48.555656 31.722994
v 60.000000 31.722994 -48.555656
v 60.000000 35.624336 -45.770149
v 60.000000 -45.770149 35.624336
v 60.000000 39.282330 -42.671986
v 60.000000 -42.671986 39.282330
v 60.000000 42.671986 -39.282330
v 60.000000 -39.282330 42.671986
v 60.000000 45.770149 -35.624336
v 60.000000 -35.624336 45.770149
v 60.000000 48.555656 -31.722994
v 60.000000 -31.722994 48.555656
v 60.000000 -27.604948 51.009476
v 60.000000 51.009476 -27.604948
v 60.000000 53.114853 -23.298334
v 60.000000 -23.298334 53.114853
v 60.000000 -18.832569 54.857399
v 60.000000 54.857399 -18.832569
v 60.000000 -14.238158 56.225216
v 60.000000 56.225216 -14.238158
v 60.000000 -9.546486 57.208954
v 60.000000 57.208954 -9.546486
v 60.000000 -4.789602 57.801899
v 60.000000 57.801899 -4.789602
v 60.000000 58.000000 0.000000
v 60.000000 0.000000 58.000000
v 60.000000 4.789602 57.801899
v 60.000000 57.801899 4.789602
v 60.000000 9.546486 57.208954
v 60.000000 57.208954 9.546486
v 60.000000 14.238158 56.225216
v 60.000000 56.225216 14.238158
v 60.000000 18.832569 54.857399
v 60.000000 54.857399 18.832569
v 60.000000 53.114853 23.298334
v 60.000000 23.298334 53.114853
v 60.000000 51.009476 27.604948
v 60.000000 27.604948 51.009476
v 60.000000 48.555656 31.722994
v 60.000000 31.722994 48.555656
v 60.000000 45.770149 35.624336
v 60.000000 35.624336 45.770149
v 60.000000 42.671986 39.282330
v 60.000000 39.282330 42.671986
v 45.000000 58.000000 0.000000
v 45.000000 57.801899 4.789602
v 45.000000 57.208954 9.546486
v 45.000000 56.225216 14.238158
v 45.000000 54.857399 18.832569
v 45.000000 53.114853 23.298334
v 45.000000 51.009476 27.604948
v 45.000000 48.555656 31.722994
v 45.000000 45.770149 35.624336
v 45.000000 42.671986 39.282330
v 45.000000 39.282330 42.671986
v 45.000000 35.624336 45.770149
v 45.000000 31.722994 48.555656
v 45.000000 27.604948 51.009476
v 45.000000 23.298334 53.114853
v 45.000000 18.832569 54.857399
v 45.000000 14.238158 56.225216
v 45.000000 9.546486 57.208954
v 45.000000 4.789602 57.801899
v 45.000000 0.000000 58.000000
v 45.000000 -4.789602 57.801899
v 45.000000 -9.546486 57.208954
v 45.000000 -14.238158 56.225216
v 45.000000 -18.832569 54.857399
v 45.000000 -23.298334 53.114853
v 45.000000 -27.604948 51.009476
v 45.000000 -31.722994 48.555656
v 45.000000 -35.624336 45.770149
v 45.000000 -39.282330 42.671986
v 45.000000 -42.671986 39.282330
v 45.000000 -45.770149 35.624336
v 45.000000 -48.555656 31.722994
v 45.000000 -51.009476 27.604948
v 45.000000 -53.114853 23.298334
v 45.000000 -54.857399 18.832569
v 45.000000 -56.225216 14.238158
v 45.000000 -57.208954 9.546486
v 45.000000 -57.801899 4.789602
v 45.000000 -58.000000 0.000000
v 45.000000 -57.801899 -4.789602
v 45.000000 -57.208954 -9.546486
v 45.000000 -56.225216 -14.238158
v 45.000000 -54.857399 -18.832569
v 45.000000 -53.114853 -23.298334
v 45.000000 -51.009476 -27.604948
v 45.000000 -48.555656 -31.722994
v 45.000000 -45.770149 -35.624336
v 45.000000 -42.671986 -39.282330
v 45.000000 -39.282330 -42.671986
v 45.000000 -35.624336 -45.770149
v 45.000000 -31.722994 -48.555656
v 45.000000 -27.604948 -51.009476
v 45.000000 -23.298334 -53.114853
v 45.000000 -18.832569 -54.857399
v 45.000000 -14.238158 -56.225216
v 45.000000 -9.546486 -57.208954
v 45.000000 -4.789602 -57.801899
v 45.000000 -0.000000 -58.000000
v 45.000000 4.789602 -57.801899
v 45.000000 9.546486 -57.208954
v 45.000000 14.238158 -56.225216
v 45.000000 18.832569 -54.857399
v 45.000000 23.298334 -53.114853
v 45.000000 27.604948 -51.009476
v 45.000000 31.722994 -48.555656
v 45.000000 35.624336 -45.770149
v 45.000000 39.282330 -42.671986
v 45.000000 42.671986 -39.282330
v 45.000000 45.770149 -35.624336
v 45.000000 48.555656 -31.722994
v 45.000000 51.009476 -27.604948
v 45.000000 53.114853 -23.298334
v 45.000000 54.857399 -18.832569
v 45.000000 56.225216 -14.238158
v 45.000000 57.208954 -9.546486
v 45.000000 57.801899 -4.789602
v 45.000000 -42.856941 -41.991459
v 45.000000 -39.291645 -45.344975
v 45.000000 -46.137032 -38.358498
v 45.000000 -35.464867 -48.396725
v 45.000000 -49.110088 -34.470264
v 45.000000 -31.402079 -51.126408
v 45.000000 -51.756325 -30.352642
v 45.000000 -27.130314 -53.515850
v 45.000000 -54.058132 -26.033024
v 45.000000 -22.678001 -55.549152
v 45.000000 -56.000191 -21.540161
v 45.000000 -18.074772 -57.212784
v 45.000000 -57.569580 -16.903954
v 45.000000 -13.351256 -58.495674
v 45.000000 -58.755848 -12.155252
v 45.000000 -8.538890 -59.389286
v 45.000000 -59.551109 -7.325659
v 45.000000 -3.669700 -59.887672
v 45.000000 -59.950069 -2.447315
v 45.000000 1.223912 -59.987514
v 45.000000 -59.950069 2.447315
v 45.000000 6.109379 -59.688152
v 45.000000 -59.551109 7.325659
v 45.000000 10.954189 -58.991573
v 45.000000 -58.755848 12.155252
v 45.000000 15.726101 -57.902416
v 45.000000 -57.569580 16.903954
v 45.000000 20.393358 -56.427925
v 45.000000 -56.000191 21.540161
v 45.000000 24.924900 -54.577919
v 45.000000 -54.058132 26.033024
v 45.000000 29.290573 -52.364704
v 45.000000 -51.756325 30.352642
v 45.000000 33.461319 -49.803013
v 45.000000 -49.110088 34.470264
v 45.000000 37.409389 -46.909889
v 45.000000 -46.137032 38.358498
v 45.000000 41.108501 -43.704586
v 45.000000 -42.856941 41.991459
v 45.000000 44.534046 -40.208439
v 45.000000 -39.291645 45.344975
v 45.000000 47.663223 -36.444710
v 45.000000 -35.464867 48.396725
v 45.000000 50.475212 -32.438450
v 45.000000 -31.402079 51.126408
v 45.000000 52.951294 -28.216314
v 45.000000 -27.130314 53.515850
v 45.000000 55.074997 -23.806404
v 45.000000 -22.678001 55.549152
v 45.000000 56.832180 -19.238068
v 45.000000 -18.074772 57.212784
v 45.000000 58.211159 -14.541704
v 45.000000 -13.351256 58.495674
v 45.000000 59.202747 -9.748569
v 45.000000 -8.538890 59.389286
v 45.000000 59.800354 -4.890557
v 45.000000 -3.669700 59.887672
v 45.000000 60.000000 0.000000
v 45.000000 1.223912 59.987514
v 45.000000 59.800354 4.890557
v 45.000000 6.109379 59.688152
v 45.000000 59.202747 9.748569
v 45.000000 10.954189 58.991573
v 45.000000 58.211159 14.541704
v 45.000000 15.726101 57.902416
v 45.000000 56.832180 19.238068
v 45.000000 20.393358 56.427925
v 45.000000 55.074997 23.806404
v 45.000000 24.924900 54.577919
v 45.000000 52.951294 28.216314
v 45.000000 29.290573 52.364704
v 45.000000 50.475212 32.438450
v 45.000000 33.461319 49.803013
v 45.000000 47.663223 36.444710
v 45.000000 37.409389 46.909889
v 45.000000 44.534046 40.208439
v 45.000000 41.108501 43.704586
v 25.000000 60.000000 0.000000
v 25.000000 59.800354 4.890557
v 25.000000 59.202747 9.748569
v 25.000000 58.211159 14.541704
v 25.000000 56.832180 19.238068
v 25.000000 55.074997 23.806404
v 25.000000 52.951294 28.216314
v 25.000000 50.475212 32.438450
v 25.000000 47.663223 36.444710
v 25.000000 44.534046 40.208439
v 25.000000 41.108501 43.704586
v 25.000000 37.409389 46.909889
v 25.000000 33.461319 49.803013
v 25.000000 29.290573 52.364704
v 25.000000 24.924900 54.577919
v 25.000000 20.393358 56.427925
v 25.000000 15.726101 57.902416
v 25.000000 10.954189 58.991573
v 25.000000 6.109379 59.688152
v 25.000000 1.223912 59.987514
v 25.000000 -3.669700 59.887672
v 25.000000 -8.538890 59.389286
v 25.000000 -13.351256 58.495674
v 25.000000 -18.074772 57.212784
v 25.000000 -22.678001 55.549152
v 25.000000 -27.130314 53.515850
v 25.000000 -31.402079 51.126408
v 25.000000 -35.464867 48.396725
v 25.000000 -39.291645 45.344975
v 25.000000 -42.856941 41.991459
v 25.000000 -46.137032 38.358498
v 25.000000 -49.110088 34.470264
v 25.000000 -51.756325 30.352642
v 25.000000 -54.058132 26.033024
v 25.000000 -56.000191 21.540161
v 25.000000 -57.569580 16.903954
v 25.000000 -58.755848 12.155252
v 25.000000 -59.551109 7.325659
v 25.000000 -59.950069 2.447315
v 25.000000 -59.950069 -2.447315
v 25.000000 -59.551109 -7.325659
v 25.000000 -58.755848 -12.155252
v 25.000000 -57.569580 -16.903954
v 25.000000 -56.000191 -21.540161
v 25.000000 -54.058132 -26.033024
v 25.000000 -51.756325 -30.352642
v 25.000000 -49.110088 -34.470264
v 25.000000 -46.137032 -38.358498
v 25.000000 -42.856941 -41.991459
v 25.000000 -39.291645 -45.344975
v 25.000000 -35.464867 -48.396725
v 25.000000 -31.402079 -51.126408
v 25.000000 -27.130314 -53.515850
v 25.000000 -22.678001 -55.549152
v 25.000000 -18.074772 -57.212784
v 25.000000 -13.351256 -58.495674
v 25.000000 -8.538890 -59.389286
v 25.000000 -3.669700 -59.887672
v 25.000000 1.223912 -59.987514
v 25.000000 6.109379 -59.688152
v 25.000000 10.954189 -58.991573
v 25.000000 15.726101 -57.902416
v 25.000000 20.393358 -56.427925
v 25.000000 24.924900 -54.577919
v 25.000000 29.290573 -52.364704
v 25.000000 33.461319 -49.803013
v 25.000000 37.409389 -46.909889
v 25.000000 41.108501 -43.704586
v 25.000000 44.534046 -40.208439
v 25.000000 47.663223 -36.444710
v 25.000000 50.475212 -32.438450
v 25.000000 52.951294 -28.216314
v 25.000000 55.074997 -23.806404
v 25.000000 56.832180 -19.238068
v 25.000000 58.211159 -14.541704
v 25.000000 59.202747 -9.748569
v 25.000000 59.800354 -4.890557
v 25.000000 20.908127 -21.513954
v 25.000000 23.224249 -18.990374
v 25.000000 18.319437 -23.757067
v 25.000000 25.237606 -16.219225
v 25.000000 15.491924 -25.690472
v 25.000000 26.921953 -13.236633
v 25.000000 12.462450 -27.288960
v 25.000000 28.255331 -10.081482
v 25.000000 9.270510 -28.531696
v 25.000000 29.220358 -6.794903
v 25.000000 5.957714 -29.402477
v 25.000000 29.804453 -3.419742
v 25.000000 2.567250 -29.889952
v 25.000000 30.000000 0.000000
v 25.000000 -0.856682 -29.987766
v 25.000000 29.804453 3.419742
v 25.000000 -4.269445 -29.694643
v 25.000000 29.220358 6.794903
v 25.000000 -7.626550 -29.014406
v 25.000000 28.255331 10.081482
v 25.000000 -10.884232 -27.955921
v 25.000000 26.921953 13.236633
v 25.000000 -14.000020 -26.532988
v 25.000000 25.237606 16.219225
v 25.000000 -16.933296 -24.764156
v 25.000000 23.224249 18.990374
v 25.000000 -19.645823 -22.672487
v 25.000000 20.908127 21.513954
v 25.000000 -22.102234 -20.285248
v 25.000000 18.319437 23.757067
v 25.000000 -24.270510 -17.633558
v 25.000000 15.491924 25.690472
v 25.000000 -26.122383 -14.751987
v 25.000000 12.462450 27.288960
v 25.000000 -27.633709 -11.678103
v 25.000000 -28.784790 -8.451977
v 25.000000 9.270510 28.531696
v 25.000000 5.957714 29.402477
v 25.000000 -29.560616 -5.115666
v 25.000000 -29.951073 -1.712664
v 25.000000 2.567250 29.889952
v 25.000000 -0.856682 29.987766
v 25.000000 -29.951073 1.712664
v 25.000000 -4.269445 29.694643
v 25.000000 -29.560616 5.115666
v 25.000000 -28.784790 8.451977
v 25.000000 -7.626550 29.014406
v 25.000000 -10.884232 27.955921
v 25.000000 -27.633709 11.678103
v 25.000000 -26.122383 14.751987
v 25.000000 -14.000020 26.532988
v 25.000000 -16.933296 24.764156
v 25.000000 -24.270510 17.633558
v 25.000000 -19.645823 22.672487
v 25.000000 -22.102234 20.285248
v 0.000000 30.000000 0.000000
v 0.000000 29.804453 3.419742
v 0.000000 29.220358 6.794903
v 0.000000 28.255331 10.081482
v 0.000000 26.921953 13.236633
v 0.000000 25.237606 16.219225
v 0.000000 23.224249 18.990374
v 0.000000 20.908127 21.513954
v 0.000000 18.319437 23.757067
v 0.000000 15.491924 25.690472
v 0.000000 12.462450 27.288960
v 0.000000 9.270510 28.531696
v 0.000000 5.957714 29.402477
v 0.000000 2.567250 29.889952
v 0.000000 -0.856682 29.987766
v 0.000000 -4.269445 29.694643
v 0.000000 -7.626550 29.014406
v 0.000000 -10.884232 27.955921
v 0.000000 -14.000020 26.532988
v 0.000000 -16.933296 24.764156
v 0.000000 -19.645823 22.672487
v 0.000000 -22.102234 20.285248
v 0.000000 -24.270510 17.633558
v 0.000000 -26.122383 14.751987
v 0.000000 -27.633709 11.678103
v 0.000000 -28.784790 8.451977
v 0.000000 -29.560616 5.115666
v 0.000000 -29.951073 1.712664
v 0.000000 -29.951073 -1.712664
v 0.000000 -29.560616 -5.115666
v 0.000000 -28.784790 -8.451977
v 0.000000 -27.633709 -11.678103
v 0.000000 -26.122383 -14.751987
v 0.000000 -24.270510 -17.633558
v 0.000000 -22.102234 -20.285248
v 0.000000 -19.645823 -22.672487
v 0.000000 -16.933296 -24.764156
v 0.000000 -14.000020 -26.532988
v 0.000000 -10.884232 -27.955921
v 0.000000 -7.626550 -29.014406
v 0.000000 -4.269445 -29.694643
v 0.000000 -0.856682 -29.987766
v 0.000000 2.567250 -29.889952
v 0.000000 5.957714 -29.402477
v 0.000000 9.270510 -28.531696
v 0.000000 12.462450 -27.288960
v 0.000000 15.491924 -25.690472
v 0.000000 18.319437 -23.757067
v 0.000000 20.908127 -21.513954
v 0.000000 23.224249 -18.990374
v 0.000000 25.237606 -16.219225
v 0.000000 26.921953 -13.236633
v 0.000000 28.255331 -10.081482
v 0.000000 29.220358 -6.794903
v 0.000000 29.804453 -3.419742
vn 0.000000 -0.997564 -0.069757
vn 0.000000 -0.997564 -0.069757
vn 0.000000 -0.978148 -0.207912
vn 0.000000 -0.978148 -0.207912
vn 0.000000 -0.939693 -0.342020
vn 0.000000 -0.939693 -0.342020
vn 0.000000 -0.882948 -0.469471
vn 0.000000 -0.882948 -0.469471
vn 0.000000 -0.809017 -0.587785
vn 0.000000 -0.809017 -0.587785
vn 0.000000 -0.719340 -0.694658
vn 0.000000 -0.719340 -0.694658
vn 0.000000 -0.615661 -0.788011
vn 0.000000 -0.615661 -0.788011
vn 0.000000 -0.500000 -0.866025
vn 0.000000 -0.500000 -0.866025
vn 0.000000 -0.374606 -0.927184
vn 0.000000 -0.374606 -0.927184
vn 0.000000 -0.241922 -0.970296
vn 0.000000 -0.241922 -0.970296
vn 0.000000 -0.104528 -0.994522
vn 0.000000 -0.104528 -0.994522
vn 0.000000 0.034899 -0.999391
vn 0.000000 0.034899 -0.999391
vn 0.000000 0.173648 -0.984808
vn 0.000000 0.173648 -0.984808
vn 0.000000 0.309017 -0.951056
vn 0.000000 0.309017 -0.951056
vn 0.000000 0.438371 -0.898794
vn 0.000000 0.438371 -0.898794
vn 0.000000 0.559193 -0.829037
vn 0.000000 0.559193 -0.829037
vn 0.000000 0.669131 -0.743145
vn 0.000000 0.669131 -0.743145
vn 0.000000 0.766044 -0.642788
vn 0.000000 0.766044 -0.642788
vn 0.000000 0.848048 -0.529920
vn 0.000000 0.848048 -0.529920
vn 0.000000 0.913546 -0.406736
vn 0.000000 0.913546 -0.406736
vn 0.000000 0.961262 -0.275638
vn 0.000000 0.961262 -0.275638
vn 0.000000 0.990268 -0.139173
vn 0.000000 0.990268 -0.139173
vn 0.000000 1.000000 0.000000
vn 0.000000 1.000000 0.000000
vn -0.000000 0.990268 0.139173
vn 0.000000 0.990268 0.139173
vn -0.000000 0.961262 0.275638
vn 0.000000 0.961262 0.275638
vn -0.000000 0.913546 0.406736
vn 0.000000 0.913546 0.406736
vn 0.000000 0.848048 0.529920
vn -0.000000 0.848048 0.529920
vn -0.000000 0.766044 0.642788
vn -0.000000 0.766044 0.642788
vn 0.000000 0.669131 0.743145
vn -0.000000 0.669131 0.743145
vn 0.000000 0.559193 0.829037
vn -0.000000 0.559193 0.829037
vn 0.000000 0.438371 0.898794
vn -0.000000 0.438371 0.898794
vn 0.000000 0.309017 0.951056
vn -0.000000 0.309017 0.951056
vn 0.000000 0.173648 0.984808
vn -0.000000 0.173648 0.984808
vn 0.000000 0.034899 0.999391
vn -0.000000 0.034899 0.999391
vn 0.000000 -0.104528 0.994522
vn 0.000000 -0.104528 0.994522
vn 0.000000 -0.241922 0.970296
vn 0.000000 -0.241922 0.970296
vn 0.000000 -0.374606 0.927184
vn 0.000000 -0.374606 0.927184
vn 0.000000 -0.500000 0.866025
vn 0.000000 -0.500000 0.866025
vn 0.000000 -0.615661 0.788011
vn 0.000000 -0.615661 0.788011
vn 0.000000 -0.719340 0.694658
vn 0.000000 -0.719340 0.694658
vn 0.000000 -0.809017 0.587785
vn 0.000000 -0.809017 0.587785
vn 0.000000 -0.882948 0.469471
vn 0.000000 -0.882948 0.469471
vn 0.000000 -0.939693 0.342020
vn 0.000000 -0.939693 0.342020
vn 0.000000 -0.978148 0.207912
vn 0.000000 -0.978148 0.207912
vn 0.000000 -0.997564 0.069757
vn 0.000000 -0.997564 0.069757
vn 1.000000 0.000000 0.000000
vn 1.000000 0.000000 0.000000
vn 1.000000 0.000000 0.000000
vn 1.000000 0.000000 0.000000
vn 1.000000 0.000000 0.000000
vn 1.000000 0.000000 0.000000
vn 1.000000 0.000000 0.000000
vn 1.000000 0.000000 0.000000
vn 1.000000 0.000000 0.000000
vn 1.000000 0.000000 0.000000
vn 1.000000 0.000000 0.000000
vn 1.000000 0.000000 0.000000
vn 1.000000 0.000000 0.000000
vn 1.000000 0.000000 0.000000
vn 1.000000 0.000000 0.000000
vn 1.000000 0.000000 0.000000
vn 1.000000 0.000000 0.000000
vn 1.000000 0.000000 0.000000
vn 1.000000 0.000000 0.000000
vn 1.000000 0.000000 0.000000
vn 1.000000 0.000000 0.000000
vn 1.000000 0.000000 0.000000
vn 1.000000 0.000000 0.000000
vn 1.000000 0.000000 0.000000
vn 1.000000 0.000000 0.000000
vn 1.000000 0.000000 0.000000
vn 1.000000 0.000000 0.000000
vn 1.000000 0.000000 0.000000
vn 1.000000 0.000000 0.000000
vn 1.000000 0.000000 0.000000
vn 1.000000 0.000000 0.000000
vn 1.000000 0.000000 0.000000
vn 1.000000 0.000000 0.000000
vn 1.000000 0.000000 0.000000
vn 1.000000 0.000000 0.000000
vn 1.000000 0.000000 0.000000
vn 1.000000 0.000000 0.000000
vn 1.000000 0.000000 0.000000
vn 1.000000 0.000000 0.000000
vn 1.000000 0.000000 0.000000
vn 1.000000 0.000000 0.000000
vn 1.000000 0.000000 0.000000
vn 1.000000 0.000000 0.000000
vn 1.000000 0.000000 0.000000
vn 1.000000 0.000000 0.000000
vn 1.000000 0.000000 0.000000
vn 1.000000 0.000000 0.000000
vn 1.000000 0.000000 0.000000
vn 1.000000 0.000000 0.000000
vn 1.000000 0.000000 0.000000
vn 1.000000 0.000000 0.000000
vn 1.000000 0.000000 0.000000
vn 1.000000 0.000000 0.000000
vn 1.000000 0.000000 0.000000
vn 1.000000 0.000000 0.000000
vn 1.000000 0.000000 0.000000
vn 1.000000 0.000000 0.000000
vn 1.000000 0.000000 0.000000
vn 1.000000 0.000000 0.000000
vn 1.000000 0.000000 0.000000
vn 1.000000 0.000000 0.000000
vn 1.000000 0.000000 0.000000
vn 1.000000 0.000000 0.000000
vn 1.000000 0.000000 0.000000
vn 1.000000 0.000000 0.000000
vn 1.000000 0.000000 0.000000
vn 1.000000 0.000000 0.000000
vn 1.000000 0.000000 0.000000
vn 1.000000 0.000000 0.000000
vn 1.000000 0.000000 0.000000
vn 1.000000 0.000000 0.000000
vn 1.000000 0.000000 0.000000
vn 1.000000 0.000000 0.000000
vn 1.000000 0.000000 0.000000
vn 1.000000 0.000000 0.000000
vn 1.000000 0.000000 0.000000
vn 1.000000 0.000000 0.000000
vn 1.000000 0.000000 0.000000
vn 1.000000 0.000000 0.000000
vn 1.000000 0.000000 0.000000
vn 1.000000 0.000000 0.000000
vn 1.000000 0.000000 0.000000
vn 1.000000 0.000000 0.000000
vn 1.000000 0.000000 0.000000
vn 1.000000 0.000000 0.000000
vn 1.000000 0.000000 0.000000
vn 1.000000 0.000000 0.000000
vn 1.000000 0.000000 0.000000
vn 1.000000 0.000000 0.000000
vn 1.000000 0.000000 0.000000
vn 1.000000 0.000000 0.000000
vn 1.000000 0.000000 0.000000
vn 1.000000 0.000000 0.000000
vn 1.000000 0.000000 0.000000
vn 1.000000 0.000000 0.000000
vn 1.000000 0.000000 0.000000
vn 1.000000 0.000000 0.000000
vn 1.000000 0.000000 0.000000
vn 1.000000 0.000000 0.000000
vn 1.000000 0.000000 0.000000
vn 1.000000 0.000000 0.000000
vn 1.000000 0.000000 0.000000
vn 1.000000 0.000000 0.000000
vn 1.000000 0.000000 0.000000
vn 1.000000 0.000000 0.000000
vn 1.000000 0.000000 0.000000
vn 1.000000 0.000000 0.000000
vn 1.000000 0.000000 0.000000
vn 0.000000 0.998757 0.049846
vn 0.000000 0.988831 0.149043
vn 0.000000 0.998757 0.049846
vn 0.000000 0.988831 0.149043
vn 0.000000 0.969077 0.246757
vn 0.000000 0.969077 0.246757
vn 0.000000 0.939692 0.342020
vn 0.000000 0.939692 0.342020
vn 0.000000 0.900969 0.433883
vn 0.000000 0.853290 0.521436
vn 0.000000 0.900969 0.433883
vn 0.000000 0.853290 0.521436
vn 0.000000 0.797133 0.603804
vn 0.000000 0.797133 0.603804
vn 0.000000 0.733052 0.680173
vn 0.000000 0.733052 0.680173
vn 0.000000 0.661686 0.749781
vn 0.000000 0.661686 0.749781
vn 0.000000 0.583743 0.811938
vn 0.000000 0.583743 0.811938
vn 0.000000 0.500000 0.866025
vn 0.000000 0.500000 0.866025
vn 0.000000 0.411287 0.911506
vn 0.000000 0.411287 0.911506
vn 0.000000 0.318487 0.947927
vn 0.000000 0.222521 0.974928
vn 0.000000 0.318487 0.947927
vn 0.000000 0.124344 0.992239
vn 0.000000 0.222521 0.974928
vn 0.000000 0.124344 0.992239
vn 0.000000 0.024931 0.999689
vn 0.000000 0.024931 0.999689
vn 0.000000 -0.074730 0.997204
vn 0.000000 -0.074730 0.997204
vn 0.000000 -0.173648 0.984808
vn 0.000000 -0.173648 0.984808
vn 0.000000 -0.270840 0.962624
vn 0.000000 -0.270840 0.962624
vn 0.000000 -0.365341 0.930874
vn 0.000000 -0.365341 0.930874
vn 0.000000 -0.456211 0.889872
vn 0.000000 -0.456211 0.889872
vn 0.000000 -0.542547 0.840026
vn 0.000000 -0.542547 0.840026
vn 0.000000 -0.623490 0.781832
vn 0.000000 -0.623490 0.781832
vn 0.000000 -0.698237 0.715867
vn 0.000000 -0.698237 0.715867
vn 0.000000 -0.766045 0.642788
vn 0.000000 -0.766045 0.642788
vn 0.000000 -0.826239 0.563320
vn 0.000000 -0.826239 0.563320
vn 0.000000 -0.878222 0.478254
vn 0.000000 -0.878222 0.478254
vn 0.000000 -0.921476 0.388435
vn 0.000000 -0.921476 0.388435
vn 0.000000 -0.955573 0.294756
vn 0.000000 -0.955573 0.294756
vn 0.000000 -0.980172 0.198146
vn 0.000000 -0.995031 0.099567
vn 0.000000 -0.980172 0.198146
vn 0.000000 -0.995031 0.099567
vn 0.000000 -1.000000 0.000000
vn 0.000000 -1.000000 0.000000
vn -0.000000 -0.995031 -0.099567
vn -0.000000 -0.980172 -0.198146
vn 0.000000 -0.995031 -0.099567
vn -0.000000 -0.955573 -0.294756
vn -0.000000 -0.980172 -0.198146
vn -0.000000 -0.955573 -0.294756
vn -0.000000 -0.921476 -0.388435
vn 0.000000 -0.921476 -0.388435
vn -0.000000 -0.878222 -0.478254
vn 0.000000 -0.878222 -0.478254
vn -0.000000 -0.826239 -0.563320
vn 0.000000 -0.826239 -0.563320
vn -0.000000 -0.766045 -0.642788
vn 0.000000 -0.766045 -0.642788
vn -0.000000 -0.698237 -0.715867
vn 0.000000 -0.698237 -0.715867
vn -0.000000 -0.623490 -0.781832
vn 0.000000 -0.623490 -0.781832
vn -0.000000 -0.542547 -0.840026
vn 0.000000 -0.542547 -0.840026
vn 0.000000 -0.456211 -0.889872
vn -0.000000 -0.456211 -0.889872
vn 0.000000 -0.365341 -0.930874
vn -0.000000 -0.365341 -0.930874
vn 0.000000 -0.270840 -0.962624
vn -0.000000 -0.270840 -0.962624
vn 0.000000 -0.173648 -0.984808
vn -0.000000 -0.173648 -0.984808
vn 0.000000 -0.074730 -0.997204
vn -0.000000 -0.074730 -0.997204
vn 0.000000 0.024931 -0.999689
vn 0.000000 0.024931 -0.999689
vn 0.000000 0.124344 -0.992239
vn 0.000000 0.124344 -0.992239
vn 0.000000 0.222521 -0.974928
vn 0.000000 0.222521 -0.974928
vn 0.000000 0.318487 -0.947927
vn 0.000000 0.318487 -0.947927
vn 0.000000 0.411287 -0.911506
vn 0.000000 0.411287 -0.911506
vn 0.000000 0.500000 -0.866025
vn 0.000000 0.500000 -0.866025
vn 0.000000 0.583743 -0.811938
vn 0.000000 0.583743 -0.811938
vn 0.000000 0.661686 -0.749781
vn 0.000000 0.661686 -0.749781
vn 0.000000 0.733052 -0.680173
vn 0.000000 0.733052 -0.680173
vn 0.000000 0.797133 -0.603804
vn 0.000000 0.797133 -0.603804
vn 0.000000 0.853290 -0.521436
vn 0.000000 0.853290 -0.521436
vn 0.000000 0.900969 -0.433883
vn 0.000000 0.900969 -0.433883
vn 0.000000 0.939692 -0.342020
vn 0.000000 0.939692 -0.342020
vn 0.000000 0.969077 -0.246757
vn 0.000000 0.969077 -0.246757
vn 0.000000 0.988831 -0.149043
vn 0.000000 0.998757 -0.049846
vn 0.000000 0.988831 -0.149043
vn 0.000000 0.998757 -0.049846
vn 1.000000 0.000000 0.000000
vn 1.000000 0.000000 0.000000
vn 1.000000 0.000000 0.000000
vn 1.000000 0.000000 0.000000
vn 1.000000 0.000000 0.000000
vn 1.000000 0.000000 0.000000
vn 1.000000 0.000000 0.000000
vn 1.000000 0.000000 0.000000
vn 1.000000 0.000000 0.000000
vn 1.000000 0.000000 0.000000
vn 1.000000 0.000000 0.000000
vn 1.000000 0.000000 0.000000
vn 1.000000 0.000000 0.000000
vn 1.000000 0.000000 0.000000
vn 1.000000 0.000000 0.000000
vn 1.000000 0.000000 0.000000
vn 1.000000 0.000000 0.000000
vn 1.000000 0.000000 0.000000
vn 1.000000 0.000000 0.000000
vn 1.000000 0.000000 0.000000
vn 1.000000 0.000000 0.000000
vn 1.000000 0.000000 0.000000
vn 1.000000 0.000000 0.000000
vn 1.000000 0.000000 0.000000
vn 1.000000 0.000000 0.000000
vn 1.000000 0.000000 0.000000
vn 1.000000 0.000000 0.000000
vn 1.000000 0.000000 0.000000
vn 1.000000 0.000000 0.000000
vn 1.000000 0.000000 0.000000
vn 1.000000 0.000000 0.000000
vn 1.000000 0.000000 0.000000
vn 1.000000 0.000000 0.000000
vn 1.000000 0.000000 0.000000
vn 1.000000 0.000000 0.000000
vn 1.000000 0.000000 0.000000
vn 1.000000 0.000000 0.000000
vn 1.000000 0.000000 0.000000
vn 1.000000 0.000000 0.000000
vn 1.000000 0.000000 0.000000
vn 1.000000 0.000000 0.000000
vn 1.000000 0.000000 0.000000
vn 1.000000 0.000000 0.000000
vn 1.000000 0.000000 0.000000
vn 1.000000 0.000000 0.000000
vn 1.000000 0.000000 0.000000
vn 1.000000 0.000000 0.000000
vn 1.000000 0.000000 0.000000
vn 1.000000 0.000000 0.000000
vn 1.000000 0.000000 0.000000
vn 1.000000 0.000000 0.000000
vn 1.000000 0.000000 0.000000
vn 1.000000 0.000000 0.000000
vn 1.000000 0.000000 0.000000
vn 1.000000 0.000000 0.000000
vn 1.000000 0.000000 0.000000
vn 1.000000 0.000000 0.000000
vn 1.000000 0.000000 0.000000
vn 1.000000 0.000000 0.000000
vn 1.000000 0.000000 0.000000
vn 1.000000 0.000000 0.000000
vn 1.000000 0.000000 0.000000
vn 1.000000 0.000000 0.000000
vn 1.000000 0.000000 0.000000
vn 1.000000 0.000000 0.000000
vn 1.000000 0.000000 0.000000
vn 1.000000 0.000000 0.000000
vn 1.000000 0.000000 0.000000
vn 1.000000 0.000000 0.000000
vn 1.000000 0.000000 0.000000
vn 1.000000 0.000000 0.000000
vn 1.000000 0.000000 0.000000
vn 1.000000 0.000000 0.000000
vn 1.000000 0.000000 0.000000
vn 1.000000 0.000000 0.000000
vn 1.000000 0.000000 0.000000
vn 1.000000 0.000000 0.000000
vn 1.000000 0.000000 0.000000
vn 1.000000 0.000000 0.000000
vn 1.000000 0.000000 0.000000
vn 1.000000 0.000000 0.000000
vn 1.000000 0.000000 0.000000
vn 1.000000 0.000000 0.000000
vn 1.000000 0.000000 0.000000
vn 1.000000 0.000000 0.000000
vn 1.000000 0.000000 0.000000
vn 1.000000 0.000000 0.000000
vn 1.000000 0.000000 0.000000
vn 1.000000 0.000000 0.000000
vn 1.000000 0.000000 0.000000
vn 1.000000 0.000000 0.000000
vn 1.000000 0.000000 0.000000
vn 1.000000 0.000000 0.000000
vn 1.000000 0.000000 0.000000
vn 1.000000 0.000000 0.000000
vn 1.000000 0.000000 0.000000
vn 1.000000 0.000000 0.000000
vn 1.000000 0.000000 0.000000
vn 1.000000 0.000000 0.000000
vn 1.000000 0.000000 0.000000
vn 1.000000 0.000000 0.000000
vn 1.000000 0.000000 0.000000
vn 1.000000 0.000000 0.000000
vn 1.000000 0.000000 0.000000
vn 1.000000 0.000000 0.000000
vn 1.000000 0.000000 0.000000
vn 1.000000 0.000000 0.000000
vn 1.000000 0.000000 0.000000
vn 1.000000 0.000000 0.000000
vn 1.000000 0.000000 0.000000
vn 1.000000 0.000000 0.000000
vn 1.000000 0.000000 0.000000
vn 1.000000 0.000000 0.000000
vn 1.000000 0.000000 0.000000
vn 1.000000 0.000000 0.000000
vn 1.000000 0.000000 0.000000
vn 1.000000 0.000000 0.000000
vn 1.000000 0.000000 0.000000
vn 1.000000 0.000000 0.000000
vn 1.000000 0.000000 0.000000
vn 1.000000 0.000000 0.000000
vn 1.000000 0.000000 0.000000
vn 1.000000 0.000000 0.000000
vn 1.000000 0.000000 0.000000
vn 1.000000 0.000000 0.000000
vn 1.000000 0.000000 0.000000
vn 1.000000 0.000000 0.000000
vn 1.000000 0.000000 0.000000
vn 1.000000 0.000000 0.000000
vn 1.000000 0.000000 0.000000
vn 1.000000 0.000000 0.000000
vn 1.000000 0.000000 0.000000
vn 1.000000 0.000000 0.000000
vn 1.000000 0.000000 0.000000
vn 1.000000 0.000000 0.000000
vn 1.000000 0.000000 0.000000
vn 1.000000 0.000000 0.000000
vn 1.000000 0.000000 0.000000
vn 1.000000 0.000000 0.000000
vn 0.000000 0.999146 0.041325
vn 0.000000 0.999146 0.041325
vn 0.000000 0.992321 0.123693
vn 0.000000 0.978717 0.205215
vn 0.000000 0.992321 0.123693
vn 0.000000 0.958427 0.285337
vn 0.000000 0.978717 0.205215
vn 0.000000 0.958427 0.285337
vn 0.000000 0.931591 0.363508
vn 0.000000 0.898391 0.439197
vn 0.000000 0.931591 0.363508
vn 0.000000 0.898391 0.439197
vn 0.000000 0.859054 0.511885
vn 0.000000 0.813848 0.581077
vn 0.000000 0.859054 0.511885
vn 0.000000 0.813848 0.581077
vn 0.000000 0.763084 0.646299
vn 0.000000 0.763084 0.646299
vn 0.000000 0.707107 0.707107
vn 0.000000 0.707107 0.707107
vn 0.000000 0.646299 0.763084
vn 0.000000 0.646299 0.763084
vn 0.000000 0.581077 0.813848
vn 0.000000 0.581077 0.813848
vn 0.000000 0.511885 0.859054
vn 0.000000 0.511885 0.859054
vn 0.000000 0.439197 0.898391
vn 0.000000 0.439197 0.898391
vn 0.000000 0.363508 0.931591
vn 0.000000 0.285337 0.958427
vn 0.000000 0.363508 0.931591
vn 0.000000 0.205215 0.978717
vn 0.000000 0.285337 0.958427
vn 0.000000 0.123693 0.992321
vn 0.000000 0.205215 0.978717
vn 0.000000 0.123693 0.992321
vn 0.000000 0.041325 0.999146
vn 0.000000 0.041325 0.999146
vn 0.000000 -0.041325 0.999146
vn 0.000000 -0.041325 0.999146
vn 0.000000 -0.123693 0.992321
vn 0.000000 -0.123693 0.992321
vn 0.000000 -0.205215 0.978717
vn 0.000000 -0.205215 0.978717
vn 0.000000 -0.285337 0.958427
vn 0.000000 -0.285337 0.958427
vn 0.000000 -0.363508 0.931591
vn 0.000000 -0.363508 0.931591
vn 0.000000 -0.439197 0.898391
vn 0.000000 -0.439197 0.898391
vn 0.000000 -0.511885 0.859054
vn 0.000000 -0.511885 0.859054
vn 0.000000 -0.581077 0.813848
vn 0.000000 -0.581077 0.813848
vn 0.000000 -0.646299 0.763084
vn 0.000000 -0.707107 0.707107
vn 0.000000 -0.646299 0.763084
vn 0.000000 -0.707107 0.707107
vn 0.000000 -0.763084 0.646299
vn 0.000000 -0.763084 0.646299
vn 0.000000 -0.813848 0.581077
vn 0.000000 -0.813848 0.581077
vn 0.000000 -0.859054 0.511885
vn 0.000000 -0.859054 0.511885
vn 0.000000 -0.898391 0.439197
vn 0.000000 -0.931591 0.363508
vn 0.000000 -0.898391 0.439197
vn 0.000000 -0.931591 0.363508
vn 0.000000 -0.958427 0.285337
vn 0.000000 -0.958427 0.285337
vn 0.000000 -0.978717 0.205215
vn 0.000000 -0.978717 0.205215
vn 0.000000 -0.992321 0.123693
vn 0.000000 -0.992321 0.123693
vn 0.000000 -0.999146 0.041325
vn 0.000000 -0.999146 0.041325
vn 0.000000 -0.999146 -0.041325
vn -0.000000 -0.999146 -0.041325
vn -0.000000 -0.992321 -0.123693
vn -0.000000 -0.992321 -0.123693
vn 0.000000 -0.978717 -0.205215
vn -0.000000 -0.978717 -0.205215
vn 0.000000 -0.958427 -0.285337
vn -0.000000 -0.958427 -0.285337
vn 0.000000 -0.931591 -0.363508
vn -0.000000 -0.931591 -0.363508
vn -0.000000 -0.898391 -0.439197
vn -0.000000 -0.898391 -0.439197
vn 0.000000 -0.859054 -0.511885
vn -0.000000 -0.859054 -0.511885
vn 0.000000 -0.813848 -0.581077
vn -0.000000 -0.813848 -0.581077
vn -0.000000 -0.763084 -0.646299
vn -0.000000 -0.763084 -0.646299
vn 0.000000 -0.707107 -0.707107
vn -0.000000 -0.707107 -0.707107
vn -0.000000 -0.646299 -0.763084
vn -0.000000 -0.646299 -0.763084
vn -0.000000 -0.581077 -0.813848
vn -0.000000 -0.511885 -0.859054
vn 0.000000 -0.581077 -0.813848
vn -0.000000 -0.439197 -0.898391
vn -0.000000 -0.511885 -0.859054
vn -0.000000 -0.439197 -0.898391
vn -0.000000 -0.363508 -0.931591
vn 0.000000 -0.363508 -0.931591
vn -0.000000 -0.285337 -0.958427
vn 0.000000 -0.285337 -0.958427
vn -0.000000 -0.205215 -0.978717
vn 0.000000 -0.205215 -0.978717
vn -0.000000 -0.123693 -0.992321
vn 0.000000 -0.123693 -0.992321
vn -0.000000 -0.041325 -0.999146
vn 0.000000 0.041325 -0.999146
vn 0.000000 -0.041325 -0.999146
vn 0.000000 0.041325 -0.999146
vn 0.000000 0.123693 -0.992321
vn 0.000000 0.123693 -0.992321
vn 0.000000 0.205215 -0.978717
vn 0.000000 0.285337 -0.958427
vn 0.000000 0.205215 -0.978717
vn 0.000000 0.285337 -0.958427
vn 0.000000 0.363508 -0.931591
vn 0.000000 0.363508 -0.931591
vn 0.000000 0.439197 -0.898391
vn 0.000000 0.439197 -0.898391
vn 0.000000 0.511885 -0.859054
vn 0.000000 0.511885 -0.859054
vn 0.000000 0.581077 -0.813848
vn 0.000000 0.581077 -0.813848
vn 0.000000 0.646299 -0.763084
vn 0.000000 0.646299 -0.763084
vn 0.000000 0.707107 -0.707107
vn 0.000000 0.707107 -0.707107
vn 0.000000 0.763084 -0.646299
vn 0.000000 0.763084 -0.646299
vn 0.000000 0.813848 -0.581077
vn 0.000000 0.813848 -0.581077
vn 0.000000 0.859054 -0.511885
vn 0.000000 0.859054 -0.511885
vn 0.000000 0.898391 -0.439197
vn 0.000000 0.898391 -0.439197
vn 0.000000 0.931591 -0.363508
vn 0.000000 0.931591 -0.363508
vn 0.000000 0.958427 -0.285337
vn 0.000000 0.958427 -0.285337
vn 0.000000 0.978717 -0.205215
vn 0.000000 0.978717 -0.205215
vn 0.000000 0.992321 -0.123693
vn 0.000000 0.992321 -0.123693
vn 0.000000 0.999146 -0.041325
vn 0.000000 0.999146 -0.041325
vn 1.000000 0.000000 0.000000
vn 1.000000 0.000000 0.000000
vn 1.000000 0.000000 0.000000
vn 1.000000 0.000000 0.000000
vn 1.000000 0.000000 0.000000
vn 1.000000 0.000000 0.000000
vn 1.000000 0.000000 0.000000
vn 1.000000 0.000000 0.000000
vn 1.000000 0.000000 0.000000
vn 1.000000 0.000000 0.000000
vn 1.000000 0.000000 0.000000
vn 1.000000 0.000000 0.000000
vn 1.000000 0.000000 0.000000
vn 1.000000 0.000000 0.000000
vn 1.000000 0.000000 0.000000
vn 1.000000 0.000000 0.000000
vn 1.000000 0.000000 0.000000
vn 1.000000 0.000000 0.000000
vn 1.000000 0.000000 0.000000
vn 1.000000 0.000000 0.000000
vn 1.000000 0.000000 0.000000
vn 1.000000 0.000000 0.000000
vn 1.000000 0.000000 0.000000
vn 1.000000 0.000000 0.000000
vn 1.000000 0.000000 0.000000
vn 1.000000 0.000000 0.000000
vn 1.000000 0.000000 0.000000
vn 1.000000 0.000000 0.000000
vn 1.000000 0.000000 0.000000
vn 1.000000 0.000000 0.000000
vn 1.000000 0.000000 0.000000
vn 1.000000 0.000000 0.000000
vn 1.000000 0.000000 0.000000
vn 1.000000 0.000000 0.000000
vn 1.000000 0.000000 0.000000
vn 1.000000 0.000000 0.000000
vn 1.000000 0.000000 0.000000
vn 1.000000 0.000000 0.000000
vn 1.000000 0.000000 0.000000
vn 1.000000 0.000000 0.000000
vn 1.000000 0.000000 0.000000
vn 1.000000 0.000000 0.000000
vn 1.000000 0.000000 0.000000
vn 1.000000 0.000000 0.000000
vn 1.000000 0.000000 0.000000
vn 1.000000 0.000000 0.000000
vn 1.000000 0.000000 0.000000
vn 1.000000 0.000000 0.000000
vn 1.000000 0.000000 0.000000
vn 1.000000 0.000000 0.000000
vn 1.000000 0.000000 0.000000
vn 1.000000 0.000000 0.000000
vn 1.000000 0.000000 0.000000
vn 1.000000 0.000000 0.000000
vn 1.000000 0.000000 0.000000
vn 1.000000 0.000000 0.000000
vn 1.000000 0.000000 0.000000
vn 1.000000 0.000000 0.000000
vn 1.000000 0.000000 0.000000
vn 1.000000 0.000000 0.000000
vn 1.000000 0.000000 0.000000
vn 1.000000 0.000000 0.000000
vn 1.000000 0.000000 0.000000
vn 1.000000 0.000000 0.000000
vn 1.000000 0.000000 0.000000
vn 1.000000 0.000000 0.000000
vn 1.000000 0.000000 0.000000
vn 1.000000 0.000000 0.000000
vn 1.000000 0.000000 0.000000
vn 1.000000 0.000000 0.000000
vn 1.000000 0.000000 0.000000
vn 1.000000 0.000000 0.000000
vn 1.000000 0.000000 0.000000
vn 1.000000 0.000000 0.000000
vn 1.000000 0.000000 0.000000
vn 1.000000 0.000000 0.000000
vn 1.000000 0.000000 0.000000
vn 1.000000 0.000000 0.000000
vn 1.000000 0.000000 0.000000
vn 1.000000 0.000000 0.000000
vn 1.000000 0.000000 0.000000
vn 1.000000 0.000000 0.000000
vn 1.000000 0.000000 0.000000
vn 1.000000 0.000000 0.000000
vn 1.000000 0.000000 0.000000
vn 1.000000 0.000000 0.000000
vn 1.000000 0.000000 0.000000
vn 1.000000 0.000000 0.000000
vn 1.000000 0.000000 0.000000
vn 1.000000 0.000000 0.000000
vn 1.000000 0.000000 0.000000
vn 1.000000 0.000000 0.000000
vn 1.000000 0.000000 0.000000
vn 1.000000 0.000000 0.000000
vn 1.000000 0.000000 0.000000
vn 1.000000 0.000000 0.000000
vn 1.000000 0.000000 0.000000
vn 1.000000 0.000000 0.000000
vn 1.000000 0.000000 0.000000
vn 1.000000 0.000000 0.000000
vn 1.000000 0.000000 0.000000
vn 1.000000 0.000000 0.000000
vn 1.000000 0.000000 0.000000
vn 1.000000 0.000000 0.000000
vn 1.000000 0.000000 0.000000
vn 1.000000 0.000000 0.000000
vn 1.000000 0.000000 0.000000
vn 1.000000 0.000000 0.000000
vn 1.000000 0.000000 0.000000
vn 1.000000 0.000000 0.000000
vn 1.000000 0.000000 0.000000
vn 1.000000 0.000000 0.000000
vn 1.000000 0.000000 0.000000
vn 1.000000 0.000000 0.000000
vn 1.000000 0.000000 0.000000
vn 1.000000 0.000000 0.000000
vn 1.000000 0.000000 0.000000
vn 1.000000 0.000000 0.000000
vn 1.000000 0.000000 0.000000
vn 1.000000 0.000000 0.000000
vn 1.000000 0.000000 0.000000
vn 1.000000 0.000000 0.000000
vn 1.000000 0.000000 0.000000
vn 1.000000 0.000000 0.000000
vn 1.000000 0.000000 0.000000
vn 1.000000 0.000000 0.000000
vn 1.000000 0.000000 0.000000
vn 1.000000 0.000000 0.000000
vn 1.000000 0.000000 0.000000
vn 1.000000 0.000000 0.000000
vn 1.000000 0.000000 0.000000
vn 1.000000 0.000000 0.000000
vn 1.000000 0.000000 0.000000
vn 1.000000 0.000000 0.000000
vn 1.000000 0.000000 0.000000
vn 1.000000 0.000000 0.000000
vn 1.000000 0.000000 0.000000
vn 1.000000 0.000000 0.000000
vn 1.000000 0.000000 0.000000
vn 1.000000 0.000000 0.000000
vn 1.000000 0.000000 0.000000
vn 1.000000 0.000000 0.000000
vn 1.000000 0.000000 0.000000
vn 1.000000 0.000000 0.000000
vn 1.000000 0.000000 0.000000
vn 1.000000 0.000000 0.000000
vn 1.000000 0.000000 0.000000
vn 1.000000 0.000000 0.000000
vn 1.000000 0.000000 0.000000
vn 1.000000 0.000000 0.000000
vn 1.000000 0.000000 0.000000
vn 1.000000 0.000000 0.000000
vn 1.000000 0.000000 0.000000
vn 0.000000 0.999168 0.040789
vn 0.000000 0.999168 0.040789
vn 0.000000 0.992518 0.122094
vn 0.000000 0.992518 0.122094
vn 0.000000 0.979264 0.202587
vn 0.000000 0.979264 0.202587
vn 0.000000 0.959493 0.281733
vn 0.000000 0.959493 0.281733
vn 0.000000 0.933337 0.359002
vn 0.000000 0.900969 0.433884
vn 0.000000 0.933337 0.359002
vn 0.000000 0.900969 0.433884
vn 0.000000 0.862606 0.505877
vn 0.000000 0.862606 0.505877
vn 0.000000 0.818501 0.574505
vn 0.000000 0.818501 0.574505
vn 0.000000 0.768951 0.639308
vn 0.000000 0.768951 0.639308
vn 0.000000 0.714282 0.699858
vn 0.000000 0.654861 0.755749
vn 0.000000 0.714282 0.699858
vn 0.000000 0.654861 0.755749
vn 0.000000 0.591081 0.806612
vn 0.000000 0.591081 0.806612
vn 0.000000 0.523368 0.852107
vn 0.000000 0.523368 0.852107
vn 0.000000 0.452172 0.891931
vn 0.000000 0.452172 0.891931
vn 0.000000 0.377967 0.925819
vn 0.000000 0.301247 0.953546
vn 0.000000 0.377967 0.925819
vn 0.000000 0.222521 0.974928
vn 0.000000 0.301247 0.953546
vn 0.000000 0.222521 0.974928
vn 0.000000 0.142315 0.989821
vn 0.000000 0.142315 0.989821
vn 0.000000 0.061161 0.998128
vn 0.000000 -0.020398 0.999792
vn 0.000000 0.061161 0.998128
vn 0.000000 -0.020398 0.999792
vn 0.000000 -0.101823 0.994802
vn 0.000000 -0.101823 0.994802
vn 0.000000 -0.182570 0.983193
vn 0.000000 -0.182570 0.983193
vn 0.000000 -0.262102 0.965040
vn 0.000000 -0.262102 0.965040
vn 0.000000 -0.339889 0.940465
vn 0.000000 -0.339889 0.940465
vn 0.000000 -0.415415 0.909632
vn 0.000000 -0.415415 0.909632
vn 0.000000 -0.488176 0.872745
vn 0.000000 -0.488176 0.872745
vn 0.000000 -0.557689 0.830050
vn 0.000000 -0.623489 0.781832
vn 0.000000 -0.557689 0.830050
vn 0.000000 -0.623489 0.781832
vn 0.000000 -0.685142 0.728410
vn 0.000000 -0.685142 0.728410
vn 0.000000 -0.742234 0.670141
vn 0.000000 -0.742234 0.670141
vn 0.000000 -0.794387 0.607412
vn 0.000000 -0.794387 0.607412
vn 0.000000 -0.841253 0.540641
vn 0.000000 -0.841253 0.540641
vn 0.000000 -0.882522 0.470272
vn 0.000000 -0.882522 0.470272
vn 0.000000 -0.917917 0.396773
vn 0.000000 -0.947203 0.320635
vn 0.000000 -0.917917 0.396773
vn 0.000000 -0.947203 0.320635
vn 0.000000 -0.970186 0.242361
vn 0.000000 -0.970186 0.242361
vn 0.000000 -0.986712 0.162476
vn 0.000000 -0.986712 0.162476
vn 0.000000 -0.996673 0.081510
vn 0.000000 -0.996673 0.081510
vn 0.000000 -1.000000 0.000000
vn 0.000000 -1.000000 0.000000
vn 0.000000 -0.996673 -0.081510
vn -0.000000 -0.996673 -0.081510
vn 0.000000 -0.986712 -0.162476
vn -0.000000 -0.986712 -0.162476
vn 0.000000 -0.970186 -0.242361
vn -0.000000 -0.970186 -0.242361
vn 0.000000 -0.947203 -0.320635
vn -0.000000 -0.947203 -0.320635
vn 0.000000 -0.917917 -0.396773
vn -0.000000 -0.917917 -0.396773
vn 0.000000 -0.882522 -0.470272
vn -0.000000 -0.882522 -0.470272
vn 0.000000 -0.841253 -0.540641
vn -0.000000 -0.841253 -0.540641
vn -0.000000 -0.794387 -0.607412
vn 0.000000 -0.794387 -0.607412
vn 0.000000 -0.742234 -0.670141
vn -0.000000 -0.742234 -0.670141
vn -0.000000 -0.685142 -0.728410
vn 0.000000 -0.685142 -0.728410
vn -0.000000 -0.623489 -0.781832
vn 0.000000 -0.623489 -0.781832
vn -0.000000 -0.557689 -0.830050
vn 0.000000 -0.557689 -0.830050
vn -0.000000 -0.488176 -0.872745
vn 0.000000 -0.488176 -0.872745
vn -0.000000 -0.415415 -0.909632
vn 0.000000 -0.415415 -0.909632
vn -0.000000 -0.339889 -0.940465
vn 0.000000 -0.339889 -0.940465
vn -0.000000 -0.262102 -0.965040
vn 0.000000 -0.262102 -0.965040
vn -0.000000 -0.182570 -0.983193
vn 0.000000 -0.182570 -0.983193
vn -0.000000 -0.101823 -0.994802
vn 0.000000 -0.101823 -0.994802
vn -0.000000 -0.020398 -0.999792
vn 0.000000 -0.020398 -0.999792
vn 0.000000 0.061161 -0.998128
vn 0.000000 0.061161 -0.998128
vn 0.000000 0.142315 -0.989821
vn 0.000000 0.142315 -0.989821
vn 0.000000 0.222521 -0.974928
vn 0.000000 0.222521 -0.974928
vn 0.000000 0.301247 -0.953546
vn 0.000000 0.301247 -0.953546
vn 0.000000 0.377967 -0.925819
vn 0.000000 0.377967 -0.925819
vn 0.000000 0.452172 -0.891931
vn 0.000000 0.452172 -0.891931
vn 0.000000 0.523368 -0.852107
vn 0.000000 0.523368 -0.852107
vn 0.000000 0.591081 -0.806612
vn 0.000000 0.591081 -0.806612
vn 0.000000 0.654861 -0.755749
vn 0.000000 0.654861 -0.755749
vn 0.000000 0.714282 -0.699858
vn 0.000000 0.714282 -0.699858
vn 0.000000 0.768951 -0.639308
vn 0.000000 0.768951 -0.639308
vn 0.000000 0.818501 -0.574505
vn 0.000000 0.818501 -0.574505
vn 0.000000 0.862606 -0.505877
vn 0.000000 0.862606 -0.505877
vn 0.000000 0.900969 -0.433884
vn 0.000000 0.900969 -0.433884
vn 0.000000 0.933337 -0.359002
vn 0.000000 0.933337 -0.359002
vn 0.000000 0.959493 -0.281733
vn 0.000000 0.959493 -0.281733
vn 0.000000 0.979264 -0.202587
vn 0.000000 0.979264 -0.202587
vn 0.000000 0.992518 -0.122094
vn 0.000000 0.992518 -0.122094
vn 0.000000 0.999168 -0.040789
vn 0.000000 0.999168 -0.040789
vn -1.000000 0.000000 0.000000
vn -1.000000 0.000000 0.000000
vn -1.000000 0.000000 -0.000000
vn -1.000000 0.000000 0.000000
vn -1.000000 0.000000 0.000000
vn -1.000000 0.000000 0.000000
vn -1.000000 0.000000 0.000000
vn -1.000000 0.000000 0.000000
vn -1.000000 0.000000 -0.000000
vn -1.000000 0.000000 0.000000
vn -1.000000 0.000000 0.000000
vn -1.000000 0.000000 -0.000000
vn -1.000000 0.000000 0.000000
vn -1.000000 0.000000 0.000000
vn -1.000000 0.000000 0.000000
vn -1.000000 0.000000 0.000000
vn -1.000000 0.000000 -0.000000
vn -1.000000 0.000000 0.000000
vn -1.000000 0.000000 0.000000
vn -1.000000 0.000000 0.000000
vn -1.000000 0.000000 -0.000000
vn -1.000000 0.000000 0.000000
vn -1.000000 0.000000 0.000000
vn -1.000000 0.000000 0.000000
vn -1.000000 0.000000 0.000000
vn -1.000000 0.000000 -0.000000
vn -1.000000 0.000000 0.000000
vn -1.000000 0.000000 -0.000000
vn -1.000000 0.000000 0.000000
vn -1.000000 0.000000 0.000000
vn -1.000000 0.000000 0.000000
vn -1.000000 0.000000 -0.000000
vn -1.000000 0.000000 0.000000
vn -1.000000 0.000000 -0.000000
vn -1.000000 0.000000 0.000000
vn -1.000000 0.000000 0.000000
vn -1.000000 0.000000 0.000000
vn -1.000000 0.000000 0.000000
vn -1.000000 0.000000 -0.000000
vn -1.000000 0.000000 0.000000
vn -1.000000 0.000000 0.000000
vn -1.000000 0.000000 0.000000
vn -1.000000 0.000000 0.000000
vn -1.000000 0.000000 -0.000000
vn -1.000000 0.000000 0.000000
vn -1.000000 0.000000 0.000000
vn -1.000000 0.000000 0.000000
vn -1.000000 0.000000 -0.000000
vn -1.000000 0.000000 0.000000
vn -1.000000 0.000000 0.000000
vn -1.000000 0.000000 0.000000
vn -1.000000 0.000000 -0.000000
vn -1.000000 0.000000 0.000000
vn -1.000000 0.000000 0.000000
vn -1.000000 0.000000 0.000000
vn -1.000000 0.000000 0.000000
vn -1.000000 0.000000 0.000000
vn -1.000000 0.000000 -0.000000
vn -1.000000 0.000000 0.000000
vn -1.000000 0.000000 0.000000
vn -1.000000 0.000000 0.000000
vn -1.000000 0.000000 -0.000000
vn -1.000000 0.000000 0.000000
vn -1.000000 0.000000 0.000000
vn -1.000000 0.000000 0.000000
vn -1.000000 0.000000 -0.000000
vn -1.000000 0.000000 -0.000000
vn -1.000000 0.000000 0.000000
vn -1.000000 0.000000 0.000000
vn -1.000000 0.000000 0.000000
vn -1.000000 0.000000 -0.000000
vn -1.000000 0.000000 0.000000
vn -1.000000 0.000000 -0.000000
vn -1.000000 0.000000 0.000000
vn -1.000000 0.000000 0.000000
vn -1.000000 0.000000 0.000000
vn -1.000000 0.000000 0.000000
vn -1.000000 0.000000 -0.000000
vn -1.000000 0.000000 0.000000
vn -1.000000 0.000000 0.000000
vn -1.000000 0.000000 -0.000000
vn -1.000000 0.000000 0.000000
vn -1.000000 0.000000 0.000000
vn -1.000000 0.000000 -0.000000
vn -1.000000 0.000000 0.000000
vn -1.000000 0.000000 0.000000
vn -1.000000 0.000000 -0.000000
vn -1.000000 0.000000 0.000000
vn -1.000000 0.000000 0.000000
vn -1.000000 0.000000 0.000000
vn -1.000000 0.000000 -0.000000
vn -1.000000 0.000000 0.000000
vn -1.000000 0.000000 0.000000
vn -1.000000 0.000000 -0.000000
vn -1.000000 0.000000 0.000000
vn -1.000000 0.000000 0.000000
vn -1.000000 0.000000 0.000000
vn -1.000000 0.000000 -0.000000
vn -1.000000 0.000000 0.000000
vn -1.000000 0.000000 0.000000
vn -1.000000 0.000000 0.000000
vn -1.000000 0.000000 -0.000000
vn -1.000000 0.000000 0.000000
vn -1.000000 0.000000 -0.000000
vn -1.000000 0.000000 0.000000
vn -1.000000 0.000000 0.000000
vn -1.000000 0.000000 -0.000000
vn -1.000000 0.000000 0.000000
vn -1.000000 0.000000 0.000000
vn -1.000000 0.000000 -0.000000
vn -1.000000 0.000000 0.000000
vn -1.000000 0.000000 0.000000
vn -1.000000 0.000000 0.000000
vn -1.000000 0.000000 -0.000000
vn -1.000000 0.000000 0.000000
vn -1.000000 0.000000 0.000000
vn -1.000000 0.000000 -0.000000
vn -1.000000 0.000000 0.000000
vn -1.000000 0.000000 0.000000
vn -1.000000 0.000000 -0.000000
vn -1.000000 0.000000 0.000000
vn -1.000000 0.000000 0.000000
vn -1.000000 0.000000 -0.000000
vn -1.000000 0.000000 0.000000
vn -1.000000 0.000000 0.000000
vn -1.000000 0.000000 0.000000
vn -1.000000 0.000000 -0.000000
vn -1.000000 0.000000 0.000000
vn -1.000000 0.000000 0.000000
vn -1.000000 0.000000 -0.000000
vn -1.000000 0.000000 0.000000
vn -1.000000 0.000000 0.000000
vn 0.000000 0.998369 0.057089
vn 0.000000 0.998369 0.057089
vn 0.000000 0.985354 0.170522
vn 0.000000 0.959493 0.281733
vn 0.000000 0.985354 0.170522
vn 0.000000 0.959493 0.281733
vn 0.000000 0.921124 0.389270
vn 0.000000 0.870746 0.491733
vn 0.000000 0.921124 0.389270
vn 0.000000 0.870746 0.491733
vn 0.000000 0.809017 0.587785
vn 0.000000 0.809017 0.587785
vn 0.000000 0.736741 0.676175
vn 0.000000 0.736741 0.676175
vn 0.000000 0.654861 0.755750
vn 0.000000 0.654861 0.755750
vn 0.000000 0.564443 0.825472
vn 0.000000 0.466667 0.884433
vn 0.000000 0.564443 0.825472
vn 0.000000 0.466667 0.884433
vn 0.000000 0.362808 0.931864
vn 0.000000 0.362808 0.931864
vn 0.000000 0.254218 0.967147
vn 0.000000 0.254218 0.967147
vn 0.000000 0.142315 0.989821
vn 0.000000 0.142315 0.989821
vn 0.000000 0.028556 0.999592
vn 0.000000 -0.085575 0.996332
vn 0.000000 0.028556 0.999592
vn 0.000000 -0.085575 0.996332
vn 0.000000 -0.198590 0.980083
vn 0.000000 -0.198590 0.980083
vn 0.000000 -0.309017 0.951056
vn 0.000000 -0.309017 0.951056
vn 0.000000 -0.415415 0.909632
vn 0.000000 -0.516398 0.856349
vn 0.000000 -0.415415 0.909632
vn 0.000000 -0.610648 0.791902
vn 0.000000 -0.516398 0.856349
vn 0.000000 -0.610648 0.791902
vn 0.000000 -0.696938 0.717132
vn 0.000000 -0.774142 0.633012
vn 0.000000 -0.696938 0.717132
vn 0.000000 -0.774142 0.633012
vn 0.000000 -0.841253 0.540641
vn 0.000000 -0.841253 0.540641
vn 0.000000 -0.897399 0.441221
vn 0.000000 -0.897399 0.441221
vn 0.000000 -0.941844 0.336050
vn 0.000000 -0.941844 0.336050
vn 0.000000 -0.974012 0.226497
vn 0.000000 -0.974012 0.226497
vn 0.000000 -0.993482 0.113991
vn 0.000000 -0.993482 0.113991
vn 0.000000 -1.000000 0.000000
vn 0.000000 -1.000000 0.000000
vn -0.000000 -0.993482 -0.113991
vn -0.000000 -0.993482 -0.113991
vn -0.000000 -0.974012 -0.226497
vn 0.000000 -0.974012 -0.226497
vn -0.000000 -0.941844 -0.336050
vn 0.000000 -0.941844 -0.336050
vn -0.000000 -0.897399 -0.441221
vn -0.000000 -0.841253 -0.540641
vn 0.000000 -0.897399 -0.441221
vn -0.000000 -0.774142 -0.633012
vn -0.000000 -0.841253 -0.540641
vn -0.000000 -0.774142 -0.633012
vn -0.000000 -0.696938 -0.717132
vn 0.000000 -0.696938 -0.717132
vn -0.000000 -0.610648 -0.791902
vn 0.000000 -0.610648 -0.791902
vn -0.000000 -0.516398 -0.856349
vn 0.000000 -0.516398 -0.856349
vn -0.000000 -0.415415 -0.909632
vn 0.000000 -0.415415 -0.909632
vn -0.000000 -0.309017 -0.951056
vn 0.000000 -0.309017 -0.951056
vn -0.000000 -0.198590 -0.980083
vn 0.000000 -0.198590 -0.980083
vn -0.000000 -0.085575 -0.996332
vn 0.000000 -0.085575 -0.996332
vn 0.000000 0.028556 -0.999592
vn 0.000000 0.028556 -0.999592
vn 0.000000 0.142315 -0.989821
vn 0.000000 0.254218 -0.967147
vn 0.000000 0.142315 -0.989821
vn 0.000000 0.362808 -0.931864
vn 0.000000 0.254218 -0.967147
vn 0.000000 0.362808 -0.931864
vn 0.000000 0.466667 -0.884433
vn 0.000000 0.466667 -0.884433
vn 0.000000 0.564443 -0.825472
vn 0.000000 0.564443 -0.825472
vn 0.000000 0.654861 -0.755750
vn 0.000000 0.654861 -0.755750
vn 0.000000 0.736741 -0.676175
vn 0.000000 0.736741 -0.676175
vn 0.000000 0.809017 -0.587785
vn 0.000000 0.809017 -0.587785
vn 0.000000 0.870746 -0.491733
vn 0.000000 0.870746 -0.491733
vn 0.000000 0.921124 -0.389270
vn 0.000000 0.921124 -0.389270
vn 0.000000 0.959493 -0.281733
vn 0.000000 0.959493 -0.281733
vn 0.000000 0.985354 -0.170522
vn 0.000000 0.985354 -0.170522
vn 0.000000 0.998369 -0.057089
vn 0.000000 0.998369 -0.057089
vn -1.000000 0.000000 0.000000
vn -1.000000 0.000000 -0.000000
vn -1.000000 0.000000 0.000000
vn -1.000000 0.000000 0.000000
vn -1.000000 0.000000 0.000000
vn -1.000000 0.000000 0.000000
vn -1.000000 0.000000 -0.000000
vn -1.000000 0.000000 0.000000
vn -1.000000 0.000000 0.000000
vn -1.000000 0.000000 0.000000
vn -1.000000 0.000000 -0.000000
vn -1.000000 0.000000 0.000000
vn -1.000000 0.000000 0.000000
vn -1.000000 0.000000 -0.000000
vn -1.000000 0.000000 0.000000
vn -1.000000 0.000000 -0.000000
vn -1.000000 0.000000 0.000000
vn -1.000000 0.000000 0.000000
vn -1.000000 0.000000 -0.000000
vn -1.000000 0.000000 -0.000000
vn -1.000000 0.000000 0.000000
vn -1.000000 0.000000 0.000000
vn -1.000000 0.000000 -0.000000
vn -1.000000 0.000000 0.000000
vn -1.000000 0.000000 -0.000000
vn -1.000000 0.000000 0.000000
vn -1.000000 0.000000 -0.000000
vn -1.000000 0.000000 0.000000
vn -1.000000 0.000000 0.000000
vn -1.000000 0.000000 0.000000
vn -1.000000 0.000000 -0.000000
vn -1.000000 0.000000 0.000000
vn -1.000000 0.000000 0.000000
vn -1.000000 0.000000 0.000000
vn -1.000000 0.000000 0.000000
vn -1.000000 0.000000 0.000000
vn -1.000000 0.000000 -0.000000
vn -1.000000 0.000000 0.000000
vn -1.000000 0.000000 0.000000
vn -1.000000 0.000000 0.000000
vn -1.000000 0.000000 -0.000000
vn -1.000000 0.000000 0.000000
vn -1.000000 0.000000 0.000000
vn -1.000000 0.000000 -0.000000
vn -1.000000 0.000000 0.000000
vn -1.000000 0.000000 0.000000
vn -1.000000 0.000000 0.000000
vn -1.000000 0.000000 -0.000000
vn -1.000000 0.000000 -0.000000
vn -1.000000 0.000000 0.000000
vn -1.000000 0.000000 0.000000
vn -1.000000 0.000000 -0.000000
vn -1.000000 0.000000 -0.000000
vn -1.000000 0.000000 0.000000
vn -1.000000 0.000000 0.000000
vn -1.000000 0.000000 -0.000000
vn -1.000000 0.000000 0.000000
vn -1.000000 0.000000 0.000000
vn -1.000000 0.000000 0.000000
vn -1.000000 0.000000 -0.000000
vn -1.000000 0.000000 0.000000
vn -1.000000 0.000000 0.000000
vn -1.000000 0.000000 0.000000
vn -1.000000 0.000000 -0.000000
vn -1.000000 0.000000 0.000000
vn -1.000000 0.000000 0.000000
vn -1.000000 0.000000 0.000000
vn -1.000000 0.000000 -0.000000
vn -1.000000 0.000000 0.000000
vn -1.000000 0.000000 0.000000
vn -1.000000 0.000000 0.000000
vn -1.000000 0.000000 -0.000000
vn -1.000000 0.000000 0.000000
vn -1.000000 0.000000 0.000000
vn -1.000000 0.000000 -0.000000
vn -1.000000 0.000000 0.000000
vn -1.000000 0.000000 0.000000
vn -1.000000 0.000000 0.000000
vn -1.000000 0.000000 -0.000000
vn -1.000000 0.000000 0.000000
vn -1.000000 0.000000 -0.000000
vn -1.000000 0.000000 0.000000
vn -1.000000 0.000000 0.000000
vn -1.000000 0.000000 -0.000000
vn -1.000000 0.000000 0.000000
vn -1.000000 0.000000 0.000000
vn -1.000000 0.000000 0.000000
vn -1.000000 0.000000 -0.000000
vn -1.000000 0.000000 0.000000
vn -1.000000 0.000000 0.000000
vn -1.000000 0.000000 0.000000
vn -1.000000 0.000000 -0.000000
vn -1.000000 0.000000 0.000000
vn -1.000000 0.000000 0.000000
vn -1.000000 0.000000 -0.000000
vn -1.000000 0.000000 0.000000
vn -1.000000 0.000000 0.000000
vn -1.000000 0.000000 0.000000
vn -1.000000 0.000000 0.000000
vn -1.000000 0.000000 -0.000000
f 1//1 2//1 3//1
f 1//2 3//2 4//2
f 1//3 4//3 5//3
f 6//4 1//4 5//4
f 7//5 6//5 5//5
f 7//6 5//6 8//6
f 7//7 8//7 9//7
f 10//8 7//8 9//8
f 11//9 10//9 9//9
f 11//10 9//10 12//10
f 13//11 11//11 12//11
f 13//12 12//12 14//12
f 15//13 13//13 14//13
f 15//14 14//14 16//14
f 15//15 16//15 17//15
f 18//16 15//16 17//16
f 19//17 18//17 17//17
f 19//18 17//18 20//18
f 21//19 19//19 20//19
f 21//20 20//20 22//20
f 23//21 21//21 22//21
f 23//22 22//22 24//22
f 25//23 23//23 24//23
f 25//24 24//24 26//24
f 25//25 26//25 27//25
f 28//26 25//26 27//26
f 29//27 28//27 27//27
f 29//28 27//28 30//28
f 29//29 30//29 31//29
f 32//30 29//30 31//30
f 32//31 31//31 33//31
f 34//32 32//32 33//32
f 34//33 33//33 35//33
f 36//34 34//34 35//34
f 37//35 36//35 35//35
f 37//36 35//36 38//36
f 37//37 38//37 39//37
f 40//38 37//38 39//38
f 41//39 39//39 42//39
f 41//40 40//40 39//40
f 43//41 42//41 44//41
f 43//42 41//42 42//42
f 45//43 44//43 46//43
f 45//44 43//44 44//44
f 47//45 46//45 48//45
f 47//46 45//46 46//46
f 49//47 48//47 50//47
f 49//48 47//48 48//48
f 51//49 50//49 52//49
f 51//50 49//50 50//50
f 53//51 52//51 54//51
f 53//52 51//52 52//52
f 55//53 53//53 54//53
f 55//54 54//54 56//54
f 55//55 56//55 57//55
f 58//56 55//56 57//56
f 59//57 58//57 57//57
f 59//58 57//58 60//58
f 61//59 59//59 60//59
f 61//60 60//60 62//60
f 63//61 61//61 62//61
f 63//62 62//62 64//62
f 65//63 63//63 64//63
f 65//64 64//64 66//64
f 67//65 65//65 66//65
f 67//66 66//66 68//66
f 69//67 67//67 68//67
f 69//68 68//68 70//68
f 69//69 70//69 71//69
f 72//70 69//70 71//70
f 73//71 72//71 71//71
f 73//72 71//72 74//72
f 73//73 74//73 75//73
f 76//74 73//74 75//74
f 77//75 76//75 75//75
f 77//76 75//76 78//76
f 77//77 78//77 79//77
f 80//78 77//78 79//78
f 81//79 80//79 79//79
f 81//80 79//80 82//80
f 83//81 81//81 82//81
f 83//82 82//82 84//82
f 85//83 83//83 84//83
f 85//84 84//84 86//84
f 85//85 86//85 87//85
f 88//86 85//86 87//86
f 89//87 88//87 87//87
f 89//88 87//88 90//88
f 2//89 89//89 90//89
f 2//90 90//90 3//90
f 57//91 91//91 92//91
f 60//92 57//92 92//92
f 60//93 92//93 93//93
f 56//94 91//94 57//94
f 56//95 94//95 95//95
f 56//96 95//96 91//96
f 62//97 93//97 96//97
f 62//98 96//98 97//98
f 62//99 60//99 93//99
f 54//100 94//100 56//100
f 54//101 98//101 94//101
f 64//102 97//102 99//102
f 64//103 62//103 97//103
f 52//104 100//104 101//104
f 52//105 101//105 98//105
f 52//106 98//106 54//106
f 66//107 64//107 99//107
f 66//108 99//108 102//108
f 66//109 102//109 103//109
f 50//110 104//110 100//110
f 50//111 100//111 52//111
f 68//112 66//112 103//112
f 68//113 103//113 105//113
f 48//114 106//114 104//114
f 48//115 104//115 50//115
f 70//116 105//116 107//116
f 70//117 68//117 105//117
f 46//118 108//118 109//118
f 46//119 109//119 106//119
f 46//120 106//120 48//120
f 71//121 107//121 110//121
f 71//122 110//122 111//122
f 71//123 70//123 107//123
f 44//124 112//124 108//124
f 44//125 108//125 46//125
f 74//126 111//126 113//126
f 74//127 71//127 111//127
f 42//128 114//128 115//128
f 42//129 115//129 112//129
f 42//130 112//130 44//130
f 75//131 113//131 116//131
f 75//132 116//132 117//132
f 75//133 74//133 113//133
f 39//134 118//134 114//134
f 39//135 114//135 42//135
f 78//136 75//136 117//136
f 78//137 117//137 119//137
f 38//138 120//138 118//138
f 38//139 118//139 39//139
f 79//140 78//140 119//140
f 121//141 79//141 119//141
f 35//142 120//142 38//142
f 35//143 122//143 120//143
f 82//144 79//144 121//144
f 123//145 122//145 35//145
f 123//146 35//146 33//146
f 124//147 82//147 121//147
f 125//148 123//148 33//148
f 125//149 33//149 31//149
f 126//150 84//150 82//150
f 126//151 82//151 124//151
f 127//152 125//152 31//152
f 128//153 86//153 84//153
f 128//154 84//154 126//154
f 129//155 127//155 31//155
f 129//156 31//156 30//156
f 130//157 86//157 128//157
f 131//158 129//158 30//158
f 131//159 30//159 27//159
f 132//160 87//160 86//160
f 132//161 86//161 130//161
f 133//162 131//162 27//162
f 134//163 90//163 87//163
f 134//164 87//164 132//164
f 135//165 27//165 26//165
f 135//166 133//166 27//166
f 136//167 3//167 90//167
f 136//168 90//168 134//168
f 137//169 26//169 24//169
f 137//170 135//170 26//170
f 138//171 3//171 136//171
f 139//172 24//172 22//172
f 139//173 137//173 24//173
f 140//174 4//174 3//174
f 140//175 3//175 138//175
f 141//176 139//176 22//176
f 142//177 5//177 4//177
f 142//178 4//178 140//178
f 143//179 22//179 20//179
f 143//180 141//180 22//180
f 144//181 8//181 5//181
f 144//182 5//182 142//182
f 145//183 143//183 20//183
f 145//184 20//184 17//184
f 146//185 8//185 144//185
f 147//186 145//186 17//186
f 147//187 17//187 16//187
f 148//188 8//188 146//188
f 148//189 9//189 8//189
f 149//190 147//190 16//190
f 150//191 9//191 148//191
f 150//192 12//192 9//192
f 151//193 149//193 16//193
f 151//194 16//194 14//194
f 152//195 12//195 150//195
f 153//196 151//196 14//196
f 153//197 12//197 152//197
f 153//198 14//198 12//198
f 140//199 154//199 155//199
f 140//200 155//200 156//200
f 140//201 138//201 154//201
f 142//202 140//202 156//202
f 144//203 156//203 157//203
f 144//204 142//204 156//204
f 146//205 157//205 158//205
f 146//206 144//206 157//206
f 148//207 158//207 159//207
f 148//208 159//208 160//208
f 148//209 146//209 158//209
f 150//210 148//210 160//210
f 152//211 160//211 161//211
f 152//212 150//212 160//212
f 153//213 161//213 162//213
f 153//214 152//214 161//214
f 151//215 162//215 163//215
f 151//216 153//216 162//216
f 149//217 163//217 164//217
f 149//218 151//218 163//218
f 147//219 164//219 165//219
f 147//220 149//220 164//220
f 145//221 165//221 166//221
f 145//222 147//222 165//222
f 143//223 166//223 167//223
f 143//224 167//224 168//224
f 143//225 145//225 166//225
f 141//226 168//226 169//226
f 141//227 143//227 168//227
f 139//228 141//228 169//228
f 137//229 169//229 170//229
f 137//230 139//230 169//230
f 135//231 170//231 171//231
f 135//232 137//232 170//232
f 133//233 135//233 171//233
f 133//234 171//234 172//234
f 133//235 172//235 173//235
f 131//236 133//236 173//236
f 129//237 131//237 173//237
f 129//238 173//238 174//238
f 127//239 129//239 174//239
f 127//240 174//240 175//240
f 127//241 175//241 176//241
f 125//242 127//242 176//242
f 125//243 176//243 177//243
f 123//244 125//244 177//244
f 122//245 177//245 178//245
f 122//246 123//246 177//246
f 120//247 178//247 179//247
f 120//248 122//248 178//248
f 120//249 179//249 180//249
f 118//250 120//250 180//250
f 114//251 180//251 181//251
f 114//252 118//252 180//252
f 115//253 181//253 182//253
f 115//254 114//254 181//254
f 112//255 182//255 183//255
f 112//256 115//256 182//256
f 108//257 183//257 184//257
f 108//258 184//258 185//258
f 108//259 112//259 183//259
f 109//260 108//260 185//260
f 106//261 185//261 186//261
f 106//262 109//262 185//262
f 104//263 186//263 187//263
f 104//264 187//264 188//264
f 104//265 106//265 186//265
f 100//266 188//266 189//266
f 100//267 104//267 188//267
f 101//268 100//268 189//268
f 98//269 189//269 190//269
f 98//270 101//270 189//270
f 94//271 190//271 191//271
f 94//272 98//272 190//272
f 95//273 191//273 192//273
f 95//274 94//274 191//274
f 91//275 192//275 193//275
f 91//276 95//276 192//276
f 92//277 193//277 194//277
f 92//278 91//278 193//278
f 93//279 194//279 195//279
f 93//280 92//280 194//280
f 96//281 195//281 196//281
f 96//282 93//282 195//282
f 97//283 96//283 196//283
f 97//284 196//284 197//284
f 99//285 97//285 197//285
f 99//286 197//286 198//286
f 102//287 99//287 198//287
f 102//288 198//288 199//288
f 103//289 102//289 199//289
f 103//290 199//290 200//290
f 105//291 103//291 200//291
f 105//292 200//292 201//292
f 107//293 105//293 201//293
f 107//294 201//294 202//294
f 110//295 107//295 202//295
f 110//296 202//296 203//296
f 111//297 110//297 203//297
f 111//298 203//298 204//298
f 113//299 111//299 204//299
f 113//300 204//300 205//300
f 116//301 113//301 205//301
f 116//302 205//302 206//302
f 117//303 116//303 206//303
f 117//304 206//304 207//304
f 119//305 117//305 207//305
f 119//306 207//306 208//306
f 121//307 119//307 208//307
f 121//308 208//308 209//308
f 124//309 121//309 209//309
f 124//310 209//310 210//310
f 126//311 210//311 211//311
f 126//312 124//312 210//312
f 128//313 211//313 212//313
f 128//314 126//314 211//314
f 130//315 212//315 213//315
f 130//316 128//316 212//316
f 132//317 213//317 214//317
f 132//318 130//318 213//318
f 134//319 214//319 215//319
f 134//320 132//320 214//320
f 136//321 215//321 216//321
f 136//322 216//322 154//322
f 136//323 134//323 215//323
f 138//324 136//324 154//324
f 193//325 217//325 218//325
f 193//326 218//326 219//326
f 194//327 219//327 220//327
f 194//328 193//328 219//328
f 192//329 221//329 217//329
f 192//330 217//330 193//330
f 195//331 220//331 222//331
f 195//332 194//332 220//332
f 191//333 223//333 221//333
f 191//334 221//334 192//334
f 196//335 222//335 224//335
f 196//336 195//336 222//336
f 190//337 225//337 223//337
f 190//338 223//338 191//338
f 197//339 224//339 226//339
f 197//340 196//340 224//340
f 189//341 227//341 225//341
f 189//342 225//342 190//342
f 198//343 226//343 228//343
f 198//344 228//344 229//344
f 198//345 197//345 226//345
f 188//346 227//346 189//346
f 188//347 230//347 231//347
f 188//348 231//348 227//348
f 199//349 229//349 232//349
f 199//350 198//350 229//350
f 187//351 233//351 230//351
f 187//352 230//352 188//352
f 200//353 199//353 232//353
f 200//354 232//354 234//354
f 186//355 233//355 187//355
f 186//356 235//356 233//356
f 201//357 234//357 236//357
f 201//358 200//358 234//358
f 185//359 235//359 186//359
f 185//360 237//360 235//360
f 202//361 201//361 236//361
f 202//362 236//362 238//362
f 202//363 238//363 239//363
f 184//364 237//364 185//364
f 184//365 240//365 237//365
f 203//366 202//366 239//366
f 203//367 239//367 241//367
f 183//368 242//368 243//368
f 183//369 240//369 184//369
f 183//370 243//370 240//370
f 204//371 203//371 241//371
f 204//372 241//372 244//372
f 182//373 242//373 183//373
f 182//374 245//374 242//374
f 205//375 204//375 244//375
f 205//376 244//376 246//376
f 181//377 247//377 245//377
f 181//378 245//378 182//378
f 206//379 205//379 246//379
f 206//380 246//380 248//380
f 180//381 249//381 247//381
f 180//382 247//382 181//382
f 207//383 206//383 248//383
f 207//384 248//384 250//384
f 251//385 207//385 250//385
f 179//386 252//386 249//386
f 179//387 249//387 180//387
f 208//388 207//388 251//388
f 253//389 208//389 251//389
f 178//390 254//390 252//390
f 178//391 252//391 179//391
f 209//392 208//392 253//392
f 255//393 209//393 253//393
f 256//394 254//394 178//394
f 177//395 256//395 178//395
f 210//396 209//396 255//396
f 257//397 210//397 255//397
f 258//398 256//398 177//398
f 258//399 177//399 176//399
f 211//400 210//400 257//400
f 259//401 212//401 211//401
f 259//402 211//402 257//402
f 260//403 258//403 176//403
f 260//404 176//404 175//404
f 261//405 260//405 175//405
f 261//406 175//406 174//406
f 262//407 212//407 259//407
f 263//408 213//408 212//408
f 263//409 212//409 262//409
f 264//410 261//410 174//410
f 264//411 174//411 173//411
f 265//412 264//412 173//412
f 266//413 213//413 263//413
f 266//414 214//414 213//414
f 267//415 265//415 173//415
f 267//416 173//416 172//416
f 268//417 214//417 266//417
f 268//418 215//418 214//418
f 269//419 267//419 172//419
f 269//420 172//420 171//420
f 270//421 215//421 268//421
f 270//422 216//422 215//422
f 271//423 269//423 171//423
f 271//424 171//424 170//424
f 272//425 216//425 270//425
f 272//426 154//426 216//426
f 273//427 154//427 272//427
f 274//428 271//428 170//428
f 274//429 170//429 169//429
f 275//430 274//430 169//430
f 276//431 154//431 273//431
f 276//432 155//432 154//432
f 277//433 275//433 169//433
f 277//434 169//434 168//434
f 278//435 156//435 155//435
f 278//436 155//436 276//436
f 279//437 277//437 168//437
f 279//438 168//438 167//438
f 280//439 157//439 156//439
f 280//440 156//440 278//440
f 281//441 167//441 166//441
f 281//442 279//442 167//442
f 282//443 158//443 157//443
f 282//444 157//444 280//444
f 283//445 158//445 282//445
f 283//446 159//446 158//446
f 284//447 166//447 165//447
f 284//448 281//448 166//448
f 285//449 159//449 283//449
f 286//450 165//450 164//450
f 286//451 284//451 165//451
f 287//452 160//452 159//452
f 287//453 159//453 285//453
f 288//454 286//454 164//454
f 289//455 160//455 287//455
f 289//456 161//456 160//456
f 290//457 288//457 164//457
f 290//458 164//458 163//458
f 291//459 161//459 289//459
f 291//460 162//460 161//460
f 292//461 290//461 163//461
f 292//462 162//462 291//462
f 292//463 163//463 162//463
f 276//464 293//464 294//464
f 276//465 273//465 293//465
f 278//466 294//466 295//466
f 278//467 295//467 296//467
f 278//468 276//468 294//468
f 280//469 296//469 297//469
f 280//470 278//470 296//470
f 282//471 280//471 297//471
f 283//472 297//472 298//472
f 283//473 298//473 299//473
f 283//474 282//474 297//474
f 285//475 283//475 299//475
f 287//476 299//476 300//476
f 287//477 300//477 301//477
f 287//478 285//478 299//478
f 289//479 287//479 301//479
f 291//480 301//480 302//480
f 291//481 289//481 301//481
f 292//482 302//482 303//482
f 292//483 291//483 302//483
f 290//484 303//484 304//484
f 290//485 292//485 303//485
f 288//486 290//486 304//486
f 288//487 304//487 305//487
f 286//488 288//488 305//488
f 286//489 305//489 306//489
f 284//490 306//490 307//490
f 284//491 286//491 306//491
f 281//492 307//492 308//492
f 281//493 308//493 309//493
f 281//494 284//494 307//494
f 279//495 309//495 310//495
f 279//496 281//496 309//496
f 277//497 310//497 311//497
f 277//498 279//498 310//498
f 275//499 277//499 311//499
f 274//500 275//500 311//500
f 274//501 311//501 312//501
f 271//502 312//502 313//502
f 271//503 274//503 312//503
f 269//504 313//504 314//504
f 269//505 271//505 313//505
f 267//506 314//506 315//506
f 267//507 269//507 314//507
f 265//508 315//508 316//508
f 265//509 267//509 315//509
f 264//510 316//510 317//510
f 264//511 265//511 316//511
f 261//512 317//512 318//512
f 261//513 264//513 317//513
f 260//514 318//514 319//514
f 260//515 261//515 318//515
f 258//516 319//516 320//516
f 258//517 260//517 319//517
f 256//518 320//518 321//518
f 256//519 321//519 322//519
f 256//520 258//520 320//520
f 254//521 256//521 322//521
f 252//522 322//522 323//522
f 252//523 254//523 322//523
f 249//524 323//524 324//524
f 249//525 252//525 323//525
f 247//526 324//526 325//526
f 247//527 249//527 324//527
f 245//528 325//528 326//528
f 245//529 326//529 327//529
f 245//530 247//530 325//530
f 242//531 245//531 327//531
f 243//532 327//532 328//532
f 243//533 242//533 327//533
f 240//534 328//534 329//534
f 240//535 243//535 328//535
f 237//536 240//536 329//536
f 237//537 329//537 330//537
f 237//538 330//538 331//538
f 235//539 237//539 331//539
f 233//540 235//540 331//540
f 233//541 331//541 332//541
f 233//542 332//542 333//542
f 230//543 233//543 333//543
f 231//544 230//544 333//544
f 231//545 333//545 334//545
f 227//546 231//546 334//546
f 227//547 334//547 335//547
f 225//548 227//548 335//548
f 225//549 335//549 336//549
f 225//550 336//550 337//550
f 223//551 225//551 337//551
f 221//552 223//552 337//552
f 221//553 337//553 338//553
f 217//554 221//554 338//554
f 217//555 338//555 339//555
f 217//556 339//556 340//556
f 218//557 217//557 340//557
f 219//558 218//558 340//558
f 219//559 340//559 341//559
f 219//560 341//560 342//560
f 220//561 219//561 342//561
f 222//562 342//562 343//562
f 222//563 343//563 344//563
f 222//564 220//564 342//564
f 224//565 344//565 345//565
f 224//566 222//566 344//566
f 226//567 224//567 345//567
f 228//568 345//568 346//568
f 228//569 226//569 345//569
f 229//570 346//570 347//570
f 229//571 228//571 346//571
f 232//572 347//572 348//572
f 232//573 229//573 347//573
f 234//574 348//574 349//574
f 234//575 232//575 348//575
f 236//576 349//576 350//576
f 236//577 350//577 351//577
f 236//578 234//578 349//578
f 238//579 236//579 351//579
f 239//580 351//580 352//580
f 239//581 238//581 351//581
f 241//582 352//582 353//582
f 241//583 353//583 354//583
f 241//584 239//584 352//584
f 244//585 241//585 354//585
f 246//586 244//586 354//586
f 246//587 354//587 355//587
f 248//588 246//588 355//588
f 248//589 355//589 356//589
f 250//590 248//590 356//590
f 250//591 356//591 357//591
f 251//592 250//592 357//592
f 251//593 357//593 358//593
f 253//594 251//594 358//594
f 253//595 358//595 359//595
f 253//596 359//596 360//596
f 255//597 253//597 360//597
f 257//598 255//598 360//598
f 257//599 360//599 361//599
f 259//600 257//600 361//600
f 259//601 361//601 362//601
f 262//602 259//602 362//602
f 262//603 362//603 363//603
f 263//604 262//604 363//604
f 263//605 363//605 364//605
f 266//606 263//606 364//606
f 266//607 364//607 365//607
f 268//608 266//608 365//608
f 268//609 365//609 366//609
f 270//610 268//610 366//610
f 270//611 366//611 367//611
f 272//612 270//612 367//612
f 272//613 367//613 368//613
f 273//614 272//614 368//614
f 273//615 368//615 293//615
f 341//616 369//616 370//616
f 340//617 371//617 369//617
f 340//618 369//618 341//618
f 342//619 370//619 372//619
f 342//620 341//620 370//620
f 339//621 373//621 371//621
f 339//622 371//622 340//622
f 343//623 372//623 374//623
f 343//624 342//624 372//624
f 338//625 375//625 373//625
f 338//626 373//626 339//626
f 344//627 374//627 376//627
f 344//628 343//628 374//628
f 337//629 377//629 375//629
f 337//630 375//630 338//630
f 345//631 376//631 378//631
f 345//632 344//632 376//632
f 336//633 379//633 377//633
f 336//634 377//634 337//634
f 346//635 378//635 380//635
f 346//636 345//636 378//636
f 335//637 381//637 379//637
f 335//638 379//638 336//638
f 347//639 380//639 382//639
f 347//640 346//640 380//640
f 334//641 381//641 335//641
f 334//642 383//642 381//642
f 348//643 347//643 382//643
f 348//644 382//644 384//644
f 333//645 383//645 334//645
f 333//646 385//646 383//646
f 349//647 348//647 384//647
f 349//648 384//648 386//648
f 332//649 385//649 333//649
f 387//650 385//650 332//650
f 350//651 349//651 386//651
f 350//652 386//652 388//652
f 331//653 387//653 332//653
f 389//654 387//654 331//654
f 351//655 350//655 388//655
f 351//656 388//656 390//656
f 330//657 389//657 331//657
f 391//658 389//658 330//658
f 352//659 351//659 390//659
f 352//660 390//660 392//660
f 329//661 391//661 330//661
f 393//662 391//662 329//662
f 353//663 352//663 392//663
f 353//664 392//664 394//664
f 328//665 393//665 329//665
f 395//666 393//666 328//666
f 354//667 353//667 394//667
f 354//668 394//668 396//668
f 327//669 395//669 328//669
f 397//670 395//670 327//670
f 355//671 354//671 396//671
f 326//672 397//672 327//672
f 398//673 355//673 396//673
f 399//674 397//674 326//674
f 356//675 355//675 398//675
f 325//676 399//676 326//676
f 400//677 356//677 398//677
f 401//678 399//678 325//678
f 357//679 356//679 400//679
f 324//680 401//680 325//680
f 402//681 357//681 400//681
f 403//682 401//682 324//682
f 358//683 357//683 402//683
f 323//684 403//684 324//684
f 404//685 358//685 402//685
f 405//686 403//686 323//686
f 359//687 358//687 404//687
f 322//688 405//688 323//688
f 406//689 359//689 404//689
f 407//690 405//690 322//690
f 360//691 359//691 406//691
f 321//692 407//692 322//692
f 408//693 360//693 406//693
f 409//694 407//694 321//694
f 320//695 409//695 321//695
f 361//696 360//696 408//696
f 410//697 361//697 408//697
f 411//698 409//698 320//698
f 319//699 411//699 320//699
f 362//700 361//700 410//700
f 412//701 362//701 410//701
f 413//702 411//702 319//702
f 318//703 413//703 319//703
f 363//704 362//704 412//704
f 414//705 363//705 412//705
f 415//706 413//706 318//706
f 317//707 415//707 318//707
f 364//708 363//708 414//708
f 416//709 364//709 414//709
f 417//710 415//710 317//710
f 316//711 417//711 317//711
f 365//712 364//712 416//712
f 418//713 365//713 416//713
f 419//714 417//714 316//714
f 315//715 419//715 316//715
f 366//716 365//716 418//716
f 420//717 366//717 418//717
f 421//718 419//718 315//718
f 314//719 421//719 315//719
f 367//720 366//720 420//720
f 422//721 367//721 420//721
f 423//722 421//722 314//722
f 313//723 423//723 314//723
f 368//724 367//724 422//724
f 424//725 368//725 422//725
f 425//726 423//726 313//726
f 312//727 425//727 313//727
f 293//728 368//728 424//728
f 426//729 293//729 424//729
f 427//730 425//730 312//730
f 311//731 427//731 312//731
f 428//732 294//732 293//732
f 428//733 293//733 426//733
f 429//734 427//734 311//734
f 310//735 429//735 311//735
f 430//736 295//736 294//736
f 430//737 294//737 428//737
f 431//738 429//738 310//738
f 309//739 431//739 310//739
f 432//740 295//740 430//740
f 432//741 296//741 295//741
f 433//742 431//742 309//742
f 308//743 433//743 309//743
f 434//744 296//744 432//744
f 434//745 297//745 296//745
f 435//746 433//746 308//746
f 435//747 308//747 307//747
f 436//748 298//748 297//748
f 436//749 297//749 434//749
f 437//750 435//750 307//750
f 437//751 307//751 306//751
f 438//752 298//752 436//752
f 438//753 299//753 298//753
f 439//754 437//754 306//754
f 439//755 306//755 305//755
f 440//756 299//756 438//756
f 440//757 300//757 299//757
f 441//758 439//758 305//758
f 441//759 305//759 304//759
f 442//760 300//760 440//760
f 442//761 301//761 300//761
f 443//762 441//762 304//762
f 443//763 304//763 303//763
f 444//764 301//764 442//764
f 444//765 302//765 301//765
f 445//766 443//766 303//766
f 445//767 302//767 444//767
f 445//768 303//768 302//768
f 428//769 446//769 447//769
f 428//770 426//770 446//770
f 430//771 447//771 448//771
f 430//772 428//772 447//772
f 432//773 448//773 449//773
f 432//774 430//774 448//774
f 434//775 449//775 450//775
f 434//776 432//776 449//776
f 436//777 450//777 451//777
f 436//778 451//778 452//778
f 436//779 434//779 450//779
f 438//780 436//780 452//780
f 440//781 452//781 453//781
f 440//782 438//782 452//782
f 442//783 453//783 454//783
f 442//784 440//784 453//784
f 444//785 454//785 455//785
f 444//786 442//786 454//786
f 445//787 455//787 456//787
f 445//788 456//788 457//788
f 445//789 444//789 455//789
f 443//790 445//790 457//790
f 443//791 457//791 458//791
f 441//792 443//792 458//792
f 439//793 441//793 458//793
f 439//794 458//794 459//794
f 439//795 459//795 460//795
f 437//796 439//796 460//796
f 435//797 460//797 461//797
f 435//798 461//798 462//798
f 435//799 437//799 460//799
f 433//800 462//800 463//800
f 433//801 435//801 462//801
f 431//802 433//802 463//802
f 429//803 463//803 464//803
f 429//804 431//804 463//804
f 427//805 464//805 465//805
f 427//806 465//806 466//806
f 427//807 429//807 464//807
f 425//808 427//808 466//808
f 423//809 466//809 467//809
f 423//810 425//810 466//810
f 421//811 467//811 468//811
f 421//812 423//812 467//812
f 419//813 468//813 469//813
f 419//814 421//814 468//814
f 417//815 469//815 470//815
f 417//816 419//816 469//816
f 415//817 470//817 471//817
f 415//818 417//818 470//818
f 413//819 471//819 472//819
f 413//820 415//820 471//820
f 411//821 472//821 473//821
f 411//822 473//822 474//822
f 411//823 413//823 472//823
f 409//824 411//824 474//824
f 407//825 474//825 475//825
f 407//826 409//826 474//826
f 405//827 475//827 476//827
f 405//828 407//828 475//828
f 403//829 476//829 477//829
f 403//830 405//830 476//830
f 401//831 477//831 478//831
f 401//832 403//832 477//832
f 399//833 478//833 479//833
f 399//834 401//834 478//834
f 397//835 479//835 480//835
f 397//836 480//836 481//836
f 397//837 399//837 479//837
f 395//838 397//838 481//838
f 393//839 395//839 481//839
f 393//840 481//840 482//840
f 393//841 482//841 483//841
f 391//842 393//842 483//842
f 391//843 483//843 484//843
f 389//844 391//844 484//844
f 387//845 389//845 484//845
f 387//846 484//846 485//846
f 385//847 387//847 485//847
f 385//848 485//848 486//848
f 383//849 385//849 486//849
f 383//850 486//850 487//850
f 381//851 383//851 487//851
f 381//852 487//852 488//852
f 379//853 381//853 488//853
f 379//854 488//854 489//854
f 377//855 379//855 489//855
f 377//856 489//856 490//856
f 375//857 377//857 490//857
f 375//858 490//858 491//858
f 373//859 375//859 491//859
f 373//860 491//860 492//860
f 371//861 492//861 493//861
f 371//862 373//862 492//862
f 369//863 371//863 493//863
f 369//864 493//864 494//864
f 370//865 494//865 495//865
f 370//866 369//866 494//866
f 372//867 495//867 496//867
f 372//868 370//868 495//868
f 374//869 496//869 497//869
f 374//870 372//870 496//870
f 376//871 497//871 498//871
f 376//872 374//872 497//872
f 378//873 498//873 499//873
f 378//874 376//874 498//874
f 380//875 499//875 500//875
f 380//876 378//876 499//876
f 382//877 500//877 501//877
f 382//878 380//878 500//878
f 384//879 501//879 502//879
f 384//880 382//880 501//880
f 386//881 502//881 503//881
f 386//882 384//882 502//882
f 388//883 503//883 504//883
f 388//884 386//884 503//884
f 390//885 504//885 505//885
f 390//886 388//886 504//886
f 392//887 505//887 506//887
f 392//888 390//888 505//888
f 394//889 392//889 506//889
f 394//890 506//890 507//890
f 396//891 394//891 507//891
f 396//892 507//892 508//892
f 398//893 396//893 508//893
f 398//894 508//894 509//894
f 400//895 398//895 509//895
f 400//896 509//896 510//896
f 402//897 400//897 510//897
f 402//898 510//898 511//898
f 404//899 402//899 511//899
f 404//900 511//900 512//900
f 406//901 404//901 512//901
f 406//902 512//902 513//902
f 408//903 406//903 513//903
f 408//904 513//904 514//904
f 410//905 408//905 514//905
f 410//906 514//906 515//906
f 412//907 410//907 515//907
f 412//908 515//908 516//908
f 414//909 412//909 516//909
f 414//910 516//910 517//910
f 414//911 517//911 518//911
f 416//912 414//912 518//912
f 418//913 416//913 518//913
f 418//914 518//914 519//914
f 420//915 418//915 519//915
f 420//916 519//916 520//916
f 422//917 420//917 520//917
f 422//918 520//918 521//918
f 424//919 422//919 521//919
f 424//920 521//920 522//920
f 426//921 424//921 522//921
f 426//922 522//922 446//922
f 523//923 513//923 512//923
f 523//924 514//924 513//924
f 524//925 514//925 523//925
f 524//926 515//926 514//926
f 525//927 523//927 512//927
f 525//928 512//928 511//928
f 526//929 516//929 515//929
f 526//930 517//930 516//930
f 526//931 515//931 524//931
f 527//932 511//932 510//932
f 527//933 525//933 511//933
f 528//934 517//934 526//934
f 528//935 518//935 517//935
f 529//936 527//936 510//936
f 529//937 509//937 508//937
f 529//938 510//938 509//938
f 530//939 518//939 528//939
f 530//940 519//940 518//940
f 531//941 508//941 507//941
f 531//942 529//942 508//942
f 532//943 519//943 530//943
f 532//944 520//944 519//944
f 532//945 521//945 520//945
f 533//946 507//946 506//946
f 533//947 531//947 507//947
f 534//948 521//948 532//948
f 534//949 522//949 521//949
f 535//950 505//950 504//950
f 535//951 506//951 505//951
f 535//952 533//952 506//952
f 536//953 447//953 446//953
f 536//954 522//954 534//954
f 536//955 446//955 522//955
f 537//956 504//956 503//956
f 537//957 535//957 504//957
f 538//958 448//958 447//958
f 538//959 447//959 536//959
f 539//960 502//960 501//960
f 539//961 503//961 502//961
f 539//962 537//962 503//962
f 540//963 449//963 448//963
f 540//964 448//964 538//964
f 541//965 501//965 500//965
f 541//966 539//966 501//966
f 542//967 450//967 449//967
f 542//968 451//968 450//968
f 542//969 449//969 540//969
f 543//970 541//970 500//970
f 543//971 500//971 499//971
f 544//972 452//972 451//972
f 544//973 451//973 542//973
f 545//974 543//974 499//974
f 545//975 498//975 497//975
f 545//976 499//976 498//976
f 546//977 453//977 452//977
f 546//978 454//978 453//978
f 546//979 452//979 544//979
f 547//980 545//980 497//980
f 547//981 497//981 496//981
f 548//982 455//982 454//982
f 548//983 454//983 546//983
f 549//984 547//984 496//984
f 549//985 496//985 495//985
f 550//986 455//986 548//986
f 494//987 549//987 495//987
f 551//988 549//988 494//988
f 456//989 455//989 550//989
f 552//990 456//990 550//990
f 493//991 553//991 551//991
f 493//992 551//992 494//992
f 457//993 456//993 552//993
f 492//994 553//994 493//994
f 458//995 457//995 552//995
f 458//996 552//996 554//996
f 491//997 555//997 553//997
f 491//998 553//998 492//998
f 459//999 554//999 556//999
f 459//1000 458//1000 554//1000
f 490//1001 557//1001 555//1001
f 490//1002 555//1002 491//1002
f 460//1003 459//1003 556//1003
f 489//1004 558//1004 557//1004
f 489//1005 557//1005 490//1005
f 461//1006 460//1006 556//1006
f 461//1007 556//1007 559//1007
f 488//1008 558//1008 489//1008
f 462//1009 461//1009 559//1009
f 462//1010 559//1010 560//1010
f 487//1011 561//1011 558//1011
f 487//1012 558//1012 488//1012
f 463//1013 462//1013 560//1013
f 486//1014 562//1014 561//1014
f 486//1015 561//1015 487//1015
f 464//1016 463//1016 560//1016
f 464//1017 560//1017 563//1017
f 485//1018 562//1018 486//1018
f 465//1019 464//1019 563//1019
f 465//1020 563//1020 564//1020
f 484//1021 562//1021 485//1021
f 484//1022 565//1022 562//1022
f 466//1023 465//1023 564//1023
f 466//1024 564//1024 566//1024
f 483//1025 567//1025 565//1025
f 483//1026 565//1026 484//1026
f 467//1027 466//1027 566//1027
f 482//1028 568//1028 567//1028
f 482//1029 567//1029 483//1029
f 468//1030 467//1030 566//1030
f 468//1031 566//1031 569//1031
f 481//1032 568//1032 482//1032
f 469//1033 468//1033 569//1033
f 469//1034 569//1034 570//1034
f 480//1035 571//1035 568//1035
f 480//1036 568//1036 481//1036
f 470//1037 469//1037 570//1037
f 479//1038 572//1038 571//1038
f 479//1039 571//1039 480//1039
f 471//1040 470//1040 570//1040
f 471//1041 570//1041 573//1041
f 478//1042 572//1042 479//1042
f 472//1043 471//1043 573//1043
f 472//1044 573//1044 574//1044
f 477//1045 572//1045 478//1045
f 477//1046 575//1046 572//1046
f 473//1047 472//1047 574//1047
f 473//1048 574//1048 576//1048
f 476//1049 575//1049 477//1049
f 476//1050 577//1050 575//1050
f 474//1051 473//1051 576//1051
f 475//1052 577//1052 476//1052
f 475//1053 474//1053 576//1053
f 475//1054 576//1054 577//1054
f 538//1055 578//1055 579//1055
f 538//1056 536//1056 578//1056
f 540//1057 579//1057 580//1057
f 540//1058 580//1058 581//1058
f 540//1059 538//1059 579//1059
f 542//1060 540//1060 581//1060
f 544//1061 581//1061 582//1061
f 544//1062 582//1062 583//1062
f 544//1063 542//1063 581//1063
f 546//1064 544//1064 583//1064
f 548//1065 583//1065 584//1065
f 548//1066 546//1066 583//1066
f 550//1067 584//1067 585//1067
f 550//1068 548//1068 584//1068
f 552//1069 585//1069 586//1069
f 552//1070 550//1070 585//1070
f 554//1071 586//1071 587//1071
f 554//1072 587//1072 588//1072
f 554//1073 552//1073 586//1073
f 556//1074 554//1074 588//1074
f 559//1075 588//1075 589//1075
f 559//1076 556//1076 588//1076
f 560//1077 589//1077 590//1077
f 560//1078 559//1078 589//1078
f 563//1079 590//1079 591//1079
f 563//1080 560//1080 590//1080
f 564//1081 591//1081 592//1081
f 564//1082 592//1082 593//1082
f 564//1083 563//1083 591//1083
f 566//1084 564//1084 593//1084
f 569//1085 593//1085 594//1085
f 569//1086 566//1086 593//1086
f 570//1087 594//1087 595//1087
f 570//1088 569//1088 594//1088
f 573//1089 595//1089 596//1089
f 573//1090 596//1090 597//1090
f 573//1091 570//1091 595//1091
f 574//1092 597//1092 598//1092
f 574//1093 573//1093 597//1093
f 576//1094 574//1094 598//1094
f 577//1095 598//1095 599//1095
f 577//1096 599//1096 600//1096
f 577//1097 576//1097 598//1097
f 575//1098 577//1098 600//1098
f 572//1099 575//1099 600//1099
f 572//1100 600//1100 601//1100
f 572//1101 601//1101 602//1101
f 571//1102 572//1102 602//1102
f 568//1103 571//1103 602//1103
f 568//1104 602//1104 603//1104
f 567//1105 568//1105 603//1105
f 567//1106 603//1106 604//1106
f 565//1107 567//1107 604//1107
f 565//1108 604//1108 605//1108
f 562//1109 605//1109 606//1109
f 562//1110 565//1110 605//1110
f 562//1111 606//1111 607//1111
f 561//1112 562//1112 607//1112
f 558//1113 607//1113 608//1113
f 558//1114 561//1114 607//1114
f 557//1115 608//1115 609//1115
f 557//1116 558//1116 608//1116
f 555//1117 609//1117 610//1117
f 555//1118 610//1118 611//1118
f 555//1119 557//1119 609//1119
f 553//1120 611//1120 612//1120
f 553//1121 555//1121 611//1121
f 551//1122 553//1122 612//1122
f 549//1123 612//1123 613//1123
f 549//1124 551//1124 612//1124
f 547//1125 613//1125 614//1125
f 547//1126 549//1126 613//1126
f 545//1127 614//1127 615//1127
f 545//1128 547//1128 614//1128
f 543//1129 615//1129 616//1129
f 543//1130 545//1130 615//1130
f 541//1131 616//1131 617//1131
f 541//1132 543//1132 616//1132
f 539//1133 617//1133 618//1133
f 539//1134 541//1134 617//1134
f 537//1135 618//1135 619//1135
f 537//1136 539//1136 618//1136
f 535//1137 619//1137 620//1137
f 535//1138 537//1138 619//1138
f 533//1139 620//1139 621//1139
f 533//1140 621//1140 622//1140
f 533//1141 535//1141 620//1141
f 531//1142 622//1142 623//1142
f 531//1143 533//1143 622//1143
f 529//1144 531//1144 623//1144
f 527//1145 623//1145 624//1145
f 527//1146 529//1146 623//1146
f 525//1147 527//1147 624//1147
f 525//1148 624//1148 625//1148
f 523//1149 525//1149 625//1149
f 523//1150 625//1150 626//1150
f 524//1151 523//1151 626//1151
f 524//1152 626//1152 627//1152
f 526//1153 524//1153 627//1153
f 526//1154 627//1154 628//1154
f 528//1155 526//1155 628//1155
f 528//1156 628//1156 629//1156
f 530//1157 528//1157 629//1157
f 530//1158 629//1158 630//1158
f 532//1159 530//1159 630//1159
f 532//1160 630//1160 631//1160
f 534//1161 532//1161 631//1161
f 534//1162 631//1162 632//1162
f 536//1163 534//1163 632//1163
f 536//1164 632//1164 578//1164
f 80//1165 626//1165 625//1165
f 81//1166 626//1166 80//1166
f 81//1167 627//1167 626//1167
f 81//1168 628//1168 627//1168
f 77//1169 80//1169 625//1169
f 77//1170 625//1170 624//1170
f 83//1171 628//1171 81//1171
f 83//1172 629//1172 628//1172
f 76//1173 77//1173 624//1173
f 76//1174 624//1174 623//1174
f 85//1175 629//1175 83//1175
f 85//1176 630//1176 629//1176
f 73//1177 76//1177 623//1177
f 73//1178 622//1178 621//1178
f 73//1179 623//1179 622//1179
f 88//1180 630//1180 85//1180
f 88//1181 631//1181 630//1181
f 72//1182 73//1182 621//1182
f 72//1183 621//1183 620//1183
f 89//1184 631//1184 88//1184
f 89//1185 632//1185 631//1185
f 69//1186 72//1186 620//1186
f 69//1187 620//1187 619//1187
f 2//1188 579//1188 578//1188
f 2//1189 632//1189 89//1189
f 2//1190 578//1190 632//1190
f 67//1191 619//1191 618//1191
f 67//1192 69//1192 619//1192
f 1//1193 580//1193 579//1193
f 1//1194 579//1194 2//1194
f 65//1195 618//1195 617//1195
f 65//1196 67//1196 618//1196
f 6//1197 581//1197 580//1197
f 6//1198 580//1198 1//1198
f 63//1199 616//1199 615//1199
f 63//1200 617//1200 616//1200
f 63//1201 65//1201 617//1201
f 7//1202 582//1202 581//1202
f 7//1203 581//1203 6//1203
f 61//1204 615//1204 614//1204
f 61//1205 63//1205 615//1205
f 10//1206 583//1206 582//1206
f 10//1207 582//1207 7//1207
f 59//1208 61//1208 614//1208
f 613//1209 59//1209 614//1209
f 11//1210 584//1210 583//1210
f 11//1211 583//1211 10//1211
f 58//1212 59//1212 613//1212
f 585//1213 584//1213 11//1213
f 13//1214 585//1214 11//1214
f 612//1215 58//1215 613//1215
f 55//1216 58//1216 612//1216
f 586//1217 585//1217 13//1217
f 586//1218 13//1218 15//1218
f 611//1219 55//1219 612//1219
f 587//1220 586//1220 15//1220
f 587//1221 15//1221 18//1221
f 610//1222 55//1222 611//1222
f 610//1223 53//1223 55//1223
f 588//1224 587//1224 18//1224
f 588//1225 18//1225 19//1225
f 609//1226 53//1226 610//1226
f 609//1227 51//1227 53//1227
f 589//1228 588//1228 19//1228
f 608//1229 51//1229 609//1229
f 608//1230 49//1230 51//1230
f 590//1231 589//1231 19//1231
f 590//1232 19//1232 21//1232
f 607//1233 49//1233 608//1233
f 607//1234 47//1234 49//1234
f 591//1235 590//1235 21//1235
f 591//1236 21//1236 23//1236
f 606//1237 47//1237 607//1237
f 592//1238 591//1238 23//1238
f 592//1239 23//1239 25//1239
f 605//1240 47//1240 606//1240
f 605//1241 45//1241 47//1241
f 593//1242 592//1242 25//1242
f 593//1243 25//1243 28//1243
f 604//1244 43//1244 45//1244
f 604//1245 45//1245 605//1245
f 594//1246 593//1246 28//1246
f 603//1247 41//1247 43//1247
f 603//1248 43//1248 604//1248
f 595//1249 28//1249 29//1249
f 595//1250 594//1250 28//1250
f 602//1251 40//1251 41//1251
f 602//1252 41//1252 603//1252
f 596//1253 29//1253 32//1253
f 596//1254 595//1254 29//1254
f 601//1255 37//1255 40//1255
f 601//1256 40//1256 602//1256
f 597//1257 596//1257 32//1257
f 597//1258 32//1258 34//1258
f 600//1259 37//1259 601//1259
f 598//1260 34//1260 36//1260
f 598//1261 597//1261 34//1261
f 599//1262 36//1262 37//1262
f 599//1263 598//1263 36//1263
f 599//1264 37//1264 600//1264
