# Created by FreeCAD <https://www.freecad.org>
v 100.000000 -1.435894 5.825651
v 100.000000 0.000000 6.000000
v 6.000000 0.000000 6.000000
v 6.000000 -1.435894 5.825651
v 100.000000 -2.788339 5.312736
v 6.000000 -2.788339 5.312736
v 6.000000 -3.978736 4.491065
v 100.000000 -3.978736 4.491065
v 100.000000 -4.937903 3.408388
v 6.000000 -4.937903 3.408388
v 6.000000 -5.610097 2.127629
v 100.000000 -5.610097 2.127629
v 6.000000 -5.956253 0.723220
v 100.000000 -5.956253 0.723220
v 100.000000 -5.956253 -0.723220
v 6.000000 -5.956253 -0.723220
v 100.000000 -5.610097 -2.127629
v 6.000000 -5.610097 -2.127629
v 6.000000 -4.937903 -3.408388
v 100.000000 -4.937903 -3.408388
v 100.000000 -3.978736 -4.491065
v 6.000000 -3.978736 -4.491065
v 100.000000 -2.788339 -5.312736
v 6.000000 -2.788339 -5.312736
v 100.000000 -1.435894 -5.825651
v 6.000000 -1.435894 -5.825651
v 100.000000 -0.000000 -6.000000
v 6.000000 -0.000000 -6.000000
v 6.000000 1.435894 -5.825651
v 100.000000 1.435894 -5.825651
v 100.000000 2.788339 -5.312736
v 6.000000 2.788339 -5.312736
v 100.000000 3.978736 -4.491065
v 6.000000 3.978736 -4.491065
v 6.000000 4.937903 -3.408388
v 100.000000 4.937903 -3.408388
v 100.000000 5.610097 -2.127629
v 6.000000 5.610097 -2.127629
v 100.000000 5.956253 -0.723220
v 6.000000 5.956253 -0.723220
v 6.000000 5.956253 0.723220
v 100.000000 5.956253 0.723220
v 100.000000 5.610097 2.127629
v 6.000000 5.610097 2.127629
v 100.000000 4.937903 3.408388
v 6.000000 4.937903 3.408388
v 100.000000 3.978736 4.491065
v 6.000000 3.978736 4.491065
v 100.000000 2.788339 5.312736
v 6.000000 2.788339 5.312736
v 6.000000 1.435894 5.825651
v 100.000000 1.435894 5.825651
v 4.664875 0.000000 6.150433
v 4.664875 -1.098202 6.051592
v 4.664875 -1.471895 5.971712
v 3.396698 0.000000 6.594187
v 3.396698 -1.177438 6.488215
v 4.664875 -2.161107 5.758249
v 3.396698 -1.578092 6.402572
v 4.664875 -2.858248 5.445938
v 2.259061 0.000000 7.309011
v 2.259061 -1.305074 7.191552
v 3.396698 -2.317031 6.173707
v 4.664875 -3.154552 5.279831
v 2.259061 -1.749161 7.096624
v 3.396698 -3.064471 5.838862
v 1.309011 0.000000 8.259061
v 1.309011 -1.474712 8.126335
v 2.259061 -2.568202 6.842951
v 3.396698 -3.382154 5.660772
v 1.309011 -1.976523 8.019068
v 4.664875 -4.046608 4.631715
v 2.259061 -3.396667 6.471808
v 0.594187 0.000000 9.396698
v 0.594187 -1.677845 9.245688
v 1.309011 -2.902026 7.732421
v 2.259061 -3.748786 6.274412
v 0.594187 -2.248777 9.123647
v 3.396698 -4.338571 4.965894
v 4.664875 -4.808602 3.834732
v 1.309011 -3.838177 7.313035
v 0.150433 0.000000 10.664874
v 0.150433 -1.904287 10.493485
v 0.000000 0.000000 12.000000
v 0.000000 -2.142683 11.807155
v 4.664875 -5.061707 3.493844
v 0.594187 -3.301763 8.797516
v 1.309011 -4.236066 7.089981
v 0.000000 -4.216498 11.234818
v 0.150433 -2.552272 10.354973
v 2.259061 -4.808881 5.504208
v 3.396698 -5.155543 4.111408
v 4.664875 -5.416043 2.914497
v 0.594187 -4.366863 8.320362
v 3.396698 -5.426909 3.745925
v 0.150433 -3.747368 9.984827
v 0.594187 -4.819560 8.066584
v 1.309011 -5.433956 6.219663
v 4.664875 -5.750754 2.180974
v 2.259061 -5.714415 4.557094
v 3.396698 -5.806811 3.124779
v 0.150433 -4.956214 9.443277
v 0.000000 -6.154791 10.301386
v 2.259061 -6.015198 4.151991
v 0.000000 -7.895265 9.036858
v 0.150433 -5.470006 9.155249
v 0.594187 -6.182451 7.076385
v 3.396698 -6.165672 2.338331
v 1.309011 -6.457194 5.149440
v 2.259061 -6.436283 3.463511
v 4.664875 -6.094769 0.825593
v 1.309011 -6.797074 4.691681
v 0.150433 -7.016834 8.031412
v 2.259061 -6.834044 2.591811
v 0.594187 -7.346634 5.858745
v 1.309011 -7.272892 3.913710
v 3.396698 -6.534508 0.885159
v 0.594187 -7.733331 5.337933
v 4.664875 -6.144239 -0.275938
v 1.309011 -7.722356 2.928704
v 0.000000 -9.381978 7.481878
v 0.150433 -8.338135 6.649440
v 4.664875 -6.105589 -0.741353
v 0.594187 -8.274690 4.452800
v 2.259061 -7.242863 0.981112
v 0.150433 -8.777020 6.058339
v 0.000000 -10.567146 5.686424
v 3.396698 -6.587547 -0.295847
v 4.664875 -5.996228 -1.368600
v 0.594187 -8.786065 3.332115
v 3.396698 -6.546108 -0.794841
v 0.150433 -9.391440 5.053750
v 1.309011 -8.184315 1.108641
v 2.259061 -7.301651 -0.327918
v 4.664875 -5.750754 -2.180974
v 3.396698 -6.428857 -1.467345
v 0.150433 -9.971830 3.781816
v 0.000000 -11.412678 3.708204
v 2.259061 -7.255720 -0.881004
v 0.594187 -9.311655 1.261349
v 1.309011 -8.250745 -0.370541
v 3.396698 -6.165672 -2.338331
v 2.259061 -7.125759 -1.626408
v 4.664875 -5.132987 -3.388255
v 1.309011 -8.198843 -0.995520
v 0.150433 -10.568355 1.431581
v 0.000000 -11.891397 1.610799
v 0.000000 -11.987917 -0.538378
v 0.594187 -9.387236 -0.421581
v 2.259061 -6.834044 -2.591811
v 1.309011 -8.051990 -1.837814
v 3.396698 -5.503332 -3.632718
v 0.594187 -9.328185 -1.132647
v 4.664875 -4.445501 -4.250334
v 0.150433 -10.654136 -0.478478
v 1.309011 -7.722356 -2.928704
v 4.664875 -4.078491 -4.603665
v 0.594187 -9.161102 -2.090962
v 2.259061 -6.099905 -4.026512
v 0.150433 -10.587115 -1.285509
v 0.000000 -11.699135 -2.670251
v 3.396698 -4.766244 -4.556996
v 4.664875 -3.615134 -4.975804
v 0.594187 -8.786065 -3.332115
v 3.396698 -4.372755 -4.935820
v 0.150433 -10.397484 -2.373158
v 1.309011 -6.892792 -4.549892
v 2.259061 -5.282916 -5.050984
v 4.664875 -2.858248 -5.445938
v 3.396698 -3.875966 -5.334809
v 0.150433 -9.971830 -3.781816
v 0.000000 -11.034333 -4.716300
v 2.259061 -4.846771 -5.470873
v 0.594187 -7.842232 -5.176612
v 1.309011 -5.969607 -5.707529
v 3.396698 -3.064471 -5.838862
v 2.259061 -4.296129 -5.913114
v 4.664875 -1.636242 -5.928789
v 1.309011 -5.476770 -6.181996
v 0.150433 -8.900619 -5.875247
v 0.000000 -10.014879 -6.610764
v 0.594187 -6.791885 -6.493707
v 2.259061 -3.396667 -6.471808
v 1.309011 -4.854554 -6.681721
v 3.396698 -1.754297 -6.356551
v 0.594187 -6.231163 -7.033529
v 4.664875 -0.551320 -6.125673
v 0.000000 -8.673538 -8.292751
v 0.150433 -7.708517 -7.370096
v 1.309011 -3.838177 -7.313035
v 4.664875 -0.000000 -6.150433
v 0.594187 -5.523240 -7.602088
v 2.259061 -1.944466 -7.045615
v 0.000000 -7.053423 -9.708204
v 0.150433 -7.072120 -7.982773
v 3.396698 -0.591098 -6.567640
v 4.664875 0.551320 -6.125673
v 0.594187 -4.366863 -8.320362
v 3.396698 -0.000000 -6.594187
v 0.150433 -6.268656 -8.628064
v 1.309011 -2.197215 -7.961428
v 2.259061 -0.655175 -7.279587
v 4.664875 1.471895 -5.971712
v 3.396698 0.591098 -6.567640
v 0.150433 -4.956214 -9.443277
v 0.000000 -5.206605 -10.811626
v 2.259061 -0.000000 -7.309011
v 0.594187 -2.499868 -9.058067
v 1.309011 -0.740337 -8.225813
v 3.396698 1.578092 -6.402572
v 2.259061 0.655175 -7.279587
v 4.664875 2.668573 -5.541348
v 1.309011 -0.000000 -8.259061
v 0.150433 -2.837250 -10.280542
v 0.000000 -3.192442 -11.567554
v 0.000000 -1.075672 -11.951692
v 0.594187 -0.842313 -9.358870
v 2.259061 1.749161 -7.096624
v 1.309011 0.740337 -8.225813
v 3.396698 2.861110 -5.941157
v 4.664875 3.615134 -4.975804
v 0.594187 -0.000000 -9.396698
v 0.150433 -0.955992 -10.621941
v 1.309011 1.976523 -8.019068
v 0.594187 0.842313 -9.358870
v 4.664875 4.078491 -4.603665
v 2.259061 3.171261 -6.585191
v 3.396698 3.875966 -5.334809
v 0.000000 1.075672 -11.951692
v 0.150433 -0.000000 -10.664874
v 4.664875 4.445501 -4.250334
v 0.594187 2.248777 -9.123647
v 0.150433 0.955992 -10.621941
v 3.396698 4.372755 -4.935820
v 1.309011 3.583472 -7.441157
v 2.259061 4.296129 -5.913114
v 3.396698 4.766244 -4.556996
v 4.664875 5.061707 -3.493844
v 0.150433 2.552272 -10.354973
v 0.000000 3.192442 -11.567554
v 2.259061 4.846771 -5.470873
v 0.594187 4.077074 -8.466132
v 1.309011 4.854554 -6.681721
v 2.259061 5.282916 -5.050984
v 3.396698 5.426909 -3.745925
v 4.664875 5.655494 -2.417274
v 1.309011 5.476770 -6.181996
v 0.150433 4.627316 -9.608720
v 0.000000 5.206605 -10.811626
v 0.000000 7.053423 -9.708204
v 0.594187 5.523240 -7.602088
v 1.309011 5.969607 -5.707529
v 2.259061 6.015198 -4.151991
v 3.396698 6.063538 -2.591681
v 4.664875 5.996228 -1.368600
v 0.594187 6.231163 -7.033529
v 0.150433 6.268656 -8.628064
v 0.594187 6.791885 -6.493707
v 1.309011 6.797074 -4.691681
v 4.664875 6.105589 -0.741353
v 2.259061 6.720839 -2.872624
v 3.396698 6.428857 -1.467345
v 0.150433 7.072120 -7.982773
v 0.000000 8.673538 -8.292751
v 4.664875 6.144239 -0.275938
v 0.150433 7.708517 -7.370096
v 0.594187 7.733331 -5.337933
v 3.396698 6.546108 -0.794841
v 1.309011 7.594436 -3.246018
v 2.259061 7.125759 -1.626408
v 3.396698 6.587547 -0.295847
v 4.664875 6.105589 0.741353
v 0.000000 10.014879 -6.610764
v 0.150433 8.777020 -6.058339
v 2.259061 7.255720 -0.881004
v 0.594187 8.640524 -3.693137
v 1.309011 8.051990 -1.837814
v 2.259061 7.301651 -0.327918
v 3.396698 6.546108 0.794841
v 4.664875 5.849409 1.900588
v 1.309011 8.198843 -0.995520
v 0.150433 9.806648 -4.191563
v 0.000000 11.034333 -4.716300
v 0.594187 9.161102 -2.090962
v 1.309011 8.250745 -0.370541
v 2.259061 7.255720 0.881004
v 3.396698 6.271444 2.037716
v 4.664875 5.416043 2.914497
v 0.594187 9.328185 -1.132647
v 0.150433 10.397484 -2.373158
v 0.000000 11.699135 -2.670251
v 0.594187 9.387236 -0.421581
v 1.309011 8.198843 0.995520
v 4.664875 5.061707 3.493844
v 2.259061 6.951283 2.258609
v 3.396698 5.806811 3.124779
v 0.150433 10.587115 -1.285509
v 0.000000 11.987917 -0.538378
v 4.664875 4.808602 3.834732
v 0.150433 10.654136 -0.478478
v 0.594187 9.328185 1.132647
v 3.396698 5.426909 3.745925
v 1.309011 7.854834 2.552190
v 2.259061 6.436283 3.463511
v 3.396698 5.155543 4.111408
v 4.664875 4.078491 4.603665
v 0.000000 11.891397 1.610799
v 0.150433 10.587115 1.285509
v 2.259061 6.015198 4.151991
v 0.594187 8.936790 2.903739
v 1.309011 7.272892 3.913710
v 2.259061 5.714415 4.557094
v 3.396698 4.372755 4.935820
v 4.664875 3.154552 5.279831
v 1.309011 6.797074 4.691681
v 4.664875 2.858248 5.445938
v 0.150433 10.142899 3.295627
v 0.000000 11.412678 3.708204
v 0.594187 8.274690 4.452800
v 1.309011 6.457194 5.149440
v 2.259061 4.846771 5.470873
v 3.396698 3.382154 5.660772
v 4.664875 2.161107 5.758249
v 0.594187 7.733331 5.337933
v 3.396698 3.064471 5.838862
v 0.150433 9.391440 5.053750
v 0.000000 10.567146 5.686424
v 0.594187 7.346634 5.858745
v 1.309011 5.476770 6.181996
v 4.664875 1.471895 5.971712
v 2.259061 3.748786 6.274412
v 3.396698 2.317031 6.173707
v 0.150433 8.777020 6.058339
v 0.000000 9.381978 7.481878
v 4.664875 1.098202 6.051592
v 2.259061 3.396667 6.471808
v 0.150433 8.338135 6.649440
v 0.594187 6.231163 7.033529
v 3.396698 1.578092 6.402572
v 1.309011 4.236066 7.089981
v 2.259061 2.568202 6.842951
v 3.396698 1.177438 6.488215
v 1.309011 3.838177 7.313035
v 0.150433 7.072120 7.982773
v 0.000000 7.895265 9.036858
v 2.259061 1.749161 7.096624
v 0.594187 4.819560 8.066584
v 1.309011 2.902026 7.732421
v 2.259061 1.305074 7.191552
v 0.594187 4.366863 8.320362
v 1.309011 1.976523 8.019068
v 0.150433 5.470006 9.155249
v 0.000000 6.154791 10.301386
v 0.594187 3.301763 8.797516
v 1.309011 1.474712 8.126335
v 0.150433 4.956214 9.443277
v 0.000000 4.216498 11.234818
v 0.594187 2.248777 9.123647
v 0.150433 3.747368 9.984827
v 0.594187 1.677845 9.245688
v 0.150433 2.552272 10.354973
v 0.000000 2.142683 11.807155
v 0.150433 1.904287 10.493485
v 100.000000 4.197218 -2.897130
v 100.000000 3.381926 -3.817405
v 100.000000 2.370088 -4.515826
v 100.000000 4.768583 -1.808485
v 100.000000 1.220510 -4.951803
v 100.000000 5.062815 -0.614737
v 100.000000 -0.000000 -5.100000
v 100.000000 5.062815 0.614737
v 100.000000 -1.220510 -4.951803
v 100.000000 4.768583 1.808485
v 100.000000 -2.370088 -4.515826
v 100.000000 4.197218 2.897130
v 100.000000 -3.381926 -3.817405
v 100.000000 3.381926 3.817405
v 100.000000 -4.197218 -2.897130
v 100.000000 2.370088 4.515826
v 100.000000 -4.768583 -1.808485
v 100.000000 1.220510 4.951803
v 100.000000 0.000000 5.100000
v 100.000000 -5.062815 -0.614737
v 100.000000 -5.062815 0.614737
v 100.000000 -1.220510 4.951803
v 100.000000 -4.768583 1.808485
v 100.000000 -2.370088 4.515826
v 100.000000 -4.197218 2.897130
v 100.000000 -3.381926 3.817405
v 0.000000 4.740000 -15.000000
v 0.000000 15.000000 -4.740000
v 0.000000 15.000000 4.740000
v 0.000000 -4.740000 -15.000000
v 0.000000 -15.000000 -4.740000
v 0.000000 4.740000 15.000000
v 0.000000 -4.740000 15.000000
v 0.000000 -15.000000 4.740000
v 100.599998 -1.220510 4.951803
v 100.599998 0.000000 5.100000
v 100.599998 -2.370088 4.515826
v 100.599998 -3.381926 3.817405
v 100.599998 -4.197218 2.897130
v 100.599998 -4.768583 1.808485
v 100.599998 -5.062815 0.614737
v 100.599998 -5.062815 -0.614737
v 100.599998 -4.768583 -1.808485
v 100.599998 -4.197218 -2.897130
v 100.599998 -3.381926 -3.817405
v 100.599998 -2.370088 -4.515826
v 100.599998 -1.220510 -4.951803
v 100.599998 -0.000000 -5.100000
v 100.599998 1.220510 -4.951803
v 100.599998 2.370088 -4.515826
v 100.599998 3.381926 -3.817405
v 100.599998 4.197218 -2.897130
v 100.599998 4.768583 -1.808485
v 100.599998 5.062815 -0.614737
v 100.599998 5.062815 0.614737
v 100.599998 4.768583 1.808485
v 100.599998 4.197218 2.897130
v 100.599998 3.381926 3.817405
v 100.599998 2.370088 4.515826
v 100.599998 1.220510 4.951803
v -40.000000 4.740000 15.000000
v -40.000000 -4.740000 15.000000
v -40.000000 15.000000 4.740000
v -40.000000 -15.000000 4.740000
v -40.000000 15.000000 -4.740000
v -40.000000 -15.000000 -4.740000
v -40.000000 4.740000 -15.000000
v -40.000000 -4.740000 -15.000000
v 100.599998 3.950323 -2.726711
v 100.599998 3.182989 -3.592852
v 100.599998 2.230671 -4.250189
v 100.599998 4.488078 -1.702103
v 100.599998 1.148715 -4.660521
v 100.599998 4.765003 -0.578576
v 100.599998 -0.000000 -4.800000
v 100.599998 4.765003 0.578576
v 100.599998 -1.148715 -4.660521
v 100.599998 4.488078 1.702103
v 100.599998 -2.230671 -4.250189
v 100.599998 3.950323 2.726711
v 100.599998 -3.182989 -3.592852
v 100.599998 3.182989 3.592852
v 100.599998 -3.950323 -2.726711
v 100.599998 2.230671 4.250189
v 100.599998 -4.488078 -1.702103
v 100.599998 1.148715 4.660521
v 100.599998 -4.765003 -0.578576
v 100.599998 0.000000 4.800000
v 100.599998 -4.765003 0.578576
v 100.599998 -1.148715 4.660521
v 100.599998 -4.488078 1.702103
v 100.599998 -2.230671 4.250189
v 100.599998 -3.950323 2.726711
v 100.599998 -3.182989 3.592852
v 190.600006 -1.148715 4.660521
v 190.600006 0.000000 4.800000
v 190.600006 -2.230671 4.250189
v 190.600006 -3.182989 3.592852
v 190.600006 -3.950323 2.726711
v 190.600006 -4.488078 1.702103
v 190.600006 -4.765003 0.578576
v 190.600006 -4.765003 -0.578576
v 190.600006 -4.488078 -1.702103
v 190.600006 -3.950323 -2.726711
v 190.600006 -3.182989 -3.592852
v 190.600006 -2.230671 -4.250189
v 190.600006 -1.148715 -4.660521
v 190.600006 -0.000000 -4.800000
v 190.600006 1.148715 -4.660521
v 190.600006 2.230671 -4.250189
v 190.600006 3.182989 -3.592852
v 190.600006 3.950323 -2.726711
v 190.600006 4.488078 -1.702103
v 190.600006 4.765003 -0.578576
v 190.600006 4.765003 0.578576
v 190.600006 4.488078 1.702103
v 190.600006 3.950323 2.726711
v 190.600006 3.182989 3.592852
v 190.600006 2.230671 4.250189
v 190.600006 1.148715 4.660521
vn 0.000000 -0.120537 0.992709
vn 0.000000 -0.120537 0.992709
vn 0.000000 -0.354605 0.935016
vn 0.000000 -0.568065 0.822984
vn 0.000000 -0.354605 0.935016
vn 0.000000 -0.568065 0.822984
vn 0.000000 -0.748511 0.663123
vn 0.000000 -0.885456 0.464723
vn 0.000000 -0.748511 0.663123
vn 0.000000 -0.970942 0.239316
vn 0.000000 -0.885456 0.464723
vn 0.000000 -0.970942 0.239316
vn 0.000000 -1.000000 0.000000
vn 0.000000 -1.000000 0.000000
vn -0.000000 -0.970942 -0.239316
vn -0.000000 -0.885456 -0.464723
vn 0.000000 -0.970942 -0.239316
vn -0.000000 -0.885456 -0.464723
vn -0.000000 -0.748511 -0.663123
vn 0.000000 -0.748511 -0.663123
vn 0.000000 -0.568065 -0.822984
vn -0.000000 -0.568065 -0.822984
vn 0.000000 -0.354605 -0.935016
vn -0.000000 -0.354605 -0.935016
vn 0.000000 -0.120537 -0.992709
vn -0.000000 -0.120537 -0.992709
vn 0.000000 0.120537 -0.992709
vn 0.000000 0.120537 -0.992709
vn 0.000000 0.354605 -0.935016
vn 0.000000 0.354605 -0.935016
vn 0.000000 0.568065 -0.822984
vn 0.000000 0.568065 -0.822984
vn 0.000000 0.748511 -0.663123
vn 0.000000 0.748511 -0.663123
vn 0.000000 0.885456 -0.464723
vn 0.000000 0.885456 -0.464723
vn 0.000000 0.970942 -0.239316
vn 0.000000 1.000000 0.000000
vn 0.000000 0.970942 -0.239316
vn 0.000000 1.000000 0.000000
vn 0.000000 0.970942 0.239316
vn 0.000000 0.970942 0.239316
vn 0.000000 0.885456 0.464723
vn 0.000000 0.885456 0.464723
vn 0.000000 0.748511 0.663123
vn 0.000000 0.748511 0.663123
vn 0.000000 0.568065 0.822984
vn 0.000000 0.354605 0.935016
vn 0.000000 0.568065 0.822984
vn 0.000000 0.354605 0.935016
vn 0.000000 0.120537 0.992709
vn 0.000000 0.120537 0.992709
vn 0.111519 -0.089080 0.989762
vn 0.136226 -0.119413 0.983455
vn 0.111911 -0.207724 0.971765
vn 0.329094 -0.084646 0.940496
vn 0.329094 -0.084646 0.940496
vn 0.111774 -0.294001 0.949247
vn 0.143898 -0.350914 0.925285
vn 0.330137 -0.197317 0.923079
vn 0.330137 -0.197317 0.923079
vn 0.111751 -0.406277 0.906891
vn 0.530494 -0.075986 0.844276
vn 0.530494 -0.075986 0.844276
vn 0.329772 -0.279305 0.901798
vn 0.329772 -0.279305 0.901798
vn 0.134305 -0.562918 0.815528
vn 0.111922 -0.485925 0.866804
vn 0.531848 -0.177021 0.828131
vn 0.531848 -0.177021 0.828131
vn 0.330167 -0.461576 0.823370
vn 0.329711 -0.385976 0.861576
vn 0.329711 -0.385977 0.861576
vn 0.705679 -0.063512 0.705679
vn 0.705679 -0.063512 0.705679
vn 0.531375 -0.250629 0.809213
vn 0.531375 -0.250629 0.809213
vn 0.330167 -0.461576 0.823370
vn 0.706936 -0.147848 0.691652
vn 0.706936 -0.147847 0.691652
vn 0.114352 -0.583929 0.803710
vn 0.531887 -0.414091 0.738665
vn 0.531295 -0.346362 0.773148
vn 0.531295 -0.346362 0.773149
vn 0.845755 -0.047829 0.531423
vn 0.845755 -0.047829 0.531423
vn 0.706497 -0.209381 0.676034
vn 0.706497 -0.209381 0.676033
vn 0.531886 -0.414091 0.738665
vn 0.846609 -0.111254 0.520458
vn 0.846311 -0.157599 0.508842
vn 0.846608 -0.111253 0.520459
vn 0.329094 -0.555044 0.763953
vn 0.329094 -0.555044 0.763952
vn 0.137933 -0.741356 0.656784
vn 0.108893 -0.718497 0.686953
vn 0.706972 -0.345840 0.616916
vn 0.706423 -0.289371 0.645934
vn 0.706423 -0.289371 0.645934
vn 0.943467 -0.029712 0.330133
vn 0.993662 -0.010076 0.111959
vn 0.943834 -0.069070 0.323121
vn 0.993662 -0.010076 0.111959
vn 0.943467 -0.029713 0.330133
vn 0.111898 -0.797844 0.592388
vn 0.846311 -0.157599 0.508842
vn 0.706972 -0.345840 0.616916
vn 0.993278 -0.030794 0.111580
vn 0.993706 -0.023416 0.109543
vn 0.943834 -0.069070 0.323121
vn 0.530494 -0.498259 0.685795
vn 0.530494 -0.498259 0.685795
vn 0.530494 -0.612705 0.585806
vn 0.329094 -0.682533 0.652569
vn 0.329094 -0.682533 0.652569
vn 0.143685 -0.876268 0.459901
vn 0.111796 -0.847743 0.518492
vn 0.846261 -0.217816 0.486209
vn 0.846261 -0.217816 0.486209
vn 0.846633 -0.260234 0.464211
vn 0.330104 -0.757880 0.562716
vn 0.330104 -0.757880 0.562715
vn 0.943684 -0.135263 0.301934
vn 0.943706 -0.097865 0.315978
vn 0.943706 -0.097865 0.315978
vn 0.993691 -0.033182 0.107134
vn 0.846633 -0.260233 0.464211
vn 0.705679 -0.416464 0.573214
vn 0.705679 -0.416464 0.573214
vn 0.111727 -0.904066 0.412531
vn 0.530494 -0.612705 0.585806
vn 0.329830 -0.805352 0.492565
vn 0.329830 -0.805352 0.492565
vn 0.943684 -0.135263 0.301934
vn 0.993302 -0.050135 0.104106
vn 0.943844 -0.161560 0.288195
vn 0.993688 -0.045863 0.102375
vn 0.531805 -0.679938 0.504844
vn 0.531805 -0.679938 0.504845
vn 0.531450 -0.722645 0.441980
vn 0.993662 -0.066074 0.090943
vn 0.993707 -0.054771 0.097702
vn 0.943844 -0.161561 0.288195
vn 0.845755 -0.313625 0.431668
vn 0.845755 -0.313625 0.431668
vn 0.329646 -0.858911 0.391926
vn 0.329646 -0.858911 0.391926
vn 0.705679 -0.512123 0.489640
vn 0.705679 -0.512123 0.489640
vn 0.706896 -0.567896 0.421655
vn 0.531450 -0.722644 0.441980
vn 0.531211 -0.770787 0.351714
vn 0.111248 -0.963250 0.244487
vn 0.118248 -0.964130 0.237637
vn 0.328369 -0.915520 0.232372
vn 0.706896 -0.567895 0.421655
vn 0.943467 -0.194832 0.268163
vn 0.943467 -0.194832 0.268163
vn 0.993662 -0.066074 0.090943
vn 0.531211 -0.770787 0.351714
vn 0.845755 -0.385662 0.368731
vn 0.845755 -0.385662 0.368731
vn 0.706567 -0.603686 0.369223
vn 0.706567 -0.603686 0.369223
vn 0.328370 -0.915520 0.232372
vn 0.846581 -0.427344 0.317297
vn 0.846358 -0.454368 0.277898
vn 0.846581 -0.427343 0.317297
vn 0.329094 -0.943346 0.042366
vn 0.139425 -0.990233 0.000000
vn 0.106475 -0.993314 0.044610
vn 0.706345 -0.643991 0.293857
vn 0.706345 -0.643991 0.293857
vn 0.993662 -0.081250 0.077683
vn 0.943467 -0.239583 0.229065
vn 0.943822 -0.265317 0.196995
vn 0.943467 -0.239583 0.229065
vn 0.993662 -0.081250 0.077683
vn 0.111885 -0.990312 -0.082241
vn 0.846358 -0.454369 0.277898
vn 0.529553 -0.822206 0.208688
vn 0.529552 -0.822206 0.208688
vn 0.943822 -0.265317 0.196995
vn 0.943726 -0.282142 0.172562
vn 0.993260 -0.096734 0.063854
vn 0.993705 -0.089948 0.066785
vn 0.329094 -0.943347 0.042366
vn 0.143260 -0.960927 -0.236847
vn 0.111816 -0.978961 -0.170682
vn 0.846208 -0.484770 0.221203
vn 0.846207 -0.484770 0.221203
vn 0.330067 -0.940719 -0.078122
vn 0.330067 -0.940719 -0.078122
vn 0.943726 -0.282141 0.172562
vn 0.993693 -0.095660 0.058507
vn 0.704804 -0.687600 0.174523
vn 0.704804 -0.687600 0.174523
vn 0.530494 -0.846835 0.038032
vn 0.530494 -0.846835 0.038031
vn 0.111701 -0.951262 -0.287442
vn 0.329885 -0.929992 -0.162144
vn 0.329578 -0.903770 -0.273091
vn 0.329884 -0.929992 -0.162144
vn 0.943661 -0.301052 0.137372
vn 0.993685 -0.102078 0.046579
vn 0.993330 -0.106024 0.045317
vn 0.943661 -0.301052 0.137372
vn 0.531757 -0.843992 -0.070089
vn 0.531757 -0.843992 -0.070090
vn 0.845160 -0.518086 0.131498
vn 0.845160 -0.518086 0.131498
vn 0.705679 -0.707818 0.031788
vn 0.705679 -0.707818 0.031788
vn 0.329578 -0.903770 -0.273091
vn 0.531520 -0.834458 -0.145488
vn 0.531520 -0.834458 -0.145487
vn 0.121465 -0.878900 -0.461282
vn 0.111291 -0.884691 -0.452698
vn 0.328483 -0.840823 -0.430251
vn 0.706852 -0.704935 -0.058542
vn 0.706852 -0.704935 -0.058542
vn 0.706632 -0.697066 -0.121533
vn 0.943210 -0.321987 0.081725
vn 0.943210 -0.321987 0.081725
vn 0.993662 -0.109593 0.025014
vn 0.993662 -0.112298 0.005043
vn 0.994098 -0.105153 0.026689
vn 0.846551 -0.530481 -0.044054
vn 0.845755 -0.533034 0.023939
vn 0.943467 -0.331134 0.014871
vn 0.845755 -0.533034 0.023939
vn 0.531122 -0.811076 -0.245082
vn 0.531122 -0.811076 -0.245082
vn 0.706632 -0.697066 -0.121533
vn 0.328484 -0.840823 -0.430250
vn 0.846551 -0.530481 -0.044054
vn 0.104264 -0.777570 -0.620092
vn 0.140704 -0.741064 -0.656526
vn 0.943467 -0.331134 0.014871
vn 0.993662 -0.112298 0.005043
vn 0.706263 -0.677687 -0.204776
vn 0.706263 -0.677687 -0.204776
vn 0.111870 -0.689201 -0.715883
vn 0.846402 -0.524630 -0.091469
vn 0.846403 -0.524630 -0.091469
vn 0.529701 -0.755072 -0.386372
vn 0.529701 -0.755072 -0.386372
vn 0.943809 -0.329358 -0.027352
vn 0.993247 -0.114972 -0.015574
vn 0.993703 -0.111660 -0.009273
vn 0.943809 -0.329358 -0.027352
vn 0.329094 -0.738281 -0.588760
vn 0.530494 -0.662750 -0.528525
vn 0.329094 -0.738281 -0.588760
vn 0.142621 -0.562258 -0.814571
vn 0.111835 -0.622257 -0.774783
vn 0.846152 -0.510160 -0.154155
vn 0.846152 -0.510161 -0.154154
vn 0.330027 -0.654695 -0.680042
vn 0.329935 -0.591121 -0.736015
vn 0.330026 -0.654695 -0.680042
vn 0.993695 -0.110447 -0.019256
vn 0.943745 -0.325760 -0.056796
vn 0.943637 -0.316833 -0.095737
vn 0.943745 -0.325760 -0.056796
vn 0.704942 -0.631403 -0.323090
vn 0.704942 -0.631403 -0.323090
vn 0.845254 -0.475704 -0.243418
vn 0.531704 -0.587391 -0.610133
vn 0.530494 -0.662750 -0.528525
vn 0.111674 -0.524340 -0.844154
vn 0.329935 -0.591121 -0.736015
vn 0.329506 -0.498174 -0.802028
vn 0.993682 -0.107431 -0.032462
vn 0.943637 -0.316833 -0.095737
vn 0.993364 -0.109385 -0.035541
vn 0.531705 -0.587392 -0.610132
vn 0.845253 -0.475704 -0.243418
vn 0.706803 -0.490627 -0.509622
vn 0.705679 -0.553952 -0.441762
vn 0.705679 -0.553952 -0.441762
vn 0.329506 -0.498173 -0.802028
vn 0.531586 -0.530381 -0.660387
vn 0.531586 -0.530382 -0.660387
vn 0.531029 -0.447098 -0.719800
vn 0.124466 -0.351847 -0.927745
vn 0.111332 -0.365198 -0.924249
vn 0.706803 -0.490627 -0.509622
vn 0.943250 -0.295627 -0.151273
vn 0.943250 -0.295627 -0.151273
vn 0.994039 -0.097058 -0.049665
vn 0.993662 -0.098989 -0.053268
vn 0.845755 -0.417163 -0.332676
vn 0.845755 -0.417163 -0.332676
vn 0.943467 -0.259152 -0.206667
vn 0.846518 -0.369220 -0.383514
vn 0.531029 -0.447098 -0.719800
vn 0.706694 -0.443038 -0.551635
vn 0.706694 -0.443038 -0.551635
vn 0.706176 -0.373588 -0.601454
vn 0.328594 -0.347077 -0.878387
vn 0.328594 -0.347077 -0.878387
vn 0.846519 -0.369220 -0.383514
vn 0.141769 -0.119319 -0.982682
vn 0.102263 -0.177621 -0.978771
vn 0.993662 -0.087887 -0.070087
vn 0.943467 -0.259152 -0.206667
vn 0.993662 -0.087887 -0.070087
vn 0.706176 -0.373588 -0.601454
vn 0.111853 -0.044583 -0.992724
vn 0.846444 -0.333430 -0.415159
vn 0.846444 -0.333430 -0.415159
vn 0.529844 -0.311660 -0.788754
vn 0.529844 -0.311660 -0.788754
vn 0.993239 -0.076380 -0.087424
vn 0.943795 -0.229242 -0.238117
vn 0.993701 -0.077719 -0.080728
vn 0.943795 -0.229242 -0.238117
vn 0.329094 -0.168611 -0.929122
vn 0.530494 -0.151360 -0.834066
vn 0.329093 -0.168611 -0.929122
vn 0.141769 0.119319 -0.982682
vn 0.111853 0.044583 -0.992724
vn 0.846093 -0.281251 -0.452797
vn 0.846093 -0.281251 -0.452797
vn 0.329982 -0.042352 -0.943037
vn 0.329983 -0.042352 -0.943036
vn 0.943763 -0.207031 -0.257778
vn 0.943763 -0.207031 -0.257778
vn 0.943612 -0.174677 -0.281220
vn 0.993698 -0.070191 -0.087397
vn 0.705075 -0.260594 -0.659515
vn 0.705075 -0.260594 -0.659515
vn 0.530494 -0.151361 -0.834066
vn 0.111646 0.163922 -0.980135
vn 0.329983 0.042352 -0.943036
vn 0.329982 0.042352 -0.943037
vn 0.943612 -0.174677 -0.281219
vn 0.993679 -0.059231 -0.095358
vn 0.993402 -0.058820 -0.098449
vn 0.531648 -0.037999 -0.846113
vn 0.531648 0.037999 -0.846113
vn 0.531648 -0.037999 -0.846113
vn 0.845344 -0.196317 -0.496842
vn 0.845344 -0.196317 -0.496842
vn 0.705679 -0.126513 -0.697145
vn 0.706751 -0.031740 -0.706750
vn 0.705679 -0.126513 -0.697145
vn 0.329430 0.155745 -0.931246
vn 0.329430 0.155745 -0.931246
vn 0.531648 0.037999 -0.846113
vn 0.127250 0.351722 -0.927415
vn 0.111372 0.336308 -0.935144
vn 0.706751 -0.031740 -0.706751
vn 0.993979 -0.040266 -0.101907
vn 0.943290 -0.121993 -0.308743
vn 0.993662 -0.039498 -0.105243
vn 0.993662 -0.020072 -0.110605
vn 0.943290 -0.121993 -0.308743
vn 0.943467 -0.059186 -0.326141
vn 0.845755 -0.095273 -0.524996
vn 0.845755 -0.095273 -0.524997
vn 0.530931 0.139784 -0.835807
vn 0.530931 0.139784 -0.835806
vn 0.706751 0.031740 -0.706750
vn 0.706750 0.031740 -0.706751
vn 0.328701 0.319609 -0.888710
vn 0.328701 0.319609 -0.888710
vn 0.529983 0.286977 -0.797974
vn 0.142621 0.562258 -0.814571
vn 0.100471 0.510304 -0.854105
vn 0.846483 -0.023887 -0.531880
vn 0.846483 -0.023886 -0.531880
vn 0.943467 -0.059186 -0.326141
vn 0.993662 -0.020072 -0.110605
vn 0.943779 -0.014831 -0.330243
vn 0.706085 0.116808 -0.698426
vn 0.706085 0.116808 -0.698426
vn 0.846483 0.023887 -0.531880
vn 0.846483 0.023886 -0.531880
vn 0.111835 0.622257 -0.774783
vn 0.529983 0.286977 -0.797974
vn 0.329093 0.484329 -0.810631
vn 0.329094 0.484330 -0.810631
vn 0.329935 0.591121 -0.736015
vn 0.993236 0.000000 -0.116112
vn 0.943779 -0.014831 -0.330243
vn 0.993700 -0.005028 -0.111963
vn 0.140704 0.741064 -0.656526
vn 0.111870 0.689201 -0.715883
vn 0.846031 0.087942 -0.525830
vn 0.846031 0.087942 -0.525830
vn 0.943779 0.014831 -0.330243
vn 0.993700 0.005028 -0.111963
vn 0.943779 0.014831 -0.330243
vn 0.329935 0.591121 -0.736015
vn 0.705205 0.239936 -0.667171
vn 0.705205 0.239936 -0.667171
vn 0.530494 0.434779 -0.727697
vn 0.531586 0.530382 -0.660387
vn 0.530494 0.434779 -0.727698
vn 0.330027 0.654695 -0.680042
vn 0.330026 0.654695 -0.680042
vn 0.111616 0.770488 -0.627607
vn 0.943585 0.054621 -0.326593
vn 0.943585 0.054621 -0.326594
vn 0.993676 0.018522 -0.110746
vn 0.993445 0.020410 -0.112471
vn 0.531586 0.530381 -0.660387
vn 0.845433 0.180740 -0.502570
vn 0.943328 0.112307 -0.312282
vn 0.845433 0.180740 -0.502570
vn 0.706694 0.443038 -0.551635
vn 0.705679 0.363405 -0.608238
vn 0.705679 0.363405 -0.608238
vn 0.531704 0.587391 -0.610133
vn 0.531705 0.587391 -0.610132
vn 0.329352 0.732074 -0.596317
vn 0.329352 0.732074 -0.596317
vn 0.129817 0.877963 -0.460791
vn 0.111411 0.870189 -0.479957
vn 0.706694 0.443038 -0.551635
vn 0.993918 0.037269 -0.103630
vn 0.993662 0.039499 -0.105243
vn 0.993662 0.057656 -0.096499
vn 0.943328 0.112307 -0.312282
vn 0.845755 0.273668 -0.458044
vn 0.845755 0.273668 -0.458043
vn 0.846444 0.333430 -0.415159
vn 0.706803 0.490627 -0.509622
vn 0.706803 0.490627 -0.509622
vn 0.530829 0.657078 -0.535228
vn 0.530828 0.657078 -0.535229
vn 0.328805 0.826953 -0.456110
vn 0.328804 0.826953 -0.456110
vn 0.098889 0.946395 -0.307502
vn 0.143260 0.960927 -0.236847
vn 0.846444 0.333430 -0.415159
vn 0.943763 0.207031 -0.257778
vn 0.993662 0.057656 -0.096499
vn 0.943467 0.170010 -0.284548
vn 0.943467 0.170010 -0.284548
vn 0.846519 0.369220 -0.383514
vn 0.846518 0.369220 -0.383514
vn 0.705990 0.549107 -0.447280
vn 0.705990 0.549107 -0.447280
vn 0.111816 0.978961 -0.170682
vn 0.530118 0.742477 -0.409516
vn 0.530118 0.742477 -0.409516
vn 0.329094 0.898080 -0.291804
vn 0.530494 0.806200 -0.261950
vn 0.329094 0.898080 -0.291804
vn 0.943763 0.207031 -0.257778
vn 0.993698 0.070191 -0.087397
vn 0.993239 0.076380 -0.087424
vn 0.139425 0.990233 -0.000000
vn 0.111885 0.990312 -0.082241
vn 0.943795 0.229242 -0.238117
vn 0.943795 0.229242 -0.238117
vn 0.993701 0.077719 -0.080728
vn 0.845967 0.413435 -0.336767
vn 0.845967 0.413435 -0.336767
vn 0.329885 0.929992 -0.162144
vn 0.329885 0.929992 -0.162144
vn 0.705330 0.620723 -0.342363
vn 0.705330 0.620723 -0.342363
vn 0.705679 0.673853 -0.218948
vn 0.530494 0.806200 -0.261950
vn 0.330067 0.940719 -0.078122
vn 0.330067 0.940719 -0.078122
vn 0.329269 0.943555 0.035849
vn 0.111585 0.993038 0.037729
vn 0.993493 0.089045 -0.071011
vn 0.943558 0.256797 -0.209176
vn 0.993673 0.087081 -0.070932
vn 0.943558 0.256797 -0.209176
vn 0.531520 0.834458 -0.145487
vn 0.531757 0.843992 -0.070089
vn 0.531520 0.834458 -0.145488
vn 0.845518 0.467546 -0.257877
vn 0.845518 0.467546 -0.257877
vn 0.705679 0.673853 -0.218948
vn 0.531757 0.843992 -0.070090
vn 0.530722 0.846935 0.032178
vn 0.329269 0.943555 0.035849
vn 0.111448 0.970358 0.214440
vn 0.132168 0.962424 0.237216
vn 0.706632 0.697066 -0.121533
vn 0.706632 0.697066 -0.121533
vn 0.943364 0.290501 -0.160227
vn 0.993662 0.098989 -0.053268
vn 0.993855 0.096923 -0.053458
vn 0.943364 0.290501 -0.160227
vn 0.845755 0.507456 -0.164883
vn 0.846402 0.524630 -0.091469
vn 0.943467 0.315244 -0.102429
vn 0.845755 0.507457 -0.164883
vn 0.706852 0.704935 -0.058542
vn 0.706852 0.704935 -0.058542
vn 0.705891 0.707810 0.026892
vn 0.530722 0.846935 0.032178
vn 0.328904 0.922115 0.203779
vn 0.328904 0.922115 0.203779
vn 0.097517 0.915145 0.391152
vn 0.143685 0.876268 0.459901
vn 0.329094 0.868308 0.371133
vn 0.846403 0.524630 -0.091469
vn 0.993662 0.106910 -0.034737
vn 0.943467 0.315244 -0.102429
vn 0.993662 0.106910 -0.034737
vn 0.846551 0.530481 -0.044054
vn 0.846551 0.530481 -0.044054
vn 0.705891 0.707810 0.026892
vn 0.111796 0.847743 0.518492
vn 0.530248 0.827868 0.182951
vn 0.530248 0.827868 0.182951
vn 0.329094 0.868308 0.371132
vn 0.943745 0.325760 -0.056796
vn 0.943745 0.325760 -0.056796
vn 0.993695 0.110447 -0.019256
vn 0.993247 0.114972 -0.015574
vn 0.137933 0.741356 0.656784
vn 0.111898 0.797844 0.592388
vn 0.943809 0.329358 -0.027352
vn 0.943809 0.329358 -0.027352
vn 0.993703 0.111660 -0.009273
vn 0.845899 0.532959 0.020249
vn 0.845899 0.532959 0.020249
vn 0.329830 0.805352 0.492565
vn 0.329830 0.805352 0.492565
vn 0.330104 0.757880 0.562715
vn 0.705450 0.692062 0.152939
vn 0.705451 0.692061 0.152939
vn 0.530494 0.779473 0.333163
vn 0.530494 0.779473 0.333163
vn 0.531450 0.722644 0.441979
vn 0.705679 0.651514 0.278470
vn 0.330104 0.757880 0.562716
vn 0.111553 0.720650 0.684266
vn 0.993545 0.113324 0.005089
vn 0.943529 0.331053 0.012578
vn 0.943529 0.331053 0.012578
vn 0.993669 0.112264 0.004265
vn 0.531450 0.722644 0.441980
vn 0.845600 0.521241 0.115189
vn 0.845600 0.521241 0.115189
vn 0.705679 0.651514 0.278471
vn 0.531805 0.679938 0.504845
vn 0.531805 0.679938 0.504845
vn 0.329183 0.684759 0.650187
vn 0.329183 0.684759 0.650187
vn 0.111484 0.586893 0.801952
vn 0.329001 0.557697 0.762058
vn 0.134305 0.562918 0.815528
vn 0.706567 0.603686 0.369223
vn 0.706567 0.603686 0.369223
vn 0.111922 0.485925 0.866804
vn 0.943400 0.323845 0.071567
vn 0.993792 0.108634 0.024007
vn 0.993662 0.109593 0.025014
vn 0.943400 0.323845 0.071567
vn 0.845755 0.490634 0.209707
vn 0.845755 0.490634 0.209707
vn 0.706896 0.567895 0.421655
vn 0.706896 0.567896 0.421655
vn 0.530610 0.614671 0.583637
vn 0.530610 0.614671 0.583637
vn 0.329001 0.557697 0.762058
vn 0.330167 0.461576 0.823370
vn 0.143898 0.350914 0.925285
vn 0.111751 0.406277 0.906891
vn 0.846358 0.454369 0.277898
vn 0.846358 0.454368 0.277898
vn 0.330167 0.461576 0.823370
vn 0.943467 0.304794 0.130275
vn 0.993662 0.103365 0.044181
vn 0.993662 0.103365 0.044180
vn 0.943467 0.304794 0.130275
vn 0.846581 0.427343 0.317297
vn 0.846581 0.427344 0.317297
vn 0.705787 0.513732 0.487795
vn 0.705787 0.513732 0.487795
vn 0.111774 0.294001 0.949247
vn 0.530373 0.500668 0.684131
vn 0.530373 0.500668 0.684131
vn 0.705567 0.418507 0.571863
vn 0.329711 0.385977 0.861576
vn 0.329772 0.279305 0.901798
vn 0.329711 0.385976 0.861576
vn 0.943726 0.282142 0.172562
vn 0.993693 0.095660 0.058507
vn 0.993260 0.096734 0.063854
vn 0.943726 0.282141 0.172562
vn 0.136226 0.119413 0.983455
vn 0.111519 0.089080 0.989762
vn 0.111911 0.207724 0.971765
vn 0.531886 0.414091 0.738665
vn 0.531887 0.414091 0.738665
vn 0.943822 0.265317 0.196995
vn 0.943822 0.265317 0.196995
vn 0.993705 0.089948 0.066785
vn 0.845829 0.386849 0.367317
vn 0.845829 0.386849 0.367317
vn 0.329772 0.279305 0.901798
vn 0.330137 0.197317 0.923079
vn 0.705567 0.418507 0.571863
vn 0.706972 0.345840 0.616916
vn 0.531295 0.346362 0.773148
vn 0.531295 0.346362 0.773148
vn 0.329094 0.084646 0.940496
vn 0.329094 0.084646 0.940496
vn 0.330137 0.197317 0.923079
vn 0.706972 0.345840 0.616916
vn 0.943498 0.240307 0.228175
vn 0.943498 0.240307 0.228175
vn 0.993601 0.081635 0.078051
vn 0.993666 0.081493 0.077379
vn 0.531375 0.250629 0.809213
vn 0.531375 0.250629 0.809213
vn 0.845679 0.315185 0.430680
vn 0.943434 0.195812 0.267564
vn 0.845679 0.315185 0.430680
vn 0.706423 0.289371 0.645934
vn 0.706423 0.289372 0.645934
vn 0.531848 0.177021 0.828131
vn 0.530494 0.075986 0.844276
vn 0.530494 0.075986 0.844276
vn 0.531848 0.177021 0.828131
vn 0.846633 0.260233 0.464211
vn 0.846633 0.260234 0.464211
vn 0.706497 0.209381 0.676033
vn 0.706497 0.209381 0.676033
vn 0.706936 0.147847 0.691652
vn 0.943844 0.161560 0.288195
vn 0.993662 0.066074 0.090943
vn 0.993727 0.066044 0.090245
vn 0.943434 0.195812 0.267564
vn 0.846311 0.157599 0.508842
vn 0.846261 0.217816 0.486209
vn 0.846261 0.217816 0.486209
vn 0.705679 0.063512 0.705679
vn 0.706936 0.147848 0.691652
vn 0.705679 0.063512 0.705679
vn 0.845755 0.047829 0.531423
vn 0.943844 0.161561 0.288195
vn 0.993707 0.054771 0.097702
vn 0.993302 0.050135 0.104106
vn 0.846311 0.157599 0.508842
vn 0.846609 0.111254 0.520458
vn 0.943684 0.135263 0.301934
vn 0.943684 0.135263 0.301934
vn 0.993688 0.045863 0.102375
vn 0.943706 0.097865 0.315978
vn 0.845755 0.047829 0.531423
vn 0.846608 0.111253 0.520459
vn 0.993691 0.033182 0.107134
vn 0.943706 0.097865 0.315978
vn 0.943834 0.069070 0.323121
vn 0.993278 0.030794 0.111580
vn 0.993706 0.023416 0.109543
vn 0.943467 0.029712 0.330133
vn 0.943834 0.069070 0.323121
vn 0.993662 0.010076 0.111959
vn 0.943467 0.029713 0.330133
vn 0.993662 0.010076 0.111959
vn 1.000000 0.000000 0.000000
vn 1.000000 -0.000000 0.000000
vn 1.000000 0.000000 0.000000
vn 1.000000 -0.000000 0.000000
vn 1.000000 0.000000 0.000000
vn 1.000000 0.000000 0.000000
vn 1.000000 0.000000 0.000000
vn 1.000000 -0.000000 0.000000
vn 1.000000 0.000000 0.000000
vn 1.000000 0.000000 0.000000
vn 1.000000 0.000000 0.000000
vn 1.000000 -0.000000 0.000000
vn 1.000000 -0.000000 0.000000
vn 1.000000 0.000000 0.000000
vn 1.000000 0.000000 0.000000
vn 1.000000 0.000000 0.000000
vn 1.000000 -0.000000 0.000000
vn 1.000000 0.000000 0.000000
vn 1.000000 0.000000 0.000000
vn 1.000000 0.000000 0.000000
vn 1.000000 -0.000000 0.000000
vn 1.000000 0.000000 0.000000
vn 1.000000 0.000000 0.000000
vn 1.000000 0.000000 0.000000
vn 1.000000 0.000000 0.000000
vn 1.000000 0.000000 0.000000
vn 1.000000 0.000000 0.000000
vn 1.000000 -0.000000 0.000000
vn 1.000000 0.000000 0.000000
vn 1.000000 0.000000 0.000000
vn 1.000000 0.000000 0.000000
vn 1.000000 -0.000000 0.000000
vn 1.000000 -0.000000 0.000000
vn 1.000000 0.000000 0.000000
vn 1.000000 -0.000000 0.000000
vn 1.000000 0.000000 0.000000
vn 1.000000 -0.000000 0.000000
vn 1.000000 0.000000 0.000000
vn 1.000000 0.000000 0.000000
vn 1.000000 0.000000 0.000000
vn 1.000000 -0.000000 0.000000
vn 1.000000 0.000000 0.000000
vn 1.000000 0.000000 0.000000
vn 1.000000 0.000000 0.000000
vn 1.000000 0.000000 0.000000
vn 1.000000 -0.000000 0.000000
vn 1.000000 0.000000 0.000000
vn 1.000000 0.000000 0.000000
vn 1.000000 0.000000 0.000000
vn 1.000000 -0.000000 0.000000
vn 1.000000 0.000000 0.000000
vn 1.000000 0.000000 0.000000
vn 1.000000 -0.000000 0.000000
vn 1.000000 -0.000000 0.000000
vn 1.000000 -0.000000 0.000000
vn 1.000000 -0.000000 0.000000
vn 1.000000 0.000000 0.000000
vn 1.000000 -0.000000 0.000000
vn 1.000000 0.000000 0.000000
vn 1.000000 -0.000000 0.000000
vn 1.000000 0.000000 0.000000
vn 1.000000 0.000000 0.000000
vn 1.000000 0.000000 0.000000
vn 1.000000 0.000000 0.000000
vn 1.000000 0.000000 0.000000
vn 1.000000 0.000000 0.000000
vn 1.000000 -0.000000 0.000000
vn 1.000000 0.000000 0.000000
vn 1.000000 0.000000 0.000000
vn 1.000000 0.000000 0.000000
vn 1.000000 0.000000 0.000000
vn 1.000000 0.000000 0.000000
vn 1.000000 0.000000 0.000000
vn 1.000000 0.000000 0.000000
vn 1.000000 -0.000000 0.000000
vn 1.000000 0.000000 0.000000
vn 1.000000 0.000000 0.000000
vn 1.000000 0.000000 0.000000
vn 1.000000 0.000000 0.000000
vn 1.000000 0.000000 0.000000
vn 1.000000 0.000000 0.000000
vn 1.000000 0.000000 0.000000
vn 1.000000 -0.000000 0.000000
vn 1.000000 0.000000 0.000000
vn 1.000000 -0.000000 0.000000
vn 1.000000 0.000000 0.000000
vn 1.000000 0.000000 0.000000
vn 1.000000 0.000000 0.000000
vn 1.000000 0.000000 0.000000
vn 1.000000 0.000000 0.000000
vn 1.000000 0.000000 0.000000
vn 1.000000 0.000000 0.000000
vn 1.000000 -0.000000 0.000000
vn 1.000000 0.000000 0.000000
vn 1.000000 0.000000 0.000000
vn 0.000000 -0.120537 0.992709
vn 0.000000 -0.120537 0.992709
vn 0.000000 -0.354605 0.935016
vn 0.000000 -0.354605 0.935016
vn 0.000000 -0.568065 0.822984
vn 0.000000 -0.568065 0.822984
vn 0.000000 -0.748511 0.663123
vn 0.000000 -0.748511 0.663123
vn 0.000000 -0.885456 0.464723
vn 0.000000 -0.885456 0.464723
vn 0.000000 -0.970942 0.239316
vn 0.000000 -0.970942 0.239316
vn 0.000000 -1.000000 0.000000
vn 0.000000 -1.000000 0.000000
vn -0.000000 -0.970942 -0.239316
vn 0.000000 -0.970942 -0.239316
vn -0.000000 -0.885456 -0.464723
vn -0.000000 -0.748511 -0.663123
vn 0.000000 -0.885456 -0.464723
vn -0.000000 -0.748511 -0.663123
vn 0.000000 -0.568065 -0.822984
vn -0.000000 -0.568065 -0.822984
vn -0.000000 -0.354605 -0.935016
vn -0.000000 -0.354605 -0.935016
vn 0.000000 -0.120537 -0.992709
vn -0.000000 -0.120537 -0.992709
vn 0.000000 0.120537 -0.992709
vn 0.000000 0.120537 -0.992709
vn 0.000000 0.354605 -0.935016
vn 0.000000 0.354605 -0.935016
vn 0.000000 0.568065 -0.822984
vn 0.000000 0.568065 -0.822984
vn 0.000000 0.748511 -0.663123
vn 0.000000 0.885456 -0.464723
vn 0.000000 0.748511 -0.663123
vn 0.000000 0.885456 -0.464723
vn 0.000000 0.970942 -0.239316
vn 0.000000 0.970942 -0.239316
vn 0.000000 1.000000 0.000000
vn 0.000000 1.000000 0.000000
vn 0.000000 0.970942 0.239316
vn 0.000000 0.970942 0.239316
vn 0.000000 0.885456 0.464723
vn 0.000000 0.885456 0.464723
vn 0.000000 0.748511 0.663123
vn 0.000000 0.748511 0.663123
vn 0.000000 0.568065 0.822984
vn 0.000000 0.568065 0.822984
vn 0.000000 0.354605 0.935016
vn 0.000000 0.354605 0.935016
vn 0.000000 0.120537 0.992709
vn 0.000000 0.120537 0.992709
vn 0.000000 -0.000000 1.000000
vn 0.000000 0.000000 1.000000
vn 0.000000 0.707107 0.707107
vn 0.000000 0.707107 0.707107
vn 0.000000 -0.707107 0.707107
vn 0.000000 -0.707107 0.707107
vn 0.000000 1.000000 0.000000
vn 0.000000 1.000000 0.000000
vn 0.000000 -1.000000 0.000000
vn 0.000000 -1.000000 0.000000
vn 0.000000 0.707107 -0.707107
vn 0.000000 0.707107 -0.707107
vn 0.000000 -0.707107 -0.707107
vn -0.000000 -0.707107 -0.707107
vn 0.000000 -0.000000 -1.000000
vn -0.000000 0.000000 -1.000000
vn 1.000000 0.000000 0.000000
vn 1.000000 0.000000 0.000000
vn 1.000000 0.000000 0.000000
vn 1.000000 -0.000000 0.000000
vn 1.000000 0.000000 0.000000
vn 1.000000 0.000000 0.000000
vn 1.000000 -0.000000 0.000000
vn 1.000000 0.000000 0.000000
vn 1.000000 0.000000 0.000000
vn 1.000000 0.000000 0.000000
vn 1.000000 0.000000 0.000000
vn 1.000000 -0.000000 0.000000
vn 1.000000 0.000000 0.000000
vn 1.000000 -0.000000 0.000000
vn 1.000000 0.000000 0.000000
vn 1.000000 0.000000 0.000000
vn 1.000000 -0.000000 0.000000
vn 1.000000 0.000000 0.000000
vn 1.000000 0.000000 0.000000
vn 1.000000 0.000000 0.000000
vn 1.000000 -0.000000 0.000000
vn 1.000000 0.000000 0.000000
vn 1.000000 0.000000 0.000000
vn 1.000000 0.000000 0.000000
vn 1.000000 0.000000 0.000000
vn 1.000000 0.000000 0.000000
vn 1.000000 0.000000 0.000000
vn 1.000000 -0.000000 0.000000
vn 1.000000 0.000000 0.000000
vn 1.000000 0.000000 0.000000
vn 1.000000 0.000000 0.000000
vn 1.000000 -0.000000 0.000000
vn 1.000000 0.000000 0.000000
vn 1.000000 0.000000 0.000000
vn 1.000000 0.000000 0.000000
vn 1.000000 -0.000000 0.000000
vn 1.000000 0.000000 0.000000
vn 1.000000 0.000000 0.000000
vn 1.000000 0.000000 0.000000
vn 1.000000 0.000000 0.000000
vn 1.000000 -0.000000 0.000000
vn 1.000000 0.000000 0.000000
vn 1.000000 0.000000 0.000000
vn 1.000000 0.000000 0.000000
vn 1.000000 -0.000000 0.000000
vn 1.000000 0.000000 0.000000
vn 1.000000 0.000000 0.000000
vn 1.000000 0.000000 0.000000
vn 1.000000 -0.000000 0.000000
vn 1.000000 0.000000 0.000000
vn 1.000000 0.000000 0.000000
vn 1.000000 0.000000 0.000000
vn -1.000000 0.000000 0.000000
vn -1.000000 0.000000 0.000000
vn -1.000000 0.000000 0.000000
vn -1.000000 0.000000 0.000000
vn -1.000000 -0.000000 0.000000
vn -1.000000 0.000000 0.000000
vn 0.000000 -0.120537 0.992709
vn 0.000000 -0.354605 0.935016
vn 0.000000 -0.120537 0.992709
vn 0.000000 -0.354605 0.935016
vn 0.000000 -0.568065 0.822984
vn 0.000000 -0.748511 0.663123
vn 0.000000 -0.568065 0.822984
vn 0.000000 -0.748511 0.663123
vn 0.000000 -0.885456 0.464723
vn 0.000000 -0.885456 0.464723
vn 0.000000 -0.970942 0.239316
vn -0.000000 -1.000000 0.000000
vn 0.000000 -0.970942 0.239316
vn 0.000000 -1.000000 0.000000
vn -0.000000 -0.970942 -0.239316
vn -0.000000 -0.885456 -0.464723
vn 0.000000 -0.970942 -0.239316
vn -0.000000 -0.885456 -0.464723
vn -0.000000 -0.748511 -0.663123
vn 0.000000 -0.748511 -0.663123
vn 0.000000 -0.568065 -0.822984
vn -0.000000 -0.568065 -0.822984
vn -0.000000 -0.354605 -0.935016
vn -0.000000 -0.354605 -0.935016
vn 0.000000 -0.120537 -0.992709
vn -0.000000 -0.120537 -0.992709
vn 0.000000 0.120537 -0.992709
vn 0.000000 0.120537 -0.992709
vn 0.000000 0.354605 -0.935016
vn 0.000000 0.354605 -0.935016
vn 0.000000 0.568065 -0.822984
vn 0.000000 0.568065 -0.822984
vn 0.000000 0.748511 -0.663123
vn 0.000000 0.748511 -0.663123
vn 0.000000 0.885456 -0.464723
vn 0.000000 0.885456 -0.464723
vn 0.000000 0.970942 -0.239316
vn 0.000000 0.970942 -0.239316
vn 0.000000 1.000000 0.000000
vn 0.000000 1.000000 0.000000
vn 0.000000 0.970942 0.239316
vn 0.000000 0.970942 0.239316
vn 0.000000 0.885456 0.464723
vn 0.000000 0.748511 0.663123
vn 0.000000 0.885456 0.464723
vn 0.000000 0.748511 0.663123
vn 0.000000 0.568065 0.822984
vn 0.000000 0.568065 0.822984
vn 0.000000 0.354605 0.935016
vn 0.000000 0.354605 0.935016
vn 0.000000 0.120537 0.992709
vn 0.000000 0.120537 0.992709
vn 1.000000 0.000000 0.000000
vn 1.000000 0.000000 0.000000
vn 1.000000 0.000000 0.000000
vn 1.000000 0.000000 0.000000
vn 1.000000 0.000000 0.000000
vn 1.000000 0.000000 0.000000
vn 1.000000 0.000000 0.000000
vn 1.000000 0.000000 0.000000
vn 1.000000 0.000000 0.000000
vn 1.000000 0.000000 0.000000
vn 1.000000 0.000000 0.000000
vn 1.000000 0.000000 0.000000
vn 1.000000 0.000000 0.000000
vn 1.000000 0.000000 0.000000
vn 1.000000 0.000000 0.000000
vn 1.000000 0.000000 0.000000
vn 1.000000 0.000000 0.000000
vn 1.000000 0.000000 0.000000
vn 1.000000 0.000000 0.000000
vn 1.000000 0.000000 0.000000
vn 1.000000 0.000000 0.000000
vn 1.000000 0.000000 0.000000
vn 1.000000 -0.000000 0.000000
vn 1.000000 0.000000 0.000000
f 1//1 2//1 3//1
f 1//2 3//2 4//2
f 5//3 4//3 6//3
f 5//4 6//4 7//4
f 5//5 1//5 4//5
f 8//6 5//6 7//6
f 9//7 7//7 10//7
f 9//8 10//8 11//8
f 9//9 8//9 7//9
f 12//10 11//10 13//10
f 12//11 9//11 11//11
f 14//12 12//12 13//12
f 15//13 13//13 16//13
f 15//14 14//14 13//14
f 17//15 16//15 18//15
f 17//16 18//16 19//16
f 17//17 15//17 16//17
f 20//18 17//18 19//18
f 21//19 19//19 22//19
f 21//20 20//20 19//20
f 23//21 21//21 22//21
f 23//22 22//22 24//22
f 25//23 23//23 24//23
f 25//24 24//24 26//24
f 27//25 25//25 26//25
f 27//26 26//26 28//26
f 27//27 28//27 29//27
f 30//28 27//28 29//28
f 31//29 29//29 32//29
f 31//30 30//30 29//30
f 33//31 32//31 34//31
f 33//32 31//32 32//32
f 33//33 34//33 35//33
f 36//34 33//34 35//34
f 37//35 35//35 38//35
f 37//36 36//36 35//36
f 39//37 38//37 40//37
f 39//38 40//38 41//38
f 39//39 37//39 38//39
f 42//40 39//40 41//40
f 43//41 41//41 44//41
f 43//42 42//42 41//42
f 45//43 44//43 46//43
f 45//44 43//44 44//44
f 47//45 46//45 48//45
f 47//46 45//46 46//46
f 49//47 48//47 50//47
f 49//48 50//48 51//48
f 49//49 47//49 48//49
f 52//50 49//50 51//50
f 2//51 51//51 3//51
f 2//52 52//52 51//52
f 53//53 54//53 3//53
f 3//54 54//54 4//54
f 54//55 55//55 4//55
f 56//56 57//56 53//56
f 53//57 57//57 54//57
f 55//58 58//58 4//58
f 4//59 58//59 6//59
f 54//60 59//60 55//60
f 57//61 59//61 54//61
f 58//62 60//62 6//62
f 61//63 62//63 56//63
f 56//64 62//64 57//64
f 59//65 63//65 55//65
f 55//66 63//66 58//66
f 6//67 64//67 7//67
f 60//68 64//68 6//68
f 62//69 65//69 57//69
f 57//70 65//70 59//70
f 60//71 66//71 64//71
f 58//72 66//72 60//72
f 63//73 66//73 58//73
f 67//74 68//74 61//74
f 61//75 68//75 62//75
f 65//76 69//76 59//76
f 59//77 69//77 63//77
f 66//78 70//78 64//78
f 68//79 71//79 62//79
f 62//80 71//80 65//80
f 64//81 72//81 7//81
f 66//82 73//82 70//82
f 69//83 73//83 63//83
f 63//84 73//84 66//84
f 74//85 75//85 67//85
f 67//86 75//86 68//86
f 65//87 76//87 69//87
f 71//88 76//88 65//88
f 73//89 77//89 70//89
f 68//90 78//90 71//90
f 71//91 78//91 76//91
f 75//92 78//92 68//92
f 64//93 79//93 72//93
f 70//94 79//94 64//94
f 7//95 80//95 10//95
f 72//96 80//96 7//96
f 73//97 81//97 77//97
f 76//98 81//98 69//98
f 69//99 81//99 73//99
f 82//100 83//100 74//100
f 84//101 83//101 82//101
f 75//102 83//102 78//102
f 85//103 83//103 84//103
f 74//104 83//104 75//104
f 80//105 86//105 10//105
f 78//106 87//106 76//106
f 81//107 88//107 77//107
f 89//108 90//108 85//108
f 85//109 90//109 83//109
f 83//110 90//110 78//110
f 77//111 91//111 70//111
f 70//112 91//112 79//112
f 91//113 92//113 79//113
f 79//114 92//114 72//114
f 72//115 92//115 80//115
f 10//116 93//116 11//116
f 86//117 93//117 10//117
f 76//118 94//118 81//118
f 87//119 94//119 76//119
f 81//120 94//120 88//120
f 92//121 95//121 80//121
f 80//122 95//122 86//122
f 87//123 96//123 94//123
f 90//124 96//124 78//124
f 78//125 96//125 87//125
f 89//126 96//126 90//126
f 94//127 97//127 88//127
f 77//128 98//128 91//128
f 88//129 98//129 77//129
f 93//130 99//130 11//130
f 91//131 100//131 92//131
f 86//132 101//132 93//132
f 95//133 101//133 86//133
f 96//134 102//134 94//134
f 103//135 102//135 89//135
f 94//136 102//136 97//136
f 89//137 102//137 96//137
f 100//138 104//138 92//138
f 92//139 104//139 95//139
f 95//140 104//140 101//140
f 105//141 106//141 103//141
f 103//142 106//142 102//142
f 102//143 106//143 97//143
f 97//144 107//144 88//144
f 88//145 107//145 98//145
f 101//146 108//146 93//146
f 93//147 108//147 99//147
f 98//148 109//148 91//148
f 91//149 109//149 100//149
f 100//150 109//150 104//150
f 104//151 110//151 101//151
f 101//152 110//152 108//152
f 99//153 111//153 11//153
f 11//154 111//154 13//154
f 108//155 111//155 99//155
f 109//156 112//156 104//156
f 97//157 113//157 107//157
f 106//158 113//158 97//158
f 105//159 113//159 106//159
f 110//160 114//160 108//160
f 107//161 115//161 98//161
f 98//162 115//162 109//162
f 104//163 116//163 110//163
f 112//164 116//164 104//164
f 108//165 117//165 111//165
f 115//166 118//166 109//166
f 112//167 118//167 116//167
f 109//168 118//168 112//168
f 117//169 119//169 111//169
f 13//170 119//170 16//170
f 111//171 119//171 13//171
f 116//172 120//172 110//172
f 110//173 120//173 114//173
f 121//174 122//174 105//174
f 113//175 122//175 107//175
f 115//176 122//176 118//176
f 107//177 122//177 115//177
f 105//178 122//178 113//178
f 119//179 123//179 16//179
f 118//180 124//180 116//180
f 108//181 125//181 117//181
f 114//182 125//182 108//182
f 122//183 126//183 118//183
f 118//184 126//184 124//184
f 127//185 126//185 121//185
f 121//186 126//186 122//186
f 117//187 128//187 119//187
f 16//188 129//188 18//188
f 123//189 129//189 16//189
f 116//190 130//190 120//190
f 124//191 130//191 116//191
f 128//192 131//192 119//192
f 119//193 131//193 123//193
f 126//194 132//194 124//194
f 127//195 132//195 126//195
f 114//196 133//196 125//196
f 120//197 133//197 114//197
f 125//198 134//198 117//198
f 117//199 134//199 128//199
f 129//200 135//200 18//200
f 123//201 136//201 129//201
f 129//202 136//202 135//202
f 131//203 136//203 123//203
f 132//204 137//204 124//204
f 127//205 137//205 132//205
f 138//206 137//206 127//206
f 124//207 137//207 130//207
f 128//208 139//208 131//208
f 134//209 139//209 128//209
f 130//210 140//210 120//210
f 120//211 140//211 133//211
f 125//212 141//212 134//212
f 133//213 141//213 125//213
f 136//214 142//214 135//214
f 131//215 143//215 136//215
f 139//216 143//216 131//216
f 18//217 144//217 19//217
f 135//218 144//218 18//218
f 142//219 144//219 135//219
f 134//220 145//220 139//220
f 141//221 145//221 134//221
f 139//222 145//222 143//222
f 137//223 146//223 130//223
f 130//224 146//224 140//224
f 147//225 146//225 138//225
f 148//226 146//226 147//226
f 138//227 146//227 137//227
f 141//228 149//228 145//228
f 133//229 149//229 141//229
f 146//230 149//230 140//230
f 140//231 149//231 133//231
f 143//232 150//232 136//232
f 136//233 150//233 142//233
f 145//234 151//234 143//234
f 142//235 152//235 144//235
f 149//236 153//236 145//236
f 144//237 154//237 19//237
f 19//238 154//238 22//238
f 146//239 155//239 149//239
f 148//240 155//240 146//240
f 143//241 156//241 150//241
f 151//242 156//242 143//242
f 154//243 157//243 22//243
f 145//244 158//244 151//244
f 153//245 158//245 145//245
f 150//246 159//246 142//246
f 142//247 159//247 152//247
f 155//248 160//248 149//248
f 161//249 160//249 148//249
f 148//250 160//250 155//250
f 149//251 160//251 153//251
f 144//252 162//252 154//252
f 159//253 162//253 152//253
f 152//254 162//254 144//254
f 22//255 163//255 24//255
f 157//256 163//256 22//256
f 151//257 164//257 156//257
f 158//258 164//258 151//258
f 162//259 165//259 154//259
f 157//260 165//260 163//260
f 154//261 165//261 157//261
f 161//262 166//262 160//262
f 160//263 166//263 153//263
f 158//264 166//264 164//264
f 153//265 166//265 158//265
f 156//266 167//266 150//266
f 150//267 167//267 159//267
f 164//268 167//268 156//268
f 162//269 168//269 165//269
f 159//270 168//270 162//270
f 163//271 169//271 24//271
f 165//272 170//272 163//272
f 163//273 170//273 169//273
f 161//274 171//274 166//274
f 166//275 171//275 164//275
f 172//276 171//276 161//276
f 168//277 173//277 165//277
f 164//278 174//278 167//278
f 168//279 175//279 173//279
f 159//280 175//280 168//280
f 167//281 175//281 159//281
f 170//282 176//282 169//282
f 173//283 177//283 165//283
f 165//284 177//284 170//284
f 170//285 177//285 176//285
f 24//286 178//286 26//286
f 169//287 178//287 24//287
f 175//288 179//288 173//288
f 171//289 180//289 164//289
f 164//290 180//290 174//290
f 172//291 180//291 171//291
f 181//292 180//292 172//292
f 167//293 182//293 175//293
f 174//294 182//294 167//294
f 180//295 182//295 174//295
f 175//296 182//296 179//296
f 177//297 183//297 176//297
f 179//298 184//298 173//298
f 173//299 184//299 177//299
f 177//300 184//300 183//300
f 176//301 185//301 169//301
f 169//302 185//302 178//302
f 182//303 186//303 179//303
f 26//304 187//304 28//304
f 178//305 187//305 26//305
f 188//306 189//306 181//306
f 180//307 189//307 182//307
f 181//308 189//308 180//308
f 184//309 190//309 183//309
f 187//310 191//310 28//310
f 179//311 192//311 184//311
f 186//312 192//312 179//312
f 176//313 193//313 185//313
f 183//314 193//314 176//314
f 194//315 195//315 188//315
f 182//316 195//316 186//316
f 188//317 195//317 189//317
f 189//318 195//318 182//318
f 185//319 196//319 178//319
f 193//320 196//320 185//320
f 178//321 196//321 187//321
f 28//322 197//322 29//322
f 191//323 197//323 28//323
f 184//324 198//324 190//324
f 192//325 198//325 184//325
f 196//326 199//326 187//326
f 187//327 199//327 191//327
f 195//328 200//328 186//328
f 186//329 200//329 192//329
f 192//330 200//330 198//330
f 194//331 200//331 195//331
f 183//332 201//332 193//332
f 190//333 201//333 183//333
f 193//334 202//334 196//334
f 197//335 203//335 29//335
f 199//336 204//336 191//336
f 191//337 204//337 197//337
f 200//338 205//338 198//338
f 194//339 205//339 200//339
f 206//340 205//340 194//340
f 202//341 207//341 196//341
f 199//342 207//342 204//342
f 196//343 207//343 199//343
f 190//344 208//344 201//344
f 198//345 208//345 190//345
f 193//346 209//346 202//346
f 202//347 209//347 207//347
f 201//348 209//348 193//348
f 204//349 210//349 197//349
f 197//350 210//350 203//350
f 207//351 211//351 204//351
f 29//352 212//352 32//352
f 203//353 212//353 29//353
f 209//354 213//354 207//354
f 206//355 214//355 205//355
f 198//356 214//356 208//356
f 215//357 214//357 206//357
f 216//358 214//358 215//358
f 205//359 214//359 198//359
f 214//360 217//360 208//360
f 201//361 217//361 209//361
f 208//362 217//362 201//362
f 204//363 218//363 210//363
f 211//364 218//364 204//364
f 207//365 219//365 211//365
f 213//366 219//366 207//366
f 210//367 220//367 203//367
f 203//368 220//368 212//368
f 218//369 220//369 210//369
f 32//370 221//370 34//370
f 212//371 221//371 32//371
f 217//372 222//372 209//372
f 209//373 222//373 213//373
f 214//374 223//374 217//374
f 216//375 223//375 214//375
f 217//376 223//376 222//376
f 211//377 224//377 218//377
f 219//378 224//378 211//378
f 222//379 225//379 213//379
f 213//380 225//380 219//380
f 221//381 226//381 34//381
f 218//382 227//382 220//382
f 220//383 228//383 212//383
f 212//384 228//384 221//384
f 221//385 228//385 226//385
f 229//386 230//386 216//386
f 223//387 230//387 222//387
f 216//388 230//388 223//388
f 34//389 231//389 35//389
f 226//390 231//390 34//390
f 219//391 232//391 224//391
f 225//392 232//392 219//392
f 222//393 233//393 225//393
f 229//394 233//394 230//394
f 230//395 233//395 222//395
f 228//396 234//396 226//396
f 224//397 235//397 218//397
f 218//398 235//398 227//398
f 227//399 236//399 220//399
f 228//400 236//400 234//400
f 220//401 236//401 228//401
f 226//402 237//402 231//402
f 234//403 237//403 226//403
f 231//404 238//404 35//404
f 225//405 239//405 232//405
f 233//406 239//406 225//406
f 229//407 239//407 233//407
f 240//408 239//408 229//408
f 236//409 241//409 234//409
f 224//410 242//410 235//410
f 239//411 242//411 232//411
f 232//412 242//412 224//412
f 236//413 243//413 241//413
f 227//414 243//414 236//414
f 235//415 243//415 227//415
f 234//416 244//416 237//416
f 241//417 244//417 234//417
f 237//418 245//418 231//418
f 231//419 245//419 238//419
f 35//420 246//420 38//420
f 238//421 246//421 35//421
f 243//422 247//422 241//422
f 240//423 248//423 239//423
f 249//424 248//424 240//424
f 250//425 248//425 249//425
f 239//426 248//426 242//426
f 235//427 251//427 243//427
f 242//428 251//428 235//428
f 243//429 251//429 247//429
f 247//430 252//430 241//430
f 241//431 252//431 244//431
f 237//432 253//432 245//432
f 244//433 253//433 237//433
f 245//434 254//434 238//434
f 238//435 254//435 246//435
f 246//436 255//436 38//436
f 38//437 255//437 40//437
f 251//438 256//438 247//438
f 251//439 257//439 256//439
f 250//440 257//440 248//440
f 248//441 257//441 242//441
f 242//442 257//442 251//442
f 256//443 258//443 247//443
f 247//444 258//444 252//444
f 244//445 259//445 253//445
f 252//446 259//446 244//446
f 255//447 260//447 40//447
f 245//448 261//448 254//448
f 253//449 261//449 245//449
f 246//450 262//450 255//450
f 261//451 262//451 254//451
f 254//452 262//452 246//452
f 257//453 263//453 256//453
f 250//454 263//454 257//454
f 264//455 263//455 250//455
f 40//456 265//456 41//456
f 260//457 265//457 40//457
f 263//458 266//458 256//458
f 256//459 266//459 258//459
f 264//460 266//460 263//460
f 258//461 267//461 252//461
f 252//462 267//462 259//462
f 262//463 268//463 255//463
f 255//464 268//464 260//464
f 259//465 269//465 253//465
f 253//466 269//466 261//466
f 269//467 270//467 261//467
f 261//468 270//468 262//468
f 260//469 271//469 265//469
f 268//470 271//470 260//470
f 271//471 272//471 265//471
f 265//472 272//472 41//472
f 273//473 274//473 264//473
f 258//474 274//474 267//474
f 264//475 274//475 266//475
f 266//476 274//476 258//476
f 270//477 275//477 262//477
f 268//478 275//478 271//478
f 262//479 275//479 268//479
f 267//480 276//480 259//480
f 259//481 276//481 269//481
f 269//482 277//482 270//482
f 275//483 278//483 271//483
f 278//484 279//484 271//484
f 271//485 279//485 272//485
f 272//486 280//486 41//486
f 41//487 280//487 44//487
f 277//488 281//488 270//488
f 270//489 281//489 275//489
f 274//490 282//490 267//490
f 283//491 282//491 273//491
f 273//492 282//492 274//492
f 267//493 282//493 276//493
f 269//494 284//494 277//494
f 277//495 284//495 281//495
f 282//496 284//496 276//496
f 276//497 284//497 269//497
f 281//498 285//498 275//498
f 275//499 285//499 278//499
f 285//500 286//500 278//500
f 278//501 286//501 279//501
f 279//502 287//502 272//502
f 272//503 287//503 280//503
f 280//504 288//504 44//504
f 44//505 288//505 46//505
f 287//506 288//506 280//506
f 284//507 289//507 281//507
f 283//508 290//508 282//508
f 282//509 290//509 284//509
f 291//510 290//510 283//510
f 289//511 292//511 281//511
f 281//512 292//512 285//512
f 285//513 293//513 286//513
f 288//514 294//514 46//514
f 279//515 295//515 287//515
f 286//516 295//516 279//516
f 287//517 296//517 288//517
f 284//518 297//518 289//518
f 290//519 297//519 284//519
f 291//520 297//520 290//520
f 298//521 297//521 291//521
f 46//522 299//522 48//522
f 294//523 299//523 46//523
f 297//524 300//524 289//524
f 289//525 300//525 292//525
f 298//526 300//526 297//526
f 292//527 301//527 285//527
f 285//528 301//528 293//528
f 288//529 302//529 294//529
f 296//530 302//530 288//530
f 294//531 302//531 299//531
f 293//532 303//532 286//532
f 286//533 303//533 295//533
f 295//534 304//534 287//534
f 287//535 304//535 296//535
f 296//536 304//536 302//536
f 303//537 304//537 295//537
f 302//538 305//538 299//538
f 299//539 306//539 48//539
f 307//540 308//540 298//540
f 292//541 308//541 301//541
f 300//542 308//542 292//542
f 298//543 308//543 300//543
f 304//544 309//544 302//544
f 301//545 310//545 293//545
f 293//546 310//546 303//546
f 303//547 311//547 304//547
f 309//548 312//548 302//548
f 302//549 312//549 305//549
f 305//550 313//550 299//550
f 299//551 313//551 306//551
f 306//552 314//552 48//552
f 313//553 314//553 306//553
f 48//554 314//554 50//554
f 304//555 315//555 309//555
f 311//556 315//556 304//556
f 314//557 316//557 50//557
f 301//558 317//558 310//558
f 307//559 317//559 308//559
f 318//560 317//560 307//560
f 308//561 317//561 301//561
f 310//562 319//562 303//562
f 303//563 319//563 311//563
f 315//564 320//564 309//564
f 309//565 320//565 312//565
f 305//566 321//566 313//566
f 312//567 321//567 305//567
f 313//568 322//568 314//568
f 314//569 322//569 316//569
f 50//570 323//570 51//570
f 316//571 323//571 50//571
f 319//572 324//572 311//572
f 311//573 324//573 315//573
f 322//574 325//574 316//574
f 310//575 326//575 319//575
f 318//576 326//576 317//576
f 327//577 326//577 318//577
f 317//578 326//578 310//578
f 315//579 328//579 320//579
f 324//580 328//580 315//580
f 312//581 329//581 321//581
f 320//582 329//582 312//582
f 323//583 330//583 51//583
f 321//584 331//584 313//584
f 313//585 331//585 322//585
f 329//586 331//586 321//586
f 325//587 332//587 316//587
f 323//588 332//588 330//588
f 316//589 332//589 323//589
f 319//590 333//590 324//590
f 327//591 333//591 326//591
f 334//592 333//592 327//592
f 326//593 333//593 319//593
f 51//594 335//594 3//594
f 3//595 335//595 53//595
f 330//596 335//596 51//596
f 331//597 336//597 322//597
f 322//598 336//598 325//598
f 324//599 337//599 328//599
f 333//600 337//600 324//600
f 334//601 337//601 333//601
f 328//602 338//602 320//602
f 320//603 338//603 329//603
f 332//604 339//604 330//604
f 330//605 339//605 335//605
f 329//606 340//606 331//606
f 331//607 340//607 336//607
f 325//608 341//608 332//608
f 336//609 341//609 325//609
f 53//610 342//610 56//610
f 335//611 342//611 53//611
f 339//612 342//612 335//612
f 340//613 343//613 336//613
f 337//614 344//614 328//614
f 328//615 344//615 338//615
f 345//616 344//616 334//616
f 334//617 344//617 337//617
f 332//618 346//618 339//618
f 341//619 346//619 332//619
f 338//620 347//620 329//620
f 344//621 347//621 338//621
f 329//622 347//622 340//622
f 343//623 348//623 336//623
f 336//624 348//624 341//624
f 346//625 349//625 339//625
f 56//626 349//626 61//626
f 342//627 349//627 56//627
f 339//628 349//628 342//628
f 347//629 350//629 340//629
f 340//630 350//630 343//630
f 341//631 351//631 346//631
f 348//632 351//632 341//632
f 346//633 351//633 349//633
f 347//634 352//634 350//634
f 353//635 352//635 345//635
f 345//636 352//636 344//636
f 344//637 352//637 347//637
f 348//638 354//638 351//638
f 350//639 354//639 343//639
f 343//640 354//640 348//640
f 349//641 355//641 61//641
f 351//642 355//642 349//642
f 61//643 355//643 67//643
f 67//644 355//644 74//644
f 352//645 356//645 350//645
f 353//646 356//646 352//646
f 357//647 356//647 353//647
f 354//648 358//648 351//648
f 351//649 358//649 355//649
f 356//650 359//650 350//650
f 350//651 359//651 354//651
f 357//652 359//652 356//652
f 354//653 359//653 358//653
f 355//654 360//654 74//654
f 358//655 360//655 355//655
f 357//656 361//656 359//656
f 359//657 361//657 358//657
f 358//658 361//658 360//658
f 362//659 361//659 357//659
f 362//660 363//660 361//660
f 74//661 363//661 82//661
f 361//662 363//662 360//662
f 82//663 363//663 84//663
f 360//664 363//664 74//664
f 84//665 363//665 362//665
f 364//666 33//666 36//666
f 364//667 36//667 37//667
f 364//668 365//668 33//668
f 366//669 31//669 33//669
f 366//670 33//670 365//670
f 367//671 364//671 37//671
f 368//672 30//672 31//672
f 368//673 31//673 366//673
f 27//674 30//674 368//674
f 369//675 37//675 39//675
f 369//676 367//676 37//676
f 370//677 27//677 368//677
f 371//678 39//678 42//678
f 371//679 369//679 39//679
f 372//680 25//680 27//680
f 372//681 27//681 370//681
f 373//682 42//682 43//682
f 373//683 371//683 42//683
f 374//684 23//684 25//684
f 374//685 25//685 372//685
f 375//686 43//686 45//686
f 375//687 373//687 43//687
f 376//688 21//688 23//688
f 376//689 23//689 374//689
f 47//690 377//690 375//690
f 47//691 375//691 45//691
f 378//692 21//692 376//692
f 20//693 21//693 378//693
f 49//694 377//694 47//694
f 49//695 379//695 377//695
f 17//696 20//696 378//696
f 17//697 378//697 380//697
f 381//698 379//698 49//698
f 52//699 381//699 49//699
f 382//700 381//700 52//700
f 15//701 17//701 380//701
f 15//702 380//702 383//702
f 2//703 382//703 52//703
f 14//704 15//704 383//704
f 14//705 383//705 384//705
f 1//706 382//706 2//706
f 1//707 385//707 382//707
f 12//708 14//708 384//708
f 12//709 384//709 386//709
f 5//710 387//710 385//710
f 5//711 385//711 1//711
f 9//712 386//712 388//712
f 9//713 12//713 386//713
f 8//714 387//714 5//714
f 8//715 389//715 387//715
f 8//716 388//716 389//716
f 8//717 9//717 388//717
f 264//718 390//718 391//718
f 250//719 390//719 264//719
f 273//720 264//720 391//720
f 249//721 390//721 250//721
f 283//722 273//722 391//722
f 240//723 390//723 249//723
f 291//724 283//724 391//724
f 229//725 390//725 240//725
f 298//726 291//726 391//726
f 392//727 307//727 298//727
f 392//728 298//728 391//728
f 393//729 229//729 216//729
f 393//730 390//730 229//730
f 215//731 393//731 216//731
f 318//732 307//732 392//732
f 206//733 393//733 215//733
f 327//734 318//734 392//734
f 194//735 393//735 206//735
f 334//736 327//736 392//736
f 188//737 393//737 194//737
f 345//738 334//738 392//738
f 394//739 172//739 161//739
f 394//740 181//740 172//740
f 394//741 188//741 181//741
f 394//742 393//742 188//742
f 395//743 353//743 345//743
f 395//744 357//744 353//744
f 395//745 362//745 357//745
f 395//746 345//746 392//746
f 148//747 394//747 161//747
f 84//748 362//748 395//748
f 396//749 85//749 84//749
f 396//750 84//750 395//750
f 396//751 89//751 85//751
f 396//752 103//752 89//752
f 396//753 105//753 103//753
f 397//754 105//754 396//754
f 397//755 394//755 148//755
f 397//756 121//756 105//756
f 397//757 127//757 121//757
f 397//758 138//758 127//758
f 397//759 147//759 138//759
f 397//760 148//760 147//760
f 398//761 382//761 385//761
f 398//762 399//762 382//762
f 400//763 385//763 387//763
f 400//764 398//764 385//764
f 401//765 387//765 389//765
f 401//766 400//766 387//766
f 402//767 389//767 388//767
f 402//768 401//768 389//768
f 403//769 388//769 386//769
f 403//770 402//770 388//770
f 404//771 386//771 384//771
f 404//772 403//772 386//772
f 405//773 384//773 383//773
f 405//774 404//774 384//774
f 406//775 383//775 380//775
f 406//776 405//776 383//776
f 407//777 380//777 378//777
f 407//778 378//778 376//778
f 407//779 406//779 380//779
f 408//780 407//780 376//780
f 409//781 408//781 376//781
f 409//782 376//782 374//782
f 409//783 374//783 372//783
f 410//784 409//784 372//784
f 411//785 410//785 372//785
f 411//786 372//786 370//786
f 411//787 370//787 368//787
f 412//788 411//788 368//788
f 413//789 368//789 366//789
f 413//790 412//790 368//790
f 414//791 366//791 365//791
f 414//792 413//792 366//792
f 415//793 365//793 364//793
f 415//794 364//794 367//794
f 415//795 414//795 365//795
f 416//796 415//796 367//796
f 416//797 367//797 369//797
f 417//798 416//798 369//798
f 418//799 369//799 371//799
f 418//800 417//800 369//800
f 419//801 371//801 373//801
f 419//802 418//802 371//802
f 420//803 373//803 375//803
f 420//804 419//804 373//804
f 421//805 375//805 377//805
f 421//806 420//806 375//806
f 422//807 377//807 379//807
f 422//808 421//808 377//808
f 423//809 379//809 381//809
f 423//810 422//810 379//810
f 399//811 381//811 382//811
f 399//812 423//812 381//812
f 396//813 395//813 424//813
f 396//814 424//814 425//814
f 395//815 392//815 426//815
f 395//816 426//816 424//816
f 397//817 396//817 425//817
f 397//818 425//818 427//818
f 392//819 391//819 428//819
f 392//820 428//820 426//820
f 394//821 397//821 427//821
f 394//822 427//822 429//822
f 391//823 390//823 430//823
f 391//824 430//824 428//824
f 393//825 394//825 429//825
f 393//826 429//826 431//826
f 390//827 393//827 431//827
f 390//828 431//828 430//828
f 432//829 414//829 415//829
f 432//830 433//830 414//830
f 416//831 432//831 415//831
f 434//832 413//832 414//832
f 434//833 414//833 433//833
f 435//834 432//834 416//834
f 436//835 412//835 413//835
f 436//836 413//836 434//836
f 437//837 416//837 417//837
f 437//838 435//838 416//838
f 438//839 411//839 412//839
f 438//840 412//840 436//840
f 418//841 437//841 417//841
f 439//842 437//842 418//842
f 440//843 410//843 411//843
f 440//844 411//844 438//844
f 441//845 418//845 419//845
f 441//846 439//846 418//846
f 442//847 409//847 410//847
f 442//848 410//848 440//848
f 443//849 419//849 420//849
f 443//850 441//850 419//850
f 444//851 408//851 409//851
f 444//852 409//852 442//852
f 421//853 445//853 443//853
f 421//854 443//854 420//854
f 446//855 408//855 444//855
f 407//856 408//856 446//856
f 447//857 445//857 421//857
f 422//858 447//858 421//858
f 406//859 407//859 446//859
f 406//860 446//860 448//860
f 423//861 447//861 422//861
f 423//862 449//862 447//862
f 450//863 406//863 448//863
f 405//864 406//864 450//864
f 399//865 451//865 449//865
f 399//866 449//866 423//866
f 404//867 405//867 450//867
f 404//868 450//868 452//868
f 398//869 451//869 399//869
f 398//870 453//870 451//870
f 403//871 452//871 454//871
f 403//872 404//872 452//872
f 400//873 455//873 453//873
f 400//874 453//874 398//874
f 402//875 454//875 456//875
f 402//876 403//876 454//876
f 401//877 457//877 455//877
f 401//878 456//878 457//878
f 401//879 455//879 400//879
f 401//880 402//880 456//880
f 431//881 429//881 430//881
f 430//882 424//882 428//882
f 428//883 424//883 426//883
f 429//884 424//884 430//884
f 424//885 427//885 425//885
f 429//886 427//886 424//886
f 458//887 451//887 453//887
f 458//888 453//888 455//888
f 458//889 459//889 451//889
f 460//890 458//890 455//890
f 461//891 455//891 457//891
f 461//892 457//892 456//892
f 461//893 460//893 455//893
f 462//894 461//894 456//894
f 463//895 456//895 454//895
f 463//896 462//896 456//896
f 464//897 454//897 452//897
f 464//898 452//898 450//898
f 464//899 463//899 454//899
f 465//900 464//900 450//900
f 466//901 450//901 448//901
f 466//902 448//902 446//902
f 466//903 465//903 450//903
f 467//904 466//904 446//904
f 468//905 446//905 444//905
f 468//906 467//906 446//906
f 469//907 468//907 444//907
f 469//908 444//908 442//908
f 469//909 442//909 440//909
f 470//910 469//910 440//910
f 471//911 470//911 440//911
f 471//912 440//912 438//912
f 472//913 471//913 438//913
f 472//914 438//914 436//914
f 472//915 436//915 434//915
f 473//916 472//916 434//916
f 474//917 434//917 433//917
f 474//918 473//918 434//918
f 475//919 433//919 432//919
f 475//920 474//920 433//920
f 476//921 432//921 435//921
f 476//922 475//922 432//922
f 477//923 435//923 437//923
f 477//924 476//924 435//924
f 478//925 437//925 439//925
f 478//926 477//926 437//926
f 479//927 439//927 441//927
f 479//928 478//928 439//928
f 480//929 441//929 443//929
f 480//930 443//930 445//930
f 480//931 479//931 441//931
f 481//932 480//932 445//932
f 481//933 445//933 447//933
f 482//934 481//934 447//934
f 483//935 447//935 449//935
f 483//936 482//936 447//936
f 459//937 449//937 451//937
f 459//938 483//938 449//938
f 473//939 474//939 475//939
f 476//940 473//940 475//940
f 471//941 472//941 473//941
f 478//942 476//942 477//942
f 469//943 470//943 471//943
f 468//944 471//944 473//944
f 468//945 469//945 471//945
f 481//946 478//946 479//946
f 481//947 479//947 480//947
f 466//948 467//948 468//948
f 483//949 481//949 482//949
f 459//950 473//950 476//950
f 459//951 476//951 478//951
f 459//952 478//952 481//952
f 459//953 481//953 483//953
f 459//954 468//954 473//954
f 459//955 466//955 468//955
f 464//956 465//956 466//956
f 463//957 464//957 466//957
f 461//958 459//958 458//958
f 461//959 458//959 460//959
f 461//960 462//960 463//960
f 461//961 466//961 459//961
f 461//962 463//962 466//962
