# Created by FreeCAD <https://www.freecad.org>
v 4.800000 0.000000 6.000000
v 4.800000 -1.435894 5.825651
v 100.000000 -1.435894 5.825651
v 100.000000 -2.788339 5.312736
v 4.800000 -2.788339 5.312736
v 100.000000 -3.978736 4.491065
v 4.800000 -3.978736 4.491065
v 4.800000 -4.937903 3.408388
v 100.000000 -4.937903 3.408388
v 4.800000 -5.610097 2.127629
v 100.000000 -5.610097 2.127629
v 100.000000 -5.956253 0.723220
v 4.800000 -5.956253 0.723220
v 100.000000 -5.956253 -0.723220
v 4.800000 -5.956253 -0.723220
v 100.000000 -5.610097 -2.127629
v 4.800000 -5.610097 -2.127629
v 100.000000 -4.937903 -3.408388
v 4.800000 -4.937903 -3.408388
v 4.800000 -3.978736 -4.491065
v 100.000000 -3.978736 -4.491065
v 4.800000 -2.788339 -5.312736
v 100.000000 -2.788339 -5.312736
v 100.000000 -1.435894 -5.825651
v 4.800000 -1.435894 -5.825651
v 4.800000 -0.000000 -6.000000
v 100.000000 -0.000000 -6.000000
v 4.800000 1.435894 -5.825651
v 100.000000 1.435894 -5.825651
v 100.000000 2.788339 -5.312736
v 4.800000 2.788339 -5.312736
v 100.000000 3.978736 -4.491065
v 4.800000 3.978736 -4.491065
v 100.000000 4.937903 -3.408388
v 4.800000 4.937903 -3.408388
v 100.000000 5.610097 -2.127629
v 4.800000 5.610097 -2.127629
v 100.000000 5.956253 -0.723220
v 4.800000 5.956253 -0.723220
v 100.000000 5.956253 0.723220
v 4.800000 5.956253 0.723220
v 100.000000 5.610097 2.127629
v 4.800000 5.610097 2.127629
v 100.000000 4.937903 3.408388
v 4.800000 4.937903 3.408388
v 100.000000 3.978736 4.491065
v 4.800000 3.978736 4.491065
v 4.800000 2.788339 5.312736
v 100.000000 2.788339 5.312736
v 100.000000 1.435894 5.825651
v 4.800000 1.435894 5.825651
v 0.000000 2.043913 10.604830
v 0.000000 0.000000 10.800000
v 0.120346 0.000000 9.731899
v 3.731899 0.000000 6.120346
v 3.731899 -1.158283 6.009743
v 2.717358 0.000000 6.475349
v 2.717358 -1.225468 6.358331
v 3.731899 -2.274703 5.681933
v 1.807249 -1.333693 6.919857
v 1.807249 0.000000 7.047209
v 3.731899 -2.844267 5.419297
v 2.717358 -2.406644 6.011507
v 3.731899 -3.308909 5.148763
v 1.047209 0.000000 7.807249
v 1.047209 -1.477532 7.666162
v 2.717358 -3.009245 5.733637
v 1.807249 -2.619183 6.542403
v 2.717358 -3.500838 5.447411
v 3.731899 -4.058540 4.581145
v 0.475349 0.000000 8.717358
v 0.475349 -1.649771 8.559824
v 1.807249 -3.275001 6.239994
v 1.047209 -2.901661 7.248000
v 1.807249 -3.810009 5.928489
v 2.717358 -4.293951 4.846869
v 0.120346 -1.841774 9.556031
v 0.000000 -2.043913 10.604830
v 1.047209 -3.628210 6.912976
v 0.475349 -3.239915 8.092916
v 3.731899 -4.985487 3.550149
v 1.047209 -4.220917 6.567876
v 1.807249 -4.673164 5.274911
v 0.475349 -4.051158 7.718837
v 0.120346 -3.616982 9.034783
v 0.000000 -4.013955 10.026374
v 2.717358 -5.274664 3.756071
v 0.475349 -4.712960 7.333508
v 1.047209 -5.177164 5.843810
v 3.731899 -5.567263 2.542484
v 0.120346 -4.522639 8.617169
v 0.000000 -5.838921 9.085538
v 3.731899 -5.722623 2.170305
v 1.807249 -5.740487 4.087782
v 0.120346 -5.261462 8.186995
v 0.475349 -5.780678 6.525036
v 2.717358 -5.890185 2.689957
v 3.731899 -5.947823 1.442926
v 2.717358 -6.054557 2.296191
v 1.047209 -6.359597 4.528649
v 0.120346 -6.453443 7.284431
v 0.000000 -7.452853 7.816328
v 1.807249 -6.410367 2.927516
v 3.731899 -6.075722 0.737726
v 2.717358 -6.292819 1.526621
v 1.807249 -6.589255 2.498975
v 0.475349 -7.100950 5.056564
v 3.731899 -6.113414 0.291218
v 1.047209 -7.101724 3.243248
v 2.717358 -6.428137 0.780517
v 1.807249 -6.848559 1.661443
v 1.047209 -7.299904 2.768489
v 0.120346 -7.927372 5.645056
v 0.000000 -8.797421 6.264615
v 2.717358 -6.468015 0.308110
v 0.475349 -7.929588 3.621321
v 3.731899 -6.075722 -0.737726
v 1.807249 -6.995827 0.849447
v 1.047209 -7.587175 1.840629
v 0.475349 -8.150871 3.091218
v 1.807249 -7.039227 0.335320
v 0.120346 -8.852448 4.042777
v 0.000000 -9.824025 4.486482
v 2.717358 -6.428137 -0.780517
v 1.047209 -7.750325 0.941060
v 0.475349 -8.471629 2.055195
v 0.120346 -9.099484 3.450979
v 0.000000 -10.495565 2.546196
v 3.731899 -5.783732 -2.001769
v 1.047209 -7.798406 0.371484
v 1.807249 -6.995827 -0.849447
v 0.475349 -8.653799 1.050761
v 0.120346 -9.457573 2.294382
v 2.717358 -6.119211 -2.117879
v 0.475349 -8.707484 0.414789
v 1.047209 -7.750325 -0.941060
v 3.731899 -5.300375 -3.060173
v 0.120346 -9.660943 1.173051
v 0.000000 -10.787767 0.513885
v 1.807249 -6.659618 -2.304916
v 3.731899 -5.036946 -3.476753
v 0.120346 -9.720877 0.463062
v 0.475349 -8.653799 -1.050761
v 2.717358 -5.607817 -3.237675
v 3.731899 -4.625449 -4.007974
v 1.047209 -7.377857 -2.553501
v 2.717358 -5.329108 -3.678418
v 0.000000 -10.690071 -1.537000
v 0.120346 -9.660943 -1.173051
v 1.807249 -6.103062 -3.523604
v 3.731899 -4.058540 -4.581145
v 2.717358 -4.893743 -4.240452
v 0.475349 -8.237910 -2.851169
v 1.807249 -5.799739 -4.003271
v 3.731899 -3.783347 -4.810917
v 1.047209 -6.761276 -3.903625
v 2.717358 -4.293951 -4.846869
v 1.807249 -5.325925 -4.614940
v 0.000000 -10.206009 -3.532334
v 0.120346 -9.196653 -3.182992
v 0.000000 -9.353074 -5.400000
v 1.047209 -6.425240 -4.435023
v 2.717358 -4.002795 -5.089969
v 0.475349 -7.549454 -4.358679
v 3.731899 -2.844267 -5.419297
v 1.807249 -4.673164 -5.274911
v 1.047209 -5.900325 -5.112661
v 0.475349 -7.174245 -4.952024
v 1.807249 -4.356296 -5.539480
v 0.120346 -8.428072 -4.865950
v 2.717358 -3.009245 -5.733637
v 1.047209 -5.177164 -5.843810
v 0.475349 -6.588140 -5.708655
v 0.120346 -8.009196 -5.528349
v 0.000000 -8.162095 -7.072496
v 3.731899 -1.724301 -5.872429
v 1.047209 -4.826121 -6.136912
v 1.807249 -3.275001 -6.239994
v 0.475349 -5.780678 -6.525036
v 0.120346 -7.354879 -6.373039
v 2.717358 -1.824317 -6.213052
v 0.475349 -5.388713 -6.852306
v 3.731899 -0.581776 -6.092633
v 1.047209 -3.628210 -6.912976
v 0.120346 -6.453443 -7.284431
v 0.000000 -6.676117 -8.489373
v 1.807249 -1.985428 -6.761747
v 3.731899 -0.000000 -6.120346
v 0.120346 -6.015861 -7.649790
v 2.717358 -0.615521 -6.446029
v 0.475349 -4.051158 -7.718837
v 3.731899 0.581776 -6.092633
v 1.047209 -2.199556 -7.491001
v 2.717358 -0.000000 -6.475349
v 1.807249 -0.669880 -7.015298
v 0.000000 -4.948846 -9.599422
v 0.120346 -4.522639 -8.617169
v 2.717358 0.615521 -6.446029
v 3.731899 1.464695 -5.942500
v 0.475349 -2.455964 -8.364244
v 1.807249 -0.000000 -7.047209
v 1.047209 -0.742126 -7.771897
v 1.807249 0.669880 -7.015298
v 2.717358 1.549653 -6.287188
v 0.120346 -2.741793 -9.337689
v 0.000000 -3.042711 -10.362524
v 1.047209 -0.000000 -7.807249
v 0.475349 -0.828638 -8.677885
v 3.731899 2.804505 -5.439981
v 1.047209 0.742126 -7.771897
v 1.807249 1.686507 -6.842430
v 0.475349 -0.000000 -8.717358
v 0.120346 -0.925076 -9.687833
v 0.000000 -1.026605 -10.751097
v 2.717358 2.967177 -5.755520
v 0.475349 0.828638 -8.677885
v 1.047209 1.868397 -7.580384
v 3.731899 3.783347 -4.810917
v 0.120346 -0.000000 -9.731899
v 0.000000 1.026605 -10.751097
v 3.731899 4.058540 -4.581145
v 1.807249 3.229218 -6.263809
v 0.120346 0.925076 -9.687833
v 0.475349 2.086200 -8.464047
v 2.717358 4.002795 -5.089969
v 3.731899 4.625449 -4.007974
v 2.717358 4.293951 -4.846869
v 1.047209 3.577488 -6.939360
v 0.000000 3.042711 -10.362524
v 0.120346 2.328996 -9.449108
v 1.807249 4.356296 -5.539480
v 3.731899 5.036946 -3.476753
v 2.717358 4.893743 -4.240452
v 1.807249 4.673164 -5.274911
v 0.475349 3.994525 -7.748297
v 3.731899 5.300375 -3.060173
v 1.047209 4.826121 -6.136912
v 2.717358 5.329108 -3.678418
v 1.807249 5.325925 -4.614940
v 1.047209 5.177164 -5.843810
v 0.120346 4.459414 -8.650057
v 0.000000 4.948846 -9.599422
v 2.717358 5.607817 -3.237675
v 0.475349 5.388713 -6.852306
v 3.731899 5.722623 -2.170305
v 1.807249 5.799739 -4.003271
v 1.047209 5.900325 -5.112661
v 0.475349 5.780678 -6.525036
v 1.807249 6.103062 -3.523604
v 0.120346 6.015861 -7.649790
v 0.000000 6.676117 -8.489373
v 2.717358 6.054557 -2.296191
v 1.047209 6.425240 -4.435023
v 0.475349 6.588140 -5.708655
v 0.120346 6.453443 -7.284431
v 0.000000 8.162095 -7.072496
v 3.731899 6.058050 -0.871016
v 1.047209 6.761276 -3.903625
v 1.807249 6.589255 -2.498975
v 0.475349 7.174245 -4.952024
v 0.120346 7.354879 -6.373039
v 2.717358 6.409440 -0.921538
v 0.475349 7.549454 -4.358679
v 1.047209 7.299904 -2.768489
v 3.731899 6.113414 0.291218
v 0.120346 8.009196 -5.528349
v 0.000000 9.353074 -5.400000
v 3.731899 6.075722 0.737726
v 1.807249 6.975479 -1.002922
v 0.120346 8.428072 -4.865950
v 0.475349 8.150871 -3.091218
v 2.717358 6.468015 0.308110
v 3.731899 5.947823 1.442926
v 2.717358 6.428137 0.780517
v 1.047209 7.727782 -1.111087
v 0.120346 9.099484 -3.450979
v 0.000000 10.206009 -3.532334
v 1.807249 7.039227 0.335320
v 3.731899 5.722623 2.170305
v 2.717358 6.292819 1.526621
v 1.807249 6.995827 0.849447
v 0.475349 8.628628 -1.240609
v 3.731899 5.567263 2.542484
v 1.047209 7.798406 0.371484
v 2.717358 6.054557 2.296191
v 1.807249 6.848559 1.661443
v 1.047209 7.750325 0.941060
v 0.120346 9.632843 -1.384994
v 0.000000 10.690071 -1.537000
v 0.000000 10.787767 0.513885
v 2.717358 5.890185 2.689957
v 0.475349 8.707484 0.414789
v 3.731899 5.036946 3.476753
v 1.807249 6.589255 2.498975
v 1.047209 7.587175 1.840629
v 0.475349 8.653799 1.050761
v 1.807249 6.410367 2.927516
v 0.120346 9.720877 0.463062
v 2.717358 5.329108 3.678418
v 1.047209 7.299904 2.768489
v 0.475349 8.471629 2.055195
v 0.120346 9.660943 1.173051
v 0.000000 10.495565 2.546196
v 3.731899 4.223522 4.429503
v 1.047209 7.101724 3.243248
v 1.807249 5.799739 4.003271
v 0.475349 8.150871 3.091218
v 0.120346 9.457573 2.294382
v 2.717358 4.468503 4.686431
v 0.475349 7.929588 3.621321
v 3.731899 3.308909 5.148763
v 1.047209 6.425240 4.435023
v 0.120346 9.099484 3.450979
v 0.000000 9.824025 4.486482
v 1.807249 4.863131 5.100305
v 3.731899 2.844267 5.419297
v 0.120346 8.852448 4.042777
v 2.717358 3.500838 5.447411
v 0.475349 7.174245 4.952024
v 3.731899 2.274703 5.681933
v 1.047209 5.387619 5.650372
v 2.717358 3.009245 5.733637
v 1.807249 3.810009 5.928489
v 0.120346 8.009196 5.528349
v 0.000000 8.797421 6.264615
v 2.717358 2.406644 6.011507
v 3.731899 1.464695 5.942500
v 0.475349 6.015666 6.309049
v 1.807249 3.275001 6.239994
v 1.047209 4.220917 6.567876
v 1.807249 2.619183 6.542403
v 2.717358 1.549653 6.287188
v 0.120346 6.715780 7.043307
v 0.000000 7.452853 7.816328
v 0.000000 5.838921 9.085538
v 1.047209 3.628210 6.912976
v 0.475349 4.712960 7.333508
v 1.047209 2.901661 7.248000
v 1.807249 1.686507 6.842430
v 0.475349 4.051158 7.718837
v 0.120346 5.261462 8.186995
v 0.475349 3.239915 8.092916
v 1.047209 1.868397 7.580384
v 0.000000 4.013955 10.026374
v 0.120346 4.522639 8.617169
v 0.120346 3.616982 9.034783
v 0.475349 2.086200 8.464047
v 0.120346 2.328996 9.449108
v 100.000000 4.197218 -2.897130
v 100.000000 3.381926 -3.817405
v 100.000000 2.370088 -4.515826
v 100.000000 4.768583 -1.808485
v 100.000000 1.220510 -4.951803
v 100.000000 5.062815 -0.614737
v 100.000000 -0.000000 -5.100000
v 100.000000 5.062815 0.614737
v 100.000000 -1.220510 -4.951803
v 100.000000 4.768583 1.808485
v 100.000000 -2.370088 -4.515826
v 100.000000 4.197218 2.897130
v 100.000000 -3.381926 -3.817405
v 100.000000 3.381926 3.817405
v 100.000000 -4.197218 -2.897130
v 100.000000 2.370088 4.515826
v 100.000000 -4.768583 -1.808485
v 100.000000 1.220510 4.951803
v 100.000000 0.000000 5.100000
v 100.000000 -5.062815 -0.614737
v 100.000000 0.000000 6.000000
v 100.000000 -5.062815 0.614737
v 100.000000 -1.220510 4.951803
v 100.000000 -4.768583 1.808485
v 100.000000 -2.370088 4.515826
v 100.000000 -4.197218 2.897130
v 100.000000 -3.381926 3.817405
v 0.000000 7.900000 -25.000000
v 0.000000 25.000000 -7.900000
v 0.000000 25.000000 7.900000
v 0.000000 -7.900000 -25.000000
v 0.000000 -25.000000 -7.900000
v 0.000000 7.900000 25.000000
v 0.000000 -7.900000 25.000000
v 0.000000 -25.000000 7.900000
v 100.599998 -1.220510 4.951803
v 100.599998 0.000000 5.100000
v 100.599998 -2.370088 4.515826
v 100.599998 -3.381926 3.817405
v 100.599998 -4.197218 2.897130
v 100.599998 -4.768583 1.808485
v 100.599998 -5.062815 0.614737
v 100.599998 -5.062815 -0.614737
v 100.599998 -4.768583 -1.808485
v 100.599998 -4.197218 -2.897130
v 100.599998 -3.381926 -3.817405
v 100.599998 -2.370088 -4.515826
v 100.599998 -1.220510 -4.951803
v 100.599998 -0.000000 -5.100000
v 100.599998 1.220510 -4.951803
v 100.599998 2.370088 -4.515826
v 100.599998 3.381926 -3.817405
v 100.599998 4.197218 -2.897130
v 100.599998 4.768583 -1.808485
v 100.599998 5.062815 -0.614737
v 100.599998 5.062815 0.614737
v 100.599998 4.768583 1.808485
v 100.599998 4.197218 2.897130
v 100.599998 3.381926 3.817405
v 100.599998 2.370088 4.515826
v 100.599998 1.220510 4.951803
v -20.000000 7.900000 25.000000
v -20.000000 -7.900000 25.000000
v -20.000000 25.000000 7.900000
v -20.000000 -25.000000 7.900000
v -20.000000 25.000000 -7.900000
v -20.000000 -25.000000 -7.900000
v -20.000000 7.900000 -25.000000
v -20.000000 -7.900000 -25.000000
v 100.599998 3.950323 -2.726711
v 100.599998 3.182989 -3.592852
v 100.599998 2.230671 -4.250189
v 100.599998 4.488078 -1.702103
v 100.599998 1.148715 -4.660521
v 100.599998 4.765003 -0.578576
v 100.599998 -0.000000 -4.800000
v 100.599998 4.765003 0.578576
v 100.599998 -1.148715 -4.660521
v 100.599998 4.488078 1.702103
v 100.599998 -2.230671 -4.250189
v 100.599998 3.950323 2.726711
v 100.599998 -3.182989 -3.592852
v 100.599998 3.182989 3.592852
v 100.599998 -3.950323 -2.726711
v 100.599998 2.230671 4.250189
v 100.599998 -4.488078 -1.702103
v 100.599998 1.148715 4.660521
v 100.599998 -4.765003 -0.578576
v 100.599998 0.000000 4.800000
v 100.599998 -4.765003 0.578576
v 100.599998 -1.148715 4.660521
v 100.599998 -4.488078 1.702103
v 100.599998 -2.230671 4.250189
v 100.599998 -3.950323 2.726711
v 100.599998 -3.182989 3.592852
v 190.600006 -1.148715 4.660521
v 190.600006 0.000000 4.800000
v 190.600006 -2.230671 4.250189
v 190.600006 -3.182989 3.592852
v 190.600006 -3.950323 2.726711
v 190.600006 -4.488078 1.702103
v 190.600006 -4.765003 0.578576
v 190.600006 -4.765003 -0.578576
v 190.600006 -4.488078 -1.702103
v 190.600006 -3.950323 -2.726711
v 190.600006 -3.182989 -3.592852
v 190.600006 -2.230671 -4.250189
v 190.600006 -1.148715 -4.660521
v 190.600006 -0.000000 -4.800000
v 190.600006 1.148715 -4.660521
v 190.600006 2.230671 -4.250189
v 190.600006 3.182989 -3.592852
v 190.600006 3.950323 -2.726711
v 190.600006 4.488078 -1.702103
v 190.600006 4.765003 -0.578576
v 190.600006 4.765003 0.578576
v 190.600006 4.488078 1.702103
v 190.600006 3.950323 2.726711
v 190.600006 3.182989 3.592852
v 190.600006 2.230671 4.250189
v 190.600006 1.148715 4.660521
vn 0.000000 -0.120537 0.992709
vn 0.000000 -0.120537 0.992709
vn 0.000000 -0.354605 0.935016
vn 0.000000 -0.354605 0.935016
vn 0.000000 -0.568065 0.822984
vn 0.000000 -0.748511 0.663123
vn 0.000000 -0.568065 0.822984
vn 0.000000 -0.885456 0.464723
vn 0.000000 -0.748511 0.663123
vn 0.000000 -0.885456 0.464723
vn 0.000000 -0.970942 0.239316
vn 0.000000 -0.970942 0.239316
vn 0.000000 -1.000000 0.000000
vn 0.000000 -1.000000 0.000000
vn -0.000000 -0.970942 -0.239316
vn 0.000000 -0.970942 -0.239316
vn -0.000000 -0.885456 -0.464723
vn -0.000000 -0.748511 -0.663123
vn 0.000000 -0.885456 -0.464723
vn -0.000000 -0.568065 -0.822984
vn -0.000000 -0.748511 -0.663123
vn -0.000000 -0.568065 -0.822984
vn 0.000000 -0.354605 -0.935016
vn -0.000000 -0.354605 -0.935016
vn -0.000000 -0.120537 -0.992709
vn -0.000000 -0.120537 -0.992709
vn 0.000000 0.120537 -0.992709
vn 0.000000 0.120537 -0.992709
vn 0.000000 0.354605 -0.935016
vn 0.000000 0.354605 -0.935016
vn 0.000000 0.568065 -0.822984
vn 0.000000 0.568065 -0.822984
vn 0.000000 0.748511 -0.663123
vn 0.000000 0.748511 -0.663123
vn 0.000000 0.885456 -0.464723
vn 0.000000 0.885456 -0.464723
vn 0.000000 0.970942 -0.239316
vn 0.000000 0.970942 -0.239316
vn 0.000000 1.000000 0.000000
vn 0.000000 1.000000 0.000000
vn 0.000000 0.970942 0.239316
vn 0.000000 0.970942 0.239316
vn 0.000000 0.885456 0.464723
vn 0.000000 0.885456 0.464723
vn 0.000000 0.748511 0.663123
vn 0.000000 0.568065 0.822984
vn 0.000000 0.748511 0.663123
vn 0.000000 0.568065 0.822984
vn 0.000000 0.354605 0.935016
vn 0.000000 0.354605 0.935016
vn 0.000000 0.120537 0.992709
vn 0.000000 0.120537 0.992709
vn 0.993655 0.010691 0.111958
vn 0.111464 -0.094464 0.989269
vn 0.138424 -0.119376 0.983152
vn 0.328946 -0.089766 0.940073
vn 0.328946 -0.089766 0.940073
vn 0.150922 -0.350543 0.924306
vn 0.091759 -0.280544 0.955445
vn 0.530302 -0.080590 0.843970
vn 0.530301 -0.080589 0.843970
vn 0.111819 -0.416117 0.902410
vn 0.329892 -0.395301 0.857268
vn 0.328946 -0.266054 0.906096
vn 0.328946 -0.266054 0.906096
vn 0.148843 -0.561737 0.813817
vn 0.111858 -0.500010 0.858765
vn 0.705501 -0.067367 0.705500
vn 0.705501 -0.067367 0.705500
vn 0.329893 -0.395301 0.857268
vn 0.530302 -0.238855 0.813467
vn 0.530302 -0.238855 0.813467
vn 0.531531 -0.354691 0.769200
vn 0.329995 -0.474981 0.815779
vn 0.329995 -0.474982 0.815779
vn 0.111638 -0.599892 0.792254
vn 0.845633 -0.050737 0.531347
vn 0.845634 -0.050737 0.531347
vn 0.531531 -0.354692 0.769200
vn 0.706642 -0.296290 0.642549
vn 0.705500 -0.199666 0.680002
vn 0.705501 -0.199667 0.680002
vn 0.531664 -0.426161 0.731929
vn 0.531664 -0.426161 0.731929
vn 0.329409 -0.569973 0.752742
vn 0.530903 -0.511566 0.675605
vn 0.329409 -0.569973 0.752742
vn 0.943414 -0.031522 0.330115
vn 0.943414 -0.031522 0.330115
vn 0.993655 -0.010691 0.111958
vn 0.993655 -0.010691 0.111958
vn 0.706642 -0.296290 0.642549
vn 0.845634 -0.150379 0.512143
vn 0.846409 -0.222995 0.483596
vn 0.845634 -0.150379 0.512143
vn 0.120473 -0.743059 0.658293
vn 0.111253 -0.739018 0.664436
vn 0.706765 -0.355965 0.611369
vn 0.706765 -0.355965 0.611368
vn 0.530904 -0.511566 0.675605
vn 0.846409 -0.222995 0.483596
vn 0.943414 -0.093427 0.318184
vn 0.993656 -0.031686 0.107912
vn 0.943414 -0.093427 0.318184
vn 0.993655 -0.031686 0.107912
vn 0.328384 -0.702396 0.631509
vn 0.328383 -0.702396 0.631509
vn 0.846493 -0.267887 0.460095
vn 0.846493 -0.267887 0.460094
vn 0.706060 -0.427487 0.564566
vn 0.846014 -0.321851 0.425056
vn 0.706060 -0.427487 0.564566
vn 0.143490 -0.876293 0.459914
vn 0.104369 -0.861296 0.497270
vn 0.943748 -0.138464 0.300279
vn 0.943748 -0.138464 0.300279
vn 0.993104 -0.053720 0.104203
vn 0.993696 -0.046945 0.101808
vn 0.111904 -0.917029 0.382799
vn 0.529571 -0.630800 0.567139
vn 0.529571 -0.630800 0.567139
vn 0.943784 -0.166329 0.285669
vn 0.993700 -0.056391 0.096851
vn 0.943784 -0.166329 0.285669
vn 0.943578 -0.199904 0.264006
vn 0.846014 -0.321851 0.425056
vn 0.328946 -0.817830 0.472175
vn 0.330119 -0.871091 0.363623
vn 0.328946 -0.817830 0.472174
vn 0.151812 -0.959688 0.236542
vn 0.111750 -0.949280 0.293902
vn 0.330119 -0.871091 0.363624
vn 0.704821 -0.527524 0.474286
vn 0.704821 -0.527524 0.474285
vn 0.993675 -0.067787 0.089524
vn 0.993319 -0.071336 0.090711
vn 0.943578 -0.199904 0.264006
vn 0.530302 -0.734224 0.423904
vn 0.530302 -0.734224 0.423904
vn 0.531825 -0.781498 0.326225
vn 0.111775 -0.977782 0.177336
vn 0.329774 -0.928906 0.168471
vn 0.329709 -0.901848 0.279217
vn 0.329709 -0.901848 0.279217
vn 0.531825 -0.781498 0.326225
vn 0.845171 -0.397470 0.357357
vn 0.845171 -0.397469 0.357356
vn 0.145573 -0.989348 0.000000
vn 0.111890 -0.990199 0.083588
vn 0.705500 -0.613760 0.354355
vn 0.706915 -0.652713 0.272465
vn 0.705501 -0.613760 0.354355
vn 0.329774 -0.928906 0.168471
vn 0.531293 -0.809289 0.250560
vn 0.531293 -0.809288 0.250560
vn 0.531377 -0.833537 0.151175
vn 0.706915 -0.652713 0.272464
vn 0.943215 -0.247023 0.222093
vn 0.943215 -0.247023 0.222093
vn 0.993655 -0.084997 0.073650
vn 0.994056 -0.080961 0.072791
vn 0.330082 -0.940607 0.079401
vn 0.330082 -0.940607 0.079401
vn 0.845634 -0.462253 0.266882
vn 0.845634 -0.462253 0.266882
vn 0.846594 -0.491164 0.205028
vn 0.111573 -0.993090 -0.036379
vn 0.531377 -0.833537 0.151175
vn 0.706500 -0.696353 0.126294
vn 0.706421 -0.676128 0.209332
vn 0.706421 -0.676128 0.209333
vn 0.846594 -0.491164 0.205029
vn 0.531776 -0.843883 0.071237
vn 0.531776 -0.843883 0.071237
vn 0.943827 -0.304937 0.127291
vn 0.993655 -0.097400 0.056234
vn 0.943414 -0.287188 0.165808
vn 0.993655 -0.097400 0.056234
vn 0.943414 -0.287188 0.165808
vn 0.329236 -0.943615 -0.034566
vn 0.329236 -0.943615 -0.034566
vn 0.706499 -0.696354 0.126294
vn 0.846259 -0.508937 0.157570
vn 0.846259 -0.508938 0.157570
vn 0.846312 -0.524137 0.095060
vn 0.943827 -0.304937 0.127291
vn 0.993705 -0.103379 0.043154
vn 0.993156 -0.110369 0.038199
vn 0.128564 -0.962884 -0.237330
vn 0.111342 -0.968284 -0.223671
vn 0.706870 -0.704837 0.059499
vn 0.706870 -0.704837 0.059499
vn 0.530678 -0.847005 -0.031027
vn 0.705850 -0.707886 -0.025931
vn 0.530678 -0.847005 -0.031027
vn 0.846312 -0.524136 0.095060
vn 0.993688 -0.107161 0.033177
vn 0.943684 -0.316049 0.097850
vn 0.943706 -0.325475 0.059030
vn 0.943683 -0.316049 0.097850
vn 0.328621 -0.920230 -0.212570
vn 0.328620 -0.920230 -0.212570
vn 0.846564 -0.530401 0.044773
vn 0.846563 -0.530401 0.044774
vn 0.705850 -0.707886 -0.025931
vn 0.147357 -0.875790 -0.459650
vn 0.098442 -0.905214 -0.413397
vn 0.993691 -0.110354 0.020014
vn 0.943706 -0.325475 0.059030
vn 0.993132 -0.115808 0.016651
vn 0.529879 -0.826314 -0.190876
vn 0.529878 -0.826314 -0.190876
vn 0.111874 -0.839884 -0.531111
vn 0.943814 -0.329305 0.027798
vn 0.943814 -0.329305 0.027798
vn 0.993704 -0.111642 0.009424
vn 0.845872 -0.533029 -0.019526
vn 0.845872 -0.533029 -0.019526
vn 0.943517 -0.331103 -0.012129
vn 0.328946 -0.859010 -0.392297
vn 0.328946 -0.859010 -0.392297
vn 0.151515 -0.739869 -0.655467
vn 0.111797 -0.785603 -0.608547
vn 0.705107 -0.690907 -0.159597
vn 0.705107 -0.690907 -0.159597
vn 0.845366 -0.520481 -0.120229
vn 0.330041 -0.797831 -0.504518
vn 0.330041 -0.797831 -0.504518
vn 0.993437 -0.114248 -0.005442
vn 0.993668 -0.112282 -0.004113
vn 0.943517 -0.331103 -0.012129
vn 0.530302 -0.771194 -0.352193
vn 0.705500 -0.644665 -0.294409
vn 0.530302 -0.771194 -0.352193
vn 0.111725 -0.706529 -0.698810
vn 0.329836 -0.746318 -0.578116
vn 0.329836 -0.746318 -0.578116
vn 0.845366 -0.520482 -0.120230
vn 0.531723 -0.715807 -0.452649
vn 0.531723 -0.715807 -0.452649
vn 0.531457 -0.669671 -0.518743
vn 0.141107 -0.562381 -0.814749
vn 0.111917 -0.636889 -0.762789
vn 0.705500 -0.644665 -0.294409
vn 0.329640 -0.671241 -0.663907
vn 0.329640 -0.671241 -0.663908
vn 0.531203 -0.602374 -0.595793
vn 0.531456 -0.669671 -0.518744
vn 0.993655 -0.109297 -0.026515
vn 0.993655 -0.102304 -0.046721
vn 0.993901 -0.107449 -0.024820
vn 0.943299 -0.323427 -0.074711
vn 0.943299 -0.323427 -0.074711
vn 0.706820 -0.597882 -0.378078
vn 0.706820 -0.597882 -0.378078
vn 0.330153 -0.604978 -0.724569
vn 0.330153 -0.604978 -0.724570
vn 0.845634 -0.485528 -0.221734
vn 0.845634 -0.485529 -0.221733
vn 0.111502 -0.540327 -0.834035
vn 0.531203 -0.602374 -0.595793
vn 0.706573 -0.559431 -0.433349
vn 0.706573 -0.559431 -0.433349
vn 0.846530 -0.449930 -0.284518
vn 0.846530 -0.449930 -0.284518
vn 0.531868 -0.542745 -0.650034
vn 0.531868 -0.542745 -0.650034
vn 0.943414 -0.301649 -0.137759
vn 0.943414 -0.301649 -0.137758
vn 0.993655 -0.102304 -0.046721
vn 0.329046 -0.513440 -0.792533
vn 0.530432 -0.460924 -0.711471
vn 0.329046 -0.513440 -0.792533
vn 0.706338 -0.503285 -0.497786
vn 0.706338 -0.503284 -0.497787
vn 0.846362 -0.421058 -0.326162
vn 0.846362 -0.421058 -0.326162
vn 0.846202 -0.378854 -0.374715
vn 0.943800 -0.279350 -0.176651
vn 0.993702 -0.094707 -0.059889
vn 0.993115 -0.095425 -0.067952
vn 0.943800 -0.279351 -0.176650
vn 0.135440 -0.351337 -0.926401
vn 0.111425 -0.372724 -0.921228
vn 0.328841 -0.354200 -0.875446
vn 0.706955 -0.453293 -0.542899
vn 0.706955 -0.453294 -0.542899
vn 0.530432 -0.460924 -0.711471
vn 0.846203 -0.378854 -0.374715
vn 0.943728 -0.261456 -0.202530
vn 0.943728 -0.261456 -0.202530
vn 0.993693 -0.088647 -0.068668
vn 0.328841 -0.354200 -0.875446
vn 0.846621 -0.341093 -0.408519
vn 0.846621 -0.341093 -0.408519
vn 0.150031 -0.119172 -0.981473
vn 0.093692 -0.188419 -0.977609
vn 0.705622 -0.385272 -0.594696
vn 0.705622 -0.385272 -0.594696
vn 0.943659 -0.235277 -0.232706
vn 0.993187 -0.080414 -0.084336
vn 0.943659 -0.235277 -0.232706
vn 0.993685 -0.079776 -0.078904
vn 0.530166 -0.318010 -0.785999
vn 0.530166 -0.318010 -0.785999
vn 0.111839 -0.047283 -0.992601
vn 0.943839 -0.211762 -0.253623
vn 0.993707 -0.071790 -0.085982
vn 0.943839 -0.211762 -0.253623
vn 0.328946 -0.178719 -0.927283
vn 0.328946 -0.178719 -0.927283
vn 0.845716 -0.290146 -0.447861
vn 0.845716 -0.290146 -0.447861
vn 0.150031 0.119172 -0.981473
vn 0.111839 0.047283 -0.992601
vn 0.705374 -0.265855 -0.657091
vn 0.705374 -0.265855 -0.657091
vn 0.329946 -0.044917 -0.942931
vn 0.329946 -0.044917 -0.942931
vn 0.329946 0.044917 -0.942931
vn 0.705501 -0.134124 -0.695902
vn 0.530302 -0.160449 -0.832488
vn 0.530301 -0.160449 -0.832488
vn 0.993578 -0.061175 -0.095189
vn 0.943450 -0.180251 -0.278230
vn 0.993660 -0.061130 -0.094358
vn 0.943450 -0.180251 -0.278230
vn 0.329946 0.044917 -0.942931
vn 0.111669 0.166587 -0.979683
vn 0.845548 -0.200244 -0.494926
vn 0.845548 -0.200244 -0.494926
vn 0.531600 -0.040302 -0.846036
vn 0.531600 -0.040301 -0.846036
vn 0.705501 -0.134124 -0.695902
vn 0.531600 0.040302 -0.846036
vn 0.531600 0.040301 -0.846036
vn 0.329490 0.158274 -0.930798
vn 0.329490 0.158274 -0.930798
vn 0.943377 -0.124415 -0.307506
vn 0.993655 -0.041800 -0.104411
vn 0.943377 -0.124415 -0.307506
vn 0.993739 -0.041904 -0.103571
vn 0.706706 -0.033665 -0.706706
vn 0.706706 -0.033664 -0.706706
vn 0.845634 -0.101016 -0.524118
vn 0.845634 -0.101016 -0.524118
vn 0.115969 0.352212 -0.928707
vn 0.111207 0.349001 -0.930501
vn 0.706706 0.033665 -0.706706
vn 0.706706 0.033664 -0.706706
vn 0.531008 0.142048 -0.835376
vn 0.531008 0.142049 -0.835375
vn 0.846452 -0.025335 -0.531861
vn 0.846452 0.025336 -0.531862
vn 0.846452 -0.025336 -0.531862
vn 0.993655 -0.021285 -0.110435
vn 0.943414 -0.062759 -0.325624
vn 0.993655 -0.021285 -0.110435
vn 0.943414 -0.062759 -0.325624
vn 0.328259 0.331719 -0.884425
vn 0.529409 0.297928 -0.794333
vn 0.328259 0.331719 -0.884425
vn 0.846452 0.025335 -0.531861
vn 0.706158 0.118695 -0.698035
vn 0.706157 0.118695 -0.698035
vn 0.107771 0.537492 -0.836354
vn 0.141107 0.562381 -0.814749
vn 0.943767 -0.015731 -0.330238
vn 0.993698 -0.005333 -0.111963
vn 0.993101 0.000000 -0.117265
vn 0.943767 -0.015731 -0.330238
vn 0.111917 0.636889 -0.762789
vn 0.529409 0.297928 -0.794333
vn 0.943767 0.015731 -0.330238
vn 0.943767 0.015731 -0.330238
vn 0.993698 0.005333 -0.111963
vn 0.846080 0.089359 -0.525513
vn 0.846080 0.089359 -0.525513
vn 0.328946 0.510554 -0.794437
vn 0.328946 0.510554 -0.794437
vn 0.330153 0.604978 -0.724570
vn 0.151515 0.739869 -0.655467
vn 0.111725 0.706529 -0.698810
vn 0.330153 0.604978 -0.724569
vn 0.329640 0.671241 -0.663907
vn 0.704670 0.249174 -0.664344
vn 0.704670 0.249174 -0.664344
vn 0.845069 0.187760 -0.500605
vn 0.993269 0.021921 -0.113738
vn 0.943606 0.055499 -0.326384
vn 0.943606 0.055499 -0.326385
vn 0.993679 0.018819 -0.110673
vn 0.530301 0.458360 -0.713222
vn 0.530302 0.458360 -0.713222
vn 0.111797 0.785603 -0.608547
vn 0.329640 0.671241 -0.663908
vn 0.531868 0.542745 -0.650034
vn 0.531868 0.542745 -0.650034
vn 0.845069 0.187761 -0.500605
vn 0.147357 0.875790 -0.459650
vn 0.111874 0.839884 -0.531111
vn 0.706955 0.453293 -0.542899
vn 0.705500 0.383157 -0.596204
vn 0.705501 0.383157 -0.596204
vn 0.329836 0.746318 -0.578116
vn 0.329836 0.746318 -0.578116
vn 0.330041 0.797831 -0.504518
vn 0.531203 0.602374 -0.595793
vn 0.531203 0.602374 -0.595793
vn 0.706338 0.503285 -0.497786
vn 0.706955 0.453294 -0.542899
vn 0.943171 0.116700 -0.311143
vn 0.993655 0.041800 -0.104411
vn 0.994131 0.037992 -0.101294
vn 0.943171 0.116700 -0.311143
vn 0.330041 0.797831 -0.504518
vn 0.845634 0.288574 -0.449031
vn 0.846621 0.341093 -0.408519
vn 0.845634 0.288574 -0.449031
vn 0.329325 0.853053 -0.404779
vn 0.111606 0.897806 -0.426014
vn 0.531456 0.669671 -0.518744
vn 0.531457 0.669671 -0.518743
vn 0.706338 0.503284 -0.497787
vn 0.846203 0.378853 -0.374715
vn 0.846621 0.341093 -0.408519
vn 0.531723 0.715807 -0.452649
vn 0.531723 0.715807 -0.452649
vn 0.993655 0.060804 -0.094614
vn 0.943414 0.179285 -0.278974
vn 0.993655 0.060804 -0.094614
vn 0.943414 0.179285 -0.278974
vn 0.329324 0.853053 -0.404779
vn 0.706573 0.559431 -0.433349
vn 0.706573 0.559431 -0.433349
vn 0.846202 0.378854 -0.374715
vn 0.943839 0.211762 -0.253623
vn 0.943839 0.211762 -0.253623
vn 0.993707 0.071790 -0.085982
vn 0.993187 0.080414 -0.084336
vn 0.124671 0.963367 -0.237448
vn 0.111298 0.962239 -0.248413
vn 0.706820 0.597882 -0.378078
vn 0.706820 0.597882 -0.378078
vn 0.530794 0.765675 -0.363317
vn 0.530793 0.765675 -0.363317
vn 0.846362 0.421058 -0.326162
vn 0.846530 0.449930 -0.284518
vn 0.846362 0.421058 -0.326162
vn 0.943659 0.235277 -0.232706
vn 0.993685 0.079776 -0.078904
vn 0.943659 0.235277 -0.232706
vn 0.328504 0.914519 -0.236094
vn 0.328504 0.914519 -0.236094
vn 0.846530 0.449930 -0.284518
vn 0.705957 0.639873 -0.303623
vn 0.705957 0.639873 -0.303623
vn 0.845944 0.481784 -0.228609
vn 0.145573 0.989348 -0.000000
vn 0.101259 0.993733 -0.047337
vn 0.328946 0.943279 -0.044934
vn 0.943728 0.261456 -0.202530
vn 0.993115 0.095425 -0.067951
vn 0.943728 0.261456 -0.202530
vn 0.993693 0.088647 -0.068668
vn 0.111890 0.990199 0.083588
vn 0.529727 0.821242 -0.212014
vn 0.529727 0.821242 -0.212013
vn 0.993702 0.094707 -0.059889
vn 0.943800 0.279350 -0.176650
vn 0.943800 0.279350 -0.176651
vn 0.943548 0.299255 -0.141998
vn 0.845944 0.481784 -0.228609
vn 0.328946 0.943279 -0.044934
vn 0.151812 0.959688 0.236542
vn 0.111775 0.977782 0.177336
vn 0.330082 0.940607 0.079401
vn 0.330082 0.940607 0.079401
vn 0.704966 0.686726 -0.177286
vn 0.704966 0.686726 -0.177286
vn 0.943548 0.299255 -0.141998
vn 0.993375 0.104530 -0.047737
vn 0.993672 0.101479 -0.048153
vn 0.530302 0.846849 -0.040340
vn 0.530302 0.846849 -0.040341
vn 0.111750 0.949280 0.293902
vn 0.329774 0.928906 0.168471
vn 0.329774 0.928906 0.168471
vn 0.531776 0.843883 0.071237
vn 0.531776 0.843883 0.071237
vn 0.845270 0.517376 -0.133567
vn 0.845270 0.517376 -0.133567
vn 0.143490 0.876293 0.459914
vn 0.111904 0.917029 0.382799
vn 0.705500 0.707907 -0.033722
vn 0.845634 0.533159 -0.025398
vn 0.705500 0.707907 -0.033722
vn 0.329709 0.901848 0.279217
vn 0.329709 0.901848 0.279217
vn 0.531377 0.833537 0.151175
vn 0.531377 0.833537 0.151175
vn 0.706870 0.704837 0.059499
vn 0.706870 0.704837 0.059499
vn 0.993979 0.106092 -0.027389
vn 0.993655 0.109297 -0.026515
vn 0.993655 0.112340 -0.005351
vn 0.943258 0.321520 -0.083004
vn 0.943258 0.321520 -0.083004
vn 0.330119 0.871091 0.363623
vn 0.330119 0.871091 0.363624
vn 0.845634 0.533159 -0.025398
vn 0.943414 0.331241 -0.015779
vn 0.329143 0.821206 0.466139
vn 0.111537 0.864237 0.490565
vn 0.531293 0.809288 0.250560
vn 0.531293 0.809289 0.250560
vn 0.706500 0.696353 0.126294
vn 0.706499 0.696354 0.126294
vn 0.846564 0.530401 0.044774
vn 0.846563 0.530401 0.044773
vn 0.531825 0.781498 0.326225
vn 0.531825 0.781498 0.326225
vn 0.993655 0.112340 -0.005351
vn 0.943414 0.331241 -0.015779
vn 0.329143 0.821206 0.466139
vn 0.706421 0.676128 0.209333
vn 0.706421 0.676128 0.209333
vn 0.706915 0.652713 0.272465
vn 0.846312 0.524137 0.095060
vn 0.846259 0.508938 0.157570
vn 0.846312 0.524136 0.095060
vn 0.993704 0.111642 0.009424
vn 0.943814 0.329305 0.027798
vn 0.993132 0.115808 0.016651
vn 0.943814 0.329305 0.027798
vn 0.132154 0.741946 0.657307
vn 0.111384 0.755793 0.645268
vn 0.706915 0.652713 0.272464
vn 0.530558 0.737169 0.418437
vn 0.530558 0.737169 0.418437
vn 0.846259 0.508937 0.157570
vn 0.943706 0.325475 0.059030
vn 0.943706 0.325475 0.059030
vn 0.993691 0.110354 0.020014
vn 0.328733 0.718257 0.613222
vn 0.328733 0.718257 0.613222
vn 0.846594 0.491164 0.205028
vn 0.846594 0.491164 0.205029
vn 0.328946 0.583758 0.742308
vn 0.148843 0.561737 0.813817
vn 0.095919 0.615309 0.782429
vn 0.845795 0.463972 0.263363
vn 0.705739 0.616132 0.349734
vn 0.705739 0.616133 0.349734
vn 0.943684 0.316049 0.097850
vn 0.993688 0.107161 0.033177
vn 0.943684 0.316049 0.097850
vn 0.993156 0.110369 0.038199
vn 0.530025 0.644911 0.550602
vn 0.530025 0.644911 0.550602
vn 0.111858 0.500010 0.858765
vn 0.943827 0.304937 0.127291
vn 0.993705 0.103379 0.043154
vn 0.943827 0.304937 0.127291
vn 0.328946 0.583758 0.742308
vn 0.845795 0.463972 0.263363
vn 0.111819 0.416117 0.902410
vn 0.150922 0.350543 0.924306
vn 0.705243 0.539186 0.460338
vn 0.705243 0.539186 0.460338
vn 0.329995 0.474982 0.815779
vn 0.329995 0.474981 0.815779
vn 0.530301 0.524081 0.666423
vn 0.705500 0.438095 0.557083
vn 0.530302 0.524081 0.666423
vn 0.993664 0.097744 0.055482
vn 0.943484 0.288222 0.163603
vn 0.993505 0.098544 0.056894
vn 0.943484 0.288222 0.163603
vn 0.329892 0.395301 0.857268
vn 0.329893 0.395301 0.857268
vn 0.111159 0.119790 0.986557
vn 0.111158 0.119790 0.986557
vn 0.111697 0.304314 0.946000
vn 0.845459 0.406151 0.346758
vn 0.845459 0.406152 0.346758
vn 0.531664 0.426161 0.731929
vn 0.531664 0.426161 0.731929
vn 0.531531 0.354691 0.769201
vn 0.705500 0.438095 0.557083
vn 0.531531 0.354692 0.769200
vn 0.328131 0.113863 0.937745
vn 0.529242 0.102272 0.842285
vn 0.329567 0.289122 0.898774
vn 0.329567 0.289122 0.898774
vn 0.328131 0.113863 0.937745
vn 0.943339 0.252366 0.215461
vn 0.943339 0.252366 0.215461
vn 0.993821 0.084416 0.072071
vn 0.993655 0.084997 0.073650
vn 0.993655 0.069523 0.088405
vn 0.706765 0.355965 0.611369
vn 0.706642 0.296290 0.642549
vn 0.706765 0.355965 0.611369
vn 0.845634 0.329951 0.419567
vn 0.943414 0.204992 0.260668
vn 0.845634 0.329951 0.419567
vn 0.706642 0.296290 0.642549
vn 0.531109 0.259470 0.806597
vn 0.704515 0.085544 0.704515
vn 0.529242 0.102272 0.842285
vn 0.531108 0.259470 0.806597
vn 0.706250 0.216799 0.673950
vn 0.846493 0.267886 0.460094
vn 0.846493 0.267887 0.460094
vn 0.943414 0.204992 0.260668
vn 0.993655 0.069523 0.088405
vn 0.846409 0.222995 0.483596
vn 0.846409 0.222995 0.483596
vn 0.846143 0.163207 0.507352
vn 0.704515 0.085544 0.704515
vn 0.706250 0.216799 0.673950
vn 0.993104 0.053720 0.104203
vn 0.943784 0.166329 0.285669
vn 0.943784 0.166329 0.285669
vn 0.993700 0.056391 0.096851
vn 0.943748 0.138464 0.300279
vn 0.993696 0.046945 0.101808
vn 0.943748 0.138464 0.300279
vn 0.943633 0.101360 0.315091
vn 0.844963 0.064466 0.530926
vn 0.844963 0.064466 0.530925
vn 0.846143 0.163207 0.507352
vn 0.993682 0.034369 0.106841
vn 0.943125 0.040071 0.330014
vn 0.994204 0.012959 0.106724
vn 0.943125 0.040071 0.330014
vn 0.993225 0.032740 0.111501
vn 0.943633 0.101360 0.315091
vn 1.000000 0.000000 0.000000
vn 1.000000 -0.000000 0.000000
vn 1.000000 0.000000 0.000000
vn 1.000000 -0.000000 0.000000
vn 1.000000 0.000000 0.000000
vn 1.000000 0.000000 0.000000
vn 1.000000 0.000000 0.000000
vn 1.000000 -0.000000 0.000000
vn 1.000000 0.000000 0.000000
vn 1.000000 0.000000 0.000000
vn 1.000000 0.000000 0.000000
vn 1.000000 -0.000000 0.000000
vn 1.000000 -0.000000 0.000000
vn 1.000000 0.000000 0.000000
vn 1.000000 0.000000 0.000000
vn 1.000000 0.000000 0.000000
vn 1.000000 -0.000000 0.000000
vn 1.000000 0.000000 0.000000
vn 1.000000 0.000000 0.000000
vn 1.000000 0.000000 0.000000
vn 1.000000 -0.000000 0.000000
vn 1.000000 0.000000 0.000000
vn 1.000000 0.000000 0.000000
vn 1.000000 0.000000 0.000000
vn 1.000000 0.000000 0.000000
vn 1.000000 0.000000 0.000000
vn 1.000000 0.000000 0.000000
vn 1.000000 -0.000000 0.000000
vn 1.000000 0.000000 0.000000
vn 1.000000 0.000000 0.000000
vn 1.000000 0.000000 0.000000
vn 1.000000 -0.000000 0.000000
vn 1.000000 -0.000000 0.000000
vn 1.000000 0.000000 0.000000
vn 1.000000 -0.000000 0.000000
vn 1.000000 0.000000 0.000000
vn 1.000000 -0.000000 0.000000
vn 1.000000 0.000000 0.000000
vn 1.000000 0.000000 0.000000
vn 1.000000 0.000000 0.000000
vn 1.000000 -0.000000 0.000000
vn 1.000000 0.000000 0.000000
vn 1.000000 0.000000 0.000000
vn 1.000000 0.000000 0.000000
vn 1.000000 0.000000 0.000000
vn 1.000000 -0.000000 0.000000
vn 1.000000 0.000000 0.000000
vn 1.000000 0.000000 0.000000
vn 1.000000 0.000000 0.000000
vn 1.000000 -0.000000 0.000000
vn 1.000000 0.000000 0.000000
vn 1.000000 0.000000 0.000000
vn 1.000000 0.000000 0.000000
vn 1.000000 -0.000000 0.000000
vn 1.000000 0.000000 0.000000
vn 1.000000 -0.000000 0.000000
vn 1.000000 0.000000 0.000000
vn 1.000000 -0.000000 0.000000
vn 1.000000 0.000000 0.000000
vn 1.000000 -0.000000 0.000000
vn 1.000000 -0.000000 0.000000
vn 1.000000 0.000000 0.000000
vn 1.000000 0.000000 0.000000
vn 1.000000 -0.000000 0.000000
vn 1.000000 -0.000000 0.000000
vn 1.000000 0.000000 0.000000
vn 1.000000 -0.000000 0.000000
vn 1.000000 0.000000 0.000000
vn 1.000000 -0.000000 0.000000
vn 1.000000 0.000000 0.000000
vn 1.000000 -0.000000 0.000000
vn 1.000000 0.000000 0.000000
vn 1.000000 0.000000 0.000000
vn 1.000000 0.000000 0.000000
vn 1.000000 0.000000 0.000000
vn 1.000000 0.000000 0.000000
vn 1.000000 -0.000000 0.000000
vn 1.000000 0.000000 0.000000
vn 1.000000 0.000000 0.000000
vn 1.000000 0.000000 0.000000
vn 1.000000 0.000000 0.000000
vn 1.000000 0.000000 0.000000
vn 1.000000 -0.000000 0.000000
vn 1.000000 0.000000 0.000000
vn 1.000000 0.000000 0.000000
vn 1.000000 0.000000 0.000000
vn 1.000000 0.000000 0.000000
vn 1.000000 0.000000 0.000000
vn 1.000000 0.000000 0.000000
vn 1.000000 0.000000 0.000000
vn 1.000000 0.000000 0.000000
vn 1.000000 -0.000000 0.000000
vn 1.000000 0.000000 0.000000
vn 0.000000 -0.120537 0.992709
vn 0.000000 -0.120537 0.992709
vn 0.000000 -0.354605 0.935016
vn 0.000000 -0.354605 0.935016
vn 0.000000 -0.568065 0.822984
vn 0.000000 -0.568065 0.822984
vn 0.000000 -0.748511 0.663123
vn 0.000000 -0.748511 0.663123
vn 0.000000 -0.885456 0.464723
vn 0.000000 -0.885456 0.464723
vn 0.000000 -0.970942 0.239316
vn 0.000000 -0.970942 0.239316
vn 0.000000 -1.000000 0.000000
vn 0.000000 -1.000000 0.000000
vn -0.000000 -0.970942 -0.239316
vn 0.000000 -0.970942 -0.239316
vn -0.000000 -0.885456 -0.464723
vn -0.000000 -0.748511 -0.663123
vn 0.000000 -0.885456 -0.464723
vn -0.000000 -0.748511 -0.663123
vn 0.000000 -0.568065 -0.822984
vn -0.000000 -0.568065 -0.822984
vn -0.000000 -0.354605 -0.935016
vn -0.000000 -0.354605 -0.935016
vn 0.000000 -0.120537 -0.992709
vn -0.000000 -0.120537 -0.992709
vn 0.000000 0.120537 -0.992709
vn 0.000000 0.120537 -0.992709
vn 0.000000 0.354605 -0.935016
vn 0.000000 0.354605 -0.935016
vn 0.000000 0.568065 -0.822984
vn 0.000000 0.568065 -0.822984
vn 0.000000 0.748511 -0.663123
vn 0.000000 0.885456 -0.464723
vn 0.000000 0.748511 -0.663123
vn 0.000000 0.885456 -0.464723
vn 0.000000 0.970942 -0.239316
vn 0.000000 0.970942 -0.239316
vn 0.000000 1.000000 0.000000
vn 0.000000 1.000000 0.000000
vn 0.000000 0.970942 0.239316
vn 0.000000 0.970942 0.239316
vn 0.000000 0.885456 0.464723
vn 0.000000 0.885456 0.464723
vn 0.000000 0.748511 0.663123
vn 0.000000 0.748511 0.663123
vn 0.000000 0.568065 0.822984
vn 0.000000 0.568065 0.822984
vn 0.000000 0.354605 0.935016
vn 0.000000 0.354605 0.935016
vn 0.000000 0.120537 0.992709
vn 0.000000 0.120537 0.992709
vn 0.000000 0.000000 1.000000
vn 0.000000 -0.000000 1.000000
vn 0.000000 0.707107 0.707107
vn 0.000000 0.707107 0.707107
vn 0.000000 -0.707107 0.707107
vn 0.000000 -0.707107 0.707107
vn 0.000000 1.000000 0.000000
vn 0.000000 1.000000 0.000000
vn 0.000000 -1.000000 0.000000
vn 0.000000 -1.000000 0.000000
vn 0.000000 0.707107 -0.707107
vn 0.000000 0.707107 -0.707107
vn 0.000000 -0.707107 -0.707107
vn -0.000000 -0.707107 -0.707107
vn 0.000000 0.000000 -1.000000
vn -0.000000 -0.000000 -1.000000
vn 1.000000 0.000000 0.000000
vn 1.000000 0.000000 0.000000
vn 1.000000 0.000000 0.000000
vn 1.000000 -0.000000 0.000000
vn 1.000000 0.000000 0.000000
vn 1.000000 0.000000 0.000000
vn 1.000000 -0.000000 0.000000
vn 1.000000 0.000000 0.000000
vn 1.000000 0.000000 0.000000
vn 1.000000 0.000000 0.000000
vn 1.000000 0.000000 0.000000
vn 1.000000 -0.000000 0.000000
vn 1.000000 0.000000 0.000000
vn 1.000000 -0.000000 0.000000
vn 1.000000 0.000000 0.000000
vn 1.000000 0.000000 0.000000
vn 1.000000 -0.000000 0.000000
vn 1.000000 0.000000 0.000000
vn 1.000000 0.000000 0.000000
vn 1.000000 0.000000 0.000000
vn 1.000000 -0.000000 0.000000
vn 1.000000 0.000000 0.000000
vn 1.000000 0.000000 0.000000
vn 1.000000 0.000000 0.000000
vn 1.000000 0.000000 0.000000
vn 1.000000 0.000000 0.000000
vn 1.000000 0.000000 0.000000
vn 1.000000 -0.000000 0.000000
vn 1.000000 0.000000 0.000000
vn 1.000000 0.000000 0.000000
vn 1.000000 0.000000 0.000000
vn 1.000000 -0.000000 0.000000
vn 1.000000 0.000000 0.000000
vn 1.000000 0.000000 0.000000
vn 1.000000 0.000000 0.000000
vn 1.000000 -0.000000 0.000000
vn 1.000000 0.000000 0.000000
vn 1.000000 0.000000 0.000000
vn 1.000000 0.000000 0.000000
vn 1.000000 0.000000 0.000000
vn 1.000000 -0.000000 0.000000
vn 1.000000 0.000000 0.000000
vn 1.000000 0.000000 0.000000
vn 1.000000 0.000000 0.000000
vn 1.000000 -0.000000 0.000000
vn 1.000000 0.000000 0.000000
vn 1.000000 0.000000 0.000000
vn 1.000000 0.000000 0.000000
vn 1.000000 -0.000000 0.000000
vn 1.000000 0.000000 0.000000
vn 1.000000 0.000000 0.000000
vn 1.000000 0.000000 0.000000
vn -1.000000 0.000000 0.000000
vn -1.000000 0.000000 0.000000
vn -1.000000 0.000000 0.000000
vn -1.000000 0.000000 0.000000
vn -1.000000 -0.000000 0.000000
vn -1.000000 0.000000 0.000000
vn 0.000000 -0.120537 0.992709
vn 0.000000 -0.354605 0.935016
vn 0.000000 -0.120537 0.992709
vn 0.000000 -0.354605 0.935016
vn 0.000000 -0.568065 0.822984
vn 0.000000 -0.748511 0.663123
vn 0.000000 -0.568065 0.822984
vn 0.000000 -0.748511 0.663123
vn 0.000000 -0.885456 0.464723
vn 0.000000 -0.885456 0.464723
vn 0.000000 -0.970942 0.239316
vn -0.000000 -1.000000 0.000000
vn 0.000000 -0.970942 0.239316
vn 0.000000 -1.000000 0.000000
vn -0.000000 -0.970942 -0.239316
vn -0.000000 -0.885456 -0.464723
vn 0.000000 -0.970942 -0.239316
vn -0.000000 -0.885456 -0.464723
vn -0.000000 -0.748511 -0.663123
vn 0.000000 -0.748511 -0.663123
vn 0.000000 -0.568065 -0.822984
vn -0.000000 -0.568065 -0.822984
vn -0.000000 -0.354605 -0.935016
vn -0.000000 -0.354605 -0.935016
vn 0.000000 -0.120537 -0.992709
vn -0.000000 -0.120537 -0.992709
vn 0.000000 0.120537 -0.992709
vn 0.000000 0.120537 -0.992709
vn 0.000000 0.354605 -0.935016
vn 0.000000 0.354605 -0.935016
vn 0.000000 0.568065 -0.822984
vn 0.000000 0.568065 -0.822984
vn 0.000000 0.748511 -0.663123
vn 0.000000 0.748511 -0.663123
vn 0.000000 0.885456 -0.464723
vn 0.000000 0.885456 -0.464723
vn 0.000000 0.970942 -0.239316
vn 0.000000 0.970942 -0.239316
vn 0.000000 1.000000 0.000000
vn 0.000000 1.000000 0.000000
vn 0.000000 0.970942 0.239316
vn 0.000000 0.970942 0.239316
vn 0.000000 0.885456 0.464723
vn 0.000000 0.748511 0.663123
vn 0.000000 0.885456 0.464723
vn 0.000000 0.748511 0.663123
vn 0.000000 0.568065 0.822984
vn 0.000000 0.568065 0.822984
vn 0.000000 0.354605 0.935016
vn 0.000000 0.354605 0.935016
vn 0.000000 0.120537 0.992709
vn 0.000000 0.120537 0.992709
vn 1.000000 0.000000 0.000000
vn 1.000000 0.000000 0.000000
vn 1.000000 0.000000 0.000000
vn 1.000000 0.000000 0.000000
vn 1.000000 0.000000 0.000000
vn 1.000000 0.000000 0.000000
vn 1.000000 0.000000 0.000000
vn 1.000000 0.000000 0.000000
vn 1.000000 0.000000 0.000000
vn 1.000000 0.000000 0.000000
vn 1.000000 0.000000 0.000000
vn 1.000000 0.000000 0.000000
vn 1.000000 0.000000 0.000000
vn 1.000000 0.000000 0.000000
vn 1.000000 0.000000 0.000000
vn 1.000000 0.000000 0.000000
vn 1.000000 0.000000 0.000000
vn 1.000000 0.000000 0.000000
vn 1.000000 0.000000 0.000000
vn 1.000000 0.000000 0.000000
vn 1.000000 0.000000 0.000000
vn 1.000000 0.000000 0.000000
vn 1.000000 -0.000000 0.000000
vn 1.000000 0.000000 0.000000
f 369//1 1//1 2//1
f 3//2 369//2 2//2
f 4//3 2//3 5//3
f 4//4 3//4 2//4
f 6//5 5//5 7//5
f 6//6 7//6 8//6
f 6//7 4//7 5//7
f 9//8 8//8 10//8
f 9//9 6//9 8//9
f 11//10 9//10 10//10
f 12//11 10//11 13//11
f 12//12 11//12 10//12
f 14//13 13//13 15//13
f 14//14 12//14 13//14
f 16//15 15//15 17//15
f 16//16 14//16 15//16
f 18//17 17//17 19//17
f 18//18 19//18 20//18
f 18//19 16//19 17//19
f 21//20 20//20 22//20
f 21//21 18//21 20//21
f 23//22 21//22 22//22
f 24//23 23//23 22//23
f 24//24 22//24 25//24
f 24//25 25//25 26//25
f 27//26 24//26 26//26
f 27//27 26//27 28//27
f 29//28 27//28 28//28
f 30//29 28//29 31//29
f 30//30 29//30 28//30
f 32//31 31//31 33//31
f 32//32 30//32 31//32
f 34//33 33//33 35//33
f 34//34 32//34 33//34
f 36//35 35//35 37//35
f 36//36 34//36 35//36
f 38//37 37//37 39//37
f 38//38 36//38 37//38
f 40//39 39//39 41//39
f 40//40 38//40 39//40
f 42//41 41//41 43//41
f 42//42 40//42 41//42
f 44//43 43//43 45//43
f 44//44 42//44 43//44
f 46//45 45//45 47//45
f 46//46 47//46 48//46
f 46//47 44//47 45//47
f 49//48 46//48 48//48
f 50//49 48//49 51//49
f 50//50 49//50 48//50
f 369//51 51//51 1//51
f 369//52 50//52 51//52
f 52//53 53//53 54//53
f 55//54 56//54 1//54
f 1//55 56//55 2//55
f 57//56 58//56 55//56
f 55//57 58//57 56//57
f 2//58 59//58 5//58
f 56//59 59//59 2//59
f 57//60 60//60 58//60
f 61//61 60//61 57//61
f 59//62 62//62 5//62
f 59//63 63//63 62//63
f 58//64 63//64 56//64
f 56//65 63//65 59//65
f 5//66 64//66 7//66
f 62//67 64//67 5//67
f 65//68 66//68 61//68
f 61//69 66//69 60//69
f 63//70 67//70 62//70
f 58//71 68//71 63//71
f 60//72 68//72 58//72
f 63//73 68//73 67//73
f 62//74 69//74 64//74
f 67//75 69//75 62//75
f 64//76 70//76 7//76
f 71//77 72//77 65//77
f 65//78 72//78 66//78
f 68//79 73//79 67//79
f 68//80 74//80 73//80
f 60//81 74//81 68//81
f 66//82 74//82 60//82
f 73//83 75//83 67//83
f 67//84 75//84 69//84
f 64//85 76//85 70//85
f 75//86 76//86 69//86
f 69//87 76//87 64//87
f 71//88 77//88 72//88
f 54//89 77//89 71//89
f 53//90 77//90 54//90
f 78//91 77//91 53//91
f 74//92 79//92 73//92
f 72//93 80//93 66//93
f 74//94 80//94 79//94
f 66//95 80//95 74//95
f 7//96 81//96 8//96
f 70//97 81//97 7//97
f 73//98 82//98 75//98
f 79//99 82//99 73//99
f 75//100 83//100 76//100
f 80//101 84//101 79//101
f 77//102 85//102 72//102
f 86//103 85//103 78//103
f 72//104 85//104 80//104
f 78//105 85//105 77//105
f 70//106 87//106 81//106
f 76//107 87//107 70//107
f 84//108 88//108 79//108
f 79//109 88//109 82//109
f 75//110 89//110 83//110
f 88//111 89//111 82//111
f 82//112 89//112 75//112
f 8//113 90//113 10//113
f 81//114 90//114 8//114
f 80//115 91//115 84//115
f 85//116 91//116 80//116
f 92//117 91//117 86//117
f 86//118 91//118 85//118
f 90//119 93//119 10//119
f 76//120 94//120 87//120
f 83//121 94//121 76//121
f 84//122 95//122 88//122
f 92//123 95//123 91//123
f 91//124 95//124 84//124
f 95//125 96//125 88//125
f 88//126 96//126 89//126
f 81//127 97//127 90//127
f 90//128 97//128 93//128
f 87//129 97//129 81//129
f 10//130 98//130 13//130
f 93//131 98//131 10//131
f 97//132 99//132 93//132
f 83//133 100//133 94//133
f 89//134 100//134 83//134
f 92//135 101//135 95//135
f 102//136 101//136 92//136
f 95//137 101//137 96//137
f 94//138 103//138 87//138
f 87//139 103//139 97//139
f 97//140 103//140 99//140
f 98//141 104//141 13//141
f 98//142 105//142 104//142
f 93//143 105//143 98//143
f 99//144 105//144 93//144
f 103//145 106//145 99//145
f 89//146 107//146 100//146
f 96//147 107//147 89//147
f 13//148 108//148 15//148
f 104//149 108//149 13//149
f 100//150 109//150 94//150
f 103//151 109//151 106//151
f 94//152 109//152 103//152
f 105//153 110//153 104//153
f 99//154 111//154 105//154
f 106//155 111//155 99//155
f 105//156 111//156 110//156
f 109//157 112//157 106//157
f 96//158 113//158 107//158
f 101//159 113//159 96//159
f 114//160 113//160 102//160
f 102//161 113//161 101//161
f 104//162 115//162 108//162
f 110//163 115//163 104//163
f 107//164 116//164 100//164
f 100//165 116//165 109//165
f 109//166 116//166 112//166
f 108//167 117//167 15//167
f 111//168 118//168 110//168
f 111//169 119//169 118//169
f 106//170 119//170 111//170
f 112//171 119//171 106//171
f 116//172 120//172 112//172
f 118//173 121//173 110//173
f 110//174 121//174 115//174
f 116//175 122//175 120//175
f 114//176 122//176 113//176
f 113//177 122//177 107//177
f 123//178 122//178 114//178
f 107//179 122//179 116//179
f 108//180 124//180 117//180
f 115//181 124//181 108//181
f 119//182 125//182 118//182
f 120//183 126//183 112//183
f 112//184 126//184 119//184
f 119//185 126//185 125//185
f 122//186 127//186 120//186
f 123//187 127//187 122//187
f 128//188 127//188 123//188
f 15//189 129//189 17//189
f 117//190 129//190 15//190
f 125//191 130//191 118//191
f 118//192 130//192 121//192
f 121//193 131//193 115//193
f 130//194 131//194 121//194
f 115//195 131//195 124//195
f 126//196 132//196 125//196
f 128//197 133//197 127//197
f 120//198 133//198 126//198
f 126//199 133//199 132//199
f 127//200 133//200 120//200
f 117//201 134//201 129//201
f 124//202 134//202 117//202
f 132//203 135//203 125//203
f 125//204 135//204 130//204
f 130//205 136//205 131//205
f 17//206 137//206 19//206
f 129//207 137//207 17//207
f 128//208 138//208 133//208
f 133//209 138//209 132//209
f 139//210 138//210 128//210
f 124//211 140//211 134//211
f 131//212 140//212 124//212
f 137//213 141//213 19//213
f 132//214 142//214 135//214
f 138//215 142//215 132//215
f 139//216 142//216 138//216
f 135//217 143//217 130//217
f 130//218 143//218 136//218
f 142//219 143//219 135//219
f 134//220 144//220 129//220
f 129//221 144//221 137//221
f 19//222 145//222 20//222
f 141//223 145//223 19//223
f 136//224 146//224 131//224
f 131//225 146//225 140//225
f 143//226 146//226 136//226
f 137//227 147//227 141//227
f 144//228 147//228 137//228
f 148//229 149//229 139//229
f 139//230 149//230 142//230
f 142//231 149//231 143//231
f 140//232 150//232 134//232
f 146//233 150//233 140//233
f 134//234 150//234 144//234
f 145//235 151//235 20//235
f 147//236 152//236 141//236
f 141//237 152//237 145//237
f 143//238 153//238 146//238
f 144//239 154//239 147//239
f 150//240 154//240 144//240
f 147//241 154//241 152//241
f 20//242 155//242 22//242
f 151//243 155//243 20//243
f 146//244 156//244 150//244
f 145//245 157//245 151//245
f 152//246 157//246 145//246
f 152//247 158//247 157//247
f 154//248 158//248 152//248
f 159//249 160//249 148//249
f 161//250 160//250 159//250
f 148//251 160//251 149//251
f 143//252 160//252 153//252
f 149//253 160//253 143//253
f 156//254 162//254 150//254
f 150//255 162//255 154//255
f 157//256 163//256 151//256
f 151//257 163//257 155//257
f 146//258 164//258 156//258
f 153//259 164//259 146//259
f 155//260 165//260 22//260
f 158//261 166//261 157//261
f 162//262 167//262 154//262
f 154//263 167//263 158//263
f 156//264 168//264 162//264
f 164//265 168//265 156//265
f 157//266 169//266 163//266
f 166//267 169//267 157//267
f 160//268 170//268 153//268
f 153//269 170//269 164//269
f 161//270 170//270 160//270
f 163//271 171//271 155//271
f 169//272 171//272 163//272
f 155//273 171//273 165//273
f 158//274 172//274 166//274
f 167//275 172//275 158//275
f 162//276 173//276 167//276
f 168//277 173//277 162//277
f 167//278 173//278 172//278
f 164//279 174//279 168//279
f 161//280 174//280 170//280
f 175//281 174//281 161//281
f 170//282 174//282 164//282
f 22//283 176//283 25//283
f 165//284 176//284 22//284
f 171//285 176//285 165//285
f 166//286 177//286 169//286
f 172//287 177//287 166//287
f 169//288 178//288 171//288
f 173//289 179//289 172//289
f 168//290 180//290 173//290
f 174//291 180//291 168//291
f 175//292 180//292 174//292
f 171//293 181//293 176//293
f 179//294 182//294 172//294
f 172//295 182//295 177//295
f 25//296 183//296 26//296
f 176//297 183//297 25//297
f 169//298 184//298 178//298
f 177//299 184//299 169//299
f 180//300 185//300 173//300
f 186//301 185//301 175//301
f 173//302 185//302 179//302
f 175//303 185//303 180//303
f 178//304 187//304 171//304
f 171//305 187//305 181//305
f 183//306 188//306 26//306
f 179//307 189//307 182//307
f 186//308 189//308 185//308
f 185//309 189//309 179//309
f 181//310 190//310 176//310
f 176//311 190//311 183//311
f 182//312 191//312 177//312
f 177//313 191//313 184//313
f 26//314 192//314 28//314
f 188//315 192//315 26//315
f 184//316 193//316 178//316
f 178//317 193//317 187//317
f 183//318 194//318 188//318
f 190//319 194//319 183//319
f 188//320 194//320 192//320
f 193//321 195//321 187//321
f 187//322 195//322 181//322
f 181//323 195//323 190//323
f 196//324 197//324 186//324
f 182//325 197//325 191//325
f 186//326 197//326 189//326
f 189//327 197//327 182//327
f 194//328 198//328 192//328
f 192//329 199//329 28//329
f 184//330 200//330 193//330
f 191//331 200//331 184//331
f 195//332 201//332 190//332
f 190//333 201//333 194//333
f 193//334 202//334 195//334
f 201//335 203//335 194//335
f 194//336 203//336 198//336
f 192//337 204//337 199//337
f 198//338 204//338 192//338
f 191//339 205//339 200//339
f 206//340 205//340 196//340
f 197//341 205//341 191//341
f 196//342 205//342 197//342
f 195//343 207//343 201//343
f 202//344 207//344 195//344
f 193//345 208//345 202//345
f 200//346 208//346 193//346
f 28//347 209//347 31//347
f 199//348 209//348 28//348
f 201//349 210//349 203//349
f 207//350 210//350 201//350
f 203//351 211//351 198//351
f 198//352 211//352 204//352
f 208//353 212//353 202//353
f 207//354 212//354 210//354
f 202//355 212//355 207//355
f 206//356 213//356 205//356
f 200//357 213//357 208//357
f 214//358 213//358 206//358
f 205//359 213//359 200//359
f 204//360 215//360 199//360
f 211//361 215//361 204//361
f 199//362 215//362 209//362
f 212//363 216//363 210//363
f 210//364 217//364 203//364
f 203//365 217//365 211//365
f 209//366 218//366 31//366
f 31//367 218//367 33//367
f 208//368 219//368 212//368
f 214//369 219//369 213//369
f 220//370 219//370 214//370
f 213//371 219//371 208//371
f 218//372 221//372 33//372
f 211//373 222//373 215//373
f 212//374 223//374 216//374
f 219//375 223//375 212//375
f 220//376 223//376 219//376
f 216//377 224//377 210//377
f 210//378 224//378 217//378
f 209//379 225//379 218//379
f 215//380 225//380 209//380
f 218//381 225//381 221//381
f 33//382 226//382 35//382
f 221//383 226//383 33//383
f 225//384 227//384 221//384
f 221//385 227//385 226//385
f 217//386 228//386 211//386
f 211//387 228//387 222//387
f 224//388 228//388 217//388
f 229//389 230//389 220//389
f 223//390 230//390 216//390
f 216//391 230//391 224//391
f 220//392 230//392 223//392
f 222//393 231//393 215//393
f 215//394 231//394 225//394
f 226//395 232//395 35//395
f 227//396 233//396 226//396
f 225//397 234//397 227//397
f 231//398 234//398 225//398
f 224//399 235//399 228//399
f 35//400 236//400 37//400
f 232//401 236//401 35//401
f 231//402 237//402 234//402
f 228//403 237//403 222//403
f 222//404 237//404 231//404
f 226//405 238//405 232//405
f 233//406 238//406 226//406
f 232//407 238//407 236//407
f 234//408 239//408 227//408
f 227//409 239//409 233//409
f 234//410 240//410 239//410
f 237//411 240//411 234//411
f 224//412 241//412 235//412
f 242//413 241//413 229//413
f 229//414 241//414 230//414
f 230//415 241//415 224//415
f 238//416 243//416 236//416
f 235//417 244//417 228//417
f 237//418 244//418 240//418
f 228//419 244//419 237//419
f 243//420 245//420 236//420
f 236//421 245//421 37//421
f 239//422 246//422 233//422
f 233//423 246//423 238//423
f 240//424 247//424 239//424
f 240//425 248//425 247//425
f 244//426 248//426 240//426
f 238//427 249//427 243//427
f 246//428 249//428 238//428
f 242//429 250//429 241//429
f 235//430 250//430 244//430
f 251//431 250//431 242//431
f 241//432 250//432 235//432
f 243//433 252//433 245//433
f 239//434 253//434 246//434
f 247//435 253//435 239//435
f 248//436 254//436 247//436
f 250//437 255//437 244//437
f 244//438 255//438 248//438
f 251//439 255//439 250//439
f 256//440 255//440 251//440
f 37//441 257//441 39//441
f 245//442 257//442 37//442
f 246//443 258//443 249//443
f 253//444 258//444 246//444
f 243//445 259//445 252//445
f 249//446 259//446 243//446
f 247//447 260//447 253//447
f 253//448 260//448 258//448
f 254//449 260//449 247//449
f 248//450 261//450 254//450
f 256//451 261//451 255//451
f 255//452 261//452 248//452
f 245//453 262//453 257//453
f 252//454 262//454 245//454
f 260//455 263//455 258//455
f 249//456 264//456 259//456
f 258//457 264//457 249//457
f 263//458 264//458 258//458
f 39//459 265//459 41//459
f 257//460 265//460 39//460
f 262//461 265//461 257//461
f 254//462 266//462 260//462
f 267//463 266//463 256//463
f 261//464 266//464 254//464
f 256//465 266//465 261//465
f 265//466 268//466 41//466
f 259//467 269//467 252//467
f 252//468 269//468 262//468
f 267//469 270//469 266//469
f 266//470 270//470 260//470
f 260//471 270//471 263//471
f 270//472 271//472 263//472
f 263//473 271//473 264//473
f 262//474 272//474 265//474
f 41//475 273//475 43//475
f 268//476 273//476 41//476
f 272//477 274//477 265//477
f 265//478 274//478 268//478
f 264//479 275//479 259//479
f 259//480 275//480 269//480
f 270//481 276//481 271//481
f 277//482 276//482 267//482
f 267//483 276//483 270//483
f 269//484 278//484 262//484
f 262//485 278//485 272//485
f 273//486 279//486 43//486
f 274//487 280//487 268//487
f 268//488 280//488 273//488
f 272//489 281//489 274//489
f 278//490 281//490 272//490
f 271//491 282//491 264//491
f 264//492 282//492 275//492
f 43//493 283//493 45//493
f 279//494 283//494 43//494
f 275//495 284//495 269//495
f 282//496 284//496 275//496
f 269//497 284//497 278//497
f 273//498 285//498 279//498
f 280//499 285//499 273//499
f 274//500 286//500 280//500
f 281//501 286//501 274//501
f 278//502 287//502 281//502
f 284//503 287//503 278//503
f 277//504 288//504 276//504
f 289//505 288//505 277//505
f 290//506 288//506 289//506
f 271//507 288//507 282//507
f 276//508 288//508 271//508
f 279//509 291//509 283//509
f 285//510 291//510 279//510
f 282//511 292//511 284//511
f 288//512 292//512 282//512
f 291//513 293//513 283//513
f 283//514 293//514 45//514
f 280//515 294//515 285//515
f 286//516 294//516 280//516
f 281//517 295//517 286//517
f 287//518 295//518 281//518
f 284//519 296//519 287//519
f 292//520 296//520 284//520
f 294//521 297//521 285//521
f 285//522 297//522 291//522
f 290//523 298//523 288//523
f 288//524 298//524 292//524
f 291//525 299//525 293//525
f 286//526 300//526 294//526
f 295//527 300//527 286//527
f 294//528 300//528 297//528
f 287//529 301//529 295//529
f 295//530 301//530 300//530
f 296//531 301//531 287//531
f 290//532 302//532 298//532
f 292//533 302//533 296//533
f 303//534 302//534 290//534
f 298//535 302//535 292//535
f 45//536 304//536 47//536
f 293//537 304//537 45//537
f 300//538 305//538 297//538
f 297//539 306//539 291//539
f 291//540 306//540 299//540
f 301//541 307//541 300//541
f 296//542 308//542 301//542
f 302//543 308//543 296//543
f 303//544 308//544 302//544
f 299//545 309//545 293//545
f 293//546 309//546 304//546
f 300//547 310//547 305//547
f 307//548 310//548 300//548
f 309//549 311//549 304//549
f 47//550 311//550 48//550
f 304//551 311//551 47//551
f 310//552 312//552 305//552
f 305//553 312//553 297//553
f 297//554 312//554 306//554
f 301//555 313//555 307//555
f 303//556 313//556 308//556
f 308//557 313//557 301//557
f 314//558 313//558 303//558
f 306//559 315//559 299//559
f 299//560 315//560 309//560
f 311//561 316//561 48//561
f 307//562 317//562 310//562
f 314//563 317//563 313//563
f 313//564 317//564 307//564
f 309//565 318//565 311//565
f 310//566 319//566 312//566
f 316//567 320//567 48//567
f 48//568 320//568 51//568
f 306//569 321//569 315//569
f 312//570 321//570 306//570
f 318//571 322//571 311//571
f 311//572 322//572 316//572
f 309//573 323//573 318//573
f 321//574 323//574 315//574
f 315//575 323//575 309//575
f 314//576 324//576 317//576
f 310//577 324//577 319//577
f 325//578 324//578 314//578
f 317//579 324//579 310//579
f 316//580 326//580 320//580
f 322//581 326//581 316//581
f 51//582 327//582 1//582
f 1//583 327//583 55//583
f 320//584 327//584 51//584
f 312//585 328//585 321//585
f 319//586 328//586 312//586
f 323//587 329//587 318//587
f 318//588 329//588 322//588
f 322//589 329//589 326//589
f 321//590 330//590 323//590
f 329//591 331//591 326//591
f 55//592 332//592 57//592
f 57//593 332//593 61//593
f 326//594 332//594 320//594
f 320//595 332//595 327//595
f 327//596 332//596 55//596
f 324//597 333//597 319//597
f 319//598 333//598 328//598
f 325//599 333//599 324//599
f 334//600 333//600 325//600
f 335//601 333//601 334//601
f 323//602 336//602 329//602
f 329//603 336//603 331//603
f 330//604 336//604 323//604
f 328//605 337//605 321//605
f 333//606 337//606 328//606
f 321//607 337//607 330//607
f 336//608 338//608 331//608
f 331//609 339//609 326//609
f 61//610 339//610 65//610
f 332//611 339//611 61//611
f 326//612 339//612 332//612
f 338//613 339//613 331//613
f 337//614 340//614 330//614
f 330//615 340//615 336//615
f 333//616 341//616 337//616
f 335//617 341//617 333//617
f 336//618 342//618 338//618
f 340//619 342//619 336//619
f 342//620 343//620 338//620
f 339//621 343//621 65//621
f 338//622 343//622 339//622
f 344//623 345//623 335//623
f 341//624 345//624 337//624
f 337//625 345//625 340//625
f 335//626 345//626 341//626
f 340//627 345//627 342//627
f 344//628 346//628 345//628
f 345//629 346//629 342//629
f 346//630 347//630 342//630
f 65//631 347//631 71//631
f 343//632 347//632 65//632
f 342//633 347//633 343//633
f 344//634 348//634 346//634
f 347//635 348//635 71//635
f 54//636 348//636 52//636
f 71//637 348//637 54//637
f 52//638 348//638 344//638
f 346//639 348//639 347//639
f 349//640 32//640 34//640
f 349//641 34//641 36//641
f 349//642 350//642 32//642
f 351//643 30//643 32//643
f 351//644 32//644 350//644
f 352//645 349//645 36//645
f 353//646 29//646 30//646
f 353//647 30//647 351//647
f 27//648 29//648 353//648
f 354//649 36//649 38//649
f 354//650 352//650 36//650
f 355//651 27//651 353//651
f 356//652 38//652 40//652
f 356//653 354//653 38//653
f 357//654 24//654 27//654
f 357//655 27//655 355//655
f 358//656 40//656 42//656
f 358//657 356//657 40//657
f 359//658 23//658 24//658
f 359//659 24//659 357//659
f 360//660 42//660 44//660
f 360//661 358//661 42//661
f 361//662 21//662 23//662
f 361//663 23//663 359//663
f 46//664 362//664 360//664
f 46//665 360//665 44//665
f 363//666 21//666 361//666
f 18//667 21//667 363//667
f 49//668 362//668 46//668
f 49//669 364//669 362//669
f 16//670 18//670 363//670
f 16//671 363//671 365//671
f 366//672 364//672 49//672
f 50//673 366//673 49//673
f 367//674 366//674 50//674
f 14//675 16//675 365//675
f 14//676 365//676 368//676
f 369//677 367//677 50//677
f 12//678 14//678 368//678
f 12//679 368//679 370//679
f 3//680 367//680 369//680
f 3//681 371//681 367//681
f 11//682 12//682 370//682
f 11//683 370//683 372//683
f 4//684 373//684 371//684
f 4//685 371//685 3//685
f 9//686 372//686 374//686
f 9//687 11//687 372//687
f 6//688 373//688 4//688
f 6//689 375//689 373//689
f 6//690 374//690 375//690
f 6//691 9//691 374//691
f 256//692 376//692 377//692
f 251//693 376//693 256//693
f 267//694 256//694 377//694
f 242//695 376//695 251//695
f 277//696 267//696 377//696
f 229//697 376//697 242//697
f 289//698 277//698 377//698
f 220//699 376//699 229//699
f 290//700 377//700 378//700
f 290//701 289//701 377//701
f 214//702 379//702 376//702
f 214//703 376//703 220//703
f 303//704 290//704 378//704
f 206//705 379//705 214//705
f 314//706 303//706 378//706
f 196//707 379//707 206//707
f 325//708 314//708 378//708
f 186//709 379//709 196//709
f 334//710 325//710 378//710
f 175//711 379//711 186//711
f 380//712 148//712 139//712
f 380//713 159//713 148//713
f 380//714 161//714 159//714
f 380//715 175//715 161//715
f 380//716 379//716 175//716
f 381//717 335//717 334//717
f 381//718 344//718 335//718
f 381//719 52//719 344//719
f 381//720 53//720 52//720
f 381//721 334//721 378//721
f 382//722 53//722 381//722
f 382//723 78//723 53//723
f 382//724 86//724 78//724
f 382//725 92//725 86//725
f 382//726 102//726 92//726
f 383//727 114//727 102//727
f 383//728 123//728 114//728
f 383//729 128//729 123//729
f 383//730 139//730 128//730
f 383//731 102//731 382//731
f 383//732 380//732 139//732
f 384//733 367//733 371//733
f 384//734 385//734 367//734
f 386//735 371//735 373//735
f 386//736 384//736 371//736
f 387//737 373//737 375//737
f 387//738 386//738 373//738
f 388//739 375//739 374//739
f 388//740 387//740 375//740
f 389//741 374//741 372//741
f 389//742 388//742 374//742
f 390//743 372//743 370//743
f 390//744 389//744 372//744
f 391//745 370//745 368//745
f 391//746 390//746 370//746
f 392//747 368//747 365//747
f 392//748 391//748 368//748
f 393//749 365//749 363//749
f 393//750 363//750 361//750
f 393//751 392//751 365//751
f 394//752 393//752 361//752
f 395//753 394//753 361//753
f 395//754 361//754 359//754
f 395//755 359//755 357//755
f 396//756 395//756 357//756
f 397//757 396//757 357//757
f 397//758 357//758 355//758
f 397//759 355//759 353//759
f 398//760 397//760 353//760
f 399//761 353//761 351//761
f 399//762 398//762 353//762
f 400//763 351//763 350//763
f 400//764 399//764 351//764
f 401//765 350//765 349//765
f 401//766 349//766 352//766
f 401//767 400//767 350//767
f 402//768 401//768 352//768
f 402//769 352//769 354//769
f 403//770 402//770 354//770
f 404//771 354//771 356//771
f 404//772 403//772 354//772
f 405//773 356//773 358//773
f 405//774 404//774 356//774
f 406//775 358//775 360//775
f 406//776 405//776 358//776
f 407//777 360//777 362//777
f 407//778 406//778 360//778
f 408//779 362//779 364//779
f 408//780 407//780 362//780
f 409//781 364//781 366//781
f 409//782 408//782 364//782
f 385//783 366//783 367//783
f 385//784 409//784 366//784
f 381//785 410//785 411//785
f 382//786 381//786 411//786
f 410//787 378//787 412//787
f 381//788 378//788 410//788
f 413//789 382//789 411//789
f 383//790 382//790 413//790
f 377//791 414//791 412//791
f 378//792 377//792 412//792
f 380//793 383//793 413//793
f 380//794 413//794 415//794
f 414//795 376//795 416//795
f 377//796 376//796 414//796
f 417//797 380//797 415//797
f 379//798 380//798 417//798
f 379//799 417//799 416//799
f 376//800 379//800 416//800
f 418//801 400//801 401//801
f 418//802 419//802 400//802
f 402//803 418//803 401//803
f 420//804 399//804 400//804
f 420//805 400//805 419//805
f 421//806 418//806 402//806
f 422//807 398//807 399//807
f 422//808 399//808 420//808
f 423//809 402//809 403//809
f 423//810 421//810 402//810
f 424//811 397//811 398//811
f 424//812 398//812 422//812
f 404//813 423//813 403//813
f 425//814 423//814 404//814
f 426//815 396//815 397//815
f 426//816 397//816 424//816
f 427//817 404//817 405//817
f 427//818 425//818 404//818
f 428//819 395//819 396//819
f 428//820 396//820 426//820
f 429//821 405//821 406//821
f 429//822 427//822 405//822
f 430//823 394//823 395//823
f 430//824 395//824 428//824
f 407//825 431//825 429//825
f 407//826 429//826 406//826
f 432//827 394//827 430//827
f 393//828 394//828 432//828
f 433//829 431//829 407//829
f 408//830 433//830 407//830
f 392//831 393//831 432//831
f 392//832 432//832 434//832
f 409//833 433//833 408//833
f 409//834 435//834 433//834
f 436//835 392//835 434//835
f 391//836 392//836 436//836
f 385//837 437//837 435//837
f 385//838 435//838 409//838
f 390//839 391//839 436//839
f 390//840 436//840 438//840
f 384//841 437//841 385//841
f 384//842 439//842 437//842
f 389//843 438//843 440//843
f 389//844 390//844 438//844
f 386//845 441//845 439//845
f 386//846 439//846 384//846
f 388//847 440//847 442//847
f 388//848 389//848 440//848
f 387//849 443//849 441//849
f 387//850 442//850 443//850
f 387//851 441//851 386//851
f 387//852 388//852 442//852
f 416//853 412//853 414//853
f 417//854 415//854 416//854
f 416//855 415//855 412//855
f 415//856 410//856 412//856
f 410//857 413//857 411//857
f 415//858 413//858 410//858
f 444//859 437//859 439//859
f 444//860 439//860 441//860
f 444//861 445//861 437//861
f 446//862 444//862 441//862
f 447//863 441//863 443//863
f 447//864 443//864 442//864
f 447//865 446//865 441//865
f 448//866 447//866 442//866
f 449//867 442//867 440//867
f 449//868 448//868 442//868
f 450//869 440//869 438//869
f 450//870 438//870 436//870
f 450//871 449//871 440//871
f 451//872 450//872 436//872
f 452//873 436//873 434//873
f 452//874 434//874 432//874
f 452//875 451//875 436//875
f 453//876 452//876 432//876
f 454//877 432//877 430//877
f 454//878 453//878 432//878
f 455//879 454//879 430//879
f 455//880 430//880 428//880
f 455//881 428//881 426//881
f 456//882 455//882 426//882
f 457//883 456//883 426//883
f 457//884 426//884 424//884
f 458//885 457//885 424//885
f 458//886 424//886 422//886
f 458//887 422//887 420//887
f 459//888 458//888 420//888
f 460//889 420//889 419//889
f 460//890 459//890 420//890
f 461//891 419//891 418//891
f 461//892 460//892 419//892
f 462//893 418//893 421//893
f 462//894 461//894 418//894
f 463//895 421//895 423//895
f 463//896 462//896 421//896
f 464//897 423//897 425//897
f 464//898 463//898 423//898
f 465//899 425//899 427//899
f 465//900 464//900 425//900
f 466//901 427//901 429//901
f 466//902 429//902 431//902
f 466//903 465//903 427//903
f 467//904 466//904 431//904
f 467//905 431//905 433//905
f 468//906 467//906 433//906
f 469//907 433//907 435//907
f 469//908 468//908 433//908
f 445//909 435//909 437//909
f 445//910 469//910 435//910
f 459//911 460//911 461//911
f 462//912 459//912 461//912
f 457//913 458//913 459//913
f 464//914 462//914 463//914
f 455//915 456//915 457//915
f 454//916 457//916 459//916
f 454//917 455//917 457//917
f 467//918 464//918 465//918
f 467//919 465//919 466//919
f 452//920 453//920 454//920
f 469//921 467//921 468//921
f 445//922 459//922 462//922
f 445//923 462//923 464//923
f 445//924 464//924 467//924
f 445//925 467//925 469//925
f 445//926 454//926 459//926
f 445//927 452//927 454//927
f 450//928 451//928 452//928
f 449//929 450//929 452//929
f 447//930 445//930 444//930
f 447//931 444//931 446//931
f 447//932 448//932 449//932
f 447//933 452//933 445//933
f 447//934 449//934 452//934
