# Created by FreeCAD <https://www.freecad.org>
v 60.000000 0.000000 8.000000
v 6.000000 0.000000 8.000000
v 6.000000 -1.719764 7.812964
v 60.000000 -1.719764 7.812964
v 6.000000 -3.359113 7.260603
v 60.000000 -3.359113 7.260603
v 6.000000 -4.841394 6.368744
v 60.000000 -4.841394 6.368744
v 6.000000 -6.097296 5.179090
v 60.000000 -6.097296 5.179090
v 60.000000 -7.068096 3.747267
v 6.000000 -7.068096 3.747267
v 6.000000 -7.708400 2.140227
v 60.000000 -7.708400 2.140227
v 60.000000 -7.988267 0.433111
v 6.000000 -7.988267 0.433111
v 6.000000 -7.894612 -1.294256
v 60.000000 -7.894612 -1.294256
v 6.000000 -7.431814 -2.961105
v 60.000000 -7.431814 -2.961105
v 60.000000 -6.621512 -4.489497
v 6.000000 -6.621512 -4.489497
v 6.000000 -5.501595 -5.807964
v 60.000000 -5.501595 -5.807964
v 6.000000 -4.124431 -6.854857
v 60.000000 -4.124431 -6.854857
v 60.000000 -2.554412 -7.581225
v 6.000000 -2.554412 -7.581225
v 60.000000 -0.864952 -7.953104
v 6.000000 -0.864952 -7.953104
v 60.000000 0.864952 -7.953104
v 6.000000 0.864952 -7.953104
v 60.000000 2.554412 -7.581225
v 6.000000 2.554412 -7.581225
v 60.000000 4.124431 -6.854857
v 6.000000 4.124431 -6.854857
v 60.000000 5.501595 -5.807964
v 6.000000 5.501595 -5.807964
v 60.000000 6.621512 -4.489497
v 6.000000 6.621512 -4.489497
v 60.000000 7.431814 -2.961105
v 6.000000 7.431814 -2.961105
v 60.000000 7.894612 -1.294256
v 6.000000 7.894612 -1.294256
v 60.000000 7.988267 0.433111
v 6.000000 7.988267 0.433111
v 60.000000 7.708400 2.140227
v 6.000000 7.708400 2.140227
v 60.000000 7.068096 3.747267
v 6.000000 7.068096 3.747267
v 60.000000 6.097296 5.179090
v 6.000000 6.097296 5.179090
v 60.000000 4.841394 6.368744
v 6.000000 4.841394 6.368744
v 60.000000 3.359113 7.260603
v 6.000000 3.359113 7.260603
v 60.000000 1.719764 7.812964
v 6.000000 1.719764 7.812964
v 4.664875 0.000000 8.150433
v 4.664875 -1.341517 8.039271
v 4.664875 -1.752102 7.959880
v 3.396698 0.000000 8.594187
v 3.396698 -1.414557 8.476974
v 4.664875 -2.646441 7.708819
v 3.396698 -1.847496 8.393259
v 2.259061 0.000000 9.309011
v 2.259061 -1.532213 9.182049
v 4.664875 -3.422278 7.397132
v 3.396698 -2.790528 8.128531
v 2.259061 -2.001162 9.091372
v 4.664875 -3.879177 7.168091
v 1.309011 -1.688586 10.119141
v 1.309011 0.000000 10.259061
v 3.396698 -3.608605 7.799873
v 2.259061 -3.022631 8.804624
v 1.309011 -2.205395 10.019210
v 3.396698 -4.090381 7.558362
v 4.664875 -4.932432 6.488503
v 0.594187 0.000000 11.396698
v 0.594187 -1.875835 11.241261
v 2.259061 -3.908752 8.448629
v 1.309011 -3.331112 9.703197
v 0.594187 -2.449953 11.130249
v 2.259061 -4.430600 8.187031
v 3.396698 -5.200980 6.841773
v 0.150433 0.000000 12.664874
v 0.150433 -2.084570 12.492142
v 0.000000 0.000000 14.000000
v 0.000000 -2.304324 13.809058
v 1.309011 -4.307668 9.310872
v 4.664875 -5.996468 5.520138
v 0.594187 -3.700502 10.779193
v 0.150433 -2.722574 12.368776
v 0.000000 -4.545793 13.241442
v 1.309011 -4.882773 9.022575
v 2.259061 -5.633574 7.410839
v 0.594187 -4.785349 10.343363
v 3.396698 -6.322949 5.820684
v 0.150433 -4.112278 11.978657
v 4.664875 -6.823269 4.457864
v 0.594187 -5.424229 10.023096
v 1.309011 -6.208519 8.167168
v 0.150433 -5.317843 11.494328
v 0.000000 -6.663263 12.312633
v 2.259061 -6.848862 6.304821
v 4.664875 -7.201005 3.817731
v 3.396698 -7.194765 4.700575
v 0.150433 -6.027814 11.138425
v 4.664875 -7.463949 3.273991
v 0.594187 -6.896987 9.072832
v 1.309011 -7.547837 6.948273
v 3.396698 -7.593068 4.025589
v 2.259061 -7.793192 5.091547
v 3.396698 -7.870327 3.452245
v 0.000000 -8.598978 11.047967
v 0.150433 -7.664455 10.082418
v 4.664875 -7.853349 2.180472
v 0.594187 -8.384823 7.718773
v 2.259061 -8.224624 4.360419
v 1.309011 -8.588542 5.611175
v 2.259061 -8.524944 3.739387
v 3.396698 -8.280929 2.299189
v 0.150433 -9.317851 8.577686
v 0.000000 -10.300135 9.481942
v 0.000000 -11.720330 7.657274
v 1.309011 -9.064004 4.805431
v 4.664875 -8.122595 0.673057
v 0.594187 -9.540934 6.233403
v 1.309011 -9.394975 4.121018
v 2.259061 -8.969698 2.490424
v 0.594187 -10.069119 5.338309
v 3.396698 -8.564834 0.709702
v 0.150433 -10.602609 6.927030
v 4.664875 -8.122595 -0.673057
v 0.594187 -10.436791 4.578001
v 1.309011 -9.885118 2.744590
v 0.150433 -11.189569 5.932334
v 0.000000 -12.820827 5.623736
v 4.664875 -8.043063 -1.318593
v 2.259061 -9.277216 0.768732
v 3.396698 -8.564834 -0.709702
v 0.150433 -11.598154 5.087422
v 0.594187 -10.981288 3.048939
v 4.664875 -7.901031 -2.000813
v 3.396698 -8.480971 -1.390385
v 1.309011 -10.224021 0.847187
v 2.259061 -9.277216 -0.768732
v 0.000000 -13.571604 3.436797
v 0.150433 -12.203239 3.388213
v 3.396698 -8.331207 -2.109748
v 4.664875 -7.571562 -3.016786
v 2.259061 -9.186379 -1.506030
v 0.594187 -11.357772 0.941132
v 1.309011 -10.224021 -0.847187
v 2.259061 -9.024158 -2.285227
v 3.396698 -7.983799 -3.181036
v 1.309011 -10.123914 -1.659731
v 0.000000 -13.952183 1.156111
v 0.150433 -12.621617 1.045857
v 4.664875 -6.823269 -4.457864
v 0.594187 -11.357772 -0.941132
v 1.309011 -9.945137 -2.518451
v 2.259061 -8.647855 -3.445620
v 0.594187 -11.246563 -1.843781
v 3.396698 -7.194765 -4.700575
v 0.150433 -12.621617 -1.045857
v 0.000000 -13.952183 -1.156111
v 4.664875 -5.996468 -5.520138
v 0.594187 -11.047961 -2.797724
v 1.309011 -9.530429 -3.797270
v 0.150433 -12.498034 -2.048949
v 0.000000 -13.571604 -3.436797
v 4.664875 -5.605048 -5.917177
v 2.259061 -7.793192 -5.091547
v 3.396698 -6.322949 -5.820684
v 0.150433 -12.277332 -3.109043
v 0.594187 -10.587267 -4.218353
v 4.664875 -5.006099 -6.431837
v 3.396698 -5.910218 -6.239341
v 1.309011 -8.588542 -5.611175
v 2.259061 -6.848862 -6.304821
v 0.150433 -11.765373 -4.687753
v 0.000000 -12.820827 -5.623736
v 4.664875 -4.201987 -6.983757
v 3.396698 -5.278659 -6.782021
v 2.259061 -6.401802 -6.758300
v 0.594187 -9.540934 -6.233403
v 1.309011 -7.547837 -6.948273
v 3.396698 -4.430766 -7.363991
v 2.259061 -5.717713 -7.346118
v 1.309011 -7.055151 -7.448032
v 0.150433 -10.602609 -6.927030
v 0.000000 -11.720330 -7.657274
v 4.664875 -2.646441 -7.708819
v 0.594187 -8.384823 -7.718773
v 2.259061 -4.799296 -7.976493
v 1.309011 -6.301246 -8.095840
v 0.594187 -7.837503 -8.273952
v 3.396698 -2.790528 -8.128531
v 0.150433 -9.317851 -8.577686
v 0.000000 -10.300135 -9.481942
v 4.664875 -1.341517 -8.039271
v 1.309011 -5.289099 -8.790550
v 0.594187 -6.999997 -8.993596
v 0.150433 -8.709627 -9.194642
v 0.000000 -8.598978 -11.047967
v 4.664875 -0.881217 -8.102654
v 2.259061 -3.022631 -8.804624
v 3.396698 -1.414557 -8.476974
v 0.594187 -5.875611 -9.765342
v 0.150433 -7.778927 -9.994366
v 4.664875 -0.000000 -8.150433
v 3.396698 -0.929195 -8.543807
v 1.309011 -3.331112 -9.703197
v 2.259061 -1.532213 -9.182049
v 0.150433 -6.529425 -10.851989
v 0.000000 -6.663263 -12.312633
v 4.664875 0.881217 -8.102654
v 3.396698 -0.000000 -8.594187
v 2.259061 -1.006481 -9.254441
v 4.664875 1.341517 -8.039271
v 0.594187 -3.700502 -10.779193
v 1.309011 -1.688586 -10.119141
v 3.396698 0.929195 -8.543807
v 2.259061 -0.000000 -9.309011
v 1.309011 -1.109200 -10.198922
v 3.396698 1.414557 -8.476974
v 0.000000 -4.545793 -13.241442
v 0.150433 -4.112278 -11.978657
v 4.664875 2.602446 -7.723783
v 0.594187 -1.875835 -11.241261
v 2.259061 1.006481 -9.254441
v 1.309011 -0.000000 -10.259061
v 0.594187 -1.232200 -11.329889
v 2.259061 1.532213 -9.182049
v 3.396698 2.744137 -8.144308
v 0.150433 -2.084570 -12.492142
v 0.000000 -2.304324 -13.809058
v 1.309011 1.109200 -10.198922
v 4.664875 3.879177 -7.168091
v 0.594187 -0.000000 -11.396698
v 0.150433 -1.369314 -12.590632
v 0.000000 -0.000000 -14.000000
v 1.309011 1.688586 -10.119141
v 2.259061 2.972382 -8.821713
v 0.594187 1.232200 -11.329889
v 3.396698 4.090381 -7.558362
v 0.150433 -0.000000 -12.664874
v 4.664875 5.006099 -6.431837
v 0.594187 1.875835 -11.241261
v 1.309011 3.275734 -9.722032
v 0.150433 1.369314 -12.590632
v 0.000000 2.304324 -13.809058
v 2.259061 4.430600 -8.187031
v 4.664875 5.605048 -5.917177
v 3.396698 5.278659 -6.782021
v 0.150433 2.084570 -12.492142
v 4.664875 5.996468 -5.520138
v 0.594187 3.638983 -10.800117
v 1.309011 4.882773 -9.022575
v 3.396698 5.910218 -6.239341
v 2.259061 5.717713 -7.346118
v 3.396698 6.322949 -5.820684
v 0.150433 4.043914 -12.001908
v 0.000000 4.545793 -13.241442
v 4.664875 6.746023 -4.573917
v 0.594187 5.424229 -10.023096
v 2.259061 6.401802 -6.758300
v 1.309011 6.301246 -8.095840
v 2.259061 6.848862 -6.304821
v 3.396698 7.113314 -4.822947
v 0.150433 6.027814 -11.138425
v 0.000000 6.663263 -12.312633
v 1.309011 7.055151 -7.448032
v 4.664875 7.463949 -3.273991
v 0.594187 6.999997 -8.993596
v 1.309011 7.547837 -6.948273
v 2.259061 7.704966 -5.224097
v 0.594187 7.837503 -8.273952
v 3.396698 7.870327 -3.452245
v 0.150433 7.778927 -9.994366
v 0.000000 8.598978 -11.047967
v 4.664875 7.901031 -2.000813
v 0.594187 8.384823 -7.718773
v 1.309011 8.491312 -5.757252
v 0.150433 8.709627 -9.194642
v 0.000000 10.300135 -9.481942
v 4.664875 8.043063 -1.318593
v 2.259061 8.524944 -3.739387
v 3.396698 8.331207 -2.109748
v 0.150433 9.317851 -8.577686
v 0.594187 9.432921 -6.395679
v 4.664875 8.122595 -0.673057
v 3.396698 8.480971 -1.390385
v 1.309011 9.394975 -4.121018
v 2.259061 9.024158 -2.285227
v 0.150433 10.482577 -7.107364
v 0.000000 11.720330 -7.657274
v 3.396698 8.564834 -0.709702
v 4.664875 8.138479 0.441256
v 2.259061 9.186379 -1.506030
v 0.594187 10.436791 -4.578001
v 1.309011 9.945137 -2.518451
v 2.259061 9.277216 -0.768732
v 3.396698 8.581583 0.465280
v 1.309011 10.123914 -1.659731
v 0.150433 11.598154 -5.087422
v 0.000000 12.820827 -5.623736
v 4.664875 7.901031 2.000813
v 0.594187 11.047961 -2.797724
v 1.309011 10.224021 -0.847187
v 2.259061 9.295359 0.503980
v 0.594187 11.246563 -1.843781
v 3.396698 8.331207 2.109748
v 0.150433 12.277332 -3.109043
v 0.000000 13.571604 -3.436797
v 4.664875 7.463949 3.273991
v 0.594187 11.357772 -0.941132
v 1.309011 10.244016 0.555414
v 0.150433 12.498034 -2.048949
v 0.000000 13.952183 -1.156111
v 4.664875 7.201005 3.817731
v 2.259061 9.024158 2.285227
v 3.396698 7.870327 3.452245
v 0.150433 12.621617 -1.045857
v 0.594187 11.379983 0.617005
v 4.664875 6.823269 4.457864
v 3.396698 7.593068 4.025589
v 1.309011 9.945137 2.518451
v 2.259061 8.524944 3.739387
v 0.150433 12.646300 0.685662
v 0.000000 13.952183 1.156111
v 4.664875 6.211950 5.276478
v 3.396698 7.194765 4.700575
v 2.259061 8.224624 4.360419
v 0.594187 11.047961 2.797724
v 1.309011 9.394975 4.121018
v 3.396698 6.550163 5.563759
v 2.259061 7.793192 5.091547
v 1.309011 9.064004 4.805431
v 0.150433 12.277332 3.109043
v 0.000000 13.571604 3.436797
v 0.000000 12.820827 5.623736
v 4.664875 5.006099 6.431837
v 0.594187 10.436791 4.578001
v 2.259061 7.094975 6.026526
v 1.309011 8.588542 5.611175
v 0.594187 10.069119 5.338309
v 3.396698 5.278659 6.782021
v 0.150433 11.598154 5.087422
v 4.664875 3.879177 7.168091
v 1.309011 7.819067 6.641575
v 0.594187 9.540934 6.233403
v 0.150433 11.189569 5.932334
v 0.000000 11.720330 7.657274
v 4.664875 3.422278 7.397132
v 2.259061 5.717713 7.346118
v 3.396698 4.090381 7.558362
v 0.594187 8.686131 7.378066
v 0.150433 10.602609 6.927030
v 4.664875 2.646441 7.708819
v 3.396698 3.608605 7.799873
v 1.309011 6.301246 8.095840
v 2.259061 4.430600 8.187031
v 0.150433 9.652687 8.199066
v 0.000000 10.300135 9.481942
v 4.664875 1.752102 7.959880
v 3.396698 2.790528 8.128531
v 2.259061 3.908752 8.448629
v 4.664875 1.341517 8.039271
v 0.594187 6.999997 8.993596
v 1.309011 4.882773 9.022575
v 3.396698 1.847496 8.393259
v 2.259061 3.022631 8.804624
v 1.309011 4.307668 9.310872
v 3.396698 1.414557 8.476974
v 0.150433 7.778927 9.994366
v 0.000000 8.598978 11.047967
v 0.594187 5.424229 10.023096
v 2.259061 2.001162 9.091372
v 1.309011 3.331112 9.703197
v 0.594187 4.785349 10.343363
v 2.259061 1.532213 9.182049
v 0.150433 6.027814 11.138425
v 0.000000 6.663263 12.312633
v 1.309011 2.205395 10.019210
v 0.594187 3.700502 10.779193
v 0.150433 5.317843 11.494328
v 0.000000 4.545793 13.241442
v 1.309011 1.688586 10.119141
v 0.594187 2.449953 11.130249
v 0.150433 4.112278 11.978657
v 0.594187 1.875835 11.241261
v 0.150433 2.722574 12.368776
v 0.000000 2.304324 13.809058
v 0.150433 2.084570 12.492142
v 60.000000 4.509234 -5.089873
v 60.000000 5.596290 -3.862840
v 60.000000 3.160118 -6.021101
v 60.000000 6.358110 -2.411313
v 60.000000 1.627347 -6.602405
v 60.000000 6.750421 -0.819649
v 60.000000 -0.000000 -6.800000
v 60.000000 6.750421 0.819649
v 60.000000 -1.627347 -6.602405
v 60.000000 6.358110 2.411313
v 60.000000 -3.160118 -6.021101
v 60.000000 5.596290 3.862840
v 60.000000 -4.509234 -5.089873
v 60.000000 4.509234 5.089873
v 60.000000 -5.596290 -3.862840
v 60.000000 3.160118 6.021101
v 60.000000 -6.358110 -2.411313
v 60.000000 1.627347 6.602405
v 60.000000 -6.750421 -0.819649
v 60.000000 0.000000 6.800000
v 60.000000 -6.750421 0.819649
v 60.000000 -1.627347 6.602405
v 60.000000 -6.358110 2.411313
v 60.000000 -3.160118 6.021101
v 60.000000 -5.596290 3.862840
v 60.000000 -4.509234 5.089873
v 0.000000 8.690000 -27.500000
v 0.000000 27.500000 -8.690000
v 0.000000 -8.690000 -27.500000
v 0.000000 27.500000 8.690000
v 0.000000 -27.500000 -8.690000
v 0.000000 8.690000 27.500000
v 0.000000 -8.690000 27.500000
v 0.000000 -27.500000 8.690000
v 60.799999 -1.627347 6.602405
v 60.799999 0.000000 6.800000
v 60.799999 -3.160118 6.021101
v 60.799999 -4.509234 5.089873
v 60.799999 -5.596290 3.862840
v 60.799999 -6.358110 2.411313
v 60.799999 -6.750421 0.819649
v 60.799999 -6.750421 -0.819649
v 60.799999 -6.358110 -2.411313
v 60.799999 -5.596290 -3.862840
v 60.799999 -4.509234 -5.089873
v 60.799999 -3.160118 -6.021101
v 60.799999 -1.627347 -6.602405
v 60.799999 -0.000000 -6.800000
v 60.799999 1.627347 -6.602405
v 60.799999 3.160118 -6.021101
v 60.799999 4.509234 -5.089873
v 60.799999 5.596290 -3.862840
v 60.799999 6.358110 -2.411313
v 60.799999 6.750421 -0.819649
v 60.799999 6.750421 0.819649
v 60.799999 6.358110 2.411313
v 60.799999 5.596290 3.862840
v 60.799999 4.509234 5.089873
v 60.799999 3.160118 6.021101
v 60.799999 1.627347 6.602405
v -30.000000 8.690000 27.500000
v -30.000000 -8.690000 27.500000
v -30.000000 27.500000 8.690000
v -30.000000 -27.500000 8.690000
v -30.000000 27.500000 -8.690000
v -30.000000 -27.500000 -8.690000
v -30.000000 8.690000 -27.500000
v -30.000000 -8.690000 -27.500000
v 60.799999 4.243985 -4.790469
v 60.799999 5.267097 -3.635614
v 60.799999 2.974228 -5.666919
v 60.799999 5.984104 -2.269471
v 60.799999 1.531620 -6.214027
v 60.799999 6.353337 -0.771435
v 60.799999 -0.000000 -6.400000
v 60.799999 6.353337 0.771435
v 60.799999 -1.531620 -6.214027
v 60.799999 5.984104 2.269471
v 60.799999 -2.974228 -5.666919
v 60.799999 5.267097 3.635614
v 60.799999 -4.243985 -4.790469
v 60.799999 4.243985 4.790469
v 60.799999 -5.267097 -3.635614
v 60.799999 2.974228 5.666919
v 60.799999 -5.984104 -2.269471
v 60.799999 1.531620 6.214027
v 60.799999 -6.353337 -0.771435
v 60.799999 0.000000 6.400000
v 60.799999 -6.353337 0.771435
v 60.799999 -1.531620 6.214027
v 60.799999 -5.984104 2.269471
v 60.799999 -2.974228 5.666919
v 60.799999 -5.267097 3.635614
v 60.799999 -4.243985 4.790469
v 100.800003 -1.531620 6.214027
v 100.800003 0.000000 6.400000
v 100.800003 -2.974228 5.666919
v 100.800003 -4.243985 4.790469
v 100.800003 -5.267097 3.635614
v 100.800003 -5.984104 2.269471
v 100.800003 -6.353337 0.771435
v 100.800003 -6.353337 -0.771435
v 100.800003 -5.984104 -2.269471
v 100.800003 -5.267097 -3.635614
v 100.800003 -4.243985 -4.790469
v 100.800003 -2.974228 -5.666919
v 100.800003 -1.531620 -6.214027
v 100.800003 -0.000000 -6.400000
v 100.800003 1.531620 -6.214027
v 100.800003 2.974228 -5.666919
v 100.800003 4.243985 -4.790469
v 100.800003 5.267097 -3.635614
v 100.800003 5.984104 -2.269471
v 100.800003 6.353337 -0.771435
v 100.800003 6.353337 0.771435
v 100.800003 5.984104 2.269471
v 100.800003 5.267097 3.635614
v 100.800003 4.243985 4.790469
v 100.800003 2.974228 5.666919
v 100.800003 1.531620 6.214027
vn 0.000000 -0.108119 0.994138
vn 0.000000 -0.319302 0.947653
vn 0.000000 -0.108119 0.994138
vn 0.000000 -0.515554 0.856857
vn 0.000000 -0.319302 0.947653
vn 0.000000 -0.687699 0.725995
vn 0.000000 -0.515554 0.856857
vn 0.000000 -0.687699 0.725995
vn 0.000000 -0.827689 0.561187
vn 0.000000 -0.928977 0.370138
vn 0.000000 -0.827689 0.561187
vn 0.000000 -0.928977 0.370138
vn 0.000000 -0.986827 0.161782
vn -0.000000 -0.998533 -0.054139
vn 0.000000 -0.986827 0.161782
vn -0.000000 -0.963550 -0.267528
vn -0.000000 -0.998533 -0.054139
vn -0.000000 -0.963550 -0.267528
vn -0.000000 -0.883512 -0.468408
vn -0.000000 -0.762162 -0.647386
vn 0.000000 -0.883512 -0.468408
vn -0.000000 -0.762162 -0.647386
vn -0.000000 -0.605174 -0.796093
vn -0.000000 -0.605174 -0.796093
vn 0.000000 -0.419889 -0.907575
vn -0.000000 -0.419889 -0.907575
vn -0.000000 -0.214970 -0.976621
vn 0.000000 -0.214970 -0.976621
vn -0.000000 0.000000 -1.000000
vn 0.000000 -0.000000 -1.000000
vn 0.000000 0.214970 -0.976621
vn 0.000000 0.214970 -0.976621
vn 0.000000 0.419889 -0.907575
vn 0.000000 0.419889 -0.907575
vn 0.000000 0.605174 -0.796093
vn 0.000000 0.605174 -0.796093
vn 0.000000 0.762162 -0.647386
vn 0.000000 0.762162 -0.647386
vn 0.000000 0.883512 -0.468408
vn 0.000000 0.883512 -0.468408
vn 0.000000 0.963550 -0.267528
vn 0.000000 0.963550 -0.267528
vn 0.000000 0.998533 -0.054139
vn 0.000000 0.998533 -0.054139
vn 0.000000 0.986827 0.161782
vn 0.000000 0.986827 0.161782
vn 0.000000 0.928977 0.370138
vn 0.000000 0.928977 0.370138
vn 0.000000 0.827689 0.561187
vn 0.000000 0.827689 0.561187
vn 0.000000 0.687699 0.725995
vn 0.000000 0.687699 0.725995
vn 0.000000 0.515554 0.856857
vn 0.000000 0.515554 0.856857
vn 0.000000 0.319302 0.947653
vn 0.000000 0.319302 0.947653
vn 0.000000 0.108119 0.994138
vn 0.000000 0.108119 0.994138
vn 0.111587 -0.082064 0.990360
vn 0.136586 -0.107106 0.984821
vn 0.111928 -0.188652 0.975645
vn 0.329273 -0.077974 0.941010
vn 0.329274 -0.077974 0.941010
vn 0.146113 -0.315875 0.937483
vn 0.111785 -0.268580 0.956749
vn 0.330182 -0.179199 0.926751
vn 0.330182 -0.179198 0.926751
vn 0.530728 -0.069989 0.844648
vn 0.530728 -0.069989 0.844648
vn 0.111819 -0.370447 0.922099
vn 0.329801 -0.255152 0.908917
vn 0.329892 -0.351916 0.875972
vn 0.329801 -0.255153 0.908916
vn 0.531907 -0.160763 0.831403
vn 0.531907 -0.160762 0.831403
vn 0.140054 -0.510473 0.848412
vn 0.111910 -0.445324 0.888348
vn 0.705896 -0.058492 0.705896
vn 0.705896 -0.058492 0.705896
vn 0.329892 -0.351916 0.875972
vn 0.531412 -0.228953 0.815587
vn 0.531412 -0.228952 0.815587
vn 0.706990 -0.134264 0.694362
vn 0.706990 -0.134263 0.694362
vn 0.330134 -0.423014 0.843843
vn 0.330134 -0.423014 0.843843
vn 0.111637 -0.538777 0.835019
vn 0.845903 -0.044043 0.531516
vn 0.845903 -0.044043 0.531516
vn 0.531530 -0.315764 0.785983
vn 0.531529 -0.315764 0.785983
vn 0.706532 -0.191268 0.681344
vn 0.706531 -0.191268 0.681344
vn 0.846645 -0.101027 0.522480
vn 0.846645 -0.101028 0.522480
vn 0.531844 -0.379502 0.757047
vn 0.531845 -0.379503 0.757046
vn 0.329407 -0.511907 0.793374
vn 0.329407 -0.511906 0.793374
vn 0.943530 -0.027357 0.330156
vn 0.993669 -0.009277 0.111960
vn 0.943530 -0.027358 0.330155
vn 0.993669 -0.009277 0.111960
vn 0.706641 -0.263773 0.656568
vn 0.706641 -0.263772 0.656569
vn 0.132341 -0.681651 0.719610
vn 0.111533 -0.668876 0.734959
vn 0.846334 -0.143962 0.512829
vn 0.846334 -0.143962 0.512829
vn 0.943716 -0.089395 0.318448
vn 0.943849 -0.062720 0.324368
vn 0.993306 -0.028358 0.111982
vn 0.993708 -0.021263 0.109964
vn 0.943849 -0.062720 0.324368
vn 0.706933 -0.316960 0.632283
vn 0.706933 -0.316959 0.632284
vn 0.530901 -0.459450 0.712074
vn 0.530901 -0.459450 0.712074
vn 0.706058 -0.383937 0.595042
vn 0.846408 -0.198521 0.494148
vn 0.846408 -0.198521 0.494148
vn 0.329130 -0.635575 0.698368
vn 0.329130 -0.635575 0.698368
vn 0.993692 -0.030310 0.107971
vn 0.943716 -0.089395 0.318448
vn 0.145345 -0.818900 0.555228
vn 0.096843 -0.785431 0.611326
vn 0.846606 -0.238508 0.475785
vn 0.846606 -0.238508 0.475785
vn 0.706058 -0.383937 0.595042
vn 0.993696 -0.041793 0.104029
vn 0.993267 -0.046534 0.106087
vn 0.943748 -0.123268 0.306832
vn 0.943748 -0.123268 0.306832
vn 0.530541 -0.570539 0.626906
vn 0.530541 -0.570539 0.626907
vn 0.111850 -0.855831 0.505018
vn 0.329973 -0.812998 0.479742
vn 0.329274 -0.745134 0.579961
vn 0.329273 -0.745134 0.579961
vn 0.993706 -0.050200 0.100141
vn 0.943833 -0.148076 0.295387
vn 0.943833 -0.148076 0.295387
vn 0.142749 -0.919463 0.366347
vn 0.111889 -0.894608 0.432617
vn 0.846012 -0.289063 0.448002
vn 0.846012 -0.289063 0.448002
vn 0.943577 -0.179540 0.278258
vn 0.705723 -0.476866 0.523979
vn 0.705723 -0.476866 0.523979
vn 0.329973 -0.812998 0.479742
vn 0.530727 -0.668830 0.520571
vn 0.530727 -0.668830 0.520571
vn 0.330077 -0.849805 0.410951
vn 0.330077 -0.849805 0.410951
vn 0.993564 -0.061957 0.094832
vn 0.993675 -0.060881 0.094356
vn 0.943577 -0.179540 0.278258
vn 0.111684 -0.936159 0.333365
vn 0.329532 -0.889434 0.316726
vn 0.845785 -0.359102 0.394580
vn 0.845785 -0.359102 0.394580
vn 0.943479 -0.223078 0.245118
vn 0.531635 -0.729443 0.430438
vn 0.531635 -0.729443 0.430438
vn 0.706739 -0.609302 0.359544
vn 0.705896 -0.558960 0.435056
vn 0.705896 -0.558960 0.435056
vn 0.531770 -0.762421 0.368694
vn 0.531770 -0.762421 0.368694
vn 0.329532 -0.889434 0.316726
vn 0.943479 -0.223078 0.245118
vn 0.993669 -0.076088 0.082654
vn 0.993669 -0.088655 0.069003
vn 0.993786 -0.074919 0.082321
vn 0.706739 -0.609302 0.359544
vn 0.127316 -0.978796 0.160466
vn 0.111476 -0.978285 0.174736
vn 0.845903 -0.420878 0.327583
vn 0.845903 -0.420878 0.327582
vn 0.706864 -0.636799 0.307945
vn 0.706864 -0.636799 0.307945
vn 0.531063 -0.798232 0.284249
vn 0.706208 -0.666978 0.237510
vn 0.531063 -0.798232 0.284249
vn 0.846475 -0.458547 0.270584
vn 0.846475 -0.458547 0.270584
vn 0.328977 -0.929625 0.166044
vn 0.530342 -0.834575 0.149067
vn 0.328977 -0.929625 0.166044
vn 0.993669 -0.088655 0.069003
vn 0.943530 -0.261432 0.203481
vn 0.943776 -0.284712 0.168006
vn 0.943530 -0.261432 0.203481
vn 0.100105 -0.994977 0.000000
vn 0.143807 -0.988154 -0.053576
vn 0.846560 -0.479204 0.231735
vn 0.846559 -0.479203 0.231735
vn 0.706208 -0.666978 0.237510
vn 0.993699 -0.096527 0.056960
vn 0.943776 -0.284712 0.168006
vn 0.993246 -0.102043 0.055223
vn 0.111876 -0.986265 -0.121510
vn 0.530342 -0.834576 0.149067
vn 0.329274 -0.944235 0.000000
vn 0.329274 -0.944235 0.000000
vn 0.943813 -0.297519 0.143875
vn 0.943813 -0.297519 0.143875
vn 0.993704 -0.100866 0.048777
vn 0.846114 -0.502116 0.178803
vn 0.943621 -0.311846 0.111048
vn 0.846114 -0.502116 0.178803
vn 0.144672 -0.953413 -0.264714
vn 0.111863 -0.972864 -0.202541
vn 0.330044 -0.936882 -0.115426
vn 0.330010 -0.924162 -0.192402
vn 0.330045 -0.936882 -0.115427
vn 0.705538 -0.697631 0.124607
vn 0.705538 -0.697631 0.124607
vn 0.530727 -0.847543 0.000000
vn 0.530727 -0.847543 0.000000
vn 0.705896 -0.708315 0.000000
vn 0.993471 -0.107903 0.037043
vn 0.943621 -0.311846 0.111048
vn 0.993680 -0.105742 0.037654
vn 0.330010 -0.924162 -0.192401
vn 0.111727 -0.945277 -0.306543
vn 0.329647 -0.898063 -0.291232
vn 0.531728 -0.840560 -0.103559
vn 0.531729 -0.840559 -0.103560
vn 0.845659 -0.525408 0.093845
vn 0.845659 -0.525408 0.093845
vn 0.705896 -0.708315 0.000000
vn 0.531683 -0.829165 -0.172624
vn 0.531684 -0.829164 -0.172625
vn 0.329646 -0.898063 -0.291233
vn 0.706783 -0.692580 -0.144189
vn 0.706825 -0.702080 -0.086498
vn 0.706825 -0.702080 -0.086498
vn 0.993669 -0.110811 0.018491
vn 0.993899 -0.108577 0.019393
vn 0.943425 -0.326419 0.058303
vn 0.943425 -0.326419 0.058303
vn 0.121507 -0.876966 -0.464938
vn 0.111415 -0.881960 -0.457966
vn 0.845903 -0.533337 0.000000
vn 0.845903 -0.533337 0.000000
vn 0.706784 -0.692580 -0.144188
vn 0.531212 -0.805921 -0.261352
vn 0.531211 -0.805922 -0.261352
vn 0.846533 -0.528341 -0.065093
vn 0.846533 -0.528341 -0.065093
vn 0.328814 -0.838137 -0.435210
vn 0.328814 -0.838137 -0.435210
vn 0.943530 -0.331287 0.000000
vn 0.993669 -0.112343 0.000000
vn 0.943530 -0.331287 0.000000
vn 0.993669 -0.112343 0.000000
vn 0.141499 -0.754493 -0.640873
vn 0.104129 -0.784851 -0.610874
vn 0.846505 -0.521206 -0.108510
vn 0.846505 -0.521206 -0.108510
vn 0.706346 -0.673346 -0.218359
vn 0.706346 -0.673346 -0.218359
vn 0.943801 -0.328033 -0.040415
vn 0.993702 -0.111212 -0.013702
vn 0.943789 -0.323610 -0.067372
vn 0.993242 -0.114481 -0.019103
vn 0.943801 -0.328033 -0.040415
vn 0.111900 -0.707656 -0.697640
vn 0.705342 -0.629110 -0.326671
vn 0.530131 -0.752513 -0.390749
vn 0.530131 -0.752513 -0.390750
vn 0.329274 -0.745134 -0.579961
vn 0.329273 -0.745134 -0.579961
vn 0.530727 -0.668830 -0.520571
vn 0.943789 -0.323609 -0.067372
vn 0.993701 -0.109713 -0.022841
vn 0.846208 -0.506867 -0.164372
vn 0.846208 -0.506867 -0.164371
vn 0.145826 -0.598705 -0.787583
vn 0.111835 -0.647633 -0.753701
vn 0.330107 -0.672209 -0.662695
vn 0.330107 -0.672209 -0.662695
vn 0.705342 -0.629110 -0.326671
vn 0.530727 -0.668830 -0.520571
vn 0.943661 -0.314775 -0.102078
vn 0.943661 -0.314775 -0.102078
vn 0.993685 -0.106731 -0.034612
vn 0.993393 -0.108542 -0.037263
vn 0.111766 -0.562351 -0.819310
vn 0.329933 -0.615228 -0.715988
vn 0.329933 -0.615228 -0.715988
vn 0.531809 -0.603077 -0.594540
vn 0.531809 -0.603076 -0.594541
vn 0.845526 -0.473859 -0.246056
vn 0.845526 -0.473859 -0.246056
vn 0.705896 -0.558960 -0.435056
vn 0.705896 -0.558960 -0.435056
vn 0.329752 -0.534245 -0.778361
vn 0.329752 -0.534245 -0.778361
vn 0.531584 -0.552012 -0.642419
vn 0.531584 -0.552011 -0.642419
vn 0.706900 -0.503698 -0.496569
vn 0.706900 -0.503698 -0.496569
vn 0.943368 -0.294422 -0.152881
vn 0.993669 -0.098803 -0.053470
vn 0.943368 -0.294422 -0.152881
vn 0.994008 -0.097006 -0.050371
vn 0.114911 -0.417108 -0.901563
vn 0.111350 -0.419847 -0.900738
vn 0.845903 -0.420878 -0.327583
vn 0.846584 -0.379034 -0.373669
vn 0.845903 -0.420878 -0.327583
vn 0.531348 -0.479402 -0.698458
vn 0.531348 -0.479402 -0.698458
vn 0.706691 -0.461107 -0.536626
vn 0.706691 -0.461107 -0.536626
vn 0.846584 -0.379034 -0.373669
vn 0.328642 -0.399008 -0.856030
vn 0.328642 -0.399008 -0.856030
vn 0.943530 -0.261432 -0.203481
vn 0.993669 -0.088655 -0.069003
vn 0.943530 -0.261432 -0.203481
vn 0.993669 -0.088655 -0.069003
vn 0.138417 -0.212901 -0.967220
vn 0.108912 -0.244025 -0.963634
vn 0.706473 -0.400508 -0.583515
vn 0.706472 -0.400509 -0.583515
vn 0.846442 -0.347029 -0.403864
vn 0.846443 -0.347028 -0.403864
vn 0.993705 -0.079779 -0.078650
vn 0.943823 -0.235324 -0.231993
vn 0.943762 -0.215475 -0.250765
vn 0.993255 -0.078534 -0.085310
vn 0.943823 -0.235324 -0.231993
vn 0.111920 -0.135555 -0.984428
vn 0.529907 -0.358282 -0.768656
vn 0.529907 -0.358282 -0.768656
vn 0.329274 -0.231796 -0.915341
vn 0.329274 -0.231796 -0.915341
vn 0.846294 -0.301462 -0.439212
vn 0.846294 -0.301463 -0.439212
vn 0.943762 -0.215475 -0.250765
vn 0.993698 -0.073054 -0.085019
vn 0.146210 0.000000 -0.989254
vn 0.111803 -0.053799 -0.992273
vn 0.330160 -0.128762 -0.935102
vn 0.330159 -0.128763 -0.935102
vn 0.705134 -0.299566 -0.642687
vn 0.705133 -0.299566 -0.642687
vn 0.530727 -0.208059 -0.821608
vn 0.530728 -0.208059 -0.821608
vn 0.943698 -0.187203 -0.272742
vn 0.943698 -0.187203 -0.272742
vn 0.993690 -0.063473 -0.092476
vn 0.993331 -0.063063 -0.096525
vn 0.111803 0.053799 -0.992273
vn 0.329847 -0.051109 -0.942650
vn 0.329847 -0.051109 -0.942650
vn 0.531877 -0.115516 -0.838906
vn 0.531877 -0.115516 -0.838906
vn 0.138417 0.212901 -0.967220
vn 0.111920 0.135555 -0.984428
vn 0.845384 -0.225668 -0.484148
vn 0.943307 -0.140229 -0.300846
vn 0.845384 -0.225669 -0.484148
vn 0.706963 -0.096477 -0.700640
vn 0.705896 -0.173881 -0.686641
vn 0.705896 -0.173881 -0.686641
vn 0.329847 0.051109 -0.942650
vn 0.329847 0.051109 -0.942650
vn 0.531473 -0.045860 -0.845833
vn 0.531472 -0.045860 -0.845833
vn 0.706963 -0.096478 -0.700639
vn 0.330160 0.128763 -0.935101
vn 0.330159 0.128762 -0.935102
vn 0.993669 -0.045128 -0.102881
vn 0.994115 -0.045768 -0.098191
vn 0.943307 -0.140229 -0.300846
vn 0.111612 0.241205 -0.964035
vn 0.845903 -0.130927 -0.517017
vn 0.845903 -0.130927 -0.517017
vn 0.531472 0.045860 -0.845833
vn 0.531473 0.045860 -0.845833
vn 0.706587 0.038310 -0.706588
vn 0.706587 -0.038310 -0.706588
vn 0.706588 -0.038310 -0.706588
vn 0.846627 -0.072597 -0.527212
vn 0.846372 -0.028834 -0.531811
vn 0.846627 -0.072597 -0.527212
vn 0.531877 0.115516 -0.838906
vn 0.531877 0.115516 -0.838906
vn 0.329342 0.229180 -0.915975
vn 0.329342 0.229180 -0.915975
vn 0.943842 -0.045070 -0.327310
vn 0.993669 -0.027579 -0.108906
vn 0.993669 -0.027579 -0.108906
vn 0.943530 -0.081326 -0.321150
vn 0.943530 -0.081326 -0.321150
vn 0.706588 0.038310 -0.706588
vn 0.329203 0.376838 -0.865805
vn 0.134560 0.416070 -0.899321
vn 0.111560 0.396592 -0.911191
vn 0.846372 0.028834 -0.531811
vn 0.846372 -0.028834 -0.531811
vn 0.993707 -0.015280 -0.110962
vn 0.943841 -0.045071 -0.327310
vn 0.993284 -0.009554 -0.115304
vn 0.706963 0.096478 -0.700639
vn 0.706963 0.096477 -0.700640
vn 0.530816 0.205703 -0.822144
vn 0.530816 0.205703 -0.822144
vn 0.846372 0.028834 -0.531811
vn 0.530636 0.338263 -0.777177
vn 0.329203 0.376838 -0.865805
vn 0.943732 -0.017905 -0.330226
vn 0.943732 -0.017904 -0.330226
vn 0.993694 -0.006070 -0.111962
vn 0.943732 0.017905 -0.330226
vn 0.095499 0.544448 -0.833340
vn 0.145826 0.598705 -0.787583
vn 0.846627 0.072597 -0.527212
vn 0.846627 0.072597 -0.527212
vn 0.705978 0.171903 -0.687055
vn 0.705978 0.171903 -0.687054
vn 0.993694 0.006070 -0.111962
vn 0.943732 0.017904 -0.330226
vn 0.993284 0.009554 -0.115304
vn 0.530636 0.338263 -0.777177
vn 0.111835 0.647633 -0.753701
vn 0.329273 0.516447 -0.790482
vn 0.329273 0.516447 -0.790482
vn 0.530728 0.463562 -0.709534
vn 0.329933 0.615228 -0.715988
vn 0.943842 0.045070 -0.327310
vn 0.943841 0.045071 -0.327310
vn 0.993707 0.015280 -0.110962
vn 0.141498 0.754493 -0.640873
vn 0.111900 0.707656 -0.697640
vn 0.845958 0.129431 -0.517303
vn 0.845959 0.129431 -0.517303
vn 0.705811 0.282710 -0.649543
vn 0.705811 0.282710 -0.649543
vn 0.329933 0.615228 -0.715988
vn 0.530727 0.463562 -0.709534
vn 0.330107 0.672209 -0.662695
vn 0.330107 0.672209 -0.662695
vn 0.943554 0.080394 -0.321314
vn 0.943554 0.080394 -0.321314
vn 0.993615 0.027697 -0.109373
vn 0.993672 0.027262 -0.108959
vn 0.111661 0.778957 -0.617056
vn 0.329471 0.740093 -0.586269
vn 0.845845 0.212883 -0.489109
vn 0.845845 0.212882 -0.489109
vn 0.531584 0.552011 -0.642419
vn 0.531584 0.552012 -0.642419
vn 0.705896 0.387412 -0.592978
vn 0.705896 0.387412 -0.592978
vn 0.706691 0.461107 -0.536626
vn 0.531809 0.603076 -0.594541
vn 0.531809 0.603076 -0.594540
vn 0.530983 0.664228 -0.526173
vn 0.329471 0.740093 -0.586269
vn 0.943505 0.132239 -0.303827
vn 0.993669 0.045128 -0.102881
vn 0.993728 0.044627 -0.102532
vn 0.943505 0.132239 -0.303827
vn 0.706691 0.461107 -0.536626
vn 0.129926 0.876023 -0.464438
vn 0.111505 0.869912 -0.480437
vn 0.845903 0.291708 -0.446492
vn 0.845903 0.291708 -0.446492
vn 0.706900 0.503698 -0.496569
vn 0.706900 0.503698 -0.496569
vn 0.530984 0.664228 -0.526173
vn 0.706134 0.555033 -0.439674
vn 0.846443 0.347028 -0.403864
vn 0.846442 0.347028 -0.403864
vn 0.329055 0.826622 -0.456529
vn 0.329055 0.826622 -0.456529
vn 0.993669 0.061446 -0.094050
vn 0.943530 0.181197 -0.277342
vn 0.993669 0.061446 -0.094050
vn 0.943530 0.181197 -0.277342
vn 0.098378 0.941229 -0.323124
vn 0.144672 0.953413 -0.264714
vn 0.846584 0.379034 -0.373669
vn 0.846584 0.379034 -0.373669
vn 0.706134 0.555033 -0.439673
vn 0.993698 0.073054 -0.085019
vn 0.943762 0.215475 -0.250765
vn 0.993255 0.078534 -0.085310
vn 0.943762 0.215475 -0.250765
vn 0.111863 0.972864 -0.202541
vn 0.530443 0.742070 -0.409832
vn 0.530443 0.742070 -0.409832
vn 0.329274 0.893073 -0.306593
vn 0.329273 0.893073 -0.306593
vn 0.943823 0.235324 -0.231993
vn 0.943823 0.235324 -0.231993
vn 0.993705 0.079779 -0.078650
vn 0.846064 0.417860 -0.331011
vn 0.846064 0.417860 -0.331011
vn 0.143807 0.988154 -0.053576
vn 0.111876 0.986265 -0.121510
vn 0.330010 0.924162 -0.192402
vn 0.330010 0.924162 -0.192401
vn 0.330044 0.936882 -0.115426
vn 0.705632 0.620269 -0.342563
vn 0.705632 0.620269 -0.342563
vn 0.530728 0.801620 -0.275196
vn 0.705896 0.669937 -0.229989
vn 0.530727 0.801621 -0.275197
vn 0.943600 0.259527 -0.205586
vn 0.943600 0.259527 -0.205586
vn 0.993678 0.088003 -0.069712
vn 0.993515 0.089723 -0.069834
vn 0.330045 0.936882 -0.115427
vn 0.111706 0.993640 -0.014164
vn 0.531683 0.829165 -0.172625
vn 0.531684 0.829164 -0.172624
vn 0.845723 0.467117 -0.257980
vn 0.845723 0.467117 -0.257980
vn 0.705896 0.669937 -0.229990
vn 0.531728 0.840560 -0.103559
vn 0.531728 0.840560 -0.103560
vn 0.329590 0.944028 -0.013457
vn 0.329590 0.944028 -0.013457
vn 0.706783 0.692580 -0.144189
vn 0.706825 0.702080 -0.086498
vn 0.706784 0.692580 -0.144188
vn 0.943453 0.290192 -0.160268
vn 0.993669 0.098803 -0.053470
vn 0.943453 0.290192 -0.160267
vn 0.993843 0.096990 -0.053566
vn 0.124509 0.979147 0.160523
vn 0.111445 0.982449 0.149581
vn 0.943530 0.313337 -0.107569
vn 0.845903 0.504440 -0.173174
vn 0.845902 0.504440 -0.173175
vn 0.846505 0.521206 -0.108510
vn 0.706825 0.702080 -0.086498
vn 0.531139 0.847199 -0.012077
vn 0.531138 0.847199 -0.012077
vn 0.846505 0.521206 -0.108510
vn 0.328897 0.933607 0.142145
vn 0.328897 0.933607 0.142145
vn 0.943530 0.313337 -0.107569
vn 0.993669 0.106256 -0.036478
vn 0.993669 0.106256 -0.036478
vn 0.102022 0.940882 0.323005
vn 0.142749 0.919463 0.366347
vn 0.846533 0.528341 -0.065093
vn 0.846533 0.528341 -0.065093
vn 0.706278 0.707863 -0.010091
vn 0.706278 0.707862 -0.010091
vn 0.943801 0.328033 -0.040415
vn 0.993701 0.109713 -0.022841
vn 0.993242 0.114481 -0.019103
vn 0.943789 0.323610 -0.067372
vn 0.943789 0.323609 -0.067372
vn 0.111889 0.894608 0.432617
vn 0.705442 0.700693 0.106683
vn 0.530238 0.838190 0.127617
vn 0.530238 0.838189 0.127617
vn 0.329274 0.893073 0.306593
vn 0.329273 0.893073 0.306593
vn 0.530727 0.801621 0.275197
vn 0.993702 0.111212 -0.013702
vn 0.943801 0.328033 -0.040415
vn 0.846162 0.532872 -0.007596
vn 0.846162 0.532872 -0.007596
vn 0.145345 0.818900 0.555228
vn 0.111850 0.855831 0.505018
vn 0.330077 0.849805 0.410951
vn 0.330077 0.849805 0.410951
vn 0.845593 0.527746 0.080351
vn 0.705442 0.700693 0.106683
vn 0.530728 0.801620 0.275196
vn 0.705896 0.669937 0.229989
vn 0.993683 0.112212 -0.001600
vn 0.943642 0.330935 -0.004717
vn 0.943642 0.330935 -0.004718
vn 0.993430 0.114439 0.000000
vn 0.111747 0.796221 0.594596
vn 0.329973 0.812998 0.479742
vn 0.329700 0.756439 0.564888
vn 0.329973 0.812998 0.479742
vn 0.531770 0.762421 0.368694
vn 0.531770 0.762421 0.368694
vn 0.531635 0.729443 0.430438
vn 0.845593 0.527746 0.080351
vn 0.705896 0.669937 0.229990
vn 0.329701 0.756439 0.564888
vn 0.531635 0.729443 0.430438
vn 0.706864 0.636799 0.307945
vn 0.706864 0.636799 0.307945
vn 0.943397 0.327887 0.049922
vn 0.943397 0.327887 0.049922
vn 0.993954 0.108546 0.016526
vn 0.993669 0.110811 0.018491
vn 0.993669 0.106256 0.036478
vn 0.118307 0.682870 0.720897
vn 0.111383 0.687523 0.717570
vn 0.943530 0.313337 0.107569
vn 0.845902 0.504440 0.173174
vn 0.845903 0.504440 0.173174
vn 0.531281 0.678807 0.506914
vn 0.531281 0.678807 0.506914
vn 0.706739 0.609302 0.359544
vn 0.706739 0.609302 0.359544
vn 0.846560 0.479203 0.231735
vn 0.846559 0.479204 0.231735
vn 0.328730 0.653379 0.681933
vn 0.328729 0.653379 0.681933
vn 0.943530 0.313337 0.107569
vn 0.993669 0.106256 0.036478
vn 0.140054 0.510473 0.848412
vn 0.106426 0.543842 0.832412
vn 0.706411 0.567119 0.423509
vn 0.706411 0.567119 0.423509
vn 0.846475 0.458547 0.270584
vn 0.846475 0.458546 0.270584
vn 0.943813 0.297519 0.143875
vn 0.943776 0.284712 0.168006
vn 0.943813 0.297519 0.143875
vn 0.993704 0.100866 0.048777
vn 0.993246 0.102043 0.055223
vn 0.111910 0.445324 0.888348
vn 0.530021 0.586659 0.612298
vn 0.530020 0.586659 0.612298
vn 0.329273 0.516447 0.790482
vn 0.329273 0.516447 0.790482
vn 0.846252 0.426887 0.318787
vn 0.846252 0.426887 0.318787
vn 0.943776 0.284712 0.168006
vn 0.993699 0.096527 0.056960
vn 0.111819 0.370447 0.922099
vn 0.146113 0.315875 0.937483
vn 0.329892 0.351916 0.875972
vn 0.330134 0.423014 0.843843
vn 0.330134 0.423014 0.843843
vn 0.705239 0.490485 0.511920
vn 0.845456 0.369467 0.385614
vn 0.705239 0.490485 0.511920
vn 0.530727 0.463562 0.709534
vn 0.530728 0.463562 0.709534
vn 0.943680 0.265097 0.197967
vn 0.943680 0.265097 0.197967
vn 0.993688 0.089885 0.067124
vn 0.993360 0.090789 0.070664
vn 0.111785 0.268580 0.956749
vn 0.329892 0.351916 0.875972
vn 0.531845 0.379502 0.757047
vn 0.531844 0.379503 0.757046
vn 0.111928 0.188652 0.975645
vn 0.136586 0.107106 0.984821
vn 0.111587 0.082064 0.990360
vn 0.845456 0.369467 0.385614
vn 0.943338 0.229572 0.239605
vn 0.705896 0.387412 0.592978
vn 0.705896 0.387412 0.592978
vn 0.329801 0.255153 0.908916
vn 0.329801 0.255152 0.908916
vn 0.531530 0.315764 0.785983
vn 0.531529 0.315764 0.785983
vn 0.531412 0.228952 0.815587
vn 0.706933 0.316960 0.632283
vn 0.706933 0.316959 0.632283
vn 0.329273 0.077974 0.941010
vn 0.530728 0.069989 0.844648
vn 0.330182 0.179198 0.926751
vn 0.329274 0.077974 0.941010
vn 0.330182 0.179199 0.926751
vn 0.994062 0.075282 0.078572
vn 0.943338 0.229572 0.239605
vn 0.993669 0.076088 0.082654
vn 0.845903 0.291708 0.446492
vn 0.845902 0.291708 0.446492
vn 0.531412 0.228953 0.815587
vn 0.706641 0.263772 0.656569
vn 0.706641 0.263773 0.656569
vn 0.706531 0.191268 0.681344
vn 0.846606 0.238508 0.475785
vn 0.846606 0.238508 0.475785
vn 0.530728 0.069989 0.844648
vn 0.531907 0.160763 0.831403
vn 0.531907 0.160762 0.831403
vn 0.943530 0.181197 0.277342
vn 0.993669 0.061446 0.094050
vn 0.943530 0.181197 0.277342
vn 0.993669 0.061446 0.094050
vn 0.706532 0.191268 0.681344
vn 0.846408 0.198520 0.494148
vn 0.846408 0.198521 0.494148
vn 0.943833 0.148075 0.295387
vn 0.993267 0.046534 0.106087
vn 0.993706 0.050200 0.100141
vn 0.943833 0.148076 0.295387
vn 0.943748 0.123268 0.306832
vn 0.706990 0.134264 0.694362
vn 0.706990 0.134263 0.694362
vn 0.705896 0.058492 0.705896
vn 0.845903 0.044043 0.531516
vn 0.705896 0.058492 0.705896
vn 0.846334 0.143962 0.512829
vn 0.846334 0.143962 0.512829
vn 0.943748 0.123268 0.306832
vn 0.943716 0.089395 0.318448
vn 0.993696 0.041793 0.104029
vn 0.845903 0.044043 0.531516
vn 0.846645 0.101028 0.522480
vn 0.846645 0.101027 0.522480
vn 0.943716 0.089395 0.318448
vn 0.993692 0.030310 0.107971
vn 0.993306 0.028358 0.111982
vn 0.943530 0.027358 0.330156
vn 0.943849 0.062720 0.324368
vn 0.993708 0.021263 0.109964
vn 0.943530 0.027357 0.330156
vn 0.993669 0.009277 0.111960
vn 0.993669 0.009277 0.111960
vn 0.943849 0.062720 0.324368
vn 1.000000 0.000000 0.000000
vn 1.000000 0.000000 0.000000
vn 1.000000 -0.000000 0.000000
vn 1.000000 0.000000 0.000000
vn 1.000000 0.000000 0.000000
vn 1.000000 -0.000000 0.000000
vn 1.000000 -0.000000 0.000000
vn 1.000000 0.000000 0.000000
vn 1.000000 0.000000 0.000000
vn 1.000000 -0.000000 0.000000
vn 1.000000 0.000000 0.000000
vn 1.000000 0.000000 0.000000
vn 1.000000 0.000000 0.000000
vn 1.000000 -0.000000 0.000000
vn 1.000000 0.000000 0.000000
vn 1.000000 0.000000 0.000000
vn 1.000000 0.000000 0.000000
vn 1.000000 0.000000 0.000000
vn 1.000000 0.000000 0.000000
vn 1.000000 0.000000 0.000000
vn 1.000000 0.000000 0.000000
vn 1.000000 -0.000000 0.000000
vn 1.000000 0.000000 0.000000
vn 1.000000 0.000000 0.000000
vn 1.000000 0.000000 0.000000
vn 1.000000 -0.000000 0.000000
vn 1.000000 -0.000000 0.000000
vn 1.000000 0.000000 0.000000
vn 1.000000 0.000000 0.000000
vn 1.000000 -0.000000 0.000000
vn 1.000000 -0.000000 0.000000
vn 1.000000 0.000000 0.000000
vn 1.000000 0.000000 0.000000
vn 1.000000 -0.000000 0.000000
vn 1.000000 -0.000000 0.000000
vn 1.000000 0.000000 0.000000
vn 1.000000 0.000000 0.000000
vn 1.000000 -0.000000 0.000000
vn 1.000000 -0.000000 0.000000
vn 1.000000 0.000000 0.000000
vn 1.000000 -0.000000 0.000000
vn 1.000000 0.000000 0.000000
vn 1.000000 0.000000 0.000000
vn 1.000000 -0.000000 0.000000
vn 1.000000 -0.000000 0.000000
vn 1.000000 0.000000 0.000000
vn 1.000000 0.000000 0.000000
vn 1.000000 -0.000000 0.000000
vn 1.000000 -0.000000 0.000000
vn 1.000000 0.000000 0.000000
vn 1.000000 0.000000 0.000000
vn 1.000000 -0.000000 0.000000
vn 1.000000 0.000000 0.000000
vn 1.000000 0.000000 0.000000
vn 1.000000 -0.000000 0.000000
vn 1.000000 -0.000000 0.000000
vn 1.000000 -0.000000 0.000000
vn 1.000000 0.000000 0.000000
vn 1.000000 -0.000000 0.000000
vn 1.000000 0.000000 0.000000
vn 1.000000 -0.000000 0.000000
vn 1.000000 0.000000 0.000000
vn 1.000000 -0.000000 0.000000
vn 1.000000 0.000000 0.000000
vn 1.000000 0.000000 0.000000
vn 1.000000 -0.000000 0.000000
vn 1.000000 -0.000000 0.000000
vn 1.000000 0.000000 0.000000
vn 1.000000 0.000000 0.000000
vn 1.000000 -0.000000 0.000000
vn 1.000000 0.000000 0.000000
vn 1.000000 -0.000000 0.000000
vn 1.000000 0.000000 0.000000
vn 1.000000 -0.000000 0.000000
vn 1.000000 0.000000 0.000000
vn 1.000000 0.000000 0.000000
vn 1.000000 0.000000 0.000000
vn 1.000000 0.000000 0.000000
vn 1.000000 0.000000 0.000000
vn 1.000000 0.000000 0.000000
vn 1.000000 -0.000000 0.000000
vn 1.000000 0.000000 0.000000
vn 1.000000 0.000000 0.000000
vn 1.000000 0.000000 0.000000
vn 1.000000 0.000000 0.000000
vn 1.000000 0.000000 0.000000
vn 1.000000 0.000000 0.000000
vn 1.000000 0.000000 0.000000
vn 1.000000 0.000000 0.000000
vn 1.000000 0.000000 0.000000
vn 1.000000 0.000000 0.000000
vn 1.000000 0.000000 0.000000
vn 1.000000 0.000000 0.000000
vn 1.000000 -0.000000 0.000000
vn 1.000000 0.000000 0.000000
vn 1.000000 -0.000000 0.000000
vn 1.000000 0.000000 0.000000
vn 1.000000 0.000000 0.000000
vn 1.000000 0.000000 0.000000
vn 1.000000 0.000000 0.000000
vn 1.000000 0.000000 0.000000
vn 0.000000 -0.120537 0.992709
vn 0.000000 -0.120537 0.992709
vn 0.000000 -0.354605 0.935016
vn 0.000000 -0.354605 0.935016
vn 0.000000 -0.568065 0.822984
vn 0.000000 -0.748511 0.663123
vn 0.000000 -0.568065 0.822984
vn 0.000000 -0.748511 0.663123
vn 0.000000 -0.885456 0.464723
vn 0.000000 -0.885456 0.464723
vn 0.000000 -0.970942 0.239316
vn 0.000000 -0.970942 0.239316
vn 0.000000 -1.000000 0.000000
vn 0.000000 -1.000000 0.000000
vn -0.000000 -0.970942 -0.239316
vn 0.000000 -0.970942 -0.239316
vn -0.000000 -0.885456 -0.464723
vn 0.000000 -0.885456 -0.464723
vn -0.000000 -0.748511 -0.663123
vn -0.000000 -0.568065 -0.822984
vn 0.000000 -0.748511 -0.663123
vn -0.000000 -0.568065 -0.822984
vn -0.000000 -0.354605 -0.935016
vn -0.000000 -0.354605 -0.935016
vn 0.000000 -0.120537 -0.992709
vn -0.000000 -0.120537 -0.992709
vn 0.000000 0.120537 -0.992709
vn 0.000000 0.120537 -0.992709
vn 0.000000 0.354605 -0.935016
vn 0.000000 0.354605 -0.935016
vn 0.000000 0.568065 -0.822984
vn 0.000000 0.568065 -0.822984
vn 0.000000 0.748511 -0.663123
vn 0.000000 0.748511 -0.663123
vn 0.000000 0.885456 -0.464723
vn 0.000000 0.885456 -0.464723
vn 0.000000 0.970942 -0.239316
vn 0.000000 0.970942 -0.239316
vn 0.000000 1.000000 0.000000
vn 0.000000 1.000000 0.000000
vn 0.000000 0.970942 0.239316
vn 0.000000 0.885456 0.464723
vn 0.000000 0.970942 0.239316
vn 0.000000 0.885456 0.464723
vn 0.000000 0.748511 0.663123
vn 0.000000 0.748511 0.663123
vn 0.000000 0.568065 0.822984
vn 0.000000 0.354605 0.935016
vn 0.000000 0.568065 0.822984
vn 0.000000 0.354605 0.935016
vn 0.000000 0.120537 0.992709
vn 0.000000 0.120537 0.992709
vn 0.000000 0.000000 1.000000
vn 0.000000 -0.000000 1.000000
vn 0.000000 0.707107 0.707107
vn 0.000000 0.707107 0.707107
vn 0.000000 -0.707107 0.707107
vn 0.000000 -0.707107 0.707107
vn 0.000000 1.000000 0.000000
vn 0.000000 1.000000 0.000000
vn 0.000000 -1.000000 0.000000
vn 0.000000 -1.000000 0.000000
vn 0.000000 0.707107 -0.707107
vn 0.000000 0.707107 -0.707107
vn 0.000000 -0.707107 -0.707107
vn -0.000000 -0.707107 -0.707107
vn 0.000000 0.000000 -1.000000
vn -0.000000 -0.000000 -1.000000
vn 1.000000 0.000000 0.000000
vn 1.000000 0.000000 0.000000
vn 1.000000 0.000000 0.000000
vn 1.000000 -0.000000 0.000000
vn 1.000000 0.000000 0.000000
vn 1.000000 0.000000 0.000000
vn 1.000000 -0.000000 0.000000
vn 1.000000 0.000000 0.000000
vn 1.000000 0.000000 0.000000
vn 1.000000 0.000000 0.000000
vn 1.000000 0.000000 0.000000
vn 1.000000 -0.000000 0.000000
vn 1.000000 -0.000000 0.000000
vn 1.000000 0.000000 0.000000
vn 1.000000 -0.000000 0.000000
vn 1.000000 0.000000 0.000000
vn 1.000000 -0.000000 0.000000
vn 1.000000 0.000000 0.000000
vn 1.000000 0.000000 0.000000
vn 1.000000 0.000000 0.000000
vn 1.000000 0.000000 0.000000
vn 1.000000 -0.000000 0.000000
vn 1.000000 0.000000 0.000000
vn 1.000000 0.000000 0.000000
vn 1.000000 0.000000 0.000000
vn 1.000000 0.000000 0.000000
vn 1.000000 0.000000 0.000000
vn 1.000000 -0.000000 0.000000
vn 1.000000 0.000000 0.000000
vn 1.000000 0.000000 0.000000
vn 1.000000 0.000000 0.000000
vn 1.000000 -0.000000 0.000000
vn 1.000000 0.000000 0.000000
vn 1.000000 0.000000 0.000000
vn 1.000000 0.000000 0.000000
vn 1.000000 -0.000000 0.000000
vn 1.000000 0.000000 0.000000
vn 1.000000 0.000000 0.000000
vn 1.000000 0.000000 0.000000
vn 1.000000 0.000000 0.000000
vn 1.000000 0.000000 0.000000
vn 1.000000 -0.000000 0.000000
vn 1.000000 0.000000 0.000000
vn 1.000000 0.000000 0.000000
vn 1.000000 -0.000000 0.000000
vn 1.000000 0.000000 0.000000
vn 1.000000 0.000000 0.000000
vn 1.000000 0.000000 0.000000
vn 1.000000 -0.000000 0.000000
vn 1.000000 0.000000 0.000000
vn 1.000000 0.000000 0.000000
vn 1.000000 0.000000 0.000000
vn -1.000000 0.000000 0.000000
vn -1.000000 0.000000 0.000000
vn -1.000000 -0.000000 0.000000
vn -1.000000 0.000000 0.000000
vn -1.000000 0.000000 0.000000
vn -1.000000 0.000000 0.000000
vn 0.000000 -0.120537 0.992709
vn 0.000000 -0.354605 0.935016
vn 0.000000 -0.120537 0.992709
vn 0.000000 -0.354605 0.935016
vn 0.000000 -0.568065 0.822984
vn 0.000000 -0.748511 0.663123
vn 0.000000 -0.568065 0.822984
vn 0.000000 -0.748511 0.663123
vn 0.000000 -0.885456 0.464723
vn 0.000000 -0.885456 0.464723
vn 0.000000 -0.970942 0.239316
vn 0.000000 -0.970942 0.239316
vn 0.000000 -1.000000 0.000000
vn -0.000000 -0.970942 -0.239316
vn 0.000000 -1.000000 0.000000
vn -0.000000 -0.970942 -0.239316
vn -0.000000 -0.885456 -0.464723
vn 0.000000 -0.885456 -0.464723
vn -0.000000 -0.748511 -0.663123
vn 0.000000 -0.748511 -0.663123
vn 0.000000 -0.568065 -0.822984
vn -0.000000 -0.568065 -0.822984
vn 0.000000 -0.354605 -0.935016
vn -0.000000 -0.354605 -0.935016
vn -0.000000 -0.120537 -0.992709
vn -0.000000 -0.120537 -0.992709
vn 0.000000 0.120537 -0.992709
vn 0.000000 0.120537 -0.992709
vn 0.000000 0.354605 -0.935016
vn 0.000000 0.354605 -0.935016
vn 0.000000 0.568065 -0.822984
vn 0.000000 0.748511 -0.663123
vn 0.000000 0.568065 -0.822984
vn 0.000000 0.748511 -0.663123
vn 0.000000 0.885456 -0.464723
vn 0.000000 0.885456 -0.464723
vn 0.000000 0.970942 -0.239316
vn 0.000000 1.000000 0.000000
vn 0.000000 0.970942 -0.239316
vn 0.000000 0.970942 0.239316
vn 0.000000 1.000000 0.000000
vn 0.000000 0.885456 0.464723
vn 0.000000 0.970942 0.239316
vn 0.000000 0.885456 0.464723
vn 0.000000 0.748511 0.663123
vn 0.000000 0.568065 0.822984
vn 0.000000 0.748511 0.663123
vn 0.000000 0.568065 0.822984
vn 0.000000 0.354605 0.935016
vn 0.000000 0.120537 0.992709
vn 0.000000 0.354605 0.935016
vn 0.000000 0.120537 0.992709
vn 1.000000 0.000000 0.000000
vn 1.000000 0.000000 0.000000
vn 1.000000 0.000000 0.000000
vn 1.000000 0.000000 0.000000
vn 1.000000 0.000000 0.000000
vn 1.000000 -0.000000 0.000000
vn 1.000000 0.000000 0.000000
vn 1.000000 0.000000 0.000000
vn 1.000000 0.000000 0.000000
vn 1.000000 0.000000 0.000000
vn 1.000000 0.000000 0.000000
vn 1.000000 0.000000 0.000000
vn 1.000000 0.000000 0.000000
vn 1.000000 -0.000000 0.000000
vn 1.000000 0.000000 0.000000
vn 1.000000 0.000000 0.000000
vn 1.000000 -0.000000 0.000000
vn 1.000000 0.000000 0.000000
vn 1.000000 0.000000 0.000000
vn 1.000000 0.000000 0.000000
vn 1.000000 0.000000 0.000000
vn 1.000000 -0.000000 0.000000
vn 1.000000 0.000000 0.000000
vn 1.000000 0.000000 0.000000
f 1//1 2//1 3//1
f 4//2 3//2 5//2
f 4//3 1//3 3//3
f 6//4 5//4 7//4
f 6//5 4//5 5//5
f 8//6 7//6 9//6
f 8//7 6//7 7//7
f 10//8 8//8 9//8
f 11//9 9//9 12//9
f 11//10 12//10 13//10
f 11//11 10//11 9//11
f 14//12 11//12 13//12
f 15//13 13//13 16//13
f 15//14 16//14 17//14
f 15//15 14//15 13//15
f 18//16 17//16 19//16
f 18//17 15//17 17//17
f 20//18 18//18 19//18
f 21//19 19//19 22//19
f 21//20 22//20 23//20
f 21//21 20//21 19//21
f 24//22 21//22 23//22
f 24//23 23//23 25//23
f 26//24 24//24 25//24
f 27//25 26//25 25//25
f 27//26 25//26 28//26
f 29//27 28//27 30//27
f 29//28 27//28 28//28
f 31//29 30//29 32//29
f 31//30 29//30 30//30
f 33//31 32//31 34//31
f 33//32 31//32 32//32
f 35//33 34//33 36//33
f 35//34 33//34 34//34
f 37//35 36//35 38//35
f 37//36 35//36 36//36
f 39//37 38//37 40//37
f 39//38 37//38 38//38
f 41//39 40//39 42//39
f 41//40 39//40 40//40
f 43//41 42//41 44//41
f 43//42 41//42 42//42
f 45//43 44//43 46//43
f 45//44 43//44 44//44
f 47//45 46//45 48//45
f 47//46 45//46 46//46
f 49//47 48//47 50//47
f 49//48 47//48 48//48
f 51//49 50//49 52//49
f 51//50 49//50 50//50
f 53//51 52//51 54//51
f 53//52 51//52 52//52
f 55//53 54//53 56//53
f 55//54 53//54 54//54
f 57//55 56//55 58//55
f 57//56 55//56 56//56
f 1//57 58//57 2//57
f 1//58 57//58 58//58
f 59//59 60//59 2//59
f 2//60 60//60 3//60
f 60//61 61//61 3//61
f 62//62 63//62 59//62
f 59//63 63//63 60//63
f 3//64 64//64 5//64
f 61//65 64//65 3//65
f 63//66 65//66 60//66
f 60//67 65//67 61//67
f 66//68 67//68 62//68
f 62//69 67//69 63//69
f 64//70 68//70 5//70
f 65//71 69//71 61//71
f 64//72 69//72 68//72
f 61//73 69//73 64//73
f 63//74 70//74 65//74
f 67//75 70//75 63//75
f 5//76 71//76 7//76
f 68//77 71//77 5//77
f 66//78 72//78 67//78
f 73//79 72//79 66//79
f 69//80 74//80 68//80
f 70//81 75//81 65//81
f 65//82 75//82 69//82
f 67//83 76//83 70//83
f 72//84 76//84 67//84
f 68//85 77//85 71//85
f 74//86 77//86 68//86
f 71//87 78//87 7//87
f 79//88 80//88 73//88
f 73//89 80//89 72//89
f 75//90 81//90 69//90
f 69//91 81//91 74//91
f 76//92 82//92 70//92
f 70//93 82//93 75//93
f 72//94 83//94 76//94
f 80//95 83//95 72//95
f 81//96 84//96 74//96
f 74//97 84//97 77//97
f 77//98 85//98 71//98
f 71//99 85//99 78//99
f 86//100 87//100 79//100
f 88//101 87//101 86//101
f 79//102 87//102 80//102
f 89//103 87//103 88//103
f 75//104 90//104 81//104
f 82//105 90//105 75//105
f 7//106 91//106 9//106
f 78//107 91//107 7//107
f 76//108 92//108 82//108
f 83//109 92//109 76//109
f 83//110 93//110 92//110
f 87//111 93//111 80//111
f 94//112 93//112 89//112
f 89//113 93//113 87//113
f 80//114 93//114 83//114
f 90//115 95//115 81//115
f 81//116 95//116 84//116
f 77//117 96//117 85//117
f 84//118 96//118 77//118
f 95//119 96//119 84//119
f 82//120 97//120 90//120
f 92//121 97//121 82//121
f 85//122 98//122 78//122
f 78//123 98//123 91//123
f 94//124 99//124 93//124
f 93//125 99//125 92//125
f 9//126 100//126 12//126
f 91//127 100//127 9//127
f 97//128 101//128 90//128
f 90//129 101//129 95//129
f 95//130 102//130 96//130
f 94//131 103//131 99//131
f 104//132 103//132 94//132
f 92//133 103//133 97//133
f 99//134 103//134 92//134
f 96//135 105//135 85//135
f 85//136 105//136 98//136
f 100//137 106//137 12//137
f 100//138 107//138 106//138
f 98//139 107//139 91//139
f 91//140 107//140 100//140
f 104//141 108//141 103//141
f 103//142 108//142 97//142
f 97//143 108//143 101//143
f 12//144 109//144 13//144
f 106//145 109//145 12//145
f 95//146 110//146 102//146
f 101//147 110//147 95//147
f 108//148 110//148 101//148
f 102//149 111//149 96//149
f 96//150 111//150 105//150
f 107//151 112//151 106//151
f 105//152 113//152 98//152
f 98//153 113//153 107//153
f 106//154 114//154 109//154
f 112//155 114//155 106//155
f 115//156 116//156 104//156
f 104//157 116//157 108//157
f 108//158 116//158 110//158
f 109//159 117//159 13//159
f 114//160 117//160 109//160
f 110//161 118//161 102//161
f 102//162 118//162 111//162
f 116//163 118//163 110//163
f 107//164 119//164 112//164
f 113//165 119//165 107//165
f 113//166 120//166 119//166
f 105//167 120//167 113//167
f 111//168 120//168 105//168
f 119//169 121//169 112//169
f 112//170 121//170 114//170
f 114//171 122//171 117//171
f 116//172 123//172 118//172
f 124//173 123//173 115//173
f 125//174 123//174 124//174
f 115//175 123//175 116//175
f 120//176 126//176 119//176
f 13//177 127//177 16//177
f 117//178 127//178 13//178
f 118//179 128//179 111//179
f 111//180 128//180 120//180
f 126//181 129//181 119//181
f 119//182 129//182 121//182
f 121//183 130//183 114//183
f 129//184 130//184 121//184
f 114//185 130//185 122//185
f 120//186 131//186 126//186
f 128//187 131//187 120//187
f 117//188 132//188 127//188
f 130//189 132//189 122//189
f 122//190 132//190 117//190
f 125//191 133//191 123//191
f 118//192 133//192 128//192
f 128//193 133//193 131//193
f 123//194 133//194 118//194
f 127//195 134//195 16//195
f 16//196 134//196 17//196
f 126//197 135//197 129//197
f 131//198 135//198 126//198
f 129//199 136//199 130//199
f 125//200 137//200 133//200
f 133//201 137//201 131//201
f 138//202 137//202 125//202
f 134//203 139//203 17//203
f 130//204 140//204 132//204
f 127//205 141//205 134//205
f 132//206 141//206 127//206
f 131//207 142//207 135//207
f 137//208 142//208 131//208
f 138//209 142//209 137//209
f 129//210 143//210 136//210
f 142//211 143//211 135//211
f 135//212 143//212 129//212
f 17//213 144//213 19//213
f 139//214 144//214 17//214
f 134//215 145//215 139//215
f 139//216 145//216 144//216
f 141//217 145//217 134//217
f 130//218 146//218 140//218
f 136//219 146//219 130//219
f 140//220 147//220 132//220
f 132//221 147//221 141//221
f 146//222 147//222 140//222
f 148//223 149//223 138//223
f 142//224 149//224 143//224
f 138//225 149//225 142//225
f 145//226 150//226 144//226
f 144//227 151//227 19//227
f 150//228 151//228 144//228
f 147//229 152//229 141//229
f 141//230 152//230 145//230
f 143//231 153//231 136//231
f 136//232 153//232 146//232
f 146//233 154//233 147//233
f 145//234 155//234 150//234
f 152//235 155//235 145//235
f 150//236 156//236 151//236
f 152//237 157//237 155//237
f 147//238 157//238 152//238
f 154//239 157//239 147//239
f 158//240 159//240 148//240
f 148//241 159//241 149//241
f 149//242 159//242 143//242
f 143//243 159//243 153//243
f 19//244 160//244 22//244
f 151//245 160//245 19//245
f 153//246 161//246 146//246
f 146//247 161//247 154//247
f 157//248 162//248 155//248
f 150//249 163//249 156//249
f 155//250 163//250 150//250
f 154//251 164//251 157//251
f 161//252 164//252 154//252
f 156//253 165//253 151//253
f 151//254 165//254 160//254
f 159//255 166//255 153//255
f 167//256 166//256 158//256
f 153//257 166//257 161//257
f 158//258 166//258 159//258
f 22//259 168//259 23//259
f 160//260 168//260 22//260
f 157//261 169//261 162//261
f 164//262 169//262 157//262
f 162//263 170//263 155//263
f 155//264 170//264 163//264
f 161//265 171//265 164//265
f 167//266 171//266 166//266
f 164//267 171//267 169//267
f 172//268 171//268 167//268
f 166//269 171//269 161//269
f 168//270 173//270 23//270
f 170//271 174//271 163//271
f 156//272 174//272 165//272
f 163//273 174//273 156//273
f 160//274 175//274 168//274
f 165//275 175//275 160//275
f 174//276 175//276 165//276
f 171//277 176//277 169//277
f 172//278 176//278 171//278
f 162//279 177//279 170//279
f 169//280 177//280 162//280
f 23//281 178//281 25//281
f 173//282 178//282 23//282
f 175//283 179//283 168//283
f 168//284 179//284 173//284
f 170//285 180//285 174//285
f 174//286 181//286 175//286
f 169//287 182//287 177//287
f 176//288 182//288 169//288
f 172//289 182//289 176//289
f 183//290 182//290 172//290
f 178//291 184//291 25//291
f 179//292 185//292 173//292
f 173//293 185//293 178//293
f 181//294 186//294 175//294
f 175//295 186//295 179//295
f 177//296 187//296 170//296
f 170//297 187//297 180//297
f 180//298 188//298 174//298
f 174//299 188//299 181//299
f 178//300 189//300 184//300
f 185//301 189//301 178//301
f 179//302 190//302 185//302
f 186//303 190//303 179//303
f 181//304 191//304 186//304
f 188//305 191//305 181//305
f 177//306 192//306 187//306
f 193//307 192//307 183//307
f 182//308 192//308 177//308
f 183//309 192//309 182//309
f 25//310 194//310 28//310
f 184//311 194//311 25//311
f 187//312 195//312 180//312
f 188//313 195//313 191//313
f 180//314 195//314 188//314
f 185//315 196//315 189//315
f 190//316 196//316 185//316
f 186//317 197//317 190//317
f 191//318 197//318 186//318
f 195//319 198//319 191//319
f 184//320 199//320 194//320
f 189//321 199//321 184//321
f 192//322 200//322 187//322
f 201//323 200//323 193//323
f 187//324 200//324 195//324
f 193//325 200//325 192//325
f 28//326 202//326 30//326
f 194//327 202//327 28//327
f 190//328 203//328 196//328
f 197//329 203//329 190//329
f 198//330 204//330 191//330
f 191//331 204//331 197//331
f 201//332 205//332 200//332
f 200//333 205//333 195//333
f 198//334 205//334 204//334
f 206//335 205//335 201//335
f 195//336 205//336 198//336
f 202//337 207//337 30//337
f 189//338 208//338 199//338
f 196//339 208//339 189//339
f 199//340 209//340 194//340
f 194//341 209//341 202//341
f 204//342 210//342 197//342
f 197//343 210//343 203//343
f 205//344 211//344 204//344
f 206//345 211//345 205//345
f 30//346 212//346 32//346
f 207//347 212//347 30//347
f 209//348 213//348 202//348
f 202//349 213//349 207//349
f 203//350 214//350 196//350
f 196//351 214//351 208//351
f 208//352 215//352 199//352
f 199//353 215//353 209//353
f 211//354 216//354 204//354
f 204//355 216//355 210//355
f 206//356 216//356 211//356
f 217//357 216//357 206//357
f 212//358 218//358 32//358
f 213//359 219//359 207//359
f 207//360 219//360 212//360
f 215//361 220//361 209//361
f 209//362 220//362 213//362
f 32//363 221//363 34//363
f 218//364 221//364 32//364
f 203//365 222//365 214//365
f 216//366 222//366 210//366
f 210//367 222//367 203//367
f 215//368 223//368 220//368
f 214//369 223//369 208//369
f 208//370 223//370 215//370
f 219//371 224//371 212//371
f 212//372 224//372 218//372
f 213//373 225//373 219//373
f 220//374 225//374 213//374
f 223//375 226//375 220//375
f 218//376 227//376 221//376
f 224//377 227//377 218//377
f 228//378 229//378 217//378
f 217//379 229//379 216//379
f 216//380 229//380 222//380
f 221//381 230//381 34//381
f 222//382 231//382 214//382
f 214//383 231//383 223//383
f 219//384 232//384 224//384
f 225//385 232//385 219//385
f 225//386 233//386 232//386
f 220//387 233//387 225//387
f 226//388 233//388 220//388
f 223//389 234//389 226//389
f 226//390 234//390 233//390
f 231//391 234//391 223//391
f 232//392 235//392 224//392
f 224//393 235//393 227//393
f 227//394 236//394 221//394
f 221//395 236//395 230//395
f 231//396 237//396 234//396
f 228//397 237//397 229//397
f 238//398 237//398 228//398
f 222//399 237//399 231//399
f 229//400 237//400 222//400
f 233//401 239//401 232//401
f 236//402 240//402 230//402
f 34//403 240//403 36//403
f 230//404 240//404 34//404
f 233//405 241//405 239//405
f 234//406 241//406 233//406
f 238//407 242//407 237//407
f 237//408 242//408 234//408
f 243//409 242//409 238//409
f 239//410 244//410 232//410
f 232//411 244//411 235//411
f 227//412 245//412 236//412
f 235//413 245//413 227//413
f 241//414 246//414 239//414
f 245//415 247//415 236//415
f 236//416 247//416 240//416
f 234//417 248//417 241//417
f 242//418 248//418 234//418
f 243//419 248//419 242//419
f 241//420 248//420 246//420
f 240//421 249//421 36//421
f 36//422 249//422 38//422
f 246//423 250//423 239//423
f 239//424 250//424 244//424
f 244//425 251//425 235//425
f 235//426 251//426 245//426
f 243//427 252//427 248//427
f 248//428 252//428 246//428
f 253//429 252//429 243//429
f 245//430 254//430 247//430
f 249//431 255//431 38//431
f 247//432 256//432 240//432
f 240//433 256//433 249//433
f 254//434 256//434 247//434
f 249//435 256//435 255//435
f 246//436 257//436 250//436
f 252//437 257//437 246//437
f 253//438 257//438 252//438
f 38//439 258//439 40//439
f 255//440 258//440 38//440
f 244//441 259//441 251//441
f 250//442 259//442 244//442
f 251//443 260//443 245//443
f 245//444 260//444 254//444
f 256//445 261//445 255//445
f 254//446 262//446 256//446
f 255//447 263//447 258//447
f 261//448 263//448 255//448
f 257//449 264//449 250//449
f 250//450 264//450 259//450
f 265//451 264//451 253//451
f 253//452 264//452 257//452
f 258//453 266//453 40//453
f 263//454 266//454 258//454
f 259//455 267//455 251//455
f 251//456 267//456 260//456
f 262//457 268//457 256//457
f 256//458 268//458 261//458
f 260//459 269//459 254//459
f 254//460 269//460 262//460
f 262//461 269//461 268//461
f 261//462 270//462 263//462
f 268//463 270//463 261//463
f 270//464 271//464 263//464
f 263//465 271//465 266//465
f 264//466 272//466 259//466
f 273//467 272//467 265//467
f 265//468 272//468 264//468
f 259//469 272//469 267//469
f 269//470 274//470 268//470
f 40//471 275//471 42//471
f 266//472 275//472 40//472
f 267//473 276//473 260//473
f 260//474 276//474 269//474
f 268//475 277//475 270//475
f 274//476 277//476 268//476
f 270//477 278//477 271//477
f 277//478 278//478 270//478
f 276//479 279//479 269//479
f 269//480 279//480 274//480
f 271//481 280//481 266//481
f 266//482 280//482 275//482
f 273//483 281//483 272//483
f 267//484 281//484 276//484
f 282//485 281//485 273//485
f 272//486 281//486 267//486
f 275//487 283//487 42//487
f 42//488 283//488 44//488
f 274//489 284//489 277//489
f 279//490 284//490 274//490
f 277//491 285//491 278//491
f 282//492 286//492 281//492
f 276//493 286//493 279//493
f 287//494 286//494 282//494
f 281//495 286//495 276//495
f 283//496 288//496 44//496
f 278//497 289//497 271//497
f 271//498 289//498 280//498
f 275//499 290//499 283//499
f 280//500 290//500 275//500
f 279//501 291//501 284//501
f 286//502 291//502 279//502
f 287//503 291//503 286//503
f 277//504 292//504 285//504
f 284//505 292//505 277//505
f 44//506 293//506 46//506
f 288//507 293//507 44//507
f 283//508 294//508 288//508
f 290//509 294//509 283//509
f 288//510 294//510 293//510
f 285//511 295//511 278//511
f 278//512 295//512 289//512
f 289//513 296//513 280//513
f 295//514 296//514 289//514
f 280//515 296//515 290//515
f 291//516 297//516 284//516
f 284//517 297//517 292//517
f 287//518 297//518 291//518
f 298//519 297//519 287//519
f 294//520 299//520 293//520
f 293//521 300//521 46//521
f 296//522 301//522 290//522
f 290//523 301//523 294//523
f 292//524 302//524 285//524
f 285//525 302//525 295//525
f 295//526 303//526 296//526
f 301//527 304//527 294//527
f 294//528 304//528 299//528
f 299//529 305//529 293//529
f 293//530 305//530 300//530
f 296//531 306//531 301//531
f 301//532 306//532 304//532
f 303//533 306//533 296//533
f 297//534 307//534 292//534
f 308//535 307//535 298//535
f 292//536 307//536 302//536
f 298//537 307//537 297//537
f 46//538 309//538 48//538
f 300//539 309//539 46//539
f 307//540 310//540 302//540
f 302//541 310//541 295//541
f 295//542 310//542 303//542
f 303//543 310//543 306//543
f 306//544 311//544 304//544
f 299//545 312//545 305//545
f 304//546 312//546 299//546
f 310//547 313//547 306//547
f 300//548 314//548 309//548
f 305//549 314//549 300//549
f 307//550 315//550 310//550
f 308//551 315//551 307//551
f 316//552 315//552 308//552
f 309//553 317//553 48//553
f 48//554 317//554 50//554
f 306//555 318//555 311//555
f 313//556 318//556 306//556
f 311//557 319//557 304//557
f 304//558 319//558 312//558
f 313//559 320//559 318//559
f 316//560 320//560 315//560
f 321//561 320//561 316//561
f 310//562 320//562 313//562
f 315//563 320//563 310//563
f 317//564 322//564 50//564
f 319//565 323//565 312//565
f 305//566 323//566 314//566
f 312//567 323//567 305//567
f 314//568 324//568 309//568
f 309//569 324//569 317//569
f 323//570 324//570 314//570
f 321//571 325//571 320//571
f 320//572 325//572 318//572
f 311//573 326//573 319//573
f 318//574 326//574 311//574
f 50//575 327//575 52//575
f 322//576 327//576 50//576
f 324//577 328//577 317//577
f 317//578 328//578 322//578
f 326//579 329//579 319//579
f 319//580 329//580 323//580
f 323//581 330//581 324//581
f 329//582 330//582 323//582
f 321//583 331//583 325//583
f 318//584 331//584 326//584
f 325//585 331//585 318//585
f 332//586 331//586 321//586
f 327//587 333//587 52//587
f 328//588 334//588 322//588
f 327//589 334//589 333//589
f 322//590 334//590 327//590
f 324//591 335//591 328//591
f 330//592 335//592 324//592
f 328//593 335//593 334//593
f 326//594 336//594 329//594
f 329//595 337//595 330//595
f 334//596 338//596 333//596
f 335//597 339//597 334//597
f 330//598 340//598 335//598
f 337//599 340//599 330//599
f 331//600 341//600 326//600
f 326//601 341//601 336//601
f 332//602 341//602 331//602
f 342//603 341//603 332//603
f 343//604 341//604 342//604
f 52//605 344//605 54//605
f 333//606 344//606 52//606
f 341//607 345//607 336//607
f 336//608 345//608 329//608
f 329//609 345//609 337//609
f 334//610 346//610 338//610
f 339//611 346//611 334//611
f 340//612 347//612 335//612
f 335//613 347//613 339//613
f 337//614 348//614 340//614
f 345//615 348//615 337//615
f 338//616 349//616 333//616
f 333//617 349//617 344//617
f 341//618 350//618 345//618
f 343//619 350//619 341//619
f 54//620 351//620 56//620
f 344//621 351//621 54//621
f 347//622 352//622 339//622
f 339//623 352//623 346//623
f 348//624 353//624 340//624
f 340//625 353//625 347//625
f 350//626 354//626 345//626
f 348//627 354//627 353//627
f 345//628 354//628 348//628
f 343//629 354//629 350//629
f 355//630 354//630 343//630
f 351//631 356//631 56//631
f 338//632 357//632 349//632
f 346//633 357//633 338//633
f 344//634 358//634 351//634
f 349//635 358//635 344//635
f 353//636 359//636 347//636
f 347//637 359//637 352//637
f 354//638 360//638 353//638
f 355//639 360//639 354//639
f 356//640 361//640 56//640
f 56//641 361//641 58//641
f 356//642 362//642 361//642
f 358//643 362//643 351//643
f 351//644 362//644 356//644
f 352//645 363//645 346//645
f 359//646 363//646 352//646
f 346//647 363//647 357//647
f 357//648 364//648 349//648
f 349//649 364//649 358//649
f 353//650 365//650 359//650
f 360//651 365//651 353//651
f 355//652 365//652 360//652
f 366//653 365//653 355//653
f 361//654 367//654 58//654
f 362//655 368//655 361//655
f 364//656 369//656 358//656
f 358//657 369//657 362//657
f 367//658 370//658 58//658
f 58//659 370//659 2//659
f 2//660 370//660 59//660
f 359//661 371//661 363//661
f 365//662 371//662 359//662
f 357//663 372//663 364//663
f 363//664 372//664 357//664
f 361//665 373//665 367//665
f 368//666 373//666 361//666
f 362//667 374//667 368//667
f 369//668 374//668 362//668
f 368//669 374//669 373//669
f 372//670 375//670 364//670
f 364//671 375//671 369//671
f 59//672 376//672 62//672
f 62//673 376//673 66//673
f 367//674 376//674 370//674
f 370//675 376//675 59//675
f 373//676 376//676 367//676
f 366//677 377//677 365//677
f 365//678 377//678 371//678
f 378//679 377//679 366//679
f 371//680 379//680 363//680
f 363//681 379//681 372//681
f 374//682 380//682 373//682
f 375//683 381//683 369//683
f 369//684 381//684 374//684
f 374//685 381//685 380//685
f 372//686 382//686 375//686
f 379//687 382//687 372//687
f 376//688 383//688 66//688
f 373//689 383//689 376//689
f 380//690 383//690 373//690
f 377//691 384//691 371//691
f 385//692 384//692 378//692
f 371//693 384//693 379//693
f 378//694 384//694 377//694
f 381//695 386//695 380//695
f 375//696 387//696 381//696
f 382//697 387//697 375//697
f 384//698 388//698 379//698
f 389//699 388//699 385//699
f 385//700 388//700 384//700
f 379//701 388//701 382//701
f 382//702 388//702 387//702
f 380//703 390//703 383//703
f 386//704 390//704 380//704
f 66//705 390//705 73//705
f 73//706 390//706 79//706
f 383//707 390//707 66//707
f 381//708 391//708 386//708
f 387//709 391//709 381//709
f 388//710 392//710 387//710
f 387//711 392//711 391//711
f 389//712 392//712 388//712
f 390//713 393//713 79//713
f 391//714 393//714 386//714
f 386//715 393//715 390//715
f 392//716 394//716 391//716
f 389//717 394//717 392//717
f 395//718 394//718 389//718
f 393//719 396//719 79//719
f 391//720 396//720 393//720
f 395//721 396//721 394//721
f 79//722 396//722 86//722
f 86//723 396//723 88//723
f 88//724 396//724 395//724
f 394//725 396//725 391//725
f 397//726 35//726 37//726
f 398//727 37//727 39//727
f 398//728 39//728 41//728
f 398//729 397//729 37//729
f 399//730 33//730 35//730
f 399//731 35//731 397//731
f 400//732 41//732 43//732
f 400//733 398//733 41//733
f 401//734 31//734 33//734
f 401//735 33//735 399//735
f 402//736 400//736 43//736
f 45//737 402//737 43//737
f 403//738 29//738 31//738
f 403//739 31//739 401//739
f 404//740 402//740 45//740
f 47//741 404//741 45//741
f 405//742 27//742 29//742
f 405//743 29//743 403//743
f 406//744 404//744 47//744
f 49//745 406//745 47//745
f 407//746 27//746 405//746
f 26//747 27//747 407//747
f 408//748 406//748 49//748
f 51//749 408//749 49//749
f 409//750 26//750 407//750
f 24//751 26//751 409//751
f 410//752 408//752 51//752
f 53//753 410//753 51//753
f 411//754 24//754 409//754
f 21//755 24//755 411//755
f 412//756 410//756 53//756
f 55//757 412//757 53//757
f 20//758 21//758 411//758
f 20//759 411//759 413//759
f 414//760 412//760 55//760
f 57//761 414//761 55//761
f 18//762 20//762 413//762
f 18//763 413//763 415//763
f 416//764 414//764 57//764
f 1//765 416//765 57//765
f 15//766 415//766 417//766
f 15//767 18//767 415//767
f 4//768 418//768 416//768
f 4//769 416//769 1//769
f 14//770 417//770 419//770
f 14//771 15//771 417//771
f 6//772 420//772 418//772
f 6//773 418//773 4//773
f 11//774 419//774 421//774
f 11//775 14//775 419//775
f 8//776 422//776 420//776
f 8//777 420//777 6//777
f 10//778 421//778 422//778
f 10//779 11//779 421//779
f 10//780 422//780 8//780
f 287//781 423//781 424//781
f 282//782 423//782 287//782
f 298//783 287//783 424//783
f 273//784 423//784 282//784
f 308//785 298//785 424//785
f 265//786 423//786 273//786
f 316//787 308//787 424//787
f 253//788 423//788 265//788
f 321//789 316//789 424//789
f 243//790 425//790 423//790
f 243//791 423//791 253//791
f 332//792 424//792 426//792
f 332//793 321//793 424//793
f 238//794 425//794 243//794
f 342//795 332//795 426//795
f 228//796 425//796 238//796
f 343//797 342//797 426//797
f 217//798 425//798 228//798
f 355//799 343//799 426//799
f 206//800 425//800 217//800
f 366//801 355//801 426//801
f 201//802 425//802 206//802
f 427//803 172//803 167//803
f 427//804 183//804 172//804
f 427//805 193//805 183//805
f 427//806 201//806 193//806
f 427//807 425//807 201//807
f 428//808 378//808 366//808
f 428//809 385//809 378//809
f 428//810 389//810 385//810
f 428//811 395//811 389//811
f 428//812 88//812 395//812
f 428//813 366//813 426//813
f 429//814 89//814 88//814
f 429//815 94//815 89//815
f 429//816 104//816 94//816
f 429//817 115//817 104//817
f 429//818 124//818 115//818
f 429//819 88//819 428//819
f 430//820 124//820 429//820
f 430//821 125//821 124//821
f 430//822 138//822 125//822
f 430//823 148//823 138//823
f 430//824 427//824 167//824
f 430//825 158//825 148//825
f 430//826 167//826 158//826
f 431//827 416//827 418//827
f 431//828 432//828 416//828
f 433//829 418//829 420//829
f 433//830 431//830 418//830
f 434//831 420//831 422//831
f 434//832 422//832 421//832
f 434//833 433//833 420//833
f 435//834 434//834 421//834
f 436//835 421//835 419//835
f 436//836 435//836 421//836
f 437//837 419//837 417//837
f 437//838 436//838 419//838
f 438//839 417//839 415//839
f 438//840 437//840 417//840
f 439//841 415//841 413//841
f 439//842 438//842 415//842
f 440//843 413//843 411//843
f 440//844 439//844 413//844
f 441//845 411//845 409//845
f 441//846 409//846 407//846
f 441//847 440//847 411//847
f 442//848 441//848 407//848
f 442//849 407//849 405//849
f 443//850 442//850 405//850
f 444//851 443//851 405//851
f 444//852 405//852 403//852
f 444//853 403//853 401//853
f 445//854 444//854 401//854
f 446//855 401//855 399//855
f 446//856 445//856 401//856
f 447//857 399//857 397//857
f 447//858 446//858 399//858
f 448//859 397//859 398//859
f 448//860 447//860 397//860
f 449//861 398//861 400//861
f 449//862 448//862 398//862
f 450//863 400//863 402//863
f 450//864 449//864 400//864
f 451//865 402//865 404//865
f 451//866 450//866 402//866
f 452//867 404//867 406//867
f 452//868 406//868 408//868
f 452//869 451//869 404//869
f 453//870 452//870 408//870
f 454//871 408//871 410//871
f 454//872 453//872 408//872
f 455//873 410//873 412//873
f 455//874 412//874 414//874
f 455//875 454//875 410//875
f 456//876 455//876 414//876
f 432//877 414//877 416//877
f 432//878 456//878 414//878
f 428//879 457//879 458//879
f 429//880 428//880 458//880
f 428//881 426//881 459//881
f 428//882 459//882 457//882
f 430//883 429//883 458//883
f 430//884 458//884 460//884
f 426//885 424//885 461//885
f 426//886 461//886 459//886
f 427//887 430//887 460//887
f 427//888 460//888 462//888
f 424//889 423//889 463//889
f 424//890 463//890 461//890
f 425//891 427//891 462//891
f 425//892 462//892 464//892
f 425//893 464//893 463//893
f 423//894 425//894 463//894
f 465//895 446//895 447//895
f 466//896 447//896 448//896
f 466//897 465//897 447//897
f 467//898 446//898 465//898
f 468//899 448//899 449//899
f 468//900 466//900 448//900
f 469//901 445//901 446//901
f 469//902 446//902 467//902
f 470//903 449//903 450//903
f 470//904 468//904 449//904
f 471//905 444//905 445//905
f 471//906 445//906 469//906
f 472//907 450//907 451//907
f 472//908 470//908 450//908
f 443//909 444//909 471//909
f 473//910 443//910 471//910
f 474//911 451//911 452//911
f 474//912 472//912 451//912
f 475//913 442//913 443//913
f 475//914 443//914 473//914
f 453//915 474//915 452//915
f 476//916 474//916 453//916
f 441//917 442//917 475//917
f 477//918 441//918 475//918
f 454//919 478//919 476//919
f 454//920 476//920 453//920
f 440//921 441//921 477//921
f 440//922 477//922 479//922
f 480//923 478//923 454//923
f 455//924 480//924 454//924
f 439//925 440//925 479//925
f 439//926 479//926 481//926
f 456//927 480//927 455//927
f 456//928 482//928 480//928
f 483//929 439//929 481//929
f 438//930 439//930 483//930
f 432//931 482//931 456//931
f 432//932 484//932 482//932
f 437//933 438//933 483//933
f 437//934 483//934 485//934
f 486//935 484//935 432//935
f 431//936 486//936 432//936
f 487//937 437//937 485//937
f 436//938 437//938 487//938
f 433//939 488//939 486//939
f 433//940 486//940 431//940
f 435//941 487//941 489//941
f 435//942 436//942 487//942
f 434//943 490//943 488//943
f 434//944 489//944 490//944
f 434//945 488//945 433//945
f 434//946 435//946 489//946
f 463//947 459//947 461//947
f 463//948 464//948 459//948
f 457//949 460//949 458//949
f 462//950 460//950 464//950
f 459//951 460//951 457//951
f 464//952 460//952 459//952
f 491//953 484//953 486//953
f 491//954 486//954 488//954
f 491//955 492//955 484//955
f 493//956 491//956 488//956
f 494//957 488//957 490//957
f 494//958 490//958 489//958
f 494//959 493//959 488//959
f 495//960 494//960 489//960
f 496//961 489//961 487//961
f 496//962 495//962 489//962
f 497//963 487//963 485//963
f 497//964 496//964 487//964
f 498//965 485//965 483//965
f 498//966 483//966 481//966
f 498//967 497//967 485//967
f 499//968 498//968 481//968
f 500//969 481//969 479//969
f 500//970 499//970 481//970
f 501//971 479//971 477//971
f 501//972 500//972 479//972
f 502//973 501//973 477//973
f 502//974 477//974 475//974
f 503//975 502//975 475//975
f 503//976 475//976 473//976
f 503//977 473//977 471//977
f 504//978 503//978 471//978
f 504//979 471//979 469//979
f 505//980 504//980 469//980
f 505//981 469//981 467//981
f 506//982 505//982 467//982
f 507//983 467//983 465//983
f 507//984 465//984 466//984
f 507//985 506//985 467//985
f 508//986 507//986 466//986
f 509//987 466//987 468//987
f 509//988 508//988 466//988
f 510//989 468//989 470//989
f 510//990 470//990 472//990
f 510//991 509//991 468//991
f 511//992 472//992 474//992
f 511//993 510//993 472//993
f 512//994 474//994 476//994
f 512//995 511//995 474//995
f 513//996 512//996 476//996
f 514//997 476//997 478//997
f 514//998 478//998 480//998
f 514//999 513//999 476//999
f 515//1000 514//1000 480//1000
f 516//1001 480//1001 482//1001
f 516//1002 482//1002 484//1002
f 516//1003 515//1003 480//1003
f 492//1004 516//1004 484//1004
f 513//1005 511//1005 512//1005
f 501//1006 502//1006 503//1006
f 501//1007 503//1007 504//1007
f 501//1008 504//1008 505//1008
f 501//1009 505//1009 506//1009
f 501//1010 506//1010 507//1010
f 501//1011 507//1011 508//1011
f 514//1012 509//1012 510//1012
f 514//1013 510//1013 511//1013
f 514//1014 511//1014 513//1014
f 499//1015 500//1015 501//1015
f 498//1016 508//1016 509//1016
f 498//1017 501//1017 508//1017
f 498//1018 509//1018 514//1018
f 498//1019 499//1019 501//1019
f 491//1020 514//1020 515//1020
f 491//1021 515//1021 516//1021
f 491//1022 516//1022 492//1022
f 496//1023 497//1023 498//1023
f 494//1024 491//1024 493//1024
f 494//1025 495//1025 496//1025
f 494//1026 498//1026 514//1026
f 494//1027 496//1027 498//1027
f 494//1028 514//1028 491//1028
