# Created by FreeCAD <https://www.freecad.org>
v 0.000000 10.801216 2.081764
v 0.000000 11.000000 0.000000
v 100.000000 11.000000 0.000000
v 100.000000 10.801216 2.081764
v 0.000000 10.212048 4.088287
v 100.000000 10.212048 4.088287
v 0.000000 9.253789 5.947049
v 100.000000 9.253789 5.947049
v 0.000000 7.961074 7.590869
v 100.000000 7.961074 7.590869
v 0.000000 6.380626 8.960336
v 100.000000 6.380626 8.960336
v 0.000000 4.569565 10.005952
v 100.000000 4.569565 10.005952
v 0.000000 2.593348 10.689927
v 100.000000 2.593348 10.689927
v 0.000000 0.523401 10.987541
v 100.000000 0.523401 10.987541
v 0.000000 -1.565463 10.888036
v 100.000000 -1.565463 10.888036
v 100.000000 -3.597748 10.395009
v 0.000000 -3.597748 10.395009
v 0.000000 -5.500000 9.526279
v 100.000000 -5.500000 9.526279
v 100.000000 -7.203468 8.313246
v 0.000000 -7.203468 8.313246
v 0.000000 -8.646585 6.799749
v 100.000000 -8.646585 6.799749
v 0.000000 -9.777190 5.040492
v 100.000000 -9.777190 5.040492
v 0.000000 -10.554422 3.099058
v 100.000000 -10.554422 3.099058
v 0.000000 -10.950191 1.045617
v 100.000000 -10.950191 1.045617
v 0.000000 -10.950191 -1.045617
v 100.000000 -10.950191 -1.045617
v 0.000000 -10.554422 -3.099058
v 100.000000 -10.554422 -3.099058
v 0.000000 -9.777190 -5.040492
v 100.000000 -9.777190 -5.040492
v 0.000000 -8.646585 -6.799749
v 100.000000 -8.646585 -6.799749
v 100.000000 -7.203468 -8.313246
v 0.000000 -7.203468 -8.313246
v 100.000000 -5.500000 -9.526279
v 0.000000 -5.500000 -9.526279
v 0.000000 -3.597748 -10.395009
v 100.000000 -3.597748 -10.395009
v 100.000000 -1.565463 -10.888036
v 0.000000 -1.565463 -10.888036
v 0.000000 0.523401 -10.987541
v 100.000000 0.523401 -10.987541
v 100.000000 2.593348 -10.689927
v 0.000000 2.593348 -10.689927
v 100.000000 4.569565 -10.005952
v 0.000000 4.569565 -10.005952
v 0.000000 6.380626 -8.960336
v 100.000000 6.380626 -8.960336
v 0.000000 7.961074 -7.590869
v 100.000000 7.961074 -7.590869
v 0.000000 9.253789 -5.947049
v 100.000000 9.253789 -5.947049
v 100.000000 10.212048 -4.088287
v 0.000000 10.212048 -4.088287
v 100.000000 10.801216 -2.081764
v 0.000000 10.801216 -2.081764
v 100.000000 -16.316347 -14.757264
v 100.000000 -14.203813 -16.800348
v 100.000000 -11.837811 -18.543631
v 100.000000 -18.137714 -12.450836
v 100.000000 -9.260565 -19.955999
v 100.000000 -20.782721 -7.216547
v 100.000000 -19.635414 -9.922223
v 100.000000 -6.518063 -21.012255
v 100.000000 -21.559158 -4.382092
v 100.000000 -3.659246 -21.693546
v 100.000000 -0.735129 -21.987715
v 100.000000 -21.950871 -1.469438
v 100.000000 2.202105 -21.889511
v 100.000000 -21.559158 4.382092
v 100.000000 -21.950871 1.469438
v 100.000000 5.100043 -21.400690
v 100.000000 7.906971 -20.529974
v 100.000000 -20.782721 7.216547
v 100.000000 10.572799 -19.292898
v 100.000000 -18.137714 12.450836
v 100.000000 -19.635414 9.922223
v 100.000000 13.049954 -17.711540
v 100.000000 -16.316347 14.757264
v 100.000000 15.294233 -15.814121
v 100.000000 -14.203813 16.800348
v 100.000000 17.265587 -13.634498
v 100.000000 -11.837811 18.543631
v 100.000000 18.928835 -11.211566
v 100.000000 -9.260565 19.955999
v 100.000000 20.254297 -8.588564
v 100.000000 -6.518063 21.012255
v 100.000000 21.218323 -5.812299
v 100.000000 -3.659246 21.693546
v 100.000000 21.803705 -2.932313
v 100.000000 -0.735129 21.987715
v 100.000000 22.000000 0.000000
v 100.000000 2.202105 21.889511
v 100.000000 21.803705 2.932313
v 100.000000 5.100043 21.400690
v 100.000000 21.218323 5.812299
v 100.000000 7.906971 20.529974
v 100.000000 20.254297 8.588564
v 100.000000 10.572799 19.292898
v 100.000000 18.928835 11.211566
v 100.000000 13.049954 17.711540
v 100.000000 17.265587 13.634498
v 100.000000 15.294233 15.814121
v 75.000000 22.000000 0.000000
v 75.000000 21.803705 2.932313
v 75.000000 21.218323 5.812299
v 75.000000 20.254297 8.588564
v 75.000000 18.928835 11.211566
v 75.000000 17.265587 13.634498
v 75.000000 15.294233 15.814121
v 75.000000 13.049954 17.711540
v 75.000000 10.572799 19.292898
v 75.000000 7.906971 20.529974
v 75.000000 5.100043 21.400690
v 75.000000 2.202105 21.889511
v 75.000000 -0.735129 21.987715
v 75.000000 -3.659246 21.693546
v 75.000000 -6.518063 21.012255
v 75.000000 -9.260565 19.955999
v 75.000000 -11.837811 18.543631
v 75.000000 -14.203813 16.800348
v 75.000000 -16.316347 14.757264
v 75.000000 -18.137714 12.450836
v 75.000000 -19.635414 9.922223
v 75.000000 -20.782721 7.216547
v 75.000000 -21.559158 4.382092
v 75.000000 -21.950871 1.469438
v 75.000000 -21.950871 -1.469438
v 75.000000 -21.559158 -4.382092
v 75.000000 -20.782721 -7.216547
v 75.000000 -19.635414 -9.922223
v 75.000000 -18.137714 -12.450836
v 75.000000 -16.316347 -14.757264
v 75.000000 -14.203813 -16.800348
v 75.000000 -11.837811 -18.543631
v 75.000000 -9.260565 -19.955999
v 75.000000 -6.518063 -21.012255
v 75.000000 -3.659246 -21.693546
v 75.000000 -0.735129 -21.987715
v 75.000000 2.202105 -21.889511
v 75.000000 5.100043 -21.400690
v 75.000000 7.906971 -20.529974
v 75.000000 10.572799 -19.292898
v 75.000000 13.049954 -17.711540
v 75.000000 15.294233 -15.814121
v 75.000000 17.265587 -13.634498
v 75.000000 18.928835 -11.211566
v 75.000000 20.254297 -8.588564
v 75.000000 21.218323 -5.812299
v 75.000000 21.803705 -2.932313
v 75.000000 -24.236776 -19.328184
v 75.000000 -21.920311 -21.920311
v 75.000000 -19.328184 -24.236776
v 75.000000 -26.248449 -16.492994
v 75.000000 -16.492994 -26.248449
v 75.000000 -13.450396 -27.930035
v 75.000000 -27.930035 -13.450396
v 75.000000 -10.238651 -29.260384
v 75.000000 -30.222765 -6.898149
v 75.000000 -29.260384 -10.238651
v 75.000000 -6.898149 -30.222765
v 75.000000 -30.805079 -3.470899
v 75.000000 -3.470899 -30.805079
v 75.000000 -31.000000 0.000000
v 75.000000 -0.000000 -31.000000
v 75.000000 -30.805079 3.470899
v 75.000000 3.470899 -30.805079
v 75.000000 -30.222765 6.898149
v 75.000000 6.898149 -30.222765
v 75.000000 10.238651 -29.260384
v 75.000000 -27.930035 13.450396
v 75.000000 -29.260384 10.238651
v 75.000000 13.450396 -27.930035
v 75.000000 -26.248449 16.492994
v 75.000000 16.492994 -26.248449
v 75.000000 -24.236776 19.328184
v 75.000000 19.328184 -24.236776
v 75.000000 21.920311 -21.920311
v 75.000000 -21.920311 21.920311
v 75.000000 24.236776 -19.328184
v 75.000000 -19.328184 24.236776
v 75.000000 26.248449 -16.492994
v 75.000000 -16.492994 26.248449
v 75.000000 27.930035 -13.450396
v 75.000000 -13.450396 27.930035
v 75.000000 29.260384 -10.238651
v 75.000000 -10.238651 29.260384
v 75.000000 30.222765 -6.898149
v 75.000000 -6.898149 30.222765
v 75.000000 -3.470899 30.805079
v 75.000000 30.805079 -3.470899
v 75.000000 31.000000 0.000000
v 75.000000 0.000000 31.000000
v 75.000000 30.805079 3.470899
v 75.000000 3.470899 30.805079
v 75.000000 6.898149 30.222765
v 75.000000 30.222765 6.898149
v 75.000000 29.260384 10.238651
v 75.000000 10.238651 29.260384
v 75.000000 27.930035 13.450396
v 75.000000 13.450396 27.930035
v 75.000000 16.492994 26.248449
v 75.000000 26.248449 16.492994
v 75.000000 24.236776 19.328184
v 75.000000 19.328184 24.236776
v 75.000000 21.920311 21.920311
v 37.000000 31.000000 0.000000
v 37.000000 30.805079 3.470899
v 37.000000 30.222765 6.898149
v 37.000000 29.260384 10.238651
v 37.000000 27.930035 13.450396
v 37.000000 26.248449 16.492994
v 37.000000 24.236776 19.328184
v 37.000000 21.920311 21.920311
v 37.000000 19.328184 24.236776
v 37.000000 16.492994 26.248449
v 37.000000 13.450396 27.930035
v 37.000000 10.238651 29.260384
v 37.000000 6.898149 30.222765
v 37.000000 3.470899 30.805079
v 37.000000 0.000000 31.000000
v 37.000000 -3.470899 30.805079
v 37.000000 -6.898149 30.222765
v 37.000000 -10.238651 29.260384
v 37.000000 -13.450396 27.930035
v 37.000000 -16.492994 26.248449
v 37.000000 -19.328184 24.236776
v 37.000000 -21.920311 21.920311
v 37.000000 -24.236776 19.328184
v 37.000000 -26.248449 16.492994
v 37.000000 -27.930035 13.450396
v 37.000000 -29.260384 10.238651
v 37.000000 -30.222765 6.898149
v 37.000000 -30.805079 3.470899
v 37.000000 -31.000000 0.000000
v 37.000000 -30.805079 -3.470899
v 37.000000 -30.222765 -6.898149
v 37.000000 -29.260384 -10.238651
v 37.000000 -27.930035 -13.450396
v 37.000000 -26.248449 -16.492994
v 37.000000 -24.236776 -19.328184
v 37.000000 -21.920311 -21.920311
v 37.000000 -19.328184 -24.236776
v 37.000000 -16.492994 -26.248449
v 37.000000 -13.450396 -27.930035
v 37.000000 -10.238651 -29.260384
v 37.000000 -6.898149 -30.222765
v 37.000000 -3.470899 -30.805079
v 37.000000 -0.000000 -31.000000
v 37.000000 3.470899 -30.805079
v 37.000000 6.898149 -30.222765
v 37.000000 10.238651 -29.260384
v 37.000000 13.450396 -27.930035
v 37.000000 16.492994 -26.248449
v 37.000000 19.328184 -24.236776
v 37.000000 21.920311 -21.920311
v 37.000000 24.236776 -19.328184
v 37.000000 26.248449 -16.492994
v 37.000000 27.930035 -13.450396
v 37.000000 29.260384 -10.238651
v 37.000000 30.222765 -6.898149
v 37.000000 30.805079 -3.470899
v 37.000000 -23.957851 -22.694082
v 37.000000 -21.363747 -25.151348
v 37.000000 -26.271070 -19.970749
v 37.000000 -18.519173 -27.313738
v 37.000000 -15.457479 -29.155897
v 37.000000 -28.276287 -17.013277
v 37.000000 -12.214560 -30.656231
v 37.000000 -29.949989 -13.856340
v 37.000000 -31.272554 -10.536950
v 37.000000 -8.828435 -31.797150
v 37.000000 -32.228477 -7.094025
v 37.000000 -5.338806 -32.565277
v 37.000000 -32.806553 -3.567928
v 37.000000 -1.786584 -32.951603
v 37.000000 -33.000000 -0.000000
v 37.000000 1.786584 -32.951603
v 37.000000 -32.806553 3.567928
v 37.000000 5.338806 -32.565277
v 37.000000 -32.228477 7.094025
v 37.000000 8.828435 -31.797150
v 37.000000 -31.272554 10.536950
v 37.000000 12.214560 -30.656231
v 37.000000 -29.949989 13.856340
v 37.000000 15.457479 -29.155897
v 37.000000 -28.276287 17.013277
v 37.000000 18.519173 -27.313738
v 37.000000 -26.271070 19.970749
v 37.000000 21.363747 -25.151348
v 37.000000 -23.957851 22.694082
v 37.000000 23.957851 -22.694082
v 37.000000 -21.363747 25.151348
v 37.000000 26.271070 -19.970749
v 37.000000 -18.519173 27.313738
v 37.000000 28.276287 -17.013277
v 37.000000 -15.457479 29.155897
v 37.000000 29.949989 -13.856340
v 37.000000 -12.214560 30.656231
v 37.000000 31.272554 -10.536950
v 37.000000 -8.828435 31.797150
v 37.000000 32.228477 -7.094025
v 37.000000 -5.338806 32.565277
v 37.000000 32.806553 -3.567928
v 37.000000 -1.786584 32.951603
v 37.000000 33.000000 0.000000
v 37.000000 1.786584 32.951603
v 37.000000 32.806553 3.567928
v 37.000000 5.338806 32.565277
v 37.000000 32.228477 7.094025
v 37.000000 8.828435 31.797150
v 37.000000 31.272554 10.536950
v 37.000000 12.214560 30.656231
v 37.000000 29.949989 13.856340
v 37.000000 15.457479 29.155897
v 37.000000 28.276287 17.013277
v 37.000000 18.519173 27.313738
v 37.000000 26.271070 19.970749
v 37.000000 21.363747 25.151348
v 37.000000 23.957851 22.694082
v 17.000000 33.000000 0.000000
v 17.000000 32.806553 3.567928
v 17.000000 32.228477 7.094025
v 17.000000 31.272554 10.536950
v 17.000000 29.949989 13.856340
v 17.000000 28.276287 17.013277
v 17.000000 26.271070 19.970749
v 17.000000 23.957851 22.694082
v 17.000000 21.363747 25.151348
v 17.000000 18.519173 27.313738
v 17.000000 15.457479 29.155897
v 17.000000 12.214560 30.656231
v 17.000000 8.828435 31.797150
v 17.000000 5.338806 32.565277
v 17.000000 1.786584 32.951603
v 17.000000 -1.786584 32.951603
v 17.000000 -5.338806 32.565277
v 17.000000 -8.828435 31.797150
v 17.000000 -12.214560 30.656231
v 17.000000 -15.457479 29.155897
v 17.000000 -18.519173 27.313738
v 17.000000 -21.363747 25.151348
v 17.000000 -23.957851 22.694082
v 17.000000 -26.271070 19.970749
v 17.000000 -28.276287 17.013277
v 17.000000 -29.949989 13.856340
v 17.000000 -31.272554 10.536950
v 17.000000 -32.228477 7.094025
v 17.000000 -32.806553 3.567928
v 17.000000 -33.000000 -0.000000
v 17.000000 -32.806553 -3.567928
v 17.000000 -32.228477 -7.094025
v 17.000000 -31.272554 -10.536950
v 17.000000 -29.949989 -13.856340
v 17.000000 -28.276287 -17.013277
v 17.000000 -26.271070 -19.970749
v 17.000000 -23.957851 -22.694082
v 17.000000 -21.363747 -25.151348
v 17.000000 -18.519173 -27.313738
v 17.000000 -15.457479 -29.155897
v 17.000000 -12.214560 -30.656231
v 17.000000 -8.828435 -31.797150
v 17.000000 -5.338806 -32.565277
v 17.000000 -1.786584 -32.951603
v 17.000000 1.786584 -32.951603
v 17.000000 5.338806 -32.565277
v 17.000000 8.828435 -31.797150
v 17.000000 12.214560 -30.656231
v 17.000000 15.457479 -29.155897
v 17.000000 18.519173 -27.313738
v 17.000000 21.363747 -25.151348
v 17.000000 23.957851 -22.694082
v 17.000000 26.271070 -19.970749
v 17.000000 28.276287 -17.013277
v 17.000000 29.949989 -13.856340
v 17.000000 31.272554 -10.536950
v 17.000000 32.228477 -7.094025
v 17.000000 32.806553 -3.567928
v 17.000000 11.888606 -11.441636
v 17.000000 10.002719 -13.122333
v 17.000000 13.495834 -9.492758
v 17.000000 7.882377 -14.495452
v 17.000000 14.786732 -7.321377
v 17.000000 5.577279 -15.528811
v 17.000000 15.731040 -4.978390
v 17.000000 3.141453 -16.198187
v 17.000000 16.306627 -2.518713
v 17.000000 0.631995 -16.487892
v 17.000000 16.500000 0.000000
v 17.000000 -1.892277 -16.391134
v 17.000000 16.306627 2.518713
v 17.000000 -4.372195 -15.910183
v 17.000000 15.731040 4.978390
v 17.000000 -6.749632 -15.056310
v 17.000000 14.786732 7.321377
v 17.000000 -8.968864 -13.849529
v 17.000000 13.495834 9.492758
v 17.000000 -10.977874 -12.318129
v 17.000000 11.888606 11.441636
v 17.000000 -12.729571 -10.498000
v 17.000000 10.002719 13.122333
v 17.000000 -14.182899 -8.431808
v 17.000000 7.882377 14.495452
v 17.000000 -15.303790 -6.167982
v 17.000000 5.577279 15.528811
v 17.000000 -16.065975 -3.759583
v 17.000000 3.141453 16.198187
v 17.000000 0.631995 16.487892
v 17.000000 -16.451586 -1.263063
v 17.000000 -16.451586 1.263063
v 17.000000 -1.892277 16.391134
v 17.000000 -16.065975 3.759583
v 17.000000 -4.372195 15.910183
v 17.000000 -15.303790 6.167982
v 17.000000 -6.749632 15.056310
v 17.000000 -14.182899 8.431808
v 17.000000 -8.968864 13.849529
v 17.000000 -12.729571 10.498000
v 17.000000 -10.977874 12.318129
v 0.000000 16.500000 0.000000
v 0.000000 16.306627 2.518713
v 0.000000 15.731040 4.978390
v 0.000000 14.786732 7.321377
v 0.000000 13.495834 9.492758
v 0.000000 11.888606 11.441636
v 0.000000 10.002719 13.122333
v 0.000000 7.882377 14.495452
v 0.000000 5.577279 15.528811
v 0.000000 3.141453 16.198187
v 0.000000 0.631995 16.487892
v 0.000000 -1.892277 16.391134
v 0.000000 -4.372195 15.910183
v 0.000000 -6.749632 15.056310
v 0.000000 -8.968864 13.849529
v 0.000000 -10.977874 12.318129
v 0.000000 -12.729571 10.498000
v 0.000000 -14.182899 8.431808
v 0.000000 -15.303790 6.167982
v 0.000000 -16.065975 3.759583
v 0.000000 -16.451586 1.263063
v 0.000000 -16.451586 -1.263063
v 0.000000 -16.065975 -3.759583
v 0.000000 -15.303790 -6.167982
v 0.000000 -14.182899 -8.431808
v 0.000000 -12.729571 -10.498000
v 0.000000 -10.977874 -12.318129
v 0.000000 -8.968864 -13.849529
v 0.000000 -6.749632 -15.056310
v 0.000000 -4.372195 -15.910183
v 0.000000 -1.892277 -16.391134
v 0.000000 0.631995 -16.487892
v 0.000000 3.141453 -16.198187
v 0.000000 5.577279 -15.528811
v 0.000000 7.882377 -14.495452
v 0.000000 10.002719 -13.122333
v 0.000000 11.888606 -11.441636
v 0.000000 13.495834 -9.492758
v 0.000000 14.786732 -7.321377
v 0.000000 15.731040 -4.978390
v 0.000000 16.306627 -2.518713
vn 0.000000 -0.995472 -0.095056
vn 0.000000 -0.995472 -0.095056
vn 0.000000 -0.959493 -0.281733
vn 0.000000 -0.959493 -0.281733
vn 0.000000 -0.888835 -0.458227
vn 0.000000 -0.888835 -0.458227
vn 0.000000 -0.786053 -0.618159
vn 0.000000 -0.786053 -0.618159
vn 0.000000 -0.654861 -0.755749
vn 0.000000 -0.654861 -0.755749
vn 0.000000 -0.500000 -0.866026
vn 0.000000 -0.500000 -0.866026
vn 0.000000 -0.327068 -0.945001
vn 0.000000 -0.327068 -0.945001
vn 0.000000 -0.142315 -0.989821
vn 0.000000 -0.142315 -0.989821
vn 0.000000 0.047582 -0.998867
vn 0.000000 0.047582 -0.998867
vn 0.000000 0.235759 -0.971812
vn 0.000000 0.235759 -0.971812
vn 0.000000 0.415415 -0.909632
vn 0.000000 0.415415 -0.909632
vn 0.000000 0.580057 -0.814576
vn 0.000000 0.580057 -0.814576
vn 0.000000 0.723734 -0.690079
vn 0.000000 0.723734 -0.690079
vn 0.000000 0.841254 -0.540641
vn 0.000000 0.841254 -0.540641
vn 0.000000 0.928368 -0.371662
vn 0.000000 0.928368 -0.371662
vn 0.000000 0.981929 -0.189252
vn 0.000000 0.981929 -0.189252
vn 0.000000 1.000000 0.000000
vn 0.000000 1.000000 0.000000
vn 0.000000 0.981929 0.189252
vn -0.000000 0.981929 0.189252
vn 0.000000 0.928368 0.371662
vn -0.000000 0.928368 0.371662
vn 0.000000 0.841254 0.540641
vn -0.000000 0.841254 0.540641
vn -0.000000 0.723734 0.690079
vn -0.000000 0.580057 0.814576
vn -0.000000 0.723734 0.690079
vn -0.000000 0.580057 0.814576
vn -0.000000 0.415415 0.909632
vn -0.000000 0.235759 0.971812
vn 0.000000 0.415415 0.909632
vn -0.000000 0.235759 0.971812
vn -0.000000 0.047582 0.998867
vn 0.000000 -0.142315 0.989821
vn 0.000000 0.047582 0.998867
vn 0.000000 -0.327068 0.945001
vn 0.000000 -0.142315 0.989821
vn 0.000000 -0.327068 0.945001
vn 0.000000 -0.500000 0.866026
vn 0.000000 -0.500000 0.866026
vn 0.000000 -0.654861 0.755749
vn 0.000000 -0.654861 0.755749
vn 0.000000 -0.786053 0.618159
vn 0.000000 -0.888835 0.458227
vn 0.000000 -0.786053 0.618159
vn 0.000000 -0.959493 0.281733
vn 0.000000 -0.888835 0.458227
vn 0.000000 -0.959493 0.281733
vn 0.000000 -0.995472 0.095056
vn 0.000000 -0.995472 0.095056
vn 1.000000 0.000000 0.000000
vn 1.000000 0.000000 0.000000
vn 1.000000 0.000000 0.000000
vn 1.000000 0.000000 0.000000
vn 1.000000 0.000000 0.000000
vn 1.000000 0.000000 0.000000
vn 1.000000 0.000000 0.000000
vn 1.000000 0.000000 0.000000
vn 1.000000 0.000000 0.000000
vn 1.000000 0.000000 0.000000
vn 1.000000 0.000000 0.000000
vn 1.000000 0.000000 0.000000
vn 1.000000 0.000000 0.000000
vn 1.000000 0.000000 0.000000
vn 1.000000 0.000000 0.000000
vn 1.000000 0.000000 0.000000
vn 1.000000 0.000000 0.000000
vn 1.000000 0.000000 0.000000
vn 1.000000 0.000000 0.000000
vn 1.000000 0.000000 0.000000
vn 1.000000 0.000000 0.000000
vn 1.000000 0.000000 0.000000
vn 1.000000 0.000000 0.000000
vn 1.000000 0.000000 0.000000
vn 1.000000 0.000000 0.000000
vn 1.000000 0.000000 0.000000
vn 1.000000 0.000000 0.000000
vn 1.000000 0.000000 0.000000
vn 1.000000 0.000000 0.000000
vn 1.000000 0.000000 0.000000
vn 1.000000 0.000000 0.000000
vn 1.000000 0.000000 0.000000
vn 1.000000 0.000000 0.000000
vn 1.000000 0.000000 0.000000
vn 1.000000 0.000000 0.000000
vn 1.000000 0.000000 0.000000
vn 1.000000 0.000000 0.000000
vn 1.000000 0.000000 0.000000
vn 1.000000 0.000000 0.000000
vn 1.000000 0.000000 0.000000
vn 1.000000 0.000000 0.000000
vn 1.000000 0.000000 0.000000
vn 1.000000 0.000000 0.000000
vn 1.000000 0.000000 0.000000
vn 1.000000 0.000000 0.000000
vn 1.000000 0.000000 0.000000
vn 1.000000 0.000000 0.000000
vn 1.000000 0.000000 0.000000
vn 1.000000 0.000000 0.000000
vn 1.000000 0.000000 0.000000
vn 1.000000 0.000000 0.000000
vn 1.000000 0.000000 0.000000
vn 1.000000 0.000000 0.000000
vn 1.000000 0.000000 0.000000
vn 1.000000 0.000000 0.000000
vn 1.000000 0.000000 0.000000
vn 1.000000 0.000000 0.000000
vn 1.000000 0.000000 0.000000
vn 1.000000 0.000000 0.000000
vn 1.000000 0.000000 0.000000
vn 1.000000 0.000000 0.000000
vn 1.000000 0.000000 0.000000
vn 1.000000 0.000000 0.000000
vn 1.000000 0.000000 0.000000
vn 1.000000 0.000000 0.000000
vn 1.000000 0.000000 0.000000
vn 1.000000 0.000000 0.000000
vn 1.000000 0.000000 0.000000
vn 1.000000 0.000000 0.000000
vn 1.000000 0.000000 0.000000
vn 1.000000 0.000000 0.000000
vn 1.000000 0.000000 0.000000
vn 1.000000 0.000000 0.000000
vn 1.000000 0.000000 0.000000
vn 1.000000 0.000000 0.000000
vn 1.000000 0.000000 0.000000
vn 1.000000 0.000000 0.000000
vn 1.000000 0.000000 0.000000
vn 1.000000 0.000000 0.000000
vn 1.000000 0.000000 0.000000
vn 0.000000 0.997767 0.066792
vn 0.000000 0.997767 0.066792
vn 0.000000 0.979962 0.199186
vn 0.000000 0.979962 0.199186
vn 0.000000 0.944669 0.328025
vn 0.000000 0.892519 0.451010
vn 0.000000 0.944669 0.328025
vn 0.000000 0.892519 0.451010
vn 0.000000 0.824442 0.565947
vn 0.000000 0.824442 0.565947
vn 0.000000 0.741652 0.670785
vn 0.000000 0.645628 0.763652
vn 0.000000 0.741652 0.670785
vn 0.000000 0.645628 0.763652
vn 0.000000 0.538083 0.842892
vn 0.000000 0.420935 0.907091
vn 0.000000 0.538083 0.842892
vn 0.000000 0.420935 0.907091
vn 0.000000 0.296275 0.955103
vn 0.000000 0.296275 0.955103
vn 0.000000 0.166329 0.986070
vn 0.000000 0.033415 0.999442
vn 0.000000 0.166329 0.986070
vn 0.000000 -0.100096 0.994978
vn 0.000000 0.033415 0.999442
vn 0.000000 -0.100096 0.994978
vn 0.000000 -0.231820 0.972759
vn 0.000000 -0.231820 0.972759
vn 0.000000 -0.359408 0.933181
vn 0.000000 -0.480581 0.876950
vn 0.000000 -0.359408 0.933181
vn 0.000000 -0.480581 0.876950
vn 0.000000 -0.593180 0.805070
vn 0.000000 -0.695192 0.718824
vn 0.000000 -0.593180 0.805070
vn 0.000000 -0.784799 0.619750
vn 0.000000 -0.695192 0.718824
vn 0.000000 -0.784799 0.619750
vn 0.000000 -0.860402 0.509617
vn 0.000000 -0.860402 0.509617
vn 0.000000 -0.920650 0.390389
vn 0.000000 -0.964469 0.264195
vn 0.000000 -0.920650 0.390389
vn 0.000000 -0.991078 0.133286
vn 0.000000 -0.964469 0.264195
vn 0.000000 -0.991078 0.133286
vn 0.000000 -1.000000 0.000000
vn -0.000000 -0.991078 -0.133286
vn 0.000000 -1.000000 0.000000
vn -0.000000 -0.964469 -0.264195
vn -0.000000 -0.991078 -0.133286
vn -0.000000 -0.964469 -0.264195
vn 0.000000 -0.920650 -0.390389
vn -0.000000 -0.920650 -0.390389
vn -0.000000 -0.860402 -0.509617
vn -0.000000 -0.860402 -0.509617
vn -0.000000 -0.784799 -0.619750
vn -0.000000 -0.784799 -0.619750
vn 0.000000 -0.695192 -0.718824
vn -0.000000 -0.695192 -0.718824
vn -0.000000 -0.593180 -0.805070
vn -0.000000 -0.593180 -0.805070
vn 0.000000 -0.480581 -0.876950
vn -0.000000 -0.480581 -0.876950
vn 0.000000 -0.359408 -0.933181
vn -0.000000 -0.359408 -0.933181
vn 0.000000 -0.231820 -0.972759
vn -0.000000 -0.231820 -0.972759
vn -0.000000 -0.100096 -0.994978
vn -0.000000 -0.100096 -0.994978
vn 0.000000 0.033415 -0.999442
vn 0.000000 0.166329 -0.986070
vn 0.000000 0.033415 -0.999442
vn 0.000000 0.166329 -0.986070
vn 0.000000 0.296275 -0.955103
vn 0.000000 0.420935 -0.907091
vn 0.000000 0.296275 -0.955103
vn 0.000000 0.420935 -0.907091
vn 0.000000 0.538083 -0.842892
vn 0.000000 0.538083 -0.842892
vn 0.000000 0.645628 -0.763652
vn 0.000000 0.645628 -0.763652
vn 0.000000 0.741652 -0.670785
vn 0.000000 0.741652 -0.670785
vn 0.000000 0.824442 -0.565947
vn 0.000000 0.824442 -0.565947
vn 0.000000 0.892519 -0.451010
vn 0.000000 0.944669 -0.328025
vn 0.000000 0.892519 -0.451010
vn 0.000000 0.944669 -0.328025
vn 0.000000 0.979962 -0.199186
vn 0.000000 0.979962 -0.199186
vn 0.000000 0.997767 -0.066792
vn 0.000000 0.997767 -0.066792
vn 1.000000 0.000000 0.000000
vn 1.000000 0.000000 0.000000
vn 1.000000 0.000000 0.000000
vn 1.000000 0.000000 0.000000
vn 1.000000 0.000000 0.000000
vn 1.000000 0.000000 0.000000
vn 1.000000 0.000000 0.000000
vn 1.000000 0.000000 0.000000
vn 1.000000 0.000000 0.000000
vn 1.000000 0.000000 0.000000
vn 1.000000 0.000000 0.000000
vn 1.000000 0.000000 0.000000
vn 1.000000 0.000000 0.000000
vn 1.000000 0.000000 0.000000
vn 1.000000 0.000000 0.000000
vn 1.000000 0.000000 0.000000
vn 1.000000 0.000000 0.000000
vn 1.000000 0.000000 0.000000
vn 1.000000 0.000000 0.000000
vn 1.000000 0.000000 0.000000
vn 1.000000 0.000000 0.000000
vn 1.000000 0.000000 0.000000
vn 1.000000 0.000000 0.000000
vn 1.000000 0.000000 0.000000
vn 1.000000 0.000000 0.000000
vn 1.000000 0.000000 0.000000
vn 1.000000 0.000000 0.000000
vn 1.000000 0.000000 0.000000
vn 1.000000 0.000000 0.000000
vn 1.000000 0.000000 0.000000
vn 1.000000 0.000000 0.000000
vn 1.000000 0.000000 0.000000
vn 1.000000 0.000000 0.000000
vn 1.000000 0.000000 0.000000
vn 1.000000 0.000000 0.000000
vn 1.000000 0.000000 0.000000
vn 1.000000 0.000000 0.000000
vn 1.000000 0.000000 0.000000
vn 1.000000 0.000000 0.000000
vn 1.000000 0.000000 0.000000
vn 1.000000 0.000000 0.000000
vn 1.000000 0.000000 0.000000
vn 1.000000 0.000000 0.000000
vn 1.000000 0.000000 0.000000
vn 1.000000 0.000000 0.000000
vn 1.000000 0.000000 0.000000
vn 1.000000 0.000000 0.000000
vn 1.000000 0.000000 0.000000
vn 1.000000 0.000000 0.000000
vn 1.000000 0.000000 0.000000
vn 1.000000 0.000000 0.000000
vn 1.000000 0.000000 0.000000
vn 1.000000 0.000000 0.000000
vn 1.000000 0.000000 0.000000
vn 1.000000 0.000000 0.000000
vn 1.000000 0.000000 0.000000
vn 1.000000 0.000000 0.000000
vn 1.000000 0.000000 0.000000
vn 1.000000 0.000000 0.000000
vn 1.000000 0.000000 0.000000
vn 1.000000 0.000000 0.000000
vn 1.000000 0.000000 0.000000
vn 1.000000 0.000000 0.000000
vn 1.000000 0.000000 0.000000
vn 1.000000 0.000000 0.000000
vn 1.000000 0.000000 0.000000
vn 1.000000 0.000000 0.000000
vn 1.000000 0.000000 0.000000
vn 1.000000 0.000000 0.000000
vn 1.000000 0.000000 0.000000
vn 1.000000 0.000000 0.000000
vn 1.000000 0.000000 0.000000
vn 1.000000 0.000000 0.000000
vn 1.000000 0.000000 0.000000
vn 1.000000 0.000000 0.000000
vn 1.000000 0.000000 0.000000
vn 1.000000 0.000000 0.000000
vn 1.000000 0.000000 0.000000
vn 1.000000 0.000000 0.000000
vn 1.000000 0.000000 0.000000
vn 1.000000 0.000000 0.000000
vn 1.000000 0.000000 0.000000
vn 1.000000 0.000000 0.000000
vn 1.000000 0.000000 0.000000
vn 1.000000 0.000000 0.000000
vn 1.000000 0.000000 0.000000
vn 1.000000 0.000000 0.000000
vn 1.000000 0.000000 0.000000
vn 1.000000 0.000000 0.000000
vn 1.000000 0.000000 0.000000
vn 1.000000 0.000000 0.000000
vn 1.000000 0.000000 0.000000
vn 1.000000 0.000000 0.000000
vn 1.000000 0.000000 0.000000
vn 1.000000 0.000000 0.000000
vn 1.000000 0.000000 0.000000
vn 1.000000 0.000000 0.000000
vn 1.000000 0.000000 0.000000
vn 1.000000 0.000000 0.000000
vn 1.000000 0.000000 0.000000
vn 1.000000 0.000000 0.000000
vn 1.000000 0.000000 0.000000
vn 1.000000 0.000000 0.000000
vn 0.000000 0.998427 0.056070
vn 0.000000 0.998427 0.056070
vn 0.000000 0.985871 0.167506
vn 0.000000 0.960917 0.276835
vn 0.000000 0.985871 0.167506
vn 0.000000 0.923879 0.382684
vn 0.000000 0.960917 0.276835
vn 0.000000 0.923879 0.382684
vn 0.000000 0.875223 0.483719
vn 0.000000 0.815561 0.578671
vn 0.000000 0.875223 0.483719
vn 0.000000 0.815561 0.578671
vn 0.000000 0.745642 0.666346
vn 0.000000 0.745642 0.666346
vn 0.000000 0.666346 0.745642
vn 0.000000 0.578671 0.815561
vn 0.000000 0.666346 0.745642
vn 0.000000 0.578671 0.815561
vn 0.000000 0.483719 0.875223
vn 0.000000 0.382684 0.923879
vn 0.000000 0.483719 0.875223
vn 0.000000 0.276835 0.960917
vn 0.000000 0.382684 0.923879
vn 0.000000 0.276835 0.960917
vn 0.000000 0.167506 0.985871
vn 0.000000 0.167506 0.985871
vn 0.000000 0.056070 0.998427
vn 0.000000 0.056070 0.998427
vn 0.000000 -0.056070 0.998427
vn 0.000000 -0.167506 0.985871
vn 0.000000 -0.056070 0.998427
vn 0.000000 -0.167506 0.985871
vn 0.000000 -0.276835 0.960917
vn 0.000000 -0.276835 0.960917
vn 0.000000 -0.382684 0.923879
vn 0.000000 -0.382684 0.923879
vn 0.000000 -0.483719 0.875223
vn 0.000000 -0.483719 0.875223
vn 0.000000 -0.578671 0.815561
vn 0.000000 -0.666346 0.745642
vn 0.000000 -0.578671 0.815561
vn 0.000000 -0.666346 0.745642
vn 0.000000 -0.745642 0.666346
vn 0.000000 -0.745642 0.666346
vn 0.000000 -0.815561 0.578671
vn 0.000000 -0.815561 0.578671
vn 0.000000 -0.875223 0.483719
vn 0.000000 -0.875223 0.483719
vn 0.000000 -0.923879 0.382684
vn 0.000000 -0.923879 0.382684
vn 0.000000 -0.960917 0.276835
vn 0.000000 -0.960917 0.276835
vn 0.000000 -0.985871 0.167506
vn 0.000000 -0.985871 0.167506
vn 0.000000 -0.998427 0.056070
vn 0.000000 -0.998427 0.056070
vn -0.000000 -0.998427 -0.056070
vn 0.000000 -0.998427 -0.056070
vn -0.000000 -0.985871 -0.167506
vn -0.000000 -0.960917 -0.276835
vn 0.000000 -0.985871 -0.167506
vn -0.000000 -0.923879 -0.382684
vn -0.000000 -0.960917 -0.276835
vn -0.000000 -0.923879 -0.382684
vn -0.000000 -0.875223 -0.483719
vn 0.000000 -0.875223 -0.483719
vn -0.000000 -0.815561 -0.578671
vn 0.000000 -0.815561 -0.578671
vn -0.000000 -0.745642 -0.666346
vn 0.000000 -0.745642 -0.666346
vn -0.000000 -0.666346 -0.745642
vn 0.000000 -0.666346 -0.745642
vn -0.000000 -0.578671 -0.815561
vn 0.000000 -0.578671 -0.815561
vn -0.000000 -0.483719 -0.875223
vn -0.000000 -0.382684 -0.923879
vn 0.000000 -0.483719 -0.875223
vn -0.000000 -0.382684 -0.923879
vn -0.000000 -0.276835 -0.960917
vn 0.000000 -0.276835 -0.960917
vn -0.000000 -0.167506 -0.985871
vn 0.000000 -0.167506 -0.985871
vn -0.000000 -0.056070 -0.998427
vn 0.000000 -0.056070 -0.998427
vn 0.000000 0.056070 -0.998427
vn 0.000000 0.056070 -0.998427
vn 0.000000 0.167506 -0.985871
vn 0.000000 0.276835 -0.960917
vn 0.000000 0.167506 -0.985871
vn 0.000000 0.276835 -0.960917
vn 0.000000 0.382684 -0.923879
vn 0.000000 0.382684 -0.923879
vn 0.000000 0.483719 -0.875223
vn 0.000000 0.483719 -0.875223
vn 0.000000 0.578671 -0.815561
vn 0.000000 0.578671 -0.815561
vn 0.000000 0.666346 -0.745642
vn 0.000000 0.666346 -0.745642
vn 0.000000 0.745642 -0.666346
vn 0.000000 0.745642 -0.666346
vn 0.000000 0.815561 -0.578671
vn 0.000000 0.815561 -0.578671
vn 0.000000 0.875223 -0.483719
vn 0.000000 0.875223 -0.483719
vn 0.000000 0.923879 -0.382684
vn 0.000000 0.923879 -0.382684
vn 0.000000 0.960917 -0.276835
vn 0.000000 0.960917 -0.276835
vn 0.000000 0.985871 -0.167506
vn 0.000000 0.985871 -0.167506
vn 0.000000 0.998427 -0.056070
vn 0.000000 0.998427 -0.056070
vn 1.000000 0.000000 0.000000
vn 1.000000 0.000000 0.000000
vn 1.000000 0.000000 0.000000
vn 1.000000 0.000000 0.000000
vn 1.000000 0.000000 0.000000
vn 1.000000 0.000000 0.000000
vn 1.000000 0.000000 0.000000
vn 1.000000 0.000000 0.000000
vn 1.000000 0.000000 0.000000
vn 1.000000 0.000000 0.000000
vn 1.000000 0.000000 0.000000
vn 1.000000 0.000000 0.000000
vn 1.000000 0.000000 0.000000
vn 1.000000 0.000000 0.000000
vn 1.000000 0.000000 0.000000
vn 1.000000 0.000000 0.000000
vn 1.000000 0.000000 0.000000
vn 1.000000 0.000000 0.000000
vn 1.000000 0.000000 0.000000
vn 1.000000 0.000000 0.000000
vn 1.000000 0.000000 0.000000
vn 1.000000 0.000000 0.000000
vn 1.000000 0.000000 0.000000
vn 1.000000 0.000000 0.000000
vn 1.000000 0.000000 0.000000
vn 1.000000 0.000000 0.000000
vn 1.000000 0.000000 0.000000
vn 1.000000 0.000000 0.000000
vn 1.000000 0.000000 0.000000
vn 1.000000 0.000000 0.000000
vn 1.000000 0.000000 0.000000
vn 1.000000 0.000000 0.000000
vn 1.000000 0.000000 0.000000
vn 1.000000 0.000000 0.000000
vn 1.000000 0.000000 0.000000
vn 1.000000 0.000000 0.000000
vn 1.000000 0.000000 0.000000
vn 1.000000 0.000000 0.000000
vn 1.000000 0.000000 0.000000
vn 1.000000 0.000000 0.000000
vn 1.000000 0.000000 0.000000
vn 1.000000 0.000000 0.000000
vn 1.000000 0.000000 0.000000
vn 1.000000 0.000000 0.000000
vn 1.000000 0.000000 0.000000
vn 1.000000 0.000000 0.000000
vn 1.000000 0.000000 0.000000
vn 1.000000 0.000000 0.000000
vn 1.000000 0.000000 0.000000
vn 1.000000 0.000000 0.000000
vn 1.000000 0.000000 0.000000
vn 1.000000 0.000000 0.000000
vn 1.000000 0.000000 0.000000
vn 1.000000 0.000000 0.000000
vn 1.000000 0.000000 0.000000
vn 1.000000 0.000000 0.000000
vn 1.000000 0.000000 0.000000
vn 1.000000 0.000000 0.000000
vn 1.000000 0.000000 0.000000
vn 1.000000 0.000000 0.000000
vn 1.000000 0.000000 0.000000
vn 1.000000 0.000000 0.000000
vn 1.000000 0.000000 0.000000
vn 1.000000 0.000000 0.000000
vn 1.000000 0.000000 0.000000
vn 1.000000 0.000000 0.000000
vn 1.000000 0.000000 0.000000
vn 1.000000 0.000000 0.000000
vn 1.000000 0.000000 0.000000
vn 1.000000 0.000000 0.000000
vn 1.000000 0.000000 0.000000
vn 1.000000 0.000000 0.000000
vn 1.000000 0.000000 0.000000
vn 1.000000 0.000000 0.000000
vn 1.000000 0.000000 0.000000
vn 1.000000 0.000000 0.000000
vn 1.000000 0.000000 0.000000
vn 1.000000 0.000000 0.000000
vn 1.000000 0.000000 0.000000
vn 1.000000 0.000000 0.000000
vn 1.000000 0.000000 0.000000
vn 1.000000 0.000000 0.000000
vn 1.000000 0.000000 0.000000
vn 1.000000 0.000000 0.000000
vn 1.000000 0.000000 0.000000
vn 1.000000 0.000000 0.000000
vn 1.000000 0.000000 0.000000
vn 1.000000 0.000000 0.000000
vn 1.000000 0.000000 0.000000
vn 1.000000 0.000000 0.000000
vn 1.000000 0.000000 0.000000
vn 1.000000 0.000000 0.000000
vn 1.000000 0.000000 0.000000
vn 1.000000 0.000000 0.000000
vn 1.000000 0.000000 0.000000
vn 1.000000 0.000000 0.000000
vn 1.000000 0.000000 0.000000
vn 1.000000 0.000000 0.000000
vn 1.000000 0.000000 0.000000
vn 1.000000 0.000000 0.000000
vn 1.000000 0.000000 0.000000
vn 1.000000 0.000000 0.000000
vn 1.000000 0.000000 0.000000
vn 1.000000 0.000000 0.000000
vn 1.000000 0.000000 0.000000
vn 1.000000 0.000000 0.000000
vn 1.000000 0.000000 0.000000
vn 1.000000 0.000000 0.000000
vn 1.000000 0.000000 0.000000
vn 1.000000 0.000000 0.000000
vn 1.000000 0.000000 0.000000
vn 1.000000 0.000000 0.000000
vn 1.000000 0.000000 0.000000
vn 1.000000 0.000000 0.000000
vn 0.000000 0.998533 0.054139
vn 0.000000 0.998533 0.054139
vn 0.000000 0.986827 0.161782
vn 0.000000 0.963550 0.267528
vn 0.000000 0.986827 0.161782
vn 0.000000 0.963550 0.267528
vn 0.000000 0.928977 0.370138
vn 0.000000 0.928977 0.370138
vn 0.000000 0.883512 0.468409
vn 0.000000 0.827689 0.561187
vn 0.000000 0.883512 0.468409
vn 0.000000 0.827689 0.561187
vn 0.000000 0.762162 0.647386
vn 0.000000 0.687699 0.725996
vn 0.000000 0.762162 0.647386
vn 0.000000 0.687699 0.725996
vn 0.000000 0.605174 0.796093
vn 0.000000 0.605174 0.796093
vn 0.000000 0.515554 0.856857
vn 0.000000 0.419889 0.907575
vn 0.000000 0.515554 0.856857
vn 0.000000 0.419889 0.907575
vn 0.000000 0.319302 0.947653
vn 0.000000 0.319302 0.947653
vn 0.000000 0.214971 0.976620
vn 0.000000 0.108119 0.994138
vn 0.000000 0.214971 0.976620
vn 0.000000 0.108119 0.994138
vn 0.000000 0.000000 1.000000
vn 0.000000 -0.000000 1.000000
vn 0.000000 -0.108119 0.994138
vn 0.000000 -0.108119 0.994138
vn 0.000000 -0.214971 0.976620
vn 0.000000 -0.214971 0.976620
vn 0.000000 -0.319302 0.947653
vn 0.000000 -0.319302 0.947653
vn 0.000000 -0.419889 0.907575
vn 0.000000 -0.419889 0.907575
vn 0.000000 -0.515554 0.856857
vn 0.000000 -0.605174 0.796093
vn 0.000000 -0.515554 0.856857
vn 0.000000 -0.605174 0.796093
vn 0.000000 -0.687699 0.725996
vn 0.000000 -0.687699 0.725996
vn 0.000000 -0.762162 0.647386
vn 0.000000 -0.762162 0.647386
vn 0.000000 -0.827689 0.561187
vn 0.000000 -0.827689 0.561187
vn 0.000000 -0.883512 0.468409
vn 0.000000 -0.883512 0.468409
vn 0.000000 -0.928977 0.370138
vn 0.000000 -0.928977 0.370138
vn 0.000000 -0.963550 0.267528
vn 0.000000 -0.963550 0.267528
vn 0.000000 -0.986827 0.161782
vn 0.000000 -0.998533 0.054139
vn 0.000000 -0.986827 0.161782
vn 0.000000 -0.998533 0.054139
vn -0.000000 -0.998533 -0.054139
vn 0.000000 -0.998533 -0.054139
vn -0.000000 -0.986827 -0.161782
vn 0.000000 -0.986827 -0.161782
vn -0.000000 -0.963550 -0.267528
vn -0.000000 -0.928977 -0.370138
vn 0.000000 -0.963550 -0.267528
vn -0.000000 -0.883512 -0.468409
vn -0.000000 -0.928977 -0.370138
vn -0.000000 -0.883512 -0.468409
vn -0.000000 -0.827689 -0.561187
vn 0.000000 -0.827689 -0.561187
vn -0.000000 -0.762162 -0.647386
vn -0.000000 -0.687699 -0.725996
vn 0.000000 -0.762162 -0.647386
vn -0.000000 -0.605174 -0.796093
vn -0.000000 -0.687699 -0.725996
vn -0.000000 -0.605174 -0.796093
vn -0.000000 -0.515554 -0.856857
vn 0.000000 -0.515554 -0.856857
vn -0.000000 -0.419889 -0.907575
vn 0.000000 -0.419889 -0.907575
vn -0.000000 -0.319302 -0.947653
vn 0.000000 -0.319302 -0.947653
vn -0.000000 -0.214971 -0.976620
vn 0.000000 -0.214971 -0.976620
vn -0.000000 -0.108119 -0.994138
vn 0.000000 -0.108119 -0.994138
vn -0.000000 0.000000 -1.000000
vn 0.000000 -0.000000 -1.000000
vn 0.000000 0.108119 -0.994138
vn 0.000000 0.108119 -0.994138
vn 0.000000 0.214971 -0.976620
vn 0.000000 0.214971 -0.976620
vn 0.000000 0.319302 -0.947653
vn 0.000000 0.319302 -0.947653
vn 0.000000 0.419889 -0.907575
vn 0.000000 0.419889 -0.907575
vn 0.000000 0.515554 -0.856857
vn 0.000000 0.515554 -0.856857
vn 0.000000 0.605174 -0.796093
vn 0.000000 0.605174 -0.796093
vn 0.000000 0.687699 -0.725996
vn 0.000000 0.687699 -0.725996
vn 0.000000 0.762162 -0.647386
vn 0.000000 0.762162 -0.647386
vn 0.000000 0.827689 -0.561187
vn 0.000000 0.827689 -0.561187
vn 0.000000 0.883512 -0.468409
vn 0.000000 0.883512 -0.468409
vn 0.000000 0.928977 -0.370138
vn 0.000000 0.928977 -0.370138
vn 0.000000 0.963550 -0.267528
vn 0.000000 0.963550 -0.267528
vn 0.000000 0.986827 -0.161782
vn 0.000000 0.986827 -0.161782
vn 0.000000 0.998533 -0.054139
vn 0.000000 0.998533 -0.054139
vn -1.000000 0.000000 0.000000
vn -1.000000 0.000000 0.000000
vn -1.000000 0.000000 0.000000
vn -1.000000 0.000000 0.000000
vn -1.000000 0.000000 -0.000000
vn -1.000000 0.000000 0.000000
vn -1.000000 0.000000 0.000000
vn -1.000000 0.000000 0.000000
vn -1.000000 0.000000 0.000000
vn -1.000000 0.000000 -0.000000
vn -1.000000 0.000000 0.000000
vn -1.000000 0.000000 0.000000
vn -1.000000 0.000000 0.000000
vn -1.000000 0.000000 -0.000000
vn -1.000000 0.000000 0.000000
vn -1.000000 0.000000 0.000000
vn -1.000000 0.000000 0.000000
vn -1.000000 0.000000 0.000000
vn -1.000000 0.000000 0.000000
vn -1.000000 0.000000 -0.000000
vn -1.000000 0.000000 -0.000000
vn -1.000000 0.000000 0.000000
vn -1.000000 0.000000 0.000000
vn -1.000000 0.000000 0.000000
vn -1.000000 0.000000 -0.000000
vn -1.000000 0.000000 0.000000
vn -1.000000 0.000000 0.000000
vn -1.000000 0.000000 -0.000000
vn -1.000000 0.000000 0.000000
vn -1.000000 0.000000 0.000000
vn -1.000000 0.000000 0.000000
vn -1.000000 0.000000 0.000000
vn -1.000000 0.000000 -0.000000
vn -1.000000 0.000000 0.000000
vn -1.000000 0.000000 0.000000
vn -1.000000 0.000000 0.000000
vn -1.000000 0.000000 0.000000
vn -1.000000 0.000000 -0.000000
vn -1.000000 0.000000 0.000000
vn -1.000000 0.000000 0.000000
vn -1.000000 0.000000 0.000000
vn -1.000000 0.000000 -0.000000
vn -1.000000 0.000000 0.000000
vn -1.000000 0.000000 0.000000
vn -1.000000 0.000000 0.000000
vn -1.000000 0.000000 -0.000000
vn -1.000000 0.000000 0.000000
vn -1.000000 0.000000 0.000000
vn -1.000000 0.000000 0.000000
vn -1.000000 0.000000 -0.000000
vn -1.000000 0.000000 0.000000
vn -1.000000 0.000000 -0.000000
vn -1.000000 0.000000 0.000000
vn -1.000000 0.000000 0.000000
vn -1.000000 0.000000 -0.000000
vn -1.000000 0.000000 0.000000
vn -1.000000 0.000000 0.000000
vn -1.000000 0.000000 -0.000000
vn -1.000000 0.000000 0.000000
vn -1.000000 0.000000 0.000000
vn -1.000000 0.000000 -0.000000
vn -1.000000 0.000000 0.000000
vn -1.000000 0.000000 0.000000
vn -1.000000 0.000000 0.000000
vn -1.000000 0.000000 -0.000000
vn -1.000000 0.000000 0.000000
vn -1.000000 0.000000 0.000000
vn -1.000000 0.000000 -0.000000
vn -1.000000 0.000000 0.000000
vn -1.000000 0.000000 0.000000
vn -1.000000 0.000000 0.000000
vn -1.000000 0.000000 -0.000000
vn -1.000000 0.000000 0.000000
vn -1.000000 0.000000 0.000000
vn -1.000000 0.000000 0.000000
vn -1.000000 0.000000 -0.000000
vn -1.000000 0.000000 -0.000000
vn -1.000000 0.000000 0.000000
vn -1.000000 0.000000 0.000000
vn -1.000000 0.000000 0.000000
vn -1.000000 0.000000 -0.000000
vn -1.000000 0.000000 0.000000
vn -1.000000 0.000000 -0.000000
vn -1.000000 0.000000 0.000000
vn -1.000000 0.000000 0.000000
vn -1.000000 0.000000 0.000000
vn -1.000000 0.000000 0.000000
vn -1.000000 0.000000 -0.000000
vn -1.000000 0.000000 0.000000
vn -1.000000 0.000000 0.000000
vn -1.000000 0.000000 -0.000000
vn -1.000000 0.000000 0.000000
vn -1.000000 0.000000 0.000000
vn -1.000000 0.000000 -0.000000
vn -1.000000 0.000000 0.000000
vn -1.000000 0.000000 0.000000
vn -1.000000 0.000000 0.000000
vn -1.000000 0.000000 -0.000000
vn -1.000000 0.000000 0.000000
vn 0.000000 0.997066 0.076549
vn 0.000000 0.997066 0.076549
vn 0.000000 0.973695 0.227854
vn 0.000000 0.927503 0.373817
vn 0.000000 0.973695 0.227854
vn 0.000000 0.927503 0.373817
vn 0.000000 0.859570 0.511019
vn 0.000000 0.771489 0.636242
vn 0.000000 0.859570 0.511019
vn 0.000000 0.665326 0.746553
vn 0.000000 0.771489 0.636242
vn 0.000000 0.665326 0.746553
vn 0.000000 0.543567 0.839365
vn 0.000000 0.543567 0.839365
vn 0.000000 0.409069 0.912504
vn 0.000000 0.409069 0.912504
vn 0.000000 0.264981 0.964253
vn 0.000000 0.264981 0.964253
vn 0.000000 0.114684 0.993402
vn 0.000000 0.114684 0.993402
vn 0.000000 -0.038303 0.999266
vn 0.000000 -0.038303 0.999266
vn 0.000000 -0.190391 0.981708
vn 0.000000 -0.190391 0.981708
vn 0.000000 -0.338017 0.941140
vn 0.000000 -0.338017 0.941140
vn 0.000000 -0.477720 0.878512
vn 0.000000 -0.477720 0.878512
vn 0.000000 -0.606225 0.795293
vn 0.000000 -0.720522 0.693432
vn 0.000000 -0.606225 0.795293
vn 0.000000 -0.720522 0.693432
vn 0.000000 -0.817929 0.575319
vn 0.000000 -0.817929 0.575319
vn 0.000000 -0.896166 0.443720
vn 0.000000 -0.953396 0.301721
vn 0.000000 -0.896166 0.443720
vn 0.000000 -0.953396 0.301721
vn 0.000000 -0.988280 0.152649
vn 0.000000 -0.988280 0.152649
vn 0.000000 -1.000000 0.000000
vn -0.000000 -0.988280 -0.152649
vn 0.000000 -1.000000 0.000000
vn -0.000000 -0.988280 -0.152649
vn -0.000000 -0.953396 -0.301721
vn 0.000000 -0.953396 -0.301721
vn -0.000000 -0.896166 -0.443720
vn -0.000000 -0.817929 -0.575319
vn 0.000000 -0.896166 -0.443720
vn -0.000000 -0.817929 -0.575319
vn -0.000000 -0.720522 -0.693432
vn 0.000000 -0.720522 -0.693432
vn -0.000000 -0.606225 -0.795293
vn -0.000000 -0.477720 -0.878512
vn 0.000000 -0.606225 -0.795293
vn -0.000000 -0.477720 -0.878512
vn 0.000000 -0.338017 -0.941140
vn -0.000000 -0.338017 -0.941140
vn 0.000000 -0.190391 -0.981708
vn -0.000000 -0.190391 -0.981708
vn 0.000000 -0.038303 -0.999266
vn -0.000000 -0.038303 -0.999266
vn 0.000000 0.114684 -0.993402
vn 0.000000 0.114684 -0.993402
vn 0.000000 0.264981 -0.964253
vn 0.000000 0.264981 -0.964253
vn 0.000000 0.409069 -0.912504
vn 0.000000 0.409069 -0.912504
vn 0.000000 0.543567 -0.839365
vn 0.000000 0.543567 -0.839365
vn 0.000000 0.665326 -0.746553
vn 0.000000 0.665326 -0.746553
vn 0.000000 0.771489 -0.636242
vn 0.000000 0.771489 -0.636242
vn 0.000000 0.859570 -0.511019
vn 0.000000 0.859570 -0.511019
vn 0.000000 0.927503 -0.373817
vn 0.000000 0.927503 -0.373817
vn 0.000000 0.973695 -0.227854
vn 0.000000 0.973695 -0.227854
vn 0.000000 0.997066 -0.076549
vn 0.000000 0.997066 -0.076549
vn -1.000000 0.000000 0.000000
vn -1.000000 0.000000 0.000000
vn -1.000000 0.000000 0.000000
vn -1.000000 0.000000 0.000000
vn -1.000000 0.000000 0.000000
vn -1.000000 0.000000 -0.000000
vn -1.000000 0.000000 0.000000
vn -1.000000 0.000000 0.000000
vn -1.000000 0.000000 -0.000000
vn -1.000000 0.000000 0.000000
vn -1.000000 0.000000 0.000000
vn -1.000000 0.000000 0.000000
vn -1.000000 0.000000 0.000000
vn -1.000000 0.000000 -0.000000
vn -1.000000 0.000000 0.000000
vn -1.000000 0.000000 -0.000000
vn -1.000000 0.000000 0.000000
vn -1.000000 0.000000 0.000000
vn -1.000000 0.000000 -0.000000
vn -1.000000 0.000000 0.000000
vn -1.000000 0.000000 -0.000000
vn -1.000000 0.000000 0.000000
vn -1.000000 0.000000 0.000000
vn -1.000000 0.000000 0.000000
vn -1.000000 0.000000 -0.000000
vn -1.000000 0.000000 0.000000
vn -1.000000 0.000000 0.000000
vn -1.000000 0.000000 0.000000
vn -1.000000 0.000000 0.000000
vn -1.000000 0.000000 -0.000000
vn -1.000000 0.000000 0.000000
vn -1.000000 0.000000 0.000000
vn -1.000000 0.000000 0.000000
vn -1.000000 0.000000 -0.000000
vn -1.000000 0.000000 0.000000
vn -1.000000 0.000000 0.000000
vn -1.000000 0.000000 0.000000
vn -1.000000 0.000000 0.000000
vn -1.000000 0.000000 0.000000
vn -1.000000 0.000000 -0.000000
vn -1.000000 0.000000 0.000000
vn -1.000000 0.000000 0.000000
vn -1.000000 0.000000 0.000000
vn -1.000000 0.000000 -0.000000
vn -1.000000 0.000000 0.000000
vn -1.000000 0.000000 0.000000
vn -1.000000 0.000000 0.000000
vn -1.000000 0.000000 -0.000000
vn -1.000000 0.000000 0.000000
vn -1.000000 0.000000 0.000000
vn -1.000000 0.000000 0.000000
vn -1.000000 0.000000 -0.000000
vn -1.000000 0.000000 0.000000
vn -1.000000 0.000000 -0.000000
vn -1.000000 0.000000 0.000000
vn -1.000000 0.000000 0.000000
vn -1.000000 0.000000 0.000000
vn -1.000000 0.000000 0.000000
vn -1.000000 0.000000 0.000000
vn -1.000000 0.000000 -0.000000
vn -1.000000 0.000000 0.000000
vn -1.000000 0.000000 0.000000
vn -1.000000 0.000000 0.000000
vn -1.000000 0.000000 -0.000000
vn -1.000000 0.000000 0.000000
vn -1.000000 0.000000 0.000000
vn -1.000000 0.000000 -0.000000
vn -1.000000 0.000000 0.000000
vn -1.000000 0.000000 0.000000
vn -1.000000 0.000000 0.000000
vn -1.000000 0.000000 -0.000000
vn -1.000000 0.000000 0.000000
vn -1.000000 0.000000 0.000000
vn -1.000000 0.000000 -0.000000
f 1//1 2//1 3//1
f 1//2 3//2 4//2
f 5//3 4//3 6//3
f 5//4 1//4 4//4
f 7//5 6//5 8//5
f 7//6 5//6 6//6
f 9//7 8//7 10//7
f 9//8 7//8 8//8
f 11//9 10//9 12//9
f 11//10 9//10 10//10
f 13//11 12//11 14//11
f 13//12 11//12 12//12
f 15//13 14//13 16//13
f 15//14 13//14 14//14
f 17//15 15//15 16//15
f 17//16 16//16 18//16
f 19//17 17//17 18//17
f 19//18 18//18 20//18
f 19//19 20//19 21//19
f 22//20 19//20 21//20
f 23//21 22//21 21//21
f 23//22 21//22 24//22
f 23//23 24//23 25//23
f 26//24 23//24 25//24
f 27//25 26//25 25//25
f 27//26 25//26 28//26
f 29//27 27//27 28//27
f 29//28 28//28 30//28
f 31//29 29//29 30//29
f 31//30 30//30 32//30
f 33//31 31//31 32//31
f 33//32 32//32 34//32
f 35//33 33//33 34//33
f 35//34 34//34 36//34
f 37//35 35//35 36//35
f 37//36 36//36 38//36
f 39//37 37//37 38//37
f 39//38 38//38 40//38
f 41//39 39//39 40//39
f 41//40 40//40 42//40
f 41//41 42//41 43//41
f 44//42 43//42 45//42
f 44//43 41//43 43//43
f 46//44 44//44 45//44
f 47//45 45//45 48//45
f 47//46 48//46 49//46
f 47//47 46//47 45//47
f 50//48 47//48 49//48
f 51//49 49//49 52//49
f 51//50 52//50 53//50
f 51//51 50//51 49//51
f 54//52 53//52 55//52
f 54//53 51//53 53//53
f 56//54 54//54 55//54
f 57//55 55//55 58//55
f 57//56 56//56 55//56
f 59//57 58//57 60//57
f 59//58 57//58 58//58
f 61//59 60//59 62//59
f 61//60 62//60 63//60
f 61//61 59//61 60//61
f 64//62 63//62 65//62
f 64//63 61//63 63//63
f 66//64 64//64 65//64
f 2//65 66//65 65//65
f 2//66 65//66 3//66
f 43//67 67//67 68//67
f 43//68 68//68 69//68
f 42//69 70//69 67//69
f 42//70 67//70 43//70
f 45//71 69//71 71//71
f 45//72 43//72 69//72
f 40//73 70//73 42//73
f 40//74 72//74 73//74
f 40//75 73//75 70//75
f 48//76 45//76 71//76
f 48//77 71//77 74//77
f 38//78 72//78 40//78
f 38//79 75//79 72//79
f 49//80 48//80 74//80
f 49//81 74//81 76//81
f 49//82 76//82 77//82
f 36//83 78//83 75//83
f 36//84 75//84 38//84
f 52//85 77//85 79//85
f 52//86 49//86 77//86
f 34//87 78//87 36//87
f 34//88 80//88 81//88
f 34//89 81//89 78//89
f 53//90 52//90 79//90
f 53//91 79//91 82//91
f 53//92 82//92 83//92
f 32//93 84//93 80//93
f 32//94 80//94 34//94
f 55//95 53//95 83//95
f 55//96 83//96 85//96
f 30//97 84//97 32//97
f 30//98 86//98 87//98
f 30//99 87//99 84//99
f 58//100 55//100 85//100
f 58//101 85//101 88//101
f 28//102 86//102 30//102
f 89//103 86//103 28//103
f 90//104 58//104 88//104
f 60//105 58//105 90//105
f 25//106 89//106 28//106
f 91//107 89//107 25//107
f 92//108 60//108 90//108
f 92//109 62//109 60//109
f 93//110 25//110 24//110
f 93//111 91//111 25//111
f 94//112 62//112 92//112
f 94//113 63//113 62//113
f 95//114 24//114 21//114
f 95//115 93//115 24//115
f 96//116 63//116 94//116
f 97//117 21//117 20//117
f 97//118 95//118 21//118
f 98//119 63//119 96//119
f 98//120 65//120 63//120
f 99//121 97//121 20//121
f 100//122 3//122 65//122
f 100//123 65//123 98//123
f 101//124 99//124 20//124
f 101//125 20//125 18//125
f 102//126 3//126 100//126
f 103//127 101//127 18//127
f 103//128 18//128 16//128
f 104//129 3//129 102//129
f 104//130 4//130 3//130
f 105//131 103//131 16//131
f 106//132 6//132 4//132
f 106//133 4//133 104//133
f 107//134 105//134 16//134
f 107//135 16//135 14//135
f 108//136 6//136 106//136
f 109//137 107//137 14//137
f 109//138 14//138 12//138
f 110//139 6//139 108//139
f 110//140 8//140 6//140
f 111//141 109//141 12//141
f 112//142 8//142 110//142
f 112//143 10//143 8//143
f 113//144 111//144 12//144
f 113//145 10//145 112//145
f 113//146 12//146 10//146
f 104//147 114//147 115//147
f 104//148 102//148 114//148
f 106//149 104//149 115//149
f 106//150 115//150 116//150
f 108//151 116//151 117//151
f 108//152 117//152 118//152
f 108//153 106//153 116//153
f 110//154 108//154 118//154
f 112//155 118//155 119//155
f 112//156 110//156 118//156
f 113//157 119//157 120//157
f 113//158 120//158 121//158
f 113//159 112//159 119//159
f 111//160 113//160 121//160
f 109//161 121//161 122//161
f 109//162 122//162 123//162
f 109//163 111//163 121//163
f 107//164 109//164 123//164
f 105//165 123//165 124//165
f 105//166 107//166 123//166
f 103//167 124//167 125//167
f 103//168 125//168 126//168
f 103//169 105//169 124//169
f 101//170 126//170 127//170
f 101//171 103//171 126//171
f 99//172 101//172 127//172
f 97//173 127//173 128//173
f 97//174 99//174 127//174
f 95//175 128//175 129//175
f 95//176 129//176 130//176
f 95//177 97//177 128//177
f 93//178 95//178 130//178
f 91//179 130//179 131//179
f 91//180 131//180 132//180
f 91//181 93//181 130//181
f 89//182 132//182 133//182
f 89//183 91//183 132//183
f 86//184 89//184 133//184
f 87//185 133//185 134//185
f 87//186 86//186 133//186
f 84//187 134//187 135//187
f 84//188 135//188 136//188
f 84//189 87//189 134//189
f 80//190 136//190 137//190
f 80//191 84//191 136//191
f 81//192 80//192 137//192
f 78//193 137//193 138//193
f 78//194 138//194 139//194
f 78//195 81//195 137//195
f 75//196 139//196 140//196
f 75//197 78//197 139//197
f 72//198 75//198 140//198
f 73//199 72//199 140//199
f 73//200 140//200 141//200
f 73//201 141//201 142//201
f 70//202 73//202 142//202
f 70//203 142//203 143//203
f 67//204 70//204 143//204
f 68//205 67//205 143//205
f 68//206 143//206 144//206
f 68//207 144//207 145//207
f 69//208 68//208 145//208
f 71//209 69//209 145//209
f 71//210 145//210 146//210
f 74//211 71//211 146//211
f 74//212 146//212 147//212
f 76//213 74//213 147//213
f 76//214 147//214 148//214
f 76//215 148//215 149//215
f 77//216 76//216 149//216
f 79//217 149//217 150//217
f 79//218 150//218 151//218
f 79//219 77//219 149//219
f 82//220 79//220 151//220
f 83//221 151//221 152//221
f 83//222 152//222 153//222
f 83//223 82//223 151//223
f 85//224 83//224 153//224
f 88//225 153//225 154//225
f 88//226 85//226 153//226
f 90//227 154//227 155//227
f 90//228 88//228 154//228
f 92//229 155//229 156//229
f 92//230 90//230 155//230
f 94//231 156//231 157//231
f 94//232 92//232 156//232
f 96//233 157//233 158//233
f 96//234 158//234 159//234
f 96//235 94//235 157//235
f 98//236 96//236 159//236
f 100//237 159//237 160//237
f 100//238 98//238 159//238
f 102//239 160//239 114//239
f 102//240 100//240 160//240
f 143//241 161//241 162//241
f 144//242 143//242 162//242
f 144//243 162//243 163//243
f 142//244 161//244 143//244
f 142//245 164//245 161//245
f 145//246 144//246 163//246
f 145//247 163//247 165//247
f 145//248 165//248 166//248
f 141//249 167//249 164//249
f 141//250 164//250 142//250
f 146//251 166//251 168//251
f 146//252 145//252 166//252
f 140//253 167//253 141//253
f 140//254 169//254 170//254
f 140//255 170//255 167//255
f 147//256 146//256 168//256
f 147//257 168//257 171//257
f 139//258 172//258 169//258
f 139//259 169//259 140//259
f 148//260 147//260 171//260
f 148//261 171//261 173//261
f 138//262 174//262 172//262
f 138//263 172//263 139//263
f 149//264 173//264 175//264
f 149//265 148//265 173//265
f 137//266 176//266 174//266
f 137//267 174//267 138//267
f 150//268 175//268 177//268
f 150//269 149//269 175//269
f 136//270 178//270 176//270
f 136//271 176//271 137//271
f 151//272 177//272 179//272
f 151//273 179//273 180//273
f 151//274 150//274 177//274
f 135//275 181//275 182//275
f 135//276 182//276 178//276
f 135//277 178//277 136//277
f 152//278 180//278 183//278
f 152//279 151//279 180//279
f 134//280 184//280 181//280
f 134//281 181//281 135//281
f 153//282 183//282 185//282
f 153//283 152//283 183//283
f 133//284 184//284 134//284
f 186//285 184//285 133//285
f 154//286 185//286 187//286
f 154//287 153//287 185//287
f 132//288 186//288 133//288
f 155//289 154//289 187//289
f 188//290 155//290 187//290
f 189//291 186//291 132//291
f 131//292 189//292 132//292
f 156//293 155//293 188//293
f 190//294 156//294 188//294
f 191//295 189//295 131//295
f 130//296 191//296 131//296
f 192//297 156//297 190//297
f 192//298 157//298 156//298
f 193//299 191//299 130//299
f 194//300 157//300 192//300
f 194//301 158//301 157//301
f 195//302 193//302 130//302
f 195//303 130//303 129//303
f 196//304 159//304 158//304
f 196//305 158//305 194//305
f 197//306 195//306 129//306
f 197//307 129//307 128//307
f 198//308 160//308 159//308
f 198//309 159//309 196//309
f 199//310 197//310 128//310
f 199//311 128//311 127//311
f 200//312 199//312 127//312
f 200//313 127//313 126//313
f 201//314 114//314 160//314
f 201//315 160//315 198//315
f 202//316 114//316 201//316
f 203//317 200//317 126//317
f 203//318 126//318 125//318
f 204//319 115//319 114//319
f 204//320 114//320 202//320
f 205//321 125//321 124//321
f 205//322 203//322 125//322
f 206//323 205//323 124//323
f 207//324 116//324 115//324
f 207//325 115//325 204//325
f 208//326 117//326 116//326
f 208//327 116//327 207//327
f 209//328 124//328 123//328
f 209//329 206//329 124//329
f 210//330 118//330 117//330
f 210//331 117//331 208//331
f 211//332 123//332 122//332
f 211//333 209//333 123//333
f 212//334 122//334 121//334
f 212//335 211//335 122//335
f 213//336 118//336 210//336
f 213//337 119//337 118//337
f 214//338 119//338 213//338
f 215//339 121//339 120//339
f 215//340 212//340 121//340
f 216//341 119//341 214//341
f 216//342 215//342 120//342
f 216//343 120//343 119//343
f 202//344 217//344 218//344
f 204//345 202//345 218//345
f 207//346 218//346 219//346
f 207//347 219//347 220//347
f 207//348 204//348 218//348
f 208//349 220//349 221//349
f 208//350 207//350 220//350
f 210//351 208//351 221//351
f 213//352 221//352 222//352
f 213//353 222//353 223//353
f 213//354 210//354 221//354
f 214//355 213//355 223//355
f 216//356 223//356 224//356
f 216//357 214//357 223//357
f 215//358 224//358 225//358
f 215//359 225//359 226//359
f 215//360 216//360 224//360
f 212//361 215//361 226//361
f 211//362 226//362 227//362
f 211//363 227//363 228//363
f 211//364 212//364 226//364
f 209//365 228//365 229//365
f 209//366 211//366 228//366
f 206//367 209//367 229//367
f 205//368 229//368 230//368
f 205//369 206//369 229//369
f 203//370 230//370 231//370
f 203//371 205//371 230//371
f 200//372 231//372 232//372
f 200//373 232//373 233//373
f 200//374 203//374 231//374
f 199//375 200//375 233//375
f 197//376 233//376 234//376
f 197//377 199//377 233//377
f 195//378 234//378 235//378
f 195//379 197//379 234//379
f 193//380 235//380 236//380
f 193//381 195//381 235//381
f 191//382 236//382 237//382
f 191//383 237//383 238//383
f 191//384 193//384 236//384
f 189//385 191//385 238//385
f 186//386 238//386 239//386
f 186//387 189//387 238//387
f 184//388 186//388 239//388
f 184//389 239//389 240//389
f 181//390 184//390 240//390
f 181//391 240//391 241//391
f 182//392 181//392 241//392
f 182//393 241//393 242//393
f 178//394 182//394 242//394
f 178//395 242//395 243//395
f 176//396 178//396 243//396
f 176//397 243//397 244//397
f 174//398 244//398 245//398
f 174//399 176//399 244//399
f 172//400 245//400 246//400
f 172//401 174//401 245//401
f 169//402 246//402 247//402
f 169//403 247//403 248//403
f 169//404 172//404 246//404
f 170//405 248//405 249//405
f 170//406 169//406 248//406
f 167//407 170//407 249//407
f 164//408 249//408 250//408
f 164//409 167//409 249//409
f 161//410 250//410 251//410
f 161//411 164//411 250//411
f 162//412 251//412 252//412
f 162//413 161//413 251//413
f 163//414 252//414 253//414
f 163//415 162//415 252//415
f 165//416 253//416 254//416
f 165//417 163//417 253//417
f 166//418 254//418 255//418
f 166//419 255//419 256//419
f 166//420 165//420 254//420
f 168//421 166//421 256//421
f 171//422 256//422 257//422
f 171//423 168//423 256//423
f 173//424 257//424 258//424
f 173//425 171//425 257//425
f 175//426 258//426 259//426
f 175//427 173//427 258//427
f 177//428 259//428 260//428
f 177//429 175//429 259//429
f 179//430 260//430 261//430
f 179//431 261//431 262//431
f 179//432 177//432 260//432
f 180//433 179//433 262//433
f 183//434 180//434 262//434
f 183//435 262//435 263//435
f 185//436 183//436 263//436
f 185//437 263//437 264//437
f 187//438 185//438 264//438
f 187//439 264//439 265//439
f 188//440 187//440 265//440
f 188//441 265//441 266//441
f 190//442 188//442 266//442
f 190//443 266//443 267//443
f 192//444 190//444 267//444
f 192//445 267//445 268//445
f 192//446 268//446 269//446
f 194//447 192//447 269//447
f 196//448 194//448 269//448
f 196//449 269//449 270//449
f 198//450 196//450 270//450
f 198//451 270//451 271//451
f 201//452 198//452 271//452
f 201//453 271//453 272//453
f 202//454 201//454 272//454
f 202//455 272//455 217//455
f 252//456 273//456 274//456
f 251//457 273//457 252//457
f 251//458 275//458 273//458
f 253//459 252//459 274//459
f 253//460 274//460 276//460
f 254//461 253//461 276//461
f 254//462 276//462 277//462
f 250//463 278//463 275//463
f 250//464 275//464 251//464
f 255//465 254//465 277//465
f 255//466 277//466 279//466
f 249//467 280//467 278//467
f 249//468 278//468 250//468
f 248//469 281//469 280//469
f 248//470 280//470 249//470
f 256//471 279//471 282//471
f 256//472 255//472 279//472
f 247//473 283//473 281//473
f 247//474 281//474 248//474
f 257//475 282//475 284//475
f 257//476 256//476 282//476
f 246//477 285//477 283//477
f 246//478 283//478 247//478
f 258//479 284//479 286//479
f 258//480 257//480 284//480
f 245//481 287//481 285//481
f 245//482 285//482 246//482
f 259//483 286//483 288//483
f 259//484 258//484 286//484
f 289//485 287//485 245//485
f 244//486 289//486 245//486
f 260//487 259//487 288//487
f 290//488 260//488 288//488
f 291//489 289//489 244//489
f 243//490 291//490 244//490
f 261//491 260//491 290//491
f 292//492 261//492 290//492
f 293//493 291//493 243//493
f 262//494 261//494 292//494
f 242//495 293//495 243//495
f 294//496 262//496 292//496
f 295//497 293//497 242//497
f 241//498 295//498 242//498
f 263//499 262//499 294//499
f 296//500 263//500 294//500
f 297//501 295//501 241//501
f 240//502 297//502 241//502
f 264//503 263//503 296//503
f 298//504 264//504 296//504
f 299//505 297//505 240//505
f 239//506 299//506 240//506
f 265//507 264//507 298//507
f 300//508 265//508 298//508
f 301//509 299//509 239//509
f 266//510 265//510 300//510
f 238//511 301//511 239//511
f 302//512 266//512 300//512
f 303//513 301//513 238//513
f 267//514 266//514 302//514
f 237//515 303//515 238//515
f 304//516 267//516 302//516
f 305//517 303//517 237//517
f 236//518 305//518 237//518
f 268//519 267//519 304//519
f 306//520 268//520 304//520
f 307//521 305//521 236//521
f 235//522 307//522 236//522
f 269//523 268//523 306//523
f 308//524 269//524 306//524
f 309//525 307//525 235//525
f 234//526 309//526 235//526
f 270//527 269//527 308//527
f 310//528 270//528 308//528
f 311//529 309//529 234//529
f 233//530 311//530 234//530
f 271//531 270//531 310//531
f 312//532 271//532 310//532
f 313//533 311//533 233//533
f 232//534 313//534 233//534
f 272//535 271//535 312//535
f 314//536 272//536 312//536
f 217//537 272//537 314//537
f 315//538 232//538 231//538
f 315//539 313//539 232//539
f 316//540 217//540 314//540
f 317//541 231//541 230//541
f 317//542 315//542 231//542
f 318//543 218//543 217//543
f 318//544 217//544 316//544
f 319//545 230//545 229//545
f 319//546 317//546 230//546
f 320//547 218//547 318//547
f 320//548 219//548 218//548
f 321//549 319//549 229//549
f 321//550 229//550 228//550
f 322//551 219//551 320//551
f 322//552 220//552 219//552
f 323//553 321//553 228//553
f 323//554 228//554 227//554
f 324//555 220//555 322//555
f 324//556 221//556 220//556
f 325//557 323//557 227//557
f 325//558 227//558 226//558
f 326//559 221//559 324//559
f 326//560 222//560 221//560
f 327//561 325//561 226//561
f 327//562 226//562 225//562
f 328//563 222//563 326//563
f 328//564 223//564 222//564
f 329//565 327//565 225//565
f 329//566 225//566 224//566
f 330//567 223//567 328//567
f 330//568 329//568 224//568
f 330//569 224//569 223//569
f 318//570 331//570 332//570
f 318//571 316//571 331//571
f 320//572 332//572 333//572
f 320//573 333//573 334//573
f 320//574 318//574 332//574
f 322//575 320//575 334//575
f 324//576 334//576 335//576
f 324//577 322//577 334//577
f 326//578 335//578 336//578
f 326//579 336//579 337//579
f 326//580 324//580 335//580
f 328//581 326//581 337//581
f 330//582 337//582 338//582
f 330//583 338//583 339//583
f 330//584 328//584 337//584
f 329//585 330//585 339//585
f 327//586 339//586 340//586
f 327//587 329//587 339//587
f 325//588 340//588 341//588
f 325//589 341//589 342//589
f 325//590 327//590 340//590
f 323//591 325//591 342//591
f 321//592 342//592 343//592
f 321//593 323//593 342//593
f 319//594 343//594 344//594
f 319//595 344//595 345//595
f 319//596 321//596 343//596
f 317//597 319//597 345//597
f 315//598 345//598 346//598
f 315//599 317//599 345//599
f 313//600 346//600 347//600
f 313//601 315//601 346//601
f 311//602 347//602 348//602
f 311//603 313//603 347//603
f 309//604 348//604 349//604
f 309//605 311//605 348//605
f 307//606 349//606 350//606
f 307//607 309//607 349//607
f 305//608 350//608 351//608
f 305//609 351//609 352//609
f 305//610 307//610 350//610
f 303//611 305//611 352//611
f 301//612 303//612 352//612
f 301//613 352//613 353//613
f 301//614 353//614 354//614
f 299//615 301//615 354//615
f 297//616 299//616 354//616
f 297//617 354//617 355//617
f 295//618 297//618 355//618
f 295//619 355//619 356//619
f 293//620 356//620 357//620
f 293//621 295//621 356//621
f 291//622 357//622 358//622
f 291//623 293//623 357//623
f 289//624 358//624 359//624
f 289//625 359//625 360//625
f 289//626 291//626 358//626
f 287//627 289//627 360//627
f 285//628 360//628 361//628
f 285//629 287//629 360//629
f 283//630 361//630 362//630
f 283//631 285//631 361//631
f 281//632 362//632 363//632
f 281//633 363//633 364//633
f 281//634 283//634 362//634
f 280//635 364//635 365//635
f 280//636 281//636 364//636
f 278//637 280//637 365//637
f 275//638 365//638 366//638
f 275//639 278//639 365//639
f 273//640 366//640 367//640
f 273//641 367//641 368//641
f 273//642 275//642 366//642
f 274//643 368//643 369//643
f 274//644 273//644 368//644
f 276//645 274//645 369//645
f 277//646 369//646 370//646
f 277//647 276//647 369//647
f 279//648 370//648 371//648
f 279//649 277//649 370//649
f 282//650 371//650 372//650
f 282//651 279//651 371//651
f 284//652 372//652 373//652
f 284//653 282//653 372//653
f 286//654 373//654 374//654
f 286//655 284//655 373//655
f 288//656 374//656 375//656
f 288//657 286//657 374//657
f 290//658 288//658 375//658
f 290//659 375//659 376//659
f 292//660 290//660 376//660
f 292//661 376//661 377//661
f 294//662 292//662 377//662
f 294//663 377//663 378//663
f 294//664 378//664 379//664
f 296//665 294//665 379//665
f 298//666 296//666 379//666
f 298//667 379//667 380//667
f 300//668 298//668 380//668
f 300//669 380//669 381//669
f 302//670 300//670 381//670
f 302//671 381//671 382//671
f 304//672 302//672 382//672
f 304//673 382//673 383//673
f 306//674 304//674 383//674
f 306//675 383//675 384//675
f 308//676 306//676 384//676
f 308//677 384//677 385//677
f 308//678 385//678 386//678
f 310//679 308//679 386//679
f 312//680 310//680 386//680
f 312//681 386//681 387//681
f 314//682 312//682 387//682
f 314//683 387//683 388//683
f 316//684 314//684 388//684
f 316//685 388//685 331//685
f 389//686 382//686 381//686
f 389//687 383//687 382//687
f 390//688 389//688 381//688
f 390//689 381//689 380//689
f 391//690 383//690 389//690
f 391//691 384//691 383//691
f 392//692 390//692 380//692
f 392//693 379//693 378//693
f 392//694 380//694 379//694
f 393//695 384//695 391//695
f 393//696 385//696 384//696
f 394//697 392//697 378//697
f 394//698 378//698 377//698
f 395//699 385//699 393//699
f 395//700 386//700 385//700
f 395//701 387//701 386//701
f 396//702 394//702 377//702
f 396//703 377//703 376//703
f 397//704 388//704 387//704
f 397//705 387//705 395//705
f 398//706 375//706 374//706
f 398//707 376//707 375//707
f 398//708 396//708 376//708
f 399//709 332//709 331//709
f 399//710 388//710 397//710
f 399//711 331//711 388//711
f 400//712 398//712 374//712
f 400//713 374//713 373//713
f 401//714 333//714 332//714
f 401//715 332//715 399//715
f 402//716 372//716 371//716
f 402//717 373//717 372//717
f 402//718 400//718 373//718
f 403//719 334//719 333//719
f 403//720 335//720 334//720
f 403//721 333//721 401//721
f 404//722 371//722 370//722
f 404//723 402//723 371//723
f 405//724 336//724 335//724
f 405//725 335//725 403//725
f 406//726 370//726 369//726
f 406//727 404//727 370//727
f 407//728 337//728 336//728
f 407//729 336//729 405//729
f 368//730 406//730 369//730
f 408//731 406//731 368//731
f 409//732 338//732 337//732
f 409//733 337//733 407//733
f 367//734 408//734 368//734
f 410//735 408//735 367//735
f 339//736 409//736 411//736
f 339//737 338//737 409//737
f 366//738 410//738 367//738
f 366//739 412//739 410//739
f 340//740 339//740 411//740
f 340//741 411//741 413//741
f 365//742 412//742 366//742
f 341//743 340//743 413//743
f 364//744 412//744 365//744
f 364//745 414//745 412//745
f 342//746 341//746 413//746
f 342//747 413//747 415//747
f 363//748 414//748 364//748
f 363//749 416//749 414//749
f 343//750 342//750 415//750
f 343//751 415//751 417//751
f 362//752 416//752 363//752
f 344//753 343//753 417//753
f 344//754 417//754 418//754
f 361//755 416//755 362//755
f 361//756 419//756 416//756
f 345//757 344//757 418//757
f 360//758 419//758 361//758
f 360//759 420//759 419//759
f 346//760 345//760 418//760
f 346//761 418//761 421//761
f 359//762 420//762 360//762
f 359//763 422//763 420//763
f 347//764 346//764 421//764
f 347//765 421//765 423//765
f 358//766 422//766 359//766
f 348//767 347//767 423//767
f 357//768 422//768 358//768
f 357//769 424//769 422//769
f 349//770 423//770 425//770
f 349//771 348//771 423//771
f 356//772 426//772 424//772
f 356//773 424//773 357//773
f 350//774 425//774 427//774
f 350//775 349//775 425//775
f 355//776 426//776 356//776
f 351//777 350//777 427//777
f 354//778 428//778 426//778
f 354//779 426//779 355//779
f 352//780 427//780 429//780
f 352//781 351//781 427//781
f 353//782 429//782 428//782
f 353//783 428//783 354//783
f 353//784 352//784 429//784
f 401//785 430//785 431//785
f 401//786 399//786 430//786
f 403//787 431//787 432//787
f 403//788 432//788 433//788
f 403//789 401//789 431//789
f 405//790 403//790 433//790
f 407//791 433//791 434//791
f 407//792 434//792 435//792
f 407//793 405//793 433//793
f 409//794 435//794 436//794
f 409//795 407//795 435//795
f 411//796 409//796 436//796
f 413//797 411//797 436//797
f 413//798 436//798 437//798
f 415//799 437//799 438//799
f 415//800 413//800 437//800
f 417//801 438//801 439//801
f 417//802 415//802 438//802
f 418//803 439//803 440//803
f 418//804 417//804 439//804
f 421//805 440//805 441//805
f 421//806 418//806 440//806
f 423//807 441//807 442//807
f 423//808 421//808 441//808
f 425//809 442//809 443//809
f 425//810 423//810 442//810
f 427//811 443//811 444//811
f 427//812 425//812 443//812
f 429//813 444//813 445//813
f 429//814 445//814 446//814
f 429//815 427//815 444//815
f 428//816 429//816 446//816
f 426//817 446//817 447//817
f 426//818 428//818 446//818
f 424//819 447//819 448//819
f 424//820 448//820 449//820
f 424//821 426//821 447//821
f 422//822 424//822 449//822
f 420//823 449//823 450//823
f 420//824 422//824 449//824
f 419//825 450//825 451//825
f 419//826 451//826 452//826
f 419//827 420//827 450//827
f 416//828 419//828 452//828
f 414//829 452//829 453//829
f 414//830 416//830 452//830
f 412//831 453//831 454//831
f 412//832 454//832 455//832
f 412//833 414//833 453//833
f 410//834 412//834 455//834
f 408//835 455//835 456//835
f 408//836 410//836 455//836
f 406//837 456//837 457//837
f 406//838 457//838 458//838
f 406//839 408//839 456//839
f 404//840 406//840 458//840
f 402//841 404//841 458//841
f 402//842 458//842 459//842
f 400//843 402//843 459//843
f 400//844 459//844 460//844
f 398//845 400//845 460//845
f 398//846 460//846 461//846
f 396//847 398//847 461//847
f 396//848 461//848 462//848
f 396//849 462//849 463//849
f 394//850 396//850 463//850
f 392//851 394//851 463//851
f 392//852 463//852 464//852
f 390//853 392//853 464//853
f 390//854 464//854 465//854
f 389//855 390//855 465//855
f 389//856 465//856 466//856
f 391//857 389//857 466//857
f 391//858 466//858 467//858
f 393//859 391//859 467//859
f 393//860 467//860 468//860
f 395//861 468//861 469//861
f 395//862 393//862 468//862
f 397//863 469//863 470//863
f 397//864 395//864 469//864
f 399//865 470//865 430//865
f 399//866 397//866 470//866
f 59//867 466//867 465//867
f 59//868 467//868 466//868
f 57//869 465//869 464//869
f 57//870 59//870 465//870
f 61//871 468//871 467//871
f 61//872 467//872 59//872
f 56//873 57//873 464//873
f 56//874 464//874 463//874
f 64//875 468//875 61//875
f 64//876 469//876 468//876
f 54//877 56//877 463//877
f 54//878 463//878 462//878
f 66//879 470//879 469//879
f 66//880 469//880 64//880
f 51//881 54//881 462//881
f 51//882 461//882 460//882
f 51//883 462//883 461//883
f 2//884 431//884 430//884
f 2//885 470//885 66//885
f 2//886 430//886 470//886
f 50//887 51//887 460//887
f 50//888 460//888 459//888
f 1//889 432//889 431//889
f 1//890 431//890 2//890
f 47//891 50//891 459//891
f 47//892 459//892 458//892
f 5//893 433//893 432//893
f 5//894 432//894 1//894
f 46//895 458//895 457//895
f 46//896 47//896 458//896
f 7//897 434//897 433//897
f 7//898 433//898 5//898
f 44//899 457//899 456//899
f 44//900 46//900 457//900
f 9//901 435//901 434//901
f 9//902 434//902 7//902
f 455//903 44//903 456//903
f 455//904 41//904 44//904
f 436//905 9//905 11//905
f 436//906 435//906 9//906
f 454//907 41//907 455//907
f 454//908 39//908 41//908
f 437//909 11//909 13//909
f 437//910 436//910 11//910
f 453//911 37//911 39//911
f 453//912 39//912 454//912
f 438//913 13//913 15//913
f 438//914 437//914 13//914
f 452//915 35//915 37//915
f 452//916 37//916 453//916
f 439//917 15//917 17//917
f 439//918 438//918 15//918
f 451//919 35//919 452//919
f 440//920 439//920 17//920
f 450//921 33//921 35//921
f 450//922 35//922 451//922
f 441//923 17//923 19//923
f 441//924 440//924 17//924
f 449//925 31//925 33//925
f 449//926 33//926 450//926
f 442//927 19//927 22//927
f 442//928 441//928 19//928
f 448//929 29//929 31//929
f 448//930 31//930 449//930
f 443//931 22//931 23//931
f 443//932 442//932 22//932
f 447//933 29//933 448//933
f 447//934 27//934 29//934
f 444//935 443//935 23//935
f 444//936 23//936 26//936
f 446//937 27//937 447//937
f 446//938 26//938 27//938
f 445//939 444//939 26//939
f 445//940 26//940 446//940
